<svg xmlns="http://www.w3.org/2000/svg" viewBox="0 0 226.6 226.6" fill="#4875FF"><g id="enari"><path d="M77.76,209.09a2.92,2.92,0,0,1-.09-.5V188.93a3.66,3.66,0,0,1,0-.39c.53.12,1,.24,1.53.33a1.19,1.19,0,0,0,.67,0,3.86,3.86,0,0,1,3.57.34.57.57,0,0,0,.71,0,3.8,3.8,0,0,1,5,.78,4.5,4.5,0,0,1,.77,2.72c0,3.27,0,6.55,0,9.83,0,2.18,0,4.36,0,6.55H87.43c0-.27,0-.54,0-.8V191.16a4.56,4.56,0,0,0,0-.52,1.15,1.15,0,0,0-1.67-1,1.21,1.21,0,0,0-.61,1.26q0,9.07,0,18.16H82.59c0-.27,0-.53,0-.8v-17a6,6,0,0,0,0-.74,1.07,1.07,0,0,0-1.43-.93c-.6.15-.83.54-.83,1.44q0,8.63,0,17.24c0,.27,0,.53,0,.8Z"/><path d="M53.84,209.09a3.63,3.63,0,0,1-.09-.56V189.11c0-.15,0-.29,0-.44a2,2,0,0,1,2.53,2.15c0,2.32,0,4.64,0,7v.68l1.26-.13a1,1,0,0,0,1-.94,6.23,6.23,0,0,0,0-.74q0-3.66,0-7.3v-.67c1.44-.17,2.47.52,2.52,1.82.08,1.78.06,3.57,0,5.34a3.55,3.55,0,0,1-1.68,3c1.47,1,1.76,2.48,1.74,4.1,0,1.84,0,3.68,0,5.52a5.13,5.13,0,0,1-.09.67H58.67c0-.25-.05-.49-.05-.74,0-2.45,0-4.9,0-7.35a4.1,4.1,0,0,0-.06-.86,1,1,0,0,0-1-.85c-.8,0-1.22.4-1.22,1.31,0,2.58,0,5.17,0,7.75,0,.25,0,.49-.05.74Z"/><path d="M127,209.09c0-1.46,0-2.91,0-4.37v-16a2,2,0,0,1,2.54,2c0,2.38,0,4.75,0,7.13v.66c.35-.05.66-.1,1-.13,1-.09,1.33-.42,1.33-1.46v-8.2a2,2,0,0,1,2.55,2.07c0,1.51,0,3,0,4.54a4,4,0,0,1-1.7,3.52,4.1,4.1,0,0,1,1.69,3c0,2.41,0,4.83,0,7.24h-2.53v-8.44c0-.86-.37-1.32-1.07-1.35s-1.23.4-1.23,1.3c0,2.83,0,5.66,0,8.49Z"/><path d="M69.25,209.09l-.77-.16a3.52,3.52,0,0,1-2.76-3.56c0-2.2,0-4.41,0-6.61a3.5,3.5,0,0,1,3.33-3.64l.38,0V196c-1,.3-1.11.52-1.12,1.53,0,3.08,0,6.16,0,9.25,0,.53.1,1,.66,1.22a1.1,1.1,0,0,0,1.57-.92,3.4,3.4,0,0,0,0-.45q0-7.78,0-15.58c0-.9-.27-1.32-.9-1.45a1.06,1.06,0,0,0-1.34.91c0,.29-.07.58-.14.85a2,2,0,0,1-2.41,1.4,3.53,3.53,0,0,1,3.28-4.13c2.51-.14,4.09,1.38,4.1,4,0,3.66,0,7.32,0,11,0,.62,0,1.23,0,1.84a3.54,3.54,0,0,1-2.77,3.5l-.77.16Z"/><path d="M143.78,209.09a.88.88,0,0,0-.2-.09,3.51,3.51,0,0,1-3.33-3.76c-.05-4.27,0-8.54,0-12.82a3.67,3.67,0,0,1,4.85-3.67,3.57,3.57,0,0,1,2.57,3.55q0,3.27,0,6.55a3.48,3.48,0,0,1-3.67,3.64v-.83c1-.39,1.11-.57,1.11-1.66,0-3,0-6.05,0-9.08,0-1-.6-1.58-1.46-1.28-.31.1-.56.46-.76.75a1.36,1.36,0,0,0-.08.68v15.52c0,1,.34,1.43,1.07,1.47a1,1,0,0,0,1.21-1l0-.28a2,2,0,0,1,2.48-1.95,3.53,3.53,0,0,1-2.92,4.1l-.55.12Z"/><path d="M98.12,209.09c-.26-.05-.52-.09-.77-.15a3.51,3.51,0,0,1-2.79-3.42c0-2.32,0-4.64,0-7a3.39,3.39,0,0,1,3.65-3.39V196c-.89.28-1.11.59-1.11,1.54q0,4.54,0,9.08c0,1,.4,1.47,1.22,1.44a1,1,0,0,0,1-1.06c0-.29,0-.58,0-.86q0-7.62,0-15.23c0-1-.63-1.57-1.52-1.28-.57.19-.7.66-.75,1.18a2,2,0,0,1-2.47,2,3.51,3.51,0,0,1,3.16-4.15,3.58,3.58,0,0,1,4.17,3.78q0,6.41,0,12.82A3.52,3.52,0,0,1,98.66,209a.66.66,0,0,0-.19.09Z"/><path d="M214.39,104a8.21,8.21,0,0,0-4.83,5.28c-.35,1.07-.64,2.16-1,3.36-.25-.85-.49-1.6-.68-2.36a8.86,8.86,0,0,0-4.69-6.13A1.4,1.4,0,0,1,203,104s0-.06-.09-.15l.52-.31a8.49,8.49,0,0,0,4.28-5.29c.29-1,.58-2,1-3,.23.86.47,1.72.7,2.58a8.75,8.75,0,0,0,4.48,5.69,3.9,3.9,0,0,0,.57.21Z"/><path d="M12.21,103.74a7.2,7.2,0,0,0,3.09-2.18,9.44,9.44,0,0,0,2.09-4.22,13.59,13.59,0,0,1,.67-2.08c.26.87.53,1.75.76,2.63a8.69,8.69,0,0,0,4.49,5.68l.56.36c-3.89,1.61-5,5-5.76,8.6l-.14,0a16.61,16.61,0,0,0-.47-1.71A27.89,27.89,0,0,0,16,107.1,7.32,7.32,0,0,0,12.21,104Z"/><path d="M170.35,209.09a3.37,3.37,0,0,1-.1-.61V190.89a2.07,2.07,0,0,1,2.57-2.23v19.75c0,.22,0,.45-.06.68Z"/><path d="M155.51,209.09a4.49,4.49,0,0,1-.09-.61q0-8,0-16a2,2,0,0,1,2-2.2c.82-.08,1.06-.29,1.25-1.12.14,0,.29,0,.44,0l.47,0a3.5,3.5,0,0,1-1.15,2.75,1.3,1.3,0,0,0-.45,1.09c0,5.14,0,10.27,0,15.41,0,.25,0,.49,0,.74Z"/><path d="M168.85,209.09l-.65-.14a3.54,3.54,0,0,1-2.8-3.3,5.43,5.43,0,0,1,0-.57V188.7a2,2,0,0,1,2.56,1.84c0,.31,0,.62,0,.92v15.13c0,1,.22,1.27,1.13,1.54v1Z"/><path d="M204.56,79.62c0,.77.09,1.51.08,2.25a1,1,0,0,1-.84,1l-5.31,1.63a19.27,19.27,0,0,0,2.62.61,34.93,34.93,0,0,0,3.83.14c.81,0,1.07.08,1.36.83a11.76,11.76,0,0,0,2.08,3.55c.38.45.33.65-.2.93a12.1,12.1,0,0,1-4.54,1.13,24.86,24.86,0,0,1-8.1-.64,9.73,9.73,0,0,0,2.8,1.76,12.41,12.41,0,0,0,4.06,1,3.43,3.43,0,0,1,.69.21,2.62,2.62,0,0,1-.27.71c-.6.77-1.22,1.53-1.87,2.26a3.87,3.87,0,0,1-4.29,1,22,22,0,0,1-4-1.77c-6.93-3.86-11.54-9.53-13.24-17.38-.4-1.85-.62-3.74-1.06-5.58-.76-3.16-1.63-6.3-2.44-9.45a.72.72,0,0,0-.75-.57,16,16,0,0,1-9.24-4s0,0,0-.14A17.26,17.26,0,0,0,175,60.56c-.38-1-.7-1.84-1.1-2.7a14.48,14.48,0,0,0-7.75-7.16,29.35,29.35,0,0,0-6.41-2,5.05,5.05,0,0,0-3.64.7,3.72,3.72,0,0,0-.78,5.6,4.31,4.31,0,0,0,5.51.93,3.21,3.21,0,0,0,1.38-3.54c-.11.15-.18.27-.26.38a1,1,0,0,1-1.52.23,1.08,1.08,0,0,1-.1-1.5,1,1,0,0,1,1.52,0,3.21,3.21,0,0,1,.58,3.63c-1,2.35-3.29,3.29-6.08,2.66-5-1.12-6.36-7.21-2.86-10.77a9.49,9.49,0,0,1,5.54-2.53l1-.16c-.13-.14-.21-.26-.31-.35a18.14,18.14,0,0,0-7.75-4.2,6.69,6.69,0,0,1-3.35-2,3.43,3.43,0,0,0-3-1.08c-3.25.26-6.49.56-9.73.84h-.35c2.22-2.41,5.19-3,8.22-3.94-.38-.17-.62-.31-.87-.39a8.77,8.77,0,0,0-4.82,0c-1.57.41-3.15.83-4.74,1.13a5.69,5.69,0,0,1-3.75-.53A3.07,3.07,0,0,1,128,31.69l9.73-2.26,0-.2a9.12,9.12,0,0,0-1.24-.34,38.29,38.29,0,0,0-7.79-.37,27.15,27.15,0,0,1-3.49.07,7,7,0,0,1-4.61-2.36c-1.09-1.17-2.07-2.43-3.1-3.66l.11-.16a7.74,7.74,0,0,1,.83-.07,92.06,92.06,0,0,1,11.14.43c7,.81,13.6,2.74,19.41,6.91a32.13,32.13,0,0,1,9.21,10.73c.63,1.11,1.24,2.24,1.82,3.39a.94.94,0,0,0,1,.6A17.94,17.94,0,0,1,167,45a17.47,17.47,0,0,1,8.86,6.71,15.2,15.2,0,0,1,2.45,6.66c.59,3.38,1.15,6.76,2,10.08a19.68,19.68,0,0,0,5.82,10.05A12.29,12.29,0,0,0,191.22,81a17.71,17.71,0,0,0,12.28-1l.8-.31Z"/><path d="M28.07,84.45c-1.66-.5-3.38-1-5.08-1.54-.89-.28-1.09-.59-1.06-1.53,0-.57.08-1.13.13-1.79.68.26,1.3.49,1.92.74a17.8,17.8,0,0,0,14.85-.66,10.83,10.83,0,0,0,3.89-3.6,23.64,23.64,0,0,0,4.22-10.25c.57-3.18,1.16-6.37,1.76-9.54a13.46,13.46,0,0,1,3.66-6.53,15.19,15.19,0,0,1,9.11-5.15,28.27,28.27,0,0,1,4-.19,1,1,0,0,0,1-.63A49.68,49.68,0,0,1,72,35,31.32,31.32,0,0,1,85.8,25.32a43.4,43.4,0,0,1,12.36-2.64c3.29-.23,6.59-.24,9.88-.34a7.54,7.54,0,0,1,.83.06c0,.08,0,.13,0,.15A20.54,20.54,0,0,1,105.06,27,8,8,0,0,1,99,28.61a36.48,36.48,0,0,0-9.16.32,7,7,0,0,0-1,.3v.19l9.74,2.27a2.8,2.8,0,0,1-1,1.8,5.32,5.32,0,0,1-4.37.94c-1.77-.32-3.5-.82-5.25-1.24a8,8,0,0,0-4.25.05,9.74,9.74,0,0,0-.93.39c3,.91,6,1.54,8.22,3.92-.15,0-.27,0-.38,0-3.23-.28-6.45-.57-9.68-.83a3.4,3.4,0,0,0-3,1.09,6.75,6.75,0,0,1-3.35,2,18.6,18.6,0,0,0-7.06,3.58c-.33.28-.64.58-1,.89,1.19.28,2.35.47,3.44.84a7,7,0,0,1,4.91,5.18c.93,3.77-1.51,7.07-5.45,7.69a4.83,4.83,0,0,1-5.26-2.8,3.21,3.21,0,0,1,.5-3.59.94.94,0,0,1,1.17-.33,1,1,0,0,1-.07,1.94,1,1,0,0,1-1.18-.47c-.06-.09-.1-.2-.16-.29h-.15a5.53,5.53,0,0,0,0,1.41c.63,2.39,3.07,3.39,5.47,2.26A3.77,3.77,0,0,0,71.18,50a4.33,4.33,0,0,0-4.05-1.33,23.35,23.35,0,0,0-10.68,4.36,14.29,14.29,0,0,0-4.83,7.5,18.16,18.16,0,0,0,9-1.41l-.58.46a15.54,15.54,0,0,1-8.69,3.54.73.73,0,0,0-.75.57c-.87,3.41-1.86,6.8-2.58,10.24a71.8,71.8,0,0,1-1.72,7.66C44.21,88.16,39.83,92.78,34,96.11A22.15,22.15,0,0,1,31,97.56a8.85,8.85,0,0,1-2.45.52,3.44,3.44,0,0,1-3.09-1.33c-.55-.68-1.13-1.35-1.67-2A3.14,3.14,0,0,1,23.5,94a3.46,3.46,0,0,1,.74-.22,12.19,12.19,0,0,0,6.53-2.42.79.79,0,0,0,.28-.35l-.88.21c-.3.06-.6.13-.9.18a21.23,21.23,0,0,1-9.45-.27,10.52,10.52,0,0,1-1.44-.57c-.41-.19-.54-.48-.21-.86a12.34,12.34,0,0,0,2.21-3.81,1,1,0,0,1,1.15-.63,14.17,14.17,0,0,0,6.23-.67l.32-.11S28.13,84.39,28.07,84.45Z"/><path d="M82.48,73.08a10.4,10.4,0,0,0-6.76.8C73.3,75,71.28,76.51,70.6,79.19c-1.47,5.72-.36,11.33,4.85,15.23A35.52,35.52,0,0,0,82,98.27c1.1.5,1.12.55,1,1.73s-.11,1.22-1.28,1.06a62.13,62.13,0,0,1-6.7-1c-4.7-1.16-8.29-4-11.29-7.76a13.25,13.25,0,0,1-3.22-8.58c0-4,.87-7.74,3.63-10.79a12.72,12.72,0,0,1,9.33-4.19,36.1,36.1,0,0,1,4.73.41l.37.06c-.14-1.09-.33-2.14-.42-3.2-.48-5.56,2.16-12.49,10.25-14.36,4-.93,7.92-.86,11.53,1.42a23.44,23.44,0,0,1,6.14,5.65,19.79,19.79,0,0,1,4.09,10.74c.09,1.14.22,2.28.34,3.43,0,.43-.08.61-.54.65-2,.17-1.7.26-2.49-1.4a29.47,29.47,0,0,0-4.82-7.5,12.25,12.25,0,0,0-9.25-4,22.31,22.31,0,0,0-3.83.29,8,8,0,0,0-6,4.71,10.65,10.65,0,0,0-1.16,7.17A2.88,2.88,0,0,1,82.48,73.08Z"/><path d="M144.08,73a10.91,10.91,0,0,0-1.56-8.13,7.7,7.7,0,0,0-5.4-3.92,14.93,14.93,0,0,0-9.54,1A13.64,13.64,0,0,0,122.73,66a33.82,33.82,0,0,0-3.9,6.68c-.44,1-.5,1-1.57.92-1.33-.1-1.33-.1-1.16-1.42.27-2,.39-4.09.84-6.08a20.63,20.63,0,0,1,7.37-11.35,13.47,13.47,0,0,1,6.73-3.4c5-.69,9.56.13,13.39,3.6a12.57,12.57,0,0,1,3.83,7.47,16.92,16.92,0,0,1-.37,6.81l.93-.18a14.61,14.61,0,0,1,11.39,2,12.28,12.28,0,0,1,5.11,7.39,15.64,15.64,0,0,1-.26,10.2A17.55,17.55,0,0,1,161.4,94,20,20,0,0,1,150,100.45c-1.9.32-3.84.44-5.76.66-.4,0-.59-.08-.63-.51-.17-2-.27-1.75,1.37-2.51a32.52,32.52,0,0,0,6.52-3.94A12.76,12.76,0,0,0,156.55,83a19.51,19.51,0,0,0-.43-3.41A8.16,8.16,0,0,0,151.21,74a10.54,10.54,0,0,0-6.8-1,.86.86,0,0,1-.23,0S144.12,73,144.08,73Z"/><path d="M82.36,134.65a30.41,30.41,0,0,0,0,3.58,11.29,11.29,0,0,0,3,6.49,8,8,0,0,0,5,2.31A14.86,14.86,0,0,0,98.87,146a13.94,13.94,0,0,0,5.21-4.49,35.66,35.66,0,0,0,3.74-6.51c.38-.82.58-.93,1.47-.81,1.35.18,1.35.18,1.18,1.54-.26,2-.38,4-.81,5.92a20.35,20.35,0,0,1-7,11.1,14.17,14.17,0,0,1-6.69,3.62A16,16,0,0,1,83,153.56a12.61,12.61,0,0,1-4.81-9.09,17.41,17.41,0,0,1,.47-5.91l-2.8.4A13.16,13.16,0,0,1,61,128.29a15.59,15.59,0,0,1,.94-10,20.07,20.07,0,0,1,5-6.2,21,21,0,0,1,12.65-5.26l3.3-.26c.07.61.13,1.16.18,1.7a1,1,0,0,1-.65,1c-.93.46-1.86.91-2.78,1.38a21.78,21.78,0,0,0-7.21,5.68,9.34,9.34,0,0,0-2.08,4.83,19.92,19.92,0,0,0-.1,6.4A8,8,0,0,0,74.05,133a11.59,11.59,0,0,0,5.14,1.84,15.34,15.34,0,0,0,2.34-.11C81.84,134.72,82.14,134.67,82.36,134.65Z"/><path d="M148,138.58c.15,1.31.37,2.62.42,3.93.2,5.42-2.6,11.46-9.47,13.38a16.39,16.39,0,0,1-9.73.07,15.4,15.4,0,0,1-5.12-3.12,20.39,20.39,0,0,1-7.28-11.65c-.41-2.1-.53-4.26-.79-6.38,0-.38.1-.6.5-.58h.12c1.76-.16,1.59-.36,2.42,1.41a28.14,28.14,0,0,0,5,7.67,12.09,12.09,0,0,0,8.91,3.87,21,21,0,0,0,4.34-.37c2.87-.56,4.65-2.49,5.84-5.05a10.51,10.51,0,0,0,.88-7.12,13.06,13.06,0,0,0,1.57.16,12.72,12.72,0,0,0,2.9-.14c2.8-.64,5.26-1.88,6.81-4.46a9.59,9.59,0,0,0,1.21-5.54c-.08-1.5-.27-3-.5-4.5a8.69,8.69,0,0,0-2.25-4.26,22.54,22.54,0,0,0-7.46-5.56l-2.26-1.11a1,1,0,0,1-.56-1c.05-.51.11-1,.17-1.61l3.46.27a20.82,20.82,0,0,1,11.77,4.65,21.6,21.6,0,0,1,5.53,6.32,14.8,14.8,0,0,1,1.26,10,13,13,0,0,1-3.45,7.18,13.39,13.39,0,0,1-11.35,4C149.92,138.88,149,138.71,148,138.58Z"/><path d="M162.34,154a.56.56,0,0,1,0-.22,3.15,3.15,0,0,0-1.42-3.44,3.38,3.38,0,0,0-3.74-.37c-1.29.62-2.43,1.42-2.67,3a3.9,3.9,0,0,0,3.85,4.55,12.59,12.59,0,0,0,4.67-.81,20.91,20.91,0,0,0,7.34-3.69,14.19,14.19,0,0,0,4.57-7.15s0-.07,0-.15a17.86,17.86,0,0,0-7.71.66c.17-.12.33-.25.51-.37a16.69,16.69,0,0,1,7.44-2.84.92.92,0,0,0,.87-.81c.79-3.06,1.65-6.09,2.4-9.16.4-1.65.57-3.36.93-5a25.35,25.35,0,0,1,4.93-11,29.15,29.15,0,0,1,12.32-8.84,3.84,3.84,0,0,1,4.22.82,21.32,21.32,0,0,1,2.21,2.7c.29.38.13.55-.47.66a35.46,35.46,0,0,0-3.58.73,10,10,0,0,0-3.59,2c.93-.19,1.71-.38,2.5-.51a21.36,21.36,0,0,1,8.72.29,10.14,10.14,0,0,1,1.65.66c.42.19.5.5.18.86a12.63,12.63,0,0,0-2.15,3.64c-.27.67-.56.89-1.28.78a14.64,14.64,0,0,0-6.23.7,1.82,1.82,0,0,0-.45.21,17.83,17.83,0,0,1,5.37,1.41,1.44,1.44,0,0,1,1,1.55c0,.59-.1,1.17-.15,1.82-.9-.37-1.71-.75-2.55-1.05a18.42,18.42,0,0,0-13.61.59,9.74,9.74,0,0,0-3.76,3.1,21.4,21.4,0,0,0-4.71,10.07c-.56,3.14-1.21,6.27-1.73,9.42a14.63,14.63,0,0,1-4,7.67c-2.52,2.71-5.43,4.71-9.15,5.17a17.15,17.15,0,0,1-8.78-.71,6.93,6.93,0,0,1-4.47-5,6.31,6.31,0,0,1,7.42-7.7,4.54,4.54,0,0,1,3.58,4.42,4.82,4.82,0,0,1-.43,1.26Z"/><path d="M64.32,153.88a1.44,1.44,0,0,1-.51-1.48,4.66,4.66,0,0,1,4.6-4.27,6.37,6.37,0,0,1,6.43,4.72,6.77,6.77,0,0,1-3.07,7.34,10.35,10.35,0,0,1-5.23,1.54,21,21,0,0,1-6.56-.42,17.34,17.34,0,0,1-7.73-5c-2.59-2.66-3.63-5.9-4.17-9.43-.46-3-1.08-5.88-1.63-8.81a23.87,23.87,0,0,0-2.33-5.66,19,19,0,0,0-4.26-5.29,4.75,4.75,0,0,0-1.46-.78,18,18,0,0,0-15.86.18l-.27.11s-.07,0-.23,0c0-.71-.08-1.43-.09-2.15a1.13,1.13,0,0,1,.79-1.08,19.65,19.65,0,0,1,5.54-1.61c-.85-.21-1.7-.46-2.56-.64a11.2,11.2,0,0,0-4-.17c-.82.11-1.12-.09-1.44-.89a11.83,11.83,0,0,0-2-3.44c-.41-.48-.36-.72.22-1a11.26,11.26,0,0,1,4.15-1.06,22.45,22.45,0,0,1,8.36.68s.08,0,.24,0c-.59-.4-1.08-.78-1.61-1.09a11.41,11.41,0,0,0-5.21-1.62l-.29,0c-.71-.09-.83-.29-.39-.87a18.77,18.77,0,0,1,2-2.42,3.9,3.9,0,0,1,4.32-.88,28.93,28.93,0,0,1,12.77,9.43,25.56,25.56,0,0,1,4.47,10.42c.32,1.51.45,3.07.82,4.57.8,3.27,1.69,6.52,2.55,9.77a.79.79,0,0,0,.78.62A16.94,16.94,0,0,1,59,146l.32.24s0,.06.13.18a16.66,16.66,0,0,0-7.82-.77,14.35,14.35,0,0,0,9,9.87,43.71,43.71,0,0,0,5.8,1.8,7.44,7.44,0,0,0,3-.14,3.38,3.38,0,0,0,2.67-3,3.34,3.34,0,0,0-1.43-3.56,4.36,4.36,0,0,0-3.35-1.07,3.6,3.6,0,0,0-3,4.3Z"/><path d="M114.13,104.78c.5.83,1,1.65,1.5,2.49a12.89,12.89,0,0,1,1.71,4.17,5.65,5.65,0,0,1-.27,2.94,44,44,0,0,0-2.44,10.72c-.11,1.3-.14,2.6-.21,4h-2.36c0-.78,0-1.56,0-2.33a38.52,38.52,0,0,0-2.37-11.78,6.89,6.89,0,0,1,.26-5.66c.7-1.4,1.52-2.75,2.29-4.11.06-.11.11-.23.23-.46-.29.14-.45.21-.61.3-1.16.66-2.34,1.3-3.49,2a6.86,6.86,0,0,1-6.17.49,39.53,39.53,0,0,0-11.37-2.36c-.88,0-1.76,0-2.68,0v-2.52c.84,0,1.67,0,2.51,0a37.7,37.7,0,0,0,11.55-2.34,7.24,7.24,0,0,1,6,.34c1.39.72,2.74,1.51,4.21,2.32a6.6,6.6,0,0,1-.34-.59c-.84-1.59-1.74-3.14-2.48-4.78a5.61,5.61,0,0,1,0-4.26,42.08,42.08,0,0,0,2.54-12.5c0-.68,0-1.37,0-2.13h2.44c0,.88,0,1.7,0,2.51A39.42,39.42,0,0,0,116.94,93a6.68,6.68,0,0,1-.21,5.35c-.68,1.4-1.5,2.75-2.25,4.12a1.38,1.38,0,0,0-.2.52c.22-.13.43-.27.65-.39,1.54-.8,3-1.68,4.64-2.39a5.72,5.72,0,0,1,4.36,0,41.72,41.72,0,0,0,14.12,2.55l.41,0v2.4h-.59a37.49,37.49,0,0,0-13.5,2.38,6.91,6.91,0,0,1-6.22-.54c-1.29-.78-2.62-1.5-3.94-2.25Z"/><path d="M83,102.41c0,.86,0,1.68,0,2.5,0,.41-.32.53-.67.57l-4.51.51a56.06,56.06,0,0,0-12.61,3.18,59.46,59.46,0,0,1-6,1.78,15.76,15.76,0,0,1-7.94-.45A87.4,87.4,0,0,1,39.61,106l-4-1.76-.61-.31c.1-.09.14-.15.2-.17,4.17-1.79,8.31-3.64,12.51-5.33a24.45,24.45,0,0,1,7.21-1.84A19.79,19.79,0,0,1,63.49,98a61.48,61.48,0,0,0,11.15,3.3c2.68.46,5.39.75,8.08,1.11Z"/><path d="M191.62,103.84a2.57,2.57,0,0,1-.38.25c-4.08,1.75-8.13,3.56-12.25,5.21a44.63,44.63,0,0,1-5.61,1.65,14.88,14.88,0,0,1-8.15-.5c-2.62-.79-5.19-1.73-7.78-2.59a52.46,52.46,0,0,0-11.31-2.17c-.63,0-1.26-.15-1.88-.21a.67.67,0,0,1-.71-.78c0-.74,0-1.49,0-2.31,1.06-.12,2.09-.25,3.13-.35a59.07,59.07,0,0,0,15.78-3.86,22,22,0,0,1,8.29-1.66,23.75,23.75,0,0,1,7.15,1.53,118.06,118.06,0,0,1,11.27,4.71Z"/><path d="M114.7,73.56h-2.87c-.19-1.65-.35-3.26-.56-4.87a60.44,60.44,0,0,0-3.78-14.34,21.29,21.29,0,0,1-1.53-8,23.07,23.07,0,0,1,1.4-6.72A106.69,106.69,0,0,1,112,28.5c.44-.95.85-1.92,1.32-3,.29.64.53,1.17.76,1.7,1.53,3.59,3.16,7.14,4.57,10.77a40.21,40.21,0,0,1,1.78,6.22,16.83,16.83,0,0,1-.76,8.55c-.77,2.44-1.72,4.83-2.47,7.27A54.26,54.26,0,0,0,115,71.44c-.05.67-.16,1.33-.24,2C114.76,73.47,114.73,73.5,114.7,73.56Z"/><path d="M113.3,182.29c-.4-.91-.74-1.67-1.07-2.44-1.47-3.45-3-6.87-4.39-10.35a26.21,26.21,0,0,1-1.78-6.7,19.09,19.09,0,0,1,1-8c.84-2.62,1.84-5.19,2.63-7.82a52.1,52.1,0,0,0,1.93-10.72c0-.65.15-1.29.24-2h2.94c.12,1,.24,2.06.35,3.1A58.71,58.71,0,0,0,119,153.12a22.42,22.42,0,0,1,1.65,8.12,22.12,22.12,0,0,1-1.31,6.62,98.06,98.06,0,0,1-4.56,11.08C114.28,180,113.83,181.07,113.3,182.29Z"/><path d="M91.31,168.51c-.22.23-.34.38-.47.49a13.54,13.54,0,0,1-7.08,3.3,7.18,7.18,0,0,0-1,.28,3.51,3.51,0,0,0,2.82.65c1.65-.27,3.3-.62,4.92-1a9.62,9.62,0,0,1,5.1-.24,3.81,3.81,0,0,1,2.75,2.22,1.8,1.8,0,0,1,.08.21,1.7,1.7,0,0,1,0,.23l-3.77.89c-1.64.38-3.29.75-4.92,1.15a8.19,8.19,0,0,0-.94.35l0,.2a26.27,26.27,0,0,0,2.91.36c2.45.05,4.91.1,7.35,0a8.52,8.52,0,0,1,7,2.87c1,1.06,1.85,2.19,2.76,3.29l-.09.17c-1,0-1.92,0-2.88,0-2.31-.09-4.63-.15-6.94-.33-7.23-.58-14.09-2.38-20.24-6.41A31.4,31.4,0,0,1,68.54,165.9a37.07,37.07,0,0,1-1.77-3.44,1.89,1.89,0,0,1,.3.19,17.23,17.23,0,0,0,6.82,3.65,8.44,8.44,0,0,1,4.24,2.5,2,2,0,0,0,1.83.62l7-.53C88.35,168.78,89.75,168.64,91.31,168.51Z"/><path d="M117.64,183.88c1.61-2.16,3.08-4.21,5.38-5.46a9.76,9.76,0,0,1,5.43-.81,37.59,37.59,0,0,0,9-.38.43.43,0,0,0,.31-.2,5.24,5.24,0,0,0-.89-.37c-2.77-.66-5.55-1.3-8.32-1.95-.15,0-.29-.08-.46-.13a3.32,3.32,0,0,1,2-2.31,7.71,7.71,0,0,1,5.23-.25c1.54.38,3.06.85,4.62,1.11a13.52,13.52,0,0,0,2.91,0,3.31,3.31,0,0,0,.9-.34v-.16a8.78,8.78,0,0,0-1-.29,13.56,13.56,0,0,1-7-3.29,2.72,2.72,0,0,1-.24-.24,1.24,1.24,0,0,1-.14-.23l1.72.13,9.5.76a2.39,2.39,0,0,0,2.14-.87,6.71,6.71,0,0,1,3.39-2.05,18.79,18.79,0,0,0,7.61-4s.07,0,.15-.07a1.75,1.75,0,0,1-.1.34,43.32,43.32,0,0,1-6.61,9.9,32.24,32.24,0,0,1-11.4,7.67,42.79,42.79,0,0,1-13.13,3.09c-3.45.26-6.92.31-10.38.45Z"/><path d="M86.74,77.46c2.89.92,5.77.8,8.64.89a45.67,45.67,0,0,1,5.61.35,5.36,5.36,0,0,1,4.54,4.11,5.2,5.2,0,0,1-1.67,5.57,4.25,4.25,0,0,1-3.44,1.12.87.87,0,0,0-.49.06l3.67,1.78-3,3-1.84-3.8a5,5,0,0,1-2.66,5.3A5.49,5.49,0,0,1,90,95.13a6.21,6.21,0,0,1-2.18-4.76c-.11-2.46-.15-4.93-.22-7.4A18.18,18.18,0,0,0,86.74,77.46Z"/><path d="M139.9,130.54c-3.29-1-6.7-.75-10.07-.87a33.18,33.18,0,0,1-4-.3,5.63,5.63,0,0,1-3.9-8.66,4.54,4.54,0,0,1,4.62-2.15.28.28,0,0,0,.27-.08l-3.66-1.77,3-3,1.88,3.88c-.2-3.29,1.43-5.51,4.24-6a5.68,5.68,0,0,1,6.59,5c.18,1.54.19,3.09.26,4.64.11,2.27.19,4.55.34,6.82A21.09,21.09,0,0,0,139.9,130.54Z"/><path d="M97.25,119.46l3.65-5.88,2.71,2.71L97.71,120v.14l1.94.19c.74.08,1.48.13,2.21.26,3,.56,4.42,3.84,3.92,6.18-.55,2.6-3.25,3.93-6,2.94A5.1,5.1,0,0,1,96.28,125c-.08-.91-.14-1.82-.2-2.74l-.2,0c-.14.8-.28,1.6-.4,2.41A24.29,24.29,0,0,1,95,128c-1,3.39-5.78,4.61-8.13,2.15a4.83,4.83,0,0,1-.45-5.57,5.29,5.29,0,0,1,4.64-2.79c1.07-.09,2.13-.22,3.19-.35a1.16,1.16,0,0,0,.66-.32c-.42,0-.83-.06-1.25-.11a26,26,0,0,1-2.77-.38c-2.75-.6-4.21-4.07-3.51-6.36a4.29,4.29,0,0,1,5.57-2.76,5.22,5.22,0,0,1,3.91,5.09c.08.94.14,1.89.21,2.83Z"/><path d="M128.66,87.83c-.89-.06-1.78-.11-2.67-.19a5.62,5.62,0,0,1-3.87-1.52,5.4,5.4,0,0,1-1.53-4.68,4.23,4.23,0,0,1,5.58-3.28c2.53.71,3.87,2.5,4,5.42,0,.69.07,1.37.11,2.06l.19,0c.13-.64.3-1.28.39-1.93.14-1.07.16-2.17.36-3.24.55-3.09,4.09-4.44,6.3-3.86a4.33,4.33,0,0,1,2.83,5.85,5.17,5.17,0,0,1-4.86,3.66c-1.09.09-2.17.21-3.25.34a1.7,1.7,0,0,0-.78.35c.94.08,1.89.12,2.83.23a5.23,5.23,0,0,1,4.87,5.18,4.2,4.2,0,0,1-5.31,4.31,5.11,5.11,0,0,1-4.25-4.66c-.12-.91-.15-1.83-.23-2.74,0-.22-.08-.44-.15-.8l-3.74,6-2.71-2.71L128.69,88Z"/><path d="M119.2,199.21c-3.85,1.7-5.09,5-5.89,8.64-.26-.88-.53-1.75-.76-2.63a8.64,8.64,0,0,0-4.56-5.76l-.29-.18a1.48,1.48,0,0,1-.2-.17c3.84-1.57,5-5,5.86-8.57.1.31.18.62.28.93.41,1.23.74,2.5,1.26,3.68a7.56,7.56,0,0,0,3.31,3.49Z"/><path d="M113.3,0c.76,3.63,2,6.84,5.85,8.56-3.8,1.7-5.1,4.91-5.76,8.54h-.14c-.14-.54-.3-1.08-.42-1.62A9.53,9.53,0,0,0,109,9.39c-.42-.29-.87-.53-1.43-.87C111.23,6.84,112.54,3.63,113.3,0Z"/><path d="M87,103.87c0,1.86,0,3.71,0,5.57,0,1-.35,1.33-1.42,1.34-.92,0-1.3-.38-1.29-1.35,0-3.73,0-7.47,0-11.2,0-.47,0-1,.58-1.13a1.92,1.92,0,0,1,1.85.25,1.31,1.31,0,0,1,.26.89c0,1.88,0,3.76,0,5.63Z"/><path d="M113.26,77.52h-5.57c-.94,0-1.22-.33-1.23-1.38s.24-1.32,1.21-1.32h11.21c.46,0,1,0,1.16.54a1.93,1.93,0,0,1-.21,1.86,1.33,1.33,0,0,1-.88.29C117.06,77.53,115.16,77.52,113.26,77.52Z"/><path d="M142.37,103.89v5.56c0,.89-.36,1.31-1.21,1.33-1.1,0-1.52-.32-1.52-1.31V98.16c0-.75.26-1,1-1.12a2.9,2.9,0,0,1,.51,0c.86,0,1.15.27,1.17,1.13,0,1.07,0,2.14,0,3.21v2.53Z"/><path d="M113.25,133h-5.4c-.48,0-1.11.07-1.24-.48a5.21,5.21,0,0,1,.08-1.84c0-.14.38-.31.6-.34a7.55,7.55,0,0,1,1.26-.06h10c.25,0,.5,0,.75,0a.82.82,0,0,1,.78.72,4,4,0,0,1,.07.91c0,.72-.31,1-1,1-.52,0-1,0-1.55,0h-4.31Z"/><path d="M153.08,192.32h-.85a3.5,3.5,0,0,1,4.08-3.65,2,2,0,0,1-1.85,2.48C153.71,191.22,153.17,191.47,153.08,192.32Z"/><path d="M64.31,153.89l.26-.43a1,1,0,0,1,1.17-.48.94.94,0,0,1,.75,1,.92.92,0,0,1-.65,1,1,1,0,0,1-1.21-.38,4.85,4.85,0,0,1-.31-.65Z"/><path d="M162.33,153.93c-.13.21-.25.43-.39.63a1,1,0,0,1-1.16.36.9.9,0,0,1-.67-.95.92.92,0,0,1,.65-1,1,1,0,0,1,1.21.37c.13.19.25.38.37.57Z"/></g></svg>