<svg xmlns="http://www.w3.org/2000/svg" viewBox="0 0 226.6 226.6" fill="#4875FF"><g id="fushimi"><path d="M116.85,179.51h-6.78a4.25,4.25,0,0,0-.6-.12c-.89-.07-1.78-.11-2.67-.17a85.56,85.56,0,0,1-14.68-2.28,89.88,89.88,0,0,1-62.34-54.7,88.72,88.72,0,0,1-5.94-27.9,6.55,6.55,0,0,0-.29-1.2V86.37a4.65,4.65,0,0,0,.28-.79c.08-.68.12-1.36.16-2A83,83,0,0,1,25.6,71.38,89.34,89.34,0,0,1,35.5,45.3c.13-.23.27-.44.46-.74l3,3,8.2-8.11-4.61-4.66.73-1a87.55,87.55,0,0,1,7.95-8.72,89.42,89.42,0,0,1,58.24-25,4.25,4.25,0,0,0,.6-.12H117a2.3,2.3,0,0,0,.43.12c1,.07,2,.15,3,.18A2.16,2.16,0,0,1,122,1c1.71,1.75,3.45,3.46,5.18,5.19.16.16.34.3.54.48.24-.22.46-.41.66-.61,1.15-1.16,2.3-2.3,3.44-3.47a1.12,1.12,0,0,1,1.25-.41c.72.22,1.48.35,2.22.54a89.31,89.31,0,0,1,44.37,26.51,5.65,5.65,0,0,1,.39.51l-5.38,5.39,8.16,8.16,4.45-4.44c.18.24.31.39.42.56a88.21,88.21,0,0,1,11.22,23.07,81.47,81.47,0,0,1,4,22.64,4.69,4.69,0,0,0,.12.61v7.72c-.05.36-.12.72-.14,1.08-.13,2-.16,3.94-.38,5.89a87.12,87.12,0,0,1-3.83,17.33,89.89,89.89,0,0,1-81,61.62C117.41,179.4,117.13,179.47,116.85,179.51ZM72.37,32.56C50.74,47.56,37.38,77,45,107a70.52,70.52,0,0,0,135.63,4.12A70.21,70.21,0,0,0,165,41.7l-4.53,4.54-7-7L157.69,35a2.35,2.35,0,0,0-.14-.19l-.3-.26a70.31,70.31,0,0,0-26.31-13.1,69.28,69.28,0,0,0-10.69-1.85c-1.75-.17-3.51-.23-5.27-.33-.23,0-.52-.1-.73.17l.49.59-8.5,8.51-.67-.64c-2.13-2.14-4.28-4.27-6.39-6.43A1.45,1.45,0,0,0,97.64,21a71.14,71.14,0,0,0-20.82,8.52l-.83.53,1.44,1.52-3.1,3.1ZM54.43,26.47l-5.26,5.27L54.47,37l5.26-5.26ZM97.9,7.83l5.33,5.33L108.41,8,103.13,2.6ZM74,163c0-.33,0-.48,0-.55a.87.87,0,0,1,0-1.15c1.1-1.7,2.2-3.39,3.29-5.09a.81.81,0,0,1,.92-.44c.11,0,.25-.06.57-.15-1.32-.9-2.52-1.65-3.78-2.36a1.17,1.17,0,0,0,0,.51c0,.24.18.55.08.72-.48.84-1,1.63-1.57,2.48l-2.37-1.55c.55-.84,1.06-1.63,1.58-2.41a.64.64,0,0,1,.77-.24c.18.05.4.2.54-.21l-3.74-2.43c-.11.23-.13.41,0,.48a.79.79,0,0,1,0,1.13c-1.12,1.71-2.24,3.43-3.34,5.15a.73.73,0,0,1-1,.38c-.11-.05-.28,0-.42.07l0,.19c1.21.77,2.41,1.55,3.62,2.31.06,0,.21,0,.39-.11-.15-.2-.31-.32-.36-.48a1,1,0,0,1,0-.65c.53-.89,1.11-1.76,1.7-2.66.84.54,1.62,1,2.36,1.55-.56.87-1.08,1.66-1.58,2.46a.75.75,0,0,1-.78.39c-.19,0-.43-.14-.53.27Zm107.9-28.18a13.65,13.65,0,0,0,2.27-3.64s0,0-.06,0-.18,0-.22,0c-.43.43-.83.25-1.26,0-1.66-1.06-3.33-2.1-5-3.15-.36-.22-.61-.47-.5-1,0-.12-.07-.26-.11-.4-.11,0-.18,0-.2.08-.72,1.12-1.44,2.25-2.15,3.39,0,.05,0,.17.08.33a2,2,0,0,1,.51-.28,1.1,1.1,0,0,1,.67,0c.81.47,1.59,1,2.44,1.52L176.9,134c-.8-.5-1.5-1-2.22-1.39a.81.81,0,0,1-.44-1.05c0-.11-.05-.27-.1-.49a15.23,15.23,0,0,0-2.39,4,1.57,1.57,0,0,0,.41-.19.72.72,0,0,1,1,0l5.33,3.36a.65.65,0,0,1,.34.86c-.08.2-.14.42.19.47a17.77,17.77,0,0,0,2.34-3.9c-.17,0-.34,0-.42.13a.78.78,0,0,1-1.13.06c-.53-.34-1.07-.67-1.59-1-.26-.16-.51-.34-.79-.53l1.5-2.36c.71.44,1.33.88,2,1.23s1.06.74.92,1.52C181.82,134.69,181.86,134.71,181.94,134.77Zm-83,36.81-.07.18a2.38,2.38,0,0,0,.51.18c1.19.16,2.39.32,3.58.46a21.33,21.33,0,0,0,2.51.18,3.59,3.59,0,0,0,3-1.64c1.77-2.6.86-6.68-3.06-7.15l-5.08-.58a2.33,2.33,0,0,0-.51.06c.13.16.17.26.24.3.81.33.8.33.69,1.17q-.34,2.76-.68,5.54C99.88,171.37,99.88,171.37,98.89,171.58ZM141.68,14.87l4.38,4.38,4.38-4.38-4.39-4.38Zm17.48,19.85,4.18-4.19-4.22-4.22L155,30.48Zm-115,78.85c-.55.05-1,.11-1.48.14-1.75.13-3.51.26-5.26.37a1.7,1.7,0,0,1-1.54-.48.74.74,0,0,0,.08-.28,2.3,2.3,0,0,0-.12-.58s-.25-.06-.27,0a1.26,1.26,0,0,0-.17.55,1.66,1.66,0,0,0,1.69,1.63c.54,0,1.09,0,1.67,0l.85,2.58a5.17,5.17,0,0,1-1.57,1c-.51-.1-.34-.75-.85-.71a17.91,17.91,0,0,0,1.63,4.87c.07-.15.18-.28.17-.4a1.65,1.65,0,0,1,.8-1.53l3.34-2.62c.79-.62,1.57-1.23,2.35-1.87.41-.33.39-.39.13-.85-.41-.7-.79-1.42-1.18-2.13l-.27-.49Zm73.55,59.29a2,2,0,0,0-.43-.23c-.25-.08-.5,0-.54.26s.22.32.43.35a1.69,1.69,0,0,0,2-1.39c.09-.38.12-.78.23-1.15a.64.64,0,0,1,.39-.41c.8-.12,1.6-.17,2.45-.25.19.48.39.9.54,1.34s.07.58-.42.73c-.19.06-.43,0-.37.46a48.59,48.59,0,0,0,5-.57c-.09-.17-.2-.34-.33-.35a1.6,1.6,0,0,1-1.27-1.05c-.71-1.49-1.44-3-2.17-4.46-.34-.71-.7-1.41-1-2.12-.16-.32-.34-.48-.74-.34-.84.28-1.71.5-2.56.76-.06,0-.1.1-.18.18l.58.16c0,.26,0,.47,0,.68-.15,1.09-.32,2.18-.48,3.27-.14.91-.26,1.82-.43,2.72A1.78,1.78,0,0,1,117.68,172.86ZM75.22,15,71.31,11,67.41,15l3.94,3.93L75,15.19C75.12,15.1,75.2,15,75.22,15ZM171.58,145.7a3.35,3.35,0,0,1,.15.69,3.15,3.15,0,0,1-1,2.46,2,2,0,0,1-2.31.51,6.91,6.91,0,0,1-4-4,2,2,0,0,1,1.38-2.76,3.12,3.12,0,0,1,1-.13c.47,0,.93.09,1.4.14s.65,0,.7-.5c-.79-.47-1.61-1-2.51-1.43-.06.23-.15.37-.11.45.21.43,0,.64-.37.79l-.43.19a5.15,5.15,0,0,0-2.89,4.07,4.83,4.83,0,0,0,3.77,4.95,3.88,3.88,0,0,0,1.4.05,6.11,6.11,0,0,0,4.61-4.55,4.58,4.58,0,0,0,.1-.63,1.64,1.64,0,0,0-.43-1.23.66.66,0,0,0-.92-.14c-.29.19-.59.43-.47.82s.53.13.81.19Zm-106.94-.87-.18-.16s-.1-.06-.14-.06c-.68,0-.68,0-.93-.49-.08-.16-.15-.33-.24-.49a5.19,5.19,0,0,0-3.67-2.72,4.83,4.83,0,0,0-5.22,3.5,3.55,3.55,0,0,0,0,1.94,6.09,6.09,0,0,0,5,4.37,2.15,2.15,0,0,0,1.06-.19.75.75,0,0,0,.51-.94c-.12-.43-.45-.63-1.08-.61l-.05.89a2.91,2.91,0,0,1-3.1-.81,2.08,2.08,0,0,1-.6-2.16,5.35,5.35,0,0,1,.63-1.35,7.55,7.55,0,0,1,2.34-2.3,5.69,5.69,0,0,1,1.35-.62,2,2,0,0,1,2.55,1.55,4,4,0,0,1,.07,1.09,13.43,13.43,0,0,1-.13,1.41c0,.35.08.55.49.57Zm88.49,17.46c.24.44.47.17.66.05l4.14-2.57c.24-.16.5-.3.72-.48.06,0,0-.24,0-.45-.41.21-.72.4-1,.55-.59.26-.86.21-1.2-.33-1.06-1.68-2.12-3.37-3.16-5.07-.35-.57-.28-.86.24-1.29.28-.22.58-.42.87-.63-.26-.47-.48-.15-.67,0q-2.31,1.42-4.6,2.87l-.48.33c.23.09.37.19.46.16.29-.1.57-.26.86-.38a.67.67,0,0,1,.94.3l3.29,5.27a.68.68,0,0,1-.13,1C153.76,161.8,153.46,162,153.13,162.29ZM140,159.71c-.08-.13-.12-.24-.17-.25a42.84,42.84,0,0,0-6.1,2.16c.16.06.29.17.39.15.26,0,.51-.15.77-.19.55-.09.78,0,1,.55.68,2,1.34,3.93,2,5.89a.68.68,0,0,1-.37.91c-.26.14-.53.24-.79.36s-.27.23,0,.47c1.8-.62,3.64-1.24,5.47-1.88a5.24,5.24,0,0,0,.48-.23s0,0,0-.07a1.64,1.64,0,0,0,0-.18,2.29,2.29,0,0,0-.45,0c-.31.05-.61.14-.92.19a.67.67,0,0,1-.83-.53c-.65-1.94-1.33-3.87-2-5.81-.17-.52-.1-.7.37-1S139.54,159.92,140,159.71Zm-86.5-27.1c.12-.13.22-.21.2-.24-1-1.91-2.18-3.66-3.31-5.64-.12.27-.21.38-.2.47a1,1,0,0,0,.17.35c.52,1,.48,1.15-.51,1.75l-3.7,2.25-1.21.72a.67.67,0,0,1-1-.15c-.2-.24-.36-.52-.58-.75-.06-.06-.24,0-.51,0l3.39,5.61.19,0a1.1,1.1,0,0,0,0-.43c-.12-.32-.32-.61-.43-.93-.19-.53-.15-.67.34-1,1.72-1.06,3.44-2.11,5.18-3.15.51-.31.76-.26,1.17.2C53,131.91,53.2,132.24,53.48,132.61Zm127.06-13.23c.14-.3.23-.5.33-.7.4-.85.59-.94,1.46-.64,1.64.56,3.27,1.14,4.9,1.71,1.31.46,1.31.46,1,1.77,0,.08-.07.17-.05.23a3.07,3.07,0,0,0,.31.41c.72-2.08,1.4-4,2.07-6,0-.08-.13-.21-.25-.42-.2.45-.34.78-.5,1.1-.33.64-.52.73-1.19.5q-2.76-.93-5.5-1.91c-.75-.26-.88-.54-.68-1.32.07-.29.17-.58.27-.87-.51-.21-.5.17-.57.36-.6,1.68-1.18,3.37-1.77,5a1.13,1.13,0,0,0-.1.38C180.3,119.13,180.41,119.21,180.54,119.38ZM92,161.34l0-.16a.8.8,0,0,0-.23-.18l-5.46-2a.55.55,0,0,0-.3,0c-.07,0-.11.15-.18.26l.79.4c.67.37.75.56.51,1.27s-.49,1.33-.73,2c-.43,1.18-.85,2.37-1.28,3.55-.23.61-.45.72-1.09.6-.23,0-.45-.13-.68-.2s-.33,0-.33.33c2,.74,4,1.48,6.15,2.22-.11-.28-.12-.43-.2-.48a3.57,3.57,0,0,0-.56-.26c-.9-.42-1-.59-.65-1.51.38-1.09.78-2.17,1.17-3.25.26-.72.51-1.44.79-2.14s.49-.75,1.15-.59c.23.06.45.16.68.2A1.5,1.5,0,0,0,92,161.34ZM85.46,19.1l-2.64-2.58L80.31,19l2.61,2.61ZM123,15.43l1.37,1.51,1.43-1.43L124.34,14Zm43,6.32,1.35-1.4-1.55-1.7-1.44,1.47ZM66.77,30.48,68.15,32l1.57-1.46L68.23,29Z"/><path d="M129.34,92.45l4.32,4.3-7.44,7.44-4.33-4.31-4,3.94-42-42,17-16.95c0,.35-.07.75-.09,1.16a12.29,12.29,0,0,0-.06,1.49c0,.44.18.52.62.45s.62-.15.93-.2a1.35,1.35,0,0,1,1.45.71,1,1,0,0,1-.21,1.41c-.13.12-.29.22-.42.35A1,1,0,0,0,95.51,52a.42.42,0,0,0,.15,0c.93.08,1,.46.88,1.21s0,.69.62.89c.18.06.36.09.53.15a.83.83,0,0,0,1-.37c.67-.86.77-.88,1.79-.57a5.71,5.71,0,0,1,3,2,1.06,1.06,0,0,0,1.46.38l.36-.16c.55-.21.65-.2,1,.26A6.13,6.13,0,0,1,107.55,58a1.57,1.57,0,0,0,1.64,1.4,3.09,3.09,0,0,0,2.41-.48.75.75,0,0,1,.89,0,.79.79,0,0,0,.88-.08c.95-.61,1.91-1.2,2.83-1.86a2.61,2.61,0,0,0,.78-1,1.87,1.87,0,0,1,1.41-1.12q1.52-.29,3-.51a2.89,2.89,0,0,1,1.82.36c1,.58,2,1.15,3,1.74.48.29.57.43.35.89a.86.86,0,0,0,.24,1.11,1.13,1.13,0,0,0,1.2.39c.2-.07.4-.13.59-.21a2.47,2.47,0,0,1,2.68.2c0,.43,0,.9,0,1.36,0,.75.23,1,.95,1.11s1.51.25,2.27.32a.74.74,0,0,1,.73.57,3.87,3.87,0,0,0,.3.73c.26.51.51.62,1,.36a11,11,0,0,0,1.54-1c.9-.68,1.78-1.38,2.66-2.09a7.57,7.57,0,0,1,2.45-1.4.92.92,0,0,0,.29-.11c.77-.54,1.54-1.08,2.3-1.63.57-.41,1.11-.84.84-1.75.37,0,.65-.06.93,0,.78,0,1.57,0,2.36.07s1.27,0,1.55-.69c.79.34.89.86.31,1.35-.16.14-.34.25-.51.38a1.15,1.15,0,0,0-.5,1,1.07,1.07,0,0,1-.58,1.11c-.5.31-.5.4-.32,1a5.22,5.22,0,0,0,.39,1.11,6.49,6.49,0,0,0,.8,1.14,5.47,5.47,0,0,0,.74.59,3.5,3.5,0,0,1,1.46,3.22c0,.38,0,.77-.07,1.23h1.45c0,.38-.23.5-.39.66L144.75,77,129.94,91.82Zm18.82-35.68A13.92,13.92,0,0,1,147,57.93a14.15,14.15,0,0,1-3.95,2.5,4.57,4.57,0,0,0-1.07.65c-.59.44-1.14.94-1.73,1.37a34.18,34.18,0,0,1-2.91,2,2,2,0,0,1-3.12-.95,1,1,0,0,0-.9-.62,11.81,11.81,0,0,1-1.78-.3,2.11,2.11,0,0,1-1.68-2c0-.28-.07-.55-.11-.91-1.08.41-2.12,1-3.2.31a2.84,2.84,0,0,1-1.66-2.71c-.81-.46-1.64-1-2.5-1.41a1.77,1.77,0,0,0-.91-.14c-.89.12-1.76.29-2.64.43a.77.77,0,0,0-.64.51A3.21,3.21,0,0,1,117,58.14c-1,.65-2,1.29-3,1.92a2.2,2.2,0,0,1-1.58.34,1,1,0,0,0-.61.05,5,5,0,0,1-2.85.34,3,3,0,0,1-2.86-2.39,14.24,14.24,0,0,0-.57-1.37,2.79,2.79,0,0,1-3.4-1.11,3.49,3.49,0,0,0-2.2-1.23c-1.15,1.14-1.6,1.24-3,.87a2.16,2.16,0,0,1-1.9-2.2c-1.74-1-2.05-2-1.28-3.86a4.74,4.74,0,0,1-1.42-.22,3.84,3.84,0,0,1-.92-.85L78,61.85,118,101.79c.84-.85,1.76-1.79,2.69-2.71a1.53,1.53,0,0,1,2.51,0l2.79,2.79c.14.14.3.25.45.38l-.1-.18,5.34-5.34a6,6,0,0,1-.52-.43c-.91-.9-1.83-1.81-2.73-2.73a1.41,1.41,0,0,1,0-2.16c.29-.34.61-.65.93-1l19.6-19.62,2.94-3a14.61,14.61,0,0,1,0-1.89,2.55,2.55,0,0,0-1.23-2.76,3.61,3.61,0,0,1-.44-.33A3.75,3.75,0,0,1,148.87,61l-.39-1.2a1.91,1.91,0,0,1,.57-2.27.55.55,0,0,0,.19-.78Z"/><path d="M113.09,139.89,115,137.8l-.94-1.29c.39-.27.73-.56,1.11-.78.56-.32.82-.26,1.22.24a6,6,0,0,1,.37.51l.36.45a1,1,0,0,0,.52-.83,2.61,2.61,0,0,0,0-.79c-.35-1.39-.15-1.15.8-1.9a7,7,0,0,1,1-.69,2.71,2.71,0,0,1,1-.34c1-.11,1.21.14,1.24,1.1s0,1.78.07,2.67a1.37,1.37,0,0,1-.62,1.35,2.18,2.18,0,0,0-.88,1.59,2.57,2.57,0,0,0,3.19-.79l-.66-.7c.3-.38.68-.32,1-.36.52-.07.57-.15.53-.85l-1.18.07a7.82,7.82,0,0,1-.34-2.74c0-.41.31-.58.68-.65a3.24,3.24,0,0,1,1.84.26,1.09,1.09,0,0,0,1.37-.2c-.28-.17-.51-.33-.76-.45-.54-.25-1.1-.48-1.66-.71a.87.87,0,0,1-.6-1c.16-1.25.32-2.5.54-3.74a2,2,0,0,1,.55-.82,4.56,4.56,0,0,1,.58-.5c-.82-.9-1.86-.25-2.73-.59a1.75,1.75,0,0,1,0-1.33.86.86,0,0,0-.19-.93,3,3,0,0,1-.43-.57,1.85,1.85,0,0,0-2.11-1c-.62.1-1.26.13-1.88.18a2.86,2.86,0,0,1-1.94-.5,7,7,0,0,0-.79-.34,5.42,5.42,0,0,1-1.3-.7c-.95-.83-1.83-1.74-2.82-2.69l7.31-7.31,5.58,5.56,2.64-2.62c.28.26.55.49.81.74l12.81,12.81c.21.21.4.43.62.61a1.94,1.94,0,0,1,.88,2,.74.74,0,0,0,.07.46,8.27,8.27,0,0,1,.61,3.06,2.08,2.08,0,0,0,.41,1,2.24,2.24,0,0,1,.53,1.44c0,1.95.28,1.41-1.09,2.8-.66.68-1.34,1.34-2,2a2.15,2.15,0,0,1-1.09.58c-1.65.4-3.3.84-5,1.25-.61.15-1.24.25-1.85.39-1.1.24-2.21.44-3.29.75q-4.53,1.35-9,2.78a1.16,1.16,0,0,1-1.38-.33C116.83,143.59,115,141.75,113.09,139.89Zm2,0c1.47,1.46,2.88,2.86,4.28,4.28a.67.67,0,0,0,.79.11c1.67-.52,3.35-1,5-1.54,2-.59,4-1.22,6-1.71,1.14-.28,2.32-.41,3.46-.75s2.54-.63,3.81-1a2.09,2.09,0,0,0,.87-.46c.73-.68,1.43-1.39,2.13-2.1a1.57,1.57,0,0,0,.14-2,3.07,3.07,0,0,1-.73-1.94,5.84,5.84,0,0,0-.5-2.53,1.68,1.68,0,0,1-.16-.92,1.15,1.15,0,0,0-.42-1l-12.77-12.75c-.14-.14-.3-.26-.5-.43l-1.42,1.41a1.5,1.5,0,0,1-2.44,0l-3.85-3.84c-.16-.16-.34-.3-.38-.34l-5.19,5.19c.86.8,1.56,2,3,2.17a.5.5,0,0,1,.28.14,2.14,2.14,0,0,0,1.78.39c.76-.07,1.52-.13,2.28-.16a2,2,0,0,1,1.59.57c.85,1,1.87,1.85,2,3.3l.57.06a1.94,1.94,0,0,1,1.77,1.33,1.79,1.79,0,0,1-.73,2.08.82.82,0,0,0-.3.42c-.16,1-.29,1.91-.43,2.84.79.4,1.51.76,2.23,1.14a1.51,1.51,0,0,1,0,2.66,2.5,2.5,0,0,1-2.25.3l-.78-.24-.06.17a2.8,2.8,0,0,0,.32.2,1.53,1.53,0,0,1,1.24,1.88,2.2,2.2,0,0,1-.64,1.4,1.61,1.61,0,0,0-.35.5,3.09,3.09,0,0,1-2.56,2,10.13,10.13,0,0,1-2.27-.05,1.38,1.38,0,0,1-1.23-1.82,4.36,4.36,0,0,1,1.14-2.21c.12-.13.31-.28.31-.42a8.66,8.66,0,0,0-.09-2.09c-1,.56-1,.56-1,1.58,0,.1,0,.21,0,.31a2.28,2.28,0,0,1-2.66,2.44Z"/><path d="M142.32,124.93,126.9,109.51l-3.17,3.18-4-4.11,4.11-4,3.29,3.28,19-19c-1-1.1-2.2-2.15-3.21-3.27l4-4c1.23,1.2,2.54,2.54,3.93,3.91l-3.54,3.57c.29.31.54.59.79.84,4.35,4.35,8.68,8.7,13.05,13a1.89,1.89,0,0,1,.61,2,6.61,6.61,0,0,1-1,2.69,1.26,1.26,0,0,0-.1.89,1.55,1.55,0,0,1-.33,1.32,5.51,5.51,0,0,1-3.63,2.29c-.83.1-1.08.36-1.18,1.21-.24,2-.77,1.76-2,1.83-.68,0-1.36,0-2,0a1.94,1.94,0,0,0-1.3.5,2.75,2.75,0,0,1-1.46.71,3.57,3.57,0,0,0-.81.29l-2.41,1a1,1,0,0,0-.8.85,2.39,2.39,0,0,1-.87,1.55,1.1,1.1,0,0,0-.31,1.45A2.52,2.52,0,0,1,142.32,124.93Zm4.44-34.13L128.6,109l13.49,13.49s0,0,0,0a.43.43,0,0,0,0-.23,2.42,2.42,0,0,1,.64-3.12,1.85,1.85,0,0,0,.45-.88,2.27,2.27,0,0,1,1.55-1.74,25.54,25.54,0,0,0,5.15-2.23,2.67,2.67,0,0,1,1-.31c.68-.07,1.36-.08,2.05-.1.3,0,.61,0,.91,0,.07-.28.12-.45.15-.63a2.45,2.45,0,0,1,2.31-2.38,4.1,4.1,0,0,0,2.42-1.34,1,1,0,0,0,.36-1,2.11,2.11,0,0,1,.47-1.77,3.8,3.8,0,0,0,.63-1.51,1.42,1.42,0,0,0-.51-1.56q-6.21-6.15-12.37-12.35Zm-23,15.85-2,1.94,2,1.8,1.93-1.83Zm24.81-21-1.79-1.88-1.82,1.66,1.87,2.06Z"/><path d="M111.17,104.44q-9.9,9.89-20,20c-.14-.13-.34-.29-.52-.47-1-1-1.93-1.94-2.91-2.89a1.64,1.64,0,0,1-.44-2,11.68,11.68,0,0,0,.61-1.75c-.92.5-1,1.52-1.53,2.32-.68-.49-1.25-1-1-2a.83.83,0,0,1-1.15-.2c-.28-.34-.64-.62-.93-1s-.3-.53-.47-.77a6.42,6.42,0,0,0-.51-.63,14.12,14.12,0,0,0,2.07-4.87c.16-.82.24-1.66.37-2.62-.64.36-.77.92-1,1.36a6.11,6.11,0,0,0-.78,1.44,8,8,0,0,0-.19,1.67c-.72-.15-1.42-.73-2.18,0l.64.4-.37,1.3c-.93-.4-8.3-7.55-9.28-8.93,6.68-6.69,13.36-13.36,20-20Zm-2,0c-5.92-5.93-11.84-11.84-17.66-17.66l-18,18,6,5.91,2-.69a2.28,2.28,0,0,1,.12-.3c.61-1,1.18-2.1,1.85-3.1a1.42,1.42,0,0,1,1.7-.67,1.46,1.46,0,0,1,1,1.61,20.51,20.51,0,0,1-.21,2.35,14.7,14.7,0,0,1-1.54,4.45,1.18,1.18,0,0,0,1,1.66,12.13,12.13,0,0,1,1.25.32,5.7,5.7,0,0,1,.77-.54,1.39,1.39,0,0,1,2.11,1.32,4.63,4.63,0,0,1-.28,1.14c-.13.4-.33.77-.45,1.17a.74.74,0,0,0,.07.57c.79.83,1.62,1.63,2.4,2.42Q100.23,113.36,109.13,104.48Z"/><path d="M159.49,97.62c2.66-2.66,5.35-5.34,8.08-8.08L165.7,87.9l-3.76,3.76L148.21,77.94c.12-.14.27-.34.45-.52,3.77-3.76,7.53-7.54,11.32-11.28a18.82,18.82,0,0,1,1.85-1.44c4.6,4.42,9.09,8.9,13.57,13.5l-5.24,5.24,1.89,2-3.93,3.93,1.12,1c-.35.61-.65,1.25-1,1.83a3,3,0,0,0-.42,2.9,1.25,1.25,0,0,1-.13,1.14,1.67,1.67,0,0,0-.05,1.51,1.81,1.81,0,0,1,.2,1.18c-.08.05-.13.1-.17.09a1.25,1.25,0,0,0-1.43.81c-.35.68-.75,1.32-1.11,2-.25.46-.39.56-.86.32a4,4,0,0,1-1.11-.73C161.91,100.16,160.74,98.92,159.49,97.62Zm2.3-31c-.7.4-11,10.57-11.49,11.33l11.64,11.64c.14-.12.33-.3.51-.48L164.57,87c.92-.91,1.63-.9,2.57,0l.55.53L170,85.36c-.2-.22-.41-.45-.63-.67a1.51,1.51,0,0,1,0-2.51c1.18-1.19,2.37-2.37,3.56-3.56.14-.14.25-.31.42-.52Zm4.27,26.67-4.44,4.45a14.31,14.31,0,0,0,2.57,2.49c.24-.37.47-.75.74-1.11a7.79,7.79,0,0,0,.94-1.24,6.71,6.71,0,0,0,.19-1.51,6,6,0,0,1,.19-.6,1.61,1.61,0,0,0,.07-.53C166.25,94.56,166.15,93.89,166.06,93.28Z"/><path d="M58.37,49.45c5.05,4.83,9.91,9.64,14.71,14.62-.21.23-.37.43-.55.61L56.65,80.56c-.6.6-.69.61-1.36,0a6.29,6.29,0,0,1-.76-.79,12.28,12.28,0,0,0-3.05-2.7,4.49,4.49,0,0,1-1.06-.93,2,2,0,0,1-.34-1.41c0-1.18,0-2.36,0-3.53,0-.42-.05-.84-.08-1.26a1.9,1.9,0,0,1,.48-1.38,3.4,3.4,0,0,0,.82-2.85c-.12-.93-.18-1.88-.3-2.82a3.79,3.79,0,0,1,1-3.19,8.17,8.17,0,0,0,1.72-3,2.27,2.27,0,0,1,.45-.82,23.2,23.2,0,0,0,3.63-5.41C57.94,50.22,58.12,49.9,58.37,49.45ZM55.85,79.12,71,64c-4-4.06-8-8.13-12.23-12.14-.12.19-.18.27-.23.36a22.64,22.64,0,0,1-3.19,4.58,1.42,1.42,0,0,0-.3.54A10.43,10.43,0,0,1,53,60.81a2.17,2.17,0,0,0-.56,1.82c.13,1.07.22,2.14.34,3.21a4.35,4.35,0,0,1-.89,3.33,1.81,1.81,0,0,0-.4,1.53,16.09,16.09,0,0,1,.07,4.16.75.75,0,0,0,.29.76c.17.12.34.24.52.35a12.73,12.73,0,0,1,3.08,2.68Z"/><path d="M68.86,111l-.59,1.17a1.52,1.52,0,0,1-.66-2,1.14,1.14,0,0,1,.25-.39c.75-.76,1.51-1.52,2.31-2.31l.79.73q3.93,3.93,7.87,7.84a1.58,1.58,0,0,1,.52,1.62c-.23.94-.43,1.89-.73,2.81a3.88,3.88,0,0,0-.16,2.16,2.88,2.88,0,0,1-.08,1.3,15.71,15.71,0,0,1-.61,1.7,1,1,0,0,0,.37,1.32,2.05,2.05,0,0,1,.41.37c.84.93,1.68,1.86,2.44,2.72l-4.49,4.5c-.24-.14-.69-.35-1.09-.63-.91-.63-1.82-1.25-2.67-1.95a8.93,8.93,0,0,1-1.4-1.48c-.48-.59-.88-1.24-1.32-1.86a2,2,0,0,1-.16-2.16,22.91,22.91,0,0,0,1.84-6,10,10,0,0,0,.09-4.22,18.87,18.87,0,0,0-.69-2.33,2.07,2.07,0,0,0-.57-.72,3.79,3.79,0,0,0-.66-.44,1.37,1.37,0,0,1-.73-1.22A2.16,2.16,0,0,0,69,111Zm10.21,19.19c-.47-.58-.87-1.09-1.29-1.59a4.94,4.94,0,0,0-.56-.56,2.39,2.39,0,0,1-.82-2.88c.17-.52.41-1,.57-1.55a1.67,1.67,0,0,0,0-.83,5,5,0,0,1,.24-2.78c.26-.7.42-1.45.63-2.18a1,1,0,0,0-.34-1L70.68,110a1.32,1.32,0,0,0-.35-.32c-.11,0-.27,0-.37.05a7.59,7.59,0,0,1,.56,1.3,1.17,1.17,0,0,0,.6.85A3,3,0,0,1,72.64,114a2.23,2.23,0,0,0,.15.52,9.67,9.67,0,0,1,.46,5.27,24.32,24.32,0,0,1-2,7.08.91.91,0,0,0,.13,1.09c.33.4.59.86.9,1.28a5.62,5.62,0,0,0,.87,1.11c1.05.86,2.15,1.66,3.26,2.5l2.19-2.16Z"/><path d="M97.34,143.31l2,1.06,0,1.09c.27,0,.5,0,.73,0a9.47,9.47,0,0,0,1.31-.25,1.87,1.87,0,0,1,2.09.65c1.2,1.29,2.47,2.51,3.71,3.75l.59.62a2.79,2.79,0,0,1-.48.28,16,16,0,0,1-4.26,1.36,24.83,24.83,0,0,1-3.45.15,12.13,12.13,0,0,0-3.5.38l-3.35.89a2.78,2.78,0,0,1-1.54-.05,10.53,10.53,0,0,0-1.35-.23c.07-.18.13-.37.21-.56,1.19-2.71,2.38-5.43,3.58-8.14a11.39,11.39,0,0,1,.92-1.81,1.72,1.72,0,0,1,2.72-.28A.72.72,0,0,1,97.34,143.31Zm7.75,6.48.07-.27c-.89-.85-1.8-1.68-2.67-2.55a1.08,1.08,0,0,0-1.11-.35,13.37,13.37,0,0,1-2.18.26,1.35,1.35,0,0,1-1.4-1.22c0-.15,0-.31,0-.48-.31-.17-.62-.31-.9-.49a2.77,2.77,0,0,1-.72-.59,3.84,3.84,0,0,1-.36-.9c-.37.47-3.65,8-3.78,8.7.17,0,.32,0,.46-.08l2.81-.76a15.23,15.23,0,0,1,4.36-.52,24.09,24.09,0,0,0,3.6-.22A11.34,11.34,0,0,0,105.09,149.79Z"/><path d="M71.79,43.52,79,50.76,71.65,58,64,50.33a3.21,3.21,0,0,1,.31-.39c1.61-1.61,3.22-3.24,4.85-4.83a6.44,6.44,0,0,1,1.31-.86C70.87,44,71.34,43.75,71.79,43.52Zm-.12,1.73a5.54,5.54,0,0,0-2,1.34c-1.09,1.13-2.22,2.23-3.33,3.34-.14.15-.26.31-.32.37L71.69,56l5.37-5.29c-.16-.18-.26-.3-.37-.41Z"/><path d="M63.63,92.54a7.23,7.23,0,0,1-4.27-5.14.93.93,0,0,1,.22-1l6-6,3,3.08-.74.34c-.52.25-.68.46-.46,1a11.57,11.57,0,0,0,1,1.49c-.35,1.51.46,3,.9,4.69L66,91.33c0-.74,0-1.38,0-2,0-.32,0-.64,0-1-.08-.59-.41-.81-1-.66a4.76,4.76,0,0,0-.65.27,4.75,4.75,0,0,1,.34,2.79L63.09,90l-.1.12a1.85,1.85,0,0,0,.21.33,7.4,7.4,0,0,0,.57.55C64.52,91.67,64.51,91.81,63.63,92.54Zm-2-3.5,1.23-.54a1.75,1.75,0,0,1,1.22-2,2.9,2.9,0,0,1,2.64.16c-.77-1.28-1.06-2.4-.34-3.57l-.62-.7-.63.6-3.5,3.5c-.92.91-.92.91-.32,2.06A5.58,5.58,0,0,0,61.61,89Z"/><path d="M78.19,93c-3.45,3.64-7,7.2-10.83,10.77a7.49,7.49,0,0,1-.07-1.05,1.09,1.09,0,0,0-.86-1.36,2.28,2.28,0,0,1-.39-.24,8.64,8.64,0,0,1,2.73-3.36c-.35-.71,0-1.28.47-1.82l.92-1.13a2.7,2.7,0,0,1-.12-.43c-.08-.68.23-1,.91-.81.23,0,.45.13.68.17.63.13.77,0,.82-.81l-1.71-.45c.46-1.76,1.84-3.58,3-4Zm-6.54,2.25c-.4.5-.81,1-1.23,1.52a.81.81,0,0,0-.21.71,1.44,1.44,0,0,1-.86,1.68,2.81,2.81,0,0,0-1.18,1.23c0,.1,0,.28.09.57,2.77-2.7,5.42-5.29,7.85-7.85l-2.67-2.71-.61,1a1.8,1.8,0,0,1,1,2.31C73.6,94.74,73,95.14,71.65,95.24Z"/><path d="M106.33,114.54l6.12,6.13-1,1.57c-.85.05-.88-.63-1.11-1.19a2.59,2.59,0,0,0-1.08,1.85c-.12.89-.17,1.78-.3,2.66a1.87,1.87,0,0,1-1.49,1.63,1.53,1.53,0,0,1-.34,0,3.61,3.61,0,0,1,0-.66c0-.25.19-.49.25-.74.18-.81-.31-1.28-1.12-1.09a6.08,6.08,0,0,0-.6.21,1.2,1.2,0,0,1-1.43-.32,2.58,2.58,0,0,0-.34-.32.49.49,0,0,0-.65,0l-.17.16c-.8.8-.79.79-1.7.16a13.34,13.34,0,0,1-2.64-2.41C101.3,119.63,103.82,117.09,106.33,114.54Zm-4.25,8.8a2.1,2.1,0,0,1,3.19.2,3.34,3.34,0,0,1,2.47-.12,4.86,4.86,0,0,1,1.76-3.61l-3.21-3.21-5.6,5.59Z"/><path d="M75.32,71.48l6.79,6.69-7,7a6.93,6.93,0,0,1-.26-.73c-.1-.44-.15-.88-.25-1.32-.13-.61-.22-.68-.82-.75h-.16a2.89,2.89,0,0,1-2.19-1c-1-1.06-2-2-3-3Zm4.77,6.74-4.75-4.75-4.92,4.92c.57.56,1.23,1.16,1.83,1.82A2.21,2.21,0,0,0,74,81a1.89,1.89,0,0,1,1.78,1.09,2.77,2.77,0,0,0,.18.28Z"/><path d="M179.78,74.12c-.21.39-.68,0-1.13,0l-.47,1a122.39,122.39,0,0,1-9.83-9.66,7.07,7.07,0,0,1,.86-.87,1.77,1.77,0,0,1,.86-.29,15.15,15.15,0,0,1,1.65,0,1.63,1.63,0,0,1,1.72,1.5c.22,1,.6,1.24,1.57,1a18.19,18.19,0,0,0,2.17-.68,1.72,1.72,0,0,1,2.07,2.26c-.26.58-.55,1.14-1.36,1.06a.53.53,0,0,0-.64.34.63.63,0,0,0,.39.7,9.74,9.74,0,0,0,1.13.54c.94.39,1,.56.87,1.54A8.47,8.47,0,0,0,179.78,74.12Zm-9.18-8.4c.25.3.37.46.51.6q1.8,1.83,3.61,3.63c.91.91,1.84,1.8,2.77,2.68a.84.84,0,0,0,.48.16c.05,0,.19-.19.17-.21a1.2,1.2,0,0,0-.34-.37,9.54,9.54,0,0,1-1.28-.75,1.89,1.89,0,0,1-.67-2,1.81,1.81,0,0,1,1.57-1.35,2.86,2.86,0,0,0,.53-.2c-.21-.48-.49-.27-.71-.21-.78.22-1.55.51-2.34.66a2.32,2.32,0,0,1-2.74-1.68c-.08-.27-.15-.54-.24-.84Z"/><path d="M86.89,47.81,80,40.93c.39-.29.82-.62,1.27-.93.21-.15.45-.28.67-.41,1.07-.66,1.14-.82.93-2.05a3.18,3.18,0,0,1,0-.62.82.82,0,0,1,.63-.88c1-.25,2-.47,3.13-.74a6.75,6.75,0,0,1-.34.84c-.29.53-.59,1-.91,1.56a.66.66,0,0,0,.06.92c.77.82,1.48,1.7,2.29,2.49a7.26,7.26,0,0,0,1.48,1c.75.43,1.52.8,2.32,1.22Zm-4.67-6.6a54.84,54.84,0,0,0,4.57,4.54l2.31-2.11c-2.21-.7-3.34-2.65-4.81-4.06Z"/><path d="M145.18,46.42l-4.43,4.44-4.38-4.37,4.39-4.42Zm-2.05,0L140.75,44l-2.38,2.38,2.39,2.39Z"/><path d="M100.81,40.41l-2.2,2-2-2,2-2.16Z"/><path d="M84,133.05l-.44.51c.2.12.35.2.5.3s.38.42.22.68a1.1,1.1,0,0,0,.25,1.4,1.43,1.43,0,0,1,.08.25,2.71,2.71,0,0,1-.91.33,17,17,0,0,1-2.48-.12.65.65,0,0,1-.37-1.14c.87-.94,1.79-1.82,2.73-2.76Z"/><path d="M70,89.83c-.29-.62-.53-1.06-.71-1.51a1.74,1.74,0,0,1,0-1.38c.3-.72.55-1.47.85-2.31.37.38.73.73,1.06,1.11a.42.42,0,0,1,.07.36C70.89,87.29,70.47,88.47,70,89.83Z"/><path d="M103.93,171.83l-.63,0c-.56-.07-.7-.19-.65-.75.09-1,.22-1.93.33-2.89s.27-2.19.42-3.28c.09-.61.17-.65.76-.59,1.4.15,1.9.62,2.2,2a6.79,6.79,0,0,1-.56,4.21A1.83,1.83,0,0,1,103.93,171.83Z"/><path d="M43.1,114.77l-3,2.24-.71-2.15c1.29-.16,2.48-.24,3.69-.29Z"/><path d="M121.87,169.45l-2.19.23a14.18,14.18,0,0,1,.61-3.7c.25.54.51,1.08.76,1.63S121.56,168.75,121.87,169.45Z"/></g></svg>