<svg xmlns="http://www.w3.org/2000/svg" viewBox="0 0 226.6 226.6" fill="#4875FF"><g id="fusiko"><path d="M13.58,84.63v-.22c.09,0,.21-.08.26-.16a12.92,12.92,0,0,0,1-1.36q3.64-6.19,7.25-12.39L42.43,35.56q9.93-17,19.84-34.08A2.41,2.41,0,0,1,64.71.08h95a5.56,5.56,0,0,0,.7-.08h2.24a.7.7,0,0,0,.2.08,2.3,2.3,0,0,1,2,1.28l.26.43q12.43,21.36,24.88,42.73Q200.82,63.24,211.76,82c.38.65.84,1.26,1.27,1.89v.78a12.83,12.83,0,0,0-.89,1.2q-9.85,17-19.7,34.08-14.91,25.86-29.82,51.71a3,3,0,0,1-1.47,1.45H65.45a7.67,7.67,0,0,1-1-.65,3.46,3.46,0,0,1-.56-.83q-6.39-11.09-12.77-22.16L21.36,97.9Q17.69,91.51,14,85.13A6.4,6.4,0,0,0,13.58,84.63Zm189.53-.39c-.33-.59-.56-1-.81-1.47q-9.68-16.6-19.36-33.21L161.8,13.26c-.65-1.13-1.32-2.25-2-3.39a2.48,2.48,0,0,0-2.38-1.36h-.39l-24.82,0-62,0H70a2.89,2.89,0,0,0-3,1.71q-9.57,16.53-19.21,33Q36.11,63.43,24.33,83.61l-.32.6.67,0c1.83,0,3.66-.06,5.48,0A2.08,2.08,0,0,0,32.36,83a2,2,0,0,1,.11-.2q2.89-5,5.8-10.06L60.41,34.38Q65.72,25.16,71,15.93a2.32,2.32,0,0,1,2.21-1.29h80a2.26,2.26,0,0,1,2.19,1.24l.16.29q14.57,25.24,29.12,50.48,4.66,8.09,9.34,16.15c.21.35.44.69.68,1a.84.84,0,0,0,.72.36l6.09,0Zm-59.07,0q11,19.08,22.09,38.27a.36.36,0,0,1,0,.11.11.11,0,0,1,0,.05s0,0,0,0l0,0H144.4l-.11,0,0,0s0,0-.1.12V129h-4.68a12.36,12.36,0,0,0-1.59,0l2,2.69a.53.53,0,0,0,.46.25H143a1.57,1.57,0,0,0,.33-.07L139,129.38l0-.12h.48c1.74,0,3.47,0,5.2,0a1.77,1.77,0,0,1,1,.26l15.87,9.16.61.33c.72-1.26,1.42-2.48,2.11-3.67-.05-.07-.05-.09-.07-.1l-9.86-5.71-.18-.13a.08.08,0,0,1,0,0,.25.25,0,0,1,0-.07l.15,0c1.9,0,3.8,0,5.7,0a1.38,1.38,0,0,1,.68.2c1.55.88,3.1,1.78,4.65,2.67.18.11.38.2.59.32l6.75-11.69-1.45-2.53.09-.07,2.15,1.22,2.15-3.73-.56-.33-7.88-4.55a1.52,1.52,0,0,1-.62-.61l-2.71-4.7a3.36,3.36,0,0,1-.16-.33l.06-.06,13.49,7.78,2.16-3.74-12.64-7.3L170,100l11,6.36,2.16-3.74L178.74,100c-1.45-.85-2.92-1.66-4.41-2.57l3.2-1.85,7.27,4.19L187,96.05l-5.09-3,3.22-1.86,3.49,2,2.16-3.73-1.28-.77c.19-.13.32-.22.46-.3l1.84-1.06a.66.66,0,0,0,.35-.83l-29.37,17-1.61-2.79,29.63-17.11c-.75-1.28-1.45-2.5-2.17-3.74L159,97l-1.61-2.79L187,77.08l-2.16-3.74-29.62,17.1-1.61-2.79,29.62-17.1c-.75-1.29-1.45-2.51-2.17-3.74L151.4,83.91l-1.61-2.8L179.41,64l-2.16-3.74-29.62,17.1L146,74.58l29.61-17.11-2.16-3.74-29.62,17.1L142.24,68l29.62-17.1-2.15-3.73-.62.33L149.59,58.8q-3.72,2.16-7.46,4.3a.75.75,0,0,0-.46.78c0,.65,0,1.3,0,1.95a.52.52,0,0,0,.32.53c.32.17.63.37,1,.6l-1,.58-.3-.28-.09.52h-7c.12.23.2.4.29.55.75,1.31,1.52,2.61,2.25,3.93a.81.81,0,0,0,.84.47c1.86,0,3.73,0,5.59,0l.6,0c0,.15,0,.24,0,.34q0,5.25,0,10.5A3,3,0,0,1,144,84.22ZM83.86,50.89a2.7,2.7,0,0,0,.2.33c1.08,1.46,2.18,2.92,3.26,4.4a.7.7,0,0,0,.66.28c2.84,0,5.67,0,8.5,0a1,1,0,0,0,.88-.44c1.21-1.67,2.46-3.32,3.69-5l.34-.42.1,0,0,3.22h4.26c.71,0,1.42,0,2.13,0s1.4,0,2.09,0v6.45H90.74c-.7,0-1.4,0-2.09,0v4.68h19.43c.64,0,1.29,0,1.93,0V76a35.12,35.12,0,0,1-5.05,0l3.23-4.26c-1.45-2-2.87-3.89-4.27-5.82a.61.61,0,0,0-.58-.23H96.63a2.27,2.27,0,0,0-.35,0c0,.07,0,.09,0,.1l7.36,10a.44.44,0,0,1,.08.15s0,0,0,0l0,.09H86.19a32.57,32.57,0,0,0,0,4.64h54.67V76H123.15l7.65-10.37-.31,0h-6.88A.71.71,0,0,0,123,66l-3.81,5.17c-.12.16-.23.33-.35.51l1.1,1.45c.36.47.73.94,1.08,1.42A14.35,14.35,0,0,1,122.08,76c-1.76,0-3.41,0-5.06,0V64.5h21.34V59.78h-21.3a60.41,60.41,0,0,1,0-6.47h6.81c.55,0,1.1,0,1.67,0,0-1,0-2,.07-3a2.54,2.54,0,0,1,.42.46c1.19,1.59,2.37,3.16,3.54,4.76a.87.87,0,0,0,.79.39h12l.52,0v-5h-.63c-2.52,0-5,0-7.55,0a1,1,0,0,1-.92-.47q-8-10.82-16-21.6a.89.89,0,0,0-.82-.42c-2.35,0-4.7,0-7,0a.93.93,0,0,0-.87.44L93,50.41a1.08,1.08,0,0,1-1,.49c-2.5,0-5,0-7.49,0ZM72.74,82a1.36,1.36,0,0,1-.08.25c-1,1.67-1.92,3.36-2.9,5a1.36,1.36,0,0,1-.49.43c-.89.54-1.8,1-2.7,1.57L43.88,102.4c-.16.09-.31.19-.49.31l2.16,3.72c6.56-3.78,13.05-7.55,19.59-11.25a1.78,1.78,0,0,1-.23.52c-.83,1.44-1.67,2.87-2.48,4.32a2.4,2.4,0,0,1-1,1l-13.69,7.9-.6.37L49.32,113c2.79-1.58,5.5-3.19,8.26-4.69a1.23,1.23,0,0,1-.17.42c-.88,1.54-1.78,3.07-2.65,4.6a1.65,1.65,0,0,1-.66.65c-.91.51-1.81,1-2.72,1.56l-.43.29,9.69,16.77.53-.28c1.61-.93,3.22-1.87,4.84-2.79a1.63,1.63,0,0,1,.73-.22c1.86,0,3.73,0,5.59,0a2.9,2.9,0,0,1,.38.08l-10.45,6c.74,1.28,1.45,2.49,2.16,3.73l.55-.31,16.11-9.3a1.64,1.64,0,0,1,.89-.25c1.77,0,3.54,0,5.31,0h.42l0,.13c-.7.4-1.4.8-2.1,1.22a18.28,18.28,0,0,0-2.1,1.3c1,.06,2,.07,2.91.05.13,0,.29-.15.38-.28.59-.76,1.17-1.54,1.75-2.32a3.55,3.55,0,0,0,.21-.38H82.91v-6.25h-26c.13-.24.21-.41.3-.56L68.1,103.25q7.23-12.54,14.47-25.06a1.77,1.77,0,0,0,.27-1c0-1.29,0-2.57,0-3.86v-.58l.61,0c.59,0,1.19,0,1.79,0a.68.68,0,0,0,.71-.39c.78-1.4,1.6-2.78,2.4-4.16.06-.11.09-.23.16-.4-1.09,0-2.12,0-3.19,0V60.64a0,0,0,0,0,0,0l-.1,0A2.49,2.49,0,0,1,84,61.82Q60.23,75.52,36.48,89.24l-.65.39L38,93.36l7-4.06,7.06-4.08,7-4,7.06-4.08c2.34-1.35,4.68-2.71,7-4s4.67-2.72,7.12-4.1a2.6,2.6,0,0,1-.11.28q-1.42,2.49-2.88,5a1.41,1.41,0,0,1-.52.48L61.71,83.39,40,95.91c-.14.08-.27.18-.41.27l2.15,3.71ZM96.55,40.13l.35-.47q5.23-7,10.45-14a1.09,1.09,0,0,1,1-.5q5.14,0,10.29,0a1,1,0,0,1,1,.47c2,2.67,3.92,5.31,5.89,8,.09.13.2.24.32.38l27.05-15.62,0-.14A4.51,4.51,0,0,0,152,18c-.57,0-1.15,0-1.73,0l-70,0h-5a4.64,4.64,0,0,0-.83.06,5.54,5.54,0,0,0-.7.23l26.91,15.54-1.61,2.79C90,31.35,81,26.15,71.94,20.92l-2.16,3.75ZM110,92.24c-.06,1.44,0,2.83,0,4.26H87.46c0,1.67,0,3.3,0,4.91l.12,0h15.88l.1,0a.1.1,0,0,1,0,0s0,0,0,.07-.2.29-.31.44c-2,2.63-3.92,5.25-5.86,7.89a1,1,0,0,1-.93.45q-4.69,0-9.39,0c-.19,0-.4-.07-.59.09.1.14.17.27.26.39,1,1.32,2,2.63,2.91,4a.9.9,0,0,0,.84.41c3.43,0,6.85,0,10.28,0a1,1,0,0,0,.87-.46q3.87-5.24,7.76-10.45l.36-.45.09,0v4.24c0,1.44,0,2.87,0,4.31s0,2.81,0,4.2a64.3,64.3,0,0,0,7.09-.06s0,0,0-.06q0-6.32,0-12.63s0-.07,0-.11,0,0,0,0l.08,0,.43.56q3.93,5.26,7.84,10.53a.89.89,0,0,0,.79.4h14l.56,0v-4.81h-.64c-3.21,0-6.41,0-9.62,0a1,1,0,0,1-.88-.43q-2.94-4-5.9-7.93l-.38-.55h15.39c.23,0,.46,0,.73,0,0-1.67,0-3.28,0-4.94H117.07V92.24Zm24,51.67V148H121v-6.29H106V148h-13v-1.43c0-.45,0-.9,0-1.34a4.77,4.77,0,0,0-.07-1.4L74.16,154.65l-.23.17a.08.08,0,0,0,0,0,1.25,1.25,0,0,1,0,.14c.38,0,.77.08,1.15.08h75c.65,0,1.3,0,1.95,0a3.71,3.71,0,0,0,.73-.18l0-.13ZM45.53,66.7l-2.16,3.74,9,5.22c-.17.11-.27.19-.38.25-.8.47-1.62.92-2.41,1.41a.69.69,0,0,1-.81,0c-1.64-1-3.29-1.91-4.93-2.86l-2.11-1.21L39.6,77c1.74,1,3.5,2,5.26,3.08-.9.51-1.72,1-2.49,1.46a1.11,1.11,0,0,1-1.4,0c-1-.61-2-1.14-3-1.74L35.82,83.5l1.48.88-.43.28c-.73.42-1.45.85-2.18,1.26a.55.55,0,0,0-.29.79l50.3-29-.11-.21q-1.92-2.58-3.85-5.15a2,2,0,0,0-.59-.49l-19-11-.52-.28-2.15,3.73L82.53,58.18c0,.08,0,.13-.07.14-.94.56-1.89,1.12-2.85,1.65a.58.58,0,0,1-.41,0,1.64,1.64,0,0,1-.39-.21L57.48,47.44l-.62-.34L54.7,50.83l2.54,1.47,2.56,1.48,2.52,1.45c.85.5,1.71,1,2.57,1.48l2.51,1.45L70,59.65l2.52,1.45c.84.49,1.7.94,2.58,1.51-1,.56-1.85,1-2.7,1.58a.84.84,0,0,1-1,0Q62.51,59.05,53.65,54l-.57-.31-2.15,3.73,5.54,3.2L62,63.75c1.82,1.06,3.66,2.09,5.52,3.22-1,.55-1.84,1-2.69,1.57a.84.84,0,0,1-1,0c-4.35-2.53-8.7-5-13.06-7.55l-1.44-.82L47.15,63.9,60,71.3c-.21.14-.34.23-.48.31-.76.44-1.53.86-2.27,1.32a.75.75,0,0,1-.91,0C54,71.6,51.78,70.3,49.52,69Zm40.16,68.56a.79.79,0,0,0,.08.22c1,1.34,2,2.67,3,4a.63.63,0,0,0,.57.26c.73,0,1.46,0,2.18,0a.86.86,0,0,0,.83-.42c1.19-1.62,2.4-3.23,3.6-4.84.11-.14.23-.26.43-.5v10.66a58.38,58.38,0,0,0,6.41,0c0-1.79,0-3.6,0-5.4s0-3.59.07-5.4a2.44,2.44,0,0,1,.39.4c1,1.27,1.91,2.52,2.86,3.79a.83.83,0,0,0,.74.38c1.68,0,3.35,0,5,0l.42,0a18.7,18.7,0,0,0,0-3.77c-.55,0-1.11,0-1.67,0a.81.81,0,0,1-.74-.38l-6-8.13a3.36,3.36,0,0,1-.2-.39h8.14a23.84,23.84,0,0,0-.06-4.52H105.1c-.71,0-1.43,0-2.2,0v-5.18H96.15c0,1.75,0,3.46,0,5.22-1.71,0-3.35,0-5,0s-3.26,0-4.91,0v4.52h9.22l-.41.58c-2.06,2.74-4.14,5.46-6.16,8.23a1.59,1.59,0,0,1-1.61.78C86.76,135.22,86.24,135.26,85.69,135.26Zm45,9.39v-8.09a18.87,18.87,0,0,1,.06-2,1.54,1.54,0,0,1,.36.36c1.1,1.48,2.2,2.95,3.29,4.44a.73.73,0,0,0,.63.36c1.83,0,3.66,0,5.48,0a2.25,2.25,0,0,0,.36-.06,29.09,29.09,0,0,0-.07-4.41c-.64,0-1.29,0-1.94,0a.79.79,0,0,1-.74-.36q-3.26-4.41-6.52-8.8a4.29,4.29,0,0,1-.26-.44h9.49a27.07,27.07,0,0,0,0-4.53h-6.63c-1.09,0-2.18,0-3.33,0v-5.2h-6.75v5.22h-8.86c0,1.55,0,3,0,4.56h8.83l-.21.35q-3,4.08-6,8.17a.71.71,0,0,1-.65.34c-.72,0-1.45,0-2.18,0l-.41,0a.58.58,0,0,0,0,.16c.83,1.12,1.67,2.24,2.49,3.36a.62.62,0,0,0,.59.23c1,0,2.09,0,3.13,0a.85.85,0,0,0,.79-.41c.75-1,1.53-2.06,2.3-3.09.08-.11.18-.2.36-.4v10.19Zm-.42-104.57,26.5-15.3L154.61,21c-9,5.2-17.94,10.37-26.93,15.55ZM94.61,42.73,68.17,27.46,66,31.21l26,15Zm63.77-15.15L132.21,42.69l2.58,3.47c2.13-1.08,25.38-14.58,25.7-14.92Zm7.55,13.09-.58.32L161,43.47l-14.36,8.29a.68.68,0,0,0-.42.69c0,1.36,0,2.72,0,4.08,0,.12,0,.24,0,.44L168.09,44.4ZM62.26,37.73c.15.1.25.18.36.24Q70.79,42.69,79,47.4a1.49,1.49,0,0,0,.74.2h7.65c.12,0,.23,0,.35,0l0-.1L64.4,34Zm99.89-3.61L139,47.48l0,.13h7.18l.1.64,18-10.39Zm-1.64,107.73c-.86-.63-15.9-9.26-16.31-9.36v4.88l14.17,8.19ZM72,152.2l15.82-9.13c-.59-.11-.59-.11-.92-.55l-1.76-2.38a4.07,4.07,0,0,0-.3-.34c-5,2.89-10,5.76-15,8.66Zm-3.79-6.59c.93-.4,14.39-8.22,14.68-8.52l-2.54-3.42L66,141.91ZM139.11,143l0,.14,15.54,9,2.13-3.71c-1.06-.77-12.15-7.1-12.58-7.17V143ZM117.5,129h-7.33l.53.78a2,2,0,0,0,.33-.18,2.2,2.2,0,0,1,1.46-.39c1.47,0,3,0,4.42,0C117.09,129.26,117.32,129.33,117.5,129Zm-2.57,2.08c1,.21,1.33,0,1.57-.9Zm26.81-71.55a.63.63,0,0,0,.45-.32C141.72,59.21,141.72,59.21,141.74,59.57Z"/><path d="M166.84,93.06,170,91.24l3.17,1.83a2.12,2.12,0,0,1-.3.26l-2.52,1.45c-.18.1-.33.2-.56.06L167,93.21C166.92,93.19,166.9,93.13,166.84,93.06Z"/><path d="M185.08,82.52l3.18,1.84a1.69,1.69,0,0,1-.23.2l-2.61,1.51a.45.45,0,0,1-.52.07c-1-.57-2-1.13-3-1.75Z"/><path d="M166.85,84.33,170,82.52l3.19,1.85c-.12.09-.18.16-.25.2-.87.5-1.75,1-2.61,1.51a.5.5,0,0,1-.57,0l-2.8-1.63S166.9,84.42,166.85,84.33Z"/><path d="M165.64,80l-.43.28-2.41,1.39c-.17.1-.33.23-.56.09l-3-1.75,3.21-1.87Z"/><path d="M166.84,75.63,170,73.81l3.22,1.86c-.3.18-.51.32-.73.44l-2.13,1.24a.54.54,0,0,1-.61,0c-.91-.55-1.84-1.07-2.75-1.6C166.93,75.76,166.91,75.71,166.84,75.63Z"/><path d="M158.12,75.68c-1.07.61-2,1.17-3,1.7a.55.55,0,0,1-.45,0c-1-.55-1.93-1.12-2.9-1.69,0,0,0,0,0-.11l3.11-1.8Z"/><path d="M159.27,71.28l3.17-1.83,3.19,1.85c-.17.11-.28.2-.4.27L162.77,73a.52.52,0,0,1-.61,0c-.89-.53-1.8-1-2.69-1.57A1.2,1.2,0,0,1,159.27,71.28Z"/><path d="M151.67,84.38l3.21-1.86L158,84.34c-.05.08-.07.14-.11.16-.92.54-1.83,1.07-2.76,1.59a.55.55,0,0,1-.45,0C153.72,85.58,152.74,85,151.67,84.38Z"/><path d="M147.34,69.45l3.19,1.85c-.17.11-.28.2-.4.27-.79.46-1.58.91-2.36,1.38a.67.67,0,0,1-.81,0c-.79-.48-1.61-.93-2.41-1.4a4.41,4.41,0,0,1-.39-.28Z"/><path d="M151.75,66.9l3.14-1.81L158.16,67l-.29.12-2.65,1.54a.5.5,0,0,1-.57,0l-2.8-1.63S151.81,67,151.75,66.9Z"/><path d="M174.31,80l3.22-1.87L180.75,80l-.52.33-2.32,1.34c-.17.1-.33.23-.56.09Z"/><path d="M174.39,88.7l3.14-1.82,3.18,1.83a2.18,2.18,0,0,1-.26.22l-2.56,1.49a.51.51,0,0,1-.61,0c-.92-.55-1.86-1.08-2.8-1.62A1.17,1.17,0,0,1,174.39,88.7Z"/><path d="M162.43,95.6l3.19,1.84a1.64,1.64,0,0,1-.24.19c-.88.52-1.77,1-2.66,1.54a.42.42,0,0,1-.51,0l-2.8-1.62s-.07-.08-.13-.15Z"/><path d="M144.11,62.59l3.22-1.86,3.22,1.86-.53.33-2.31,1.34c-.17.1-.33.22-.56.09C146.17,63.77,145.19,63.21,144.11,62.59Z"/><path d="M159.29,88.7l3.14-1.82,3.18,1.83a2.82,2.82,0,0,1-.3.25l-2.51,1.46a.56.56,0,0,1-.62,0c-.92-.56-1.86-1.09-2.79-1.63A.5.5,0,0,1,159.29,88.7Z"/><path d="M157.07,93.72l-.94-1.63.08-.08,1.89,1.09Z"/><path d="M150.56,80l-1,.59a12,12,0,0,1-.93-1.64A14.91,14.91,0,0,1,150.56,80Z"/><path d="M124.43,48.54H102.62c.13-.39,10.11-13.91,10.83-14.67Z"/><path d="M53.52,80l3.22-1.86L59.92,80a2.21,2.21,0,0,1-.28.23l-2.56,1.48a.45.45,0,0,1-.52.07C55.59,81.21,54.61,80.65,53.52,80Z"/><path d="M61.07,75.67l3.22-1.86,3.18,1.83a1.84,1.84,0,0,1-.3.24c-.84.49-1.68,1-2.51,1.46a.62.62,0,0,1-.71,0C63,76.79,62.1,76.26,61.07,75.67Z"/><path d="M61.12,84.36l3.17-1.84,3.2,1.85a4.72,4.72,0,0,1-.4.27l-2.45,1.43a.53.53,0,0,1-.61,0c-.89-.54-1.8-1-2.7-1.57A1.73,1.73,0,0,1,61.12,84.36Z"/><path d="M46,84.38l3.22-1.86,3.18,1.83a2.82,2.82,0,0,1-.3.25c-.83.49-1.67,1-2.5,1.46a.62.62,0,0,1-.71,0C47.94,85.51,47,85,46,84.38Z"/><path d="M38.42,88.74l3.22-1.86,3.18,1.83a1.66,1.66,0,0,1-.27.23L42,90.43a.5.5,0,0,1-.56,0C40.47,89.91,39.5,89.36,38.42,88.74Z"/><path d="M49.2,91.24l3.23,1.87c-1.11.65-2.16,1.26-3.23,1.86L46,93.1Z"/><path d="M56.75,86.88l3.18,1.84a1.69,1.69,0,0,1-.26.21c-.87.51-1.74,1-2.6,1.51a.53.53,0,0,1-.62,0L53.8,88.9a1.88,1.88,0,0,1-.23-.18Z"/><path d="M71.84,69.45,75,71.28a2.82,2.82,0,0,1-.32.26L72.18,73c-.16.1-.31.2-.51.08l-3-1.76Z"/><path d="M56.74,95.6l3.18,1.83a3.4,3.4,0,0,1-.27.23l-2.56,1.48a.49.49,0,0,1-.56.07c-.94-.57-1.89-1.11-2.83-1.66,0,0,0-.06-.09-.14Z"/><path d="M64.29,91.24l2.4,1.38c-.27.47-.5.92-.79,1.33a1.39,1.39,0,0,1-.52.4c-.35.2-.72.54-1.07.53s-.73-.33-1.08-.53c-.57-.32-1.13-.65-1.69-1-.13-.07-.25-.16-.44-.28Z"/><path d="M76.2,66.93l3.19-1.84,2.4,1.38c-.28.48-.5.93-.79,1.33a1.93,1.93,0,0,1-.62.46c-.32.18-.65.48-1,.47s-.65-.3-1-.48l-1.78-1Z"/><path d="M68.65,80l3.19-1.84,2.39,1.37c-.43.71-.68,1.47-1.5,1.87s-.87.49-1.73,0l-1.83-1.06C69,80.25,68.86,80.15,68.65,80Z"/></g></svg>