<svg xmlns="http://www.w3.org/2000/svg" viewBox="0 0 226.6 226.6" fill="#4875FF"><g id="suzukaze"><path d="M109.37,169.9c-4.09-4.8-8.31-9.49-12.21-14.43a36.86,36.86,0,0,1-7.45-15.32,33.16,33.16,0,0,1,0-12c1.4-9.07,4.55-17.59,8.24-25.94.12-.27.22-.55.41-1-.58.2-.94.34-1.31.44-1.68.47-3.37.88-5,1.4a7.52,7.52,0,0,0-2.45,1.13,96.53,96.53,0,0,1-17,11.29A31.44,31.44,0,0,1,57,119.3a43.38,43.38,0,0,1-14.69-3.23C37.19,114,32.11,111.74,27,109.56c-.13,0-.26-.12-.55-.27l8.59-6.78v-.26l-10.85-.56a2,2,0,0,1,.12-.56c3.55-5.67,7-11.45,10.73-17A33.91,33.91,0,0,1,46.13,73.77a33.09,33.09,0,0,1,12.78-4c1.71-.21,3.42-.39,5.13-.55.66-.06.92-.33.94-1,.1-2.91,1.17-4.19,4-4.83.46-.11.68-.31.68-.8,0-.77,0-1.53,0-2.3,0-1.1.18-1.49,1.59-3.57-.32-.28-.64-.58-1-.86a60.88,60.88,0,0,1-9.86-9.79,30.49,30.49,0,0,1-6-15.68,84.35,84.35,0,0,1,.45-17.83c.21-2.08.4-4.16.61-6.24.06-.53.13-1.06.21-1.81l9.08,6.08.28-.17L62.28,0A3.35,3.35,0,0,1,63,0C68.8,1.43,74.66,2.69,80.41,4.31a38.14,38.14,0,0,1,14.45,7.33,34.16,34.16,0,0,1,8.81,12.13,104.49,104.49,0,0,1,8.46,28.73c.33,2.17.57,4.37.86,6.55a5.49,5.49,0,0,0,.17.7h.26c.08-.49.19-1,.25-1.46A109.52,109.52,0,0,1,123,24.07c2.53-5.4,5.75-10.31,10.76-13.79a42,42,0,0,1,13.54-6.15c5.56-1.44,11.19-2.66,16.79-4a4.89,4.89,0,0,1,.76-.07c-1,3.6-2,7.1-3,10.6l.21.13,9.22-6c.08.91.17,1.63.22,2.35.47,6,1.32,11.91,1.21,17.91-.11,5.51-.81,10.91-3.21,16a33.75,33.75,0,0,1-8.15,10.54c-2.85,2.56-5.91,4.9-8.87,7.33a1.84,1.84,0,0,0-.63.75l8.39.34c1-1.39,2-3,3.15-4.46,2.65-3.29,5.91-5.59,10.31-5.77a20.51,20.51,0,0,1,8.29,1.6c.79.3,1.56.66,2.35,1-4,7.75-10.43,13.73-22.27,8.81,1.67,2.71.91,5.63.45,8.67,1,.11,2,.21,3,.33a43.38,43.38,0,0,1,12,2.9c5.19,2.24,9.21,5.91,12.72,10.24,3.69,4.57,6.5,9.7,9.51,14.7.88,1.44,1.75,2.89,2.62,4.33v.34l-11,.47,0,.25,8.58,6.87c-.43.21-.67.34-.92.45-1.74.74-3.47,1.5-5.21,2.22-5.18,2.15-10.29,4.45-15.75,5.85-8.05,2-15.8,1.55-23.29-2.25a90.4,90.4,0,0,1-14.39-9.17,6.73,6.73,0,0,0-2.55-.91c-2.07-.58-4.18-.1-6.21-.61a4.87,4.87,0,0,0-.6,0l.42,1.13a97.42,97.42,0,0,1,6.2,22,30.76,30.76,0,0,1-2.47,18,50.63,50.63,0,0,1-7.77,11.69q-4.92,5.63-9.81,11.28h-.17c-.11-.23-.23-.46-.32-.7q-1.55-4.23-3.11-8.46c-.11-.31-.25-.61-.38-.91l-.3-.05q-2,5-3.8,10.12Zm3.83-87.37a5.26,5.26,0,0,1,.68-.62c1-.61,1.92-1.19,2.87-1.8.31-.21.8-.46.83-.75.08-.64.38-1.4-.56-1.83a4.16,4.16,0,0,1-2.52-4.14c0-.75,0-1.49,0-2.24a4.47,4.47,0,0,1,2.74-4.62,1.13,1.13,0,0,0,.75-1.26c0-.6.09-1.21,0-1.8-.28-2.86,2.45-5.49,6.08-4.44a50.58,50.58,0,0,0,6.16,1.11,3.62,3.62,0,0,0,1.15-.18,15.81,15.81,0,0,1,3-.62c2.89,0,5.78.11,8.67.12a2.17,2.17,0,0,0,1.38-.51A18.7,18.7,0,0,0,150,48.31a49.56,49.56,0,0,0-.09-12.17c-.08-1-.2-2-.32-3.07-.42.25-.71.42-1,.6-1.06.69-2.09,1.43-3.19,2a2,2,0,0,1-1.43.08c-.58-.22-.63-.84-.5-1.41s.3-1.1.45-1.66c.27-1,.53-2,.8-3.05-.22,0-.31-.08-.38-.06-4.1.93-8.25,1.64-12.18,3.21a19.45,19.45,0,0,0-10.72,9.65,67.69,67.69,0,0,0-6.19,20.45c-.2,1.33-.33,2.67-.53,4A1.09,1.09,0,0,1,113.63,68a1.16,1.16,0,0,1-1.31-.85c-.08-.22-.17-.44-.2-.51l-4.74,8c.5,0,1,0,1.57.1,3,.34,4.45,2.12,4.25,5.13C113.15,80.62,113.2,81.45,113.2,82.53Zm10.65,13.88L123,97a4.35,4.35,0,0,1-6.94-2.32c-.3-.92-.59-1.85-.88-2.78-.79-2.58-1.58-5.17-2.39-7.8a9,9,0,0,1-1.08,1.21,3.16,3.16,0,0,1-1.46.84c-1.37.13-1.76,1-2,2.14a2.77,2.77,0,0,1-.17.58.72.72,0,0,0,.34,1c.69.46,1.36,1,2,1.46a4.38,4.38,0,0,1,.92,6.56c-.88,1.2-1.8,2.37-2.74,3.53a4.35,4.35,0,0,1-5.47,1.33c-.52-.22-1-.46-1.64-.74a10.16,10.16,0,0,0-.41,1.09c-.47,1.8-1,3.59-1.36,5.41a19.57,19.57,0,0,0,2.1,14.67,66,66,0,0,0,8.32,10.59c.08.1.23.14.43.26.15-.33.29-.6.4-.89.44-1.14.81-2.33,1.34-3.43a2.17,2.17,0,0,1,1.21-1c.64-.17,1,.41,1.23,1,.48,1.23.93,2.46,1.4,3.69.11.27.25.53.42.88l2-2.31a55.85,55.85,0,0,0,6.77-8.75A19,19,0,0,0,128,111a58.12,58.12,0,0,0-3.58-13.22C124.24,97.33,124.06,96.92,123.85,96.41Zm34-25.86.2-.16.85-.07A2.72,2.72,0,0,0,161.56,68a23.63,23.63,0,0,0,0-4.45,2.25,2.25,0,0,0-2.24-2.19,20.55,20.55,0,0,0-2.48-.2q-11.25-.27-22.5-.5a3.73,3.73,0,0,0-2.79.9.85.85,0,0,1-.61.15c-2.56-.46-5.13-.89-7.67-1.43a3,3,0,0,0-3.93,2.89c-.06,1.12-.08,2.24,0,3.35,0,.66-.19,1-.87,1.11a2.78,2.78,0,0,0-2.52,2.54,29.25,29.25,0,0,0,0,3.86,2.35,2.35,0,0,0,1.74,2.32c1.33.31,1.46,1.1,1.34,2.17,0,.34,0,.69,0,1-.12,1.67-.13,1.67-1.75,1.94a3,3,0,0,0-2.59,4q1.32,4.44,2.77,8.84a3,3,0,0,0,5,1.46c1.35-1.1,2.66-2.26,4-3.39a11.31,11.31,0,0,1,1-.65c.09.43.18.73.23,1a40.07,40.07,0,0,0,2.72,9.9,3.07,3.07,0,0,0,4.56,1.68c.22-.1.61-.16.75,0,1.39,1.21,2.84.93,4.34.28a25,25,0,0,0,6.49-4c.93-.79,1.81-1.64,2.7-2.47l6.06,6.63a2.81,2.81,0,0,0,3.21.8,2.85,2.85,0,0,0,2-2.55c.67-6-.35-11.57-3.91-16.56a1.73,1.73,0,0,1-.22-1.33,72.91,72.91,0,0,0,2.34-10.54C158.85,73.11,159.07,71.71,157.85,70.55Zm-73-8.42c0-.17,0-.28-.06-.39-.33-2.42-.93-3-3.34-3.37-2.09-.3-4.2-.55-6.27-1a3.15,3.15,0,0,0-4.11,3.08c0,1,0,2.06-.06,3.1s0,1.17-1.23,1.13A3.11,3.11,0,0,0,66.34,68c0,.77,0,1.55-.08,2.32a3.16,3.16,0,0,0,1.5,3.23c.46.29.45.59.34,1.07-.41,1.69-.86,3.39-1.12,5.11a25.41,25.41,0,0,0,1.28,13.43,7.15,7.15,0,0,0,1.55,2.2,1.42,1.42,0,0,1,.48,1.18c-.05,1-.12,2.06-.1,3.09a3.1,3.1,0,0,0,3.07,3.18,20.25,20.25,0,0,1,6.62,1.27,2.4,2.4,0,0,0,3-.69,2.91,2.91,0,0,1,2.84-1.12c.48,0,1,0,1.46-.06A25.9,25.9,0,0,0,98.57,99.5a1.5,1.5,0,0,1,1.19,0c1.33.6,2.61,1.31,3.92,2a3,3,0,0,0,4-.92c.87-1.1,1.73-2.21,2.58-3.32,1.46-1.92,1.25-3.49-.68-5-.86-.66-1.75-1.28-2.64-1.92a.75.75,0,0,1-.35-1c.38-1.1.7-2.23,1-3.37a1,1,0,0,1,1.17-.91,2.9,2.9,0,0,0,3.06-2.92c.07-1,.11-2,.11-3a3,3,0,0,0-3-3.2c-.77,0-1.54,0-2.31-.07l-2.41-.12-.21-.36a12.59,12.59,0,0,0,1.29-1,22.18,22.18,0,0,0,5.26-8.37,3,3,0,0,0-2-4.26c-2.3-.86-4.62-1.69-6.93-2.52a3,3,0,0,0-2.65.22,4.23,4.23,0,0,1-.43.22,16.32,16.32,0,0,0-2.28-1.45,2.72,2.72,0,0,0-2.79.65c-1.2.93-2.37,1.88-3.53,2.81C87.93,60.64,87.93,60.64,84.83,62.13ZM77.82,33a4.57,4.57,0,0,0-.18.53c-.51,4.52-1.07,9-.58,13.61A18.82,18.82,0,0,0,80,55.65a2.9,2.9,0,0,0,2.35,1.5,3.71,3.71,0,0,1,3.07,1.93,1.06,1.06,0,0,0,1.43.61,2.61,2.61,0,0,1,1.68,0c1.24.57,2.06,0,2.87-.79.2-.2.46-.34.66-.54a4.65,4.65,0,0,1,6.12-.69,3.2,3.2,0,0,0,1.3.23,11.11,11.11,0,0,1,2.6.18c2.32.72,4.61,1.56,6.87,2.45a12.72,12.72,0,0,1,2.09,1.3c.16.09.31.2.46.3l.22-.1c-.19-1-.39-2-.59-3.05a69.63,69.63,0,0,0-4.69-15.22A19.87,19.87,0,0,0,94.32,32.52c-2.6-.88-5.26-1.55-7.91-2.27-1.2-.33-2.43-.53-3.79-.83.08.44.12.72.19,1,.34,1.3.74,2.59,1,3.91a1.52,1.52,0,0,1-.4,1.27,1.65,1.65,0,0,1-1.32.1,4.73,4.73,0,0,1-1.25-.74Zm81.51,46.24c-.52,1.85-.94,3.51-1.45,5.14a2.53,2.53,0,0,0,.38,2.33,20.91,20.91,0,0,1,3.4,9.08c.18,1.37.29,2.75.45,4.25l4.51-2c-1.41-1.14-2.69-2.1-3.87-3.18a1.72,1.72,0,0,1-.47-1.4c.09-.35.71-.72,1.14-.81A21.89,21.89,0,0,1,166,92.5l2.49-.12C165.75,87.67,163.29,83.06,159.33,79.21Zm-90.41,22c0-1.23,0-2.17,0-3.11A2.64,2.64,0,0,0,68,95.61a3,3,0,0,1-.66-1.09,25.31,25.31,0,0,1-2-11.81c0-.33,0-.66,0-1.24-2.89,3.18-4.76,6.72-6.87,10.31,1.74.09,3.28.1,4.81.28a2,2,0,0,1,1.34.83c.36.58-.06,1.14-.57,1.54l-2.82,2.25-.85.64.12.33Zm83,1.91-2.81-3L145.69,103A15.05,15.05,0,0,0,151.89,103.08Z"/><path d="M94,154.71a82.53,82.53,0,0,1-23.19-10.79,78.14,78.14,0,0,1-22-23.34l.14-.23c.26,0,.53.06.79.12,2.12.44,4.25.92,6.38,1.34a3.19,3.19,0,0,1,2,1.38,68,68,0,0,0,23,19.74c2.36,1.23,4.81,2.28,7.24,3.35a3.19,3.19,0,0,1,1.51,1.3c1.22,2,2.5,4,3.75,6,.2.3.39.61.58.91Z"/><path d="M113.67,9.15c3.44,3.88,6.45,7.94,6.16,13.49a13.73,13.73,0,0,1-.82,3.67,22.92,22.92,0,0,1-5.44,8.25c-3.37-3.73-6.22-7.65-6.26-12.92a13.28,13.28,0,0,1,1.47-5.78A23.81,23.81,0,0,1,113.67,9.15Z"/><path d="M72.78,131.69c-.52-5.75-.55-11.26,3.9-15.62a18.9,18.9,0,0,1,8.77-4.45c.72-.19,1.45-.32,2.29-.5.07.53.15,1,.2,1.46a23.47,23.47,0,0,1-.45,7.84,12.84,12.84,0,0,1-6.55,8.51A25.31,25.31,0,0,1,72.78,131.69Z"/><path d="M42.6,52.41C46.86,50.48,51,49.13,55.51,50a13.33,13.33,0,0,1,6.94,4,25.92,25.92,0,0,1,4.42,6.18,26.42,26.42,0,0,1-6,2.19c-6.35,1.54-11.35-.58-15.25-5.63C44.55,55.43,43.66,54,42.6,52.41Z"/><path d="M94.67,8.22C101,5,125.85,5,132.57,8.2c-.52.33-1,.61-1.46.94-1.46,1.07-2.87,2.19-4.35,3.22a2.43,2.43,0,0,1-1.47.45c-1.94-.18-3.87-.45-5.79-.75a1.72,1.72,0,0,1-1-.61,32,32,0,0,0-5.06-5.58c-1.56,1.83-3.12,3.61-4.6,5.45a1.88,1.88,0,0,1-1.38.82c-1.93.21-3.85.52-5.79.71a2.2,2.2,0,0,1-1.37-.4C98.4,11.08,96.55,9.65,94.67,8.22Z"/><path d="M185.13,56.13a70.22,70.22,0,0,1,4.11,23c-.52-.59-1-1.21-1.58-1.77-1.39-1.36-2.82-2.67-4.19-4a3,3,0,0,1-.8-1.35c-.74-3.32-1.43-6.65-2.1-10a1.18,1.18,0,0,1,.11-.9C182.12,59.44,183.6,57.83,185.13,56.13Z"/><path d="M38.07,77.35a74.62,74.62,0,0,1,4.18-21.19c.41.54.71,1,1.07,1.42,1.06,1.19,2.16,2.36,3.22,3.56a1.17,1.17,0,0,1,.27.85q-.93,4.37-1.94,8.7a2,2,0,0,1-.48,1C42.33,73.54,40.24,75.4,38.07,77.35Z"/><path d="M182,48.68c-2.07-.39-4.07-.91-6.1-1.1a2.93,2.93,0,0,1-2.36-1.51,5.24,5.24,0,0,1-.76-5.63A29.71,29.71,0,0,0,174,35.55,77,77,0,0,1,182,48.68Z"/><path d="M52.91,36.37c.72,2.47,1.39,4.77,2,7.07a1,1,0,0,1-.09.64c-.54,1-1.1,2-1.69,3a.78.78,0,0,1-.5.37c-2.39.36-4.78.7-7.19,1A72.21,72.21,0,0,1,52.91,36.37Z"/><path d="M132.75,154.81l.64-1c1.33-2.07,2.63-4.16,4-6.19a3.42,3.42,0,0,1,1.44-1.26,67,67,0,0,0,22.43-14.19c2.79-2.7,5.26-5.73,7.83-8.65a3.26,3.26,0,0,1,2-1.16c2.11-.4,4.19-.91,6.28-1.38l1.07-.23a75.6,75.6,0,0,1-45.7,34Z"/><path d="M153.24,131.71a23,23,0,0,1-10.34-4.21c-3.49-2.75-4.74-6.56-5-10.79-.09-1.81.07-3.64.12-5.69,1.54.41,2.87.69,4.17,1.11a16.82,16.82,0,0,1,7.88,4.79c2.44,2.8,3.21,6.2,3.3,9.79C153.45,128.33,153.31,130,153.24,131.71Z"/><path d="M130.42,86.54c-4,1.42-7,4-10.07,6.74-.92-2.93-1.79-5.74-2.71-8.69,1.16-.11,2.15-.28,3.14-.28S122.05,84,122,83c0-2.87.1-5.73.21-8.59,0-.67-.18-.94-.85-.92a8.11,8.11,0,0,1-1.71-.06c-.25,0-.44-.38-.64-.6,0,0,0-.16,0-.25-.1-1.88,0-2,1.83-1.82,1.4.1,1.53,0,1.55-1.41,0-1.66,0-3.32.06-5,0-.3.06-.61.1-.91l4.78.88.43.07c1.66.18,1.65.18,1.63,1.85,0,1.48,0,3,0,4.55l3.26.18c0,.79,0,1.53,0,2.26,0,.17-.43.41-.67.43a14.79,14.79,0,0,1-1.88,0c-.47,0-.71.16-.73.62-.08,3.12-.17,6.24-.2,9.36,0,.21.43.52.72.6s.73-.07.83-.59c.25-1.41.5-2.82.86-4.21a22,22,0,0,1,3.27-7.14,3,3,0,0,0,.48-2.66c-.48-1.85-.89-3.73-1.37-5.78,1.07,0,2.05,0,3,0l13.58.29c2.4,0,4.81.13,7.21.16.58,0,.72.22.73.76,0,2.06.05,2.09-2,2Q150,67,143.6,66.85c-.62,0-.93.14-1.09.76-.42,1.6-.89,3.19-1.39,4.94,1,0,2,.12,2.89.14l10.57.21c1.06,0,1.1.08,1,1.15a50.66,50.66,0,0,1-2.85,11.64,1.31,1.31,0,0,0,.33,1.48c3.67,4.23,4.73,9.23,4.33,14.66a3.16,3.16,0,0,1-.14.41L149,93.17a23.3,23.3,0,0,1-10.75,8.65,9.56,9.56,0,0,1,.3-1c1.68-4.13,3.36-8.26,5.08-12.38a1.23,1.23,0,0,0-.26-1.52c-1.55-1.65-3-3.34-4.7-5.15-1.77,6.45-3.5,12.74-5.22,19l-.23,0A33.59,33.59,0,0,1,130.42,86.54Zm8.87-7.12,4.16-2.21c.22,1.19.5,2.26.6,3.36a1.35,1.35,0,0,0,1.23,1.37c.27.06.54.14.88.23l2.5-6.21c-.11-.14-.13-.18-.15-.18-2.6-.07-5.2-.14-7.8-.19a.55.55,0,0,0-.44.31C139.94,77,139.66,78.08,139.29,79.42Z"/><path d="M83.46,71,83,71c-1.62,0-1.61,0-1.68,1.64a3.92,3.92,0,0,0,1,3.08,7.74,7.74,0,0,1,1.17,2.18.93.93,0,0,0,1,.65c.78,0,1.55,0,2.32,0,.38,0,1-.11,1.09-.35.29-.58.63-1.25.12-1.93-.35-.48-.68-1-1.15-1.64,1.17.06,2.12.09,3.07.15s2.17.22,3.26.27c.69,0,.79.37.71,1-.13.87-.22,1.74-.36,2.88,1.23,0,2.34,0,3.44,0l10.57.2c1.14,0,1.16,0,1.16,1.14,0,1.72,0,1.72-1.68,1.67s-1.62,0-2.07,1.55c-.67,2.33-1.38,4.66-2.13,7a.81.81,0,0,0,.35,1.12c1.59,1.12,3.15,2.28,4.81,3.49l-2.8,3.61c-1.9-1-3.75-1.92-5.64-2.82a1.25,1.25,0,0,0-1.07,0C95.31,98,91.77,98.72,88.11,99c-1.63.13-3.26.09-4.9.11a1.44,1.44,0,0,1-.88-.27l9.26-7c-.36-.22-.62-.41-.91-.56-1-.53-2-1-3-1.58a3.33,3.33,0,0,1-1.85-4.1c.28-1.31.66-2.59,1-4H84.37l-1.1,7.22-.33.06-1.56-2-.29,0c-.28,4.64-.18,9.29-.43,13.87l-7.1-1.27V88.08L73.35,88l-1.86,4.23-.26,0C68.62,85,69.86,78,72.91,70.83c-1,0-1.86,0-2.7,0-.57,0-.78-.2-.74-.75s.06-1.36.1-2.1c1.24,0,2.4,0,3.56,0,.78,0,1-.26,1-1,0-2,.08-4,.14-5.93a3.54,3.54,0,0,1,.07-.47l7.12,1c0,1.69,0,3.43,0,5.17a8.31,8.31,0,0,0,.19,1.2c.54-.1,1.2,0,1.59-.32,1.49-1.12,2.88-2.35,4.42-3.63,1.23,1.53,2.4,3,3.54,4.43a.63.63,0,0,1-.16.56c-1.36,1.13-2.74,2.23-4.21,3.41l-3.22-3.88ZM98.93,82l-.2-.34c-1.54,0-3.08,0-4.61,0-.33,0-.91.13-.93.28-.14.73-.46,1.82-.11,2.17A31.83,31.83,0,0,0,96.89,87Z"/><path d="M94.49,69.85l-3.73-4.66,4.68-3.79,3.9,4.75,1.23-3.73a2.69,2.69,0,0,1,.46,0c2,.71,3.93,1.41,5.88,2.15.22.09.53.52.47.67-1.85,4.62-4.62,8.41-9.46,10.28a12.38,12.38,0,0,1-1.51.35c1-3.35,2-6.49,2.93-9.63l-.22-.12Z"/></g></svg>