<svg xmlns="http://www.w3.org/2000/svg" viewBox="0 0 226.6 226.6" fill="#4875FF"><g id="horisaka"><path d="M124.18,66.05l-11-32.17-11,32.17-33.59.24L95.31,87l-9.73,31.7L113.15,100l27.57,18.74L131,87l26.76-20.74Zm4.33,21.74,7.55,24.61L114.62,97.84l-1.47-1-1.46,1L90.25,112.4,97.8,87.79l.53-1.72L96.91,85,76.1,68.84l26.05-.18H104l.6-1.75,8.56-25,8.56,25,.6,1.75h1.85l26.05.18L129.4,85,128,86.07Z"/><polygon points="120.65 70.95 113.15 49.08 105.66 70.95 82.82 71.12 101.02 85.22 94.41 106.77 113.15 94.03 131.9 106.77 125.29 85.22 143.49 71.12 120.65 70.95"/><path d="M203,77.49,158.54.43a.87.87,0,0,0-.75-.43h-89a.89.89,0,0,0-.75.43L23.57,77.49a.9.9,0,0,0,0,.87l44.49,77.06a.86.86,0,0,0,.75.43h89a.85.85,0,0,0,.75-.43L203,78.36A.85.85,0,0,0,203,77.49ZM166.91,50.15l4,6.86a.64.64,0,0,1-.23.87l-1.56.89-.17.11L165.23,61l-.29.17-.06,0-6.75-11.69a.82.82,0,0,0,.34-.12L178,38.12a1.08,1.08,0,0,0,.2-.16l2.1,3.64a1.21,1.21,0,0,0-.25.08l-12.86,7.43A.77.77,0,0,0,166.91,50.15Zm2.23-27.89,2.68,4.64a1.22,1.22,0,0,0-.24.1L152.05,38.27a1,1,0,0,0-.28.24l-2.69-4.66a1,1,0,0,0,.19-.08l19.66-11.35A1.28,1.28,0,0,0,169.14,22.26ZM154,41.58l19.53-11.27a1.75,1.75,0,0,0,.2-.16l2.64,4.57a1.17,1.17,0,0,0-.24.09L156.56,46.09a1.11,1.11,0,0,0-.28.23l-2.66-4.61A1.12,1.12,0,0,0,154,41.58Zm21.35-1.92-.45.26A1.62,1.62,0,0,1,175.31,39.66ZM171.58,51,182,45a.82.82,0,0,0,.2-.17L185,49.67a.81.81,0,0,0-.25.08l-10.37,6a.63.63,0,0,1-.86-.24l-2.13-3.68A.63.63,0,0,1,171.58,51Zm4.65,8,10.37-6a.66.66,0,0,0,.19-.18l2.81,4.87a.78.78,0,0,0-.24.09l-10.37,6a.64.64,0,0,1-.87-.23L176,59.87A.64.64,0,0,1,176.23,59Zm-42.6-34.23h-5.32a.86.86,0,0,0,0-.17V2a1.36,1.36,0,0,0,0-.3h5.37a1.36,1.36,0,0,0,0,.3V24.77Zm-40.92-23h5.65a.77.77,0,0,0-.06.3V14a.64.64,0,0,1-.64.63H93.41a.63.63,0,0,1-.63-.63V2A.78.78,0,0,0,92.71,1.74Zm9.29,0h5.65a.77.77,0,0,0-.06.3V14a.64.64,0,0,1-.64.63H102.7a.63.63,0,0,1-.63-.63V2A.78.78,0,0,0,102,1.74Zm.07,22.81V18.29a.63.63,0,0,1,.63-.63h7.92a.76.76,0,0,0,.76-.76V2a.77.77,0,0,0-.06-.3h4.22a.94.94,0,0,0-.05.3V24.6a.86.86,0,0,0,0,.17H102.07ZM115.51,5.19a1.84,1.84,0,0,1,0,.47V5.19Zm3.76-3.45h5.29a1,1,0,0,0,0,.3V24.6a.88.88,0,0,0,0,.17h-5.25a.86.86,0,0,0,0-.17V2A.94.94,0,0,0,119.27,1.74ZM57.53,22.41,77.19,33.76s0,0,.07,0l-2.67,4.62a.66.66,0,0,0-.18-.14L54.88,27l-.12,0,2.67-4.61A.39.39,0,0,0,57.53,22.41Zm3.95,38.72L61.23,61l-3.68-2.12-.17-.1-1.56-.9a.64.64,0,0,1-.23-.87l4-6.86a.75.75,0,0,0-.28-1L46.4,41.68l-.12,0L48.36,38l.1.08L68,49.39a.74.74,0,0,0,.21.09ZM39.76,52.92s.06.07.1.09l10.37,6a.62.62,0,0,1,.23.86l-2.13,3.68a.62.62,0,0,1-.86.23l-10.37-6-.12,0Zm2-3.18-.13,0,2.79-4.82.1.09,10.36,6a.64.64,0,0,1,.24.87L53,55.5a.64.64,0,0,1-.87.23Zm9.39-10.09a1.58,1.58,0,0,1,.46.27Zm18.94,6.58a1,1,0,0,0-.18-.15L50.37,34.81a.61.61,0,0,0-.12-.05l2.62-4.54a.7.7,0,0,0,.1.08L72.5,41.58a1.19,1.19,0,0,0,.22.08ZM57,87l2.71,4.69a1,1,0,0,0-.42.12L39.84,103.06l-2.65-4.58L56.8,87.16A2.09,2.09,0,0,0,57,87Zm-2.16,42.08,10.31-6a.64.64,0,0,1,.87.23L68.16,127a.62.62,0,0,1-.23.86l-10.31,5.95ZM50.22,121l10.31-6a.62.62,0,0,1,.86.23L63.52,119a.63.63,0,0,1-.23.86l-10.32,6ZM67,117.72a.63.63,0,0,1-.86-.24l-4-6.86a.76.76,0,0,0-1-.27l-12.81,7.39-2.06-3.56,19.48-11.24a.89.89,0,0,0,.31-.3l6.77,11.73-.13.06-.28.16-3.69,2.13-.17.1Zm-18.11-5.06a1.36,1.36,0,0,1,.46-.27Zm14.95-13L44.35,110.87l-2.6-4.5L61.23,95.12a.87.87,0,0,0,.31-.29l2.7,4.67A.89.89,0,0,0,63.83,99.63Zm69.8,54.48h-5.29V131.67a.72.72,0,0,0-.23-.59h5.61a1.11,1.11,0,0,0-.09.44Zm-9.11-22.44v22.44h-5.2V131.67a.72.72,0,0,0-.24-.59h5.67A.72.72,0,0,0,124.52,131.67Zm-9,0v22.44h-4.11V139.37a.76.76,0,0,0-.76-.76H102.7a.64.64,0,0,1-.63-.64v-6.58a1.37,1.37,0,0,0,0-.31h13.7A.72.72,0,0,0,115.49,131.67Zm-12.79,10H107a.64.64,0,0,1,.64.63v11.86h-5.52V142.25A.63.63,0,0,1,102.7,141.62Zm-4.4,12.49H92.78V142.25a.63.63,0,0,1,.63-.63h4.25a.64.64,0,0,1,.64.63Zm70.59-20.23-10.36-6a.63.63,0,0,1-.24-.86l2.13-3.68a.63.63,0,0,1,.86-.24l10.37,6,.07,0-2.78,4.8Zm.46-47a1,1,0,0,0,.31.25L189.32,98.5l.06,0-2.65,4.59-.06,0L167.14,91.81a.75.75,0,0,0-.56-.12Zm-4.5,7.79a.81.81,0,0,0,.38.43l19.53,11.27.07,0-2.61,4.52s0,0-.06,0L162.63,99.62a.76.76,0,0,0-.56-.12Zm12.73,18-.46-.26A1.54,1.54,0,0,1,177.58,112.65Zm-17.24-10.14a.76.76,0,0,0,.38.42l19.53,11.28.06,0-2.06,3.58-.06,0-12.86-7.43a.76.76,0,0,0-1,.28l-4,6.86a.63.63,0,0,1-.86.23l-1.56-.9-.18-.1-3.68-2.13-.28-.16a1.74,1.74,0,0,0-.25-.11Zm13.25,23.37s0,0-.05,0l-10.37-6a.64.64,0,0,1-.23-.87l2.13-3.68a.62.62,0,0,1,.86-.23l10.37,6s0,0,.06,0Zm17.69-30.65-.05,0L171.52,83.82a.94.94,0,0,0-.32-.13l1.63-2.82h-10l-22.27,38.57,5,8.69,6.13-10.61a1.29,1.29,0,0,0,.21.17l.29.16,3.68,2.13.82.47.91.53a.62.62,0,0,1,.23.86l-4,6.86a.77.77,0,0,0,.28,1L167,137.17l.06,0-9.77,16.92H137.45V131.47a.9.9,0,0,0-.08-.39h3.07l-5-8.7H90.88l-5,8.7H98.34a1,1,0,0,0,0,.31V138a.64.64,0,0,1-.64.64H89.74a.76.76,0,0,0-.76.76v14.74H69.32l-9.8-17,12.81-7.4a.75.75,0,0,0,.28-1l-4-6.86a.64.64,0,0,1,.23-.87l.91-.52.82-.48,3.68-2.12.29-.17.11-.08,6.08,10.52,5-8.69L63.52,80.87h-10l1.66,2.87-.21.08L35.28,95.17l-10-17.24L35.11,61l.09.09L48.07,68.5a.76.76,0,0,0,1-.27l4-6.86a.63.63,0,0,1,.86-.24l.92.53.82.47,3.68,2.13.24.14L53.48,75h10L85.79,36.41l-5-8.69L79.16,30.5a0,0,0,0,0,0,0L59.44,19.1l-.12-.05,10-17.31H89.05A.78.78,0,0,0,89,2V16.9a.76.76,0,0,0,.76.76h7.92a.64.64,0,0,1,.64.63v6.48H85.87l5,8.7h44.54l5-8.7h-3V2a1.36,1.36,0,0,0,0-.3h19.88l10,17.27a1.54,1.54,0,0,0-.24.1l-19.7,11.38-.13.09-1.65-2.86-5,8.69L162.79,75h10l-6.08-10.52.08,0,.28-.16,3.68-2.13.82-.47.92-.53a.63.63,0,0,1,.86.23l4,6.86a.76.76,0,0,0,1,.28l12.86-7.43a.55.55,0,0,0,.2-.17l9.83,17Z"/></g></svg>