<svg xmlns="http://www.w3.org/2000/svg" viewBox="0 0 226.6 226.6" fill="#4875FF"><g id="izayoi"><path d="M114.43,0A13,13,0,0,1,120,3.77q11.38,11.42,22.79,22.81c.77.78,1.45,1.66,2.17,2.49a5.92,5.92,0,0,1,1.54,5h6.22V45.28c.42-.2.67-.3.9-.43a6.71,6.71,0,0,1,7.62.45,17.45,17.45,0,0,1,2.24,2q11.93,11.92,23.82,23.89a19.85,19.85,0,0,1,2.29,2.8,4.92,4.92,0,0,1,.38,5.27A16,16,0,0,1,187.36,83c-4.54,4.66-9.17,9.24-13.79,13.83-.73.71-1.6,1.28-2.47,2,.21.23.45.51.72.78q7.69,7.7,15.39,15.4a16.14,16.14,0,0,1,1.67,1.94,6.61,6.61,0,0,1,.05,8.14A16.08,16.08,0,0,1,187,127.3q-11.88,11.91-23.77,23.79c-1.78,1.79-3.71,3.24-6.41,3.11a22,22,0,0,1-2.19-.33V164h-8.32c.42,3.51-1.63,5.7-3.81,7.87q-11.5,11.44-23,22.94a13.38,13.38,0,0,1-1.93,1.84,31.5,31.5,0,0,1-3.18,1.6h-2.56a12.5,12.5,0,0,1-3.22-1.71q-13.26-13.09-26.37-26.32a7.18,7.18,0,0,1-2.26-6,8.19,8.19,0,0,1,2.68-5c.79-.8,1.66-1.52,2.52-2.29l-3.57-4.5-3.47-4.38c-1.27,1.34-2.36,2.62-3.58,3.76-3.5,3.24-7.31,3.3-10.7,0-8.06-7.94-16-16-24-24A12.94,12.94,0,0,1,36,122.17v-2.35A13.45,13.45,0,0,1,40,114c3.88-3.82,7.7-7.7,11.57-11.53,1.13-1.12,2.37-2.13,3.78-3.39a5.13,5.13,0,0,1-.84-.58c-4.72-4.69-9.41-9.42-14.13-14.1-1.8-1.78-3.59-3.54-4.36-6V75.82c.78-2.49,2.53-4.28,4.32-6.07Q51.63,58.53,62.87,47.26c.58-.57,1.18-1.13,1.81-1.65A6.9,6.9,0,0,1,70.55,44a18.27,18.27,0,0,1,2.3.73V34.12h7.21c-.41-3.08,1.13-5.2,3.08-7.14.13-.12.26-.25.38-.38Q95,15.17,106.39,3.72A13,13,0,0,1,111.87,0Zm37.41,161.26V146.34c-1.53,0-3,0-4.43,0a1.61,1.61,0,0,1-1.06-.31c-1.37-1.48-2.68-3-4.06-4.59L160,124.15l-15.54-.8V108.9H129.1L138,98.85c-.52,0-.8-.06-1.08-.06q-23.49,0-47,0a2.14,2.14,0,0,0-1.42.67c-2.7,3-5.43,5.93-8,9.06a7.61,7.61,0,0,1-4.78,2.8c-2.28.43-4.52,1.09-6.89,1.67l.65.75c3,3.26,6.09,6.48,9.06,9.79,1.15,1.28,2.23,2.44,4.15,2.09,0,0,.06,0,.12.08v7.12H69.67c.32.43.49.66.67.88q10.53,13.31,21,26.62a2.17,2.17,0,0,0,2,.94q28.62,0,57.23,0ZM75.59,94.65H150V36.93H75.59Zm-2.28,2.7A15.81,15.81,0,0,0,71.77,95c-2.7-2.78-5.47-5.5-8.21-8.24s-5.25-5.23-7.84-7.86c-1.4-1.41-1.44-2.15-.08-3.53q5.93-6,11.93-11.93c1.32-1.3,2-1.25,3.38,0,.58.52,1.14,1.06,1.87,1.74,0-4.35,0-8.44,0-12.53a1.56,1.56,0,0,0-.4-.92,19.75,19.75,0,0,0-1.59-1.58C69.52,49,69,49,67.69,50.15c-.21.19-.41.39-.61.59Q55,62.82,42.92,74.9c-1.93,1.93-2,2.42,0,4.36Q57.58,94,72.32,108.7c.19.19.49.47.68.43,1.42-.31,3.06-.35,4.17-1.12,1.44-1,2.45-2.6,3.67-4-1.88-1.87-3.64-3.62-5.4-5.39C74.74,97.94,74.14,97.07,73.31,97.35Zm81.31,46.43c0,.86,0,1.71,0,2.56a1.71,1.71,0,0,0,.13.82c1,1.82,2.59,2.05,4.08.62l.61-.6,23.77-23.78c2.23-2.23,2.24-2.57,0-4.79L153.8,89.17c-.26-.26-.55-.5-1-1v9.26h-3.59l-.21.34a6.17,6.17,0,0,1,1,.67q10.09,10.07,20.16,20.15c.37.37.73.77,1.08,1.18a1.59,1.59,0,0,1,0,2.31q-6.45,6.53-13,13a1.6,1.6,0,0,1-2.32,0c-.54-.45-1-.94-1.71-1.53-2.09,2.26-4.15,4.5-6.23,6.77,1.53,1.71,3.09,4,6.3,3.32C154.33,143.65,154.4,143.7,154.62,143.78ZM98.86,34.14a2.12,2.12,0,0,1,.66-2.66c4-4,7.93-8,11.93-11.93,1.36-1.34,2.07-1.34,3.44,0q5.92,5.85,11.79,11.76c.76.76,1.46,1.57.83,2.82,4.29,0,8.34,0,12.4,0a1.34,1.34,0,0,0,1-.61,1.15,1.15,0,0,0-.11-1A9.75,9.75,0,0,0,139.47,31q-12.14-12.16-24.3-24.31c-1.66-1.66-2.33-1.66-4,0Q98.92,18.89,86.67,31.16a6,6,0,0,0-1.15,1.52.91.91,0,0,0,.74,1.45C90.42,34.15,94.57,34.14,98.86,34.14Zm-.1,130a.94.94,0,0,0-.24-.08,33.68,33.68,0,0,0-4.38,0c-2.39.31-4.21-.32-5.34-2.55a2.77,2.77,0,0,0-.37-.41l-2,2.09c-1.42,1.46-1.43,2.12,0,3.57q12.69,12.69,25.37,25.37a1.73,1.73,0,0,0,2.68,0l25.37-25.37a5.48,5.48,0,0,0,.81-1c.65-1.06.25-1.76-1-1.76H127.54a2.18,2.18,0,0,1-.68,2.58c-4,4-8,8.08-12.09,12.07-1.21,1.2-2,1.2-3.2,0-4.06-4-8.07-8-12.09-12.06A2.18,2.18,0,0,1,98.76,164.1Zm54.07-98.42.3.17c.4-.46.77-.93,1.19-1.37s.85-.85,1.31-1.25c1.11-.95,1.89-1,2.91,0q6.22,6.15,12.37,12.37c1.06,1.07,1,1.84,0,3-.27.32-.59.62-.89.92-2.35,2.38-4.74,4.72-7,7.14-1.05,1.09-1,1.76,0,2.87s2.17,2.25,3.27,3.36c1.33,1.32,2.29,1.31,3.65,0,3.7-3.69,7.41-7.38,11.09-11.1,1.45-1.47,2.83-3,4.3-4.61-.87-1-1.49-1.83-2.21-2.55q-11.86-11.91-23.77-23.78c-.35-.35-.73-.68-1.1-1a1.57,1.57,0,0,0-2.3,0,32.53,32.53,0,0,0-2.51,2.47,2.41,2.41,0,0,0-.61,1.47c-.05,3.7,0,7.4,0,11.1C152.77,65.14,152.81,65.41,152.83,65.68Zm-78,78.12c-.45-.58-.9-1.17-1.37-1.75-2.1-2.6-4.07-5.32-6.35-7.76-3.72-4-7.67-7.72-11.47-11.61-1.33-1.37-1.27-2.07.07-3.45,1.75-1.78,3.54-3.5,5.27-5.29q1.53-1.56,2.91-3.26A1.17,1.17,0,0,0,64,109.6c-1.56-1.74-3.15-3.46-4.84-5.06-.31-.29-1.19-.14-1.74,0a3.21,3.21,0,0,0-1.14.93q-6.66,6.63-13.29,13.28c-2,2-1.95,2.49,0,4.43L67,147.29c.31.3.61.61.94.88,1,.85,1.65.91,2.61,0C72,146.78,73.34,145.31,74.8,143.8Zm89.81-66.62L157,69.55c-4.23,3.55-4.23,3.55-4.23,9,0,.46,0,.93,0,1.39a1.19,1.19,0,0,0,.18.69c1.48,1.51,3,3,4.28,4.27Zm-95.16-7.7L61.9,77l7.82,7.82c.81-1,1.75-2.06,2.64-3.19a2,2,0,0,0,.44-1.11c0-2.3,0-4.61,0-6.92a1.49,1.49,0,0,0-.3-1C71.48,71.54,70.4,70.47,69.45,69.48Zm-.23,59,5.3-5.33-7.13-7.68L61.79,121Zm36.12,36.24,7.72,7.83c2.59-2.6,5.12-5.13,7.87-7.87a6.78,6.78,0,0,0-1.88-.62q-5.88-.09-11.74,0A7.12,7.12,0,0,0,105.34,164.69ZM121,33.53l-7.81-7.78-7.53,7.54a1.82,1.82,0,0,0,1.86.87c3.8,0,7.6,0,11.4,0A9,9,0,0,0,121,33.53Zm43.75,87.73-7.91-8-7.17,7.6c4.78.23,9.38.46,14,.66A3.68,3.68,0,0,0,164.71,121.26Zm-17.37-15v8.89c1.35-1.3,2.7-2.49,3.92-3.81,1-1.07,1-1.61,0-2.73s-2.2-2.31-3.37-3.4c-1.61-1.51-3.21-1.12-4.23,1ZM80.23,128.64l-1.79-1.13L76,130h4.21Zm61.93-30.28L135.33,106l.21.21L143,99.15Zm-55.67-.8c-1.51-.47-2.35.41-3.14,1.1l1,1.35Z"/><path d="M134,156.18c-.53,0-.84.06-1.15.06-5.48,0-11,0-16.44,0a1.94,1.94,0,0,1-1.66-.73c-1.12-1.32-2.31-2.59-3.63-4.05h9.42L114.75,145c-2.55,2.87-5.19,5.58-7.5,8.54a6.19,6.19,0,0,1-6,2.74,64.53,64.53,0,0,0-8.11,0,2.66,2.66,0,0,1-2.46-1.08c-.89-1.18-1.93-2.24-3.07-3.53H93c2,0,4,0,6,0a1.66,1.66,0,0,0,1.11-.42c3.32-3.66,6.6-7.36,9.89-11.05a1.45,1.45,0,0,0,.18-.34l-1.4-1.55c-1.63,1.83-3.21,3.6-4.78,5.38-1.27,1.44-2.51,2.91-3.83,4.3a2.24,2.24,0,0,1-1.41.68c-3.6.05-7.19,0-10.79,0a2,2,0,0,1-1.25-.56c-1.18-1.25-2.29-2.58-3.61-4.08h3.31c2.46,0,4.91,0,7.37,0A1.81,1.81,0,0,0,95,143.5c3.07-3.41,6.09-6.86,9.19-10.36l-1.45-1.7-4.22,4.72c-1.68,1.88-3.33,3.79-5,5.65a1.94,1.94,0,0,1-1.25.59c-2.7,0-5.41,0-8.11,0a1.56,1.56,0,0,1-1-.41c-1.25-1.31-2.45-2.67-3.8-4.16.45,0,.74-.07,1-.07,2.35,0,4.7,0,7,0a1.53,1.53,0,0,0,1-.37c2.83-3.14,5.63-6.31,8.58-9.64H87.12v-9.27a8.1,8.1,0,0,0-.88.94,2.77,2.77,0,0,1-2.51,1.21,3.41,3.41,0,0,1-3.16-1.47c-.88-1.17-1.92-2.24-2.89-3.36.15-.11.21-.19.25-.18,1.64.31,2.65-.53,3.65-1.73,2.7-3.22,5.51-6.34,8.31-9.47a1.92,1.92,0,0,1,1.22-.62q17.15,0,34.28,0a6.28,6.28,0,0,1,.63.06l-9,10.09H138.6v1.27c0,3.73,0,7.47,0,11.21,0,.81.24,1,1,1,2.35,0,4.7,0,7,0,.34,0,.69,0,1.27,0l-13.18,14c2.86,3.24,5.65,6.41,8.48,9.56a1.43,1.43,0,0,0,.92.36,17.3,17.3,0,0,0,1.78,0v4.83c-2.36,0-4.7,0-7,0a1.48,1.48,0,0,1-.84-.57q-12-13.51-24-27a2.19,2.19,0,0,0-2-.92c-1,.08-2,0-3.28,0Zm-22-47.43c-4.84,0-9.36.09-13.87,0a4.12,4.12,0,0,0-4,1.77,42.82,42.82,0,0,1-2.88,3.31,3.23,3.23,0,0,0,.47.14h15.14a1,1,0,0,0,.68-.22C109,112.15,110.36,110.56,112,108.75Zm17.63,26.87,8.62-7.87H122.58Zm-12.71-16.86v4.16h13.58v-4.16Zm-8.16,0H95.23v4.12h13.49Z"/><path d="M80.58,41.9H145V89.67H80.58Zm34.05,29.46V47.18h-3.72V71.36h-21V84.48h45.76V71.36ZM103,66.18v-19H89.94v19Zm19.61-19v19h13.06v-19Z"/></g></svg>