<svg xmlns="http://www.w3.org/2000/svg" viewBox="0 0 226.6 226.6" fill="#4875FF"><g id="kando"><path d="M131.4,168c-1.2-.41-2.42-.78-3.59-1.25a6.72,6.72,0,0,1-4-4.13c2.79-.69,5.59-1.29,8.35-2.08a22.91,22.91,0,0,0,10.55-5.88,8.66,8.66,0,0,0,.83-11.11,2,2,0,0,0-.32.11c-2.23,1.21-2.23,1.21-1.59,3.63a4.88,4.88,0,0,1-1.6,5.38c-4,3.48-8.76,5-13.79,6-1.48.29-3,.45-4.79.72,1.89-2.14,3.53-3.91,6.2-4.66a59.56,59.56,0,0,0,8.57-3.33c2.4-1.09,2.71-2.39,1.52-4.75-.44-.88-.93-1.75-1.48-2.77l18.45-11.06c.73,1,1.43,2,2.16,3,1.37,1.84,2.5,2.16,4.68,1.37a22,22,0,0,0,8.18-5.72,54.42,54.42,0,0,0,14.6-25.73c.71-3,1.26-6,0-9a.88.88,0,0,1,.19-.71c.56-.68,1.16-1.32,1.8-2a6.55,6.55,0,0,1,2,4.54,28.86,28.86,0,0,1-1.92,12.57c-3.31,8.92-8,17-15.05,23.49a29,29,0,0,1-8.57,5.63c-3.56,1.46-5.77,1-8.34-1.9l-.78-.9-2.53,1.5c1,3.09,4.83,5.21,8,5.31,3.62.13,6.71-1.32,9.61-3.24,5.1-3.39,9-8,12.58-12.89a57.52,57.52,0,0,0,10.25-23.78c.59-3.28.33-5.59-1.14-10.94a7.48,7.48,0,0,1,5.58,1.53c3.29,2.43,4.32,5.76,3.77,9.73-1.26,9-4.86,17.17-9.58,24.86a59.54,59.54,0,0,1-17.46,18.7,22.44,22.44,0,0,1-15.28,4.17,40.49,40.49,0,0,1-4-.81,6.11,6.11,0,0,0-.3.77c-1.46,6.1-5.51,10.09-10.82,12.89A63.47,63.47,0,0,1,135,168Z"/><path d="M26.76,66c.56-2.6,1-5.25,1.71-7.79,4.29-14.49,11.89-26.81,24-36.07,4.45-3.39,9.43-5.58,15.16-5.43a50.28,50.28,0,0,1,5.88.82c.09-.33.22-.78.35-1.23A18.32,18.32,0,0,1,81.4,5.9,37.39,37.39,0,0,1,91.73,1a10.26,10.26,0,0,1,11.11,4c.25.39.43.82.7,1.35-2.54.71-5,1.34-7.36,2.07C94,9,91.82,9.66,89.72,10.52a15,15,0,0,0-6.23,4.75,8.71,8.71,0,0,0-.18,10.41l2.61-1.55c-.17-.48-.31-.92-.46-1.36-1-2.85-.48-5.19,2-6.89A35.39,35.39,0,0,1,94,12.4a36.5,36.5,0,0,1,11.32-2.47c-1.77,2-3.21,3.8-5.78,4.45a28.7,28.7,0,0,0-9.68,4c-1.61,1.12-1.74,1.91-.93,3.7.48,1.05,1,2.07,1.62,3.27l-9.11,5.53c-3,1.83-6.11,3.63-9.29,5.52-.71-1-1.41-2-2.14-3-1.49-2-2.64-2.22-4.94-1.18-5.75,2.6-9.76,7.14-13.47,12A50.38,50.38,0,0,0,42.33,64.3a16.09,16.09,0,0,0,0,8,1.28,1.28,0,0,1-.27,1A22.19,22.19,0,0,1,40.2,74.9,5.35,5.35,0,0,1,38.52,71,30.68,30.68,0,0,1,41,56.52C44.47,47.78,49.33,40,56.45,33.71A28.15,28.15,0,0,1,63.78,29c3.66-1.6,6-1.1,8.66,1.89.24.27.49.52.78.83l2.56-1.56a9.63,9.63,0,0,0-11.42-4.87A24.87,24.87,0,0,0,53.68,31.7a61.8,61.8,0,0,0-17.9,30.73,22.3,22.3,0,0,0,.11,11.83c-3.84.6-8.31-2.86-8.89-6.8-.05-.35-.16-.68-.24-1Z"/><path d="M91.56,168l-2.23-.72a25.38,25.38,0,0,1-12.22-8.09,18,18,0,0,1-2.19-3.56,41.42,41.42,0,0,1-1.44-4c-.84.15-1.76.3-2.68.48-5.47,1.08-10.44-.27-15.16-3-6.59-3.85-11.66-9.28-16.09-15.38a67.85,67.85,0,0,1-11.71-25.13,16.55,16.55,0,0,1,.37-9.68,8.8,8.8,0,0,1,7.22-5.76,5.75,5.75,0,0,1,.93,0c-.41,2-.94,3.9-1.18,5.82-.57,4.57.64,8.88,2.14,13.13a60.11,60.11,0,0,0,19.21,27.7c3,2.43,6.4,4.26,10.4,4.45s6.78-1.88,8.95-5.18l-2.68-1.64c-.32.36-.62.68-.9,1-2.16,2.52-4.8,3.08-7.89,2a23.56,23.56,0,0,1-8.76-5.73c-8.37-8.07-14.25-17.6-16.76-29.05-.8-3.68-1-7.37.8-10.89.56-1.13.65-1.1,1.55-.19a3.08,3.08,0,0,1,.86,3.59c-.93,2.8-.23,5.63.5,8.38a51,51,0,0,0,20.27,29.34c3.91,2.78,5.71,2.3,8.27-1.78.27-.44.56-.88.91-1.43l18.48,11.08c-.64,1.3-1.26,2.46-1.79,3.66a2.22,2.22,0,0,0,.81,3.15,18.61,18.61,0,0,0,8.76,3.93c3.09.5,5.24,2.33,7,4.95-2.33-.45-4.67-.83-7-1.35a26.89,26.89,0,0,1-10.86-4.83c-2.38-1.88-3.13-4-2-6.75.5-1.28.28-1.9-.91-2.36a9.66,9.66,0,0,1-1.13-.64,8.55,8.55,0,0,0,.52,10.92,22.92,22.92,0,0,0,10.84,6.07c2.72.77,5.49,1.39,8.35,2.1a7.1,7.1,0,0,1-4.11,4.1c-1.17.49-2.4.84-3.6,1.25Z"/><path d="M34.37,84.37,113.54,5.19l79,79.26L113.5,163.5ZM113.42,15,43.59,84.87l69.74,69.31,69.61-69.62Z"/><path d="M151,30.16l2.58,1.56c.45-.48.88-.94,1.3-1.41a6.26,6.26,0,0,1,6.55-1.88,18.17,18.17,0,0,1,7.62,4.12c9.51,8.31,16.06,18.46,18.85,30.86.86,3.84,1,7.69-.89,11.35-.09.17-.19.33-.34.6-.7-.82-1.37-1.55-2-2.34a1.06,1.06,0,0,1-.2-.85c1.21-3.4.48-6.74-.4-10-3-11.22-9.31-20.32-18.23-27.65A19.7,19.7,0,0,0,161.44,32a3.33,3.33,0,0,0-4.45,1.2c-.79,1-1.46,2.09-2.27,3.27L136.26,25.35c.56-1.1,1.11-2.11,1.6-3.16.9-2,.71-2.67-1-4a18.21,18.21,0,0,0-8.27-3.59c-3.12-.46-5.16-2.29-6.82-4.94a72,72,0,0,1,7.51,1.58,82.34,82.34,0,0,1,8.51,3.45,9.5,9.5,0,0,1,2.35,1.83,5.06,5.06,0,0,1,1.43,5.58c-.19.64-.41,1.28-.64,2l2.46,1.49a8.48,8.48,0,0,0-.12-10.54,17.48,17.48,0,0,0-8.68-5.5c-3.72-1.07-7.46-2.06-11.2-3.08.57-4,5.32-7.39,9.42-6.27,5.31,1.44,10.36,3.55,14.6,7.22a18.21,18.21,0,0,1,5.58,9c.06.23.13.45.2.68a2.38,2.38,0,0,0,.17.21c1.17-.14,2.43-.27,3.68-.46a20,20,0,0,1,12.84,2.38c7.53,4.13,13.34,10.12,18.15,17.12,5,7.33,9.06,15.16,10.92,23.93a23.72,23.72,0,0,1,.7,6.63c-.25,3.44-2.32,5.77-5.6,6.94-1,.35-2,.64-3,1a2.26,2.26,0,0,1,0-.54c1.62-6.31.51-12.37-1.77-18.3-3.83-9.93-9.38-18.68-17.57-25.62A22.3,22.3,0,0,0,161.33,25,9.66,9.66,0,0,0,151,30.16Z"/><path d="M75.42,129.37l-3.48.9a25.09,25.09,0,0,0-3,.79,4.44,4.44,0,0,1-4.68-.84,45.7,45.7,0,0,1-9.57-10.82A42.34,42.34,0,0,1,48,104.76a13.74,13.74,0,0,1-.3-3.26c1.54,1.43,3.43,2.56,4.15,4.6a52.55,52.55,0,0,0,12.69,20A4.48,4.48,0,0,0,70,127.23C72.51,126.19,74.1,126.87,75.42,129.37Z"/><path d="M47.42,67.46c.5-1.95.88-3.94,1.51-5.86a50.7,50.7,0,0,1,14-21.54c2.33-2.15,4.85-2.84,7.9-1.52a36.57,36.57,0,0,0,5,1.35A23.39,23.39,0,0,1,73.49,42a2.56,2.56,0,0,1-1.67.37,12.89,12.89,0,0,1-3-.75,2.86,2.86,0,0,0-3.07.68,37.63,37.63,0,0,0-9.62,12c-1.41,2.73-2.64,5.55-3.9,8.35-1,2.15-2.8,3.48-4.31,5.12Z"/><path d="M178.84,67.69c-1.5-1.75-3.42-3.07-4.25-5.46a50.87,50.87,0,0,0-12.1-18.92c-1.81-1.85-3.55-2.4-6-1.33-2.24,1-4,.17-5.1-2.26l5.22-1.33C161,37.3,160.07,37,163.54,40a46.94,46.94,0,0,1,15.23,24.41c.25,1,.33,2.08.49,3.12Z"/><path d="M150.93,129.21a33.46,33.46,0,0,1,2.56-2.19,2.1,2.1,0,0,1,1.45-.23,21.09,21.09,0,0,1,3.13.79,2.65,2.65,0,0,0,2.75-.54A40.23,40.23,0,0,0,171,114.46a72.12,72.12,0,0,0,3.24-7.17c1-2.39,2.86-3.87,5-5.72-.19,1.15-.27,2-.48,2.79a49.93,49.93,0,0,1-15.35,25,6.35,6.35,0,0,1-7.19,1.29A44.35,44.35,0,0,0,150.93,129.21Z"/><path d="M113.53,21.23l63,63L113.4,147.65,50.25,84.51Q81.75,53,113.53,21.23ZM67.12,97.55c2.58,2.51,5,4.76,7.26,7.08A1.84,1.84,0,0,0,77,105c2.29-1.38,4.63-2.69,7-4a9,9,0,0,1,1.46-.51l.23.46c-2.74,2.12-6,3.52-8.73,5.39l7,7a49.76,49.76,0,0,1,6.86-6.25,2.67,2.67,0,0,1-.68,1.53c-1.84,1.89-3.72,3.73-5.41,5.41l7,7c.82-1.41,1.66-3,2.59-4.44s1.55-3.15,3-4.26a2.34,2.34,0,0,1-.22,1.44c-1.36,2.45-2.72,4.89-4.16,7.29a1.21,1.21,0,0,0,.21,1.81c1.89,1.78,3.7,3.65,5.53,5.5.58.59,1.1,1.24,1.81,2.05.23-.77.36-1.14.46-1.51,1-3.86,2.06-7.71,3.13-11.56a11.67,11.67,0,0,1,.77-1.74l.41.12a10.77,10.77,0,0,1-.18,1.8q-1.65,6.26-3.37,12.49a2.29,2.29,0,0,0,.59,2.5c2.41,2.34,4.77,4.73,7.16,7.1.33.32.7.61,1.17,1,.72-2.76,1.52-5.31,2-7.92a29,29,0,0,0,.26-5.37c0-5.87,0-11.75,0-17.63a5.79,5.79,0,0,1,.28-1.27l.43,0a5.76,5.76,0,0,1,.38,1.48c0,6,.1,12-.16,18-.2,4.44,1.39,8.43,2.37,12.76.38-.34.65-.56.9-.8,2.4-2.4,4.78-4.83,7.23-7.19a2.55,2.55,0,0,0,.7-2.81c-1.15-4.19-2.26-8.4-3.36-12.61a7.8,7.8,0,0,1-.08-1.61l.53-.08c1.65,4.87,2.67,9.94,4.25,15,2.5-2.5,4.84-4.89,7.24-7.22a1.61,1.61,0,0,0,.29-2.31c-1.47-2.47-2.87-5-4.28-7.49a5.84,5.84,0,0,1-.35-1.19l.49-.23c2.1,2.81,3.55,6,5.6,9.11l6.46-6.93c-1.59-1.79-3.32-3.73-5-5.69a8.19,8.19,0,0,1-.77-1.23l.42-.33c2.47,1.84,4.27,4.43,6.27,6.16l7.33-6.88c-2.57-1.52-5.09-3-7.59-4.49a9,9,0,0,1-1.23-1.09l.21-.29c.87.37,1.77.67,2.59,1.12q3,1.68,6,3.47a1.47,1.47,0,0,0,2.1-.27c2.07-2.12,4.18-4.19,6.27-6.29.3-.31.55-.66.9-1.08l-4.86-1.37,0-.48a3.28,3.28,0,0,1,1.21-.27c1.17.23,2.31.67,3.49.84a2.56,2.56,0,0,0,1.89-.37c2.87-2.69,5.66-5.48,8.5-8.27a1.6,1.6,0,0,0-.55-.34c-3.35-.71-6.67-1.62-10.06-2-2.88-.35-5.83-.1-8.74-.17a4.34,4.34,0,0,1-1.34-.51L149,84c6.86,0,13.8.56,20.55-2.49-2.93-2.89-5.7-5.66-8.53-8.35a2.09,2.09,0,0,0-1.63-.36c-1.25.23-2.47.65-3.7,1l-4.24,1.11-.23-.44a7.13,7.13,0,0,1,1.6-1c2.16-.65,4.35-1.18,6.72-1.81-2.42-2.41-4.69-4.66-6.94-6.93-1.34-1.35-1.36-1.37-3-.4-2.31,1.34-4.63,2.68-7,4-.26.15-.67,0-1,0,.16-.29.25-.71.5-.86,2.05-1.25,4.13-2.44,6.2-3.65.63-.37,1.25-.78,1.57-1L143,55.5c-2.42,2.18-4.26,4.75-6.91,6.81,0-.48-.14-.7-.07-.78,2-2.24,4.07-4.46,5.92-6.47l-6.85-6.9c-1.48,2.52-3,5.07-4.49,7.6a7.3,7.3,0,0,1-1,1.09l-.34-.23a10.4,10.4,0,0,1,.55-1.51q2-3.55,4.06-7.06a1.66,1.66,0,0,0-.26-2.35c-2.09-2-4.14-4.11-6.23-6.16a13.4,13.4,0,0,0-1.09-.86c-1.52,5.1-2.55,10.15-4.47,15a2.65,2.65,0,0,1-.24-1.67c1.12-4.25,2.24-8.49,3.44-12.72a2.55,2.55,0,0,0-.76-2.88c-2.5-2.42-4.91-4.94-7.35-7.41-.21-.21-.46-.39-.64-.54A37.92,37.92,0,0,0,113.82,44c.16,5,.14,10,.17,15a10.2,10.2,0,0,1-.27,1.64l-.48,0a6.81,6.81,0,0,1-.35-1.45c-.08-7.27,0-14.55-.28-21.82-.13-3-1.18-5.89-1.87-9.11-.61.57-.9.83-1.17,1.11-2.37,2.38-4.71,4.79-7.12,7.14a2.36,2.36,0,0,0-.68,2.58c1.16,4.2,2.27,8.4,3.37,12.62a11.27,11.27,0,0,1,.21,1.84l-.43.11a8.13,8.13,0,0,1-.7-1.42c-1.12-4-2.19-8.09-3.29-12.14-.13-.47-.33-.93-.55-1.55-2.48,2.48-4.8,4.85-7.17,7.16a1.61,1.61,0,0,0-.3,2.31c1.39,2.33,2.73,4.69,4.06,7.06a10.16,10.16,0,0,1,.55,1.58l-.45.23c-2.14-2.78-3.56-6-5.47-8.87-2.32,2.31-4.61,4.58-7,6.94,1.75,1.79,3.6,3.66,5.42,5.56a8.94,8.94,0,0,1,.86,1.28l-.42.37c-2.45-2-4.44-4.45-6.62-6.29l-7,7,7.46,4.38-.09.43a4.9,4.9,0,0,1-1.61-.24c-2.28-1.23-4.52-2.54-6.91-3.91l-7.92,8.3,1.41.4c3.55,1,7.09,1.91,10.65,2.84.72.19,1.13.4.53,1.2l-1.26-.31c-3.82-1-7.63-2.07-11.47-3a2.27,2.27,0,0,0-1.85.27c-2.78,2.83-5.46,5.76-8.18,8.66,0-.1.39.06.76.2,4.88,1.85,10,2.14,15.11,2,.67,0,1.09,0,1.07.75-2.92.19-5.85.22-8.73.6s-5.76,1.11-8.64,1.69a2.48,2.48,0,0,0,.1.41c2.83,2.83,5.63,5.68,8.5,8.47a2,2,0,0,0,1.51.34,39.83,39.83,0,0,0,4.16-1.11c.75-.23,1.12,0,1.31.78Z"/><path d="M142.21,75.58c1.66.38,3.35.66,5,1.16,1.28.39,1.41,1,1,2.21-.32.89-.5,1.84-.77,2.75a10.5,10.5,0,0,1-.54,1.58c-.81,1.83-1.55,2.21-3.49,1.76a23.49,23.49,0,0,0-9.52-.14,5.94,5.94,0,0,0-.7.17c-1.73.57-2.43.24-2.89-1.49s-.93-3.72-1.35-5.58c-.22-1,.3-1.62,1.47-1.73,1.55-.14,3.11-.19,4.66-.27.32,0,.7.09.95,0a5.46,5.46,0,0,0,1-.83c-.34-.26-.69-.75-1-.73-1.47.11-2.93.34-4.39.56-.59.09-1.17.26-1.76.38-.78.15-1.52,0-1.78-.8a1.6,1.6,0,0,1,.82-2.05,6,6,0,0,1,2.06-.5c1.56-.11,3.12-.14,4.67-.14.92,0,1.32-.38,1.3-1.29s0-1.73,1.26-1.76a1.52,1.52,0,0,1,1.76,1.65c0,1.18.63,1.4,1.61,1.39,2.16,0,4.32,0,6.47,0a5.38,5.38,0,0,1,1.66.66c-.31.51-.51,1.24-1,1.48a5.5,5.5,0,0,1-2.45.6c-1.71,0-3.43-.2-5.14-.29-.58,0-1.34-.13-1.31.78s.79.8,1.43.77c.32,0,.64,0,1,0Zm-7.25,5v-.35c-.07-1.56-.43-1.86-1.85-1.8s-1.21,1-1.07,1.94a4.53,4.53,0,0,0,.29,1.39,1.46,1.46,0,0,0,.9.68C134.57,82.62,135,82.15,135,80.59Zm7.26.39-.23.25c.41.42.76,1,1.26,1.21.79.33,1.28-.19,1.46-1s.27-1.25.36-1.88c.13-.85-.31-1.25-1.13-1.33a1.23,1.23,0,0,0-1.49,1C142.33,79.86,142.29,80.43,142.22,81Zm-4.75-1.12a4.66,4.66,0,0,0,.14,1.28,7.8,7.8,0,0,0,.87,1.2c.38-.36.93-.66,1.12-1.12a4.5,4.5,0,0,0,.18-1.77,1.09,1.09,0,0,0-1.79-.87C137.62,78.92,137.56,79.61,137.47,79.86Z"/><path d="M94,87.3v9.34a4.26,4.26,0,0,1-.07,1c-.23.91-.87,1.64-1.76,1.39a2.22,2.22,0,0,1-1.23-1.61,40.57,40.57,0,0,1-.06-4.55c0-4.31,0-8.62,0-12.94a1.5,1.5,0,0,0-1.55-1.73,36.3,36.3,0,0,0-4,0c-1.19.07-2.25-.43-2.37-1.3-.14-1,.65-1.9,2-2a22.94,22.94,0,0,1,3,.28c1.27.12,2.54.27,3.81.31,2.23.08,2.83.72,2.69,2.94-.18,3-.33,5.89-.5,8.84Z"/><path d="M95.78,82c0-1,.49-1.58,1.42-1.39,2.39.48,4-.87,5.68-2.17a1.7,1.7,0,0,1,2.36-.15,1.76,1.76,0,0,1,.69,2.49,2.37,2.37,0,0,1-1.27.94c-1.41.41-2.87.7-4.3,1-1.22.29-1.45.69-1,1.87a8.4,8.4,0,0,0,4,4.27c2.21,1.08,4.57,1.83,6.85,2.76a9.08,9.08,0,0,1,1.44.85c-.37.49-.65,1.14-1.14,1.41a11.45,11.45,0,0,1-2.88,1.11,2.7,2.7,0,0,1-1.84-.23c-4.36-2.63-8.07-5.87-9.7-10.94A16.65,16.65,0,0,1,95.78,82Z"/><path d="M119.11,82.48c-.15,0-.61.13-1.09.18s-1.3.28-1.76,0a4.21,4.21,0,0,1-1.68-1.64c-.1-.18.72-1.16,1.27-1.36a6,6,0,0,1,2.67-.26c1.62.19,3.23.56,4.83.89,1.34.29,1.59.78,1.4,2.1-.23,1.74-.31,3.51-.54,5.24-.63,4.66-3.36,8-6.84,10.88-.7.57-1.6,1.28-2.52.23-.7-.79-.47-1.85.49-2.88,1.4-1.48,2.85-2.92,4.12-4.5A9.69,9.69,0,0,0,121.88,86a7.6,7.6,0,0,0,0-1.43C121.63,82.85,121.16,82.46,119.11,82.48Z"/><path d="M80.3,84.16c-.84,0-1.68,0-2.52,0-1,0-1.47-.75-1-1.7a2.84,2.84,0,0,1,3-1.57c2.12.38,4.24.76,6.35,1.16,1.87.36,2.43,1.33,1.67,3.08a18.52,18.52,0,0,1-9.24,9.61c-1.15.55-2.44.92-3.47-.09a3,3,0,0,1-.79-2.06c0-.33,1-.81,1.56-.91a11.21,11.21,0,0,0,8.44-5.82c.65-1.16.47-1.48-.83-1.6-1-.09-2.08,0-3.11,0Z"/><path d="M138.37,93.58c4.23,2.09,8.46,3.15,12.79.19.37-.26,1-.14,1.52-.2a6.87,6.87,0,0,1-.4,1.38,6.21,6.21,0,0,1-1,1.21c-3,3.28-5.45,3.87-9.53,2.08A64.53,64.53,0,0,1,136,95.11c-1.53-.87-2.28-.73-3.33.71-.44.61-.94,1.55-1.73,1.08s-.27-1.48.09-2.22c.46-.93,1-1.84,1.37-2.79.6-1.37,1.67-1.59,2.86-.62,1,.82,2.09,1.57,3.13,2.34Z"/><path d="M138.4,93.61a6.3,6.3,0,0,1,0-1.73c.31-1.22.76-2.4,1.21-3.75-1.12,0-2.4-.09-3.67,0-1.5.14-3,.51-4.49.69a2.86,2.86,0,0,1-1.59-.24,1.12,1.12,0,0,1,0-2,5.1,5.1,0,0,1,2.27-.61c4.84.06,9.67.2,14.5.34.76,0,1.61.1,1.53,1.21a1.6,1.6,0,0,1-2,1.47c-1.26-.16-2.52-.39-3.79-.58-.47-.07-.94-.09-1.56-.15.35.48.78.83.85,1.23.11.61.21,1.52-.13,1.84a26.7,26.7,0,0,1-3.17,2.26Z"/><path d="M95.18,72.32c-3.21.17-6.41.4-9.63.49-.62,0-1.74-.38-1.78-.7a2.68,2.68,0,0,1,.7-2,3.41,3.41,0,0,1,2.18-.65c2.83.09,5.65.33,8.47.51.32,0,.64,0,1,0,.76.1,1.58.15,1.51,1.26s-.72,1.44-1.67,1.5H95.2Z"/><path d="M124,74.73c-1.09-.28-1.92-.56-2.78-.71-1.13-.21-2.28-.29-3.42-.48a1.44,1.44,0,0,1-1-2.44,2.49,2.49,0,0,1,2.93-1,48.89,48.89,0,0,1,4.46,2.24,1.92,1.92,0,0,1,.67,1.44C124.83,74.12,124.26,74.46,124,74.73Z"/><path d="M130.68,91.69c-.19.59-.2,1-.4,1.18-1.37,1.47-2.76,2.92-4.2,4.32-.21.2-.73.09-1.11.12,0-.36-.19-.78-.06-1.07.77-1.7,1.56-3.39,2.44-5a1.58,1.58,0,0,1,2.09-.89C130,90.6,130.33,91.28,130.68,91.69Z"/><path d="M147.94,91.29c-.32.64-.41,1.08-.68,1.32a26.21,26.21,0,0,1-2.66,2c-.27.18-.74.06-1.12.08a4.16,4.16,0,0,1,.05-1.23c.32-.9.72-1.76,1.12-2.62.3-.64.61-1.57,1.47-1.2C146.83,90,147.34,90.73,147.94,91.29Z"/></g></svg>