<svg xmlns="http://www.w3.org/2000/svg" viewBox="0 0 226.6 226.6" fill="#4875FF"><g id="kangetsu"><path d="M145.44,105.32c1.35.14,2.65.25,3.94.42a.74.74,0,0,0,.93-.5,5.65,5.65,0,0,0,.34-1.33c.06-.7,0-1.4,0-2.15l-7.25-.62v13.74l-6.95-1v-13.3l-13.94-1.18V81.88h13.89V79l-14.08.27V71.62l35.31-2.09v.59c0,4.72.06,9.44,0,14.15a7.08,7.08,0,0,1-2.53,5.59,2,2,0,0,1-1.41.49c-3.18-.13-6.37-.22-9.56-.33h-.69v2.62l14.31.65v.59c0,4.86,0,9.71-.05,14.57a11.56,11.56,0,0,1-2,6.11,2.94,2.94,0,0,1-1.4,1,7.15,7.15,0,0,1-3.76.13c-1.57-.27-3.15-.49-4.73-.71-.27,0-.38-.12-.38-.41q0-4.47,0-9A2.42,2.42,0,0,1,145.44,105.32Zm5.21-26.44h-4.16c-.87,0-1.75,0-2.62,0-.16,0-.43.17-.44.27,0,.87,0,1.74,0,2.6h7.24ZM136.42,92.4V89.85l-7.33-.24v2.45Z"/><path d="M154.49,118.83l.59-.12a5.58,5.58,0,0,0,4.21-3.41,17.59,17.59,0,0,0,1.78-7.59c-.06-5,0-10,0-15v-.58l28.77,1.12c-.44.93-.85,1.78-1.27,2.63l.09,0c.51-.78,1-1.57,1.55-2.33a.73.73,0,0,1,.51-.29c1.68,0,3.36.11,5.14.18a55.43,55.43,0,0,1-14.25,18.65c.1-.06.21-.11.31-.18A59.09,59.09,0,0,0,198.5,94a.63.63,0,0,1,.69-.37c.63.05,1.27.06,1.9.08a.79.79,0,0,0,.15,0c0-1,0-2.1,0-3.15A7.94,7.94,0,0,1,201.9,87a47.57,47.57,0,0,0,3.45-17.35c0-1.92-.13-3.83-.19-5.75a.69.69,0,0,1,0-.25,61,61,0,0,1,1.17,13.07A42.87,42.87,0,0,1,201.9,95,58.57,58.57,0,0,1,192,108.9a79.89,79.89,0,0,1-21.36,15.8c-.48.26-1,.51-1.46.76a10.72,10.72,0,0,0-1.44.8,2.19,2.19,0,0,0,.34-.1A91.63,91.63,0,0,0,191,113.25a61.42,61.42,0,0,0,15.13-16.87,48.51,48.51,0,0,0,3.58-7.4,1.25,1.25,0,0,1,.29-.49c-.06.18-.12.37-.19.56a60,60,0,0,1-11.57,19.46,80.28,80.28,0,0,1-23.5,18.28,95,95,0,0,1-15.1,6.32l-.45.14Z"/><path d="M107.12,112.05v-5.41c-.37.52-.69,1.06-1.09,1.53a4.35,4.35,0,0,1-3,1.19l-8.93,1.13a1.76,1.76,0,0,1-.23,0V65l14.29,1.19v36.88c1,.17,1.46-.06,1.72-.94a5.32,5.32,0,0,0,.24-1.47q0-18.37,0-36.76v-.47l-17-1.67V51.63l25,3.62v8.93l-1-.07c0,.25,0,.48,0,.71v39.34a11.17,11.17,0,0,1-.58,3.89,8.89,8.89,0,0,1-.9,1.73,3.4,3.4,0,0,1-2.41,1.51c-1.9.27-3.8.51-5.71.76C107.37,112.06,107.28,112.05,107.12,112.05ZM99.54,75.34V98.86l2.47-.19V75.34Z"/><path d="M53.21,96a3.8,3.8,0,0,0,.49-1,26.49,26.49,0,0,0,.37-2.8c.15-1.81.25-3.62.38-5.52H58c-.05,1-.09,2.1-.15,3.17-.2,3.54-.39,7.08-.6,10.63a12.12,12.12,0,0,1-1,4.28,2.48,2.48,0,0,1-2,1.39c-.41.07-.84.09-1.29.14v2.37l5-.48V119.8l-16.41,2.4V109.86L44,109.6c.79-.08,1.57-.13,2.36-.23.14,0,.38-.2.39-.32,0-.69,0-1.39,0-2.16a9.39,9.39,0,0,0-1,.09,1.75,1.75,0,0,1-1.59-.52,4.49,4.49,0,0,1-1.43-3c-.22-2.36-.45-4.71-.6-7.07-.19-3-.3-6-.44-9,0-.12,0-.23,0-.43,1.08,0,2.14,0,3.19,0,.14,0,.34.37.36.57.11,1.32.17,2.64.27,4s.17,2.43.32,3.64a2.13,2.13,0,0,0,.92,1.67V85H42.06V74.22h4.65c0-.85,0-1.72,0-2.58,0-.09-.26-.24-.41-.24-1-.06-2-.09-3.08-.14a4.68,4.68,0,0,1-.6-.06v-5L41.52,66V56.09a.74.74,0,0,1,.29-.63,2.46,2.46,0,0,0,.72-1.09c.43-1.55.81-3.11,1.14-4.69s.54-3,.83-4.55c.14-.68.23-.7.92-.6,3,.45,6.1.9,9.16,1.33a.66.66,0,0,1,.64.65q.6,4.1,1.25,8.18a3.35,3.35,0,0,0,1.07,2.22.54.54,0,0,1,.12.36c0,3.21,0,6.42,0,9.63a.45.45,0,0,1,0,.13h-.93v4.74H53V74.5l4.45.16V84.88H53V95.94ZM51.53,62c-.21-1.5-.41-2.94-.65-4.36a.76.76,0,0,0-.49-.45,4.2,4.2,0,0,0-1.17-.12c-.18,0-.47.15-.5.28-.34,1.33-.63,2.66-.91,4a.45.45,0,0,0,.24.35C49.19,61.85,50.33,61.93,51.53,62Z"/><path d="M61.92,157.92q.77-2.34,1.52-4.68,5.2-16,10.39-32a.7.7,0,0,1,.67-.55c1-.13,2.07-.32,3.18-.5L70,143.8l.1.06.38-.51q10.56-14.55,21.13-29.1a1.35,1.35,0,0,1,1-.63c1.12-.13,2.23-.3,3.48-.47L71.82,146.62l0,.06.4-.25q19.55-14.2,39.09-28.39a.89.89,0,0,0,.42-.85c0-1,0-2,0-2.94l3-.61c0,1.15,0,2.31,0,3.47a1.12,1.12,0,0,0,.55,1q18.89,13.7,37.76,27.42a1.26,1.26,0,0,0,.58.28l-23-31.62,2.34-2a3.93,3.93,0,0,1,.15.68c0,1,0,2.09,0,3.17.85.14,1.65.29,2.46.4a1.07,1.07,0,0,1,.78.49q7,9.6,13.94,19.19l6.14,8.46a1,1,0,0,0,.4.36c-2.89-8.87-5.77-17.74-8.68-26.7l.77.1c.81.12,1.62.28,2.44.38a.64.64,0,0,1,.63.53q1.77,5.5,3.56,11,4.42,13.6,8.84,27.22c0,.12.08.25.15.5l-.64-.45q-25.08-18.23-50.15-36.45a.75.75,0,0,0-1.09,0q-25.12,18.28-50.27,36.54L62,158Z"/><path d="M64.69,83v.54q0,11,0,22a9,9,0,0,0,.22,1.94c.22,1,.7,1.25,1.69,1.15.37,0,.74-.1,1.15-.16v9.77l-4.37.65a3.47,3.47,0,0,1-3.7-2.35A27.06,27.06,0,0,1,59,112.3c-.15-1.5-.14-3-.14-4.53q0-30.42,0-60.85v-.76l19,2.78v.56q0,12.31,0,24.61a16.22,16.22,0,0,1-1,5.8A4.58,4.58,0,0,1,72.2,83H64.69Zm0-26.65V61l7,.63c0-1.46,0-2.85,0-4.23,0-.11-.22-.29-.35-.31C69.13,56.84,67,56.61,64.71,56.37Zm0,18.2,6.94.24v-4.5l-6.94-.37Z"/><path d="M179.42,57.87h-18V48L153,49.3V46.74l-3.71.59-5.38.88a4.51,4.51,0,0,0-3.54,2.51A.6.6,0,0,1,140,51c-1.57.26-3.15.49-4.78.74V49.62l-3.05.48c-2.26-6.93-4.5-13.84-6.78-20.84a110.44,110.44,0,0,1,22.37,9.33c-.07-.05-.13-.12-.19-.17l-.25-.18a86.08,86.08,0,0,0-21.82-11.12c-.66-.23-1.09-.52-1.21-1.24a10.45,10.45,0,0,0-.4-1.26c1.3.36,2.51.69,3.72,1.05a96.27,96.27,0,0,1,25,11.25A70.73,70.73,0,0,1,167.2,49.26c.09.11.15.25.23.37l.17-.14c-.33-.57-.64-1.15-1-1.72A44.21,44.21,0,0,0,155.1,35.44a83.14,83.14,0,0,0-19.26-10.5c-4.13-1.66-8.33-3.05-12.59-4.3-.77-.22-.77-.22-1-1.11.72.17,1.41.32,2.1.5A114.11,114.11,0,0,1,147,28.3a83.76,83.76,0,0,1,20.82,14.31A57.86,57.86,0,0,1,179.14,57.3Z"/><path d="M147.39,148.85a109,109,0,0,1-58.33-7.4l24.17-17.56q12.12,8.79,24.18,17.57a101.93,101.93,0,0,1-12.23.14c1.33.18,2.66.41,4,.51,3.21.23,6.43.39,9.64.58a.86.86,0,0,1,.43.12c.94.66,1.86,1.33,2.92,2.1a119,119,0,0,1-41-3c1.38.44,2.75.9,4.14,1.32a103,103,0,0,0,17.81,3.63,103.85,103.85,0,0,0,12.46.81c3.26,0,6.51-.11,9.77-.15a1.23,1.23,0,0,1,.65.19c.47.3.92.65,1.37,1Z"/><path d="M140.44,61.75l-1.3.17a.74.74,0,0,0,.7.79.91.91,0,0,0,1.18-.83q1.13-5,2.22-10a.88.88,0,0,1,.87-.81c1.82-.24,3.63-.53,5.5-.8v2.53l8.46-1.15c0,.21,0,.38,0,.55,0,2.47,0,4.94,0,7.41,0,.5-.15.68-.63.65a1.66,1.66,0,0,0-.49.07c.07.73.17.81,1.08.86v7.35c-.5,0-1,.09-1.52.12-1.18.08-2.36.17-3.54.2a1.12,1.12,0,0,1-.74-.3,7.33,7.33,0,0,1-1.81-4c-.18-1-.39-2-.57-3-.07-.41-.26-.59-.69-.56-1.44.1-1.38-.2-1.8,1.45-.31,1.23-.52,2.48-.86,3.7a9.57,9.57,0,0,1-.86,2,2,2,0,0,1-1.77,1.06c-2.6.17-5.2.35-7.79.58a2,2,0,0,1-2-1,9.48,9.48,0,0,1-1.31-3.27c-.19-.82-.41-1.63-.59-2.45-.09-.38-.26-.56-.67-.52-1.88.17-1.49-.16-1.91,1.58-.28,1.14-.48,2.32-.83,3.44a6.49,6.49,0,0,1-1,1.84,2.15,2.15,0,0,1-1.72.9l-4.39.28v-7c.46,0,.91-.12,1.37-.13a.81.81,0,0,0,.86-.76c.57-2.7,1.17-5.39,1.75-8.09.2-.9.2-.9,1.12-1,1.49-.21,3-.44,4.47-.66.15,0,.31,0,.52-.06v2.11l8.58-1.18Z"/><path d="M161.91,89V77.09l36-.93V89.93Z"/><path d="M113.23,0l16.41,50.51-3.32.54L114.85,15.76h-.08V52.08l-3-.47v-36l-.1,0L100.54,49.83l-3.33-.52Z"/><path d="M81.19,46.6c-.18-.12-.35-.32-.55-.35-5.28-.87-10.56-1.71-15.84-2.56l-2.13-.35a117,117,0,0,1,15.89-4.62c-1,.09-2,.15-3,.25a80.81,80.81,0,0,0-16.14,3.28,6.87,6.87,0,0,1-3.37,0,2.92,2.92,0,0,0-.71.08v.15L53,42.13a101.38,101.38,0,0,1,46.71-8.72l-5,15.49c-4.54-.59-9-1.81-13.53-2.18Z"/><path d="M38.12,95.67c-.23,1-.5,1.94-.7,2.92a36.56,36.56,0,0,0,.67,17.3,3.17,3.17,0,0,1,.11.86c0,1.68,0,3.36-.05,5a47.44,47.44,0,0,1-5.48-21.31A44.68,44.68,0,0,1,38,79c-1.34,1.29-4.87,7.79-6.3,11.57a45,45,0,0,0-2.82,12.86A42.84,42.84,0,0,0,30,116.49a51.88,51.88,0,0,0,4.78,12.22c-.07-.1-.15-.18-.21-.28a55.64,55.64,0,0,1-7.42-19.69A46.22,46.22,0,0,1,34.06,75.2c1.16-1.81,2.55-3.47,3.82-5.22.31-.43.58-.54,1-.14a6.7,6.7,0,0,0,.54.46l-.71.08V71q0,5.79,0,11.59a2.9,2.9,0,0,1-.24.76,2.76,2.76,0,0,0-.06.4A86.05,86.05,0,0,0,38.6,94c.14,2.56.25,5.13.46,7.7.13,1.51.42,3,.65,4.59l-1.42.13c-.12-1.82-.32-3.6-.33-5.39s.14-3.58.23-5.37Z"/><path d="M77.86,117c-1.55.22-3,.46-4.54.65a3.47,3.47,0,0,1-3.71-2.07,18.79,18.79,0,0,1-1.42-5.76c-.45-3.83-.93-7.66-1.39-11.49-.47-4-.92-8-1.41-12-.06-.5.09-.61.57-.61,1.56,0,3.12,0,4.68,0,.55,0,.75.19.83.72.33,2.44.7,4.88,1.06,7.32,0,.16.06.3.13.62.24-.28.5-.45.58-.68a10.65,10.65,0,0,0,.47-2c.16-1.5.24-3,.34-4.51,0-.67.12-.75.8-.79,1,0,2.05-.07,3.08-.13.45,0,.45.25.43.57l-.3,4c-.16,2.14-.25,4.28-.52,6.4a28.3,28.3,0,0,1-.94,4,2.8,2.8,0,0,1-2.57,2c-.42.06-.51.21-.43.6.14.67.2,1.35.35,2a1.83,1.83,0,0,0,2.2,1.63l1.71-.17Z"/><path d="M161,73V71.61c.46,0,.47-.33.46-.7,0-1.18,0-1.17,1.13-1.54L179.22,64a.64.64,0,0,0,.35-.24H161.46V60.42h34.76c-.12.11-.2.2-.29.27q-8.52,6.18-17,12.36a.91.91,0,0,1-.45.2c-1.78.08-3.56.14-5.34.21l-.37,0L183,66l0-.08Z"/><path d="M81.73,116.26v-9.73a3.58,3.58,0,0,1,.53-.06,1.4,1.4,0,0,0,1.5-1.2,16.06,16.06,0,0,0,.47-2.47q.66-6.75,1.28-13.51c.06-.6.18-.7.77-.71l4.89-.12h.92c-.09.85-.16,1.65-.24,2.44q-.67,6.38-1.33,12.74c-.19,1.85-.32,3.72-.61,5.57a11.81,11.81,0,0,1-1.52,4.28,7.62,7.62,0,0,1-.56.8,3.65,3.65,0,0,1-2.69,1.49C84,115.86,82.9,116.09,81.73,116.26Z"/><path d="M67.27,133.33a82,82,0,0,1-8.38-7.84c.07.16.15.32.23.47a38.39,38.39,0,0,0,7.05,9.12.79.79,0,0,1,.22,1c-.33.9-.6,1.82-.91,2.76a57.81,57.81,0,0,1-13.81-14.56l2.76-.45c2.17-.35,4.34-.69,6.5-1a1.06,1.06,0,0,0,.39-.21c1.34-.18,2.59-.34,3.84-.53,1.84-.28,3.68-.59,5.53-.89a5.23,5.23,0,0,0,.6-.2C70,125.05,68.62,129.15,67.27,133.33Z"/><path d="M91.58,58.71v8.92l-1.81-.13c-.94-.07-1.88-.14-2.82-.19a2.22,2.22,0,0,1-1.77-1,9.61,9.61,0,0,1-1.82-4.59c-.47-3.75-.82-7.52-1.22-11.29,0-.15,0-.3,0-.55.77.11,1.49.19,2.21.3,1.35.19,2.7.41,4.06.59a.74.74,0,0,1,.77.82c0,1.26.09,2.53.22,3.79a8.85,8.85,0,0,0,.49,2C90.13,58.19,90.56,58.84,91.58,58.71Z"/><path d="M141.16,20.33c2.67,1.12,5.36,2.18,8,3.38A83.21,83.21,0,0,1,170.43,37.5a58.53,58.53,0,0,1,13.46,17.32c.49,1,.92,2,1.42,3.06h-3a14.81,14.81,0,0,0-1.49,0c-.42,0-.59-.13-.73-.51a50.76,50.76,0,0,0-6.79-12.7,66.18,66.18,0,0,0-16.67-15.82,89.22,89.22,0,0,0-15-8.11l-.6-.27Z"/><path d="M91.59,76.68v9.17H88.4c-1.51.37-2.43-.54-3.22-1.58a10,10,0,0,1-2-5.06c-.31-3.13-.7-6.26-1.06-9.39-.08-.69-.07-.73.59-.69l5.09.25c.58,0,.77.22.85.8.17,1.38.33,2.76.51,4.14a5.84,5.84,0,0,0,.22.94,1.63,1.63,0,0,0,1.82,1.38A3.25,3.25,0,0,1,91.59,76.68Z"/><path d="M21.3,111.55C17.15,90,24.4,77.05,34.17,66.44l3,2.16C24.85,80.31,19.9,94.7,21.3,111.55Z"/><path d="M133.19,101.88c-.74,2.34-1.34,4.69-2.21,6.94a4.38,4.38,0,0,1-3.7,3.17,10.66,10.66,0,0,1-2.24-.24l-3.29-.48v-8.11l2.25.25a1.07,1.07,0,0,0,1.32-.76,5.28,5.28,0,0,1,.57-1.14.79.79,0,0,1,.56-.34c2.17.18,4.33.39,6.5.6C133,101.77,133.07,101.82,133.19,101.88Z"/><path d="M45.22,40.75A121.43,121.43,0,0,1,101,29.56l-1.17,3.62a96.61,96.61,0,0,0-11.12-.85,101.18,101.18,0,0,0-11.15.41,84.58,84.58,0,0,0-11.08,1.64c-3.62.83-7.24,1.71-10.78,2.8s-7,2.48-10.44,3.74Z"/><path d="M207.48,106.94A79.26,79.26,0,0,1,189,124.28a98.36,98.36,0,0,1-28.41,13.37l-1-3a86.23,86.23,0,0,0,26.12-10.13A95,95,0,0,0,207.48,106.94Z"/><path d="M145.47,153.76a127,127,0,0,1-38.73-2.4,107.26,107.26,0,0,1-21.54-7.11c.93-.67,1.79-1.32,2.68-1.92.11-.07.38,0,.54.12a91.33,91.33,0,0,0,11,4.87A106.4,106.4,0,0,0,121,152.74a120.43,120.43,0,0,0,20.26,1.2C142.63,153.91,144.05,153.82,145.47,153.76Z"/><path d="M53.76,31.85c15.79-5.18,31.93-7.7,48.62-6.61-.27.84-.5,1.62-.79,2.39,0,.11-.32.2-.48.19-2.24-.14-4.48-.39-6.72-.43-3.82-.07-7.65-.11-11.47,0a138.41,138.41,0,0,0-28.47,4.26Z"/><path d="M191.4,57.88c-1.11,0-2.11,0-3.1,0-.15,0-.35-.27-.42-.45-.74-1.82-1.37-3.7-2.19-5.48a59.13,59.13,0,0,0-9.39-14.18,84.21,84.21,0,0,0-8.44-8.35,1.77,1.77,0,0,1-.36-.41C178.25,36.27,186.71,45.45,191.4,57.88Z"/><path d="M80.23,147.86c.65-.47,1.23-.87,1.78-1.3a.6.6,0,0,1,.73-.05c3.42,1.5,6.8,3.1,10.28,4.44a145.64,145.64,0,0,0,22.24,6.41l2.1.45c-1.89.14-13.73-1.94-19-3.31A99.13,99.13,0,0,1,80.23,147.86Z"/><path d="M64,143.17a71.3,71.3,0,0,1-18.14-18c1-.16,2-.26,2.88-.48.62-.15.85.08,1.14.58A59.66,59.66,0,0,0,63.65,141.5l.09.07C64.49,142.19,64.49,142.19,64,143.17Z"/><path d="M193.58,65.69c.23,2.29.45,4.58.69,6.94l-4.61.19c0-1.48.08-2.91.12-4.34a.44.44,0,0,1,.15-.3c1.15-.86,2.31-1.7,3.47-2.54Z"/><path d="M30.32,60.4h7.85v5.84l-7.9-5.74Z"/><path d="M58.22,145.44a73.56,73.56,0,0,1-17.77-19.39c.54-.09,1-.18,1.49-.22.11,0,.27.15.34.28a64.69,64.69,0,0,0,9.77,13.19c1.8,1.88,3.72,3.64,5.59,5.45.22.21.45.4.67.6Z"/><path d="M16.63,86.22a61.07,61.07,0,0,1,14-22.35l1.25.9A56.25,56.25,0,0,0,16.63,86.22Z"/><path d="M200,72.4l-2.24.11c0-1,0-2,0-2.93-.08-2-.18-4.1-.33-6.15,0-.47,0-.77.43-1a7.11,7.11,0,0,0,.6-.41A47,47,0,0,1,200,72.4Z"/><path d="M40.38,48.84c-.11.63-.2,1.2-.33,1.77a.8.8,0,0,1-.33.42,108.44,108.44,0,0,0-9.6,6.63c-.37.29-1,.21-1.7.32C29.42,56.56,38.12,49.94,40.38,48.84Z"/><path d="M189.11,130a110.11,110.11,0,0,1-27.29,11.32l-.35-1A101.81,101.81,0,0,0,189.11,130Z"/><path d="M103.69,21.18l-.24.78a123.06,123.06,0,0,0-22.54-.75A129.33,129.33,0,0,1,103.69,21.18Z"/><path d="M188.53,72.87l-5.13.19-.05-.12c1.61-1.16,3.21-2.33,4.94-3.59Z"/><path d="M197.18,57.83c-.84.09-.84.09-1-.63a48.21,48.21,0,0,0-4.27-10.41,1.6,1.6,0,0,1-.19-.47A55.11,55.11,0,0,1,197.18,57.83Z"/><path d="M25.76,60.34l.58.41L19,68A67.48,67.48,0,0,1,25.76,60.34Z"/><path d="M76.58,150.49c.13,0,.27-.07.37,0,2.1,1.05,4.19,2.1,6.25,3.24l-6.63-3Z"/><path d="M168.07,144.58l-4.59,1.1c-.09,0-.22-.06-.33-.1l0-.13,4.86-1Z"/><path d="M41.69,42.72,37.38,45l-.05-.09,4.27-2.36Z"/><path d="M38.18,57v.84h-1Z"/></g></svg>