<svg xmlns="http://www.w3.org/2000/svg" viewBox="0 0 226.6 226.6" fill="#4875FF"><g id="sagaki"><path d="M37.66,131.16c.12-.24.23-.49.36-.73L53.11,104.3c0-.08.09-.17.14-.27-.49-.19-1-.36-1.46-.56a16.16,16.16,0,0,1-6.64-5.25q-5.92-7.73-11.9-15.4c-.08-.09-.15-.19-.28-.37l3.87.39L26.62,69.93l4.69.49L20.54,58.11l6.64.7L15,44.91l1.85.16,7.73.71,9.36.86,8.42.77,8.5.79,8.38.76,8.59.79,8.34.77c2.26.2,4.53.4,6.79.63a1,1,0,0,0,1.16-.56c.44-.9,1-1.74,1.49-2.63a1.7,1.7,0,0,0,.21-.8q0-7,0-14.11v-.54h.51c2.6,0,5.2,0,7.81,0a.61.61,0,0,0,.6-.36L113.06.47c.08-.14.16-.28.28-.47l1.53,2.65Q123.35,17.33,131.81,32a.8.8,0,0,0,.83.48c2.61,0,5.23,0,7.85,0H141V33q0,7.27,0,14.56a1.69,1.69,0,0,0,.2.76c.47.86,1,1.7,1.46,2.56a.52.52,0,0,0,.58.31c1.92-.19,3.85-.36,5.77-.54l7.57-.7,9.32-.85,8.5-.78,8.55-.79,8.38-.77L200,46l8.38-.76,3.25-.3L199.52,58.7l0,.1,6.5-.69L195.28,70.42l4.7-.49L189.75,82.84l3.85-.4c-.1.15-.15.25-.22.34L181.13,98.62a15.35,15.35,0,0,1-7.35,5.23l-.27.1-.1.08.25.44,15.12,26.21a2.53,2.53,0,0,1,.19.48ZM41.24,129H185.43q-7.56-13.09-15.08-26.11l.16-.05.28-.06a13.54,13.54,0,0,0,9-5.25q4.91-6.3,9.78-12.64a2.84,2.84,0,0,0,.2-.31l-3.89.39,10.21-12.89-5,.52,10.77-12.32L195.2,61l12.23-14-5.56.5-8.47.78-9.32.85-8.62.8-8.38.77-9.4.86-7.57.7-8.26.75a.54.54,0,0,1-.4-.22q-2.17-3.75-4.33-7.5A2.63,2.63,0,0,1,137,45h2.17V34.27H121.1V29.4H105v5H87.67V45.06h2l-.08.2q-2.16,3.8-4.34,7.58a.58.58,0,0,1-.46.19c-.91-.06-1.82-.16-2.73-.24L66.47,51.35,51.33,50,36.15,48.57,21,47.18,19.17,47,31.39,61l-6.63-.7L35.53,72.61l-5-.52L40.75,85l-3.92-.4c.13.19.21.32.3.43q4.86,6.27,9.7,12.55a13.26,13.26,0,0,0,5.8,4.37c1.17.44,2.41.71,3.63,1.06ZM97,32.51c1.38,0,2.66,0,3.94,0a.6.6,0,0,0,.6-.36l9-15.6,2.8-4.85.34.55q5.73,9.94,11.46,19.88a.61.61,0,0,0,.61.35c1.18,0,2.35,0,3.52,0h.48L113.33,4.13Z"/><path d="M93.86,86.05h38.88v39.12H93.86Zm29.68,35.4v-18h-6.11v18Zm-20.25-18v18H109v-18Zm14.12-3.57h6.15V89.54h-6.15Zm-8.42,0V89.55h-5.7V99.86Z"/><path d="M90.84,69.82V66.27h18v-4H94.47v-18h14.32V41.53H91.44V38h17.38V33.1h8.82V38h18.08V41.5h-18v2.7h14.2V62.26H117.73v4H136v3.53H117.67V78h-8.79V69.82Zm26.85-16.09v5c0,.5,0,.54.54.54H123l.42,0V53.73Zm-14.37,0c0,.16,0,.28,0,.4v4.65c0,.49,0,.53.55.53h4.94V53.73Zm20.1-6.45h-5.73v2.89c0,.28.16.36.42.36h5.06l.25,0Zm-14.63,3.25V47.28H103.3v2.89c0,.28.15.37.42.36h5.07Z"/><path d="M197.92,51.9c-1.93,2.2-3.77,4.38-5.7,6.48a9.5,9.5,0,0,1-6.25,3c-3.45.35-6.9.74-10.36,1.11l-9.59,1-8.85,1c-3.07.33-6.15.66-9.22,1a.65.65,0,0,0-.58.41q-5.48,10.14-11,20.25c-.07.12-.13.24-.26.46V82.67h-12c.28-.42.51-.79.74-1.14,1.72-2.64,3.45-5.26,5.17-7.9a.57.57,0,0,1,.56-.3c2.8,0,5.61,0,8.42,0h.46V62.57h-2.14a3.63,3.63,0,0,1,.19-.36c1-1.61,2.11-3.21,3.15-4.82a.67.67,0,0,1,.56-.34c3.75-.33,7.51-.69,11.27-1l10.21-.93,9.4-.87,9.36-.85,9.31-.86,6.72-.61Z"/><path d="M28.67,51.86l5.35.49,7.65.7,8.42.78,8.46.77,8.54.79,8.46.77,8.38.77c.45,0,.9.11,1.35.12a.68.68,0,0,1,.62.35C87,59,88,60.64,89.08,62.26l.17.28H87.09V73.33h.42c2.82,0,5.64,0,8.46,0a.55.55,0,0,1,.54.25c1.91,2.94,3.83,5.86,5.75,8.79a2.74,2.74,0,0,1,.16.28h-12v3.76l-.09,0-.19-.32Q84.73,76.05,79.29,66a.88.88,0,0,0-.76-.54c-2.45-.24-4.9-.51-7.35-.77L63.1,63.8l-8-.85L46.2,62c-2.06-.22-4.12-.41-6.17-.68a9.13,9.13,0,0,1-5.68-3c-1.88-2.07-3.69-4.2-5.53-6.3Z"/><path d="M75.15,105.73,72,111.27H90.44v14H47.79a3.68,3.68,0,0,1,.16-.34q5.91-10.23,11.81-20.48a.45.45,0,0,1,.52-.25l7.52.78,6.75.7Z"/><path d="M178.84,125.24H136.17v-14h18.48l-3.21-5.56,2.94-.32,10-1c.62-.07,1.25-.11,1.87-.2a.55.55,0,0,1,.64.33q2.64,4.61,5.3,9.2,3.21,5.57,6.43,11.14C178.68,124.94,178.74,125.06,178.84,125.24Z"/><path d="M138.58,90.53l1.22-2.25q1.69-3.12,3.38-6.25a.62.62,0,0,1,.55-.37l14.18-1.52,14.9-1.59L186.91,77l.17,0-.47.6-3.7,4.67a10,10,0,0,1-7.15,3.86c-3.17.34-6.33.74-9.5,1.11l-8.72,1-8.68,1-8.72,1Z"/><path d="M88,90.52l-1.82-.2L76.59,89.2,66.49,88c-3.14-.36-6.27-.72-9.41-1.1-2.56-.3-5.12-.55-7.66-1a8.92,8.92,0,0,1-5.51-3.33c-1.43-1.77-2.83-3.56-4.24-5.35L39.52,77l2.55.26,8.86.95,8.85,1L67.7,80l8.17.88,7.06.76a.61.61,0,0,1,.43.28q2.28,4.16,4.52,8.32A1.42,1.42,0,0,1,88,90.52Z"/><path d="M45.61,89.48l4,.41,8.24.87,8.25.87c3,.31,6,.61,9,.93l9,1c1.69.18,3.38.36,5.08.51a.9.9,0,0,1,.79.51,3.53,3.53,0,0,1,.48,1.89c0,1.84,0,3.68,0,5.52v.51l-3.5-.36-8.25-.87-8.24-.85-8.25-.87c-2.17-.23-4.35-.39-6.49-.75a8.89,8.89,0,0,1-5.57-3.38c-1.5-1.87-2.95-3.78-4.41-5.68Z"/><path d="M136.16,102.43c0-.12,0-.23,0-.33,0-2.13,0-4.26,0-6.38a4.34,4.34,0,0,1,.69-1.57c0-.08.25-.09.38-.1L147,93l9-1,8.17-.85,8.94-.93,7.68-.8a2.16,2.16,0,0,1,.26,0l-.78,1c-1.21,1.56-2.41,3.14-3.64,4.68a9.6,9.6,0,0,1-6.83,3.72c-3.81.4-7.61.81-11.42,1.2l-12.15,1.26-9.75,1Z"/><path d="M81.92,77.45,79,77.15l-8.2-.88-8.78-.94c-3.19-.34-6.39-.67-9.58-1-2.7-.29-5.4-.54-8.08-.9A8.86,8.86,0,0,1,39,70.53c-1.51-1.64-3-3.35-4.43-5,0,0,0-.09-.12-.19l1.91.2,9.83,1L58,67.83l10.36,1.1c3.07.33,6.14.65,9.22,1a.61.61,0,0,1,.44.26c1.29,2.35,2.56,4.71,3.84,7.07A1,1,0,0,1,81.92,77.45Z"/><path d="M144.64,77.46l1.05-1.95q1.42-2.61,2.83-5.24a.62.62,0,0,1,.53-.36l11.82-1.25,12.59-1.36c4-.42,7.91-.83,11.86-1.26l6.5-.7c.09,0,.19,0,.35,0l-.79.91C190.2,67.6,189,69,187.83,70.31a10,10,0,0,1-6.78,3.27c-3,.28-6,.63-8.93,1l-8.82.93-8,.87-8,.85Z"/></g></svg>