<svg xmlns="http://www.w3.org/2000/svg" viewBox="0 0 226.6 226.6" fill="#4875FF"><g id="seto"><path d="M184.94,143.52H41.66c0-.6,0-1.2,0-1.8V1.56c0-.52,0-1,0-1.56H184.94c0,.44,0,.88,0,1.32V142C185,142.48,185,143,184.94,143.52ZM177.88,7.15H48.74V136.27H177.88Z"/><path d="M53.46,131.55V11.89H173.11V131.55Zm57.07-17.23V67.22a4.42,4.42,0,0,0-.41.31Q90.65,87,71.18,106.48c-.19.19-.47.43-.47.66,0,2.38,0,4.76,0,7.18Zm45.41,0c0-2.81,0-5.56,0-8.31a2.65,2.65,0,0,0-.68-1.64Q136.95,86,118.6,67.68c-.23-.23-.5-.43-.83-.71v47.32Zm-28-47.91c.41-.47.67-.82,1-1.13q10.82-10.81,21.62-21.63c1.8-1.8,3.58-3.64,5.36-5.46,0-2.56,0-5.11.05-7.67V29.11H117.7v1.47c0,7.68.06,15.35,0,23A5.25,5.25,0,0,0,119.45,58C122.32,60.63,125,63.47,127.93,66.38ZM70.74,62V95.75L104.54,62Zm85.13-12.69L133.61,71.52l22.26,22.26ZM157,23.91c-2.09-2.09-4-4-5.84-5.79a1.72,1.72,0,0,0-1.07-.35q-36.23,0-72.45,0a2.18,2.18,0,0,0-1.34.56c-1.67,1.6-3.29,3.26-4.92,4.91a5,5,0,0,0-.46.66Zm-.31,95.67H70.93l2.22,2.18c1.31,1.29,2.41,3.09,4,3.74s3.69.22,5.57.22q33.35,0,66.71,0a2.4,2.4,0,0,0,1.52-.41C152.85,123.48,154.68,121.59,156.68,119.58Zm-86-65.22H89.79V29.13H70.71Zm90.44,60.85c1.94-2,3.66-3.63,5.27-5.4a3,3,0,0,0,.77-1.84c.05-9.4,0-18.79,0-28.19q0-22.24,0-44.49A2.14,2.14,0,0,0,167,34c-1.82-1.93-3.72-3.79-5.8-5.89ZM65.41,114V29.19c-1.86,1.87-3.59,3.53-5.22,5.28a3,3,0,0,0-.77,1.84c-.06,6,0,12.08,0,18.12q0,26.15,0,52.3c0,.5,0,1.16.26,1.47C61.47,110.13,63.39,112,65.41,114Zm45.15-59.63V29.11H96.93V54.38ZM59.48,115.65v10h10Q64.44,120.63,59.48,115.65Zm-.06-88.34,9.45-9.47H59.42Zm107.7,98.34V116.9c-2.88,2.88-5.84,5.84-8.77,8.75Zm0-107.81h-8.61l8.61,8.62Z"/></g></svg>