<svg xmlns="http://www.w3.org/2000/svg" viewBox="0 0 226.6 226.6" fill="#4875FF"><defs><style>.cls-1{fill:none;}</style></defs><g id="sirabe"><path class="cls-1" d="M94.38,46.18l-2.26,3.2c1.88.28,3.61.54,5.35.76.17,0,.44-.21.54-.39a.63.63,0,0,0-.06-.6C96.79,48.15,95.6,47.19,94.38,46.18Z"/><path class="cls-1" d="M137.17,45.3c-.63,1.5-1.22,2.91-1.88,4.46,2-.31,3.84-.6,5.69-.91a.61.61,0,0,0,.37-.41.7.7,0,0,0-.19-.59C139.87,47,138.54,46.17,137.17,45.3Z"/><path class="cls-1" d="M106.34,49.26a.78.78,0,0,0-.3,1.19l6.49.34c-.79-1.49-1.51-2.86-2.26-4.3C108.91,47.46,107.64,48.38,106.34,49.26Z"/><path class="cls-1" d="M128.75,49.09a.63.63,0,0,0-.16.58c.08.2.34.5.49.48,1.78-.22,3.55-.49,5.43-.77l-2.25-3.2C131,47.18,129.88,48.12,128.75,49.09Z"/><path class="cls-1" d="M97.49,45.71c2.83,3.6,6.09,3.91,9.43.43C104.88,42.52,100.33,42.3,97.49,45.71Z"/><path class="cls-1" d="M87.17,43.21l-3.57-.55v2.25c0,1,.23,1.21,1.15,1A2.92,2.92,0,0,0,86.16,45,9.82,9.82,0,0,0,87.17,43.21Z"/><path class="cls-1" d="M85.49,47.84a.63.63,0,0,0-.19.57.79.79,0,0,0,.49.47c1,.19,2,.33,2.94.48l2.61.38-1.88-4.45C88.08,46.17,86.77,47,85.49,47.84Z"/><path class="cls-1" d="M98.46,42c.22-.16.25-.56.4-.93L86.18,40c.4,1.11.74,2.09,1.11,3.06a1,1,0,0,0,.4.37,2,2,0,0,0,2.59-.3c.51-.44,1-.93,1.52-1.45l2.93,3.1C96,43.8,97.27,42.92,98.46,42Z"/><path class="cls-1" d="M112.43,41.07c-2.24,0-4.3,0-6.37,0-.25,0-.5.28-.85.49l4.94,3.82Z"/><path class="cls-1" d="M121.29,41.68c0-.09,0-.18,0-.28a3.61,3.61,0,0,0-1-.32c-1.65,0-3.3,0-5,0h-1.18l2.27,4.33Z"/><path class="cls-1" d="M120.72,50.13a.76.76,0,0,0-.13-.62c-1.38-1-2.79-2-4.23-3l-2.25,4.3c2.17-.11,4.18-.21,6.19-.33A.57.57,0,0,0,120.72,50.13Z"/><path class="cls-1" d="M131.91,44.75l3-3.22a21.41,21.41,0,0,0,1.67,1.74c.84.68,2.18.66,2.62-.12a23.21,23.21,0,0,0,1.25-3.2L127.7,41.07c.21.41.29.79.53,1C129.41,43,130.63,43.81,131.91,44.75Z"/><path class="cls-1" d="M119.71,46.17c3.21,3.21,6.44,3.41,9.4-.45C125.69,41.62,121.32,43.22,119.71,46.17Z"/><path class="cls-1" d="M140.49,45.05a1.92,1.92,0,0,0,2.06.83c.18,0,.45-.25.46-.39,0-.93,0-1.86,0-2.83l-3.58.55C139.85,43.92,140.13,44.52,140.49,45.05Z"/><path d="M168.44,73.78c.93-.89,1-1.38.29-2.09l-19.45-19.2c-.91-.9-1.08-.92-2.16-.25-4.94,3-10.18,5.21-16,5.58a23.78,23.78,0,0,1-15.92-4.59,2.27,2.27,0,0,1-.3-.27H111.8a4.54,4.54,0,0,1-.48.39,24,24,0,0,1-17.45,4.31,34.8,34.8,0,0,1-13.5-4.92c-2.37-1.41-1.88-1.36-3.71.43-6.23,6.1-12.41,12.24-18.61,18.37-.88.87-.88,1.25,0,2.08a37.21,37.21,0,0,1,6.51,8.17c2,3.36,3.51,6.93,3.4,10.9a32.84,32.84,0,0,1-1,7.37c-1.6,6.14-3.35,12.23-5.17,18.31a71.28,71.28,0,0,0-3.42,17.39c-.39,8.89,2.88,16,9.7,21.57a54.1,54.1,0,0,0,13.82,7.88c3.54,1.45,7.29,2.38,10.63,4.3,2.53,1.45,5.37,1.45,8.11,2a.44.44,0,0,0-.21-.23c-4.93-2.45-9.75-5.08-15-6.86a50.87,50.87,0,0,1-16-8.55A23.65,23.65,0,0,1,61.12,144c-1.37-4.74-.94-9.56-.22-14.29a80.25,80.25,0,0,1,2.62-10.28c2-6.74,4.2-13.41,5.68-20.29a23.33,23.33,0,0,0-.1-12.05A35,35,0,0,0,61,73.82L59.9,72.58l.19-.25q9.09-9,18.15-17.94c.41-.41.67-.2,1,0a40.69,40.69,0,0,0,8.94,4c7.14,2.16,14.13,2,20.89-1.42,1.48-.75,2.86-1.71,4.33-2.59l.21.14c6.34,4.73,13.44,6.14,21.16,4.77a37.37,37.37,0,0,0,12.6-5,.79.79,0,0,1,1.18.17c.73.79,1.52,1.52,2.29,2.27l11.44,11.29c1.49,1.48,2.93,3,4.35,4.45-1.42,1.71-2.94,3.39-4.27,5.19-4.79,6.47-7.07,13.54-4.87,21.6,1.54,5.63,3.08,11.27,4.66,16.9s3.68,11,4,16.87a42.08,42.08,0,0,1,0,8.17,22.36,22.36,0,0,1-7.94,13.83,49.08,49.08,0,0,1-14.36,8.34c-2.4,1-4.91,1.7-7.28,2.74-2.87,1.27-5.66,2.75-8.48,4.15-.67.33-1.33.7-2,1.06a3.52,3.52,0,0,0,1.22-.06c1.75-.34,3.66-.34,5.21-1.1,4-2,8.17-3.4,12.28-5a49.81,49.81,0,0,0,15-8.83,24.61,24.61,0,0,0,8-13c1-4.49.66-9,0-13.47a70.82,70.82,0,0,0-2.34-9.69c-2-7.06-4.34-14-6-21.19-1.15-5-1-9.87,1.23-14.58A36.89,36.89,0,0,1,168.44,73.78Z"/><path d="M152.43,7.77l-.37-.08c-1,3.32-2,6.65-3,10-1.48-1.68-3.22-2.82-5.52-1.87-1.46.6-1.94,2-2.15,3.75.47-.64.75-1.07,1.09-1.46a2,2,0,0,1,3.56.42,5.5,5.5,0,0,1,.62,2.08,41.87,41.87,0,0,1,.11,5.25c-.17,3.15-1.9,4.77-5.07,4.78-2.46,0-4.47-1-5.42-3.34a6.19,6.19,0,0,1-.22-3c.15-1.09,1.83-1.56,3.25-.88a11.2,11.2,0,0,1,2,1.6c.44-2.2-.78-3.23-4.77-3.9-.58-3.59-.66-3.8-1.78-4.81-1.4,1.31-1.53,3.05-1.67,4.9-1.68,0-3.44,0-4.4,1.75a5.22,5.22,0,0,0-.46,2.26,3.66,3.66,0,0,1,3.88-2c1.1.13,1.54.59,1.54,1.71a4.64,4.64,0,0,1-1.8,3.27c-4,3.88-11.67,4-15.81.34-.24-.22-.46-.47-.69-.71-.56-.6-.46-1.05.24-1.48,1.59-1,1.53-2.4-.07-3.37a14.7,14.7,0,0,1-1.27-1c1.59-3.75,4.79-4.88,8.27-5.58a2.42,2.42,0,0,1,.54,0c2.64,0,3.63,1.29,3.05,3.88-.08.35-.18.69-.27,1.05a3.55,3.55,0,0,0,2.77-2.56,3.89,3.89,0,0,0-1.36-4.13,6.77,6.77,0,0,0-6.48-.7,39.44,39.44,0,0,0-4.37,2.09c0-2.71.21-5.52-.06-8.27a18.71,18.71,0,0,0-3-7.86l0,.05,0,0a18.71,18.71,0,0,0-3,7.86,81.56,81.56,0,0,0-.06,8.27A40.31,40.31,0,0,0,105.8,14a6.77,6.77,0,0,0-6.48.7A3.85,3.85,0,0,0,98,18.87a3.54,3.54,0,0,0,2.77,2.56c-.1-.36-.19-.7-.27-1.05-.58-2.59.41-3.85,3-3.88a2.51,2.51,0,0,1,.55,0c3.48.7,6.67,1.83,8.27,5.58a13.44,13.44,0,0,1-1.28,1c-1.6,1-1.65,2.39-.07,3.37.71.43.8.88.25,1.48-.23.24-.45.49-.69.71-4.14,3.69-11.82,3.54-15.81-.34A4.64,4.64,0,0,1,92.92,25c0-1.12.44-1.58,1.54-1.71a3.66,3.66,0,0,1,3.88,2A5.22,5.22,0,0,0,97.88,23c-1-1.71-2.72-1.73-4.4-1.75-.14-1.85-.27-3.59-1.67-4.9-1.12,1-1.2,1.22-1.78,4.81-4,.67-5.22,1.7-4.78,3.9a11.63,11.63,0,0,1,2-1.6c1.42-.68,3.1-.21,3.25.88a6.19,6.19,0,0,1-.22,3c-1,2.37-3,3.35-5.42,3.34-3.18,0-4.9-1.63-5.08-4.78a46.05,46.05,0,0,1,.11-5.25,5.7,5.7,0,0,1,.63-2.08,2,2,0,0,1,3.55-.42c.34.39.62.82,1.09,1.46-.2-1.78-.69-3.15-2.14-3.75-2.3-.95-4,.19-5.53,1.87-1-3.4-2-6.73-3-10l-.36.08a1.58,1.58,0,0,0-.05.38c.33,3.92.43,7.88,1.09,11.75.51,3,1.9,5.82,2.59,8.79,1.3,5.65,2.85,11.28,2.29,17.18-.08.83,0,1.68,0,2.52,0,1.59.33,2,1.92,2.34.36.08.72.14,1.08.19a184,184,0,0,0,22.5,1.59,6.15,6.15,0,0,1,1,.17H120a6.26,6.26,0,0,1,1-.17,184,184,0,0,0,22.5-1.59c.36-.05.72-.11,1.07-.19,1.59-.34,1.93-.75,1.93-2.34,0-.84.07-1.69,0-2.52-.56-5.9,1-11.53,2.29-17.18.69-3,2.08-5.8,2.59-8.79.66-3.87.75-7.83,1.08-11.75A2.33,2.33,0,0,0,152.43,7.77ZM83.73,39.42h7.09c-.28,1.48-.16,3.1-1.85,3.88a1.33,1.33,0,0,1-1.1.05c-1.45-1.19-2.84-2.45-4.25-3.68ZM83.58,46V42.68c.16,0,.25,0,.29,0l2.31,1.68-2.32,1.93Zm.69,2.29c1.39-1.16,2.52-2.17,3.71-3.09.43-.34,1.74.35,2.11,1.17a23.61,23.61,0,0,1,.83,2.65ZM114,39.41h8.44c-1.66,1.52-3.16,2.94-4.73,4.26-.2.17-1,0-1.22-.29-1-1.19-1.85-2.47-2.76-3.72Zm-1.35,0,.27.25c-.92,1.25-1.79,2.53-2.77,3.72-.22.27-1,.46-1.21.29-1.58-1.32-3.07-2.74-4.74-4.26Zm-12.34,0c-1.63,1.5-3.09,2.9-4.63,4.22-.58.51-2.63-.36-3.06-1.32a22.62,22.62,0,0,1-.87-2.9Zm.13,10.23-8.34-.49a3.33,3.33,0,0,1,2.42-4.06,1.47,1.47,0,0,1,1.64.4c1.41,1.36,2.9,2.63,4.35,3.93Zm-3-5.27a6.38,6.38,0,0,1,9.58,0C104.57,47.22,100.29,47.24,97.43,44.37Zm15.87,5.34h-9.73c1.9-1.69,3.56-3.2,5.28-4.63a1.26,1.26,0,0,1,1.19.19c1.09,1.37,2.09,2.82,3.26,4.44,1.18-1.62,2.18-3.07,3.27-4.44a1.26,1.26,0,0,1,1.19-.19c1.72,1.43,3.38,2.94,5.27,4.63Zm6.3-5.35a6.37,6.37,0,0,1,9.57,0C126.31,47.24,122,47.22,119.6,44.36Zm14.93,4.79-8.34.49-.07-.22c1.45-1.3,2.94-2.57,4.34-3.93a1.49,1.49,0,0,1,1.65-.4A3.33,3.33,0,0,1,134.53,49.15ZM134,42.31c-.43,1-2.48,1.83-3.06,1.32-1.54-1.32-3-2.72-4.64-4.22h8.57A24.35,24.35,0,0,1,134,42.31Zm8.86-2.89.12.25c-1.41,1.23-2.8,2.49-4.26,3.68a1.31,1.31,0,0,1-1.09-.05c-1.69-.78-1.57-2.4-1.86-3.88Zm-7.18,9.64a21.71,21.71,0,0,1,.83-2.65c.37-.82,1.67-1.51,2.11-1.17,1.19.92,2.32,1.93,3.71,3.09ZM143,46l-.28.24-2.32-1.93,2.3-1.68c.05,0,.14,0,.3,0Z"/><path d="M37.15,182.13l10-1.78-2.44-11.12,5.81,4.62c-.08-1-.19-1.85-.19-2.69a1.5,1.5,0,0,1,.34-1c4.58-4.09,9.19-8.15,13.84-12.26l.8.72a56.09,56.09,0,0,0,19.34,11.05,85.08,85.08,0,0,0,27.11,4.61,87,87,0,0,0,28.84-4.12,57.8,57.8,0,0,0,20.24-11c.45-.4.88-.81,1.34-1.23,4.15,3.67,8.2,7.42,12.45,10.93a4,4,0,0,1,1.55,4.61c0,.1,0,.2-.05.51l5.86-4.67c-.83,3.8-1.63,7.41-2.45,11.13l9.94,1.78c-.2.17-.3.27-.42.36a68.37,68.37,0,0,1-15.3,8.16,27.77,27.77,0,0,1-8.59,1.78,21.52,21.52,0,0,1-2.65-.22c-.73-.06-1-.45-1-1.19-.09-2.8-.23-5.6-.36-8.41,0-.2,0-.4-.08-.69-14.94,8-30.93,11.37-47.69,11.37S80.58,190,65.6,181.9c0,.57-.08,1-.1,1.54-.12,2.59-.26,5.18-.34,7.78a.87.87,0,0,1-.8.95,15.44,15.44,0,0,1-6.17-.09c-5.56-1-10.55-3.43-15.36-6.27-1.69-1-3.33-2.1-5-3.16C37.65,182.53,37.48,182.38,37.15,182.13Zm125.32,8.28a1,1,0,0,0,.27-.07A35.63,35.63,0,0,0,173,179.18a18,18,0,0,0,2.27-7c-.11,0-.17,0-.2.08a70.52,70.52,0,0,1-12.64,9.19.92.92,0,0,0-.33.69c0,.92.09,1.83.13,2.75C162.31,186.73,162.39,188.54,162.47,190.41Zm-98.31.19c.13-2.82.22-5.4.39-8a1.36,1.36,0,0,0-.83-1.46,66.37,66.37,0,0,1-10.59-7.48l-1.62-1.44-.17.14C52.65,180.42,57.94,185.69,64.16,190.6Zm1-27.6c-.07.44-.13.7-.16,1s.08.69-.07.91c-1.52,2.32-3.08,4.63-4.65,6.92a1.67,1.67,0,0,1-.66.46,8,8,0,0,1-.86.32l.06.27L62,175l.49-.67-.23,0c0-.32-.12-.71,0-1,.69-1.11,1.44-2.17,2.19-3.29L66,171.1c-.73,1.08-1.41,2.11-2.12,3.12a1.8,1.8,0,0,1-.6.44c-.28.15-.57.26-1,.47l3.35,2.24c.1-.39.19-.65.24-.92s0-.67.13-.89q2.28-3.45,4.61-6.86a1.92,1.92,0,0,1,.65-.49c.26-.16.54-.29,1-.5L69,165.57l-.27.07c0,.32,0,.63,0,1a.89.89,0,0,1-.06.44c-.68,1.05-1.38,2.08-2.09,3.15L65,169.13c.63-.94,1.24-1.82,1.81-2.72.3-.48.62-.8,1.21-.47l.44-.69ZM144,172.49l-.1.25a7.91,7.91,0,0,1,.79.48,1.77,1.77,0,0,1,.61.64c1.06,2.51,2.08,5,3.14,7.54.21.52.2.91-.37,1.16l.37.77,3.51-1.46.1-.26-.81-.47c-.15-.09-.37-.16-.43-.29-.58-1.34-1.13-2.68-1.69-4l.2-.14a4.29,4.29,0,0,1,.58.63c.55.92,1.07,1.86,1.61,2.79a2.42,2.42,0,0,0,4,.3,1.5,1.5,0,0,0,.18-1c0-.12-.53-.35-.61-.28a4,4,0,0,0-.57.8s-.08,0-.25.1c-.79-1.35-1.59-2.72-2.23-3.8a6.62,6.62,0,0,0,.71-2.3,5.89,5.89,0,0,0-.91-2.46,2.31,2.31,0,0,0-2.89-1C147.23,171.1,145.6,171.82,144,172.49Zm-15.18,14.65-1.2-4.57a3.51,3.51,0,0,0,.45-5.43,2.41,2.41,0,0,0-1.49-.57c-1.85.09-3.7.32-5.57.49,0,.46-.21.87.45.95.18,0,.4.42.43.67q.51,4.14,1,8.29c0,.24-.08.67-.24.74-.57.25-.35.6-.28,1l3.77-.44.15-.22c-.19-.21-.4-.42-.59-.65s-.37-.33-.39-.52c-.2-1.4-.35-2.81-.52-4.21l.22-.09a4.45,4.45,0,0,1,.42.81c.28,1,.53,2.08.78,3.13a2.41,2.41,0,0,0,3.8,1.3,1.43,1.43,0,0,0,.38-.92c0-.12-.4-.42-.55-.38A3.58,3.58,0,0,0,128.78,187.14Zm-43.1-13,.19,0c.12.34.39.73.32,1-.65,2.72-1.35,5.44-2.06,8.15a1.78,1.78,0,0,1-.5.64c-.21.21-.47.39-.7.58l.13.23,3.69.95c.08-.42.41-.76-.17-1a.55.55,0,0,1-.16-.49c.32-1.4.67-2.8,1-4.2h.25a3,3,0,0,1,.11.77c-.11,1-.26,2.08-.39,3.12a2.38,2.38,0,0,0,3,2.77,1.39,1.39,0,0,0,.76-.64c.08-.11-.15-.61-.25-.61a3.63,3.63,0,0,0-1,.22,2.16,2.16,0,0,1-.28,0l.48-4.44A7.49,7.49,0,0,0,92,180a4.21,4.21,0,0,0,.81-3.11,2.2,2.2,0,0,0-1.53-2c-1.77-.53-3.57-1-5.39-1.45ZM168,173c-.33-.24-.58-.57-.78-.53a1.57,1.57,0,0,1-1.44-.62l-3.5-3.41c-1.05-1-2.1-2.06-3.16-3.07-.27-.27-.58-.6-1-.09s-1,1.28-1.57,2.05l.92.3c1.21,2.83,2.78,5.72,3.87,8.66a4.53,4.53,0,0,0-.84.62c-.06.09.09.5.2.52a1.44,1.44,0,0,0,.94,0c.73-.36.71-1.06.51-1.71s-.57-1.5-.87-2.27l1.51-1c1.65,1.52,1.67,1.56,1,2.36l.48.6Zm-89.74,10.2c0-.38.18-.8,0-.91a1.49,1.49,0,0,1-.32-1.54c.26-1.52.56-3,.84-4.56s.58-3,.83-4.56c.06-.34.26-.84-.4-.89-.82-.06-1.64-.09-2.61-.14l.26.91c-1.7,2.59-3.22,5.55-5.11,8.1a2.94,2.94,0,0,0-.81-.46c-.11,0-.38.23-.4.38a1,1,0,0,0,.19.7.76.76,0,0,0,.6.3,2.74,2.74,0,0,0,1.3-.55,18.47,18.47,0,0,0,1.52-2.05l1.79.76c-.55.73,0,2.08-1.52,2.17l-.23.65Zm58.09,2.6a4.11,4.11,0,0,0-1,.26c-.09,0-.06.55,0,.61a1.66,1.66,0,0,0,1,.24c.67-.13.89-.7.91-1.31,0-.83,0-1.66,0-2.54.43-.11.88-.25,1.34-.33a.58.58,0,0,1,.51.17c.3.59.54,1.22.81,1.86l-.76.36.22.8,4.29-1.07a6.39,6.39,0,0,0-.55-.76c-.36-.34-.87-.57-1.1-1-.6-1-1.07-2.1-1.6-3.15l-2.61-5.28c-.19-.38-.36-.72-.88-.36s-1.35.87-2.09,1.34c0,.07.11.36.17.36.72,0,.57.52.6.91.16,1.56.31,3.13.44,4.69S136.23,184.5,136.32,185.81Zm-33.95-8.28c.76.05.89.46.8,1.13-.31,2.31-.53,4.64-.86,7a3.6,3.6,0,0,1-.66,1.56,1,1,0,0,1-1.84-.36,3.22,3.22,0,0,1-.11-1.31c.27-2.4.58-4.79.86-7.19.06-.6.21-1,1-.89v-.83l-3.88-.47-.13.81c.65.14.71.54.64,1.08-.31,2.42-.62,4.84-.85,7.26a2.8,2.8,0,0,0,2.68,3.16,2.61,2.61,0,0,0,3.16-2.41c0-.23.09-.46.12-.7.27-2.16.55-4.32.77-6.48.08-.73.29-1.15,1.14-1V177l-2.69-.32Zm7.08.59c.79-.06.81.44.8.94,0,2.44,0,4.88,0,7.32a2.82,2.82,0,0,0,3,2.86,2.6,2.6,0,0,0,2.87-2.58q0-.39.06-.78c0-1.92,0-3.84.08-5.75,0-.71-.59-1.86.88-2l.08-.13v-.64h-2.72v.78c.79-.1.85.4.84,1,0,2.31,0,4.62-.07,6.93a4.45,4.45,0,0,1-.36,1.51.93.93,0,0,1-1.17.68,1.89,1.89,0,0,1-.93-.9,3.16,3.16,0,0,1-.17-1.31c0-2.31.05-4.62.07-6.93,0-.58.08-1.07.87-1l-.05-.86h-3.92Z"/><path d="M114.23,110.77h.84q19.89,0,39.79,0a1,1,0,0,1,1.11.84c1.61,5.59,3.41,11.14,4.85,16.77a32.28,32.28,0,0,1,.71,12.27c-.71,5.17-3.66,9-7.66,12.13a44.34,44.34,0,0,1-13.3,7c-7.48,2.53-14.32,6.34-21.23,10-1.31.71-2.57,1.53-3.87,2.26a6.85,6.85,0,0,1-1.24.43Zm19.85,27.72c-.49.16-.87.26-1.24.4a2.21,2.21,0,0,0-1.5,3,7.73,7.73,0,0,0,.51,1.31c.26.56.11.9-.47,1.09l-2.9,1a1.82,1.82,0,0,0-1.34,1.67,12.43,12.43,0,0,0,.15,1.83c1.47.11,1.81-.29,2.08-2.3l3.62-1c1.88-.5,1.88-.5,1.52-2.37,0,0,0,0,0-.17.67.31,1.53-.14,2.06.77s1.35,1.92,2,2.92A2.42,2.42,0,0,1,139,148a5.89,5.89,0,0,1-2.14,4c-.64.53-1.26,1.1-1.88,1.65l.15.28a9.23,9.23,0,0,0,1.27.26c1,.06,1.23-.14,1.55-1.09a3.94,3.94,0,0,1,.62-1c.23-.31.63-.55.75-.89A7.23,7.23,0,0,1,142,147.7a.8.8,0,0,0,.19-1.18c-.17-.27-.35-.52-.53-.78a2.75,2.75,0,0,1-.07-3.37q.53-.8,1.08-1.56a2.59,2.59,0,0,0,.43-2.45,1.27,1.27,0,0,1,.48-1.49c.94.44,1.19.92.9,1.83-.23.7-.58,1.36-.77,2.06a18.86,18.86,0,0,0-.81,3.5,2.17,2.17,0,0,0,2.4,2.27l-.6-1.48c.64.11,1.18.5,1.58-.08l-.92-1.19h1.32a4.66,4.66,0,0,0-.3-.46,1.49,1.49,0,0,1-.13-2,7.71,7.71,0,0,0,.85-1.76,22.47,22.47,0,0,0,.85-3.49,1.57,1.57,0,0,0-1.34-1.85,2.74,2.74,0,0,0-2.4.41c-.41.33-.81.67-1.21,1a1,1,0,0,1-1.36.06,9.17,9.17,0,0,1-3.58-5.73c0-.21,0-.42-.06-.78l1.84,2.38c1-1-.42-1.89-.2-3.13l1.08,1.63.24-.1-.36-2,.9.6c-.06-1.36-1.52-2-1.39-3.32l1.33,2.12c.28-1.69-.9-2.48-1.48-3.56l1.41,1a2.29,2.29,0,0,0-1-2.22l.71-.08.09-.17-1.14-.75.43-.37c-.44-.6-.86-1.21-1.29-1.79s-.61-1.11-1.08-1.33a3.45,3.45,0,0,1-1.66-1.69.55.55,0,0,0-.4-.27.54.54,0,0,0-.34.35c-.08.53-.09,1.06-.14,1.71-1.3.7-2.72,1.48-4.17,2.22a1.84,1.84,0,0,0-1.18,1.36c0,.29.4.62.58,1,.31.59.72.59,1.24.31,1.33-.71,2.19-.5,3.13.75a11.62,11.62,0,0,0-4.7,5,14.38,14.38,0,0,0-1.39-1.28,2.44,2.44,0,0,0-1.33-.49,16.84,16.84,0,0,0-2.8.39,2.88,2.88,0,0,0-1.83,4.27c1.23-.58,1.2-.59,1.56-1.84a1.33,1.33,0,0,1,.76-.78,6.68,6.68,0,0,1,1.79-.17,1,1,0,0,1,.68.31,15.69,15.69,0,0,1,.92,1.48c-1.06.51-2.06.92-3,1.46a1.79,1.79,0,0,0-.81,1.1,20.54,20.54,0,0,0-.22,3.14,1.68,1.68,0,0,0,.42,1c.7.75,1.48,1.42,2.22,2.12l.21-.34c.72-1.18.75-1.55-.35-2.3a1.69,1.69,0,0,1-.79-1.83,8.19,8.19,0,0,0,0-.86c0-.66.3-1,1-1,.94,0,1.89,0,2.83,0a.81.81,0,0,1,.93.73,8.08,8.08,0,0,0,2.12,3.72C133.56,137.91,133.78,138.17,134.08,138.49Z"/><path d="M112.38,109.15h-41c.11-.41.21-.78.3-1.15.86-3.78,1.84-7.54,2.54-11.35,1-5.12-.13-10-2.24-14.7a40.26,40.26,0,0,0-5.25-8.48l-.6-.76,2.09-2q5.3-5.22,10.59-10.46A.85.85,0,0,1,80,60a37.73,37.73,0,0,0,16.66,4.4,30.47,30.47,0,0,0,14.85-3.51l.83-.43ZM86.69,78.64l1.4-2.16.26.16-1.81,3,.18.13.85-.59-.37,2.1.25,0,1-1.45c.23,1.09-1,2-.09,3l1.85-2.42c-.08.55-.1.88-.17,1.2a8.85,8.85,0,0,1-3.27,5.14c-.7.55-1,.59-1.71,0a10.39,10.39,0,0,0-1.36-1.06,2.53,2.53,0,0,0-2.76,0,1.86,1.86,0,0,0-.66,2.26,30.28,30.28,0,0,0,1.51,4.19c.48,1,.67,1.79-.16,2.62,0,0,0,.09,0,.21h1.18l-1.05,1.35h1.71l-.61,1.44a2.4,2.4,0,0,0,2.41-3c-.26-1.25-.75-2.45-1.13-3.67a5.72,5.72,0,0,1-.48-1.65,2.72,2.72,0,0,1,.61-1.24c0-.08.45-.07.46,0A3.19,3.19,0,0,1,85,89.62a3.13,3.13,0,0,0,.47,2.47c.39.52.75,1.07,1.12,1.62a2.7,2.7,0,0,1,0,3.23c-.16.24-.33.48-.5.71a1,1,0,0,0,.21,1.44,11.13,11.13,0,0,1,1.52,1.47c.84,1,1.11,2.49,2.23,3.37a.86.86,0,0,1,.21.58.92.92,0,0,0,1,.94,17.49,17.49,0,0,0,1.76-.18l.23-.4c-.63-.51-1.24-1-1.88-1.54a6.12,6.12,0,0,1-2.21-3.79,1.89,1.89,0,0,1,.53-1.78,11.27,11.27,0,0,0,1.61-2.21,1.86,1.86,0,0,1,2.37-1.14c0,.1,0,.2-.08.3-.38,1.33-.24,1.58,1.11,1.94,1.13.31,2.27.65,3.42.91a.83.83,0,0,1,.78.93c0,1,.58,1.58,1.4,1.6a.71.71,0,0,0,.58-.24,2.43,2.43,0,0,0-1.45-3.36c-.87-.3-1.73-.61-2.6-.9-.61-.19-.8-.53-.51-1.12a9.53,9.53,0,0,0,.49-1.25,2.26,2.26,0,0,0-1.59-3.09L94,89.75A9.51,9.51,0,0,0,97,85c0-.18.41-.4.64-.42.79-.06,1.58,0,2.36,0,1.57,0,1.57,0,1.6,1.54,0,.29,0,.57,0,.86a1.09,1.09,0,0,1-.54,1c-1.19.91-1.5,1-.65,2.48a4.05,4.05,0,0,0,.26.4c.7-.68,1.41-1.29,2-2a2.41,2.41,0,0,0,.62-1.33c0-.89-.13-1.78-.15-2.67a1.61,1.61,0,0,0-1.14-1.59c-.91-.36-1.78-.83-2.72-1.29.3-.5.52-.91.78-1.3.46-.71,2.81-.64,3.24.09a.78.78,0,0,1,.15.44c-.15,1.23.84,1.39,1.58,1.81.9-2.26-.16-4.11-2.49-4.43-.62-.09-1.25-.16-1.87-.27A1.78,1.78,0,0,0,99,78.9,12.54,12.54,0,0,1,97.72,80,11.67,11.67,0,0,0,93,75c1.1-1.29,1.78-1.43,3.19-.7A.76.76,0,0,0,97.39,74c.08-.15.28-.24.34-.4s.28-.59.18-.76a2.7,2.7,0,0,0-.9-1c-1.49-.86-3-1.65-4.36-2.36a16.9,16.9,0,0,0-.2-1.77c0-.09-.59-.17-.61-.13-.41.91-1.25,1.35-1.92,2a20.57,20.57,0,0,0-2.2,2.93l.41.38-1.28.86,1,.2a2.11,2.11,0,0,0-1,2.14l1.46-1C87.58,76.14,86.48,76.94,86.69,78.64Z"/><path d="M64.88,139.54H77.62l-.29-3.12H64.88l.31-4.14h.91c3.7,0,7.4,0,11.11,0,.73,0,1-.23,1.16-.9s.41-1.46.65-2.28H65.56c.36-1.37.66-2.64,1-3.88,0-.16.5-.28.77-.28,3.94,0,7.88,0,11.82,0,.86,0,1.39-.15,1.33-1.14-.57-.09-1.33,0-1.75-.31s-.47-1.07-.73-1.75H67.59l1.24-4.11h43.56v4.07h-8.9l.22,2h-2.45c.16,1.22.16,1.23,1.23,1.23h9.89v4.12h-9.64l1,3.21h8.7v4.1h-7.92l-.32,3.15h8.22v4.13c-.25,0-.52,0-.8,0-2.81,0-5.62,0-8.43,0a1.29,1.29,0,0,0-1.17.59c-.65.88-1.4,1.69-2.17,2.59h12.59V151h-.87q-20,0-40,0a1.51,1.51,0,0,1-1.3-.54c-.93-1.13-1.87-2.24-2.8-3.36l.12-.22H82c-.88-1.07-1.66-2.07-2.5-3-.16-.18-.57-.19-.86-.19-4,0-7.94,0-11.9,0-.72,0-1-.22-1.16-.91C65.38,141.77,65.13,140.73,64.88,139.54Zm37.26-17.14c-.28-1.6-1.28-2.41-2.64-2.27a2.46,2.46,0,0,0-2,2.58,4.48,4.48,0,0,0,.06.63c.5,3.42,1,6.84,1.49,10.28a8.32,8.32,0,0,1-12.43,8.46,7.69,7.69,0,0,1-4-7.8c.26-2.92.78-5.82,1.18-8.73a26.67,26.67,0,0,0,.38-3.19,2.34,2.34,0,0,0-2.35-2.28,2.28,2.28,0,0,0-2.12,2.4l2.5-.41a3,3,0,0,1,0,1c-.7,2.47-1.48,4.92-2.15,7.4a26.54,26.54,0,0,0-1.28,5.81,12.1,12.1,0,1,0,23.78-2.85c-1-3.41-2-6.79-3-10.19a2.24,2.24,0,0,1-.11-.92c0-.12.44-.31.46-.29C100.57,122.72,101.37,122.18,102.14,122.4Zm-4.6,9.84-.42-3.09H84.68l-.44,3.09Zm.33,4.22h-14c.59,1.06,1.07,2,1.61,2.85a.92.92,0,0,0,.68.24h9.38a.93.93,0,0,0,.68-.25C96.8,138.43,97.28,137.52,97.87,136.46Zm-1.75-14.65H85.67l-.3,3.08h11Z"/><path d="M160.36,72.7H142.9c.87,1,1.68,2,2.53,3a1.16,1.16,0,0,0,.78.2H158c-.81,1.37-1.55,2.65-2.34,3.9-.1.16-.45.21-.69.21-2.23,0-4.46,0-6.7,0h-.9c.12,1.09.23,2.1.34,3.18H154l-1.33,4.12c-1.64,0-3.27,0-4.89,0a.88.88,0,0,0-1.06.83c-.17.76-.43,1.5-.68,2.38h6v4.1h-7.26L144.41,96c1.21,0,2.58-.21,2.35,1.76h4c1.81,0,1.81,0,2.17,1.77.15.75.3,1.49.47,2.31H114.22V97.82h7.32l-.2-1.77h2.51l-.38-1.43h-9.24V90.53h8c-.3-1-.55-2-.88-2.93-.06-.17-.46-.29-.7-.29-1.87,0-3.73,0-5.6,0h-.87v-4.1h6.39l.35-3.2h-6.73V75.87H115c2.39,0,4.78,0,7.17,0a1.46,1.46,0,0,0,.88-.44c.8-.86,1.55-1.76,2.36-2.69h-11.2V68.58c.25,0,.53,0,.81,0q20.25,0,40.49,0a1.87,1.87,0,0,1,1.16.47c1,1,2,2,3,3C159.9,72.18,160.06,72.37,160.36,72.7Zm-15,24.51c-.77.19-1.42.38-2.08.5-.17,0-.51-.12-.55-.26a1.47,1.47,0,0,1,.1-.76c.92-3.16,1.91-6.32,2.77-9.51a16.18,16.18,0,0,0,.68-4.24,12.11,12.11,0,1,0-23.75,3.64c.93,3.33,2,6.64,2.92,10a1.93,1.93,0,0,1,.15.83c0,.16-.52.39-.55.36-.65-.7-1.4-.21-2.11-.34a2.36,2.36,0,0,0,2.61,2.26,2.54,2.54,0,0,0,2-2.83c-.51-3.56-1.06-7.11-1.55-10.67a8,8,0,0,1,3.63-8.23,7.86,7.86,0,0,1,8.92-.16,7.78,7.78,0,0,1,3.89,7.94c-.25,2.56-.68,5.09-1,7.64-.18,1.3-.45,2.59-.52,3.89a2.27,2.27,0,1,0,4.53,0Zm-17.88-9.87.44,3.16c4.07,0,8.06,0,12,0,.16,0,.44-.16.46-.28.16-.94.26-1.88.39-2.86Zm13.29-4.19.22-.22c-.54-.91-1.06-1.83-1.64-2.71a1,1,0,0,0-.7-.22q-4.49,0-9,0a1,1,0,0,0-.7.23,6.16,6.16,0,0,0-1.54,2.92Zm-1.38,14.61.33-3.08H128.57l.36,3.08Z"/><path d="M154.16,105.21l1.07,3.91h-41v-3.91Z"/><path d="M112.41,110.77v3.65H69.84c.34-1.13.65-2.24,1-3.33a.61.61,0,0,1,.39-.3,2.54,2.54,0,0,1,.62,0h40.56Z"/><path d="M112.42,154.27v4h-.85q-14.25,0-28.51,0a3.22,3.22,0,0,1-1.43-.33c-2-1-4-2.1-6-3.16a9.09,9.09,0,0,1-.77-.54Z"/><path d="M152.79,65.3H114.21V60.53a3.07,3.07,0,0,1,.36.11c8.37,4.5,17.06,4.85,26,1.91,2.13-.7,4.15-1.73,6.23-2.58a.92.92,0,0,1,.8.06c1.74,1.66,3.45,3.37,5.17,5.06C152.76,65.12,152.76,65.19,152.79,65.3Z"/><path d="M91.26,161.57h21.12v4.05c-.21,0-.43,0-.66,0H100.07a2.17,2.17,0,0,1-.91-.17l-7.62-3.71A2.41,2.41,0,0,1,91.26,161.57Z"/><path d="M112.38,172.43a3.87,3.87,0,0,1-1-.25c-1.84-1.05-3.65-2.13-5.69-3.34h6.73Z"/><path d="M150.4,175.61l-1.92-.27c-.21-.5-.55-1.26-.85-2-.14-.36-.5-.81,0-1.11s1.17-.58,1.66,0a5.41,5.41,0,0,1,.9,1.54C150.47,174.37,150.79,175.06,150.4,175.61Z"/><path d="M126.24,181.81l-1.7-.72c-.07-.53-.2-1.36-.26-2.19,0-.33,0-.92.18-1a2,2,0,0,1,1.35,0C126.84,178.33,127,181.22,126.24,181.81Z"/><path d="M89,179.83c-.24-.5-.23-1.28-1.26-1,.28-1.1.5-2.1.79-3.09.13-.43,1-.4,1.5,0a1.48,1.48,0,0,1,.37.58A3.54,3.54,0,0,1,89,179.83Z"/><path d="M159.21,169l2.78,2.7-1.16.8Z"/><path d="M74.72,177l1.9-3.1.14.06-.74,3.6Z"/><path d="M136.86,178.29l1.57,3.36-1.36.33-.36-3.64Z"/><path d="M90.7,146.15a6.75,6.75,0,0,1-4.24-.86c-.37-.24-.83-.51-.51-1s.79-.31,1.2,0a1.71,1.71,0,0,0,.63.32c2.38.53,4.74.81,7-.41.25-.13.68,0,1,.09-.12.33-.15.78-.38,1a5.74,5.74,0,0,1-3.42,1C91.59,146.17,91.14,146.15,90.7,146.15Z"/><path d="M84.75,144.22c-.32-.17-.53-.27-.73-.39a7.89,7.89,0,0,1-3.6-5.46c-.09-.46,0-.94.48-1a1,1,0,0,1,.74.68A7.05,7.05,0,0,0,85,142.93a1.11,1.11,0,0,1,.36.83C85.31,143.92,84.94,144.07,84.75,144.22Z"/><path d="M101.45,137.91a8.17,8.17,0,0,1-3.4,5.73,1.84,1.84,0,0,1-.74.42c-.26,0-.73-.06-.78-.21a1,1,0,0,1,.2-.85c.42-.42,1-.7,1.42-1.11a7.2,7.2,0,0,0,2-3.83,1.06,1.06,0,0,1,.69-.65C101,137.37,101.29,137.77,101.45,137.91Z"/><path d="M81,133.59c.17.3.53.63.48.87a1,1,0,0,1-.77.62c-.18,0-.58-.44-.59-.68s.34-.55.54-.83Z"/><path d="M101,130.42c-.28.19-.59.56-.84.52a1,1,0,0,1-.67-.73c0-.18.41-.61.66-.63s.57.31.85.49Z"/><path d="M81.51,131.1c-.2-.29-.57-.6-.54-.87a1,1,0,0,1,.74-.64c.2,0,.63.41.64.64s-.33.58-.52.87Z"/><path d="M101.84,134.6c-.29.18-.61.53-.86.49a1,1,0,0,1-.64-.74c0-.19.43-.61.67-.61s.56.33.84.52Z"/><path d="M139.19,75c0,.66-.52,1-.94.73-1.92-1.32-4.08-.93-6.17-.8a5.14,5.14,0,0,0-1.81.71c-.39.19-.82.34-1-.11a1.07,1.07,0,0,1,.3-1,5.71,5.71,0,0,1,3.57-1c1.83-.05,3.69-.24,5.35.8A5.16,5.16,0,0,1,139.19,75Z"/><path d="M123.59,81.83a8,8,0,0,1,4.09-6.1c.21-.11.61.15.92.23-.13.3-.18.74-.41.88a6.84,6.84,0,0,0-3.07,4,4.19,4.19,0,0,1-.26,1,1.07,1.07,0,0,1-.74.48C123.92,82.31,123.72,82,123.59,81.83Z"/><path d="M144.72,81.86c-.13.13-.3.42-.52.45a1,1,0,0,1-.69-.31c-.13-.12-.14-.39-.18-.59A6.51,6.51,0,0,0,140.25,77c-.42-.26-.78-.56-.5-1.06s.75-.31,1.16-.06a8,8,0,0,1,3.76,5.71C144.68,81.62,144.69,81.67,144.72,81.86Z"/><path d="M144.47,84.52c.19.29.55.62.5.86a1.07,1.07,0,0,1-.76.65c-.17,0-.59-.44-.6-.69s.33-.56.52-.84Z"/><path d="M124.86,85.52c-.28.19-.6.55-.84.51a1.08,1.08,0,0,1-.66-.73c0-.19.41-.62.66-.63s.56.32.84.5Z"/><path d="M144.23,89.64c-.28.2-.55.54-.83.54s-.7-.4-.68-.59a1,1,0,0,1,.62-.75c.25,0,.58.29.87.46Z"/><path d="M120.13,24.65c.39-.26.84-.55,1.27-.78a7.75,7.75,0,0,1,1-.43,4.28,4.28,0,0,0,1.82,3.47,4.33,4.33,0,0,0,.51.31,4.3,4.3,0,0,0,0,1.56,3.43,3.43,0,0,0,.09.44c-.2,0-.41,0-.61,0a7,7,0,0,1-4.11-1.43c0-.51,0-1,0-1.53s0-1,0-1.54v0Z"/><path d="M101.9,27.1a4.6,4.6,0,0,0,.9-.61,4.31,4.31,0,0,0,1.46-3.07,6.73,6.73,0,0,1,2.33,1.34c0,1.11,0,2.08,0,3.07a6.37,6.37,0,0,1-4,1.43,5.32,5.32,0,0,1-.69,0,4.17,4.17,0,0,0,.14-.72A4.36,4.36,0,0,0,101.9,27.1Z"/><path d="M47.76,110.58a13,13,0,0,1,3.29-1.29c.26-.06.52-.14.8-.23l.24-.07a4.29,4.29,0,0,0,2.32-6.53,17.36,17.36,0,0,0-5.76-5.58c.35,0,.72,0,1.09,0a17,17,0,0,1,1.95.11l.43,0a4.29,4.29,0,0,0,3.81-6.26l-.78-1.55a34.83,34.83,0,0,0-2-3.72,9.74,9.74,0,0,0-1.6-1.94,12.12,12.12,0,0,1,2,.29c.42.09.83.21,1.3.33l.92.25a4.46,4.46,0,0,0,1.09.14A4.31,4.31,0,0,0,60,83.1l.17-.22c.23.36.47.71.69,1.08,2,3.42,2.88,6.07,2.8,8.6A28.57,28.57,0,0,1,62.76,99c-1.41,5.41-3,11.18-5.12,18.16-.15.47-.29,1-.43,1.44a4.27,4.27,0,0,0-1.79-3.42c-.45-.32-.9-.66-1.34-1a35.52,35.52,0,0,0-3.77-2.58A9.38,9.38,0,0,0,47.76,110.58Z"/><path d="M51,124.76a13.59,13.59,0,0,1,2.8-1.61l.69-.29a4.27,4.27,0,0,0,2-1.71c-.41,1.52-.79,3.06-1.13,4.64a11,11,0,0,0-3.15-.91C51.81,124.82,51.42,124.78,51,124.76Z"/><path d="M54.33,141.79c.05.35.1.69.16,1-.11-.16-.23-.3-.34-.46C54.2,142.17,54.27,142,54.33,141.79Z"/><path d="M172.21,142.72c0-.26.08-.51.12-.77l.15.42Z"/><path d="M171.33,125.82c-.35-1.57-.76-3.11-1.19-4.61a4.32,4.32,0,0,0,1.78,1.55l.18.09.54.24a12.84,12.84,0,0,1,3,1.67A12.08,12.08,0,0,0,171.33,125.82Z"/><path d="M178.07,110.82a17.84,17.84,0,0,0-6.59,4.3l-.61.56a4.25,4.25,0,0,0-1.42,3.11q-.88-3.08-1.82-6.14c-1.43-4.77-2.91-9.69-4-14.56-1-4.55-.76-8.29.91-11.77a31.09,31.09,0,0,1,2.09-3.68,4.53,4.53,0,0,0,.79.85,4.29,4.29,0,0,0,2.67.93,3.78,3.78,0,0,0,.74-.07,5.2,5.2,0,0,0,1-.23,12.61,12.61,0,0,1,3.26-.63c-.25.23-.49.49-.74.77a22.11,22.11,0,0,0-3.54,6.47l-.12.31a4.29,4.29,0,0,0,.47,4,4.37,4.37,0,0,0,3.59,1.89h.2a4.93,4.93,0,0,0,.55,0,14,14,0,0,1,1.43-.07c.42,0,.83,0,1.24,0a30.56,30.56,0,0,0-3.67,2.79,11.18,11.18,0,0,0-1.79,2,6.55,6.55,0,0,1-.39.53,4.29,4.29,0,0,0,2.49,6.87,13.47,13.47,0,0,1,4,1.5A8,8,0,0,0,178.07,110.82Z"/><path d="M123.93,89.47c.46-.31.77-.68,1-.63s.51.45.75.7c-.26.23-.5.6-.79.64S124.37,89.83,123.93,89.47Z"/><path d="M189.11,112.8c1.78-1.29,3.55-2.62,5.43-3.75a16.74,16.74,0,0,1,7.4-2.45v-.32l-.4-.63a47,47,0,0,0-2.65-4.45c-2-2.69-4.3-2.58-6.07.29a39.22,39.22,0,0,0-2.35,4.78c-.53,1.19-.91,2.43-1.35,3.65a5,5,0,0,1-.05-1.27c.1-3.14.38-6.3.2-9.43a6,6,0,0,1,1.45-4.47c2.67-3.27,5.41-6.43,9.34-8.28,0,0,0-.09.11-.31-1.21-1.12-2.44-2.33-3.76-3.45a7.42,7.42,0,0,0-1.91-1.06c-1.92-.81-3.55-.24-4.19,1.73a32.89,32.89,0,0,0-1.1,5.69c-.22,1.6-.23,3.23-.33,4.93-.1-.12-.14-.15-.15-.2a65.38,65.38,0,0,0-3.43-12.25,1.36,1.36,0,0,1,0-.89c1.86-4.64,4-9.09,8.16-12.28-2.05-1.48-4.07-2.89-6.57-3.32-2-.34-3.37.55-3.66,2.51a16.65,16.65,0,0,0-.09,4.23c.24,2.3.68,4.58,1,6.86a2.49,2.49,0,0,1-.2-.32A83.22,83.22,0,0,0,177.89,67a1.49,1.49,0,0,1-.15-1c.86-4.91,2-9.71,5.31-13.74a16.71,16.71,0,0,0-7-1.94c-2.33,0-3.55,1.17-3.28,3.49a26.58,26.58,0,0,0,1.33,5.23c.63,1.88,1.48,3.68,2.24,5.54l-.1,0a65.72,65.72,0,0,0-8.92-10.15.91.91,0,0,1-.25-.54,28.44,28.44,0,0,1,.42-9.78c.42-1.69,1.08-3.31,1.65-5-.56-.1-1.23-.24-1.89-.34a13,13,0,0,0-5.24.08,2.84,2.84,0,0,0-2.34,3.58,6.54,6.54,0,0,0,.74,2.3c1.44,2.4,3,4.74,4.49,7.1.15.23.32.45.47.67a1.48,1.48,0,0,1-.74-.4c-2.86-2.22-5.64-4.56-8.61-6.62a5.08,5.08,0,0,1-2.36-3.52c-.33-1.91-.79-3.79-1.24-5.9-.34,1.39-.59,2.59-.94,3.76a9.37,9.37,0,0,0-.31,2.06h0l-.06,1.32h0v2c.7-.18,1.37-.3,2-.52A1.86,1.86,0,0,1,155,45c3.29,2.61,6.59,5.2,9.89,7.8a1.76,1.76,0,0,1,.26.28,1.56,1.56,0,0,1-.63-.22,22.61,22.61,0,0,0-7.67-2.94,5.33,5.33,0,0,0-3.17.26c1.7,1.76,3.37,3.5,5.08,5.21a1.11,1.11,0,0,0,.89.13,22.26,22.26,0,0,1,6.59-.95,1.64,1.64,0,0,1,1,.4,58.12,58.12,0,0,1,8.13,9.38,4.26,4.26,0,0,1,.24.51c-1.15-.91-2.17-1.78-3.26-2.55A12.37,12.37,0,0,0,167.13,60a3.44,3.44,0,0,0-2.82.64c1.8,1.86,3.52,3.66,5.28,5.43a1,1,0,0,0,.77.2,20,20,0,0,1,6.17.52,1.63,1.63,0,0,1,.95.68q2.51,4.45,4.91,9c.43.79.73,1.64,1.09,2.46a3.72,3.72,0,0,1-.81-.88,18.55,18.55,0,0,0-5.6-5.24,4.92,4.92,0,0,0-3.09-.7,2.06,2.06,0,0,0-2,2.14,10.78,10.78,0,0,0,0,1.5,1.94,1.94,0,0,1-.84,1.9,2.66,2.66,0,0,0-1,2.51c.16,0,.31,0,.45-.08a17.49,17.49,0,0,1,13.24,1,2,2,0,0,1,.95,1,60.26,60.26,0,0,1,3.07,11c.06.33.11.67.19,1.19-.65-1.29-1.16-2.41-1.77-3.48a11.54,11.54,0,0,0-4-4.47,3.28,3.28,0,0,0-4.58.73,19,19,0,0,0-2.93,5.58c.18,0,.29,0,.39,0a16.64,16.64,0,0,1,12.66,3.88,1.77,1.77,0,0,1,.61,1.15c.11,1.81.21,3.62.15,5.43-.06,2.2-.28,4.41-.43,6.61h-.19l-.12-.57c-.37-1.61-.69-3.23-1.13-4.82a7.42,7.42,0,0,0-2-3.42,3,3,0,0,0-3.68-.67,23.11,23.11,0,0,0-3.64,2.69,13.78,13.78,0,0,0-1.6,2,18.62,18.62,0,0,1,11.49,7.59,1.54,1.54,0,0,1,.34,1c-.36,2.28-.75,4.55-1.22,6.81-.34,1.68-.81,3.33-1.22,5-.2-1.3-.22-2.58-.33-3.84a10.88,10.88,0,0,0-1.65-5.35,3.07,3.07,0,0,0-3.73-1.26c-2.27.72-3.88,2.38-5.65,4l.51.24a17.94,17.94,0,0,1,9.48,9.12,1.52,1.52,0,0,1,.07,1.09c-1,2.56-2,5.11-3.14,7.63-.49,1.13-1.12,2.2-1.75,3.42.27-1.64.57-3.1.73-4.58a8.68,8.68,0,0,0-.68-4.92,3,3,0,0,0-2.57-1.82,8.21,8.21,0,0,0-3.94.95c.11,1.41.21,2.77.34,4.12a1.14,1.14,0,0,0,.32.6,17.08,17.08,0,0,1,3.83,7.83,1.78,1.78,0,0,1-.21,1.22,56.9,56.9,0,0,1-6.65,8c-1.82,1.88-3.41,4-5.1,6a13.11,13.11,0,0,0,1.87-1.28,1.39,1.39,0,0,1,.84-.3,39.77,39.77,0,0,1,9.5,1.67c1.51.49,2.94,1.2,4.43,1.82a17,17,0,0,0,1.12-6.86c-.25-2.6-1.83-3.81-4.32-3a32.41,32.41,0,0,0-4.47,1.9c-1.29.62-2.52,1.34-3.78,2l-.16-.18a1,1,0,0,0,.35-.15,43.85,43.85,0,0,0,6.85-8,4,4,0,0,1,2.71-1.84c3.58-.76,7.15-1.45,10.84-1,.74.1,1.46.26,2.37.42a34,34,0,0,0-.44-4.08,14,14,0,0,0-1.32-3.65,2.58,2.58,0,0,0-3.54-1.12,7.24,7.24,0,0,0-2.07,1.25c-1.68,1.55-3.27,3.18-4.9,4.78l-.67.69A81.39,81.39,0,0,0,185,129.44a.84.84,0,0,1,.39-.46,30.68,30.68,0,0,1,10.54-4c1.1-.15,2.22-.17,3.34-.24a16.88,16.88,0,0,0-2-5.39c-1.77-3-4.07-3.37-6.34-.72a59.24,59.24,0,0,0-3.94,5.77c-.31.46-.55,1-.82,1.44.84-4,1.58-8,2.35-12A1.77,1.77,0,0,1,189.11,112.8Z"/><path d="M75.48,43.19,75.42,42h0a5.24,5.24,0,0,0-.13-1.17c-.36-1.39-.64-2.8-1-4.21a1.9,1.9,0,0,0-.14-.33c-.57,2.43-1.13,4.89-1.73,7.33a1.65,1.65,0,0,1-.58.85c-3.38,2.62-6.78,5.21-10.17,7.81l-.52.39c.86-1.35,1.8-2.6,2.67-3.91a17.78,17.78,0,0,0,3.09-6.31,2.77,2.77,0,0,0-2.27-3.6,17.57,17.57,0,0,0-4-.27,28.84,28.84,0,0,0-3.45.48c2.52,4.68,2.73,9.57,2.31,14.55a1.77,1.77,0,0,1-.57,1,61.88,61.88,0,0,0-7.11,7.89l-1.42,1.89c.54-1.66,1.24-3.24,1.85-4.85a17.38,17.38,0,0,0,1.56-6.14,2.76,2.76,0,0,0-2.81-3.1c-2.68-.18-5.07.8-7.39,1.87.68,1.06,1.37,2,1.94,3a33.28,33.28,0,0,1,3.3,10.86,1.75,1.75,0,0,1-.27,1q-2.87,5.37-5.77,10.72l-.3.57c.08-1.1.29-2.15.47-3.21a25.79,25.79,0,0,0,.54-7c-.26-2.56-1.68-3.65-4.19-3.14a15.28,15.28,0,0,0-5.79,2.94c.71.88,1.39,1.78,2.13,2.63a32.82,32.82,0,0,1,5.66,10.11,1.53,1.53,0,0,1-.1.88c-.6,1.84-1.3,3.66-1.82,5.52-.64,2.26-1.14,4.55-1.71,6.86,0-.89-.09-1.75-.14-2.61a27.12,27.12,0,0,0-1.12-7.76c-.83-2.31-2.45-3-4.68-1.94a16.05,16.05,0,0,0-5.35,4.6c.78.45,1.52.84,2.22,1.29,3.05,2,5.3,4.73,7.55,7.52a3.94,3.94,0,0,1,1.08,3.71,6.47,6.47,0,0,0-.07,1.65c.1,3.21.21,6.43.31,9.5,0,0-.09-.23-.16-.42-.57-1.52-1-3.08-1.73-4.55a25.57,25.57,0,0,0-2.39-4.32c-1.37-1.9-3.26-2-4.88-.27a17.3,17.3,0,0,0-2.07,2.85c-.62,1-1.11,2.07-1.66,3.11v.16c.57.07,1.15.11,1.71.23,4.39.94,8,3.35,11.37,6.15a1.29,1.29,0,0,1,.35.74c.43,2.35.79,4.71,1.25,7,.33,1.71.79,3.39,1.19,5.08-.5-.72-.92-1.48-1.35-2.22a19.83,19.83,0,0,0-1.36-2.21,26.15,26.15,0,0,0-3-3.59c-1.6-1.46-3.37-1.19-4.71.52a16,16,0,0,0-2.74,6.45c1.05,0,2.06,0,3,.16a30.09,30.09,0,0,1,10.78,4,1.67,1.67,0,0,1,.61.85c.9,2.23,1.73,4.5,2.66,6.72.61,1.46,1.37,2.85,2.14,4.42-1.42-1.46-2.65-2.86-4-4.12a19,19,0,0,0-3.32-2.48,2.78,2.78,0,0,0-4.16,1.16c-1.35,2.31-1.42,4.88-1.46,7.36,1.54-.16,3-.4,4.45-.44a36.45,36.45,0,0,1,10,1.46,1.47,1.47,0,0,1,.69.58c1.3,1.68,2.52,3.43,3.88,5.06,1.21,1.45,2.57,2.77,3.91,4.21-1.44-.78-2.78-1.61-4.2-2.25a29.44,29.44,0,0,0-4.83-1.84A2.59,2.59,0,0,0,44.08,152a17.13,17.13,0,0,0,.07,4.29,24.11,24.11,0,0,0,.86,3.42c1.11-.52,2.06-1,3.05-1.43a37.87,37.87,0,0,1,11-2.15,1.28,1.28,0,0,1,.75.32c.6.44,1.17.92,1.85,1.48l-3.8-5.07a1.73,1.73,0,0,0-.28-.26,45.85,45.85,0,0,1-7.77-9,1.22,1.22,0,0,1-.16-.86,15.78,15.78,0,0,1,3.18-7.11,4.54,4.54,0,0,0,1.17-3.2.87.87,0,0,1,0-.23c.24-2.54.1-2.71-2.46-3.11a3.36,3.36,0,0,0-4.23,2.65,11.73,11.73,0,0,0-.21,5.07c.15,1,.37,2,.56,3.13-.11-.05-.14-.06-.15-.08a61.62,61.62,0,0,1-4.75-10.78,1.06,1.06,0,0,1,.07-.74,18.09,18.09,0,0,1,9.32-9.17l.69-.29c0-.08,0-.17.08-.26a54.51,54.51,0,0,0-4.73-3.33c-2.29-1.3-4.27-.58-5.22,1.87A22.72,22.72,0,0,0,41.86,122a20.6,20.6,0,0,0,0,3.24h-.22a.5.5,0,0,1-.1-.17q-1.23-5.85-2.44-11.7a.92.92,0,0,1,.2-.64A18.8,18.8,0,0,1,50,105.12c.27-.06.52-.15.84-.24A12.78,12.78,0,0,0,46,100.35a3.35,3.35,0,0,0-4.33.87A8.8,8.8,0,0,0,39.79,105c-.41,1.58-.73,3.18-1.14,5-.08-.7-.14-1.21-.19-1.72a55.2,55.2,0,0,1-.2-10.52,1.65,1.65,0,0,1,.44-1,16.9,16.9,0,0,1,13.42-4c-.91-1.76-1.62-3.42-2.58-4.93C48,85.36,46,85.09,43.72,86.81a5.56,5.56,0,0,0-1.2,1.12c-.85,1.16-1.69,2.34-2.44,3.56a28.77,28.77,0,0,0-1.32,2.67,57,57,0,0,1,3.32-12.52,1,1,0,0,1,.48-.47,17.85,17.85,0,0,1,11.93-1.56c.7.16,1.39.36,2.34.61-.31-.83-.38-1.65-.83-2.06A3.43,3.43,0,0,1,54.67,75a5.74,5.74,0,0,0,0-.71,2.06,2.06,0,0,0-2.05-2.17,4.89,4.89,0,0,0-2.94.67A18.61,18.61,0,0,0,44,77.94l-.66.89a.39.39,0,0,1,0-.36,75.12,75.12,0,0,1,5.88-11.11,1.51,1.51,0,0,1,.87-.55,19.27,19.27,0,0,1,6.24-.51,1,1,0,0,0,.65-.14c1.8-1.79,3.58-3.6,5.44-5.47a7.75,7.75,0,0,0-.89-.48,4.4,4.4,0,0,0-2.93,0,18.05,18.05,0,0,0-7.14,4.33c-.13.12-.28.21-.57.43a3.14,3.14,0,0,1,.19-.4,58.22,58.22,0,0,1,8.38-9.69,1.3,1.3,0,0,1,.84-.29,20.88,20.88,0,0,1,6.66,1,.87.87,0,0,0,1-.26q2-2,4.1-4a11.49,11.49,0,0,1,1.1-.85c-.09-.11-.17-.23-.25-.34-4.3-.91-7.84,1.27-11.66,3.17a85.67,85.67,0,0,1,10.81-8.54,1.55,1.55,0,0,1,1-.15c.82.15,1.63.38,2.46.58v-2Z"/></g></svg>