<svg xmlns="http://www.w3.org/2000/svg" viewBox="0 0 226.6 226.6" fill="#4875FF"><g id="suya"><path d="M186.15,146.9h-26c-.4-.09-.8-.21-1.21-.26-1-.12-2-.18-2.91-.31a47.43,47.43,0,0,1-41.19-48.09c0-2,0-4,0-6a4.4,4.4,0,0,0,0-.51h-2.92V96.9a49.59,49.59,0,0,1-.72,8.6,47,47,0,0,1-7.56,18.78A48.73,48.73,0,0,1,83,141.77a47.36,47.36,0,0,1-19,4.32c-7.78.07-15.56,0-23.34,0a11.82,11.82,0,0,1-1.32-.14V121.75c.34-.16.24-.49.25-.76a54.73,54.73,0,0,1,.85-7.66,47.39,47.39,0,0,1,10.66-22c1.07-1.24.84-1.07,2.36-1.09a2.56,2.56,0,0,0,1.08-.09L40.06,74.42c.19-.22.33-.39.48-.55q6.84-7.4,13.66-14.81a1.32,1.32,0,0,1,1.2-.53s.06,0,.13-.09c-.14-.14-.26-.29-.4-.43a50.42,50.42,0,0,1-4.22-4.78A48.44,48.44,0,0,1,40.7,24.54c-.07-2.37,0-4.74,0-7.12V.93c0-.31,0-.62,0-.93H66.39a4.22,4.22,0,0,0,.69.14A51.2,51.2,0,0,1,73.94,1,45.83,45.83,0,0,1,91.29,8.39a47.3,47.3,0,0,1,20.64,39.29c-.05,3.37,0,6.74,0,10.11v.75h1.54l1.43,0c0-1.37,0-2.65,0-3.94a88.35,88.35,0,0,1,.31-10.16,47.82,47.82,0,0,1,3.19-13.06,48.61,48.61,0,0,1,11.78-17.21A48,48,0,0,1,163.59.58c7.58-.12,15.16,0,22.75,0h.78c0,.33.07.61.07.89q0,10.49,0,21a62.24,62.24,0,0,1-.63,9.54,45.82,45.82,0,0,1-6.08,16.76,50.08,50.08,0,0,1-7.86,9.88l14.59,15.82L172.68,90.16a6.47,6.47,0,0,1,.68.4,6.06,6.06,0,0,1,.55.58,50.76,50.76,0,0,1,4.48,5.94A48.57,48.57,0,0,1,184.25,110a50.08,50.08,0,0,1,1.92,14.1C186.13,131.69,186.15,139.3,186.15,146.9ZM59.09,56.75c.53.47,1.08.92,1.59,1.41a1.41,1.41,0,0,0,1.07.39c5.7,0,11.4,0,17.1,0a2.16,2.16,0,0,0,1.72-.71q12.29-12.33,24.6-24.61a1.05,1.05,0,0,0,.28-1.32A44,44,0,0,0,97.75,19l-.45-.49Zm71-37.34-.67.79a46.17,46.17,0,0,0-7.53,12.31c-.35.85-.33.94.3,1.58l.38.37L140.16,52l5.6,5.6c.18.18.4.35.57.55a1.23,1.23,0,0,0,1,.36h19.22a2.67,2.67,0,0,0,.4,0,.75.75,0,0,0,.36-.13c.34-.27.67-.57,1-.82Zm-.6,108.8L165.6,92.15a2.48,2.48,0,0,0,.25-.3s0,0,0-.06,0,0-.05-.1h-.43c-7.23,0-14.45,0-21.68,0a1.26,1.26,0,0,0-1,.44l-6.34,6.35c-4.93,4.92-9.84,9.85-14.78,14.76a1.12,1.12,0,0,0-.34,1.39,44.66,44.66,0,0,0,7.71,13C129.12,127.84,129.3,128,129.49,128.21Zm-33.12-.58s0,0,.06,0c.31-.35.62-.69.92-1a45.52,45.52,0,0,0,7.6-12.42c.24-.59.24-.59-.2-1l-.67-.66L83.83,92.16a1.35,1.35,0,0,0-1-.48c-7.22,0-14.45,0-21.68,0l-.65,0C72.5,103.75,84.42,115.67,96.37,127.63ZM84.9,87.37h7.91a14.13,14.13,0,0,0,1.46-.07,5.05,5.05,0,0,0,4.61-3.81,8.09,8.09,0,0,0,.27-1.83c0-.77,0-1.55,0-2.33a5,5,0,0,0-1.93-4.25c-.59-.5-.62-.79-.14-1.41a5.74,5.74,0,0,0,1.19-3.59V67.41a4.08,4.08,0,0,0-3-4.16,10.66,10.66,0,0,0-3.59-.61H76.22c-.79,0-1.07.3-1.11,1.1,0,.11,0,.22,0,.33V86c0,1.17.23,1.4,1.4,1.41H84.9ZM183.53,6.25,153.21,36.57l7.58,7.59a3.11,3.11,0,0,1,.36-.47Q172,32.88,182.79,22.07a2.34,2.34,0,0,0,.75-1.81c0-4.46,0-8.91,0-13.37ZM127.43,75V85.69a5.93,5.93,0,0,0,0,.73.88.88,0,0,0,.92.93,1.14,1.14,0,0,0,.26,0c1.2,0,2.4,0,3.6,0,.88,0,1.18-.32,1.2-1.21,0-.16,0-.32,0-.47,0-2.08,0-4.17,0-6.25,0-.86.2-1.07,1.05-1.07q4.26,0,8.51,0A2.61,2.61,0,0,1,145.65,81c0,.47,0,.94,0,1.4v3.53a4,4,0,0,0,0,.6c0,.53.3.84.84.85,1.41,0,2.83,0,4.25,0a.67.67,0,0,0,.19,0,.78.78,0,0,0,.6-.64,5,5,0,0,0,0-.67c0-2.08,0-4.17,0-6.25A4.31,4.31,0,0,0,150,76.22c-.49-.41-.51-.74,0-1.15a4.46,4.46,0,0,0,1.51-3.61V67.13a3.88,3.88,0,0,0-2.93-4,10,10,0,0,0-3.08-.48H129c-1.4,0-1.57.17-1.57,1.56Zm-61.36,27.9c-.09.08-.24.21-.38.35q-11,11-22,22a1.34,1.34,0,0,0-.42,1c0,4.59,0,9.18,0,13.77,0,.21,0,.42,0,.56l30.22-30.21Zm116.46,36.65v-.65c0-4.57,0-9.14,0-13.71a2.14,2.14,0,0,0-.69-1.65L161.34,103l-.54-.52-7.74,7.74q14.48,14.46,29,29A3,3,0,0,0,182.53,139.53ZM150.3,113l-7.54,7.54a4.42,4.42,0,0,1,.57.44l15.15,15.14,6.34,6.36a1.78,1.78,0,0,0,1.33.63h13.71a2.43,2.43,0,0,0,.47-.08ZM84.21,25.93c-.27-.31-.54-.64-.83-.94q-5.07-5.08-10.16-10.16C70,11.56,66.64,8.31,63.42,5a3.9,3.9,0,0,0-3.18-1.31c-4.16.1-8.33,0-12.5,0a1,1,0,0,0-.8.16L76.55,33.55ZM44.3,6.87v.6c0,4.48,0,9,0,13.44a2.17,2.17,0,0,0,.71,1.7q8.25,8.2,16.48,16.45,2.14,2.13,4.28,4.28c.17.17.35.32.49.45l7.49-7.5ZM47.4,142.5H61.51A1.94,1.94,0,0,0,63,141.9c.93-1,1.87-1.89,2.82-2.83q8.84-8.85,17.68-17.68l.59-.62-7.63-7.56C74.8,114.51,48,141.51,47.4,142.5ZM179.62,4.22c-.7,0-1.31,0-1.92,0-4,0-8,0-12,0a2.32,2.32,0,0,0-1.77.73q-3.82,3.89-7.69,7.73l-13,13c-.18.18-.35.38-.46.49l7.48,7.48Q164.82,19,179.62,4.22ZM106.67,70.44l.14,0a8.88,8.88,0,0,1,.55.7q4.94,7.53,9.87,15.07a2.41,2.41,0,0,0,2.27,1.22c1.19,0,2.39,0,3.59,0,1.36,0,1.57-.22,1.57-1.59V64.23c0-.2,0-.4,0-.6a.92.92,0,0,0-1-1c-1.19,0-2.39,0-3.59,0H120a.88.88,0,0,0-.94.91,5.93,5.93,0,0,0,0,.73V77.8a5.93,5.93,0,0,1,0,.73c0,.28.1.68-.33.77s-.46-.3-.6-.52q-2.41-3.7-4.81-7.43c-1.55-2.42-3.11-4.84-4.62-7.3a2.58,2.58,0,0,0-2.55-1.43c-1.12.07-2.26,0-3.39,0-.2,0-.4,0-.6,0a.83.83,0,0,0-.87.82,5.23,5.23,0,0,0,0,.79V85.76c0,.15,0,.31,0,.46,0,.83.32,1.13,1.14,1.14,1,0,2.09,0,3.13,0,.83,0,1.11-.31,1.14-1.13v-15A7.53,7.53,0,0,1,106.67,70.44ZM43.4,120.05l19.87-19.87-8-8c-.11.1-.29.26-.46.44-.36.38-.74.77-1.08,1.17a45.8,45.8,0,0,0-6.81,11,50,50,0,0,0-3.54,13.44A15.72,15.72,0,0,0,43.4,120.05ZM183.48,27c-6.68,6.69-13.35,13.35-19.93,19.93l7.82,7.81A43.7,43.7,0,0,0,183.48,27Zm-23.66,116.1-19.75-19.76-7.84,7.84A43.88,43.88,0,0,0,159.82,143.05ZM67.59,3.83,67.52,4,86.8,23.37l7.77-7.63c-3.26-3.48-9.48-7.34-15.1-9.4A41.71,41.71,0,0,0,67.59,3.83ZM56.23,53.9c1-.84,7.09-7,7.24-7.24L44.52,27.71A45.35,45.35,0,0,0,56.23,53.9Zm83.6-30.57L158.64,4.52a45.26,45.26,0,0,0-25.66,12Zm42.4,95a45.43,45.43,0,0,0-11.7-25.54l-6.92,6.92Zm-95.52,5.11L68.46,141.74a2.5,2.5,0,0,0-.22.24s0,.05,0,.07l.07.1a45.4,45.4,0,0,0,25.33-11.74Zm6.8-73.09a1.49,1.49,0,0,0,.12.14c2.56,2.57,5.14,5.14,7.7,7.72a1,1,0,0,0,.76.3h5.72a4.16,4.16,0,0,0,.46-.06c0-.17,0-.29,0-.42,0-2.49,0-5,0-7.45a1.6,1.6,0,0,0-.52-1.23c-2.1-2.07-4.18-4.16-6.26-6.24-.14-.14-.29-.27-.4-.37Zm39.82.41-7.62-7.62a.56.56,0,0,0-.13.1l-6.64,6.61a1.38,1.38,0,0,0-.41,1.08V58a3.56,3.56,0,0,0,.07.52c2.28,0,4.52,0,6.76,0a1,1,0,0,0,.55-.29q3.27-3.26,6.53-6.53Zm-32.33,53a2,2,0,0,0,.31-.25c2.2-2.19,4.38-4.39,6.58-6.58a1.42,1.42,0,0,0,.42-1.07c0-1.29,0-2.57,0-3.86a1.92,1.92,0,0,0-.05-.32,1.81,1.81,0,0,0-.29,0h-9.7a.86.86,0,0,0-.64.28c-1.35,1.37-2.72,2.73-4.08,4.09a.91.91,0,0,0-.12.17Zm25.13-.12L133.6,96c-1.41-1.4-2.76-2.75-4.09-4.1a.88.88,0,0,0-.73-.23h-9.7c-.17,0-.34,0-.55,0,0,1.23,0,2.42,0,3.62a1.74,1.74,0,0,0,.59,1.4c2.17,2.14,4.33,4.31,6.5,6.47C125.76,103.39,125.93,103.52,126.13,103.7ZM96.43,58.53c-1.94-2-3.77-3.84-5.64-5.65a70.52,70.52,0,0,0-5.6,5.65Zm39.74-5.19-5.11,5.15h10.27Zm-13,52.76a28.86,28.86,0,0,0-4.5-4.34,27.11,27.11,0,0,0,1.13,7.7Zm-15-62A38.76,38.76,0,0,0,107,37l-3,3Zm12-6.47a39.16,39.16,0,0,0-1.33,6.85l4-4.16Zm-16.39,69.09,2.73,2.7a28.61,28.61,0,0,0,1.36-6.79Zm-11.34-15a20.31,20.31,0,0,0-3.64,0l1.81,1.93Zm42.1,0,1.66,1.62a5.1,5.1,0,0,0,1.57-1.62Z"/><path d="M86.39,77.12h4.39a2.65,2.65,0,0,1,1.61.52,3.27,3.27,0,0,1,.31,4.22,2.69,2.69,0,0,1-1.87.77c-3,0-6,0-9,0-.67,0-.92-.26-.93-.93q0-1.83,0-3.66c0-.69.23-.91.94-.91,1.53,0,3.06,0,4.59,0Z"/><path d="M86.29,67.47c1.4,0,2.79,0,4.19,0a2.14,2.14,0,0,1,2.27,2,10.75,10.75,0,0,1,0,1.39A1.49,1.49,0,0,1,92,72.15a2.92,2.92,0,0,1-1.57.47H82.1a3.55,3.55,0,0,1-.46,0c-.55-.08-.76-.27-.77-.81,0-1.15,0-2.31,0-3.46,0-.53.24-.74.78-.81a5.72,5.72,0,0,1,.59,0h4.05Z"/><path d="M138.9,73.26h-4.06a3.88,3.88,0,0,1-.59,0c-.58-.06-.8-.28-.81-.85,0-1.39,0-2.79,0-4.18,0-.56.26-.79.82-.85a2.25,2.25,0,0,1,.26,0h8.58a2.05,2.05,0,0,1,2,1.18,3.49,3.49,0,0,1,.3,1.15,11.9,11.9,0,0,1,0,1.79,1.94,1.94,0,0,1-1.66,1.74,6.26,6.26,0,0,1-.86,0Z"/></g></svg>