<svg xmlns="http://www.w3.org/2000/svg" viewBox="0 0 226.6 226.6" fill="#4875FF"><g id="kiku_terazono" data-name="kiku+terazono"><path d="M34.23,118.17v-.47a2.18,2.18,0,0,0,.36-.57,1.6,1.6,0,0,1,1.71-1.25l7.21,0h5.76v-1.17q0-45.9,0-91.8c0-3-.59-2.47,2.44-4.36Q62.49,11.86,73.38,5.22c2.94-1.8,5.94-3.48,8.91-5.22h63.29c.78.37,1.59.68,2.32,1.11,9.39,5.61,18.76,11.25,28.16,16.82a2.78,2.78,0,0,1,1.55,2.74c-.05,5.89-.06,11.78-.06,17.68q0,38.22,0,76.45c0,1.12,0,1.13,1.14,1.12,3.7,0,7.4,0,11.1,0a2.75,2.75,0,0,1,2.6,1.19v1.11c-.22.15-.44.29-.65.45l-9.26,7.45-2.21,1.78a1.52,1.52,0,0,0,.2.24q5.63,4.42,11.28,8.85a2.62,2.62,0,0,0,.64.27v1.43a3.1,3.1,0,0,1-2.89,1.25c-3.51-.07-7-.11-10.54-.09a4.22,4.22,0,0,0-1.93.52c-1.83,1-3.6,2.12-5.39,3.19-.19.11-.37.25-.61.42,1.9,1.81,3.72,3.57,5.58,5.3a3.15,3.15,0,0,1,1.11,2.51q-.06,2-.06,4c0,5.36,0,10.73.07,16.09a4.28,4.28,0,0,1-2.3,4.09q-27.43,16.49-54.84,33c-2.11,1.28-4.17,2.66-6.25,4h-1.74c-1.42-.91-2.82-1.86-4.26-2.73Q79.95,193,51.54,175.93a4.6,4.6,0,0,1-2.45-4.53c.1-5.6.07-11.21-.06-16.81-.07-2.86.49-5.26,2.88-7.15a33.41,33.41,0,0,0,3.55-3.81c-1.9-1.08-3.66-2.16-5.48-3.1a5.59,5.59,0,0,0-2.4-.62c-3.33-.07-6.66,0-10,0a3.43,3.43,0,0,1-3.36-1.57v-.64l12.37-9.84-3.38-2.66ZM61.8,47a1.36,1.36,0,0,0-.31,0c-1.84,1-3.68,2.06-5.51,3.11a1.85,1.85,0,0,0-1,1.62c0,1.32,0,2.64,0,4V133a7.51,7.51,0,0,1,0,.95,2.83,2.83,0,0,0,1.6,3q27.71,16.49,55.38,33a2.57,2.57,0,0,0,3,0Q142.44,153.43,170,137a3.38,3.38,0,0,0,1.84-3.27q0-40.72,0-81.45V51.6a2.33,2.33,0,0,0-1.3-2.19c-7.42-4.2-14.83-8.42-22.26-12.6a5.56,5.56,0,0,0-2.33-.64c-2.08-.1-4.17-.08-6.26-.08q-17.88,0-35.77,0-11,0-22,.07a4.66,4.66,0,0,0-2.13.48c-5.51,3.08-11,6.22-16.46,9.35a5.58,5.58,0,0,0-.6.49l.09.17H165v.92q0,33,0,65.9c0,6.77,0,13.54,0,20.3a3.23,3.23,0,0,1-1.77,3.15q-24.1,14.31-48.17,28.71a3,3,0,0,1-3.39,0q-15.86-9.51-31.76-19c-5.29-3.15-10.56-6.31-15.88-9.42a4.27,4.27,0,0,1-2.32-4.08c0-2.62.06-5.24.06-7.85V47ZM174.9,152.64l-5.79,3.47q-26.19,15.76-52.37,31.57a5.85,5.85,0,0,1-6.71,0q-28.4-17.19-56.85-34.27c-.36-.21-.73-.38-1.19-.63v.76c0,5.81,0,11.63,0,17.44a3,3,0,0,0,1.6,2.84q29.06,17.46,58.09,35a3.08,3.08,0,0,0,3.53,0q29-17.46,58-34.87a3.33,3.33,0,0,0,1.81-3.16c-.06-5.66,0-11.31,0-17Zm-68-11v1q0,7.92,0,15.86A8.24,8.24,0,0,0,107,160a1.39,1.39,0,0,0,.4.83c1.33.89,2.69,1.72,4.14,2.64V102.5h-4.8v19.27c-1.34-.17-1.6-.47-1.6-1.78V102.44h-4.44v3.78l-1.63.25v-4.13c-1.12,0-2.15,0-3.17,0a1.11,1.11,0,0,0-1.11.57c-.44.69-1,1.35-1.43,2l-.3-.08-.14-2.44H88.61c0,1.17,0,2.28,0,3.39a31.58,31.58,0,0,1-.3,3.76c-.18,1.09-.45,2.13.25,3.13a.65.65,0,0,1,.07.37c0,2,0,4.07,0,6.11a2,2,0,0,1-1.87,2V102.49H82.45V141.6c0,1.09,0,2.17,0,3.25a2.1,2.1,0,0,0,.51,1.41c1.21.88,2.52,1.61,4,2.51v-4.91a6.91,6.91,0,0,0,.73.23c.71.14,1,.51.92,1.27a30.84,30.84,0,0,0,0,3.33c0,.37.09.92.34,1.08,1.26.84,2.6,1.58,3.91,2.35,0,0,.09,0,.24-.11v-9.4c.78.4.64,1,.69,1.51.31,2.81.56,5.62.86,8.43a1.29,1.29,0,0,0,.38.89c1.28.87,2.61,1.66,4,2.55v-1c0-4,0-7.93,0-11.9a8.43,8.43,0,0,1,0-.87c.06-.66.54-.59,1-.58s.72.16.69.7c0,1,0,2,0,2.94,0,3.43,0,6.87,0,10.31,0,.52.09,1.25.43,1.51,1.18.91,2.49,1.65,3.89,2.54v-3.34c0-4.49,0-9,0-13.48a1,1,0,0,1,.31-.78A7.45,7.45,0,0,1,106.9,141.59Zm47.78,12c-.71.39-1.22.66-1.71.95q-18.75,11.1-37.48,22.21a3.71,3.71,0,0,1-4.2,0Q92.57,165.57,73.81,154.5c-.51-.3-1-.57-1.68-.91v1.56a17.86,17.86,0,0,1-.06,2.93c-.42,2.4.54,4,2.57,5.19Q92.7,174,110.73,184.71c2.91,1.74,2.79,1.48,5.24,0q13.08-7.83,26.19-15.61l11.16-6.65c.69-.41,1.33-.89,1.34-1.74C154.7,158.4,154.68,156.08,154.68,153.55ZM115.24,68.24c0-.6.05-1.08.09-1.55.25-3,.49-6,.78-9a2.12,2.12,0,0,0-.53-1.54,3.45,3.45,0,0,0-3.71-1.59,2.54,2.54,0,0,1-.87,0,3.62,3.62,0,0,0-4.06,1.8,1.93,1.93,0,0,0-.38,1c.16,2.31.38,4.63.57,7q.15,1.9.3,3.84h-.52c-3.4-.28-6.79-.59-10.19-.84a1.93,1.93,0,0,0-1.12.35,3.62,3.62,0,0,0-1.82,4.06,2.13,2.13,0,0,1,0,.87,3.59,3.59,0,0,0,1.69,3.83,1.85,1.85,0,0,0,1.34.45c2.13-.21,4.27-.39,6.4-.57l4.17-.33c0,.27,0,.46,0,.63-.27,3.37-.57,6.74-.81,10.12a2.13,2.13,0,0,0,.37,1.11A3.63,3.63,0,0,0,111,89.71a2.18,2.18,0,0,1,.72,0A3.5,3.5,0,0,0,115.65,88a2.38,2.38,0,0,0,.43-1.25c-.22-3-.5-6.1-.75-9.16,0-.49,0-1,0-1.52l.73.06c2.76.23,5.55.31,8.28.74a4.11,4.11,0,0,0,4.18-1.61s0,0,.06,0a2.59,2.59,0,0,0,.31-.76c0-1.53,0-3.06,0-4.6a1.16,1.16,0,0,0-.29-.68c-.56-.56-1.14-1.09-1.75-1.61a1,1,0,0,0-.63-.19c-1.35.09-2.69.22-4,.34Zm43.37-19.75V98.73H163V48.49ZM132.1,98.75V48.51c-1.19,0-2.29.05-3.39,0-.71,0-.89.2-.88.89,0,4.52,0,9,0,13.55,0,1.17-.3,2.47.13,3.45s1.59,1.63,2.43,2.43c.06.06.13.1.16.17a2.72,2.72,0,0,1,.41,1q.06,2.18,0,4.35a1.52,1.52,0,0,1-.41.95c-.74.75-1.56,1.42-2.31,2.17a1.37,1.37,0,0,0-.39.86q0,10,.09,20a2.2,2.2,0,0,0,.09.43Zm-55.76,3.73V105q0,17.49.06,35c0,2.77-.35,2.1,2,3.66.67.43,1.36.82,2.12,1.27V102.48Zm80-3.73V48.56h-4.07v1.06c0,5.87.07,11.74,0,17.61A4.54,4.54,0,0,0,154,71.34a1.58,1.58,0,0,1,.47,1.14c0,1.08-.17,2.17-.1,3.24.1,1.56-.21,2.83-1.68,3.66a.66.66,0,0,0,0,1.22,3.48,3.48,0,0,1,1.68,3.74,5.45,5.45,0,0,0,.1,1.66,3.47,3.47,0,0,1-1.53,3.81,1.52,1.52,0,0,0-.61,1.44c0,2.22,0,4.44,0,6.67a7.91,7.91,0,0,0,.06.83Zm-88,3.64c-1.33,0-2.61,0-3.9,0-.77,0-1,.23-1,1,0,9.53,0,19.07,0,28.61,0,3-.42,2.52,2.43,4.27.78.48,1.57.93,2.41,1.42ZM144.1,84.58l2,2.28c1.72,2,1.72,2,4.33,2a1.14,1.14,0,0,0,.69-.25c2.06-1.82,2.07-1.82,1.82-4.5a1.65,1.65,0,0,0-.49-1c-1.2-1.07-2.44-2.09-3.72-3.17L151,78c2-1.67,2-1.66,2-4.22a1.59,1.59,0,0,0-.31-.83,3.92,3.92,0,0,0-4.38-1.82,1.79,1.79,0,0,0-1.11.59c-1,1.22-2,2.42-3.1,3.68-1-1.22-2-2.37-3-3.55a1.51,1.51,0,0,0-1.39-.71c-.54,0-1.11-.11-1.65-.06a2.39,2.39,0,0,0-1.09.42,3.7,3.7,0,0,0-1.7,4.19,2.35,2.35,0,0,0,.54,1.12c1.19,1.08,2.44,2.09,3.66,3.11,0,.08,0,.11-.06.13-1.22,1-2.46,2.07-3.66,3.15a1.77,1.77,0,0,0-.47,1,9.21,9.21,0,0,0-.08,1.89,2,2,0,0,0,.38,1,3.72,3.72,0,0,0,4.23,1.74s.06,0,.08,0a3,3,0,0,0,1-.49C142,87.14,143,85.9,144.1,84.58Zm-62,0a21.86,21.86,0,0,1,2,2.35,3.88,3.88,0,0,0,4.15,2,2.32,2.32,0,0,0,1-.36,3.74,3.74,0,0,0,1.74-4.31,2.26,2.26,0,0,0-.52-1c-1.19-1.07-2.44-2.09-3.65-3.12,0-.1.07-.16.11-.19a27.9,27.9,0,0,1,2.36-2A3.61,3.61,0,0,0,91,74.35a3,3,0,0,0-.66-1.74,3.63,3.63,0,0,0-3.91-1.45,2,2,0,0,0-1.33.67c-1,1.2-2,2.37-3,3.55a1.13,1.13,0,0,1-.19-.14,20.22,20.22,0,0,1-2-2.37,3.72,3.72,0,0,0-3.7-1.8,2.35,2.35,0,0,0-1.46.56,3.77,3.77,0,0,0-1.58,4A2.11,2.11,0,0,0,73.94,77c1.19,1,2.34,2,3.55,3a23.59,23.59,0,0,1-2.19,1.83,4,4,0,0,0-2.14,4.23,2.56,2.56,0,0,0,.38,1,3.83,3.83,0,0,0,4.24,1.76A1.82,1.82,0,0,0,79,88.25C80,87,81,85.83,82.06,84.57Zm-7.62,56.71V102.34H71.55c-1.23,0-1.23,0-1.23,1.25,0,7.75,0,15.49,0,23.24,0,3.54,0,7.08,0,10.62,0,.5.08,1.21.41,1.45C71.84,139.76,73.11,140.46,74.44,141.28ZM69.6,160.1c0-2.59,0-5,0-7.49a1.26,1.26,0,0,0-.57-.88q-5.13-3.07-10.31-6.07a1.26,1.26,0,0,0-1.15,0c-1.48,1.41-2.89,2.89-4.34,4.38Zm103.69-9.88c-1.59-1.57-3.06-3.05-4.56-4.5a.8.8,0,0,0-.72-.08c-3.37,2-6.72,4-10.07,6a1.51,1.51,0,0,0-.79,1.44c0,1.8,0,3.59,0,5.39v1.67Zm-29.18-78c.13-.19.31-.33.31-.48q0-11.58,0-23.17h-4.32V69.74a5.18,5.18,0,0,0,.71.05,2,2,0,0,1,2.12,1A12.76,12.76,0,0,0,144.11,72.17Zm-5.83-2.41c0-.4,0-.59,0-.77V57.1c0-2.61,0-5.23,0-7.85,0-.26-.25-.74-.39-.75-1.28-.06-2.56,0-3.82,0V71.32A3.59,3.59,0,0,1,138.28,69.76Zm12.17-.05V48.53h-4.24V69.71Zm-28.69,9v1.06c0,5.39,0,10.78,0,16.16,0,.63-.1,1.27-.09,1.89s.24,1,.86,1c1.1,0,2.2,0,3.42,0V79Zm10.36,36-.1,1.2a15,15,0,0,1-3.75-.29,14.08,14.08,0,0,1-3-2,8.07,8.07,0,0,0,.85,2c.7,1.17.59,1.52-.62,2.24a6.89,6.89,0,0,0-1.58,1.27c-.82.92-1.53,1.94-2.33,2.89s-1.47,1.62-2.31,2.54a6.83,6.83,0,0,0,3.79-1.63c1-.77,1.89-1.61,2.86-2.38a.79.79,0,0,1,.72-.1c.6.41,1.14.91,1.76,1.42l-2.9,2.37.12.23a6.57,6.57,0,0,0,1.8-.41c1.71-.94,3.12-.54,4.59.58a7.78,7.78,0,0,0,8.81.23,28.56,28.56,0,0,1-9.48-4.24,14.72,14.72,0,0,1,.92-1.82,14.56,14.56,0,0,1,1.71-2.12c.48-.48.58-.81,0-1.16A18.3,18.3,0,0,0,132.12,114.63ZM126,48.52h-4.21V65.58l4.21-.35Zm6.54,92.84c-.16-1.11-.28-2.18-.47-3.23A2.07,2.07,0,0,0,130,136.2c-.65-.06-1,.16-.89.84.3,2,.58,4,.94,5.94.17,1,.63,1.25,1.64,1.16.74-.07,1.47-.17,2.2-.28,1.47-.2,2.93-.39,4.39-.64.9-.16,1.08-.49.77-1.3a2.42,2.42,0,0,1,.39-2.39c.44-.6.89-1.18,1.28-1.81s.37-1.15-.37-1.58c-.94-.54-1.91-1-2.89-1.46a1,1,0,0,0-.75,0c-1.38.63-2.75,1.3-4.3,2a7.13,7.13,0,0,0,1.44,1.46,6.75,6.75,0,0,0,1.91.39C135,139.75,134.42,141.15,132.57,141.36Zm-13.9,2.73a2.54,2.54,0,0,0,3,.22c.68-.35,1.38-.67,2.21-1.07-.07,1.46-.13,2.7-.21,3.93a1.8,1.8,0,0,0,.75,1.77c1-.5,1.28-.82,1.42-1.84.08-.52.12-1,.19-1.57.17-1.56.35-3.13.54-4.74.22.07.37.17.51.15.44-.06.87-.17,1.3-.26-.24-.38-.47-.76-.72-1.13,0-.05-.14-.07-.21-.1-1.06-.43-1.25-1-.59-1.92.36-.54.88-1,1.29-1.49.67-.82.57-1.44-.39-1.79-1.26-.47-2.58-.8-3.93-1.21,0,.23,0,.34,0,.43.29,1.63.23,1.76-1.25,2.43-1.24.57-2.48,1.12-3.77,1.7,1,1.84,2.59,2.13,4.48,1.67A8.54,8.54,0,0,1,118.67,144.09Zm-3.52-45.42h4.75V78.5l-2.39-.18c.24,2.83.48,5.56.67,8.29a1.57,1.57,0,0,1-.34,1c-.72.87-1.53,1.68-2.28,2.53a1.4,1.4,0,0,0-.39.81C115.14,93.52,115.15,96.06,115.15,98.67Zm4.31,12a28.08,28.08,0,0,0-.68,3.26,2.68,2.68,0,0,0,.61,1.6,1.36,1.36,0,0,0,1.14.25c.19,0,.39-.53.43-.84.21-1.5.45-1.74,2-2,2.41-.33,4.81-.7,7.21-1,1.69-.24,3.38-.45,5.13-.67-.06.63-.27.91-.81.88a5.89,5.89,0,0,0-1.26,0,.86.86,0,0,0-.57.46,8.18,8.18,0,0,0-.2,1.4c1.21-.36,2.27-.65,3.32-1s1.83-.62,2.72-1a1.58,1.58,0,0,0,.88-.75c.07-.2-.34-.67-.64-.85a5.56,5.56,0,0,0-3.52-.59c-1.64.14-3.27.24-4.9.34a2.91,2.91,0,0,1-.71-.19c1.74-1.32,3.76-1.9,5.15-3.44-1.54-1.41-2.7-1.2-3.59.56-.16.3-.3.61-.48.91a4.89,4.89,0,0,1-3.4,2.49c-1.8.35-2,.21-2.46-1.56a6.4,6.4,0,0,0-.5-1.41c-.29-.57-1.29-.91-1.61-.5a1.79,1.79,0,0,0-.08,1.34,5.05,5.05,0,0,0,.67,1.16c.76,1.24.52,1.75-.94,1.69A16.58,16.58,0,0,1,119.46,110.62Zm-3.4-80.18,0-.26a2.24,2.24,0,0,1-.71-.18c-.27-.19-.67-.47-.68-.72-.06-1.6,0-3.2,0-4.8h5.23c0,1.51,0,3,0,4.41,0,.73-.27,1.16-1,1.19-.14,0-.28.12-.5.22.86.37,4.68.31,5.14-.07a1.15,1.15,0,0,0-.36-.15c-.82,0-1.1-.46-1.1-1.22,0-2.91,0-5.81,0-8.72,0-.69.24-1.11,1-1.14.14,0,.26-.17.55-.37h-5l0,.24a1.64,1.64,0,0,1,.58.18c.27.19.71.44.72.68.07,1.36,0,2.72,0,4.08h-5.22c0-1.31,0-2.55,0-3.79a.87.87,0,0,1,.89-1,1.57,1.57,0,0,0,.52-.22l-.06-.2h-4.83a1,1,0,0,0,0,.28.31.31,0,0,0,.19.11c1.08,0,1.13.7,1.12,1.5q0,4.1,0,8.17c0,.82-.17,1.42-1.14,1.44-.09,0-.18.12-.46.34ZM120,48.58h-4.81c0,1.63,0,3.18,0,4.74a1.33,1.33,0,0,0,.38.73c.77.87,1.58,1.71,2.34,2.58a1.22,1.22,0,0,1,.31.82c-.07,1.34-.22,2.68-.33,4s-.23,2.93-.35,4.45a14.52,14.52,0,0,1,1.55-.1c.73,0,.91-.27.91-1,0-5.15,0-10.31,0-15.46ZM177.76,129v8.25h10l.08-.16ZM39.06,118.45l-.08.17,10.1,8.12v-8.29Zm97.39-99.84h-8.92c.16.2.22.34.31.37,1.22.4,1.22.39,1.22,1.66v7.85c0,1.27,0,1.26-1.2,1.62-.08,0-.15.11-.41.31h9.19c.1-1.07.21-2.17.29-3.27,0-.12-.15-.25-.24-.38a1.3,1.3,0,0,0-.34.32,5.43,5.43,0,0,0-.17.61c-.28.88-.65,1.79-1.6,2a28.63,28.63,0,0,1-3.38.43V24.42a11.61,11.61,0,0,1,2.6.4c.38.14.52.88.79,1.34.06.1.23.23.28.2s.25-.19.25-.3c0-1.28,0-2.56,0-3.84l-.3-.09a3,3,0,0,0-.33.68,1.28,1.28,0,0,1-1.09,1.11c-.72.09-1.46.09-2.21.13v-5c.79,0,1.53,0,2.26,0A2.47,2.47,0,0,1,136,21.12a3.16,3.16,0,0,0,.13.53c.07.13.23.22.34.33.1-.13.27-.26.27-.38C136.63,20.6,136.53,19.6,136.45,18.61Zm51.44,99.92H177.77v8.17ZM49,129l-10.19,8.21H49ZM103.35,18.59a1.09,1.09,0,0,0,0,.27c0,.06.11.14.17.14,1.07.07,1.38.81,1.38,1.69,0,2.19,0,4.39-.12,6.57a2.9,2.9,0,0,1-3,2.85,2.73,2.73,0,0,1-3-2.71c-.18-2.49-.11-5-.13-7.51A.83.83,0,0,1,99.5,19a2.08,2.08,0,0,0,.55-.25L100,18.6H95c.14.2.19.35.28.38,1.17.43,1.17.42,1.18,1.69,0,2.16,0,4.33.07,6.49a3.33,3.33,0,0,0,2.2,3.19,6.45,6.45,0,0,0,3.81.32,3.48,3.48,0,0,0,2.88-2.9,13.54,13.54,0,0,0,.18-2.21c.05-1.68,0-3.37.1-5.06A1.32,1.32,0,0,1,107,19l.54-.08-.31-.36Zm36.83,71.57v8.52h4.26c0-3.43,0-6.8,0-10.18a2.56,2.56,0,0,0-.26-.7C143,89,142.35,90.85,140.18,90.16ZM79.44,18.59c.14.23.17.37.23.39a2.64,2.64,0,0,1,1.6,1.45c.93,1.53,1.87,3.06,2.78,4.6a1.88,1.88,0,0,1,.26.89c0,.89,0,1.79,0,2.69,0,1.13-.12,1.22-1.21,1.46a2.51,2.51,0,0,0-.42.19c.65.41,4.89.37,5.34-.05-.14-.05-.25-.11-.37-.14-1.13-.22-1.23-.33-1.24-1.49s0-2.12,0-3.17a1.58,1.58,0,0,1,.19-.75c.87-1.41,1.76-2.82,2.68-4.2A3,3,0,0,1,91.19,19c.12,0,.2-.21.37-.4H87.22l-.06.21a3.55,3.55,0,0,0,.54.21c.93.22,1.18.58.74,1.38-.73,1.31-1.54,2.57-2.38,3.95-.88-1.47-1.7-2.81-2.47-4.18-.38-.66-.21-.94.51-1.15a3.23,3.23,0,0,0,.57-.26l-.07-.18Zm54.8,70-.2.13v10c1.27,0,2.49,0,3.7,0,.49,0,.55-.26.55-.65,0-1.61,0-3.22,0-4.83v-3a6.72,6.72,0,0,1-2.44-.06C135.21,90,134.77,89.15,134.24,88.57Zm12,1.72v8.45h4.23V90.29Zm.49-60.05A5.42,5.42,0,0,0,146,30a.89.89,0,0,1-.87-1q0-4.47,0-8.94a.94.94,0,0,1,1-1.07c.16,0,.31-.18.46-.27l-.08-.13h-5c.16.2.23.37.3.37,1.14,0,1.25.74,1.25,1.59,0,2.64,0,5.28,0,7.92,0,1.29-.06,1.3-1.31,1.61a1,1,0,0,0-.26.15C141.93,30.62,145.88,30.66,146.74,30.24Zm-25.59,101.6v.2c.91.17,1.82.37,2.74.52a7.37,7.37,0,0,0,4.57-.28c.37-.18.87-.8.79-1a2.9,2.9,0,0,0-1.1-1.07c-.17-.12-.52,0-.77,0-2,.45-3.89.92-5.84,1.4A2.18,2.18,0,0,0,121.15,131.84Zm3.1-25.7c1.5,1,5.46.52,6.88-.7-.58-1.3-1.1-1.43-2.33-.88s-2.61.94-3.92,1.4Zm9.82-27.95v3.69L136.29,80l-1.93-1.64A2.61,2.61,0,0,0,134.07,78.19ZM122.33,113.8c.16.92.23,1.59.41,2.24a1,1,0,0,0,.6.61c.16,0,.48-.27.61-.5a1.11,1.11,0,0,0-.35-1.64A13.61,13.61,0,0,0,122.33,113.8Zm4.26-6.39c.4.72.76,1.4,1.17,2a.76.76,0,0,0,.6-.15C129,108.14,128.23,107.29,126.59,107.41Zm1.78,5.3-.16.27a11,11,0,0,0,1.25,1.21c.45.33.83.11,1.06-.38s-.05-.76-.46-.86S128.94,112.79,128.37,112.71Z"/><path d="M152.92,172.92l.73,1.22,3.46-2.1c.52-.32,1-.44,1.46.13a1,1,0,0,1-.27,1.59c-1,.58-1.91,1.13-2.86,1.7l-.71.47.74,1.27c1.33-.8,2.61-1.58,3.91-2.34.56-.34,1.09-.4,1.5.25a.88.88,0,0,1-.26,1.37q-2.3,1.4-4.62,2.76a.92.92,0,0,1-1.36-.37c-1.22-2-2.42-4-3.62-6a.91.91,0,0,1,.35-1.36q2.24-1.35,4.49-2.68a.89.89,0,0,1,1.34.4.86.86,0,0,1-.32,1.34C155.58,171.33,154.27,172.11,152.92,172.92Z"/><path d="M73.11,174.14l.75-1.21c-1.27-.77-2.52-1.49-3.74-2.26a1.45,1.45,0,0,1-.65-.8,1.35,1.35,0,0,1,.43-1,1.11,1.11,0,0,1,1,0c1.52.85,3,1.75,4.5,2.66a.94.94,0,0,1,.33,1.43q-1.75,3-3.53,5.91a1,1,0,0,1-1.47.4l-4.48-2.68a.9.9,0,0,1-.36-1.4.93.93,0,0,1,1.42-.33c1.32.78,2.62,1.58,4,2.41l.78-1.31c-1.16-.69-2.3-1.34-3.4-2.05A1.55,1.55,0,0,1,68,173a1.3,1.3,0,0,1,.44-1,1.25,1.25,0,0,1,1.07,0C70.7,172.66,71.86,173.39,73.11,174.14Z"/><path d="M98.15,195.29a3.68,3.68,0,0,1-3.32-5.52c.74-1.37,1.57-2.69,2.37-4,.24-.39.58-.89,1-.53a1.4,1.4,0,0,1,.28,1.24,7.6,7.6,0,0,1-.87,1.67c-.41.71-.85,1.4-1.25,2.12a1.64,1.64,0,0,0,.6,2.5,4.33,4.33,0,0,0,.75.44,1.62,1.62,0,0,0,2.37-.68c.74-1.15,1.42-2.35,2.14-3.51.28-.45.47-1.11,1.23-.71.56.29.57.68.06,1.54-.73,1.22-1.49,2.43-2.19,3.67A3.37,3.37,0,0,1,98.15,195.29Z"/><path d="M144,182.14,140.88,184c.45.77.93,1.49,1.3,2.26.16.31.23.93.06,1.09a.84.84,0,0,1-1.29-.3c-1.22-2-2.43-4-3.56-6a1.33,1.33,0,0,1,.22-1.25c.5-.4.83.14,1.08.55.38.6.74,1.21,1.14,1.88l3.17-1.87c-.22-1.13-1.58-1.91-.87-3.23,1.71.66,4.78,5.82,4.49,7.57C145,184.68,145.06,182.88,144,182.14Z"/><path d="M129,195.3c-1.73,0-2.73-.45-3.39-1.55-.75-1.25-1.54-2.47-2.2-3.76a4.94,4.94,0,0,1-.2-1.62,5.07,5.07,0,0,1,1.42.9c.71.95,1.25,2,1.89,3,.83,1.31,1.63,1.47,3,.65s1.52-1.6.73-3c-.57-1-1.19-1.94-1.7-2.95a3.6,3.6,0,0,1-.27-1.43.66.66,0,0,1,.41-.48.67.67,0,0,1,.59.26c1.07,1.84,2.2,3.66,3.11,5.58a2.73,2.73,0,0,1-.2,2.1A3.83,3.83,0,0,1,129,195.3Z"/><path d="M84.62,177.11a1.55,1.55,0,0,1-.14,1.89c-.8,1.29-.8,1.29.48,2.06l1.88,1.13c.85-.75,1-2.32,2.7-2.26a6.28,6.28,0,0,1-.38,1.55q-1.45,2.6-3.06,5.09a5.18,5.18,0,0,1-1.24,1c-.65-1.59.52-2.44,1-3.62l-3.07-1.83c-1,.77-1,2.43-2.52,2.61C79.76,183.19,82.85,177.82,84.62,177.11Z"/><path d="M108.9,192.66c1.54-.5,2-.35,2.84.85l1.6,2.28c.48-.6.86-1.16,1.3-1.65a18.45,18.45,0,0,1,1.63-1.56c.19-.16.53-.14.8-.21l.18.19a19.8,19.8,0,0,1-1.57,2.3,7.76,7.76,0,0,0-2.08,5,3.85,3.85,0,0,1-.41,1.11h-.27a3.55,3.55,0,0,1-.33-1.05,6.79,6.79,0,0,0-1.36-4.06C110.49,194.8,109.71,193.77,108.9,192.66Z"/><path d="M61.55,163.34a4.88,4.88,0,0,1-.28,1.51c-1.2,2.16-2.47,4.28-3.72,6.42a1.07,1.07,0,0,1-.77-1.69c1.13-1.93,2.28-3.86,3.46-5.76.19-.3.61-.46.93-.69Z"/><path d="M165.6,163.12a6.21,6.21,0,0,1,1.18,1.1c1.13,1.77,2.2,3.59,3.28,5.39.22.38.57.81,0,1.14a.86.86,0,0,1-1.22-.36c-1.18-1.93-2.35-3.87-3.47-5.84-.18-.32-.06-.8-.08-1.21Z"/><path d="M94.34,105.24c1.65-.2,2,.12,3.35,2.78,1.06-.1,2.1-.2,3.13-.28.19,0,.42-.06.55,0,.41.28,1,.57,1.1,1s-.35.93-.72,1.15a15.41,15.41,0,0,1-2.33,1c-.52.2-1.07.32-1.57.55a3.47,3.47,0,0,0-2.08,3.15c.62-.28,1.17-.49,1.69-.77a3.71,3.71,0,0,1,2.61-.32c1.28.26,1.61.75,1.38,2s-.44,2.28-.68,3.42-.09,1.48,1,2l7.37,3.46a8.34,8.34,0,0,1-8.58.16,5.93,5.93,0,0,0-5-.86,10,10,0,0,1-2.62,0l-.06-.34L95,122.27c.92-.45,1-.75.3-1.45-.48-.49-1-.93-1.56-1.42-2,1.83-3.71,4.38-7.38,3.77,3.92-2,4.85-5.94,6.57-9.33-2.4-.72-3.1-1.27-3.56-2.85,1.07-.34,2.13-.72,3.22-1a1.62,1.62,0,0,0,1.32-1.56C94,107.35,94.18,106.28,94.34,105.24Zm.7,11.58,2.53,1.84.83-3.29Z"/><path d="M94.67,141.08l-4.16,1.32-.3.1c-2.45.85-3.14.54-4.15-2,.39-.09.76-.16,1.12-.27q3.27-1.06,6.52-2.16a1.56,1.56,0,0,0,1.1-1.5c0-1.24,0-2.48,0-3.72a6.1,6.1,0,0,1-1.31-.41,3.82,3.82,0,0,1-1.3-1.08c-.75-1.14-.45-1.69.89-1.94s2.7-.49,4-.83a5.11,5.11,0,0,1,4.24,1c-1.79,1.19-3.91,2.13-3.1,4.95,1.21-.24,1.32-1.45,1.95-2.26l2.59,1.51c-1.52,1.21-3,2.38-4.43,3.56a2.52,2.52,0,0,0-.39.59,3,3,0,0,0,.65.09c1.27-.07,2.53-.17,3.79-.27a6.41,6.41,0,0,1,4,1.31c.16.11.31.56.22.67a2.67,2.67,0,0,1-1,1,4.1,4.1,0,0,1-1.49,0c-1.53-.06-3.06-.15-4.59-.19-1.22,0-1.47.24-1.51,1.48,0,1.66-.09,3.33-.14,5a6.74,6.74,0,0,1-.13,1.1c-.3,1.48-.75,1.86-2.39,2Z"/><path d="M88.53,124.58c0,.32.08.66.08,1v11.88c0,.65,0,1.28-.89,1.44-.51.1-.75-.06-.75-.59,0-.92,0-1.84,0-2.77,0-3.22,0-6.43,0-9.65C86.91,124.67,87.19,124.44,88.53,124.58Z"/><path d="M106.71,126.62v11c-1.07-.05-1.54-.48-1.54-1.49,0-2.75,0-5.5,0-8.24C105.18,126.6,105.37,126.47,106.71,126.62Z"/><path d="M93.23,135.46a7,7,0,0,1-.4,1.55c-.19.35-.61.76-.94.77a1.44,1.44,0,0,1-1.13-.6,14.2,14.2,0,0,1-.69-2.44Z"/><path d="M93.17,125h1.36c.45,2.12.19,2.85-1.17,3.43A6.78,6.78,0,0,1,93.17,125Z"/><path d="M100.59,127.49c-1.46.17-1.82-.42-1.31-2.08C100.72,125.61,101,126,100.59,127.49Z"/><path d="M114,87.53h-5.41l1.16-13.86L96,74.82V69.43l13.83,1.15-1.16-13.81H114l-1.16,13.81,13.81-1.15v5.39l-13.81-1.15C113.26,78.32,113.65,82.89,114,87.53Z"/><path d="M138.91,87.38l-2.15-2.21,6.1-5.17-6.12-5.18L139,72.69l5.15,6.07c1.74-2.06,3.44-4.07,5.16-6.09l2.11,2.22-6,5.11,6.11,5.18-2.19,2.16c-1.71-2-3.42-4-5.16-6.1Z"/><path d="M89.42,85.19l-2.16,2.2-5.2-6.15-5.17,6.11L74.8,85.1l6-5.1-6.1-5.16,2.22-2.12,5.12,6,5.13-6.06,2.12,2.21c-1.91,1.62-3.93,3.34-6,5.09Z"/><path d="M127.57,118.26l1.87-.89a13.27,13.27,0,0,1,.48,1.82c.07.47-.26.51-.6.28C128.77,119.1,128.23,118.72,127.57,118.26Z"/></g></svg>