<svg xmlns="http://www.w3.org/2000/svg" viewBox="0 0 226.6 226.6" fill="#4875FF"><g id="yaoi"><path d="M84.62,115.5c-.53-3.06-1-6.14-1.63-9.16A7.28,7.28,0,0,0,81.24,103,104.49,104.49,0,0,1,69.72,89.05a20.33,20.33,0,0,1-.15-22.79A17.54,17.54,0,0,1,75.5,61L77.18,60c-3.51-2.41-4-3.28-3.14-5.12A3.23,3.23,0,0,1,78,53.21c1.91.62,2.19,1.73,1.46,6,1.12-.12,2.22-.26,3.32-.34a14.11,14.11,0,0,1,7.76,1.58,1.38,1.38,0,0,0,1.8-.18c1.26-1.05,2.58-2,3.68-2.9a18.69,18.69,0,0,1-2.7-2.72,3.06,3.06,0,0,1,0-2.25,3.16,3.16,0,0,1,3.92-1.92c1.88.53,2.26,1.75,1.7,5.67,3.44-.76,6.84-1,10.16.74a17.2,17.2,0,0,0,2.4-7.92c-2.69.05-4.94,1.27-7.38,2.37V42.49c1.28.52,2.55,1,3.83,1.54a10.52,10.52,0,0,0,1.81.56,8.11,8.11,0,0,0,1.48,0,5.53,5.53,0,0,0-.1-1.53c-.53-1.56-1.14-3.09-1.73-4.63-.1-.27-.22-.52-.38-.91h8.69l-2.43,7,.32.48,7.11-2.37v8.46l-7-2.42-.53.46L117.5,57a14.38,14.38,0,0,1,10.67-.7c-1.08-3.43-.79-4.78,1.15-5.65A3.27,3.27,0,0,1,133.4,52c1,1.76.44,3-2.77,5.37,1.39,1.09,2.75,2.18,4.16,3.2a1.49,1.49,0,0,0,1.17.14c5.74-2,6.38-2.13,12-1.26a21.25,21.25,0,0,1-1.08-2.28,2.88,2.88,0,0,1,.94-3.3,3,3,0,0,1,3.54-.41,2.79,2.79,0,0,1,1.69,3.1,4.8,4.8,0,0,1-1.29,2.15,9.77,9.77,0,0,1-1.93,1.27c1.53,1,3.11,1.94,4.48,3.08,7,5.78,8.49,16.6,3.54,24.83a73.68,73.68,0,0,1-10.49,13.25c-.61.63-1.15,1.32-1.82,1.89a5.49,5.49,0,0,0-1.83,3.68c-.36,2.6-.81,5.19-1.2,7.78-.11.79-.4,1.17-1.3,1.17q-28,0-55.92,0A6.44,6.44,0,0,1,84.62,115.5Zm31.22-10.62c3.16,0,6.26,0,9.35,0,.37,0,.86-.61,1-1,3.68-8.71,6.83-17.58,7.71-27.08.44-4.73-.15-9.26-3.34-13.06-2.86-3.41-7.16-4.46-10.75-2.82A2.73,2.73,0,0,0,118,64a115.08,115.08,0,0,1-.52,26.62C116.9,95.29,116.4,100,115.84,104.88Zm-4.76.06c-.19-1.53-.34-2.77-.52-4-1.25-8.47-2.43-16.94-2.22-25.53.1-3.89.36-7.77.62-11.65A2.4,2.4,0,0,0,107.32,61a11,11,0,0,0-3.48-.91c-4.62,0-7.59,2.63-9.5,6.55-1.8,3.67-1.76,7.64-1.28,11.58,1,8.16,3.61,15.89,6.68,23.47,1.45,3.6.88,3.22,4.8,3.23ZM88.87,64.65a8.3,8.3,0,0,0-1.2-.44c-7.56-1.52-13.06.83-16.07,8.44-1.83,4.61-.7,9,1.25,13.25,3.21,6.93,8,12.75,13.35,18.09a3.81,3.81,0,0,0,2.35.9c2.28.12,4.57,0,6.86,0a8.91,8.91,0,0,0,1.24-.15c-2.4-5.41-5-10.6-7-16a35,35,0,0,1-2.26-18.45C87.68,68.44,88.34,66.6,88.87,64.65Zm49-.12a2.64,2.64,0,0,0,.13.63c2.42,5.49,2.3,11.15,1.13,16.87-1.54,7.61-4.72,14.56-8.48,21.29-.25.44-.44.9-.77,1.61,3.07,0,5.89.07,8.7-.05a3.38,3.38,0,0,0,2.16-1c2.21-2.32,4.4-4.68,6.41-7.17,3.88-4.79,7.31-9.89,8.63-16a14.06,14.06,0,0,0-4.67-14.23C147.17,63,142.61,63.29,137.87,64.53ZM116.3,110.69a3.25,3.25,0,0,0-3.15-3.31,3.36,3.36,0,0,0-3.31,3.2,3.32,3.32,0,0,0,3.19,3.31A3.28,3.28,0,0,0,116.3,110.69Zm4.34-.06a3.23,3.23,0,0,0,3.19,3.26,3.26,3.26,0,0,0,0-6.51A3.25,3.25,0,0,0,120.64,110.63Zm-29-3.25a3.26,3.26,0,0,0-.06,6.51,3.26,3.26,0,1,0,.06-6.51Zm43,0a3.26,3.26,0,1,0,3.18,3.32A3.35,3.35,0,0,0,134.64,107.38Zm-29,3.21a3.31,3.31,0,0,0-3.28-3.21,3.39,3.39,0,0,0-3.22,3.3,3.25,3.25,0,1,0,6.5-.09Z"/><path d="M167.05,29.62a10.59,10.59,0,0,1,3.27.28,10.4,10.4,0,0,1,5.73,6.32c1.17,3.32,1.84,6.82,2.71,10.24a15.38,15.38,0,0,1,.21,1.63c4.64.08,7.27,2.93,9,6.68a52.79,52.79,0,0,1,2.48,7.89c.21.78.48,1.15,1.23,1.05,2.52-.33,4.27,1,5.86,2.66,2.17,2.28,3.27,5.14,4.23,8.29,1.95-3.32,4.13-6.06,8.53-5.26-.14.27-.17.47-.27.52-3.64,1.89-4.54,5.39-5.56,9-1.55,5.38-.55,10.48,1.1,15.58a8.77,8.77,0,0,0,3.82,4.81c.31.2.59.44.94.7q-4.28,1.9-8.5-4.93c-1.77,4.83-3.49,9.61-9.21,10.88a9.14,9.14,0,0,0,3.88-5.93,128.12,128.12,0,0,0,3-14.83c.31-2.51-.51-5.2-1.07-7.76-.66-3.08-1.5-6.13-2.46-9.13a11.16,11.16,0,0,0-2-3.35,2.77,2.77,0,0,0-3.39-.91c.59,3.63,1.15,7.26,1.78,10.87.21,1.2.59,2.36.91,3.53A8.93,8.93,0,0,0,197.41,84c.71.41,1.22.93.24,1.47-3.19,1.74-4.41,4.72-5,8-.75,4-1.24,8.07-1.91,12.09-.63,3.79-1.47,7.53-3.56,10.83-1.88,3-4.28,5.2-8.09,5.11-.4,2.31-.69,4.58-1.21,6.79-.88,3.73-2.25,7.26-5.19,9.93a7.15,7.15,0,0,1-7.81,1.64c-1.24-.46-1.55-1.18-.75-2.44.35.48.65.91,1,1.32,1.39,1.85,3.13,2.06,4.64.3a10.65,10.65,0,0,0,2.31-4c1.23-4.69,2.23-9.44,3.23-14.19.68-3.28,1.08-6.62,1.83-9.89.66-2.86,2-5.46,4.86-6.72a22.23,22.23,0,0,1,3.94-1l.26.62c-.34.25-.66.53-1,.76a8.07,8.07,0,0,0-3.73,4.86c-.94,3.76-1.75,7.55-2.62,11.33l.46.44a6.88,6.88,0,0,0,2.27-1.05,11.78,11.78,0,0,0,2.21-3.21c2.06-4.62,2.69-9.61,3.53-14.55.51-3,.92-6.06,1.53-9.06.76-3.68,2.19-7,6.2-8.61-4.15-1.71-5.53-5.13-6.25-8.93-1.22-6.35-2.23-12.74-3.59-19.06a27.46,27.46,0,0,0-2.67-6.41A3.54,3.54,0,0,0,179,48.46c.21,1.42.36,2.79.63,4.14.47,2.33,1,4.66,1.56,7a8.75,8.75,0,0,0,4.2,5.55,3.41,3.41,0,0,1,.57.43c.06,0,0,.18.07.27-2.26.74-4.79-.15-6.62-2.34s-2.49-4.91-3-7.65c-1-5.51-1.84-11-3-16.5A28.69,28.69,0,0,0,171,32.49c-.56-1.17-1.85-2-2.89-2.91-.2-.18-.73,0-1.11,0Z"/><path d="M36.27,103c-.67-5.52-1.06-11-3.28-16.12-.67-1.54-2.21-2.75-3.51-3.94-.78-.71-1.09-1,0-1.65a8.67,8.67,0,0,0,4.35-6.11c.9-4.57,1.61-9.18,2.38-13.78.68-4,1.59-8,3.95-11.47,2.05-3,4.24-4.31,7.74-4.49.2-1.33.35-2.71.6-4.07.84-4.7,2.1-9.22,5.74-12.65A7.16,7.16,0,0,1,61.91,27c1.26.43,1.79,1.09.9,2.54-.35-.49-.63-.91-.93-1.32-1.35-1.84-3.3-2-4.76-.25a11,11,0,0,0-2.26,4c-1.2,4.55-2.17,9.16-3.14,13.77-.77,3.66-1.26,7.38-2.14,11a8.08,8.08,0,0,1-4.72,6,22.47,22.47,0,0,1-3.81.87L40.84,63a5.9,5.9,0,0,1,.75-.67,8.63,8.63,0,0,0,4.11-5.45c.87-3.62,1.62-7.27,2.44-11a3,3,0,0,0-3.48,1.51A22.09,22.09,0,0,0,42.09,53c-1.25,5.45-2.18,11-3.23,16.45-.24,1.29-.4,2.59-.69,3.87C37.35,77,36.06,80.38,32,82c5.57,2.57,5.93,7.7,6.84,12.55,1,5.59,2,11.19,3.29,16.73a18.91,18.91,0,0,0,2.31,5.16,3.08,3.08,0,0,0,3.46,1.76c-.63-4.38-1.07-8.76-2.95-12.75-.65-1.37-2.05-2.39-3.14-3.55a10.74,10.74,0,0,0-1.17-.91A6.48,6.48,0,0,1,48,104.19a27.58,27.58,0,0,1,2.45,7.09c1.31,6.18,2.33,12.42,3.59,18.61a15.57,15.57,0,0,0,1.68,4.33,28,28,0,0,0,2.74,3.5,20.48,20.48,0,0,1-3.12-1.41A11.63,11.63,0,0,1,50.59,130c-1-3-1.62-6.18-2.38-9.28-.14-.61-.18-1.24-.27-2-5.4-.22-7.91-3.88-9.67-8.24-.81-2-1.16-4.2-1.81-6.28-.12-.4-.69-1-1-1a6.73,6.73,0,0,1-5.86-2.75,60.23,60.23,0,0,1-3.82-6.64,11.24,11.24,0,0,1-.6-1.73c-1.84,3.51-4.19,5.9-8.81,5.3.64-.5,1-.78,1.32-1a8.07,8.07,0,0,0,3.73-4.86c.74-2.92,1.77-5.85,1.9-8.81a24.19,24.19,0,0,0-2.93-12.48,11.9,11.9,0,0,0-2.66-2.64,15.35,15.35,0,0,0-1.39-1c4.61-.64,7,1.72,8.81,5.25,1.75-4.87,3.48-9.53,9-10.94-2.61,2-3.58,4.88-4.28,7.82a107,107,0,0,0-2.44,12.88c-.25,2.24.43,4.63.94,6.89C29.12,92,30,95.35,31,98.69a10.15,10.15,0,0,0,1.64,2.91A3.21,3.21,0,0,0,36.27,103Z"/><path d="M96.8,5.35C96,8.89,95.15,12.43,94.25,16c-.14.54-.7,1-1.06,1.47a6.06,6.06,0,0,1-1.26-1.15c-1.65-2.8-3.24-5.64-4.85-8.47a2.43,2.43,0,0,0-1-1.08c.61,4.32,1.21,8.64,1.83,13.05L86.16,20a130.78,130.78,0,0,0-2.41-17.7c1.14-.16,2.52-.43,3.91-.51a1.73,1.73,0,0,1,1.3.75c1.44,2.37,2.78,4.79,4.16,7.19.24.41.49.82.9,1.49.73-3,1.53-5.77,2-8.56C96.31,1,97,.34,98.61.33A23.57,23.57,0,0,0,101.43,0a88,88,0,0,0,2.25,17.73l-5,.65c-.49-4.42-1-8.71-1.43-13Z"/><path d="M117.46,144.53l5.37-.81.9,9,.43.1,6.91-9.93-.34-.3,2.26-.34-6.63,9.31,1.64.21a4.08,4.08,0,0,1,3.42,2.39,44,44,0,0,0,2.19,4.27,42.82,42.82,0,0,0,2.64,3.47A4.81,4.81,0,0,1,129.4,160c-1.28-2.34-2.54-4.69-3.85-7.12a3.14,3.14,0,0,0-1.19,3.36c.55,2.38.91,4.8,1.37,7.26l-5.39.79A102.84,102.84,0,0,0,117.46,144.53Z"/><path d="M85,146.43c-2.27,1.59-6.81,0-7.55-2.55a2.83,2.83,0,0,1,1.84-3.38c3.37-1.42,9.75.74,11.54,3.91,1.13,2,.71,4.22-1.36,5.26a45.41,45.41,0,0,1-6,2.13c-1.84.61-3.72,1.11-5.51,1.82a2.89,2.89,0,0,0-2,2.77A2.78,2.78,0,0,0,78,159a12,12,0,0,0,4.06.67,2.43,2.43,0,0,0,1.74-1.42,2.32,2.32,0,0,0-.72-2,26.19,26.19,0,0,0-3.47-2.1c1.67-1.4,3.48-.67,5.21,0s3,1.79,3,3.74a3,3,0,0,1-2.74,3A13,13,0,0,1,74.59,158a4.34,4.34,0,0,1,.93-7.46,59.6,59.6,0,0,1,7.2-2.25,16.26,16.26,0,0,0,3.56-1.22,4.54,4.54,0,0,0,1.91-2.31,2.32,2.32,0,0,0-1.6-2.66,9.55,9.55,0,0,0-3.58-.83,2.36,2.36,0,0,0-1.76,1.38,2.51,2.51,0,0,0,.77,2.1A14.51,14.51,0,0,0,85,146.43Z"/><path d="M149.77,6.69a11.55,11.55,0,0,1,6.92,3.17c2.19,2.09,2.16,3.53,1.12,5.43a43.17,43.17,0,0,0-2.12,4.64,3.25,3.25,0,0,1-3.3,2.17,11.62,11.62,0,0,1-9.22-4.25,3.44,3.44,0,0,1-.44-4.19,28.19,28.19,0,0,0,2-4.37C145.44,7.23,146.9,6.57,149.77,6.69Zm1.35,4.09.3-.28a12.43,12.43,0,0,0,2.37.47c.3,0,.61-.63.92-1a12,12,0,0,0-2.44-1.84,1.81,1.81,0,0,0-2.45,1c-1.29,2.77-2.58,5.55-3.82,8.35-.48,1.08.19,2.19,1.56,2.87s2.6.5,3.11-.53c1.21-2.42,2.29-4.91,3.36-7.23Z"/><path d="M140.13,3.17c-1.75,5.74-2.36,11.59-3.37,17.49.11,0-.13,0-.35,0-.53-.09-1-.2-1.24-.24.86-4.62,1.7-9.2,2.62-14.17-.59.44-.88.63-1.14.86-3.91,3.5-7.8,7-11.74,10.49a7.62,7.62,0,0,1-2,.91l-.3-.39c1-5.8,2-11.59,3-17.5l1.57.25c-.68,3.66-1.35,7.25-2,10.85l.29.17,2.77-2.45c2.18-1.94,4.4-3.84,6.52-5.83a2.8,2.8,0,0,1,3.12-.85A12.79,12.79,0,0,0,140.13,3.17Z"/><path d="M153.68,155.8l-5.34,2a29.33,29.33,0,0,0-1.88-3.41c-2.13-2.89-4.36-5.69-6.52-8.5v15l-1.73.72c0-6,.1-11.74-.08-17.5,0-1.05-1.22-2.07-1.91-3.14,1.1-.43,2.36-.88,3.6-1.41.9-.39,1.22.26,1.62.78,3.22,4.15,6.41,8.31,9.65,12.44C151.85,153.84,152.74,154.73,153.68,155.8Z"/><path d="M84.78,119.86v-1.71h57.35l.09,1.71Z"/><path d="M106,156.64V160l-14.29-1.48a51,51,0,0,0,1.69-15.48l13.78,1.44a4.81,4.81,0,0,1-.15,1.06c-.25.58-.56,1.13-.85,1.69a11.75,11.75,0,0,0-1.16-1.28,3.73,3.73,0,0,0-1.45-.88c-1.62-.31-3.25-.5-5-.75-.19,1.76-.36,3.33-.55,5.16l5.88.37c0,1.46-1,1.69-2.09,1.48-1.28-.24-2.54-.63-3.88-1-.22,2.09-.41,4.12-.66,6.14a1.42,1.42,0,0,0,1.25,1.8,12.6,12.6,0,0,0,3.74.38c.82-.11,1.55-1,2.31-1.5.4-.28.75-.62,1.13-.93Z"/><path d="M84.93,20.24l-5.06,1.88a24.56,24.56,0,0,0-1.68-3c-2-2.58-4-5.1-6.24-7.89V25.05l-1.31.53c0-5.12.1-10.21-.08-15.3,0-1-1.08-2-1.7-3.12,1-.4,2.28-1,3.57-1.32.33-.09,1,.31,1.24.65,3,3.67,5.88,7.38,8.84,11C83.23,18.44,84,19.26,84.93,20.24Z"/><path d="M105.16,17.7c2-4.89,4.08-9.65,5.91-14.5.32-.85-.35-2.08-.55-3.12a34.49,34.49,0,0,1,3.79.05c.38,0,.87.67,1,1.13,1.41,4.59,2.76,9.2,4.16,13.79.29,1,.71,1.88,1.1,2.91h-5.37a29.31,29.31,0,0,0-.53-3.71,85.12,85.12,0,0,0-3-8.95c-1.66,4.08-3.31,8.17-5,12.4Z"/><path d="M115.44,164.31h-5.83a35.15,35.15,0,0,0-.15-13.4h5.76A37.31,37.31,0,0,0,115.44,164.31Z"/><path d="M105.75,161.94a3.65,3.65,0,0,1-3.25,1.78,19.65,19.65,0,0,1-4.19-.28c-1.24-.18-2.44-.7-3.68-.87s-2.4,0-3.74-.29c.68-.36,1.35-1,2.06-1a23.92,23.92,0,0,1,5.74.11C101,161.79,103.16,162.71,105.75,161.94Z"/><path d="M140,20.72c1.54-.65,3.18-.16,4.74.48,1.15.47,2.17,1.26,3.28,1.84,1.57.82,3.18,1.58,5.1,2.53a14.22,14.22,0,0,1-3.32,0,16.75,16.75,0,0,1-3.74-1.51C144,23,142.05,21.86,140,20.72Z"/><path d="M112.36,150l-2.75-2.9,2.66-3L115,147Z"/><path d="M185.46,79.25c1.11,1.25.38,1.78-.22,2.37q-17.09,17.09-34.15,34.17a29.75,29.75,0,0,0-1.91,2.32,2.26,2.26,0,0,1,.69-2.94L169,96.08l15.58-15.59A11.1,11.1,0,0,0,185.46,79.25Z"/><path d="M52.14,60a17.09,17.09,0,0,1,2-3.09Q70.21,40.77,86.37,24.71A8.38,8.38,0,0,1,89,23.23Z"/><path d="M84,49.08c9.3-9.3,18.45-18.43,27.59-27.6.66-.67,1.1-.53,1.56,0L84.71,49.91Z"/><path d="M172.66,115.08a8.63,8.63,0,0,1-1.13,2.28q-11.88,12-23.83,23.87c-.14.13-.29.24-.89.32,0-.46-.1-1.1.15-1.35q12.51-12.57,25.09-25.08A3.61,3.61,0,0,1,172.66,115.08Z"/><path d="M42,92.18c.19-.56.22-1.28.6-1.66Q51,82.08,59.37,73.7l.39.15c-.25.69-.31,1.56-.78,2C53.6,81.35,48.15,86.77,42.71,92.19a.87.87,0,0,1-.25.15Z"/><path d="M55.89,122.29c.21-.57.25-1.31.64-1.71,5.36-5.43,10.78-10.82,16.19-16.22a4.33,4.33,0,0,1,.66-.34c0,.61.19,1.22,0,1.44q-8.46,8.57-17,17.05Z"/><path d="M149.28,29.63c-4.79,4.78-9.56,9.56-14.39,14.3-.3.29-1,.21-1.47.31l-.14-.33a8.23,8.23,0,0,1,.59-.71c4.47-4.48,8.93-9,13.44-13.41A5.63,5.63,0,0,1,149,29Z"/><path d="M125,140c4.35-4.33,8.63-8.62,13-12.86a2.4,2.4,0,0,1,1.93-.3,8.3,8.3,0,0,1-.6.73q-6.22,6.24-12.44,12.48C126.24,140.64,125.74,141,125,140Z"/><path d="M102.89,140c.78-.71,1.58-1.4,2.33-2.14,3.44-3.42,6.84-6.88,10.32-10.27a8.92,8.92,0,0,1,2.08-1.16l.3.43c-.27.3-.51.62-.8.91-3.94,4-7.87,7.91-11.86,11.82a8.11,8.11,0,0,1-2,1.06Z"/><path d="M78.24,121.41c-.1.53,0,1.23-.32,1.55-3.63,3.72-7.32,7.39-11,11.07l-.42-.11c.06-.5-.07-1.2.22-1.49,3.66-3.75,7.39-7.45,11.1-11.15Z"/><path d="M152.62,46.47c3.39-3.38,6.73-6.77,10.15-10.09a2.65,2.65,0,0,1,2-.3c-.27.3-.53.63-.82.92-3.09,3.1-6.2,6.18-9.27,9.31C154,47,153.46,47.25,152.62,46.47Z"/><path d="M63.81,92c-.08.46,0,1.07-.26,1.34-3.59,3.68-7.23,7.31-10.87,11l-.44-.08c0-.48-.12-1.16.14-1.42,3.59-3.68,7.24-7.3,10.87-10.94Z"/><path d="M171.94,49.56c-.23.87-.2,1.55-.53,1.89-3.12,3.2-6.29,6.34-9.45,9.5l-.5-.12c.06-.46-.05-1.09.21-1.35,3.12-3.2,6.3-6.35,9.48-9.51A5.05,5.05,0,0,1,171.94,49.56Z"/><path d="M96.08,127.05c-1.77,1.7-3.55,3.39-5.31,5.11-1.36,1.32-2.64,2.71-4,4a6,6,0,0,1-1.8.78l-.24-.48c3.14-3.15,6.26-6.32,9.46-9.42.35-.35,1.11-.27,1.68-.39Z"/><path d="M167.35,76.83c.17-.54.18-1.23.54-1.59,2.93-3,5.93-6,9-9l.73.78-9.9,9.91Z"/><path d="M132.8,23.77l-9.56,9.56-.68-.82c3-3,5.92-5.94,8.9-8.84.28-.27.89-.2,1.35-.29Z"/><path d="M46.21,66.34l-3.47,3.42C42.6,67.83,43,67.41,46.21,66.34Z"/><path d="M60.46,137.42l2.38-2.62C63.66,136.52,63,137.26,60.46,137.42Z"/><path d="M167,29.62,163.83,32c0-.43-.23-1.23,0-1.52a2.9,2.9,0,0,1,3.17-.83Z"/></g></svg>