<svg id="圖層_1" data-name="圖層 1" xmlns="http://www.w3.org/2000/svg" viewBox="0 0 195.33 187.49"><path d="M193,71.89a78.2,78.2,0,0,1-18.47-21.66,78.33,78.33,0,0,1-9.71-28.06A97.6,97.6,0,0,0,127.37,0,78.24,78.24,0,0,1,97.66,5.83,78.23,78.23,0,0,1,68,0,97.6,97.6,0,0,0,30.49,22.17a78.33,78.33,0,0,1-9.71,28.06A78.53,78.53,0,0,1,2.31,71.89a98.24,98.24,0,0,0,.93,46.2A78.41,78.41,0,0,1,20.78,139a78.36,78.36,0,0,1,9.08,24.33,97.63,97.63,0,0,0,42.81,24.15,78.42,78.42,0,0,1,50,0,97.63,97.63,0,0,0,42.81-24.15,78.65,78.65,0,0,1,26.61-45.25,98.08,98.08,0,0,0,.94-46.2ZM12.77,93.06A22.84,22.84,0,1,1,35.61,115.9,22.84,22.84,0,0,1,12.77,93.06Zm73.65,65.16A22.84,22.84,0,1,1,78.06,127,22.85,22.85,0,0,1,86.42,158.22ZM78.06,59.09A22.84,22.84,0,1,1,86.42,27.9,22.83,22.83,0,0,1,78.06,59.09ZM108.91,27.9a22.84,22.84,0,1,1,8.36,31.19A22.83,22.83,0,0,1,108.91,27.9Zm31.2,138.68a22.84,22.84,0,1,1,8.36-31.2A22.85,22.85,0,0,1,140.11,166.58Zm19.61-50.68a22.84,22.84,0,1,1,22.84-22.84A22.84,22.84,0,0,1,159.72,115.9Z"/></svg>