<svg id="圖層_1" data-name="圖層 1" xmlns="http://www.w3.org/2000/svg" xmlns:xlink="http://www.w3.org/1999/xlink" viewBox="0 0 312.77 1210.84"><defs><style>.cls-1{fill:url(#未命名漸層_14);}.cls-2{fill:url(#未命名漸層_14-2);}.cls-3{fill:url(#未命名漸層_14-3);}.cls-4{fill:url(#未命名漸層_14-4);}.cls-5{fill:url(#未命名漸層_14-5);}</style><linearGradient id="未命名漸層_14" x1="63.82" y1="170.08" x2="295.08" y2="170.08" gradientUnits="userSpaceOnUse"><stop offset="0" stop-color="#181b6e" stop-opacity="0"/><stop offset="0.5"/></linearGradient><linearGradient id="未命名漸層_14-2" x1="63.82" y1="448.94" x2="300.11" y2="448.94" xlink:href="#未命名漸層_14"/><linearGradient id="未命名漸層_14-3" x1="58.79" y1="718.84" x2="295.08" y2="718.84" xlink:href="#未命名漸層_14"/><linearGradient id="未命名漸層_14-4" x1="13.54" y1="947.9" x2="295.08" y2="947.9" xlink:href="#未命名漸層_14"/><linearGradient id="未命名漸層_14-5" x1="63.82" y1="1116.16" x2="295.08" y2="1116.16" xlink:href="#未命名漸層_14"/></defs><path class="cls-1" d="M68.53,125.3v35.19H63.82V47.38h4.71V82.57H290.37V47.38h4.71V160.49h-4.71V125.3H183.53v89.55H290.37V179.66h4.71V292.78h-4.71v-35.2H68.53v35.2H63.82V179.66h4.71v35.19H178.82V125.3Z"/><path class="cls-2" d="M130.43,388.29l-61.9-22v41.47H63.82V336.13h4.71v25.14l231.58,82.64v11.31L68.53,536.6v25.14H63.82V455.53h4.71v35.82l61.9-21.05Zm4.71,80.44L248.58,430.4,135.14,389.86Z"/><path class="cls-3" d="M295.08,689,136.4,796.45h154V764.72h4.71v66.92h-4.71V801.48H58.79v-5L290.37,640H68.53v32.37H63.82V606h4.71v29.22H290.37V606h4.71Z"/><path class="cls-4" d="M290.37,1021.42V987.49H83.93q-18.54,0-31.89-5.5a58.57,58.57,0,0,1-34.41-35.82,73,73,0,0,1-4.09-24q0-14.13,3.46-23.41t8.48-14.61a28.89,28.89,0,0,1,11-7.54,32.66,32.66,0,0,1,11.31-2.2,30.45,30.45,0,0,1,8.8,1.42A26.85,26.85,0,0,1,65.08,880a23.44,23.44,0,0,1,6.28,7.22,20.63,20.63,0,0,1,2.51,10.37q0,10.07-5.18,17T53.14,921.5a25.4,25.4,0,0,1-9-1.72A15.56,15.56,0,0,1,36.8,914q-3.78-5.34-5.5-7.38c-1.15-1.37-2.25-2-3.3-2a11.05,11.05,0,0,0-5,2.2,12.51,12.51,0,0,0-3.3,5.18,28,28,0,0,0-1.41,9.9q0,8.48,3,13.2a17.44,17.44,0,0,0,8.49,6.91,39.25,39.25,0,0,0,12.88,2.51q7.38.31,16.18.32H290.37v-35.2h4.71v111.86Z"/><path class="cls-5" d="M68.53,1137.37v32.68H63.82V1062.27h4.71v32.36H290.37v-32.36h4.71v107.78h-4.71v-32.68Z"/></svg>