<svg id="圖層_1" data-name="圖層 1" xmlns="http://www.w3.org/2000/svg" xmlns:xlink="http://www.w3.org/1999/xlink" viewBox="0 0 328.26 2112"><defs><style>.cls-1{fill:url(#未命名漸層_14);}.cls-2{fill:url(#未命名漸層_14-2);}.cls-3{fill:url(#未命名漸層_14-3);}.cls-4{fill:url(#未命名漸層_14-4);}.cls-5{fill:url(#未命名漸層_14-5);}.cls-6{fill:url(#未命名漸層_14-6);}.cls-7{fill:url(#未命名漸層_14-7);}.cls-8{fill:url(#未命名漸層_14-8);}.cls-9{fill:url(#未命名漸層_14-9);}</style><linearGradient id="未命名漸層_14" x1="67.35" y1="124.05" x2="298.61" y2="124.05" gradientUnits="userSpaceOnUse"><stop offset="0" stop-color="#181b6e" stop-opacity="0"/><stop offset="0.5"/></linearGradient><linearGradient id="未命名漸層_14-2" x1="67.35" y1="393.96" x2="303.64" y2="393.96" xlink:href="#未命名漸層_14"/><linearGradient id="未命名漸層_14-3" x1="17.08" y1="623.01" x2="298.61" y2="623.01" xlink:href="#未命名漸層_14"/><linearGradient id="未命名漸層_14-4" x1="67.35" y1="791.27" x2="298.61" y2="791.27" xlink:href="#未命名漸層_14"/><linearGradient id="未命名漸層_14-5" x1="63.9" y1="1000.07" x2="298.61" y2="1000.07" xlink:href="#未命名漸層_14"/><linearGradient id="未命名漸層_14-6" x1="62.33" y1="1278.61" x2="298.61" y2="1278.61" xlink:href="#未命名漸層_14"/><linearGradient id="未命名漸層_14-7" x1="62.33" y1="1547.26" x2="303.64" y2="1547.26" xlink:href="#未命名漸層_14"/><linearGradient id="未命名漸層_14-8" x1="67.35" y1="1812.77" x2="298.61" y2="1812.77" xlink:href="#未命名漸層_14"/><linearGradient id="未命名漸層_14-9" x1="67.35" y1="2030.51" x2="298.61" y2="2030.51" xlink:href="#未命名漸層_14"/></defs><path class="cls-1" d="M298.61,120.59H293.9v-38l-104,65.36,104,59.39V170.24h4.71v66.61H293.9V213L183,149.5H72.07v35.19H67.35V71.58h4.72v35.19H178L293.9,33.87V11.25h4.71Z"/><path class="cls-2" d="M134,333.31l-61.9-22v41.47H67.35V281.15h4.72v25.14l231.57,82.64v11.31L72.07,481.62v25.14H67.35V400.55h4.72v35.82L134,415.32Zm4.71,80.44,113.43-38.33L138.68,334.88Z"/><path class="cls-3" d="M293.9,696.54V662.6H87.46q-18.54,0-31.89-5.49a58.56,58.56,0,0,1-34.41-35.83,72.91,72.91,0,0,1-4.08-24q0-14.14,3.46-23.41T29,559.23a28.63,28.63,0,0,1,11-7.54,32.66,32.66,0,0,1,11.31-2.2,30.87,30.87,0,0,1,8.8,1.41,26.9,26.9,0,0,1,8.48,4.24,23.35,23.35,0,0,1,6.28,7.23,20.5,20.5,0,0,1,2.52,10.37q0,10.05-5.19,17t-15.55,6.91a25.14,25.14,0,0,1-9-1.73,15.51,15.51,0,0,1-7.39-5.81q-3.77-5.36-5.5-7.39t-3.3-2a11.07,11.07,0,0,0-5,2.2,12.56,12.56,0,0,0-3.3,5.19,27.66,27.66,0,0,0-1.42,9.89q0,8.49,3,13.2A17.41,17.41,0,0,0,33.26,617a39,39,0,0,0,12.88,2.52q7.39.3,16.19.31H293.9V584.68h4.71V696.54Z"/><path class="cls-4" d="M72.07,812.48v32.68H67.35V737.39h4.72v32.36H293.9V737.39h4.71V845.16H293.9V812.48Z"/><path class="cls-5" d="M298.61,1016.09q0,40.22-13,57.82t-36.92,17.59q-14.44,0-24.35-5.18a51,51,0,0,1-16.49-13.51,63.43,63.43,0,0,1-10.21-18.7,113.76,113.76,0,0,1-5.19-21q-1.57-10.68-2-20.58t-.47-17.13q-5.35,31.42-12.89,48.71t-18.85,25.6q-11.31,8.33-27,10.06a345.22,345.22,0,0,1-37.08,1.73q-5,0-9.27.31a19.54,19.54,0,0,0-7.38,1.89,10.74,10.74,0,0,0-4.87,5c-1.16,2.31-1.73,5.55-1.73,9.74a55.75,55.75,0,0,0,.47,7.7c.32,2.2.68,4.45,1.1,6.76H68.3q-1.26-3.46-2.83-9.27t-1.57-17.75q0-26.08,11-39t38.34-14.45q19.47-1.26,31.11-2a117.19,117.19,0,0,0,18.22-2.36q6.6-1.58,9.9-4.24a39.41,39.41,0,0,0,6.75-7.38,33.46,33.46,0,0,0,3.46-7.23,81.49,81.49,0,0,0,2.67-9.27q1.09-4.87,1.73-9.58a60,60,0,0,0,.63-7.55V963.93H72.07v36.45H67.35V887.26h4.72V921.2H293.9V887.26h4.71Zm-4.71-52.16H192.41v28.91q0,14.14,3.14,23.41a34.49,34.49,0,0,0,9.43,14.92,35.06,35.06,0,0,0,16.18,7.86,107.83,107.83,0,0,0,23.1,2.2,100.58,100.58,0,0,0,17.28-1.42,35.61,35.61,0,0,0,13.82-5.18,48.21,48.21,0,0,0,12.73-13.51q5.81-8.8,5.81-22.62Z"/><path class="cls-6" d="M298.61,1269H293.9v-35.51H133.34q-7.55,0-18.23,1a51.35,51.35,0,0,0-20.42,6.28q-9.75,5.34-16.5,17.28t-6.75,33.62a127.28,127.28,0,0,0,1.25,16.18,74.24,74.24,0,0,0,5.5,19.49,64.94,64.94,0,0,0,12.26,18.53q8,8.64,21.21,13.67a53,53,0,0,0,6.12,2,51.59,51.59,0,0,0,6.92,1.25c2.61.32,5.76.52,9.42.63s8.22.16,13.67.16H293.9v-34.25h4.71v72H293.9v-33H138.05a173.55,173.55,0,0,1-17.91-.94q-9.12-.95-19.48-7.23a79.66,79.66,0,0,1-13-10.05,70.23,70.23,0,0,1-12.41-15.87,92.39,92.39,0,0,1-9.27-23.1q-3.61-13.52-3.61-31.73,0-24.83,6.28-42t16.65-27.65a62.45,62.45,0,0,1,23.41-15.24,77.59,77.59,0,0,1,26.55-4.71H293.9v-33.94h4.71Z"/><path class="cls-7" d="M234.52,1621.89v-5a67.23,67.23,0,0,0,26.23-9A76.12,76.12,0,0,0,281,1590.31a80.69,80.69,0,0,0,13.2-23.88,83.06,83.06,0,0,0,4.71-27.81,65.79,65.79,0,0,0-3.3-21.52,53.3,53.3,0,0,0-9.11-16.66,39.71,39.71,0,0,0-13.83-10.84,40.47,40.47,0,0,0-17.44-3.77q-9.1,0-14.77,3a27.38,27.38,0,0,0-9.58,8.48,49.11,49.11,0,0,0-6.44,12.88q-2.52,7.38-5.34,16.19-6,19.79-9.74,32.2t-6.76,20.58q-3,8.17-5.34,13.2t-5.5,10.37a57.76,57.76,0,0,1-14.14,16.34,66.81,66.81,0,0,1-15.87,9.11,65.36,65.36,0,0,1-15.08,4.09,93.5,93.5,0,0,1-11.78.94q-22.62,0-36.76-8.17A62.63,62.63,0,0,1,76,1604.13a79.19,79.19,0,0,1-10.84-28.43,172.54,172.54,0,0,1-2.82-30.48q0-16.67,2.67-28.28a98.3,98.3,0,0,1,6.44-19.64,55.64,55.64,0,0,1,7.85-12.72q4.08-4.72,6.92-7.55l-18.86-11v-4.72H134.6V1466q-7.55.95-13.52,2.2a80.66,80.66,0,0,0-11.15,3.14,52.48,52.48,0,0,0-9.74,4.71,73.67,73.67,0,0,0-9.59,7.23,68.61,68.61,0,0,0-6.75,7.23,67.13,67.13,0,0,0-7.7,11.94,83.43,83.43,0,0,0-6.44,17.43A95.76,95.76,0,0,0,67,1544a83.1,83.1,0,0,0,3.61,25.61,57.52,57.52,0,0,0,9.9,18.85,43.14,43.14,0,0,0,14.77,11.79,42.18,42.18,0,0,0,18.54,4.08q11.94,0,20-4.71T148,1584.65a141.63,141.63,0,0,0,11.63-26.08q5.49-15.87,12.41-38.17,2.82-9.12,6.6-19.17a72.29,72.29,0,0,1,10.52-18.85,53,53,0,0,1,17.28-14.46q10.53-5.65,26.55-5.65A71.84,71.84,0,0,1,278.82,1480a73.87,73.87,0,0,1,17.75,23.72q7.06,14.44,7.07,35.19,0,5-.63,12.73a93.72,93.72,0,0,1-3,16.5,82.36,82.36,0,0,1-7.54,18.22,88.19,88.19,0,0,1-14,18.54l20.11,11.94v5Z"/><path class="cls-8" d="M72.07,1768v35.2H67.35V1690.07h4.72v35.19H293.9v-35.19h4.71v113.12H293.9V1768H187.07v89.56H293.9v-35.2h4.71v113.12H293.9v-35.19H72.07v35.19H67.35V1822.35h4.72v35.2H182.35V1768Z"/><path class="cls-9" d="M72.07,2051.72v32.68H67.35V1976.63h4.72V2009H293.9v-32.36h4.71V2084.4H293.9v-32.68Z"/></svg>