<svg id="圖層_1" data-name="圖層 1" xmlns="http://www.w3.org/2000/svg" xmlns:xlink="http://www.w3.org/1999/xlink" viewBox="0 0 246.36 747.35"><defs><style>.cls-1{fill:url(#未命名漸層_14);}.cls-2{fill:url(#未命名漸層_14-2);}.cls-3{fill:url(#未命名漸層_14-3);}</style><linearGradient id="未命名漸層_14" x1="10.07" y1="96.93" x2="241.33" y2="96.93" gradientUnits="userSpaceOnUse"><stop offset="0" stop-color="#181b6e" stop-opacity="0"/><stop offset="0.5"/></linearGradient><linearGradient id="未命名漸層_14-2" x1="5.04" y1="367.31" x2="246.36" y2="367.31" xlink:href="#未命名漸層_14"/><linearGradient id="未命名漸層_14-3" x1="10.07" y1="633.29" x2="241.33" y2="633.29" xlink:href="#未命名漸層_14"/></defs><path class="cls-1" d="M241.33,191h-4.72L14.78,49.33v53.1q0,26.08,4.71,41.79T33,169.05a51.1,51.1,0,0,0,21.36,13.19A213.46,213.46,0,0,0,83,189.16v4.71l-72.9-3.77V0h4.71L236.61,141.4V86.72a122.1,122.1,0,0,0-2.67-26.86,54.93,54.93,0,0,0-9.11-20.58A47.88,47.88,0,0,0,207.71,25Q197,19.47,181,16.65V11.94l60.33,3.14Z"/><path class="cls-2" d="M125.7,258A126.18,126.18,0,0,1,212,291.27a110.4,110.4,0,0,1,25.29,34.88,98.16,98.16,0,0,1,0,82.64A110.29,110.29,0,0,1,212,443.67a123.6,123.6,0,0,1-38.33,24,126.69,126.69,0,0,1-47.92,9,126.65,126.65,0,0,1-47.92-9,123.36,123.36,0,0,1-38.33-24,110.32,110.32,0,0,1-25.3-34.88,98.26,98.26,0,0,1,0-82.64,110.43,110.43,0,0,1,25.3-34.88,126.13,126.13,0,0,1,38.17-24.19Q99.61,258,125.7,258Zm0,50q-22,0-42.89,1.25t-37.08,7.23q-16.18,6-26.08,17.91t-9.9,33.62q0,21.38,10.22,33.31t26.7,17.59a140.71,140.71,0,0,0,37.24,6.92Q104.64,427,125.7,427q22.62,0,43.52-1.41t37.07-7.38q16.19-6,25.77-18.07t9.58-33.46q0-21.69-10.37-33.47t-27-17.44A138.89,138.89,0,0,0,166.86,309Q146.12,307.92,125.7,307.93Z"/><path class="cls-3" d="M14.78,667.07q0,16.33,6.6,28.12t13.2,17.75q4.71,4.09,16,9.59t33.62,7.7v4.71l-74.15-3.77V531.64h4.71v33.94H236.61V531.64h4.72v197l-61.59,3.45V727.4a59.9,59.9,0,0,0,22.31-6.13,61,61,0,0,0,18.07-13.67,62.57,62.57,0,0,0,12.1-20.11,70.5,70.5,0,0,0,4.39-25.13V609.25H130.1v24.83c0,2.3.2,5.76.62,10.37a32,32,0,0,0,4.87,13.82q4.24,6.91,13.36,12.1t25.77,5.18v5h-94v-5a108.08,108.08,0,0,0,12.73-.94,37.43,37.43,0,0,0,14.77-5.18,36,36,0,0,0,12.1-12.57q5-8.34,5-22.78V609.25H14.78Z"/></svg>