<svg id="圖層_1" data-name="圖層 1" xmlns="http://www.w3.org/2000/svg" xmlns:xlink="http://www.w3.org/1999/xlink" viewBox="0 0 306.58 1923.1"><defs><style>.cls-1{fill:url(#未命名漸層_14);}.cls-2{fill:url(#未命名漸層_14-2);}.cls-3{fill:url(#未命名漸層_14-3);}.cls-4{fill:url(#未命名漸層_14-4);}.cls-5{fill:url(#未命名漸層_14-5);}.cls-6{fill:url(#未命名漸層_14-6);}.cls-7{fill:url(#未命名漸層_14-7);}</style><linearGradient id="未命名漸層_14" x1="35.95" y1="85.12" x2="267.21" y2="85.12" gradientUnits="userSpaceOnUse"><stop offset="0" stop-color="#181b6e" stop-opacity="0"/><stop offset="0.5"/></linearGradient><linearGradient id="未命名漸層_14-2" x1="35.95" y1="322.82" x2="267.21" y2="322.82" xlink:href="#未命名漸層_14"/><linearGradient id="未命名漸層_14-3" x1="30.92" y1="630.43" x2="272.24" y2="630.43" xlink:href="#未命名漸層_14"/><linearGradient id="未命名漸層_14-4" x1="35.95" y1="938.36" x2="267.21" y2="938.36" xlink:href="#未命名漸層_14"/><linearGradient id="未命名漸層_14-5" x1="35.95" y1="1237.48" x2="272.24" y2="1237.48" xlink:href="#未命名漸層_14"/><linearGradient id="未命名漸層_14-6" x1="32.49" y1="1507.39" x2="267.21" y2="1507.39" xlink:href="#未命名漸層_14"/><linearGradient id="未命名漸層_14-7" x1="30.92" y1="1785.93" x2="267.21" y2="1785.93" xlink:href="#未命名漸層_14"/></defs><path class="cls-1" d="M40.66,106.33V139H36V31.24h4.71V63.6H262.49V31.24h4.72V139h-4.72V106.33Z"/><path class="cls-2" d="M267.21,262.18l-169,63.16,169,60v79.81h-4.72V431.23H40.66v33.93H36V355.82h4.71v32.67H262.49L36,308.37v-4.71l226.54-85.15H40.66v32.67H36V180.49h4.71v33.3H262.49v-33.3h4.72Z"/><path class="cls-3" d="M151.58,521.09a126.18,126.18,0,0,1,86.25,33.3,110.29,110.29,0,0,1,25.29,34.88,98.16,98.16,0,0,1,0,82.64,110.29,110.29,0,0,1-25.29,34.88,123.57,123.57,0,0,1-38.33,24,126.5,126.5,0,0,1-47.92,9,126.47,126.47,0,0,1-47.92-9,123.34,123.34,0,0,1-38.33-24A110.48,110.48,0,0,1,40,671.91a98.26,98.26,0,0,1,0-82.64,110.48,110.48,0,0,1,25.3-34.88A126.13,126.13,0,0,1,103.5,530.2Q125.49,521.08,151.58,521.09Zm0,50q-22,0-42.89,1.25t-37.08,7.23q-16.19,6-26.08,17.91t-9.9,33.62q0,21.36,10.21,33.31T72.55,682a140.71,140.71,0,0,0,37.24,6.92q20.73,1.25,41.79,1.25,22.62,0,43.52-1.41t37.07-7.38q16.19-6,25.77-18.07t9.58-33.47q0-21.67-10.37-33.46t-27-17.44a138.89,138.89,0,0,0-37.39-6.75Q172,571,151.58,571.05Z"/><path class="cls-4" d="M267.21,877.72l-169,63.15,169,60v79.81h-4.72v-33.94H40.66v33.94H36V971.35h4.71V1004H262.49L36,923.9v-4.71L262.49,834H40.66v32.68H36V796h4.71v33.31H262.49V796h4.72Z"/><path class="cls-5" d="M102.56,1176.84l-61.9-22v41.47H36v-71.64h4.71v25.14l231.58,82.64v11.31L40.66,1325.15v25.14H36V1244.08h4.71v35.82l61.9-21.05Zm4.71,80.44L220.71,1219l-113.44-40.54Z"/><path class="cls-6" d="M267.21,1523.41q0,40.23-13,57.82t-36.92,17.6q-14.46,0-24.35-5.19a50.9,50.9,0,0,1-16.5-13.51,63.18,63.18,0,0,1-10.21-18.7,114.56,114.56,0,0,1-5.19-21q-1.58-10.68-2-20.58t-.47-17.12q-5.34,31.41-12.88,48.7T126.76,1577q-11.33,8.33-27,10a344.89,344.89,0,0,1-37.07,1.73q-5,0-9.27.31A19.59,19.59,0,0,0,46,1591a10.81,10.81,0,0,0-4.87,5q-1.73,3.45-1.73,9.74a54.2,54.2,0,0,0,.48,7.7c.31,2.2.67,4.44,1.09,6.75H36.89c-.84-2.31-1.78-5.39-2.83-9.27s-1.57-9.79-1.57-17.75q0-26.09,11-39t38.33-14.46q19.49-1.26,31.11-2a115.64,115.64,0,0,0,18.22-2.36q6.6-1.57,9.9-4.24a39.76,39.76,0,0,0,6.76-7.38,33.94,33.94,0,0,0,3.45-7.23,78.37,78.37,0,0,0,2.67-9.27c.74-3.25,1.31-6.44,1.73-9.58a59.91,59.91,0,0,0,.63-7.54v-18.85H40.66v36.44H36V1394.59h4.71v33.93H262.49v-33.93h4.72Zm-4.72-52.15H161v28.9q0,14.14,3.15,23.41a34.45,34.45,0,0,0,9.42,14.93,35.09,35.09,0,0,0,16.18,7.85,107.83,107.83,0,0,0,23.1,2.2,101.61,101.61,0,0,0,17.28-1.41A35.6,35.6,0,0,0,244,1542a48.32,48.32,0,0,0,12.72-13.51q5.81-8.81,5.81-22.62Z"/><path class="cls-7" d="M267.21,1776.35h-4.72v-35.51H101.93q-7.55,0-18.22,1a51.51,51.51,0,0,0-20.43,6.28q-9.73,5.34-16.49,17.28T40,1799a127.8,127.8,0,0,0,1.26,16.19,73.52,73.52,0,0,0,5.5,19.48A65,65,0,0,0,59,1853.18q8,8.63,21.21,13.66a52.49,52.49,0,0,0,6.13,2.05,51.42,51.42,0,0,0,6.91,1.25c2.62.32,5.76.52,9.43.63s8.22.16,13.67.16h146.1v-34.25h4.72v72h-4.72v-33H106.64a173.7,173.7,0,0,1-17.91-.94q-9.11-.95-19.48-7.23a79.52,79.52,0,0,1-13-10,70.52,70.52,0,0,1-12.41-15.87,92.47,92.47,0,0,1-9.27-23.09q-3.6-13.51-3.61-31.74,0-24.83,6.28-42t16.66-27.65a62.29,62.29,0,0,1,23.41-15.24,77.59,77.59,0,0,1,26.55-4.71H262.49v-33.94h4.72Z"/></svg>