<svg id="visual" viewBox="0 0 1920 300" width="1920" height="300" xmlns="http://www.w3.org/2000/svg" xmlns:xlink="http://www.w3.org/1999/xlink" version="1.1"><path d="M0 50L40 55.7C80 61.3 160 72.7 240 112.3C320 152 400 220 480 234.5C560 249 640 210 720 177.5C800 145 880 119 960 111C1040 103 1120 113 1200 129.3C1280 145.7 1360 168.3 1440 167.7C1520 167 1600 143 1680 119.8C1760 96.7 1840 74.3 1880 63.2L1920 52L1920 0L1880 0C1840 0 1760 0 1680 0C1600 0 1520 0 1440 0C1360 0 1280 0 1200 0C1120 0 1040 0 960 0C880 0 800 0 720 0C640 0 560 0 480 0C400 0 320 0 240 0C160 0 80 0 40 0L0 0Z" fill="#14244D" stroke-linecap="round" stroke-linejoin="miter"></path></svg>