<?xml version="1.0" standalone="no"?><svg xmlns="http://www.w3.org/2000/svg" viewBox="0 0 1440 320"><path fill="#0f1b3a" fill-opacity="1" d="M0,128L34.3,149.3C68.6,171,137,213,206,213.3C274.3,213,343,171,411,154.7C480,139,549,149,617,181.3C685.7,213,754,267,823,282.7C891.4,299,960,277,1029,234.7C1097.1,192,1166,128,1234,106.7C1302.9,85,1371,107,1406,117.3L1440,128L1440,0L1405.7,0C1371.4,0,1303,0,1234,0C1165.7,0,1097,0,1029,0C960,0,891,0,823,0C754.3,0,686,0,617,0C548.6,0,480,0,411,0C342.9,0,274,0,206,0C137.1,0,69,0,34,0L0,0Z"></path></svg>