<?xml version="1.0" standalone="no"?>
<svg xmlns:xlink="http://www.w3.org/1999/xlink" id="wave" style="transform:rotate(180deg); transition: 0.3s" viewBox="0 0 1440 230" version="1.1" xmlns="http://www.w3.org/2000/svg"><defs><linearGradient id="sw-gradient-0" x1="0" x2="0" y1="1" y2="0"><stop stop-color="rgba(20, 36, 77, 1)" offset="0%"/><stop stop-color="rgba(20, 36, 77, 1)" offset="100%"/></linearGradient></defs><path style="transform:translate(0, 0px); opacity:1" fill="url(#sw-gradient-0)" d="M0,92L48,95.8C96,100,192,107,288,122.7C384,138,480,161,576,161C672,161,768,138,864,138C960,138,1056,161,1152,168.7C1248,176,1344,169,1440,138C1536,107,1632,54,1728,42.2C1824,31,1920,61,2016,72.8C2112,84,2208,77,2304,88.2C2400,100,2496,130,2592,118.8C2688,107,2784,54,2880,53.7C2976,54,3072,107,3168,134.2C3264,161,3360,161,3456,153.3C3552,146,3648,130,3744,103.5C3840,77,3936,38,4032,49.8C4128,61,4224,123,4320,138C4416,153,4512,123,4608,103.5C4704,84,4800,77,4896,69C4992,61,5088,54,5184,65.2C5280,77,5376,107,5472,107.3C5568,107,5664,77,5760,65.2C5856,54,5952,61,6048,76.7C6144,92,6240,115,6336,107.3C6432,100,6528,61,6624,38.3C6720,15,6816,8,6864,3.8L6912,0L6912,230L6864,230C6816,230,6720,230,6624,230C6528,230,6432,230,6336,230C6240,230,6144,230,6048,230C5952,230,5856,230,5760,230C5664,230,5568,230,5472,230C5376,230,5280,230,5184,230C5088,230,4992,230,4896,230C4800,230,4704,230,4608,230C4512,230,4416,230,4320,230C4224,230,4128,230,4032,230C3936,230,3840,230,3744,230C3648,230,3552,230,3456,230C3360,230,3264,230,3168,230C3072,230,2976,230,2880,230C2784,230,2688,230,2592,230C2496,230,2400,230,2304,230C2208,230,2112,230,2016,230C1920,230,1824,230,1728,230C1632,230,1536,230,1440,230C1344,230,1248,230,1152,230C1056,230,960,230,864,230C768,230,672,230,576,230C480,230,384,230,288,230C192,230,96,230,48,230L0,230Z"/></svg>