<svg id="visual" viewBox="0 0 960 540" width="960" height="540" xmlns="http://www.w3.org/2000/svg" xmlns:xlink="http://www.w3.org/1999/xlink" version="1.1"><path d="M0 78L14.5 70C29 62 58 46 87.2 40.5C116.3 35 145.7 40 174.8 49.5C204 59 233 73 262 74.7C291 76.3 320 65.7 349 53.7C378 41.7 407 28.3 436.2 24.2C465.3 20 494.7 25 523.8 35.3C553 45.7 582 61.3 611 70C640 78.7 669 80.3 698 81.5C727 82.7 756 83.3 785.2 78.3C814.3 73.3 843.7 62.7 872.8 55.7C902 48.7 931 45.3 945.5 43.7L960 42L960 0L945.5 0C931 0 902 0 872.8 0C843.7 0 814.3 0 785.2 0C756 0 727 0 698 0C669 0 640 0 611 0C582 0 553 0 523.8 0C494.7 0 465.3 0 436.2 0C407 0 378 0 349 0C320 0 291 0 262 0C233 0 204 0 174.8 0C145.7 0 116.3 0 87.2 0C58 0 29 0 14.5 0L0 0Z" fill="#0066FF" stroke-linecap="round" stroke-linejoin="miter"></path></svg>