<svg id="visual" viewBox="0 0 1920 300" width="1920" height="300" xmlns="http://www.w3.org/2000/svg" xmlns:xlink="http://www.w3.org/1999/xlink" version="1.1"><path d="M0 177L35.5 166C71 155 142 133 213.2 133C284.3 133 355.7 155 426.8 170.5C498 186 569 195 640 171.5C711 148 782 92 853.2 94.3C924.3 96.7 995.7 157.3 1066.8 192.5C1138 227.7 1209 237.3 1280 217.7C1351 198 1422 149 1493.2 126C1564.3 103 1635.7 106 1706.8 114.5C1778 123 1849 137 1884.5 144L1920 151L1920 0L1884.5 0C1849 0 1778 0 1706.8 0C1635.7 0 1564.3 0 1493.2 0C1422 0 1351 0 1280 0C1209 0 1138 0 1066.8 0C995.7 0 924.3 0 853.2 0C782 0 711 0 640 0C569 0 498 0 426.8 0C355.7 0 284.3 0 213.2 0C142 0 71 0 35.5 0L0 0Z" fill="#14244D" stroke-linecap="round" stroke-linejoin="miter"></path></svg>