<svg id="visual" viewBox="0 0 1920 300" width="1920" height="300" xmlns="http://www.w3.org/2000/svg" xmlns:xlink="http://www.w3.org/1999/xlink" version="1.1"><path d="M0 148L22.8 128C45.7 108 91.3 68 137 65.7C182.7 63.3 228.3 98.7 274 106.8C319.7 115 365.3 96 411.2 93C457 90 503 103 548.8 138.7C594.7 174.3 640.3 232.7 686 261.8C731.7 291 777.3 291 823 255.3C868.7 219.7 914.3 148.3 960 102.3C1005.7 56.3 1051.3 35.7 1097 29.3C1142.7 23 1188.3 31 1234 77.3C1279.7 123.7 1325.3 208.3 1371.2 215.7C1417 223 1463 153 1508.8 105C1554.7 57 1600.3 31 1646 44.5C1691.7 58 1737.3 111 1783 131.7C1828.7 152.3 1874.3 140.7 1897.2 134.8L1920 129L1920 0L1897.2 0C1874.3 0 1828.7 0 1783 0C1737.3 0 1691.7 0 1646 0C1600.3 0 1554.7 0 1508.8 0C1463 0 1417 0 1371.2 0C1325.3 0 1279.7 0 1234 0C1188.3 0 1142.7 0 1097 0C1051.3 0 1005.7 0 960 0C914.3 0 868.7 0 823 0C777.3 0 731.7 0 686 0C640.3 0 594.7 0 548.8 0C503 0 457 0 411.2 0C365.3 0 319.7 0 274 0C228.3 0 182.7 0 137 0C91.3 0 45.7 0 22.8 0L0 0Z" fill="#14244D" stroke-linecap="round" stroke-linejoin="miter"></path></svg>