<svg id="visual" viewBox="0 0 1920 300" width="1920" height="300" xmlns="http://www.w3.org/2000/svg" xmlns:xlink="http://www.w3.org/1999/xlink" version="1.1"><path d="M0 101L35.5 124.3C71 147.7 142 194.3 213.2 195C284.3 195.7 355.7 150.3 426.8 131.8C498 113.3 569 121.7 640 150.5C711 179.3 782 228.7 853.2 240.5C924.3 252.3 995.7 226.7 1066.8 185.5C1138 144.3 1209 87.7 1280 69.5C1351 51.3 1422 71.7 1493.2 98.5C1564.3 125.3 1635.7 158.7 1706.8 167.5C1778 176.3 1849 160.7 1884.5 152.8L1920 145L1920 0L1884.5 0C1849 0 1778 0 1706.8 0C1635.7 0 1564.3 0 1493.2 0C1422 0 1351 0 1280 0C1209 0 1138 0 1066.8 0C995.7 0 924.3 0 853.2 0C782 0 711 0 640 0C569 0 498 0 426.8 0C355.7 0 284.3 0 213.2 0C142 0 71 0 35.5 0L0 0Z" fill="#14244D" stroke-linecap="round" stroke-linejoin="miter"></path></svg>