<svg id="visual" viewBox="0 0 1920 300" width="1920" height="300" xmlns="http://www.w3.org/2000/svg" xmlns:xlink="http://www.w3.org/1999/xlink" version="1.1"><path d="M0 187L29.2 186.8C58.3 186.7 116.7 186.3 174.8 167.8C233 149.3 291 112.7 349.2 112.8C407.3 113 465.7 150 523.8 174C582 198 640 209 698.2 198.3C756.3 187.7 814.7 155.3 872.8 128.7C931 102 989 81 1047.2 69.3C1105.3 57.7 1163.7 55.3 1221.8 54.7C1280 54 1338 55 1396.2 83C1454.3 111 1512.7 166 1570.8 195.8C1629 225.7 1687 230.3 1745.2 218.5C1803.3 206.7 1861.7 178.3 1890.8 164.2L1920 150L1920 0L1890.8 0C1861.7 0 1803.3 0 1745.2 0C1687 0 1629 0 1570.8 0C1512.7 0 1454.3 0 1396.2 0C1338 0 1280 0 1221.8 0C1163.7 0 1105.3 0 1047.2 0C989 0 931 0 872.8 0C814.7 0 756.3 0 698.2 0C640 0 582 0 523.8 0C465.7 0 407.3 0 349.2 0C291 0 233 0 174.8 0C116.7 0 58.3 0 29.2 0L0 0Z" fill="#14244D" stroke-linecap="round" stroke-linejoin="miter"></path></svg>