<svg id="圖層_1" data-name="圖層 1" xmlns="http://www.w3.org/2000/svg" viewBox="0 0 150.89 203.16" fill="#4875FF"><path d="M150.89,112.3v.41l-11.66,9.36c2.61,2.1,5.12,4.14,7.64,6.14,1.32,1,2.68,2,4,3.08v.61c-.08.1-.2.19-.22.31-.19,1-.75,1.27-1.79,1.25-3.7-.08-7.41,0-11.12,0a2.13,2.13,0,0,0-1,.12c-2.09,1.22-4.16,2.49-6.39,3.84.66.61,1.25,1.12,1.81,1.67,1.29,1.25,2.51,2.59,3.89,3.74a1.67,1.67,0,0,1,.76,1.47q0,10.36,0,20.71a2.48,2.48,0,0,1-1.29,2.34L81.68,199.77c-1.85,1.11-3.68,2.26-5.52,3.39H74.93c-6.78-4-13.59-8-20.34-12.07Q34.91,179.21,15.3,167.2a2.66,2.66,0,0,1-1.13-1.86c-.08-7.15-.05-14.29,0-21.44a1.46,1.46,0,0,1,.48-.9c1.94-1.88,3.9-3.73,5.93-5.66-2-1.2-3.9-2.34-5.79-3.4a3.71,3.71,0,0,0-1.68-.49c-3.3,0-6.6-.08-9.9,0-1.48,0-2.8,0-3.18-1.77v-.2l11.75-9.44L0,112.71v-.21A2,2,0,0,0,.27,112c.18-1.06.78-1.33,1.84-1.31,3.68.08,7.35,0,11,0h1.15v-1.34q0-33.94,0-67.88a1.85,1.85,0,0,1,1-1.86Q29.4,31.07,43.46,22.39a5.14,5.14,0,0,1,3.53-.9,1.76,1.76,0,0,1,1,.57c.83,1.1.59,4.65-.36,6.08h4.1a5.61,5.61,0,0,1-.67-1.56,20.64,20.64,0,0,1,0-3.77c0-.47.6-1.26,1-1.28,2.19-.11,4.4-.05,6.71-.05V24.2A3.74,3.74,0,0,0,62,28.14c1.23.22,2.51.15,3.75.28,2.85.3,4.89-2.39,4.82-4.78,0-.7,0-1.4,0-2.09h3.62c-.41,2.25.58,4.53-.77,6.56h4.21c-1.93-1.88-.73-4.18-1.18-6.29h7.79c-.34,2.17.64,4.42-1.09,6.3h4.32c-1.82-2.05-.72-4.4-1.06-6.57h3.67c.43,3.51.21,4.87-1.11,6.66h11.87c.17,0,.46-.12.5-.24.29-.87.53-1.75.78-2.63a11.47,11.47,0,0,1-8,2.35c-.94-.06-1.67-.39-1.74-1.36-.09-1.51,0-3,0-4.7,2.33.4,4.87-.87,6.74,1.57l.09-1.64h5.14c-.35,2.23.64,4.53-.88,6.5h4.16c-.31-.45-.8-.84-.83-1.26-.1-1.51,0-3,0-4.68.41.22.67.34.93.49,9.25,5.52,18.49,11.06,27.76,16.54a2.08,2.08,0,0,1,1.2,2.07q0,34,0,68v1.51h1.21c3.41,0,6.81.06,10.21,0C149.49,110.63,150.57,110.72,150.89,112.3ZM26.24,44.63c-.45.23-.75.36-1,.53-1.51.86-3,1.77-4.52,2.57a1.74,1.74,0,0,0-1.08,1.81q0,39.49,0,79a1.92,1.92,0,0,0,1.1,1.9q27,16.05,54,32.17a1.38,1.38,0,0,0,1.64,0q27.14-16.2,54.29-32.38a1.21,1.21,0,0,0,.71-1.19q0-40.21,0-80.44a1.18,1.18,0,0,0-.71-1.18q-11.11-6.35-22.23-12.69a3.21,3.21,0,0,0-1.53-.38q-30.93,0-61.86,0a3.28,3.28,0,0,0-1.53.39q-8,4.56-16,9.16a6.82,6.82,0,0,0-.62.43l.05.19h97.87v1.14q0,41.49,0,83a1.54,1.54,0,0,1-.87,1.52q-23.76,14.13-47.47,28.31a1.53,1.53,0,0,1-1.82,0q-23.36-14-46.77-27.87a2.85,2.85,0,0,1-1.61-2.87q.07-40.78,0-81.56Zm108,101-1.58.93Q105,163.24,77.28,179.91a3.11,3.11,0,0,1-3.58,0q-27.95-16.84-55.92-33.63l-1-.57a3.25,3.25,0,0,0-.06.45c0,6.09,0,12.18,0,18.27a1.56,1.56,0,0,0,.7,1.05L74.6,199.88a1.35,1.35,0,0,0,1.64.08q28.42-17.15,56.88-34.21a2,2,0,0,0,1.15-2c-.06-4.66,0-9.33,0-14Zm-66.59,6.82V135.72l1.56-.5v1.17c0,5.37,0,10.75,0,16.12,0,.35,0,.87.25,1,1.4.91,2.87,1.74,4.37,2.64V97.64H69.17V116.3c-1.2,0-1.52-.59-1.51-1.69.06-5.27,0-10.54,0-15.82,0-.39,0-.78-.05-1.15H63.36v3.77l-1.51.18v-4H57.66a3.47,3.47,0,0,1-.25,1.31A8.72,8.72,0,0,1,56,100.15V97.62H51.76c0,2.08,0,4.12,0,6.15a9.72,9.72,0,0,1-.45,1.46c-.09.4-.27,1-.08,1.2a3.23,3.23,0,0,1,.55,2.41c0,1.53-.06,3.06,0,4.59.06,1.16-.57,1.77-1.59,2.45V97.65H45.91v22.13c0,6.26,0,12.52,0,18.78,0,.37.06.92.3,1.08,1.26.84,2.58,1.58,4.05,2.46v-4.7l1.49.5c0,1.44,0,2.87,0,4.29,0,.29,0,.74.17.85,1.29.84,2.62,1.6,4,2.46.22-3.24-.14-6.28.37-9.29a.59.59,0,0,1,.3.44c.32,3.1.62,6.19.93,9.29,0,.21.07.53.21.62,1.3.82,2.63,1.59,4.08,2.46,0-4.35,0-8.46,0-12.58,0-1.29.05-1.32,1.53-1.15v1.2c0,4.19,0,8.37,0,12.56,0,.34.05.85.27,1C64.91,150.87,66.2,151.6,67.66,152.48Zm47.33-6-1.6.94Q95,158.26,76.53,169.17a1.76,1.76,0,0,1-2.09,0Q55.72,158.08,37,147c-.28-.16-.57-.29-1-.51,0,2.36,0,4.56,0,6.76A1.65,1.65,0,0,0,36.9,155q18.9,11.21,37.75,22.48a1.4,1.4,0,0,0,1.64,0c5.66-3.38,11.36-6.7,17-10.08,7-4.15,13.93-8.35,20.88-12.54.33-.2.75-.61.76-.93C115,151.49,115,149.08,115,146.45ZM106.68,46.1v1.37c0,7.32,0,14.63,0,22a3.93,3.93,0,0,1-1.56,3.07V46.12h-4.34V71.19a3.81,3.81,0,0,1-1.52-3.27c.07-6.84,0-13.68,0-20.51V46.14H95V94.35h4.35c0-2.52.08-5,0-7.4a3.63,3.63,0,0,1,1.59-3.15V94.36h4.27V82.57a3.67,3.67,0,0,1,1.56,3c-.12,2.55,0,5.11,0,7.66,0,.36,0,.72,0,1.08H111c0-2.93,0-5.78,0-8.63a2.27,2.27,0,0,1,.75-1.89c.8-.73.68-1.23-.1-2a2.29,2.29,0,0,1-.61-1.37c-.07-1.9-.07-3.81,0-5.71a2.49,2.49,0,0,1,.64-1.45c.74-.82.86-1.34.06-2.07a2.27,2.27,0,0,1-.74-1.89c0-7.28,0-14.56,0-21.84V46.1Zm11.79,0V94.38h4.59V46.09Zm-1.72,48.29V46.13h-4.19V94.38Zm-23.33,0V46.13H89.23V65.67c2.52,1,2.94,1.61,2.94,4.37,0,.85-.06,1.7,0,2.55.17,2.27-.54,3.94-2.92,4.45V94.37ZM44.28,138.53V97.65H40.05v10.89q0,13.26,0,26.52c0,.37,0,.92.29,1.08C41.59,137,42.89,137.69,44.28,138.53ZM72.69,74.14c0,.61-.07,1.15-.11,1.68-.25,2.88-.51,5.75-.73,8.63-.09,1.16.38,1.68,1.5,1.71,1.43,0,2.86,0,4.28,0a1.36,1.36,0,0,0,1.49-1.64c-.11-1.59-.27-3.18-.41-4.77-.15-1.85-.31-3.7-.47-5.61L88.52,75c1.17.1,1.71-.39,1.73-1.57s0-2.66,0-4-.48-1.79-1.81-1.7c-2.14.16-4.27.36-6.4.54l-3.77.31a5.8,5.8,0,0,1,0-.63c.27-3.18.55-6.36.82-9.55.11-1.24-.37-1.82-1.58-1.84s-2.72,0-4.08,0c-1.18,0-1.67.54-1.58,1.73.15,2.14.35,4.27.53,6.4.1,1.27.2,2.54.31,3.89l-1.45-.11c-2.91-.25-5.82-.51-8.74-.73-1.36-.11-1.77.31-1.78,1.7s0,2.72,0,4.08c0,1.08.55,1.54,1.62,1.47.81,0,1.62-.14,2.44-.21ZM32.63,131.58v-34H27.92a1.17,1.17,0,0,0-.1.33q0,15.1,0,30.21a1,1,0,0,0,.36.74C29.61,129.8,31.07,130.65,32.63,131.58Zm1.73-34a1,1,0,0,0-.06.2q0,17.09,0,34.17c0,.22,0,.55.18.64,1.3.83,2.62,1.6,4,2.45V97.62ZM133,143.31l-4.73-4.72c-3.48,2.06-7.08,4.17-10.66,6.31a.91.91,0,0,0-.4.62c0,2.43,0,4.86,0,7.48ZM33.79,153c0-2.62,0-5,0-7.44a1.11,1.11,0,0,0-.54-.75q-5.09-3-10.19-6a.93.93,0,0,0-.86,0c-1.47,1.41-2.89,2.87-4.4,4.37Zm16.62-75.5c1.7-1.44,3.35-2.81,5-4.2,1-.86,1-1.33.13-2.26l-1.3-1.3c-1.34-1.34-1.65-1.33-2.9.15l-3.88,4.63-4.21-5c-.81-1-1.35-1-2.28-.1-.51.5-1,1-1.51,1.51-1,1-1,1.55.09,2.43l4.89,4.11c-.28.25-.49.46-.72.66-1.43,1.2-2.87,2.4-4.28,3.62-.91.77-.92,1.34-.07,2.2.53.54,1.06,1.06,1.59,1.59,1,.93,1.46.91,2.34-.13s1.8-2.13,2.7-3.2l1.46-1.72,4.17,4.95c.84,1,1.39,1,2.35.08l1.44-1.44c1-1.06,1-1.52-.11-2.48Zm33-31.41v20.1c1.11-.09,2.15-.24,3.19-.23.87,0,1.06-.34,1-1.15,0-5.91,0-11.82,0-17.73v-1Zm18.25,73.38.1-.31c-1.56-.52-3.17-.93-4.67-1.58s-3-1.59-4.51-2.45c1-1.32,1-3,2.62-3.73.65-.29.43-1.1-.27-1.39l-1.79-.73.25,1.19c-1.07,0-2,0-3,0a2.42,2.42,0,0,1-2.15-1.13A9.49,9.49,0,0,0,86.82,108a3.6,3.6,0,0,0,1.29,3.12c-.34,1.32-1.44,1.52-2.39,1.84a2.78,2.78,0,0,1-.62,1.46c-1.48,1.49-3,2.93-4.75,4.59,3.44-.1,5.26-2.52,7.49-4.25l1.88,1.56-3.12,2.45a5.56,5.56,0,0,0,2.68-.44c1.42-.86,2.47-.48,3.59.46C95.63,121.12,98.62,120.61,101.65,119.49ZM87.58,94.43V76.9l-4-.35c-.11.16-.15.18-.15.21,0,5.67,0,11.35,0,17a.9.9,0,0,0,.63.62C85.15,94.46,86.31,94.43,87.58,94.43Zm12.07,39.94c.48-.69,1.14-1.71,1.86-2.69a1.09,1.09,0,0,0-.31-1.8,23.78,23.78,0,0,0-2.71-1.38,1.12,1.12,0,0,0-.88,0c-1.36.64-2.69,1.33-4,2,.78,1.12,1.5,2.43,3.35,1.5-.82,1.31-1.33,2.82-3.15,3-.09-.81-.17-1.58-.26-2.35-.26-2.11-.71-2.52-3-2.69a2.37,2.37,0,0,0-.19.75c.29,2,.55,4.08,1,6.1a1.3,1.3,0,0,0,1.61.91c2-.26,4-.46,6-.77.48-.08,1.18-.38,1.29-.72S99.9,135.16,99.65,134.37ZM85,132.93c-1,2.12-2.34,3.86-4.71,4.6,2.07,1.84,3.53-.23,5.23-.69-.1,1.33-.21,2.61-.27,3.9,0,.75.16,1.6,1,1.65.37,0,1-.79,1.14-1.33a25.57,25.57,0,0,0,.44-3.42c.11-1.06.21-2.12.33-3.27.32.15.48.21.63.29a.85.85,0,0,0,1.32-.46c.07-.22-.43-.67-.73-.95a1.29,1.29,0,0,0-.66-.25c-.53-.08-.62-.38-.56-.87a2.37,2.37,0,0,1,1.14-1.79,2.42,2.42,0,0,0,.86-1.65c0-.24-.87-.62-1.4-.82a16.57,16.57,0,0,0-1.84-.48c-.52-.14-1-.3-1.66-.49a5.29,5.29,0,0,0,.17.54c.5,1.31.42,1.57-.81,2.12s-2.69,1.2-4.06,1.81C81.61,133,83,133.71,85,132.93Zm-.85-31c-.69,1.68,1.17,2.53,1.19,3.9-1.49.81-2.83.19-4-.53-.29,1.25-.54,2.3-.79,3.35a1.82,1.82,0,0,0,1.3,2c1,.14,1-.79,1-1.32a1.28,1.28,0,0,1,1.45-1.39c.47,0,.94-.17,1.41-.23,3.36-.48,6.72-1,10.08-1.42a2.47,2.47,0,0,1,.62.06l-.32.79-2.16-.31-.3,1.71c.57.06,1.14.13,1.71.15.21,0,.53,0,.63-.2.77-1.19,2-1.24,3.22-1.41a2.13,2.13,0,0,0,1.13-.39,1.42,1.42,0,0,0,.22-1,7.26,7.26,0,0,0-2.64-.95c-2.29,0-4.57.27-6.85.44a1.8,1.8,0,0,1,.75-.73c1.23-.71,2.47-1.41,3.7-2.13.39-.22.84-.49.36-1a2.07,2.07,0,0,0-3,.15,5.78,5.78,0,0,0-.53,1,4.86,4.86,0,0,1-5.48,3C86.07,102.11,86,102,84.15,101.91ZM81.78,66.35V46.13H77.09v8.5a3.75,3.75,0,0,0,.47.06c2.4.11,3.6,1.41,3.49,3.78,0,.44-.07.88-.11,1.32-.18,2.19-.37,4.38-.56,6.66Zm0,28v-18l-1.37-.08c0,.7.07,1.27.12,1.84.17,2.13.4,4.26.53,6.39a3.19,3.19,0,0,1-3.15,3.52l-.81.09v6.19ZM14.22,131.22v-8.31L4.14,131l.14.19ZM4,113l10.28,8.28V113Zm132.81,18.22H147l-10.25-8.25Zm0-18.24v8.24L147,113Zm-54,12.83,0,.38c1.22.19,2.45.42,3.68.57a6.87,6.87,0,0,0,1.92,0,7.3,7.3,0,0,0,2.1-.64,1.11,1.11,0,0,0,.29-1,1.65,1.65,0,0,0-2-.84c-1.24.34-2.49.6-3.74.91C84.29,125.37,83.53,125.58,82.77,125.78Zm2.8-24.41c1.26,1,5.52.55,7-.65-.16-1.06-1-1.23-1.8-1.45C89.52,101.24,87.23,100.49,85.57,101.37ZM84,108.46a24.11,24.11,0,0,0,.35,2.56.94.94,0,0,0,.74.55c.23,0,.51-.41.6-.7C86,109.77,85.77,109.36,84,108.46Zm4-6.18a19.17,19.17,0,0,0,.81,2c.13.23.63.51.76.43a1.24,1.24,0,0,0,.54-.83C90.2,103,89.58,102.51,88,102.28Zm1.75,5.26-.21.31a6.72,6.72,0,0,0,1.25,1.3c.57.35,1,0,1.24-.61s-.21-.78-.69-.84S90.28,107.59,89.75,107.54Z"/><path d="M106.78,0c.29.21.57.46.88.64Q122,9.07,136.32,17.45a1.65,1.65,0,0,1,.94,1.69c0,2.61,0,5.23,0,8.06l-.94-.53q-14.43-8.46-28.85-16.91a4.1,4.1,0,0,0-1.9-.52q-29.51,0-59,0a4,4,0,0,0-2,.57q-14.2,8.63-28.37,17.32c-.39.24-.79.47-1.34.79,0-3,0-5.88,0-8.73,0-.34.49-.76.85-1Q27.31,11.13,38.89,4.06C41.05,2.73,43.18,1.35,45.33,0Z"/><path d="M14.29,38.9c0-2.69,0-5.25,0-7.79a1.61,1.61,0,0,1,.77-1q11.82-7.53,23.68-15c1.78-1.12,3.55-2.28,5.35-3.37a3.11,3.11,0,0,1,1.5-.44q29.87,0,59.72,0a3,3,0,0,1,1.42.39q14.57,8.82,29.11,17.67a1.44,1.44,0,0,1,.83,1.45c0,2.21,0,4.42,0,6.63,0,.33,0,.65-.05,1.14l-1.25-.71q-13.87-8.28-27.76-16.55a1.4,1.4,0,0,1-.83-1.44c.09-1.43.09-2.87.13-4.36h-2.84c.13,1.61.25,3.22.38,4.89H99.31c0-.18-.09-.41-.09-.39A14.92,14.92,0,0,1,97,20.4c-1.45.06-2.91,0-4.44,0V16c3.3-.21,5.85-.52,8.72,2.26-.28-1-.46-1.75-.73-2.48a.76.76,0,0,0-.61-.38c-3.5,0-7,0-10.75,0,1.6,1.5.8,3.23,1.07,4.91H86.67V15.47H83.88l.33,4.9h-7.7l.22-4.9H73.91l.33,4.9H70.63c.06-1.82-.58-3.76,1.5-5H68.19c2.44,1.18,1.69,3.15,1.81,5H61.32c-.4-2.72-.2-4,.77-5h-4c.79,1.12.83,1.45.66,5h-6.5l4.21-4.79h-3c.88.64.64,1.32.16,2a15.63,15.63,0,0,0-1.07,1.62,2,2,0,0,1-2.37,1.22,2.35,2.35,0,0,1-1.15-.59c-.69-.79-1.28-1.68-1.93-2.51s-.73-1.33.42-1.93H42.8l4.07,4.82-.06.29c-2.27-.58-3.74.92-5.38,1.92q-13.16,8-26.28,16.05C14.91,38.6,14.65,38.72,14.29,38.9Z"/><path d="M61.26,21.51H70c-.07,2,.3,4.08-1.54,5.54a5,5,0,0,1-5.39.3C60.9,26,61.18,23.74,61.26,21.51Z"/><path d="M35.33,169.3l.78-1.36c-1.19-.72-2.32-1.45-3.5-2.1-.65-.35-.67-.71-.32-1.3s.65-.66,1.22-.29c1.14.73,2.32,1.39,3.54,2.12l.78-1.26c-1.28-.77-2.5-1.55-3.76-2.26-.6-.33-.74-.66-.38-1.29s.74-.63,1.31-.28q2,1.28,4.11,2.46c.59.34.76.64.36,1.27-1.18,1.91-2.32,3.84-3.44,5.77-.33.58-.68.66-1.23.32-1.45-.89-2.9-1.77-4.37-2.61-.59-.34-.64-.67-.29-1.23s.61-.73,1.21-.35C32.61,167.71,33.91,168.45,35.33,169.3Z"/><path d="M113.14,165.09l.75,1.29c1-.6,1.93-1.22,2.92-1.71.56-.29,1.15-1.34,1.88-.08s-.43,1.22-.94,1.57c-.91.63-1.89,1.17-2.92,1.78l.8,1.34c1.35-.79,2.67-1.54,3.94-2.35.58-.37.89-.25,1.22.3s.39.88-.24,1.24c-1.5.86-3,1.75-4.46,2.66-.52.32-.83.22-1.14-.31-1.15-2-2.31-3.92-3.5-5.86a.71.71,0,0,1,.29-1.16q2.2-1.28,4.37-2.61c.63-.39.89,0,1.19.44s.24.83-.29,1.14C115.72,163.51,114.46,164.3,113.14,165.09Z"/><path d="M49.32,175.67l-3.24-1.93c-.5.82-.93,1.63-1.46,2.36-.16.21-.64.19-1,.28-.06-.31-.28-.71-.16-.91q1.77-3.1,3.65-6.13c.13-.2.59-.18.89-.26.08.31.32.69.22.92-.33.73-.79,1.41-1.23,2.18l3.21,1.93A23.12,23.12,0,0,1,51.54,172c.16-.21.63-.19,1-.27.06.3.28.7.17.91q-1.79,3.09-3.67,6.12a.89.89,0,0,1-.86.21.91.91,0,0,1-.25-.87C48.28,177.31,48.8,176.55,49.32,175.67Z"/><path d="M100.7,174.12l3.25-1.94a21.77,21.77,0,0,1-1.22-2.12c-.11-.25.12-.65.2-1,.3.08.77.06.89.26q1.89,3,3.65,6.13c.12.2-.13.61-.2.92-.31-.08-.76-.05-.9-.25-.53-.74-1-1.55-1.49-2.41l-3.24,1.93c.47.79.9,1.55,1.36,2.29.26.42.39.78-.16,1.09s-.78,0-1-.42q-1.71-2.9-3.45-5.78c-.24-.41-.45-.76.1-1.11s.84,0,1.1.45C99.92,172.81,100.28,173.41,100.7,174.12Z"/><path d="M90.28,186.44a3,3,0,0,1-3-1.31Q86,183,84.74,180.84c-.12-.23.1-.66.17-1,.32.1.8.11.94.33.77,1.16,1.45,2.38,2.17,3.57s1.57,1.33,2.85.57,1.56-1.6.88-2.75-1.43-2.32-2.07-3.52a1.18,1.18,0,0,1,.1-1.07c.48-.48.81-.1,1.09.37.7,1.21,1.42,2.4,2.14,3.59a3.1,3.1,0,0,1,.33,3.45A4.13,4.13,0,0,1,90.28,186.44Z"/><path d="M60.65,186.44a4.1,4.1,0,0,1-3-2c-.76-1.22-.37-2.4.33-3.54s1.44-2.38,2.15-3.58c.24-.4.46-.74,1-.42s.42.73.16,1.17c-.75,1.22-1.49,2.43-2.2,3.67-.58,1-.25,1.85,1,2.57s2.13.62,2.74-.36c.76-1.21,1.47-2.45,2.2-3.67.23-.39.41-.8,1-.46s.45.66.19,1.1c-.83,1.36-1.62,2.75-2.47,4.09A3.14,3.14,0,0,1,60.65,186.44Z"/><path d="M75.61,191.92h-.84c0-.15-.14-.28-.12-.39.43-2.34-.73-4.09-2.11-5.78-.45-.55-.83-1.18-1.3-1.86,1.16-.29,1.92-.27,2.47.71s1.13,1.61,1.67,2.37c1.43-.81,1.44-3.14,3.7-3.3a5.41,5.41,0,0,1-.28.79c-.19.32-.43.61-.65.91a15.66,15.66,0,0,0-2.08,3A14,14,0,0,0,75.61,191.92Z"/><path d="M22,163.29a.73.73,0,0,1-.71-1.07c1.22-2.07,2.45-4.14,3.72-6.19a.83.83,0,0,1,.79-.2c.22.18.44.68.33.86-1.21,2.12-2.47,4.21-3.73,6.3A1.31,1.31,0,0,1,22,163.29Z"/><path d="M129.88,162.71c-.13.12-.29.37-.5.44s-.61,0-.69-.08q-2-3.19-3.86-6.46c-.09-.15.13-.62.34-.78a.79.79,0,0,1,.75.1c1.32,2.14,2.59,4.29,3.88,6.45A2.15,2.15,0,0,1,129.88,162.71Z"/><path d="M58.46,109.55c.8-.38,1.51-.68,2.18-1a3.58,3.58,0,0,1,3.21.36,1.58,1.58,0,0,1,.21,1.12c-.22,1.37-.47,2.74-.79,4.09a.83.83,0,0,0,.53,1.12c1.66.75,3.32,1.53,5,2.28.85.39,1.73.72,2.7,1.11a8,8,0,0,1-8.1.33c-1.43-.91-2.68-1.62-4.5-1-1,.37-2.32.07-3.51.07,1-.49,2-1,3-1.46.22-.11.33-.4.44-.55l-2.08-2.31c-2.26,3.08-4.76,4.49-7.11,3.94a8.46,8.46,0,0,0,4-4c.84-1.64,1.57-3.34,2.37-5.07-2.29-.46-2.29-.46-3.59-2.51,1.12-.36,2.24-.75,3.38-1.06a1.18,1.18,0,0,0,1.05-1.22c.09-1.17.36-2.33.55-3.48a3.09,3.09,0,0,1,2.94,3.11,8.15,8.15,0,0,0,1.35-.41,3.26,3.26,0,0,1,2.75,0,1.25,1.25,0,0,1,.73.83,1.19,1.19,0,0,1-.52,1,14.79,14.79,0,0,1-3.12,1.2A3.63,3.63,0,0,0,58.46,109.55Zm2.76.81-.2-.23-3.2,1.38,2.56,1.88Z"/><path d="M60.91,128.65a2.91,2.91,0,0,0,1.81-2.21c.14,0,.22-.07.26,0l2.13,1.24a17.88,17.88,0,0,1-1.67,1.7c-.66.53-1.46.87-2.14,1.37a3.46,3.46,0,0,0-.67.94l.18.26c1.47-.11,2.95-.16,4.42-.33s2.49.7,3.68,1.22c.13,0,.2.57.1.78-.4.85-1.14.86-2,.8-1.91-.14-3.84-.17-5.76-.18-.17,0-.48.5-.49.77-.08,1.7-.08,3.4-.14,5.1a8.16,8.16,0,0,1-.21,1.71,2,2,0,0,1-2.16,1.59l-.61-8.75c-1.62.52-3.26.95-4.83,1.56-1.4.55-1.76.55-2.66-.66-.28-.38-.51-.79-.85-1.34,1.88-.43,3.65-.75,5.36-1.27a15.66,15.66,0,0,0,2.88-1.41c.14-.08.22-.4.22-.61,0-1.42,0-2.85,0-4.13a6.71,6.71,0,0,1-2-.64,3.45,3.45,0,0,1-.87-1.56c-.17-.44,0-.72.57-.81,1.64-.28,3.26-.63,4.88-1,1.28-.29,2.28.25,3.66,1C61.57,124.68,60.32,126.12,60.91,128.65Z"/><path d="M50.29,119.06l1.42-.19c0,.41,0,.77,0,1.13,0,3.69,0,7.39,0,11.09,0,1.12-.3,1.65-1.49,1.57Z"/><path d="M69.18,120.75v10.7c-1-.17-1.58-.51-1.53-1.7.11-2.44,0-4.9,0-7.34C67.69,120.71,67.53,121,69.18,120.75Z"/><path d="M53.57,128.64l2.62.78c-.13.45-.27,1.05-.46,1.63a1,1,0,0,1-1.77,0,10.37,10.37,0,0,1-.77-2.28Z"/><path d="M56.1,122.54v-3.26h1.41v3Z"/><path d="M62,119.6c1.55.6,1.57.63,1.37,2.23C61.8,121.79,61.7,121.62,62,119.6Z"/><path d="M96,72.16l2.26-2,5.25,6.21,5.31-6.26,2.22,2.1-6.34,5.35L111,82.81l-2.23,2.08-5.21-6.19L98.2,85l-2.08-2.21,6.23-5.26Z"/><path d="M100.55,77.53l-1.15.94V76.59Z"/><path d="M88.79,73.65l-12.07-1c.35,4.09.69,8,1,12.06H73.21l1-12.06-12.09,1V69.11l12.09,1c-.34-4.09-.67-8-1-12.06h4.54c-.34,4-.68,7.92-1,12.06l12.07-1Z"/><path d="M47.42,78.7,42.1,85,40,82.79l6.23-5.27-6.33-5.35,2.29-2,5.23,6.18L52.78,70l2.1,2.24L48.6,77.52l6.32,5.34-2.25,2Z"/><path d="M91,114.26,89.32,113c.62-.92,1.46-1.27,1.84-.68C91.4,112.72,91.11,113.45,91,114.26Z"/></svg>