<svg id="圖層_1" data-name="圖層 1" xmlns="http://www.w3.org/2000/svg" viewBox="0 0 218.12 251.35" fill="#ffffff"><path d="M2.59,65.11,18.43,55.9c5.58-3.26,11.16-6.55,16.76-9.79a1.57,1.57,0,0,0,.93-1.6c-.06-1.64.05-3.28,0-4.92a3.55,3.55,0,0,1,2.17-3.76c.47-.22.89-.52,1.42-.82-1-1.66-2-3.21-2.76-4.84a6.72,6.72,0,0,1-.77-2.82c-.08-4.72,0-9.44-.06-14.16a3.58,3.58,0,0,1,2-3.5c2.65-1.47,5.28-3,7.88-4.56a3.66,3.66,0,0,1,4.05,0c8.89,5.13,17.8,10.22,26.68,15.36a2,2,0,0,0,2.27,0c9.64-5.69,19.3-11.32,28.93-17a1.65,1.65,0,0,1,1.93,0c10,5.74,20.06,11.43,30.07,17.18a2.06,2.06,0,0,0,2.38,0c8.95-5.17,17.94-10.29,26.89-15.46a3.75,3.75,0,0,1,4.16,0c2.59,1.57,5.24,3.07,7.88,4.56a3.42,3.42,0,0,1,1.91,3.3c-.05,4.84,0,9.68-.05,14.52a5.72,5.72,0,0,1-.68,2.48c-.85,1.67-1.84,3.26-2.83,5,.72.43,1.37.8,2,1.19A3,3,0,0,1,183.11,39c0,1.68.06,3.36,0,5a1.76,1.76,0,0,0,1.11,1.85c10.22,5.78,20.41,11.61,30.63,17.39a1.66,1.66,0,0,1,1,1.69q.14,23.38.3,46.79.1,15.66.17,31.32.12,21.28.3,42.59a1.85,1.85,0,0,1-1.06,1.87c-10.32,6-20.62,12.05-30.94,18.05-1,.61-1.63,1.24-1.45,2.51a13.11,13.11,0,0,1-2.53,9.67,9.65,9.65,0,0,1-3.15,3.14c-4.89,2.72-9.73,5.52-14.56,8.33a3.5,3.5,0,0,1-3.93,0c-2.15-1.31-4.37-2.51-6.52-3.81a1.46,1.46,0,0,0-1.72,0q-19.58,11.5-39.16,23a2,2,0,0,1-2.27,0q-20.13-11.52-40.28-23a1.91,1.91,0,0,0-2.27,0c-2.1,1.3-4.3,2.46-6.41,3.74a3.45,3.45,0,0,1-3.83.06c-5.15-3-10.33-5.91-15.46-8.92a9.85,9.85,0,0,1-1.83-1.82,4,4,0,0,1-.24-.41,13.45,13.45,0,0,1-2.83-10.31c.12-.79-.25-1.2-.93-1.59-10.25-5.8-20.48-11.65-30.73-17.46a1.68,1.68,0,0,1-1-1.66q0-15.84-.16-31.67-.12-23-.25-46-.1-16.9-.24-33.83a9.12,9.12,0,0,0-.17-1.15ZM82.27,82.45l-.47.26Q71.93,88.38,62,94a1.66,1.66,0,0,1-1.37-.11Q54.8,90.63,49,87.24a1.5,1.5,0,0,0-1.75,0c-2.36,1.42-4.75,2.8-7.15,4.14A1.57,1.57,0,0,0,39.18,93c0,3.72,0,7.44,0,11.16,0,1.83-.21,3.7,1.39,5.31-1.66.39-1.53,1.53-1.52,2.67,0,2.44.13,4.89,0,7.32a9.93,9.93,0,0,0,1.88,7.2,4,4,0,0,1,.34.66,4.28,4.28,0,0,1-.72.48c-1.25.45-1.53,1.3-1.5,2.59.12,5.59.15,11.19.15,16.79,0,20.24,0,40.47-.18,60.71,0,3.21.47,6.07,2.43,8.61a5.19,5.19,0,0,0,1.34,1.45c4.9,2.86,9.83,5.65,14.74,8.5a1.4,1.4,0,0,0,1.62,0c2.22-1.34,4.44-2.69,6.74-3.89A2.41,2.41,0,0,0,67.3,220q-.06-27.3,0-54.6v-1.53c1.43.3,1.76,1.05,1.83,2.33.17,3.15-1,6.5,1.2,9.29-.46.5-1.21.94-1.19,1.33.19,2.88-.93,5.94,1.11,8.58.06.08,0,.22,0,.42-1.2.35-1.35,1.27-1.22,2.34a3.85,3.85,0,0,1,0,1,11,11,0,0,0,2.08,8,7.47,7.47,0,0,0,2.42,2.36c6.53,3.7,13,7.46,19.57,11.16a2,2,0,0,1,1.21,2.05c-.07,4.79.11,9.6-.09,14.39a12.41,12.41,0,0,0,2.31,8.53,7.85,7.85,0,0,0,1.89,1.88c3.49,2.24,7,4.39,10.56,6.61a1.16,1.16,0,0,0,1.48-.08c2.65-1.71,5.25-3.53,8-5a12,12,0,0,0,5.6-5.76,7.52,7.52,0,0,0,.86-3.28c0-5.68,0-11.36-.06-17a2.27,2.27,0,0,1,1.35-2.33c6.74-3.81,13.46-7.68,20.17-11.55a3.47,3.47,0,0,0,1.05-.93c2-2.76,3.29-5.7,2.74-9.23-.18-1.2.39-2.62-1.55-3.17,1.81-1.7,1.54-3.7,1.53-5.65,0-.52,0-1,0-1.56,0-1.15.23-2.37-1.55-2.82,1.92-1.85,1.53-4,1.55-6.12a36,36,0,0,0,0-3.6c-.13-1.31.61-1.73,1.8-2.1v1.5q0,27.54,0,55.08a1.9,1.9,0,0,0,1.15,2c2.25,1.22,4.46,2.51,6.63,3.85a2,2,0,0,0,2.35,0c3.71-2.21,7.4-4.46,11.24-6.41a11.93,11.93,0,0,0,6.13-6.18,7.71,7.71,0,0,0,.7-2.7c0-5.39-.12-10.79-.12-16.18q0-26.28.15-52.55c0-3.68-.09-7.36,0-11,.07-1.78-.24-3.1-2-3.74-.05,0-.07-.13-.14-.27.33-.58.64-1.23,1.05-1.81a6.29,6.29,0,0,0,1.12-4.05c-.09-3.07-.05-6.16,0-9.24,0-1.14.12-2.28-1.19-2.56a11.35,11.35,0,0,0,1-3c.1-4.56.07-9.12,0-13.68a1.92,1.92,0,0,0-.8-1.37c-2.38-1.47-4.83-2.81-7.23-4.25a1.5,1.5,0,0,0-1.75,0c-3.8,2.21-7.63,4.35-11.42,6.58a1.64,1.64,0,0,1-1.93,0c-4.07-2.38-8.17-4.69-12.26-7-2.48-1.42-4.95-2.85-7.54-4.35.39-.26.65-.44.92-.6,11.77-6.75,23.52-13.55,35.36-20.21,2.66-1.5,4.85-3.21,6.11-6.06a6.93,6.93,0,0,0,.75-3c0-4.2,0-8.4,0-12.6a1.8,1.8,0,0,0-1.07-1.87c-1.75-.93-3.43-2-5.53-3.21,3.58-.88,4.7-3.67,6.13-6.18a.37.37,0,0,0,0-.11,6.42,6.42,0,0,0,.38-1.46c0-4.56,0-9.12,0-13.68a1.49,1.49,0,0,0-.91-1.49c-2.23-1.25-4.47-2.49-6.63-3.86a2.32,2.32,0,0,0-2.79,0q-29.59,17.06-59.22,34a1.68,1.68,0,0,1-1.94,0q-12.5-7.23-25-14.39Q66.33,17.94,49,8a1.86,1.86,0,0,0-2.16,0q-3.43,2.09-6.94,4a1.47,1.47,0,0,0-.87,1.5c0,4.52,0,9,0,13.56a2.75,2.75,0,0,0,.23,1.26c1.44,2.55,2.55,5.4,5.67,6.46l.51.23c-2,1.15-3.73,2.19-5.5,3.17a1.54,1.54,0,0,0-.94,1.58c.06,3.24.21,6.49,0,9.71a12.41,12.41,0,0,0,2.47,8.84A5.64,5.64,0,0,0,43,59.88q16.3,9.37,32.63,18.71C77.75,79.83,79.92,81.09,82.27,82.45ZM36.1,47.66c-.58.3-.93.47-1.27.67q-14.58,8.54-29.17,17a2.1,2.1,0,0,0-1.24,2.14Q4.6,82.76,4.68,98q.17,27.12.29,54.23c.07,11.32.16,22.63.21,33.95a1.52,1.52,0,0,0,.89,1.5q14.28,8.09,28.54,16.2c.43.25.87.48,1.6.87,0-3.4,0-6.5,0-9.61,0-.33-.52-.75-.89-1Q25.14,188.37,15,182.62a1.86,1.86,0,0,1-1.08-1.88c0-11-.14-22-.21-33q-.24-37.74-.47-75.47a1.67,1.67,0,0,1,1-1.69c5.6-3.24,11.17-6.52,16.75-9.79l5.92-3.48c-.27-1.77-.6-3.26-.71-4.76S36.1,49.47,36.1,47.66ZM183,204.4c.53-.29.74-.39.94-.51q15-8.8,30.1-17.58a1.51,1.51,0,0,0,.74-1.58c-.08-9.24-.17-18.48-.22-27.71q-.12-19.86-.21-39.72-.15-25.67-.3-51.34A1.74,1.74,0,0,0,213,64.21q-13.87-7.84-27.71-15.76c-.68-.38-1.37-.73-2.06-1.1-.57,3.22.71,6.46-1,9.44.3.19.55.37.83.53,6.56,3.73,13.09,7.52,19.71,11.15,1.78,1,3,2,2.55,4.16a6.5,6.5,0,0,0,0,1.08c.08,11.24.18,22.48.24,33.71q.21,36.06.41,72.11a2,2,0,0,1-1.12,2q-10.48,6.08-20.89,12.24a1.85,1.85,0,0,0-.91,1.19C183,198,183,201.06,183,204.4ZM38.5,88.92c-1.94-1.07-3.7-2-5.4-3a3.88,3.88,0,0,0-4.18-.3c-1.51.86-1.84,2.3-1.81,3.91.07,4.23.15,8.47.17,12.7q.15,27.59.28,55.16c0,2.44,0,4.88.08,7.32A3.52,3.52,0,0,0,33,167.77c.75-.39,1.44-.89,2.21-1.2a1.65,1.65,0,0,0,1.07-1.86c-.06-11.59-.07-23.19-.16-34.78,0-1.44,1-2.75.87-3.88s-.88-2.54-.86-4c.09-5.37.11-10.74.13-16.11,0-4.2,0-8.4,0-12.6C36.16,91.5,36.35,89.84,38.5,88.92Zm142.16,0c2.22.91,2.37,2.55,2.36,4.37,0,6.24.06,12.47.08,18.7s0,12.56,0,18.84c0,10.46.06,20.92-.18,31.37-.06,2.86.76,4.36,3.31,5.68a3.84,3.84,0,0,0,5.9-3.55c-.21-11.44-.23-22.88-.29-34.31q-.1-18.9-.17-37.79a27.41,27.41,0,0,0-.2-4.06,3.31,3.31,0,0,0-4.44-2.6C184.93,86.49,183,87.7,180.66,88.92Zm-37.72-6.47c4.87,2.79,9.53,5.48,14.23,8.12a1.64,1.64,0,0,0,1.38-.09c3.45-1.93,6.89-3.87,10.28-5.9a3.75,3.75,0,0,1,4.47,0c.35.25.78.41,1.12.68a1.33,1.33,0,0,0,1.72,0c2.58-1.59,5.11-3.31,7.81-4.66s3.37-5.2-.14-7c-4-2.06-7.8-4.36-11.66-6.61a2,2,0,0,0-2.25,0c-6.77,3.93-13.57,7.8-20.35,11.69Zm-66.76.06a4.85,4.85,0,0,0-.47-.41Q62.42,74.47,49.1,66.86a1.43,1.43,0,0,0-1.18,0c-4.32,2.49-8.65,5-12.91,7.58a3.43,3.43,0,0,0,0,5.84c2.95,1.89,6,3.65,9,5.46.65-.37,1.27-.66,1.82-1a3.87,3.87,0,0,1,4.67-.07c3.35,2,6.77,3.93,10.18,5.84a1.72,1.72,0,0,0,1.39.14C66.71,88,71.37,85.26,76.18,82.51Zm63.06-60.18c-.29-.2-.44-.32-.61-.42q-14.46-8.23-28.91-16.49a1.59,1.59,0,0,0-1.85.12Q94.55,13.37,81.22,21.16c-.49.29-1,.59-1.59,1,2.74,1.57,5.32,3,7.84,4.52a1.55,1.55,0,0,0,1.83,0c6.19-3.66,12.41-7.26,18.58-10.93a1.85,1.85,0,0,1,2.16,0c6.22,3.59,12.49,7.1,18.69,10.72a2.84,2.84,0,0,0,3.43,0C134.43,25,136.82,23.73,139.24,22.33Zm9.63,192c-.42.22-.78.38-1.12.57-5.89,3.45-11.74,7-17.7,10.31-1.68.94-2.51,1.94-2.19,3.88a8.61,8.61,0,0,1-1.67,6.43,32.45,32.45,0,0,0-1.66,2.93l.18.15,25-14.64C148.32,220.79,149.39,217.58,148.87,214.33ZM94,237.69l.14-.16a4.14,4.14,0,0,0-.31-.59,13.08,13.08,0,0,1-2.49-9.8,1.44,1.44,0,0,0-.91-1.6c-6.4-3.6-12.77-7.26-19.16-10.89-.29-.17-.6-.29-.93-.45-.47,3.26.54,6.49-.72,9.63Zm8.17-202.63a33.93,33.93,0,0,1,4.23,2.49c2.19,1.74,4.16,1.79,6.35,0a28.8,28.8,0,0,1,3.81-2.24c-2.52-1.44-4.8-2.75-7.1-4a1,1,0,0,0-.85,0C106.52,32.5,104.44,33.74,102.19,35.06Zm-66,137.56a3.48,3.48,0,0,0-1.73,3.52,2.83,2.83,0,0,0,1.73,2.5Zm147,.27v5.2C184.8,176.45,184.77,174.18,183.13,172.89Z"/><path d="M94.16,83.42,84.3,77.75Q65.18,66.79,46,55.84a1.76,1.76,0,0,1-1-1.78c.05-4.28,0-8.56,0-12.84V39.83l55.22,31.66V67.74c0-2,0-4.08,0-6.12a1.37,1.37,0,0,0-.82-1.41q-16.27-9.3-32.55-18.64-10.45-6-20.9-12a1.68,1.68,0,0,1-1-1.68c.05-4.67,0-9.35,0-14.27l1.11.59L105,48c1.24.72,2.53,1.37,3.73,2.15a1.52,1.52,0,0,0,1.85,0q17.87-10.27,35.75-20.52l26.82-15.36c.3-.17.62-.31,1.07-.53v6.48c0,2.56,0,5.12,0,7.68a1.72,1.72,0,0,1-1.05,1.76Q148.07,44,123,58.39c-1.31.76-3.08,1.26-3.77,2.4s-.19,2.87-.2,4.35c0,2,0,4.06,0,6.33l55.15-31.61c0,.5.07.87.07,1.23,0,4.32,0,8.64,0,13a1.77,1.77,0,0,1-1,1.78q-23.62,13.49-47.2,27l-1,.59c2,1.17,3.92,2.28,5.84,3.38q12.94,7.41,25.87,14.84a1.77,1.77,0,0,0,2.06,0c4.76-2.78,9.56-5.5,14.34-8.24.24-.13.49-.24.85-.42,0,.43.08.77.08,1.11,0,4.36,0,8.72,0,13.08a1.65,1.65,0,0,1-1,1.68Q166,112.9,159,117a2,2,0,0,1-2.36,0q-22.89-13.19-45.81-26.33a2,2,0,0,0-2.27,0Q85.57,103.88,62.6,117a2,2,0,0,1-2.27,0q-7.06-4.15-14.23-8.19a1.68,1.68,0,0,1-1-1.67c0-4.67,0-9.35,0-14.18a9.42,9.42,0,0,1,.9.38c4.86,2.77,9.71,5.54,14.55,8.35a1.52,1.52,0,0,0,1.75,0q15.42-8.88,30.86-17.71C93.48,83.89,93.76,83.68,94.16,83.42Z"/><path d="M174.15,129.75c0,.5.06.85.06,1.19q0,6.54,0,13.08-.06,26-.13,51.94,0,7.9.14,15.82a2.33,2.33,0,0,1-1.36,2.44c-4.65,2.57-9.23,5.26-13.84,7.9-.3.17-.63.29-1.12.52V154.45L152,157.79q-20.76,11.94-41.53,23.91a1.49,1.49,0,0,1-1.73,0q-23.1-13.31-46.22-26.56c-.3-.18-.62-.33-1.09-.58v68.19c-.54-.27-.88-.41-1.2-.59-4.71-2.7-9.41-5.44-14.14-8.1A1.83,1.83,0,0,1,45,212.18q.09-32.56.1-65.14c0-5.28,0-10.56-.07-15.84,0-.42,0-.84,0-1.5,1.39.78,2.56,1.44,3.72,2.11q29.71,17,59.42,34.11a2.51,2.51,0,0,0,2.91,0Q142,148.1,173,130.36Z"/><path d="M174.21,111.26c0,4.36,0,8.44,0,12.52a1.74,1.74,0,0,1-.82,1.12q-12.18,7-24.4,14l-38.32,22a1.57,1.57,0,0,1-1.84.14Q77.41,143,46,125a1.56,1.56,0,0,1-.94-1.58c0-4,0-7.91,0-12.15l55.22,31.63v-1.52c0-9.56,0-19.12,0-28.68a1.79,1.79,0,0,1,1-1.88c2.53-1.36,5-2.81,7.49-4.28a1.44,1.44,0,0,1,1.73,0c2.48,1.47,5,2.91,7.49,4.29a1.72,1.72,0,0,1,1,1.79c0,9.55,0,19.11,0,28.67,0,.44,0,.88,0,1.58Z"/><path d="M144.21,165c0,3,0,5.88,0,8.75,0,.35-.45.8-.8,1q-10.63,6.14-21.3,12.23a5.5,5.5,0,0,1-.94.53c-2.06.69-2.53,2.16-2,4.29l25.06-14.36c0,2.33,0,4.46,0,6.59,0,.29-.52.64-.88.84q-10.59,6.1-21.19,12.18l-1.14.66c-2.26,1.32-2.26,1.32-1.81,4.17l25.07-14.37c0,2.32,0,4.45,0,6.57,0,.3-.52.65-.87.85-7.09,4.09-14.14,8.26-21.33,12.17-2.27,1.24-3.15,2.57-3,5.22.24,6.43.06,12.88.09,19.32a1.55,1.55,0,0,1-.91,1.59q-3.84,2.22-7.61,4.55a1.43,1.43,0,0,1-1.72,0c-2.52-1.56-5-3.08-7.62-4.54a1.59,1.59,0,0,1-.9-1.62c0-7.16,0-14.32,0-21.48a1.83,1.83,0,0,0-1.08-1.86C91.47,203.9,83.75,199.44,76,195a1.72,1.72,0,0,1-1-1.77c.07-1.83,0-3.67,0-5.74L100.26,202a17.08,17.08,0,0,0-.05-2.73c-.06-.36-.53-.73-.91-1q-9.81-5.65-19.64-11.27c-1.32-.76-2.65-1.49-3.94-2.28-.3-.19-.67-.56-.68-.85-.06-2.06,0-4.13,0-6.45l25,14.33c.66-2.25.39-2.92-1.48-4-7.52-4.31-15-8.64-22.56-12.93a1.64,1.64,0,0,1-1-1.67c.06-2.67,0-5.35,0-8.15a5.46,5.46,0,0,1,.84.31c10.74,6.15,21.49,12.28,32.2,18.49a2.49,2.49,0,0,0,3,.11c10.79-6.31,21.65-12.5,32.49-18.72A4.65,4.65,0,0,1,144.21,165Z"/><path d="M94.29,131.61l-23.42-13.4c.39-.26.65-.46.94-.62Q90.26,107,108.69,96.41a1.62,1.62,0,0,1,1.86,0q18.38,10.57,36.77,21.12c.3.18.59.38,1.05.68l-23.45,13.42v-1.48c0-6,0-12.07,0-18.11a8.47,8.47,0,0,0-.76-2.92,11.48,11.48,0,0,0-6-6.11c-2.62-1.27-5.1-2.83-7.61-4.31a1.63,1.63,0,0,0-1.94,0c-3.31,2-6.69,3.89-10,5.9a7.54,7.54,0,0,0-1.91,1.87,12.3,12.3,0,0,0-2.4,8.6c.21,5,.05,10,.05,15ZM76.78,118.17l14.57,8.32c0-2.78,0-5.28,0-7.78a1.21,1.21,0,0,0-.59-.76c-2.08-1.19-4.16-2.35-6.27-3.48a1.37,1.37,0,0,0-1.08-.08C81.24,115.57,79.12,116.82,76.78,118.17Zm51.1,8.32,14.57-8.32c-2.35-1.35-4.51-2.61-6.69-3.82a1.06,1.06,0,0,0-.87,0c-2.18,1.18-4.34,2.37-6.48,3.6a1.16,1.16,0,0,0-.51.81C127.86,121.27,127.88,123.74,127.88,126.49ZM91.26,114.11v-4.25L87.62,112Zm40.36-2.17-3.66-2v4.24Z"/></svg>