<svg xmlns="http://www.w3.org/2000/svg" viewBox="0 0 1000.3 447.02"><g id="圖層_2" data-name="圖層 2"><path d="M486.57,306.94H445.45L192.33,307H99.59a15.3,15.3,0,0,1-2.25-.06,2.33,2.33,0,0,1-1.8-3.4,9.25,9.25,0,0,1,.89-1.38c4.38-6.22,8.8-12.41,13.13-18.66a12.63,12.63,0,0,1,11.34-5.82c.55,0,1.1,0,1.65,0H893.43c.89,0,1.78-.05,2.67,0a2.42,2.42,0,0,1,2,3.84c-.2.35-.45.68-.68,1-4.39,6.22-8.8,12.41-13.15,18.65a12.67,12.67,0,0,1-11.14,5.8c-13.78,0-27.55,0-41.33,0H486.57Zm109.6-20.18c-.34.58-.62,1.2-1,1.74-2.54,3.58-5.11,7.13-7.65,10.7-.3.42-.53.89-.81,1.38a2.92,2.92,0,0,0,3.75-1.44,52.46,52.46,0,0,1,3.15-4.29c-.27.81.09,1.17.87,1.18,1.41,0,2.81,0,4.34,0-1.4,1.26-3,1.19-4.68,1.21-1.87,0-2,.18-2.58,2a25.3,25.3,0,0,0,5.08-.08,16.55,16.55,0,0,0,4.46-2,19.32,19.32,0,0,0,4.31-2.76l-2.88-.35a4.16,4.16,0,0,1,3.58-1.21c2.14,0,2.37-.18,3.07-2.35a2.28,2.28,0,0,1-.6-.12c-.44-.23-.86-.49-1.28-.74.29-.4.51-.93.9-1.17a16.09,16.09,0,0,1,3.28-1.67c1.28-.42,1.7-1.3,2.08-2.54H608a2.45,2.45,0,0,1-1.19-.17c-2-1.2-2.58-1.19-4.23.13-1,.8-2.08,1.53-3.12,2.28-.1-.2-.17-.55-.31-.58a3,3,0,0,0-3.1.87c.76-1.08,1.52-2.16,2.36-3.37-2.05-.41-3.62-.29-5,1.48-1.18,1.53-2.34,3.15-4.25,4.06-.74.35-1.69,1.64-1.53,2.22.3,1.13-.34,1.62-.79,2.27-1.84,2.63-3.73,5.22-5.59,7.84-.29.41-.5.87-.87,1.53a18.49,18.49,0,0,0,2.73,0,2.47,2.47,0,0,0,1.5-.81c3-4.16,5.87-8.38,8.86-12.54A26.09,26.09,0,0,1,596.17,286.76Zm-215.46,3.68.24.2-7.46,10.47c1,.05,1.66.05,2.31.12a2.33,2.33,0,0,0,2.4-1.15c3.19-4.54,6.45-9,9.67-13.55a9.92,9.92,0,0,0,.64-1.36c-2,0-3.8,0-5.56,0a2.75,2.75,0,0,0-2.32,1c-2.29,2.55-4.63,5-7,7.56-.43.47-.9.91-1.36,1.37l-.28-.19,4.74-9.75c-2,0-3.65.08-5.27,0a2.89,2.89,0,0,0-2.87,1.44c-3,4.33-6.13,8.59-9.19,12.88-.35.48-.63,1-1.12,1.79a21,21,0,0,1,2.28,0,2.32,2.32,0,0,0,2.52-1.33,17.09,17.09,0,0,1,1.07-1.5l5.85-8.14.32.17c-1.62,3.49-3.24,7-5,10.79,1.16,0,2-.08,2.88,0a3.72,3.72,0,0,0,3.39-1.43c2.59-2.83,5.29-5.56,7.95-8.32C379.94,291.12,380.33,290.79,380.71,290.44Zm254.92-1.56c-.63-.05-1-.11-1.44-.11H616.94c-2.23,0-2.75.43-3.53,3H626l0,.44a14.28,14.28,0,0,1-1.71.22c-1.5,0-3,0-4.51,0-2.44,0-2.63.14-3.63,2.73l5.08.22,0,.46c-.66,0-1.31.1-2,.1h-7.4c-2.26,0-2.82.46-3.48,2.85,1.74,0,3.45-.05,5.16,0s3.47-.28,5.22.22c-.29,1.05-1,1-1.68,1-1.51,0-3,0-4.52,0-2.41,0-2.77.28-3.62,2.79,2.71,0,5.38-.07,8,0a4.93,4.93,0,0,0,4.72-2.31,3.38,3.38,0,0,1,3.74-1.81c.39.07.82,0,1.22,0,2.07.34,3.13-.75,3.84-2.72l-5-.24-.09-.5c.56-.33,1.09-.71,1.67-1,2.1-1,4.2-2,6.33-2.93A3.83,3.83,0,0,0,635.63,288.88Zm-417.91,7.93-.4-.2c1.27-3.78,2.55-7.57,3.9-11.6-2,0-3.72.08-5.42,0a2.77,2.77,0,0,0-2.68,1.42c-3,4.31-6.14,8.58-9.2,12.87-.34.47-.62,1-1,1.61,2.33.53,4,.26,5.31-1.9,1.82-3,4-5.72,6-8.55.38-.53.8-1,1.2-1.55-.83,4.16-2.53,8-3.66,12.21,1.83,0,3.34-.09,4.83,0a3.19,3.19,0,0,0,3.22-1.59c3-4.28,6.05-8.47,9.07-12.71.34-.48.63-1,1-1.56-2.44-.66-4.27-.24-5.41,2.05a13.71,13.71,0,0,1-1.3,1.85ZM163.3,285c-2.11,0-3.94.06-5.76,0a2.35,2.35,0,0,0-2.19,1.19c-3.2,4.53-6.45,9-9.67,13.54A12,12,0,0,0,145,301c.53,0,.87,0,1.2.08a3.51,3.51,0,0,0,3.89-1.87c1.51-2.44,3.31-4.7,5-7,.87-1.21,1.75-2.42,2.62-3.64-.85,4.28-2.69,8.2-3.79,12.55,2,0,3.61-.07,5.25,0a2.64,2.64,0,0,0,2.55-1.29c3.18-4.53,6.44-9,9.67-13.54a12.19,12.19,0,0,0,.63-1.15c-.74,0-1.28,0-1.81-.11a3,3,0,0,0-3.18,1.63c-2,3-4.2,5.92-6.32,8.86-.33.47-.71.9-1.07,1.34l-.29-.16Zm253.57.23c-.74,0-1.15,0-1.55-.08-1.7-.3-2.76.43-3.7,1.86-1.92,2.91-4,5.7-6.07,8.53-.38.53-.79,1-1.19,1.53l-.3-.15c1.3-3.85,2.59-7.7,4-11.78-2,0-3.75.06-5.45,0a2.65,2.65,0,0,0-2.54,1.29c-3.19,4.54-6.45,9-9.68,13.54a12.79,12.79,0,0,0-.65,1.15c.53.06.85.08,1.17.13a3.73,3.73,0,0,0,4.06-2c2.05-3.16,4.34-6.15,6.55-9.21.33-.46.71-.88,1.07-1.32l.23.14c-1.38,4-2.77,8.06-4.25,12.34,2.07,0,3.78-.08,5.48,0a2.61,2.61,0,0,0,2.51-1.34c3.07-4.37,6.21-8.7,9.32-13C416.15,286.44,416.41,286,416.87,285.24ZM269.56,301.16c2,0,3.73-.07,5.43,0a2.6,2.6,0,0,0,2.53-1.3c3.11-4.43,6.29-8.81,9.44-13.21a16.6,16.6,0,0,0,.82-1.47c-.56,0-.9,0-1.22-.1-1.85-.32-3,.47-4,2-2,3-4.2,5.92-6.32,8.86-.28.39-.63.73-.94,1.09l-.2-.16c1.31-3.87,2.61-7.73,4-11.82-2,0-3.81.06-5.58,0a2.44,2.44,0,0,0-2.37,1.2c-3.19,4.54-6.46,9-9.68,13.54a9,9,0,0,0-.62,1.28h3.69l8.84-12.16a.23.23,0,0,1,.19-.07s.08.08.2.23Zm-162.94-.45c.24.15.35.28.46.28,4,0,8.08.06,12.11,0a5.52,5.52,0,0,0,4.42-2.3c2.71-3.69,5.37-7.43,8-11.17a2,2,0,0,0,.33-2.42,16.68,16.68,0,0,0-1.7-.16c-3.63,0-7.26,0-10.88-.08a2.71,2.71,0,0,0-2.53,1.33c-3.11,4.43-6.28,8.8-9.42,13.2C107.12,299.81,106.88,300.27,106.62,300.71Zm73.25-4.9c-1,.89-1.59,1.93-2.31,2a54.25,54.25,0,0,1-6.25.09c0-.35-.05-.52,0-.61,2-2.79,4-5.6,6-8.36a2,2,0,0,1,1.31-.84,27.09,27.09,0,0,1,6,.14l-1.19,2.27c3.53.56,3.53.56,5.4-2.05.23-.34.49-.66.7-1,1-1.65.61-2.4-1.28-2.43-3,0-5.9,0-8.84,0a6,6,0,0,0-5.39,2.79c-2.42,3.41-4.87,6.8-7.3,10.2a7,7,0,0,0-.57.85c-.76,1.45-.35,2.24,1.28,2.27q4.83.07,9.66,0a5.41,5.41,0,0,0,4.56-2.37c1.17-1.69,2.4-3.34,3.58-5a5.86,5.86,0,0,0,.45-1.18c-1.84,0-3.49.11-5.12,0a2.87,2.87,0,0,0-3.14,1.72c-.18.35-.41.68-.71,1.16Zm248.35-5.72c1.19,0,2.07.05,2.95,0a1.88,1.88,0,0,0,1.24-.5,17.23,17.23,0,0,0,1.87-2.69c.5-.88.2-1.4-.79-1.63a3.64,3.64,0,0,0-.81-.07c-3,0-6,0-9,0a5,5,0,0,0-4,1.85q-2,2.49-3.72,5.16c-.92,1.4-.49,2.21,1.17,2.27,2,.07,4,0,5.95,0a11.56,11.56,0,0,1,1.53.25c-.75,1-1.31,1.89-1.94,2.68-.25.31-.62.69-1,.7A21.5,21.5,0,0,1,416,298c.3-.75.53-1.35.79-2-4.5-.18-3.38-.63-5.75,2.72-1.18,1.66-.68,2.49,1.36,2.52,2.95,0,5.89,0,8.83,0a5.28,5.28,0,0,0,4.39-2.26c1.24-1.64,2.45-3.3,3.58-5a2.62,2.62,0,0,0,.47-1.85c-.23-.88-1.18-.75-1.93-.75H422.8c-.58,0-1.16-.08-2-.15.83-1.28,1.19-2.75,2.61-2.93a17.65,17.65,0,0,1,5.56.1ZM241,293.24c3-1.21,4.19-4.06,5.85-6.44.6-.86.11-1.57-.93-1.73a5.62,5.62,0,0,0-.82,0c-3.29,0-6.58,0-9.86-.05a2.41,2.41,0,0,0-2.19,1.19c-3.2,4.53-6.45,9-9.67,13.54a14.38,14.38,0,0,0-.71,1.39,18.59,18.59,0,0,1,1.86,0,2.79,2.79,0,0,0,3.05-1.49,41.09,41.09,0,0,1,2.62-3.69c.27-.36.66-.88,1-.9a22.16,22.16,0,0,1,5.66.14l-1.9,2.69a17.48,17.48,0,0,0-1.15,1.7c-.42.84-.16,1.34.69,1.52,2.53.54,3.68.08,5.15-2.12a4.34,4.34,0,0,0,.26-.53l-.58-.78C240,296.2,241.78,295.23,241,293.24Zm19.49-8.13v0c-1.29,0-2.6.07-3.89,0a5.81,5.81,0,0,0-5.31,2.54c-2.69,3.62-5.32,7.3-7.9,11-1.11,1.59-.57,2.52,1.42,2.55,2.66,0,5.34-.11,8,0a6.87,6.87,0,0,0,6.39-3.3c2.25-3.19,4.54-6.34,6.81-9.51a8.61,8.61,0,0,0,.68-1c.78-1.46.39-2.19-1.27-2.25S262.14,285.11,260.49,285.11Zm87.59,16.13h3.48a5.3,5.3,0,0,0,4.43-2.2q4.13-5.62,8.14-11.34c1.13-1.61.62-2.5-1.41-2.55-2.18-.05-4.37,0-6.56,0a5.68,5.68,0,0,0-4.74,2.45c-2.65,3.65-5.27,7.33-7.9,11a3.84,3.84,0,0,0-.44.69c-.55,1.17-.19,1.86,1.1,1.93S346.78,301.24,348.08,301.24ZM206.08,285c-2.34,0-4.37,0-6.39,0a2.44,2.44,0,0,0-1.33.82q-7.17,7-14.28,14.14a4.57,4.57,0,0,0-.57.88c2.4.64,4.3.16,5.72-1.82a1.93,1.93,0,0,1,1.1-.84,23.71,23.71,0,0,1,6.06.11c-.3,1-.54,1.78-.82,2.69h4.06C201.74,295.82,203.84,290.59,206.08,285ZM297.59,301c2.46.59,4.35.21,5.8-1.74a2.35,2.35,0,0,1,1.48-.93c1.87-.11,3.75,0,5.78,0-.34,1.1-.6,1.91-.88,2.81h4.09c2.12-5.28,4.22-10.51,6.42-16-1.91,0-3.48.07-5,0a3.62,3.62,0,0,0-3.06,1.22c-2.4,2.52-4.94,4.91-7.4,7.38S300.08,298.43,297.59,301ZM137.5,301h4.1c2.12-5.23,4.22-10.46,6.48-16.06-2.08,0-3.83,0-5.58,0a2.81,2.81,0,0,0-2.18.9c-4.74,4.74-9.52,9.44-14.27,14.16a4.87,4.87,0,0,0-.57,1c2.41.48,4.35.09,5.75-1.92a2.94,2.94,0,0,1,1.1-.87c.68-.31,5.06,0,6,.31Zm392.1-7.43h-3.46c-1,0-2.1-.07-3.5-.12l2.53-4.23h5.58c2.11,0,2.34-.19,3.17-2.59H527c.42-1,.73-1.68,1.13-2.62a17.23,17.23,0,0,0-2.63,0,1.81,1.81,0,0,0-1.26.78c-.74,1.67-2,2.05-3.66,1.85a21.62,21.62,0,0,0-2.67,0c-1.85,0-2.28.41-2.83,2.64h6.38c-.77,1.28-1.4,2.25-1.94,3.26a1.77,1.77,0,0,1-1.83,1c-1.78,0-3.57,0-5.35,0s-2.44.52-2.93,2.77h7.75c-1.06,1.89-2,3.52-3,5.29l1.27.17a2.59,2.59,0,0,0,3.13-1.63c.48-1,1.22-2,1.78-3a1.64,1.64,0,0,1,1.65-.94c1.3,0,2.62-.11,3.91,0C527.78,296.4,528.88,295.61,529.6,293.52ZM662,287.84c-1.27,0-2.41-.29-3.25.08a7.12,7.12,0,0,1-3,.49c-1.24,0-2.47.06-3.7,0a2.26,2.26,0,0,0-2.21,1.1c-2.48,3.54-5,7-7.52,10.55a4.36,4.36,0,0,0-.86,1.82,1.45,1.45,0,0,0,.74,1.21c2.34.86,4.1-.48,4.13-3a1.38,1.38,0,0,1,.28-.74c1-1.42,2.06-2.82,3.09-4.23l.38.22c-.72,1.44-1.44,2.88-2.14,4.33a9.88,9.88,0,0,0-.79,1.88c-.23,1.05.17,1.57,1.25,1.64s2.05,0,3.17,0l1.77-2.55-2-.47c.25-1.05.41-1.94,1.75-2a2.49,2.49,0,0,0,1.57-.85c1.47-1.68,2.85-3.45,4.35-5.3-1.39-.53-2.21-.24-2.86.76-.5.77-1.11,1.46-1.68,2.19l-.33-.21c.4-1,.81-1.94,1.25-3l-3-.26v-.47a5.71,5.71,0,0,1,1.25-.31c1.24-.05,2.47-.06,3.7,0A4.5,4.5,0,0,0,662,287.84ZM280.34,301.06c.92.05,1.46,0,2,.11a2.88,2.88,0,0,0,3.21-1.58c.73-1.23,1.69-2.32,2.47-3.52a2.14,2.14,0,0,1,2-1.06c1.91.06,3.82,0,5.74,0a4.37,4.37,0,0,0,3.54-1.32,81.82,81.82,0,0,0,5-6.69c.65-.95.13-1.72-1-1.89a8.25,8.25,0,0,0-1.22,0c-2.94,0-5.89,0-8.82,0a2.66,2.66,0,0,0-2.52,1.34c-2.06,3-4.21,5.89-6.32,8.84ZM579,284.11a23.67,23.67,0,0,0-2.84,0,1.56,1.56,0,0,0-1.1.74c-.7,1.7-2,2-3.64,1.84a20.18,20.18,0,0,0-2.46,0c-2.06,0-2.44.32-3,2.62h6.28c-.39.73-.61,1.22-.89,1.67-.52.88-1.08,1.74-1.63,2.62h-6.23c-2.16,0-2.56.31-3.24,2.67h7.82L565,301.77a14.64,14.64,0,0,1,1.53.1,2.5,2.5,0,0,0,2.91-1.65c.51-1,1.21-2,1.78-3a1.78,1.78,0,0,1,1.82-1c1.37.06,2.76-.11,4.11.05,1.91.23,2.61-.92,3.35-2.42-2.32-.47-4.57.15-6.94-.43.92-1.51,1.73-2.84,2.55-4.17,1.9,0,3.69-.12,5.46,0s2.75-.69,3.4-2.57h-7.15Zm-48,17.53c1.76,0,3.26-.07,4.76,0a8.16,8.16,0,0,0,6-2.08c1.29-1.09,2.67-2.07,4.15-3.21,1,2.89,3.3,1.95,5.14,1.94,1.34,0,1.6-1.36,2.14-2.39-2.4-.28-2.4-.28-3-2.82l11.18-8.68c-2.14-.55-4-.59-5.62.95a67.77,67.77,0,0,1-5.34,4.18,11.1,11.1,0,0,1-1.21.69L548,287h-4.88c.73,2.33,1.4,4.46,2.09,6.64-1.5,1.16-3,2.17-4.3,3.35a7.42,7.42,0,0,1-6.36,2.14C532.68,298.81,531.76,299.78,531,301.64Zm111.93-16.5c-1.92,1.81-2.06,4.45-3.73,6.3s-2.78,3.91-4.26,5.79-3.08,3.6-4.74,5.51a4.89,4.89,0,0,0,5.74-2.23c1.49-2.22,3.09-4.36,4.64-6.54.52-.75,1-1.45,2.27-.72-1.54,2.14-3.05,4.24-4.58,6.33a1.71,1.71,0,0,1-.79.63c-1.43.42-1.85,1.64-2.48,2.8,2.83.34,4.33-.22,5.83-2.28,2.31-3.15,4.56-6.33,6.82-9.52a6.73,6.73,0,0,0,.52-1.23h-4.58c.48-1.42,1.15-2.17,2.58-2,.81.08,1.65-.05,2.46,0a2,2,0,0,0,2-1.09c.3-.52.65-1,1.07-1.66L649.8,285l.32-1.59-3.56.41C645.82,285.41,644.32,285,642.93,285.14Zm170.84,13.57c.75-2,.75-2,2.42-2s3.16,0,4.73,0a3.77,3.77,0,0,0,3-1.11,36.75,36.75,0,0,0,3.15-4.3c.63-1,.19-1.77-1-1.8-2.53-.06-5.07,0-7.6,0a4.32,4.32,0,0,0-3.43,1.63c-2.07,2.73-4.08,5.5-6,8.34-.84,1.24-.31,2.08,1.22,2.11,2.33,0,4.66,0,7,0,2.67,0,4-1,5-3.72-1.1,0-2.47-.42-3.18.09C817.33,299.22,815.6,298.66,813.77,298.71Zm-56.44,0c.56-1.42,1.2-2.15,2.64-2.05a26.57,26.57,0,0,0,4.72,0,4.83,4.83,0,0,0,2.79-1,25.55,25.55,0,0,0,3.33-4.38c.63-1,.15-1.76-1-1.79-2.45-.06-4.92-.07-7.38,0a5.28,5.28,0,0,0-4.29,2.44c-1.61,2.29-3.26,4.56-4.89,6.84a6,6,0,0,0-.56.86c-.54,1.17-.17,1.92,1.1,1.95,2.73.05,5.47.08,8.2,0,2-.09,3.45-1.58,4-3.81-1.12.07-2.5-.27-3.23.27C761,299.31,759.28,298.59,757.33,298.72Zm74.73,2c1.08,1.45,2.68,1.22,3.94.86.85-.24,1.41-1.49,2.1-2.29-1.22-1.11.16-1.68.58-2.33,1.1-1.73,2.4-3.33,3.52-5.05a2.54,2.54,0,0,0,.42-1.84c-.09-.31-1-.53-1.57-.55-2.12-.07-4.25-.08-6.37,0-2.39,0-3.79,1.44-5,3.8,1.51-.14,2.88.12,3.7-.43,1.52-1,2.94-.62,4.52-.57-.18,1.12-.74,1.52-1.7,1.5-1.37,0-2.74,0-4.11,0a4.78,4.78,0,0,0-3.76,1.37,39.46,39.46,0,0,0-3.53,4.77c-.6.93-.2,1.69.89,1.71C827.82,301.71,830.06,302.17,832.06,300.77Zm-332.37-16.9c-1,0-1.69.06-2.34,0A2.33,2.33,0,0,0,495,285c-3.63,5.15-7.33,10.24-11,15.37a7.59,7.59,0,0,0-.57,1.18c2.33.62,3.87.12,5.14-1.92,1.88-3,4.09-5.83,6.18-8.7.86-1.19.9-1.17,2.65-.55-.06.51-.11,1-.19,1.57-.21,1.49-.49,3-.61,4.47,0,.41.38,1.21.67,1.24a9.1,9.1,0,0,0,3.64,0c.75-.22,1.23-1.32,2.14-2.4-2,.26-2-.69-1.84-1.76.22-1.42.47-2.83.67-4.26s-.06-1.6-1.36-1.69c-1-.07-1.94,0-3.18-.08C498.2,286.17,498.84,285.17,499.69,283.87ZM743.8,301.62c1.27,0,2,0,2.77,0a1.78,1.78,0,0,0,1.68-.92c2-2.9,4.14-5.78,6.21-8.68a4.48,4.48,0,0,0,.42-.7c.46-1.1.12-1.75-1.1-1.75-2.08,0-4.2-.42-6.34.41l2.91-4.19c-3.38-.54-3.38-.54-5.12,1.89q-4.43,6.17-8.84,12.34c-.3.42-.53.89-.81,1.38,2.3.61,3.88.15,5.08-1.94a59.63,59.63,0,0,1,4.28-6,2.49,2.49,0,0,1,1.39-1,34.56,34.56,0,0,1,4,0Zm38,0v0h3.07a5.52,5.52,0,0,0,4.49-2.12c1.93-2.47,3.75-5,5.5-7.64,1-1.44.45-2.33-1.28-2.39-2.12-.06-4.23,0-6.35-.05a5.19,5.19,0,0,0-4.21,1.8c-2.12,2.67-4.11,5.45-6,8.26-.76,1.11-.22,2,1.13,2.1S780.6,301.59,781.83,301.59Zm24-7.73c3.87.43,3.16.37,5-2.3.92-1.31.51-2.08-1.05-2.12-2.32-.08-4.65-.08-7-.05a5.24,5.24,0,0,0-4.34,2.34l-5.15,7.18a6.3,6.3,0,0,0-.55.86c-.61,1.23-.31,1.81,1.07,1.85,2.12.06,4.26-.12,6.36.06,3.55.3,5.34-1.74,6.91-4.78-1.79.12-3.49-.62-4.56,1.31a1.46,1.46,0,0,1-1,.54c-1.25.06-2.51,0-4.27,0,1.66-2.3,3-4.17,4.38-6a1.28,1.28,0,0,1,.86-.5c1.24-.05,2.5,0,3.83,0C806.09,293,806,293.41,805.82,293.86Zm-99.07,7.57c.74.06,1.13.07,1.51.13a3.25,3.25,0,0,0,3.53-1.76c1.63-2.52,3.47-4.91,5.22-7.35a7.76,7.76,0,0,0,.79-1.2c.49-1.06.14-1.78-1-1.87a22.46,22.46,0,0,0-4.1,0,9.74,9.74,0,0,1-3.14,0,3.51,3.51,0,0,0-4.08,1.83c-1.94,3.06-4.18,5.92-6.28,8.87-.28.41-.48.87-.8,1.46a10.09,10.09,0,0,1,1.27.06c1.69.3,2.77-.41,3.68-1.85,1.39-2.19,3-4.26,4.52-6.34.35-.47.84-1.08,1.33-1.14a35.29,35.29,0,0,1,4.14,0Zm141.61.29c1.24,0,2,0,2.72,0a1.83,1.83,0,0,0,1.72-.88c2.09-3,4.25-5.88,6.32-8.85,1.12-1.62.73-2.35-1.21-2.43-2.7-.12-5.4.33-8.1,0a2,2,0,0,0-2,1c-2.36,3.37-4.77,6.68-7.16,10-.18.26-.31.56-.53,1,2.15.45,3.78.37,5-1.72a71,71,0,0,1,4.51-6.35c.31-.41.77-.94,1.2-1a39.77,39.77,0,0,1,4.17-.05Zm-182.25.88c1.79,0,3.48-.12,5.15,0,3,.3,4.94-1,6.51-3.37,1.38-2,2.84-4,4.31-6,.35-.45.91-1.06,1.37-1,2.07,0,2.4-1.56,3.25-3-.69,0-1.15-.1-1.62-.1l-10.26,0c-2.21,0-2.9.59-3.58,3.1h7.54a52.7,52.7,0,0,0-3.43,4.94c-1.23,2.27-2.92,3.25-5.47,2.77C667.92,299.54,666.84,300.57,666.11,302.6Zm-8.58.23c1.11,0,1.73-.06,2.33,0a2.87,2.87,0,0,0,3-1.5c1.7-2.57,3.89-4.87,5.26-7.59,1.06-2.13,2.77-3.38,4.32-4.9.08-.08.08-.23.13-.42l-1.38-.48c1.59-1.54,3.57-2.41,4.85-4.22-2.25-.36-4.16-.33-5.66,1.42a1.92,1.92,0,0,1-1.27.59c-1.8,0-2.3,1.31-3,2.61l2.2.54c-.94.52-1.5,1.06-2.11,1.13-1.83.21-2.66,1.49-3.47,2.86,0,.08,0,.24,0,.36l1.29.43Zm73.53-10.39c-1.5,2.1-2.88,4-4.25,6a7.31,7.31,0,0,0-1,1.57,1.05,1.05,0,0,0,1,1.58c1,.09,2.06.05,3.09.05,2.07,0,2.64-.48,3.25-2.72l-2.65-.28c1.34-1.88,2.57-3.5,3.7-5.21a2.48,2.48,0,0,1,2.38-1.21c2.35,0,2.61-.22,3.43-2.6l-2.73-.34c.51-.77.9-1.32,1.27-1.89s.66-1.05,1-1.59c-2.6-.78-4.24.06-5.28,2.19a2.52,2.52,0,0,1-.61.83c-.29.25-.7.6-1,.56-1.9-.26-2.66,1-3.42,2.35,0,.08,0,.23.06.38Zm-115.42-4.07c1.36,0,2.66.55,3.87-.53a2.2,2.2,0,0,1,1.33-.31c3.63,0,7.25,0,10.88,0,.49,0,.95-.11,1.3.61s3,.6,3.36,0c.81-1.27,2.61-2.16,1.77-4.14a1.38,1.38,0,0,1,0-.53c-1.45-.17-2.79-.38-3.9.81a2.06,2.06,0,0,1-1.32.37c-.88.06-1.77,0-2.72,0l-.31-1.24c-1.29-.13-2.5-.29-3.58.84-.64.67-3,.57-3.44.07-.85-.89-2.11-1.39-2.82-.86C618.32,284.76,616.38,285.92,615.64,288.37Zm-276.72.12c-2.95,4.25-6,8.25-8.95,12.6h4l11.47-16c-1.94,0-3.42.08-4.88,0a2.36,2.36,0,0,0-2.51,1.33c-.22.41-.53.78-.78,1.19-.05.09,0,.24,0,.4Zm57.86-3.27c-.77,0-1.18,0-1.58-.08a3.37,3.37,0,0,0-3.55,1.71c-3,4.34-6.09,8.57-9.15,12.85a14.34,14.34,0,0,0-.81,1.42c.5.05.77.06,1,.11,1.89.33,3.1-.4,4.2-2,2.73-4.08,5.69-8,8.55-12C395.86,286.64,396.22,286.07,396.78,285.22Zm487.14,6.5a10.69,10.69,0,0,0-1.07.34c-3.41,1.76-6.7,2-10-.37a5.48,5.48,0,0,0-5.11-.66,49.79,49.79,0,0,0-5.56,2.55c-.41.2-.67.69-1,1l.24.36,2.39-1a8.05,8.05,0,0,1,7.8.51c3.66,2.34,9.48,1.15,12.36-2.33C884,292.17,884,292.08,883.92,291.72Zm-402.69-.27a6.41,6.41,0,0,0-1.29.32c-3.29,1.67-6.46,1.94-9.64-.37a5.35,5.35,0,0,0-4.91-.82,56.92,56.92,0,0,0-6.13,2.76c-.34.16-.52.63-.78,1a7.31,7.31,0,0,0,2.62-.65,8,8,0,0,1,7.8.53c3.65,2.34,9.51,1.12,12.37-2.36C481.3,291.78,481.26,291.69,481.23,291.45Zm221.53-1.93c-3.39-.45-3.39-.45-5.06,1.87-2.11,2.94-4.23,5.88-6.32,8.83a8.78,8.78,0,0,0-.64,1.33,16.57,16.57,0,0,0,2.48,0,2.22,2.22,0,0,0,1.36-.66C697.29,297.17,699.94,293.45,702.76,289.52Zm-12.61-6H679.78c-2.53,0-2.79.18-3.85,2.9,3.42,0,6.77-.16,10.09.06C688.23,286.62,689.24,285.6,690.15,283.52Zm-31.68,1.12v-1.28c-1.71-.28-3.28-.35-4.48,1.18a3.33,3.33,0,0,1-1,.64,3.92,3.92,0,0,0-1.78,2.43c1,0,1.92.05,2.79,0,1.41-.11,2.82-.34,4.23-.43,1-.07,2,0,3.07,0,1.79,0,2.25-.43,2.76-2.52Zm-69.58,18.05c5.62,1.31,10.16-.82,14.53-4.23-2.52-.33-2.68-.41-4.1.44a11.55,11.55,0,0,1-7.43,1.72A2.51,2.51,0,0,0,588.89,302.69ZM705.27,285.6c-3.53-.29-4.23.11-4.89,2.73C703.72,288.66,703.79,288.62,705.27,285.6Zm-200.6-1.84c-.36,1.13-.65,2.08-.95,3,2.53.75,2.72.54,2.89-3Zm5.92.12c-2.27-.16-2.57.19-2.86,3.26a5.87,5.87,0,0,0,2.11-.24C511,286.24,510.1,284.93,510.59,283.88Z"/><path d="M99.82,226.82c-.59,0-1-.09-1.36-.09q-15.84,0-31.67,0a39.5,39.5,0,0,0-5.32.35,13.12,13.12,0,0,0-9.08,5.06,15.62,15.62,0,0,1-14.53,6.43c-1.91-.16-3.83-.05-5.75-.05a14.54,14.54,0,0,1-8-1.92,13.57,13.57,0,0,1,2.48-5.9Q37.32,216.25,48,201.79q11.42-15.34,22.87-30.64c2.37-3.19,4.76-6.38,7-9.68a16.14,16.14,0,0,1,14.42-7.54c14.8.11,29.61.12,44.41.17,8.84,0,17.69.11,26.53.05,3.23,0,6.18.94,9.44,2L168,166.55c5.18.28,10.32.22,15.21,2.34a19.73,19.73,0,0,1-3.07,7.05Q154,211.58,127.89,247.26q-19.77,27.06-39.45,54.17a33.66,33.66,0,0,1-2.74,3.33,14,14,0,0,1-10.46,4.54c-8.15,0-16.31-.15-24.46-.25a9.88,9.88,0,0,1-5.08-1.45c-1.69-1-2.05-1.79-1.27-3.57a25.14,25.14,0,0,1,2.63-4.62q17.32-23.62,34.73-47.18c4.52-6.13,9.06-12.23,13.54-18.37,1.41-1.94,2.67-4,4-6A8.94,8.94,0,0,0,99.82,226.82Zm36.71-50c-.9-1.17-2-1-3-1-6.86,0-13.71-.07-20.56-.07q-7.18,0-14.38.08a8.66,8.66,0,0,0-7.4,3.67c-5.6,7.69-11.33,15.3-17,22.94a8.7,8.7,0,0,0-.59,1.11c.71.19,1.3.38,1.9.49a61.51,61.51,0,0,0,27.88-1c9.44-2.52,17.86-6.89,24.8-13.88A38.5,38.5,0,0,0,136.53,176.8Z"/><path d="M288.41,47.79c-.36.48-.57.82-.84,1.11A94.62,94.62,0,0,0,276,64.31a3.12,3.12,0,0,1-2.9,1.73,198.56,198.56,0,0,0-44.43,6.49c-17.22,4.67-33.28,11.8-47.55,22.67a101.54,101.54,0,0,0-20.21,20.36,6.92,6.92,0,0,1-2.63,2.2c-2.41,1.16-4.83,2.3-7.15,3.62a18.42,18.42,0,0,1-7,2.12,150.54,150.54,0,0,0-28,6.14c-14,4.53-27.3,10.64-39.13,19.58-12.83,9.69-22.48,21.8-27.94,37a18.85,18.85,0,0,1-2.69,5c-8.4,11.26-16.73,22.57-25.14,33.82a23.93,23.93,0,0,0-4.14,8c-.14.52-.38,1-.74,1.92a12,12,0,0,1-.41-1.38A157.92,157.92,0,0,1,14.18,209c.46-31.77,11.91-58.85,34.62-81.11,12.32-12.06,26.6-21.27,42.11-28.67a215,215,0,0,1,44-15.2,6.67,6.67,0,0,0,2.55-1.17c22.41-17.57,47.86-28.26,75.74-33.46a234.35,234.35,0,0,1,56.28-3.32c5.74.32,11.47.89,17.21,1.36C287.2,47.5,287.71,47.65,288.41,47.79Z"/><path d="M383.13,197.84c1.87.16,3.62.42,5.38.44,6.72.07,13.43,0,20.15.11a16.29,16.29,0,0,1,4.4.83,2.29,2.29,0,0,1,1.66,3.23,16,16,0,0,1-2.11,4.17q-15.15,20.5-30.39,40.93-7.67,10.3-15.32,20.62a14.34,14.34,0,0,1-9.2,6.06,22.87,22.87,0,0,1-3.88.27c-18.37,0-36.74-.07-55.1-.05-2.64,0-4.9-1-7.34-1.88a30.65,30.65,0,0,1,4.46-9.34c4.05-5.36,9.49-7.39,16.06-6.76.48,0,1,.15,1.42.21A13.74,13.74,0,0,0,325.89,252c.78-.86,1.52-1.77,2.21-2.7q12.72-17.18,25.42-34.37c1.7-2.3,3.28-4.68,5.08-7.26-.72-.09-1.1-.18-1.48-.19-6.51-.05-13-.13-19.53-.1-2.73,0-5.47.26-8.21.39a5.79,5.79,0,0,0-3.87,1.69,43.87,43.87,0,0,0-4.57,5q-19.33,25.85-38.58,51.75c-.61.82-1.22,1.65-1.87,2.44a15.74,15.74,0,0,1-13,6c-8.36-.07-16.72-.19-25.08-.18a13.37,13.37,0,0,1-6.72-1.88,13.52,13.52,0,0,1,2.4-6q19.14-25.6,38.21-51.25c1.75-2.35,3.3-4.86,5.15-7.61-.91-.13-1.47-.24-2-.28-2.66-.16-5.34-.24-8-.47-3.69-.31-4.49-1.8-2.68-5a36.24,36.24,0,0,1,5.86-7.9,14.5,14.5,0,0,1,13-4.25c5.07.8,8.8-1.13,11.67-5.15.16-.22.31-.45.45-.68a29,29,0,0,1,14.68-12.34c3.87-1.53,7.91-2.67,11.9-3.87,9.46-2.83,18.7-6.24,27.84-10,2-.82,4.15-1.36,6.24-2s2.09-.17,3,1.56c-7.71,10.45-15.48,21-23.55,32,3.16.25,5.86.62,8.57.64,10.14.09,20.28.06,30.43.08a18.1,18.1,0,0,1,2.66.13c1.83.28,2.48,1.11,2.37,3,0,.75-.19,1.49-.3,2.23S383.28,196.86,383.13,197.84Z"/><path d="M489.06,272.56a21.23,21.23,0,0,1,3.31-6.87q31.62-40.77,63.19-81.6a16.31,16.31,0,0,1,13.79-6.76q52,.12,104,.11a20.29,20.29,0,0,1,7.4,1.83,18.26,18.26,0,0,1-3.09,6.45q-25.32,32.66-50.6,65.35c-4.49,5.8-9,11.55-13.44,17.41a14.14,14.14,0,0,1-12,6l-12.75,0q-45.45,0-90.89,0A22.46,22.46,0,0,1,489.06,272.56Zm133.09-75.44a37.33,37.33,0,0,0-5-.67c-14.94,0-29.88.17-44.82.14a12.67,12.67,0,0,0-10,4.73c-1.45,1.65-2.84,3.35-4.18,5.08q-17.85,23.23-35.67,46.48a4.66,4.66,0,0,0-.59.83,1.56,1.56,0,0,0,.82,2,5.32,5.32,0,0,0,1.44.06c9.79-.26,19.58-.3,29.39.15,10.75.49,20.35-3,28.88-9.47a68.17,68.17,0,0,0,12.65-12.86q11.76-15.33,23.42-30.74C619.75,201.2,620.75,199.33,622.15,197.12Z"/><path d="M52.39,316.87c2.76,0,5.35,0,7.94,0,4.46,0,8.91.1,13.36.15a26,26,0,0,0,10.13-1.78c.31.25.65.46.94.73,16.93,16.21,37,26.71,59.6,32.44a176.46,176.46,0,0,0,52.81,4.73c28.79-1.49,56.41-8.35,83.42-18.06a382.33,382.33,0,0,0,35.64-14.83,48.32,48.32,0,0,1,13.26-4.15,122.86,122.86,0,0,1,15.33-1.42c26.91-.93,52.29,5.41,76.84,15.84,2.65,1.13,5.25,2.35,7.87,3.54.54.25,1.06.57,1.66.89-.4.56-.7,1-1,1.44l-7.56,9.91c-.73-.29-1.42-.53-2.09-.82a190.73,190.73,0,0,0-41.08-12.85,135.24,135.24,0,0,0-37-2.19c-3.81.34-7.6,1-11.38,1.65a24,24,0,0,0-6.76,2.31c-23,11.44-46.78,21.17-71.57,28.2a290,290,0,0,1-44.83,9.17,222.34,222.34,0,0,1-40.21,1.34c-27.23-1.7-52.9-8.63-76.47-22.65a150.44,150.44,0,0,1-37.41-31.52c-.4-.46-.79-.94-1.17-1.43A2.82,2.82,0,0,1,52.39,316.87Z"/><path d="M868.37,345.77c-.61-1.75-1.13-3.21-1.74-4.95,1.82,0,3.57-.12,5.31,0a6.25,6.25,0,0,0,6.07-3c2.45-3.47,5.21-6.72,7.65-10.2a29.46,29.46,0,0,0,3.21-5.92,7.13,7.13,0,0,0-.75-6.69c-.18-.28-.32-.59-.49-.91a5.69,5.69,0,0,1,.69-.55c13-7.67,24.47-17.35,35.26-27.83a175.42,175.42,0,0,0,32.61-42.35A115.07,115.07,0,0,0,968.45,210q7.92-42.06-21.74-72.91c-9.56-9.93-20.83-17.55-33-23.85A220.62,220.62,0,0,0,867,96c-3.45-.88-6.92-1.68-10.39-2.5-.74-.17-1.43-.27-1.62-1.26a50.44,50.44,0,0,0-4.25-12,10.29,10.29,0,0,1-.37-1.14,6.33,6.33,0,0,1,1.47,0c24.44,5,48.39,11.46,70.66,23.06,13.15,6.85,25.29,15.11,35.69,25.76,13.19,13.51,22.2,29.3,26.05,47.9a97.93,97.93,0,0,1,1.21,31.49c-2.64,22.32-11.33,42.35-23.47,61-12.24,18.83-27.44,35-44.48,49.56-11.18,9.53-23.27,17.59-36.83,23.34-3.41,1.44-6.89,2.69-10.34,4C869.65,345.43,869,345.59,868.37,345.77Z"/><path d="M592.84,367c2.3-2.34,4.57-4.72,6.89-7q22-22,44-44a4.75,4.75,0,0,1,3.76-1.58c11.3.11,22.61.13,33.92.18h.2c.78.08,1.88-.28,2.12.73a2.92,2.92,0,0,1-.78,1.94Q659.48,348.11,635.93,379a8.49,8.49,0,0,1-7.23,3.59c-6.3-.06-12.61,0-18.91,0-.41,0-.81,0-1.6-.07,1.51-2.23,3.06-4.1,4.51-6s3-3.92,4.48-5.88l4.37-5.73,4.48-5.88,4.49-5.88c1.49-2,3-3.93,4.48-5.89l4.37-5.72c1.49-2,3-3.93,4.48-5.89l4.59-6c-1.23.07-1.6.81-2.09,1.29q-14.52,14.26-29,28.57c-6.74,6.64-13.49,13.26-20.19,19.93a10.08,10.08,0,0,1-7.34,3.16c-6.58,0-13.16,0-19.74-.07-.39,0-.79-.08-1.54-.17,8.93-17.65,17.77-35.1,26.6-52.56l-.36-.24c-.42.51-.86,1-1.25,1.51Q576,354,558.41,377.06a12.05,12.05,0,0,1-10.75,5.22c-3.35-.13-6.71,0-10.13,0-.09-1,.59-1.46,1-2q18.86-24.78,37.74-49.55c3.78-5,7.59-9.89,11.31-14.89a3.54,3.54,0,0,1,3.22-1.65c8,.11,16,.1,24.06.13.27,0,.54,0,.82,0,2.83,0,3.57,1.25,2.24,3.77q-12.23,23.28-24.49,46.55c-.34.65-.66,1.32-1,2Z"/><path d="M525.77,312c12,0,24,0,36,0a13,13,0,0,1,4,.63,4.29,4.29,0,0,1,2.91,5.88,16,16,0,0,1-2.38,4.26q-16,21.14-32.13,42.2c-2.08,2.73-4.06,5.53-6.25,8.16-5.22,6.28-11.92,9.9-20.14,9.93-22.21.08-44.41,0-66.62-.09h-1c-3.65-.16-5.44-2.54-4.62-6.12a12,12,0,0,1,2.38-4.51q19-24.84,37.89-49.7c1.54-2,3-4.06,4.66-6a12.93,12.93,0,0,1,10.78-4.87c11.51.19,23,.07,34.54.07Zm3.6,13.87c-.63,0-1.24-.12-1.84-.12-8.36,0-16.72,0-25.08-.12a6,6,0,0,0-5.22,2.62q-14.52,19.18-29.14,38.27a9.27,9.27,0,0,0-.93,1.35,1,1,0,0,0,.79,1.52,6.79,6.79,0,0,0,1.43.08c2.12,0,4.25,0,6.37,0,4.94,0,9.87.13,14.8,0,5.13-.1,9.46-1.93,12.52-6.27,1.94-2.74,4-5.41,6-8.11q9.76-13.23,19.53-26.46C529.12,327.93,529.93,327.24,529.37,325.85Z"/><path d="M363.83,78.15c.27-.6.5-1.08.7-1.57.42-1.06.67-2.13-.24-3.07-.72-.73-1.81-.66-3.2.31-1.11.77-2.12,1.7-3.17,2.57l-21-5c1.13-2,2.32-4,3.34-6s1.89-4.23,2.87-6.46c1,.28,2,.55,3,.84,26.87,8.09,52.57,18.89,76.61,33.45a209.2,209.2,0,0,1,28.6,20.71c14,12.1,30.16,19.78,48.07,24a150.54,150.54,0,0,0,43.89,3.4,192.9,192.9,0,0,0,58-12.78,16.37,16.37,0,0,0,7.26-5.3c7.75-9.74,17.24-17.6,27.62-24.39,15.75-10.29,32.91-17.34,51-22.19a12,12,0,0,1,3.44-.55c-.5.44-1,.88-1.51,1.31a24,24,0,0,0-6.3,8,7.73,7.73,0,0,0-.14,7.11c.2.41.36.85.6,1.42-.74.3-1.36.56-2,.8-14.6,5.46-28.22,12.69-40.3,22.65a88.83,88.83,0,0,0-14.12,14.3,74.91,74.91,0,0,0-4.94,7.31,10.81,10.81,0,0,1-7.35,5.43,353.86,353.86,0,0,1-35.31,5.48,284.43,284.43,0,0,1-36.33,1.54c-20-.52-39.56-3.35-58.44-10.21a131.75,131.75,0,0,1-38.94-22.1c-12.46-10.24-26.28-18.32-40.8-25.24A283.27,283.27,0,0,0,366.44,79C365.6,78.77,364.77,78.47,363.83,78.15Z"/><path d="M861.78,158.09c-1.4,2.1-2.7,4.26-4.19,6.29Q826.84,206.44,796,248.47a32.22,32.22,0,0,1-14.57,11.3c-12.45,4.84-24.9,9.65-37.33,14.53a15.6,15.6,0,0,1-7.71.79,16.68,16.68,0,0,1,2.86-6.82q36-46.48,71.94-93a24,24,0,0,1,13.16-9q15.9-4.16,31.84-8.11a35.77,35.77,0,0,1,5.3-.5Z"/><path d="M745.74,368.65c.49-.6,1-1.15,1.4-1.73q19.08-25,38.11-50A4,4,0,0,1,789,315c5.89.12,11.79.07,17.68.09H809c-.51.79-.79,1.3-1.14,1.76q-22.61,29.67-45.23,59.34a16.66,16.66,0,0,1-14,6.91c-7.75,0-15.49-.05-23.23-.08a8.63,8.63,0,0,1-1.44,0,1.6,1.6,0,0,1-1.4-2.08,12.45,12.45,0,0,1,.58-1.54q9.43-24.76,18.86-49.52c.26-.7.89-1.42.09-2.56-.61.7-1.16,1.24-1.62,1.85q-9.36,12.25-18.7,24.52c-7,9.21-14.06,18.4-21,27.64a3.66,3.66,0,0,1-3.41,1.7c-4.16-.12-8.33,0-13,0,.69-1,1.11-1.63,1.58-2.24L717.65,339c5.78-7.57,11.57-15.13,17.3-22.73a3.33,3.33,0,0,1,3-1.55c8.09.12,16.17.12,24.26.17.74,0,1.48.07,2.48.12-.33,1-.59,1.8-.89,2.6Q754.75,342,745.65,366.3C745.4,367,744.66,367.74,745.74,368.65Z"/><path d="M371.55,273.57a20.92,20.92,0,0,1,3.92-8.36,11.64,11.64,0,0,1,8.95-3.94c5.34-.19,10.68-.18,16-.28,9.8-.19,19.59-.33,29.39-.61a53,53,0,0,0,15.2-2.17c9.25-3,16.46-8.82,22.27-16.48s11.67-15.56,17.49-23.36q2.71-3.62,5.36-7.28a13.27,13.27,0,0,1,12-5.85c6,.21,11.92.09,17.88.11a39.81,39.81,0,0,1,7.54,1.2c-1.5,2.31-2.72,4.45-4.19,6.41q-20.61,27.57-41.27,55.1a15,15,0,0,1-12.83,6.47c-30.08-.07-60.15,0-90.23-.13A70.19,70.19,0,0,1,371.55,273.57Z"/><path d="M775.16,206.89a11,11,0,0,1-2.07,5.37q-21,27.77-42,55.57A15.42,15.42,0,0,1,718,274.31q-45.53,0-91.06.12a18.48,18.48,0,0,1-6.11-1.11,18.64,18.64,0,0,1,3.86-8.13,11.7,11.7,0,0,1,8.74-3.93c5-.18,10-.18,15-.27,10.21-.19,20.41-.32,30.62-.61,5.2-.15,10.39-.53,15.4-2.21,9-3,16.1-8.69,21.79-16.15,6.9-9,13.64-18.19,20.46-27.3,1.19-1.59,2.3-3.24,3.61-4.73a13.49,13.49,0,0,1,10.9-4.8c5.89.1,11.78.11,17.67.16C771.56,205.37,772.3,205.55,775.16,206.89Z"/><path d="M855.64,336.29c1.77-2.92,4-4.94,5.45-7.88a13.34,13.34,0,0,0-2.19-.43c-7.82-.06-15.63-.08-23.44-.1a4.84,4.84,0,0,0-4.05,2.06c-2.23,2.95-4.48,5.89-6.72,8.83-.45.59-1.08,1.16-.7,2s1.31.88,2.13.88q10.7.07,21.38.12c3.43,0,6.85,0,10.28.05,5.2.06,7.27,3.63,4.74,8.16a18.64,18.64,0,0,1-1.4,2c-5.48,7.2-10.86,14.48-16.48,21.57-5.12,6.46-11.81,10-20.23,10-13.37-.07-26.73-.1-40.09-.18a13.53,13.53,0,0,1-3.65-.46,3.89,3.89,0,0,1-2.9-5.09,16,16,0,0,1,2.26-4.78c2.74-3.85,5.7-7.55,8.54-11.33a2.1,2.1,0,0,1,1.87-1c5.48,0,10.95,0,16.71,0a9.79,9.79,0,0,1-.71,1.37c-1.35,1.82-2.77,3.58-4.08,5.42a2.71,2.71,0,0,0-.56,1.83c.16.86,1.08.95,1.85.95,4.45.05,8.91.08,13.36.12,3,0,6,0,9,.07a5.64,5.64,0,0,0,5-2.33q4.26-5.55,8.47-11.12a4,4,0,0,0,.62-1.05.92.92,0,0,0-.77-1.37,11.29,11.29,0,0,0-1.84-.07c-10.28-.06-20.56-.1-30.84-.18a12.85,12.85,0,0,1-3.45-.44c-2.5-.74-3.54-2.6-2.74-5.08a14.33,14.33,0,0,1,2.1-4.19c5.17-6.91,10.28-13.87,15.71-20.58a23,23,0,0,1,18.47-8.86c13.43,0,26.86.11,40.29.23a19.9,19.9,0,0,1,4.87.57c2.59.67,3.45,2.39,2.44,4.85A19.66,19.66,0,0,1,882,325c-2.51,3.43-5.13,6.77-7.69,10.16a2.33,2.33,0,0,1-2,1.19C866.93,336.27,861.52,336.29,855.64,336.29Z"/><path d="M263.46,210.34c-1.54,2.29-2.9,4.48-4.45,6.54q-18.25,24.32-36.58,48.6c-.86,1.15-1.73,2.3-2.58,3.46a12.92,12.92,0,0,1-11.11,5.55c-3,0-6,0-9,0q-38.13,0-76.26,0a20.75,20.75,0,0,1-7.41-1.66,62.24,62.24,0,0,1,2.82-6.25c2.24-3.8,5.91-5.15,10.11-5.19,4.66-.05,9.32,0,14,0,9,0,18.09,0,27.13-.08,14.55-.11,26.43-5.91,35.53-17.19,4.69-5.81,9-11.92,13.51-17.87,2.82-3.71,5.72-7.35,8.58-11s6.87-5.55,11.44-6.19c4.84-.68,9.71-.4,14.57-.23a36,36,0,0,1,8.33,1.07C262.41,210,262.79,210.13,263.46,210.34Z"/><path d="M860.28,273.56c-4.45,0-8.9,0-13.35,0a20.71,20.71,0,0,1-4.08-.44,3.41,3.41,0,0,1-3.06-3.77,19.3,19.3,0,0,1,.52-4.06q6.5-28.72,13.06-57.43c.66-2.94,1.2-5.9,1.85-8.84a23.83,23.83,0,0,1,1.09-3.73,7.89,7.89,0,0,1,1.62-2.57c2.36-2.36,5.32-1.59,6.41,1.59.22.65.35,1.32.53,2a34.93,34.93,0,0,0,18,22.62c3.71,2,5,4.81,4.48,8.75l-4.92,38.28a9.58,9.58,0,0,1-.23,1.21c-1.13,4.6-3.61,6.51-8.36,6.5-4.52,0-9,0-13.56,0Z"/><path d="M488.24,387.61h9.86c2.81,0,5.62.05,8.43,0a4.82,4.82,0,0,1,3.05.92,100.14,100.14,0,0,0,40,16.88A116.32,116.32,0,0,0,578.44,407c23.17-1.49,44.86-8.42,65.81-18a11,11,0,0,1,4.92-1.09c4.73.09,9.46,0,14.19.07a16.14,16.14,0,0,0,13.82-6.75c4.72-6.23,9.51-12.4,14.18-18.66a17.85,17.85,0,0,1,6.1-4.71c-.37.54-.72,1.09-1.12,1.6q-7.33,9.66-14.7,19.3c-.37.49-.77,1-1.11,1.48a4.52,4.52,0,0,0,3.21,7.14c.54.08,1.08.08,1.93.13a8.1,8.1,0,0,1-1.07.82c-21.19,10.9-43,20.14-66.18,26.07-16.48,4.23-33.18,6.58-50.23,6-28-.94-53-10-74.6-27.92-1.69-1.39-3.36-2.81-5-4.23C488.47,388.18,488.44,388,488.24,387.61Z"/><path d="M918.91,204.59a4.94,4.94,0,0,1-3.28-1.22c-3.3-2.57-6.68-5-9.92-7.66a5.37,5.37,0,0,0-6.64-.51c-4.72,2.64-9.45,5.27-14.23,7.8a8.79,8.79,0,0,1-3.67,1.08c-3.5.12-5.46-3-4.07-6.21.25-.57.57-1.1.86-1.64,2.29-4.21,4.6-8.42,6.84-12.65a8.28,8.28,0,0,0,.86-2.7,3.63,3.63,0,0,0-1.55-3.18c-3.12-2.79-6.2-5.61-9.29-8.42-2.62-2.38-2.71-5.31-.22-7.85a6.89,6.89,0,0,1,5.15-2.16c4.87,0,9.73-.08,14.6,0a6.91,6.91,0,0,0,6.55-3.76c2.62-4.49,5.36-8.92,8-13.39a6.89,6.89,0,0,1,5.66-3.58,4.2,4.2,0,0,1,4.85,3.9c.66,4.47,1.28,9,1.95,13.42.39,2.63,1.54,3.66,4.24,3.76,4.93.18,9.86.3,14.8.47a7.22,7.22,0,0,1,2,.25,4.07,4.07,0,0,1,2.7,4.91,6.62,6.62,0,0,1-3.23,4.31c-4.71,2.93-9.43,5.84-14.1,8.85a8.27,8.27,0,0,0-2.59,2.54,5.71,5.71,0,0,0-.62,3.12c.28,4.51.57,9,1.11,13.52C926.18,201.41,922.34,204.69,918.91,204.59Zm-29.19-12.66a.84.84,0,0,0-1.36-.6,29.6,29.6,0,0,0-3,3,.91.91,0,0,0,.72,1.47C886.71,195.78,889.75,192.58,889.72,191.93Zm42-24.5c1.28-.36,2.42-.61,3.5-1a1.27,1.27,0,0,0,.62-1.07,1.21,1.21,0,0,0-1-.65,18.37,18.37,0,0,0-3.33,1,1.34,1.34,0,0,0-.54,1.1C930.91,167.05,931.46,167.26,931.69,167.43Zm-45.07-.92c-.09-.28-.1-.49-.18-.52a28.85,28.85,0,0,0-3.74-1.35c-.6-.14-1,1.08-.43,1.32a24.61,24.61,0,0,0,3.81,1.14C886.21,167.13,886.47,166.68,886.62,166.51ZM881.84,200c.9.06,2.45-1.64,2.29-2.5a.91.91,0,0,0-1.39-.67,7.75,7.75,0,0,0-1.72,1.71A1,1,0,0,0,881.84,200Zm35.29-8.85c-.17.24-.61.64-.54.8a35,35,0,0,0,1.79,3.37c.09.14.65.1.92,0a.78.78,0,0,0,.3-.67c-.61-1.13-1.26-2.22-1.92-3.31C917.62,191.28,917.43,191.28,917.13,191.19Zm-25.72-1.34c.4-.08.58-.06.66-.14,1-1.07,2.06-2.14,3-3.24.1-.11,0-.56-.16-.71s-.6-.22-.72-.11c-1.08,1-2.15,2-3.15,3.15C891,188.94,891.3,189.51,891.41,189.85Zm32.21-21.59c.17.23.33.47.49.7,1.44.55,2.7-.35,4-.66.29-.07.45-.66.66-1-.39-.14-.83-.46-1.18-.39a26.82,26.82,0,0,0-2.89.9A11.46,11.46,0,0,0,923.62,168.26ZM911,152.14c.12.22.23.8.53.94.7.31.94-.31,1.08-.86a22.78,22.78,0,0,0,.57-2.8c0-.25-.39-.66-.69-.79s-.69.24-.76.47C911.43,150,911.26,151,911,152.14Zm27.56,13.48a10,10,0,0,0,2.16-.76,1.39,1.39,0,0,0,.39-1.2,1.1,1.1,0,0,0-.9-.62,5,5,0,0,0-1.94.55c-.34.18-.73.78-.65,1.08S938.25,165.34,938.55,165.62Zm-37.81,14.09a11,11,0,0,0-3.86,3.39.56.56,0,0,0,.09.54.93.93,0,0,0,.72.17C898.4,183.56,900.37,181,900.74,179.71Zm-19.55-15.43a13.93,13.93,0,0,0-1.64-1c-.65-.3-1.42-.72-2,0-.22.24-.22,1.11-.06,1.19a10.25,10.25,0,0,0,2.59.92C880.29,165.37,880.65,164.79,881.19,164.28ZM920,196.48a6.58,6.58,0,0,0-.43.84,1.22,1.22,0,0,0,0,.6c.22,1,1.11,2.17,1.7,2.09a1.36,1.36,0,0,0,.78-.49,23.21,23.21,0,0,0-1-2.54C920.9,196.8,920.54,196.75,920,196.48Zm-5.8-10.9c-.94.8-.38,1.4-.08,1.95a21,21,0,0,0,1.45,2.17c.06.08.55,0,.69-.19a.77.77,0,0,0,.13-.72C915.71,187.7,915.37,186.4,914.16,185.58Zm-2.37-30.21-.51-.34c-.3.19-.79.33-.87.59a20.48,20.48,0,0,0-.62,3c0,.24.3.52.46.79.26-.18.69-.31.75-.53C911.31,157.72,911.53,156.54,911.79,155.37Zm-19.29,13.2c-.21-.32-.31-.64-.51-.72a28.89,28.89,0,0,0-3.07-1.11c-.2-.05-.66.27-.73.5a.93.93,0,0,0,.33.84,26.08,26.08,0,0,0,3.11,1C891.85,169.12,892.16,168.78,892.5,168.57ZM912.22,146c.21.25.45.81.75.84a1.37,1.37,0,0,0,1-.69,3.89,3.89,0,0,0,.38-1.75.85.85,0,0,0-1.62-.34A9.09,9.09,0,0,0,912.22,146Zm9.55,23.47a3.8,3.8,0,0,0-4.41,1.19A4.8,4.8,0,0,0,921.77,169.5Zm-12.06-8.19c-1.21,2-1.38,3.32-.63,4.46.87-1.09.84-2.42,1.13-3.64C910.25,162,910,161.72,909.71,161.31ZM898,170.62c-.85-1.33-2.22-1.47-3.65-1.81-.05.37-.2.76-.1.85A4.54,4.54,0,0,0,898,170.62Zm15.26,13.44c-.73-2.54-1.29-3.33-2.55-3.68,0,1.34.87,2.28,1.43,3.32C912.25,183.89,912.69,183.89,913.27,184.06ZM912,172.14a2.22,2.22,0,0,0,2.84-.77A2.78,2.78,0,0,0,912,172.14Zm-3.54,3.65c0,1.22.25,2,1.55,2.5A2.78,2.78,0,0,0,908.43,175.79Zm-5.95-3.3.15-.58a2,2,0,0,0-2.81-.28Zm5.94-4.55c-1,1.39-1,1.39-.4,2.56A2.34,2.34,0,0,0,908.42,167.94Zm-6.09,9.76c1.69,0,2.06-.43,2.11-2.09Z"/><path d="M549.79,179c-2.11,2.72-4.08,5.24-6,7.79a2.17,2.17,0,0,1-2,.75c-3.7,0-7.4.06-11.1,0A207,207,0,0,1,480,180.22a176.53,176.53,0,0,1-23.39-8.38,2.25,2.25,0,0,1-.24-.56c-.9-5.65-4.15-8.87-9.92-9.52a72.51,72.51,0,0,0-8.21-.29,5.1,5.1,0,0,1-2.88-.83,163.7,163.7,0,0,1-17.27-12.57c-11.9-9.88-25.17-17.52-39.12-24a278.26,278.26,0,0,0-68.37-21.58c-1.2-.22-2.38-.47-3.92-.78,1.58-1.23,2.88-2.21,4.15-3.24,1.64-1.33,3.31-2.66,4.88-4.09a2.8,2.8,0,0,1,2.78-.69,300.08,300.08,0,0,1,30.9,8.42,261.56,261.56,0,0,1,54.29,24.74,182.42,182.42,0,0,1,21.75,15.83c18.93,15.81,40.63,26,64.61,31.44,18.9,4.32,38.06,5.55,57.38,4.84.55,0,1.09-.05,1.64-.06A5.51,5.51,0,0,1,549.79,179Z"/><path d="M844.07,79.62c3.79,4.42,5.61,9.72,7.23,15.12a1.9,1.9,0,0,1-.66,2.36,1.88,1.88,0,0,1-2.44-.32q-5.22-4.34-10.43-8.67a8.26,8.26,0,0,0-4.19-2,7.69,7.69,0,0,0-7.23,2.57c-2.2,2.53-4.29,5.15-6.47,7.71a2.15,2.15,0,0,0-.49,2.27,24.27,24.27,0,0,0,1.48,3.81c1.37,2.37,2.92,4.63,4.41,6.92a11.7,11.7,0,0,0,.76,1,1.88,1.88,0,0,1-2,3.08c-3.3-.91-6.64-1.67-9.9-2.7-9.49-3-18.39-7.12-26-13.61a42.9,42.9,0,0,1-10.38-12.87,9.28,9.28,0,0,1,0-9.34,42.47,42.47,0,0,1,9.57-12.21A66.51,66.51,0,0,1,809.6,49.92c4.38-1.55,8.9-2.71,13.36-4a12.56,12.56,0,0,1,1.41-.29,1.74,1.74,0,0,1,2,.78,1.82,1.82,0,0,1-.13,2.13c-.92,1.28-2,2.48-2.76,3.83-1.34,2.29-2.58,4.66-3.75,7a3.23,3.23,0,0,0,.65,3.92c2.87,3.22,5.55,6.6,8.35,9.89,2,2.31,3.43,2.43,5.77.49q6.59-5.43,13.12-10.9c.92-.76,1.85-1.62,3.09-.81s.81,2.09.4,3.16c-1.34,3.44-2.66,6.89-4.18,10.25A31.59,31.59,0,0,1,844.07,79.62Zm-34,27.73a95.73,95.73,0,0,0,14.21,4.2c0-.3,0-.38,0-.43-.18-.29-.36-.58-.56-.86-2.45-3.39-4.85-6.81-6-10.91-.09-.31-.28-.74-.53-.83-1.56-.6-1.94-2.08-2.49-3.36-1.76-4.11-1.72-8.42-1.16-12.74.84-6.34,2.89-12.37,4.9-18.53-1.32-1.35-1.15-3-.56-4.7a20.59,20.59,0,0,1,1.52-3.58c1.31-2.25,2.77-4.4,4.17-6.59l1-1.67c-2.93.79-5.43,1.47-7.93,2.12-.78.2-1.05.71-1.28,1.42-1.15,3.44-2.44,6.83-3.52,10.29-1,3.13-1.87,6.29-2.6,9.49-.92,4-.06,8,.17,12.07.35,6.35.68,12.71.93,19.07C810.37,103.58,810.14,105.36,810,107.35Zm-4.4-53.44-.27-.38c-1.58.76-3.18,1.49-4.72,2.31a2.14,2.14,0,0,0-.86,1.09c-1.61,4.27-2.64,8.66-1.84,13.25.53,3.1,1.33,6.15,1.95,9.23,1.47,7.41,2.39,14.86,1.51,22.43a16.07,16.07,0,0,0,0,1.84l3.4,1.48a2.91,2.91,0,0,0,.23-.57c0-.54.05-1.09.08-1.64a99.84,99.84,0,0,0-2.36-25.28,32.93,32.93,0,0,1,1.07-18.76Q804.73,56.41,805.64,53.91ZM792.2,61c-1.47,1.22-2.6,2.26-3.85,3.15a4.87,4.87,0,0,0-2,4.4,119.85,119.85,0,0,0,1.29,15.13,81.34,81.34,0,0,1,.95,9.58c0,1.92.87,2.82,2.52,3.65a31.18,31.18,0,0,0,.37-3.37c0-4-.09-8.08-.15-12.12-.07-4.78-.27-9.57-.19-14.35A39.58,39.58,0,0,1,792.2,61Zm35.68,14.35c-.93,3.38-1.13,8.41-.43,9.91L831,84.06c-.3-2.46-.6-4.87-.9-7.37Z"/><path d="M104.48,146.08a13.07,13.07,0,0,1,1.14-.67,152.56,152.56,0,0,1,41.47-12.09,31.92,31.92,0,0,0,18.18-9.23A148.88,148.88,0,0,1,176.36,114c12.45-10,26.7-16.33,42-20.48a178.92,178.92,0,0,1,45.13-5.78c.47,0,.94.06,1.36.09V98.35l-2.27.1c-15.27.43-30.32,2.35-44.94,7-13.07,4.11-25.15,10.12-35.65,19a73.42,73.42,0,0,0-6.73,6.34,45.71,45.71,0,0,1-28.73,14.92,80.14,80.14,0,0,1-10.83.77c-9.52,0-19,0-28.58,0h-2.57Z"/><path d="M761.09,120.74a4,4,0,0,1-.32-.41c-.58-1.53-1.57-3-1.63-4.6s.88-3,1.37-4.43a4.63,4.63,0,0,0-.57-4.67,4.23,4.23,0,0,0-6.05-.66c-1.26.94-2.44,2-3.95,3.22l-1-1.07c.67-1,1.23-1.64,1.66-2.41a27.11,27.11,0,0,0,1.14-2.55c.46,0,1-.11,1.51-.1,10.42.06,20.8.75,31.18,1.72a31.36,31.36,0,0,1,13.1,4.1c7.29,4.18,15.32,6.6,23.51,8.41,4.59,1,8.18-.63,11.05-4.59,24.47,5.22,48.48,12,70.75,24.55-1,1.6-1.8,3.06-2.68,4.51s-1.77,2.91-2.7,4.42a6.53,6.53,0,0,1-1.05-.3c-12.77-6.54-26.37-10.74-40.34-13.67-12.19-2.55-24.47-4.7-36.73-6.92-4.37-.79-8.8-1.24-13.31-1.87-.09-.33-.18-.64-.27-1-1.24-4.45-4.56-6.56-9.06-5.42a110.46,110.46,0,0,0-11,3.41,13.81,13.81,0,0,1-5.58.86c-5.61-.27-11.22-.4-16.84-.57C762.57,120.72,761.82,120.74,761.09,120.74Z"/><path d="M401.81,382.54c-.55-1.2.25-1.74.71-2.36q7.77-10.23,15.57-20.44,12.21-16,24.42-32.05c.46-.61.82-1.31,1.47-2.34-3.54-.41-6.69-.06-10-.32a9,9,0,0,1,.68-1.27c2.81-3.71,5.65-7.4,8.45-11.13a2.53,2.53,0,0,1,2.2-1.19c9.66.08,19.32.11,29,.16a14.2,14.2,0,0,1,1.63.23c-.59.79-1,1.39-1.46,2q-24,31.49-47.94,63c-3.12,4.11-7,6.18-12.14,6-3.49-.15-7,0-10.48-.06C403.16,382.65,402.43,382.58,401.81,382.54Z"/><path d="M732.92,104.25l-1.78,1.45A20.13,20.13,0,0,0,726,112a6.71,6.71,0,0,0,0,6.84c.64,1.12,1.3,2.22,2.07,3.55l-4.53.63a209.18,209.18,0,0,0-40.83,9.16c-9.9,3.41-19.26,7.91-27.45,14.56a43.26,43.26,0,0,0-9.32,10.05,40.18,40.18,0,0,1-12.24,12,5.33,5.33,0,0,1-2.63.91c-7.68.05-15.35,0-23,0a9.06,9.06,0,0,1-1.08-.22c.89-.34,1.39-.55,1.9-.72,3.77-1.23,7.58-2.38,11.32-3.69a33.28,33.28,0,0,0,18.13-15c3-5,7-9.12,11.27-13a120.34,120.34,0,0,1,39.79-23.79c4.36-1.61,8.87-2.81,13.3-4.24a6.71,6.71,0,0,1,3.82-.07,8.8,8.8,0,0,0,3.81.2c1-.24,1.93-1.18,2.89-1.79.56-.36,1.09-.91,1.69-1,5.77-.81,11.54-1.54,17.31-2.28A3.78,3.78,0,0,1,732.92,104.25Z"/><path d="M646.49,383.31l2.75-3.63q22.31-29.26,44.59-58.55a13.31,13.31,0,0,1,11.61-5.76c4.59.12,9.18.05,13.77.07h2.31c-.69,1-1.13,1.6-1.6,2.22l-42.74,56.08c-1.29,1.69-2.57,3.38-3.87,5.06a11.25,11.25,0,0,1-9.39,4.64c-5.21,0-10.42,0-15.63,0C647.83,383.4,647.38,383.36,646.49,383.31Z"/><path d="M113.55,314.72h2.54c11.65,0,23.3.08,34.94,0a193.61,193.61,0,0,1,20.3,1,151.11,151.11,0,0,0,25.26.07c8-.59,16-1.14,24-1.05,11,.13,22.06,0,33.09,0h2.57a15.41,15.41,0,0,1-1.47.82,261.81,261.81,0,0,1-47.67,13,172.92,172.92,0,0,1-42.38,2.12c-17.07-1.39-33.3-5.71-48.37-14-.77-.42-1.54-.89-2.3-1.34A4.62,4.62,0,0,1,113.55,314.72Z"/><path d="M269.56,94.7a28.57,28.57,0,0,1,2.08-11.38,108,108,0,0,1,19.47-31,53,53,0,0,1,12.16-10c8.31-4.89,17.05-5.49,26.14-2.69.39.12.77.27,1.15.42,6.75,2.67,9.6,7.89,8.23,15a33.12,33.12,0,0,1-4,10.06,77.88,77.88,0,0,1-10.59,14.09,135,135,0,0,1-27.25,23c-3.83,2.42-7.81,4.6-12.34,5.38a18.13,18.13,0,0,1-5.3.17,10.3,10.3,0,0,1-8.48-6.63A15.91,15.91,0,0,1,269.56,94.7Zm7.9-3.17a50.37,50.37,0,0,0,.76,5c.52,2,1.32,2.54,3.45,2.31a10.06,10.06,0,0,0,3.18-.75,69.65,69.65,0,0,0,8.07-4A138,138,0,0,0,321.7,70.38,82.24,82.24,0,0,0,329,61.22a31.72,31.72,0,0,0,4.93-10.32,5.74,5.74,0,0,0-3.82-7.23,46.21,46.21,0,0,0-7.23-2.26,21.48,21.48,0,0,0-6.1-.27,24.52,24.52,0,0,0-11.55,4.5,45.72,45.72,0,0,0-10.51,10,103,103,0,0,0-16,30.37A43.85,43.85,0,0,0,277.46,91.53Z"/><path d="M940.5,179.67a37.54,37.54,0,0,1,1.53,7.72c1.09,9.2-.14,18.18-2.68,27-3.57,12.39-9.61,23.55-17.06,34a164,164,0,0,1-19.36,22.34c-.29.28-.6.55-1.07,1-3.72-2.51-8-1.44-12.31-1.81.31-1.86.5-3.67,1-5.41a5,5,0,0,1,1.48-1.9,180.61,180.61,0,0,0,19.25-22.18c6.77-9.29,12.52-19.13,16.28-30.06a4.15,4.15,0,0,1,1.06-1.69,14.06,14.06,0,0,0,4.68-13.15,17.44,17.44,0,0,1,.12-6.94,13.78,13.78,0,0,1,6.11-8.44A8.61,8.61,0,0,1,940.5,179.67Z"/><path d="M17.27,241c3.9,3.65,8.64,5,13.86,5.11,2.81,0,5.62.19,8.42.1,2.31-.06,4.62-.4,7.12-.64.12.42.32,1,.45,1.56a138.5,138.5,0,0,0,8,25.42,2.89,2.89,0,0,1-.3,3.33c-5.41,7.24-10.74,14.55-16.09,21.83C31.7,289.93,17.39,252.16,17.27,241Z"/><path d="M691.67,205.39c5.27,0,10.54,0,15.81,0a19.25,19.25,0,0,1,3.47.34c2.15.41,2.68,1.55,1.76,3.58a5.84,5.84,0,0,1-.59,1.07c-3.38,4.57-6.73,9.15-10.15,13.68a12.17,12.17,0,0,1-9,4.76c-2.86.26-5.74.35-8.61.35-7.6,0-15.19,0-22.79-.07a32,32,0,0,1-4.9-.36c-2.07-.34-2.63-1.49-1.79-3.4a12,12,0,0,1,1.33-2.3c2.84-3.86,5.87-7.59,8.54-11.56,3.1-4.6,7.23-6.51,12.73-6.21,4.71.26,9.45.05,14.17.05Z"/><path d="M463.56,206.93a11.19,11.19,0,0,1-2.52,6.13c-2.2,2.8-4.23,5.73-6.35,8.59-.73,1-1.51,1.95-2.25,2.94a10.86,10.86,0,0,1-9.22,4.53H431.5c-6.1,0-12.2,0-18.29,0a28,28,0,0,1-4.09-.37c-1.74-.26-3.47-.65-5.35-1a4.51,4.51,0,0,1,.37-.83c4.46-5.81,9-11.58,13.39-17.44a9.3,9.3,0,0,1,7.37-3.85c2.66-.13,5.34-.21,8-.22,8.22,0,16.45.05,24.67,0A13.25,13.25,0,0,1,463.56,206.93Z"/><path d="M813.4,143.78c2.68,3.1,4,6.7,5.08,10.39.22.75.36,1.52-.41,2s-1.43.15-2-.36c-2.27-1.88-4.53-3.77-6.8-5.64-3.27-2.68-6.23-2.43-8.94.75-1.15,1.35-2.22,2.79-3.43,4.08a2.62,2.62,0,0,0-.49,3.36c1.16,2.09,2.4,4.13,3.62,6.18a14.75,14.75,0,0,1,.93,1.35,1.33,1.33,0,0,1-1.35,1.93,2.53,2.53,0,0,1-.6-.11,67,67,0,0,1-19.84-7.63,33.68,33.68,0,0,1-10.49-9.38,45.16,45.16,0,0,1-2.88-5.19,4.08,4.08,0,0,1,0-3.56,26.36,26.36,0,0,1,5.37-8.2A41,41,0,0,1,785.88,124c4.06-1.6,8.3-2.74,12.47-4.08a1.28,1.28,0,0,1,.6-.11c.63.12,1.43.09,1.83.48.64.62.14,1.35-.29,2-1.33,2.06-2.67,4.13-3.91,6.25a3.2,3.2,0,0,0,.53,4.26c1.8,1.87,3.36,4,5,6,1.84,2.17,2.6,2.24,4.75.47,2.75-2.27,5.48-4.55,8.22-6.82l.79-.66c.65-.55,1.33-1.07,2.19-.43s.58,1.32.35,2.07C817.37,137.1,816,140.68,813.4,143.78ZM799,166.41l.25-.39a6.75,6.75,0,0,0-.39-.69,25.7,25.7,0,0,1-4.06-7.31,1.27,1.27,0,0,0-.41-.68c-1.57-.94-2-2.57-2.41-4.13a15.94,15.94,0,0,1-.19-7.73c.82-3.8,1.91-7.55,2.9-11.31.23-.84.62-1.58,0-2.49a2.28,2.28,0,0,1,.05-1.77,44.64,44.64,0,0,1,2.19-4.83c.66-1.25,1.55-2.38,2.65-4-2.21.59-4,1-5.69,1.56a1.74,1.74,0,0,0-.81,1q-1.65,4.64-3.23,9.3a23.87,23.87,0,0,0-1.23,10.1,131.85,131.85,0,0,1,.81,19.87c0,.18.13.37.29.77Zm-13-4.35c-.13-3.79-.08-7.08-.42-10.33-.4-3.8-1.09-7.57-1.75-11.34a22.79,22.79,0,0,1,1.46-12.06c.32-.87.6-1.75,1-2.89-.75.28-1.17.48-1.61.6-2,.53-2.78,2-3.25,3.8a18.67,18.67,0,0,0-.21,9.33,65.67,65.67,0,0,1,2.27,15.59c0,2,0,4,0,6.11Zm-10-6.08c.11-1.88.31-3.45.28-5-.1-3.9-.4-7.79-.43-11.69,0-2.31.35-4.62.54-6.92,0-.37.09-.73.2-1.55-1.1.94-1.84,1.63-2.65,2.23a3,3,0,0,0-1.26,2.83c.13,2,.12,4,.31,5.94.39,4.08.9,8.15,1.29,12.23C774.26,155,774.85,155.42,775.89,156Zm25.79-15c-.14,2.26-.27,4.46-.41,6.92L804,147a40,40,0,0,1-.48-4C803.52,141.76,803,141.23,801.68,141Z"/><path d="M752.78,158.2c2.54,2.94,3.81,6.34,4.91,9.81a5.65,5.65,0,0,1,.34,1.39,1.32,1.32,0,0,1-1.94,1.33,5.73,5.73,0,0,1-1.15-.84c-2.22-1.83-4.41-3.69-6.65-5.51-2.85-2.32-5.95-2-8.35.7-1.3,1.5-2.49,3.1-3.84,4.56a2.4,2.4,0,0,0-.44,3c1,1.88,2,3.71,3.1,5.54a17.66,17.66,0,0,0,1.23,1.65c.44.58.73,1.18.24,1.87a1.51,1.51,0,0,1-1.84.51c-3.67-1.09-7.4-2-11-3.35a43.82,43.82,0,0,1-16.75-10.5,27.07,27.07,0,0,1-5.3-7.76,5.45,5.45,0,0,1,0-4.73,27.62,27.62,0,0,1,6.91-9.35,47.09,47.09,0,0,1,16.46-9.44c3-1,6-1.82,9-2.71a2.14,2.14,0,0,1,1-.17,2.79,2.79,0,0,1,1.53.7c.23.29,0,1-.17,1.48-.3.6-.85,1.07-1.19,1.66-1.13,1.95-2.25,3.91-3.3,5.9a2.27,2.27,0,0,0,.47,2.8c2,2.26,3.86,4.62,5.83,6.91,1.39,1.6,2.39,1.68,4,.33,3-2.47,6-5,9-7.47.73-.6,1.46-1.47,2.51-.73s.48,1.76.21,2.63A25.86,25.86,0,0,1,752.78,158.2ZM738.66,136l-.22-.35c-1.7.46-3.41.87-5.08,1.42a2,2,0,0,0-1,1.16q-1.64,4.55-3.15,9.12A25.86,25.86,0,0,0,728,158.22c.63,6.34,1.3,12.69.72,19.08a2.29,2.29,0,0,0,.19.68,60.86,60.86,0,0,0,9.78,2.77,7.88,7.88,0,0,0-.48-.95,26.71,26.71,0,0,1-4.08-7.32,1.55,1.55,0,0,0-.57-.81c-1.3-.79-1.66-2.14-2.07-3.43a17.47,17.47,0,0,1-.21-9.35c.81-3.6,1.9-7.13,2.86-10.7.12-.44.36-1,.18-1.33-.87-1.47-.33-2.84.27-4.12.78-1.66,1.77-3.24,2.71-4.83C737.71,137.23,738.21,136.61,738.66,136Zm-13.06,3.9c-.85.35-1.39.62-2,.79a4.11,4.11,0,0,0-2.8,3.21A19.14,19.14,0,0,0,720.6,154a60.51,60.51,0,0,1,2.2,17.25c0,1.29-.17,2.58-.27,4l2.33,1a2.37,2.37,0,0,0,.3-.57c.05-.62.09-1.23.1-1.85a70.91,70.91,0,0,0-1.76-17.13,24,24,0,0,1,1.23-14.28C725,141.67,725.24,140.91,725.6,139.85Zm-10.39,30.5c.09-.86.22-1.51.22-2.16,0-2.67.05-5.33,0-8-.16-4.82-1-9.65.34-14.55a21.22,21.22,0,0,0-2.46,1.77,3,3,0,0,0-1.31,2.81c.15,2.39.19,4.78.4,7.16.33,3.67.81,7.32,1.14,11C713.61,169.45,714.19,169.86,715.21,170.35Zm28.17-8.92a39.24,39.24,0,0,1-.4-4c0-1.27-.56-1.8-1.86-2a35.81,35.81,0,0,0-.33,6.8Z"/><path d="M145.79,230.39c.44-.68.65-1.09.93-1.45,4.36-5.55,8.76-11.06,13.06-16.66a7.68,7.68,0,0,1,6.54-3.17q16.34,0,32.67,0c1.95,0,3.5,1,5.33,1.85-4.52,5.9-8.3,12.2-13.51,17.42-2.23,2.24-5,2.81-7.89,2.85-9.52.12-19,.22-28.56.15A81.11,81.11,0,0,1,145.79,230.39Z"/><path d="M776.34,68.71c-2.13,4.27-4.34,8.2-3.64,13.17a296.11,296.11,0,0,0-47,2.09c.05-.67.09-1.25.13-1.82a5.26,5.26,0,0,0-8.57-4.66c-1.52,1.17-3,2.42-4.59,3.76l-1.3-1.36c1.79-2.6,4.12-5,2.13-8.67C734.46,68.08,755.24,67.7,776.34,68.71Z"/><path d="M229.34,134.86c1.21.17,2.45.23,3.64.51a3.33,3.33,0,0,1,2.18,5,5.54,5.54,0,0,1-.33.51c-4.59,6.49-9.07,13.06-14.3,19.08a14.59,14.59,0,0,1-13.35,5.18c-1.15-.13-2.33,0-3.49-.07a12.2,12.2,0,0,1-2.63-.4c-1.83-.56-2.32-1.73-1.54-3.5a9.52,9.52,0,0,1,1-1.76c4.81-6.5,9.64-13,14.43-19.5a8.59,8.59,0,0,1,3.88-2.91A33,33,0,0,1,229.34,134.86Z"/><path d="M183.16,165.45c-2-.44-4.14-.76-6.14-1.35-1.79-.52-2.16-1.37-1.53-3.1a11.51,11.51,0,0,1,1.46-2.91c4.31-5.92,8.69-11.79,13-17.7a9.4,9.4,0,0,1,4-3.16A27.27,27.27,0,0,1,206.75,135a8.32,8.32,0,0,1,1.41.25c2.64.68,3.69,3.14,2.12,5.38-4.74,6.78-9.5,13.56-14.89,19.87-2.81,3.3-6.41,4.48-10.52,4.66-.55,0-1.1,0-1.64,0Z"/><path d="M421.62,197.67c-1.7-.16-3.42-.23-5.1-.51-3-.48-3.95-2.37-2.26-4.81,4-5.74,8-11.42,12.15-17,3.35-4.58,8-6.42,13.61-6.16a48.5,48.5,0,0,1,5.92.37c2.67.44,3.31,1.86,2.05,4.28a36.08,36.08,0,0,1-2.57,4c-3.2,4.53-6.45,9-9.64,13.56a14.27,14.27,0,0,1-11.07,6.2c-1,.08-2,0-3.08,0Z"/><path d="M415.92,169a45.18,45.18,0,0,1,5.09.45c2.52.49,3.12,2,1.91,4.22a9.48,9.48,0,0,1-.78,1.2c-4.25,5.64-8.54,11.24-12.73,16.91a12,12,0,0,1-8.29,4.8,24,24,0,0,1-9.39-.43,7,7,0,0,1-1.89-.75c-1.49-.89-1.79-2-.87-3.45a109.8,109.8,0,0,1,14.7-19.23c2.44-2.49,5.61-3.31,8.95-3.57,1.09-.09,2.19,0,3.29,0Z"/><path d="M706.75,80.54c1.5,1.78,3,3.49,4.39,5.23.67.82,1.32.77,2.09.12,1.78-1.51,3.58-3,5.37-4.46a4,4,0,0,1,1.13-.87c.47-.17,1.21-.29,1.5,0a1.83,1.83,0,0,1,.57,1.54c-.78,2.11-1.72,4.15-2.61,6.21a4.16,4.16,0,0,1-.37.59c.88,1.94,1.72,3.79,2.53,5.66a3.87,3.87,0,0,1,.45,1.56,2.15,2.15,0,0,1-.55,1.57,1.89,1.89,0,0,1-1.63-.12,18.21,18.21,0,0,1-2.25-1.79c-.89-.74-1.76-1.52-2.69-2.22-1.79-1.37-3.35-1.22-4.88.47-.78.86-1.45,1.82-2.25,2.66a1.73,1.73,0,0,0-.31,2.23c.54,1,1.07,1.91,1.64,2.85.24.4.56.77.84,1.16.42.56.79,1.14.38,1.87s-1.25.75-2,.58a46.74,46.74,0,0,1-11.18-4A24.14,24.14,0,0,1,689,95.24c-4.32-5.44-4.32-6.88,0-12.32a22.33,22.33,0,0,1,8.85-6.52c3.14-1.33,6.42-2.31,9.65-3.43a1.9,1.9,0,0,1,1-.17,2.74,2.74,0,0,1,1.53.68,1.73,1.73,0,0,1-.15,1.48c-.6,1.07-1.39,2-2,3.08C707.46,78.8,707.16,79.64,706.75,80.54Zm1.69,23.33c-1-1.77-1.8-3.32-2.65-4.87a1.17,1.17,0,0,0-.39-.46c-1.92-1-2.11-2.92-2.32-4.74a20,20,0,0,1,1-7.89c.45-1.51,1.24-3,1.32-4.52a11.67,11.67,0,0,1,2.22-5.64c.28-.43.53-.88.84-1.39-2.58.06-4.42.82-4.7,3.58a3.47,3.47,0,0,1-.35,1c-1.59,3.87-2.51,7.82-1.66,12a5.76,5.76,0,0,1,.06,1c.16,3.35.31,6.69.47,10.19A25.26,25.26,0,0,0,708.44,103.87Zm-8.59-26.7a3.53,3.53,0,0,0-3.16,3.09,12.39,12.39,0,0,0-.07,5.68,40.78,40.78,0,0,1,1.45,13.37c-.09,1.17.45,1.55,1.61,1.45a10.38,10.38,0,0,0,.09-1.51c-.33-3.53-.44-7.1-1.1-10.56a17.78,17.78,0,0,1,.74-10C699.58,78.23,699.67,77.78,699.85,77.17ZM692.2,96.43h.51V81.58a2.16,2.16,0,0,0-1.69,2.5c.22,2.72.48,5.44.73,8.17C691.88,93.64,692.05,95,692.2,96.43Zm18.6-8.92-.45,0a10.31,10.31,0,0,0-.22,4.07c.82,0,1.25-.2,1.11-1C711.09,89.51,711,88.51,710.8,87.51Z"/><path d="M749.93,113.58,753,111.1c.79-.65,1.54-1.37,2.38-1.95.45-.3,1.19-.66,1.58-.49.81.36.46,1.2.23,1.81-.49,1.28-1.05,2.52-1.62,3.77a8.18,8.18,0,0,1-.59,1c.82,2,1.61,3.69,2.27,5.48a1.69,1.69,0,0,1-.19,1.48c-.53.57-1.11.06-1.6-.33-1.16-1-2.29-2-3.49-2.88-1.63-1.26-2.92-1.13-4.33.36-.42.45-.8.94-1.19,1.41-1.46,1.76-1.48,1.94-.3,4,.42.7,1,1.34,1.35,2a10,10,0,0,1,.58,1.64,10.8,10.8,0,0,1-2.08,0,33.1,33.1,0,0,1-11.29-4.74,17.21,17.21,0,0,1-5.74-6.33,3.8,3.8,0,0,1,0-3.71,16.33,16.33,0,0,1,4.74-5.6,31.92,31.92,0,0,1,12.49-5.52c.58-.13,1.34-.4,1.6.35a2,2,0,0,1-.4,1.45c-2.56,4-2.58,4,.48,7.58q.6.7,1.26,1.35C749.28,113.35,749.51,113.39,749.93,113.58Zm-3.11,14.1c-1-1.85-1.63-3.46-2.69-4.64a6.63,6.63,0,0,1-1.63-4.49c-.1-2.66.73-5.13,1.46-7.63a4.62,4.62,0,0,0,.4-1.76,5.12,5.12,0,0,1,.92-3.29c.41-.77.9-1.5,1.46-2.42-2,.11-3.34.5-3.74,2.58-.26,1.34-1,2.57-1.28,3.9a29.39,29.39,0,0,0-.62,4.85c-.05,1.36.23,2.73.3,4.1.12,2.37.21,4.75.31,7.28Zm-7.17-21.82a2.41,2.41,0,0,0-2.41,2,10,10,0,0,0-.15,5.05,31.4,31.4,0,0,1,1.15,10.74c-.11,1,.37,1.31,1.33,1.27a37.46,37.46,0,0,0-.9-10.44,12.7,12.7,0,0,1,.44-6.86C739.3,107.1,739.45,106.53,739.65,105.86Zm-6.22,15.66H734c.47-2,.14-4.07.07-6.12s0-4.17,0-6.24c-1.49,1-1.64,1-1.56,2.07C732.75,114.66,733.11,118.09,733.43,121.52Zm15.21-7.29-.45-.07-.28,3.35C749.37,116.92,749.43,116.48,748.64,114.23Z"/><path d="M59.76,235.76c2.28-1.33,7.84-1.87,13.63-1.38l3.24,11.92-9.92,13.42A123.82,123.82,0,0,1,59.76,235.76Z"/><path d="M396.63,36.57a16.55,16.55,0,0,1-6.16,12.81,6.39,6.39,0,0,1-5.81,1.26A11.74,11.74,0,0,1,377.43,46a7,7,0,0,1-.73-7.39,26.19,26.19,0,0,1,8.06-10,12.44,12.44,0,0,1,3.44-1.76,5.46,5.46,0,0,1,6.9,2.89A16.58,16.58,0,0,1,396.63,36.57Zm-5,.51c-.07-.58-.15-1.4-.27-2.21-.55-3.47-1.54-3.87-4.27-1.64A39.18,39.18,0,0,0,380,41.15a5.87,5.87,0,0,0-.89,2.05,4.88,4.88,0,0,0,2.31,5.26,4,4,0,0,0,5.1-.49C389.4,45,391.46,41.59,391.64,37.08Z"/><path d="M795.58,352.24l-8.09-1.08c.63-.88,1-1.48,1.49-2.05,4.94-6.49,9.95-12.93,14.78-19.5,1.11-1.5,2.23-2.05,4-1.59.39.1.79.17,1.42.3-.41.61-.7,1.11-1,1.56l-8.85,11.62a15.84,15.84,0,0,0-3.35,7C795.71,349.6,795.7,350.76,795.58,352.24Z"/><path d="M776.14,321.37l-16.39,21.52-.42-.21c3-7.93,5.93-15.87,8.95-23.95Z"/><path d="M850.6,337.12H831.78a42.15,42.15,0,0,1,3.19-4.26,1.5,1.5,0,0,1,1.07-.42c5.33,0,10.66.06,16,.11,0,0,.07.1.07.1Z"/><path d="M354.36,40.18c2.82.24,3.8,1.89,2.38,4.27a16.3,16.3,0,0,1-6.36,5.94,2.3,2.3,0,0,1-2.7,0,2.24,2.24,0,0,1-.57-2.63,12.44,12.44,0,0,1,4.49-6.45A13.63,13.63,0,0,1,354.36,40.18Z"/><path d="M714.13,371.14l13.63-17.88.28.13c-.24.73-.46,1.47-.74,2.2-1.16,3.06-2.32,6.13-3.54,9.18a3.58,3.58,0,0,1-1.11,1.63c-2.68,1.76-5.42,3.42-8.14,5.11Z"/><path d="M669.42,342.55l5.58-7.33c1.87-2.45,3.81-4.84,5.57-7.37,1.31-1.87,3.22-2.84,5.24-3.87a12.26,12.26,0,0,1-.67,1.09c-3.73,4.9-7.49,9.78-11.18,14.71-1.13,1.51-2.78,2.11-4.22,3.1Z"/><path d="M359.42,80.53c-1.7,0-2.43-1.07-1.59-2.55a10,10,0,0,1,4.45-4.1c1-.48,1.72-.09,1.92.79C364.64,76.7,361.54,80.51,359.42,80.53Z"/><path d="M535.65,370.55c1.36-1.78,2.51-3.29,3.75-4.9l3.51,1.32-3.73,4.91Z"/><path d="M568.73,371.8c-.88,1.72-1.7,3.48-2.69,5.13-.2.33-1,.27-1.6.39l-.25-.38,4.11-5.38Z"/><path d="M127.19,288l-1.68,2.4c-1.48,2.06-3,4.1-4.42,6.19a2.52,2.52,0,0,1-2.37,1.28c-1.84-.07-3.68,0-5.77,0a11.21,11.21,0,0,1,.69-1.36c1.75-2.46,3.54-4.88,5.25-7.36a2.29,2.29,0,0,1,2.2-1.15C122.93,288.06,124.77,288,127.19,288Z"/><path d="M233.17,291.83c1-1.34,1.57-2.31,2.3-3.18a1.83,1.83,0,0,1,1.21-.58c1.56-.06,3.13,0,4.73,0-.67,2.79-1.86,3.78-4.44,3.78Z"/><path d="M261.82,288.61c-2.12,2.94-4.21,5.89-6.37,8.79a2,2,0,0,1-1.38.72c-1.89.08-3.79,0-6,0a8.67,8.67,0,0,1,.57-1.29c1.78-2.52,3.6-5,5.37-7.53a2.63,2.63,0,0,1,2.41-1.26c1.69.05,3.39,0,5.08,0Z"/><path d="M359.42,288.74c-2.1,2.93-4.1,5.78-6.18,8.57a2.4,2.4,0,0,1-1.49.86,34.12,34.12,0,0,1-3.7,0c.43-.75.66-1.22,1-1.64,1.62-2.29,3.31-4.53,4.88-6.86a2.56,2.56,0,0,1,2.7-1.37C357.48,288.47,358.46,288,359.42,288.74Z"/><path d="M200.65,288.44l-2.7,6.44h-4.11C194.62,293.5,198.68,289.37,200.65,288.44Z"/><path d="M312.12,295h-4.05c.68-1.35,4.57-5.35,6.91-7-.58,1.48-1,2.56-1.42,3.62S312.64,293.77,312.12,295Z"/><path d="M139.77,294.83h-4.41c1.34-1.36,2.4-2.46,3.47-3.54l3.41-3.38C142.34,289.32,141.46,291.7,139.77,294.83Z"/><path d="M597,290.48l1.69-2.7a5.73,5.73,0,0,0,1.14.61,16.48,16.48,0,0,0,2,.26C600.38,290.55,598.68,290.57,597,290.48Z"/><path d="M594.49,294c.43-.63.85-1.27,1.28-1.91.2.28.37.76.61.79a14.38,14.38,0,0,0,2.18,0l.09.41a9.87,9.87,0,0,1-1.57.5C596.22,293.91,595.35,293.91,594.49,294Z"/><path d="M601.26,292.54c.6-.69,1.18-1.54,2.37-.1Z"/><path d="M605.78,287.22l-2.15.36-.09-.5,2.15-.36Z"/><path d="M595.71,292.14c.43-.58.87-1.15,1.3-1.72C596.58,291,596.14,291.56,595.71,292.14Z"/><path d="M291.26,292.09a4.6,4.6,0,0,1,.1-.55c2.2-3.69,2.83-4,7.89-3.18a14.24,14.24,0,0,1-2.31,3.3,1.65,1.65,0,0,1-1.09.41C294.36,292.12,292.88,292.09,291.26,292.09Z"/><path d="M822.36,292.53c-1.43,2.22-3.39,1-5.11,1.41C818,292.1,818.78,291.89,822.36,292.53Z"/><path d="M760.93,293.68c1.06-1.6,1.66-1.73,4.85-1.23C765.18,294.07,764.77,294.18,760.93,293.68Z"/><path d="M829.62,298.67c.84-2.82,3.08-2.05,5.08-2C833.85,299.21,832.29,299.8,829.62,298.67Z"/><path d="M781.31,298.74c1.63-2.25,3-4.12,4.35-5.94a1.57,1.57,0,0,1,1.06-.5c1.15-.07,2.3,0,3.72,0a8,8,0,0,1-.57,1.26c-.94,1.35-1.94,2.65-2.84,4a2.39,2.39,0,0,1-2.4,1.21C783.71,298.68,782.77,298.74,781.31,298.74Z"/><path d="M497.06,336l13.12,9.86-2.93,4c-4.32-3.45-8.52-6.79-12.88-10.28Z"/><path d="M476.94,362.6l2.92,2.18h-4.39C475.57,363.78,476.32,363.29,476.94,362.6Z"/><path d="M325,43.37a40.07,40.07,0,0,1,5.12,1.33,4.73,4.73,0,0,1,3,5.46,15.3,15.3,0,0,1-3.37,7.17A52.37,52.37,0,0,1,315,70.59a17.49,17.49,0,0,1-3.16,1.48,7.83,7.83,0,0,1-2.4.44,4.5,4.5,0,0,1-4.9-4,9.89,9.89,0,0,1,.45-5.47,40.4,40.4,0,0,1,9.83-15,23.57,23.57,0,0,1,4-2.89A13.47,13.47,0,0,1,325,43.37Z"/><path d="M287.66,78.79c0-2.22,2.83-5.94,5-6.46a3.91,3.91,0,0,1,1.8,0c1.35.31,1.87,1.21,1.24,2.42a11.55,11.55,0,0,1-2.29,3.08,14.32,14.32,0,0,1-3.46,2.46C288.6,81,287.66,80.25,287.66,78.79Z"/></g></svg>