<?xml version="1.0" encoding="UTF-8"?>
<svg xmlns="http://www.w3.org/2000/svg" xmlns:xlink="http://www.w3.org/1999/xlink" width="px" height="px" viewBox="0 0 230 267" version="1.1">
<g id="surface1">
<path style=" stroke:none;fill-rule:nonzero;fill:rgb(100%,0%,0.784314%);fill-opacity:1;" d="M 37.480469 76.734375 C 38.132812 74.996094 39.53125 74.140625 41.128906 73.316406 C 46.042969 70.78125 51.449219 70.453125 56.738281 69.613281 C 64.296875 68.390625 71.867188 67.265625 79.398438 65.957031 C 84.304688 65.101562 88.007812 66.757812 90.601562 70.855469 C 94.183594 76.523438 97.644531 82.273438 101.117188 88 C 105.242188 94.753906 109.351562 101.515625 113.449219 108.28125 C 113.855469 108.945312 114.335938 109.574219 114.800781 110.257812 L 159.273438 69.90625 L 158.988281 69.238281 C 158.285156 69.003906 157.550781 68.859375 156.8125 68.804688 C 153.597656 68.984375 150.398438 69.335938 147.191406 69.484375 C 144.574219 69.613281 141.699219 70.378906 139.980469 67.386719 C 139.738281 66.960938 139.289062 66.253906 139.421875 66.097656 C 139.816406 65.609375 140.371094 65.269531 140.984375 65.136719 C 144.53125 64.800781 148.074219 64.472656 151.628906 64.328125 C 163.777344 63.859375 175.925781 63.445312 188.074219 63.085938 C 189.007812 63.171875 189.929688 63.375 190.816406 63.691406 L 190.753906 64.375 C 190.335938 64.667969 189.921875 64.972656 189.476562 65.234375 C 182.71875 69.15625 176.085938 73.1875 169.265625 76.949219 C 159.011719 82.59375 150.066406 90 141.195312 97.496094 C 134.839844 102.867188 128.734375 108.519531 122.484375 113.984375 C 121.472656 114.730469 121.15625 116.097656 121.734375 117.214844 C 122.539062 119.050781 123.144531 121.011719 124.234375 122.667969 C 133.015625 136.078125 141.699219 149.5625 150.816406 162.738281 C 156.488281 170.921875 163.714844 177.628906 172.886719 182 C 176.132812 183.613281 179.730469 184.386719 183.355469 184.25 C 185.699219 184.265625 188.03125 184.574219 190.296875 185.171875 C 192.332031 185.605469 192.679688 187.589844 191.207031 189.128906 C 189.261719 191.289062 186.445312 192.460938 183.535156 192.3125 C 170.578125 192.027344 157.609375 192.019531 144.644531 191.855469 C 142.5625 191.808594 140.480469 191.648438 138.417969 191.382812 C 134.804688 190.964844 132.105469 188.796875 129.664062 186.363281 C 118.59375 175.300781 108.898438 163.203125 101.632812 149.253906 C 99.652344 145.453125 97.34375 141.828125 95.179688 138.117188 C 94.273438 136.542969 93.117188 136.214844 91.546875 137.277344 C 76.140625 147.769531 65.023438 160.878906 64.59375 180.679688 C 64.492188 185.828125 64.777344 190.875 66.480469 195.738281 C 67.101562 197.570312 68.007812 199.289062 69.171875 200.835938 C 70.339844 202.332031 70.125 203.144531 68.53125 203.871094 L 66.128906 203.871094 C 64.191406 202.84375 62.207031 201.882812 60.320312 200.773438 C 54.144531 197.019531 47.53125 194.03125 40.628906 191.871094 C 39.554688 191.546875 38.53125 191.046875 37.480469 190.625 L 37.480469 185.378906 C 37.746094 184.714844 38.058594 184.066406 38.410156 183.4375 C 44.5625 173.988281 50.820312 164.625 59.210938 156.914062 C 68.222656 148.667969 77.125 140.3125 86.078125 132.015625 C 88.179688 130.058594 88.375 129.175781 87.242188 126.558594 C 86.964844 125.949219 86.648438 125.359375 86.289062 124.789062 C 81.585938 117.136719 76.882812 109.480469 72.175781 101.828125 C 67.050781 93.484375 61.515625 85.441406 54.410156 78.5625 C 53.46875 77.511719 51.960938 77.171875 50.65625 77.714844 C 47.648438 78.597656 44.554688 79.214844 41.507812 79.964844 C 39.558594 80.441406 38.269531 79.707031 37.480469 77.933594 Z M 37.480469 76.734375 "/>
</g>
</svg>
