<?xml version="1.0" encoding="UTF-8"?>
<svg xmlns="http://www.w3.org/2000/svg" xmlns:xlink="http://www.w3.org/1999/xlink" width="px" height="px" viewBox="0 0 230 267" version="1.1">
<g id="surface2">
<path style=" stroke:none;fill-rule:nonzero;fill:rgb(0%,0%,0%);fill-opacity:1;" d="M 112.222656 139.21875 C 112.113281 138.230469 111.96875 137.246094 111.886719 136.21875 C 111.71875 134.726562 111.625 133.226562 111.617188 131.722656 C 111.710938 130.753906 111.921875 129.800781 112.246094 128.882812 C 112.515625 127.945312 112.921875 127.039062 113.171875 126.09375 C 113.296875 125.585938 113.472656 124.972656 112.808594 124.597656 C 112.699219 124.527344 112.726562 124.207031 112.710938 123.996094 L 112.359375 119.085938 C 112.015625 119.558594 111.773438 119.835938 111.5625 120.167969 C 109.101562 123.996094 106.5 127.78125 105.472656 132.300781 C 105.050781 134.386719 104.347656 136.402344 103.375 138.296875 C 103.261719 138.5 103.152344 138.710938 103.023438 138.910156 C 103.023438 138.910156 102.917969 138.910156 102.601562 139.007812 C 103.277344 136.339844 103.917969 133.761719 104.570312 131.191406 L 103.820312 131.230469 C 104.023438 130.875 104.15625 130.613281 104.308594 130.375 C 106.667969 126.582031 109.003906 122.773438 111.421875 119.019531 C 111.679688 118.742188 111.816406 118.371094 111.789062 117.988281 C 111.761719 117.609375 111.582031 117.257812 111.285156 117.019531 C 111.011719 116.710938 110.761719 116.386719 110.535156 116.042969 L 108.28125 120.863281 L 108.175781 119.328125 L 100.535156 126.3125 L 100.394531 126.214844 C 100.421875 126.078125 100.476562 125.945312 100.550781 125.824219 C 102 124.222656 103.429688 122.601562 104.917969 121.042969 C 106.230469 119.671875 106.484375 118.523438 105.613281 117.226562 C 104.113281 118.570312 102.699219 120 101.109375 121.222656 C 99.773438 122.324219 98.554688 123.558594 97.472656 124.910156 C 95.824219 126.722656 94.066406 128.433594 92.214844 130.039062 C 89.300781 132.71875 87.160156 136.035156 84.703125 139.179688 C 86.730469 140.089844 88.667969 140.964844 90.621094 141.820312 C 90.84375 141.910156 91.082031 141.949219 91.320312 141.933594 C 91.832031 141.933594 92.253906 141.933594 92.582031 142.488281 C 92.753906 142.792969 93.332031 142.914062 93.761719 143.011719 C 94.523438 143.0625 95.1875 143.550781 95.460938 144.261719 C 95.570312 144.578125 96.519531 144.953125 96.738281 144.800781 C 97.5 144.28125 98.503906 144.265625 99.28125 144.765625 C 99.503906 144.847656 99.730469 144.914062 99.957031 144.96875 C 100.542969 143.527344 101.101562 142.121094 101.703125 140.726562 C 101.804688 140.484375 102.097656 140.335938 102.300781 140.148438 C 102.34375 140.410156 102.34375 140.675781 102.300781 140.933594 C 101.800781 142.5 101.257812 144.054688 100.6875 145.722656 C 102.746094 146.105469 104.300781 148.226562 106.765625 147.3125 L 106.320312 146.789062 C 108.265625 145.730469 113.382812 144.089844 113.988281 144.464844 L 111.855469 145.492188 C 111.140625 145.800781 110.460938 146.179688 109.820312 146.625 L 112.707031 146.210938 L 112.796875 146.644531 L 107.644531 147.929688 L 107.644531 148.070312 L 111.316406 147.464844 C 111.992188 147.34375 112.675781 147.214844 113.359375 147.125 C 113.570312 147.140625 113.777344 147.195312 113.96875 147.285156 C 113.792969 147.425781 113.636719 147.65625 113.441406 147.710938 C 112.222656 148.023438 110.992188 148.296875 109.769531 148.609375 C 108.871094 148.777344 108.09375 149.324219 107.636719 150.109375 C 107.46875 150.386719 107.21875 150.605469 106.921875 150.738281 C 105.675781 151.25 104.757812 152.335938 104.457031 153.644531 C 103.902344 155.761719 103.382812 157.882812 102.851562 160.003906 C 102.789062 160.242188 102.699219 160.472656 102.625 160.707031 L 102.347656 160.707031 C 102.324219 160.511719 102.324219 160.3125 102.347656 160.113281 C 102.917969 157.582031 103.542969 155.054688 104.066406 152.507812 C 104.152344 151.992188 104.054688 151.460938 103.789062 151.007812 C 102.871094 149.542969 101.574219 148.355469 100.035156 147.566406 C 95.824219 145.347656 91.582031 143.179688 87.308594 141.054688 C 86.394531 140.726562 85.445312 140.511719 84.476562 140.410156 L 74.433594 173.539062 L 74.1875 173.476562 C 74.441406 172.339844 74.644531 171.191406 74.9375 170.066406 C 76.710938 163.503906 78.5 156.945312 80.308594 150.402344 C 80.511719 149.710938 80.8125 149.054688 81.203125 148.453125 C 82.144531 146.90625 82.640625 145.132812 82.636719 143.324219 C 82.636719 142.578125 82.765625 141.773438 82.773438 140.996094 C 82.722656 140.699219 82.621094 140.410156 82.472656 140.148438 C 82.164062 140.261719 81.722656 140.289062 81.546875 140.515625 C 79.957031 142.34375 78.390625 144.199219 76.847656 146.078125 C 75.773438 147.375 74.75 148.707031 73.683594 150.003906 C 73.550781 150.167969 73.269531 150.222656 73.0625 150.324219 C 73.0625 150.070312 72.949219 149.773438 73.0625 149.578125 C 73.8125 147.988281 74.628906 146.421875 75.449219 144.792969 C 73.082031 142.96875 70.300781 141.746094 67.351562 141.242188 C 67.035156 141.183594 66.480469 140.996094 66.472656 140.859375 C 66.484375 140.425781 66.605469 140 66.828125 139.625 C 67.027344 139.371094 67.285156 139.164062 67.578125 139.023438 C 71.070312 136.871094 74.554688 134.691406 78.09375 132.59375 C 79.714844 131.625 81.4375 130.832031 83.109375 129.96875 C 83.71875 129.65625 84.140625 129.296875 83.75 128.761719 C 84.433594 128.652344 85.105469 128.464844 85.746094 128.199219 C 89.773438 126.058594 92.664062 122.699219 95.375 119.15625 C 95.8125 118.585938 96.234375 118.015625 96.789062 117.265625 L 94.917969 117.453125 L 94.917969 117.363281 L 104.488281 112.867188 C 104.015625 111.210938 102.648438 111.300781 101.265625 111.136719 L 103.210938 108.839844 C 101.707031 107.890625 100.25 107.34375 98.457031 107.917969 C 96.382812 108.601562 94.25 109.105469 92.386719 109.613281 C 92.035156 110.054688 91.863281 110.492188 91.574219 110.59375 C 90.636719 110.925781 89.824219 110.59375 88.902344 109.667969 L 102.886719 105.957031 C 101.605469 104.261719 99.816406 104.847656 98.074219 104.5625 L 99.402344 103.40625 C 97.660156 102.457031 95.96875 101.496094 94.25 100.605469 C 91.5625 99.21875 88.847656 97.863281 86.144531 96.503906 C 84.921875 95.898438 84.597656 96.101562 84.441406 97.488281 C 84.28125 98.875 84.085938 100.273438 83.871094 101.667969 C 83.871094 101.878906 83.613281 102.066406 83.472656 102.269531 C 83.34375 102.089844 83.117188 101.917969 83.101562 101.730469 C 83.074219 101.210938 83.074219 100.695312 83.101562 100.175781 C 83.101562 99.242188 83.195312 98.296875 83.101562 97.359375 C 83.03125 96.644531 82.859375 95.941406 82.585938 95.277344 C 82.421875 94.878906 82.121094 94.554688 81.734375 94.363281 C 79.980469 93.53125 78.191406 92.757812 76.410156 91.96875 C 77.160156 90.398438 77.597656 90.300781 79.65625 91.304688 L 79.191406 92.21875 C 80.910156 92.21875 82.5625 92.179688 84.214844 92.21875 C 84.621094 92.21875 84.964844 92.613281 85.410156 92.808594 C 87.664062 93.941406 89.917969 95.058594 92.167969 96.207031 C 93.003906 96.648438 93.4375 96.40625 93.8125 95.6875 C 93.945312 95.351562 94.140625 95.042969 94.386719 94.78125 C 94.792969 94.507812 95.226562 94.273438 95.675781 94.085938 L 95.851562 94.339844 L 94.875 96.210938 L 97.480469 97.433594 L 97.351562 97.757812 L 94.210938 96.761719 L 94.113281 97.035156 L 102.378906 100.191406 C 100.417969 98.214844 99.175781 95.652344 96.757812 94.195312 C 96.511719 94.054688 96.390625 93.671875 96.210938 93.402344 C 96.132812 93.253906 96.03125 93.117188 95.910156 92.996094 C 94.339844 91.566406 92.734375 90.1875 91.207031 88.71875 C 89.929688 87.488281 88.699219 86.214844 87.550781 84.871094 C 87.03125 84.144531 86.570312 83.371094 86.183594 82.5625 L 86.394531 82.453125 C 87.5 82.890625 88.582031 83.390625 89.628906 83.949219 C 90.492188 84.53125 91.296875 85.183594 92.042969 85.90625 C 93.761719 87.40625 95.453125 89.011719 97.1875 90.523438 C 97.488281 90.71875 97.847656 90.800781 98.199219 90.757812 C 99.246094 90.675781 100.28125 90.523438 101.519531 90.375 L 85.0625 62.207031 L 74.910156 71.570312 C 75.660156 72.671875 77.425781 73.441406 75.898438 75.195312 L 71.851562 70.453125 C 70.769531 72.964844 69.71875 75.375 68.667969 77.796875 L 68.824219 77.910156 L 69.777344 77.011719 L 69.980469 77.109375 C 69.933594 77.324219 69.871094 77.539062 69.785156 77.746094 C 69.222656 78.839844 68.660156 79.925781 68.042969 80.992188 C 67.914062 81.207031 67.585938 81.304688 67.34375 81.457031 C 67.261719 81.214844 67.21875 80.960938 67.21875 80.707031 C 68.035156 77.144531 68.863281 73.585938 69.734375 70.039062 C 69.945312 69.273438 69.738281 68.453125 69.183594 67.882812 C 68.730469 67.351562 68.226562 66.867188 67.683594 66.425781 C 66.078125 65.0625 64.730469 63.425781 63.703125 61.59375 C 63.625 61.351562 63.59375 61.097656 63.605469 60.84375 C 63.835938 60.910156 64.054688 61.011719 64.25 61.152344 C 66.890625 63.746094 69.511719 66.34375 72.113281 68.953125 C 72.347656 69.1875 72.542969 69.449219 72.511719 69.277344 C 73.472656 68.527344 74.429688 67.730469 75.410156 67.027344 C 75.757812 66.773438 76.214844 66.421875 76.570312 66.480469 C 77.320312 66.59375 77.433594 66.164062 77.777344 65.730469 C 78.652344 64.605469 79.605469 63.542969 80.632812 62.554688 C 81.527344 61.804688 82.464844 61.101562 83.433594 60.445312 C 83.660156 60.332031 83.828125 60.121094 83.886719 59.875 C 83.945312 59.625 83.894531 59.363281 83.742188 59.15625 C 79.894531 52.421875 76.0625 45.675781 72.242188 38.921875 C 72.191406 38.824219 72.113281 38.734375 72 38.554688 L 69.75 40.457031 L 71.507812 35.449219 L 69.546875 33.792969 L 69.753906 33.480469 L 70.605469 33.863281 L 69.664062 31.53125 L 69.890625 31.34375 C 70.15625 31.558594 70.394531 31.8125 70.589844 32.09375 C 72.640625 36.019531 74.636719 39.976562 76.71875 43.882812 C 77.390625 45.054688 78.160156 46.171875 79.015625 47.21875 C 80.859375 49.550781 82.238281 52.214844 83.082031 55.066406 C 83.316406 55.851562 83.644531 56.605469 84.058594 57.3125 C 86.175781 61.0625 88.324219 64.742188 90.457031 68.457031 L 90.90625 69.207031 C 91.660156 68.910156 92.410156 68.601562 93.160156 68.339844 C 95.023438 67.6875 96.917969 67.078125 98.765625 66.40625 C 99.660156 66.082031 100.53125 65.65625 101.394531 65.273438 C 101.796875 65.125 102.117188 64.816406 102.289062 64.425781 C 102.460938 64.03125 102.464844 63.585938 102.300781 63.191406 C 101.21875 58.867188 100.191406 54.527344 99.132812 50.195312 C 98.9375 49.375 98.695312 48.566406 98.554688 47.742188 C 98.527344 47.320312 98.550781 46.894531 98.613281 46.476562 L 98.976562 46.476562 C 99.058594 46.738281 99.164062 46.992188 99.222656 47.226562 C 101.425781 56.609375 103.625 65.992188 105.816406 75.375 C 105.863281 75.488281 105.882812 75.609375 105.878906 75.730469 C 105.816406 75.917969 105.738281 76.105469 105.652344 76.285156 C 105.503906 76.148438 105.261719 76.027344 105.214844 75.855469 C 104.871094 74.433594 104.554688 73 104.246094 71.570312 C 103.976562 70.28125 103.746094 68.984375 103.457031 67.695312 C 103.171875 66.40625 102.769531 66.246094 101.609375 66.71875 C 98.5625 67.957031 95.511719 69.222656 92.46875 70.46875 C 92.304688 70.535156 92.15625 70.632812 91.914062 70.753906 C 92.71875 72.25 93.5 73.75 94.296875 75.1875 C 96.796875 79.761719 99.273438 84.347656 101.804688 88.898438 C 102.429688 89.746094 102.566406 90.859375 102.175781 91.835938 C 102.050781 92.167969 102.050781 92.53125 102.175781 92.863281 L 103.445312 91.878906 C 104.324219 93.648438 105.1875 95.375 106.050781 97.128906 C 106.464844 97.957031 106.855469 98.796875 107.304688 99.609375 C 107.664062 100.308594 108.46875 100.660156 109.226562 100.449219 C 108.136719 96.84375 106.476562 93.410156 107.191406 89.527344 C 107.476562 90.875 107.769531 92.21875 108.054688 93.566406 L 108.222656 93.566406 L 107.46875 87.277344 L 107.769531 87.203125 C 107.867188 87.449219 107.980469 87.699219 108.070312 87.953125 C 108.898438 90.359375 109.257812 92.90625 109.121094 95.449219 C 109.015625 96.992188 109.605469 98.503906 110.730469 99.570312 L 111.960938 98.183594 C 112.089844 100.335938 111.542969 100.941406 109.535156 100.972656 C 107.980469 100.972656 106.945312 102.042969 106.53125 104.140625 L 107.84375 103.902344 L 109.265625 103.671875 C 108.214844 106.308594 108.703125 108.804688 109.414062 111.308594 C 109.53125 111.730469 109.871094 112.058594 110.300781 112.15625 C 113.039062 113.164062 116.058594 113.074219 118.730469 111.90625 C 118.960938 111.808594 119.292969 111.578125 119.316406 111.382812 C 119.40625 110.503906 119.773438 109.964844 120.816406 110.035156 C 120.066406 106.929688 119.382812 103.941406 118.652344 100.851562 C 117.105469 101.945312 115.445312 101.453125 113.863281 101.472656 C 113.613281 101.472656 113.195312 101.054688 113.109375 100.777344 C 112.824219 98.882812 112.289062 97.03125 111.519531 95.277344 C 111.242188 94.480469 111.164062 93.632812 111.285156 92.800781 C 111.558594 87.265625 111.484375 81.71875 111.058594 76.195312 C 110.8125 72.917969 111.015625 69.621094 110.851562 66.335938 C 111.40625 74.042969 111.894531 81.753906 112.5625 89.445312 C 112.878906 91.789062 113.34375 94.113281 113.953125 96.398438 C 114.101562 97.253906 114.835938 97.878906 115.703125 97.898438 C 115.703125 95.269531 116.890625 93.15625 118.464844 91.199219 C 118.617188 92.945312 118.941406 94.714844 117.347656 96.273438 L 120.027344 96.476562 C 120.160156 95.945312 120.328125 95.429688 120.53125 94.921875 C 120.785156 94.339844 121.121094 93.796875 121.523438 93.304688 C 122.222656 92.511719 122.019531 91.804688 120.734375 91.054688 L 119.53125 92.464844 C 118.527344 91.410156 118.960938 87.707031 119.992188 85.398438 C 120.457031 86.542969 119.757812 87.707031 119.910156 89.046875 C 120.328125 88.492188 120.839844 88.089844 120.9375 87.601562 C 121.035156 87.113281 120.691406 86.566406 120.515625 85.972656 L 122.394531 86.3125 C 121.304688 88.027344 122.523438 89.03125 123.46875 90.148438 C 125.535156 89.398438 127.464844 88.410156 128.726562 86.4375 C 131.890625 81.402344 135.800781 76.914062 139.339844 72.152344 C 139.445312 72.019531 139.542969 71.867188 139.699219 71.636719 L 135.53125 70.789062 L 135.53125 70.453125 C 136.410156 70.453125 137.289062 70.40625 138.167969 70.453125 C 140.257812 70.578125 141.007812 70.152344 141.976562 68.308594 C 144.113281 64.226562 146.277344 60.152344 148.457031 56.085938 C 148.59375 55.828125 148.789062 55.605469 149.007812 55.28125 C 149.375 55.800781 149.375 56.496094 149.007812 57.015625 C 145.070312 64.507812 140.84375 71.777344 135.488281 78.417969 C 132.363281 82.316406 129.671875 86.566406 126.804688 90.667969 C 126.5 91.167969 126.222656 91.683594 125.976562 92.21875 C 126.203125 92.136719 126.421875 92.042969 126.640625 91.941406 C 131.894531 88.796875 136.839844 85.164062 141.40625 81.085938 C 146.144531 77.054688 151.125 73.449219 155.976562 69.652344 C 156.925781 68.902344 157.894531 68.152344 158.898438 67.542969 C 159.546875 67.132812 159.484375 66.75 159.109375 66.242188 C 158.734375 65.730469 158.480469 65.429688 158.214844 65.003906 C 157.660156 64.097656 157.734375 63.503906 158.5 62.605469 C 159.253906 63.773438 160.003906 64.929688 160.753906 66.136719 L 178.527344 54.097656 C 178.699219 55.234375 178.140625 56.351562 177.128906 56.902344 C 175.230469 58.214844 173.3125 59.511719 171.414062 60.820312 C 167.117188 63.820312 162.894531 66.816406 158.523438 69.703125 C 149.179688 75.796875 141.210938 83.546875 132.78125 90.75 C 131.5 91.851562 130.445312 93.230469 129.261719 94.445312 C 128.507812 95.191406 127.757812 95.824219 127.007812 96.527344 C 126.6875 96.867188 126.386719 97.222656 126.105469 97.589844 L 126.351562 97.953125 C 126.785156 97.863281 127.207031 97.726562 127.609375 97.546875 C 130.898438 95.628906 134.164062 93.679688 137.460938 91.761719 C 138.074219 91.441406 138.703125 91.160156 139.347656 90.914062 L 139.476562 91.183594 L 137.972656 92.097656 C 135.292969 93.695312 132.601562 95.277344 129.945312 96.910156 C 129.480469 97.230469 129.0625 97.621094 128.710938 98.0625 C 128.578125 98.207031 128.585938 98.46875 128.53125 98.679688 C 128.746094 98.714844 128.964844 98.714844 129.175781 98.679688 C 130.492188 98.167969 131.792969 97.621094 133.105469 97.097656 C 133.355469 97 133.617188 96.933594 133.855469 96.855469 L 133.992188 97.121094 C 133.773438 97.3125 133.535156 97.488281 133.285156 97.644531 C 132.257812 98.191406 131.21875 98.738281 130.160156 99.242188 C 129.238281 99.636719 128.648438 100.546875 128.660156 101.550781 C 129.332031 101.632812 130.015625 101.632812 130.6875 101.550781 C 133.339844 100.898438 135.945312 100.125 138.605469 99.441406 C 139.199219 99.339844 139.804688 99.289062 140.40625 99.300781 L 140.488281 99.554688 L 138.460938 101.929688 C 137.710938 100.933594 137.753906 100.957031 136.765625 101.707031 C 136.429688 101.929688 136.078125 102.117188 135.710938 102.277344 C 135.613281 102.765625 135.480469 103.246094 135.3125 103.714844 C 134.910156 104.75 134.429688 105.75 133.871094 106.714844 C 133.484375 107.171875 132.996094 107.535156 132.445312 107.769531 C 131.738281 108.167969 131.191406 108.578125 131.566406 109.507812 C 131.609375 109.628906 131.566406 109.800781 131.511719 109.945312 C 131.257812 111.53125 131.707031 111.980469 133.339844 112.191406 C 136.464844 112.550781 139.582031 112.988281 142.691406 113.445312 C 143.339844 113.5625 143.972656 113.769531 144.566406 114.058594 C 145.078125 114.289062 145.320312 114.117188 145.558594 113.691406 C 146.207031 112.75 146.207031 111.507812 145.558594 110.566406 C 145.273438 109.984375 145.097656 109.351562 145.042969 108.707031 C 144.996094 108.003906 144.480469 107.417969 143.785156 107.28125 L 143.726562 106.277344 L 141.976562 106.1875 L 141.910156 105.886719 C 142.882812 105.445312 143.886719 105.066406 144.914062 104.757812 C 145.515625 104.613281 145.785156 105.242188 145.851562 105.828125 C 145.964844 106.902344 146.070312 107.972656 146.207031 109.042969 C 146.234375 109.464844 146.324219 109.878906 146.46875 110.273438 C 147.015625 111.300781 147.113281 112.511719 146.738281 113.617188 C 146.550781 114.109375 146.648438 114.546875 147.363281 114.597656 C 153.941406 115.054688 160.34375 116.582031 166.808594 117.761719 C 173.773438 119.027344 180.742188 120.257812 187.707031 121.507812 C 189.921875 121.914062 192.113281 122.429688 194.308594 122.902344 C 194.523438 122.96875 194.730469 123.050781 194.929688 123.148438 L 194.847656 123.441406 C 193.722656 123.253906 192.59375 123.074219 191.46875 122.878906 C 182.949219 121.425781 174.441406 119.925781 165.929688 118.53125 C 162.519531 117.976562 159.078125 117.664062 155.65625 117.25 C 154.921875 117.117188 154.179688 117.449219 153.792969 118.082031 C 153.214844 118.996094 152.6875 119.933594 152.078125 120.960938 C 161.785156 124.535156 171.210938 128.582031 179.992188 133.996094 C 172.304688 130.085938 164.417969 126.585938 156.359375 123.5 L 156.203125 123.792969 L 185.496094 141.121094 C 185.347656 141.871094 184.972656 141.503906 184.671875 141.332031 C 182.15625 139.871094 179.644531 138.394531 177.160156 136.933594 L 149.625 120.871094 L 149.164062 120.5625 C 149.375 120.535156 149.589844 120.535156 149.804688 120.5625 C 150.945312 120.96875 151.628906 120.5625 152.132812 119.476562 C 152.5625 118.683594 153.042969 117.914062 153.566406 117.175781 C 149.511719 115.8125 145.4375 116.132812 141.113281 116.425781 L 142.5625 117.304688 L 142.480469 117.558594 L 135.90625 116.582031 C 139.851562 117.96875 143.9375 118.886719 147.925781 120.144531 L 147.828125 120.527344 L 146.671875 120.277344 C 142.074219 119.257812 137.476562 118.21875 132.875 117.234375 C 132.246094 117.195312 131.617188 117.238281 131.003906 117.363281 L 131.003906 117.671875 L 143.238281 123.21875 L 143.148438 123.578125 C 142.84375 123.535156 142.546875 123.464844 142.253906 123.367188 L 128.871094 117.617188 C 128.585938 117.5 128.292969 117.410156 128 117.304688 L 127.847656 117.503906 C 128.128906 117.902344 128.433594 118.285156 128.757812 118.652344 C 133.476562 123.527344 137.683594 128.867188 141.316406 134.59375 C 142.441406 136.355469 144.125 137.773438 145.558594 139.347656 C 146.378906 140.253906 147.308594 141.070312 147.527344 142.390625 C 147.566406 142.621094 147.972656 142.800781 148.21875 142.988281 C 149.003906 143.460938 149.738281 144.011719 150.410156 144.628906 C 154.113281 148.796875 157.773438 153.015625 161.421875 157.238281 C 161.796875 157.703125 162.117188 158.203125 162.386719 158.734375 C 162.476562 158.90625 162.386719 159.171875 162.386719 159.394531 C 162.167969 159.304688 161.875 159.269531 161.730469 159.109375 C 160.003906 157.152344 158.34375 155.136719 156.570312 153.21875 C 154.796875 151.300781 153.0625 149.621094 151.3125 147.824219 C 146.703125 143.101562 142.082031 138.394531 137.492188 133.648438 C 135.496094 131.574219 133.585938 129.414062 131.597656 127.339844 C 131.28125 127.058594 130.859375 126.921875 130.4375 126.964844 C 128.554688 127.316406 126.429688 129.519531 126.390625 131.425781 C 126.414062 133.003906 127.027344 134.515625 128.109375 135.667969 C 128.757812 136.414062 129.523438 137.039062 130.304688 137.78125 C 129.597656 138.632812 129.335938 137.660156 128.800781 137.613281 C 128.9375 137.96875 129.066406 138.363281 129.207031 138.671875 C 132.476562 146.492188 135.730469 154.308594 138.972656 162.125 C 139.046875 162.25 139.101562 162.390625 139.136719 162.535156 C 139.136719 162.695312 139.117188 162.859375 139.078125 163.015625 C 138.90625 162.957031 138.640625 162.957031 138.566406 162.835938 C 138.058594 162.101562 137.613281 161.324219 137.238281 160.511719 C 134.847656 154.695312 132.542969 148.851562 130.140625 143.042969 C 129.484375 141.53125 128.71875 140.078125 127.839844 138.6875 C 127.53125 138.277344 127.035156 138.058594 126.523438 138.097656 C 126.011719 138.140625 125.558594 138.4375 125.316406 138.890625 C 125.261719 139.113281 125.285156 139.347656 125.382812 139.554688 C 125.820312 140.800781 126.277344 142.035156 126.722656 143.304688 C 126.757812 143.457031 126.78125 143.613281 126.789062 143.769531 C 125 142.769531 123.363281 138.792969 123.828125 136.558594 L 124.707031 137.515625 C 124.789062 137.515625 124.820312 137.515625 124.851562 137.515625 C 127.105469 136.769531 127.222656 136.535156 126.351562 134.324219 C 126.046875 133.574219 125.730469 132.824219 125.40625 132.074219 C 125.253906 131.679688 124.929688 131.371094 124.523438 131.242188 C 124.117188 131.109375 123.675781 131.167969 123.320312 131.402344 C 123.246094 131.453125 123.175781 131.507812 123.109375 131.566406 C 120.3125 133.613281 120.277344 133.738281 121.15625 137.097656 C 122.539062 142.363281 123.910156 147.636719 125.273438 152.910156 C 125.335938 153.082031 125.371094 153.257812 125.375 153.4375 C 125.339844 153.613281 125.28125 153.78125 125.195312 153.9375 C 125.054688 153.828125 124.835938 153.742188 124.789062 153.601562 C 124.378906 152.289062 123.917969 150.992188 123.605469 149.652344 C 123.242188 148.109375 122.636719 146.894531 120.863281 146.652344 C 120.636719 146.652344 120.433594 146.285156 120.277344 146.0625 C 120.082031 145.761719 119.90625 145.449219 119.742188 145.132812 C 119.960938 145.027344 120.191406 144.949219 120.425781 144.890625 C 121.769531 144.636719 122.019531 144.226562 121.628906 142.898438 C 120.8125 140.523438 120.128906 138.105469 119.578125 135.660156 C 119.023438 132.609375 117.324219 129.984375 116.574219 127.039062 C 116.378906 126.289062 115.824219 126.183594 115.160156 126.289062 C 114.5 126.394531 114.003906 126.378906 113.90625 127.308594 C 113.523438 131.058594 113.019531 134.746094 112.554688 138.460938 C 112.554688 138.710938 112.464844 138.949219 112.414062 139.210938 Z M 70.378906 139.21875 C 72.136719 140.605469 73.789062 141.933594 75.472656 143.214844 C 75.71875 143.445312 76.054688 143.5625 76.394531 143.535156 C 76.734375 143.503906 77.046875 143.335938 77.253906 143.0625 C 79.296875 140.636719 81.316406 138.183594 83.328125 135.734375 C 83.742188 135.320312 83.742188 134.648438 83.328125 134.234375 C 82.578125 133.359375 80.664062 132.886719 79.679688 133.484375 C 76.621094 135.359375 73.601562 137.253906 70.378906 139.25 Z M 125.308594 128.777344 C 126.015625 128.117188 126.683594 127.527344 127.320312 126.90625 C 128.050781 126.292969 128.457031 125.382812 128.417969 124.433594 C 128.378906 123.484375 127.902344 122.605469 127.128906 122.054688 C 125.929688 121.03125 124.40625 120.476562 122.832031 120.488281 C 122.46875 120.488281 122.078125 120.429688 121.660156 120.390625 L 121.222656 121.214844 C 122.15625 121.214844 122.929688 121.214844 123.710938 121.214844 C 123.949219 121.214844 124.308594 121.304688 124.398438 121.46875 C 124.789062 122.183594 125.152344 122.96875 125.535156 123.863281 C 124.378906 123.203125 123.90625 121.5 122.28125 122.363281 C 123.65625 127.347656 123.898438 127.863281 125.308594 128.808594 Z M 120.871094 131.625 C 122.90625 130.914062 123.632812 129.609375 122.839844 128.015625 C 122.175781 126.574219 121.808594 125.015625 121.757812 123.433594 C 121.757812 123.128906 121.671875 122.828125 121.628906 122.488281 C 119.601562 123.238281 119.261719 123.792969 119.503906 125.742188 C 119.625 126.722656 119.683594 127.707031 119.78125 128.6875 C 119.808594 128.785156 119.847656 128.878906 119.902344 128.964844 L 120.398438 128.425781 C 121.289062 129.378906 121.34375 129.714844 120.871094 131.65625 Z M 133.722656 106.496094 C 133.476562 105.4375 133.175781 104.390625 132.820312 103.363281 C 132.554688 103.007812 132.148438 102.789062 131.707031 102.761719 C 131.28125 102.8125 130.867188 102.945312 130.492188 103.160156 L 130.769531 104.042969 C 129.847656 104.367188 128.96875 104.660156 128.101562 104.988281 C 127.917969 105.101562 127.765625 105.261719 127.667969 105.453125 C 127.667969 105.453125 127.855469 105.722656 128 105.785156 C 129.804688 106.542969 131.78125 106.800781 133.722656 106.527344 Z M 117.023438 121.335938 C 117.265625 120.660156 117.828125 119.835938 117.65625 119.335938 C 117.453125 118.683594 116.605469 118.242188 115.925781 117.617188 C 115.035156 120.316406 115.5625 123.28125 117.324219 125.511719 L 117.835938 121.367188 Z M 126.242188 110.949219 L 128.320312 111.847656 C 129.28125 110.769531 129.214844 110.484375 127.613281 108.894531 Z M 97.082031 120.667969 L 97.238281 120.863281 C 98.539062 119.941406 99.851562 119.035156 101.117188 118.058594 C 101.316406 117.902344 101.25 117.402344 101.3125 117.0625 L 101.039062 116.980469 C 99.589844 118.066406 97.953125 118.960938 97.082031 120.667969 Z M 127.539062 101.007812 C 127.066406 100.101562 126.039062 99.765625 126.25 98.625 C 126.25 98.625 125.667969 98.320312 125.496094 98.410156 C 125.113281 98.601562 124.871094 98.996094 124.871094 99.425781 C 124.871094 99.851562 125.113281 100.246094 125.496094 100.441406 C 126.164062 100.679688 126.84375 100.867188 127.539062 101 Z M 123.648438 107.605469 L 123.828125 107.988281 L 126.742188 107.082031 L 126.054688 105.695312 Z M 114.074219 125.40625 C 115.941406 124.796875 116.019531 124.304688 114.546875 122.566406 Z M 105.808594 98.789062 L 106.035156 98.609375 C 105.195312 97.457031 104.367188 96.296875 103.503906 95.164062 C 103.429688 95.066406 103.089844 95.164062 102.878906 95.164062 C 102.914062 95.351562 102.980469 95.53125 103.074219 95.695312 C 103.871094 96.65625 104.683594 97.597656 105.503906 98.542969 C 105.589844 98.632812 105.691406 98.714844 105.796875 98.785156 Z M 86.144531 130.839844 C 87.355469 131.386719 87.796875 130.300781 88.488281 129.730469 Z M 86.144531 130.839844 "/>
<path style=" stroke:none;fill-rule:nonzero;fill:rgb(0%,0%,0%);fill-opacity:1;" d="M 25.621094 161.335938 L 65.082031 140.15625 C 65.625 141.378906 65.503906 141.804688 64.496094 142.480469 L 49.476562 152.640625 L 48.898438 153.03125 L 48.320312 152.351562 L 58.347656 145.898438 L 58.21875 145.671875 L 25.824219 161.734375 Z M 25.621094 161.335938 "/>
<path style=" stroke:none;fill-rule:nonzero;fill:rgb(0%,0%,0%);fill-opacity:1;" d="M 83.457031 102.914062 C 83.871094 105.160156 84.273438 107.410156 84.6875 109.660156 C 86.0625 109.71875 87.398438 109.296875 88.707031 109.53125 L 88.707031 109.929688 L 75.652344 111.136719 C 76.539062 113.308594 77.078125 115.46875 78.527344 117.28125 C 79.46875 118.558594 80.273438 119.929688 80.933594 121.375 C 81.605469 122.738281 82.199219 124.140625 82.71875 125.570312 C 82.917969 126.246094 83.058594 126.933594 83.140625 127.632812 L 82.804688 127.789062 C 82.59375 127.453125 82.359375 127.128906 82.179688 126.785156 C 79.921875 122.558594 77.667969 118.332031 75.417969 114.101562 C 75.105469 113.527344 74.742188 112.972656 74.449219 112.378906 C 74.097656 111.589844 73.285156 111.105469 72.421875 111.171875 C 71.101562 111.171875 69.777344 111.171875 68.464844 111.171875 C 68.25 111.136719 68.046875 111.066406 67.855469 110.960938 C 68.042969 110.820312 68.214844 110.574219 68.417969 110.550781 C 69.695312 110.4375 70.980469 110.296875 72.265625 110.304688 C 74.519531 110.304688 76.832031 110.414062 78.980469 109.410156 C 79.242188 109.292969 79.640625 109.457031 79.972656 109.484375 C 80.832031 109.605469 81.699219 109.664062 82.570312 109.667969 C 82.71875 109.667969 82.96875 108.917969 82.953125 108.527344 C 82.902344 107.183594 82.691406 105.84375 82.667969 104.503906 C 82.75 103.925781 82.917969 103.363281 83.164062 102.839844 Z M 83.457031 102.914062 "/>
<path style=" stroke:none;fill-rule:nonzero;fill:rgb(0%,0%,0%);fill-opacity:1;" d="M 158.125 61.742188 L 156.894531 62.296875 C 154.867188 59.136719 152.898438 56.039062 150.886719 52.960938 C 150.035156 51.769531 149.953125 50.195312 150.675781 48.925781 C 151.515625 47.25 152.042969 45.410156 152.734375 43.679688 C 152.9375 43.269531 153.175781 42.871094 153.4375 42.496094 L 153.6875 42.617188 L 151.875 48.964844 L 152.027344 49.015625 C 152.65625 47.734375 153.28125 46.445312 153.925781 45.164062 C 156.105469 40.800781 158.292969 36.441406 160.484375 32.078125 C 160.695312 31.652344 160.875 31.246094 161.550781 31.53125 L 159.859375 34.988281 C 157.488281 39.753906 155.136719 44.535156 152.726562 49.285156 C 151.972656 50.550781 152.042969 52.140625 152.90625 53.335938 C 154.40625 55.65625 155.910156 58.035156 157.375 60.394531 C 157.621094 60.800781 157.832031 61.21875 158.125 61.742188 Z M 158.125 61.742188 "/>
<path style=" stroke:none;fill-rule:nonzero;fill:rgb(0%,0%,0%);fill-opacity:1;" d="M 209.414062 32.511719 C 209.683594 33.261719 209.410156 34.097656 208.753906 34.542969 C 205.152344 37.894531 201.253906 40.902344 197.101562 43.539062 C 192.4375 46.625 187.929688 49.847656 183.28125 53.050781 L 181.921875 51.949219 C 184.6875 50.199219 187.367188 48.507812 190.042969 46.796875 C 193.550781 44.550781 197.125 42.40625 200.511719 40 C 203.011719 38.214844 205.265625 36.082031 207.625 34.09375 C 208.210938 33.601562 208.765625 33.082031 209.414062 32.511719 Z M 209.414062 32.511719 "/>
<path style=" stroke:none;fill-rule:nonzero;fill:rgb(0%,0%,0%);fill-opacity:1;" d="M 177.976562 177.089844 L 177.601562 178.183594 L 176.714844 177.128906 L 164.21875 162.265625 C 164.042969 162.097656 163.894531 161.910156 163.765625 161.703125 C 163.699219 161.527344 163.699219 161.332031 163.765625 161.15625 C 163.804688 161.074219 164.105469 161.015625 164.21875 161.074219 C 164.660156 161.242188 165.066406 161.496094 165.410156 161.824219 C 171.421875 169.101562 177.941406 175.867188 184.339844 182.765625 C 184.597656 183.140625 184.800781 183.550781 184.933594 183.984375 C 184.550781 183.792969 184.195312 183.554688 183.867188 183.28125 C 182.101562 181.4375 180.375 179.570312 178.609375 177.710938 C 178.445312 177.519531 178.265625 177.359375 177.976562 177.089844 Z M 177.976562 177.089844 "/>
<path style=" stroke:none;fill-rule:nonzero;fill:rgb(0%,0%,0%);fill-opacity:1;" d="M 95.542969 203 L 97.796875 184.347656 C 98.125 181.636719 98.457031 178.933594 98.792969 176.234375 C 98.792969 176.027344 98.824219 175.820312 98.878906 175.621094 C 98.945312 175.472656 99.132812 175.367188 99.269531 175.246094 C 99.359375 175.402344 99.53125 175.578125 99.523438 175.71875 C 99.402344 176.96875 99.261719 178.222656 99.109375 179.464844 C 98.234375 187.234375 97.308594 195.019531 96.339844 202.8125 C 96.246094 203.105469 96.105469 203.382812 95.925781 203.628906 Z M 95.542969 203 "/>
<path style=" stroke:none;fill-rule:nonzero;fill:rgb(0%,0%,0%);fill-opacity:1;" d="M 146.664062 179.324219 C 145.738281 179.320312 144.925781 178.710938 144.664062 177.824219 C 143.863281 175.957031 143.125 174.078125 142.261719 172.21875 C 141.675781 170.980469 140.917969 169.828125 140.242188 168.636719 L 138.738281 165.992188 C 138.46875 165.511719 138.589844 165.023438 139.054688 164.875 C 139.4375 164.847656 139.804688 165.011719 140.039062 165.316406 C 141.496094 168.132812 142.929688 170.960938 144.289062 173.816406 C 145.117188 175.578125 145.867188 177.414062 146.664062 179.324219 Z M 146.664062 179.324219 "/>
<path style=" stroke:none;fill-rule:nonzero;fill:rgb(0%,0%,0%);fill-opacity:1;" d="M 28.84375 68.015625 L 35.203125 71.074219 L 47.921875 77.199219 C 48.035156 77.238281 48.140625 77.296875 48.234375 77.371094 C 48.40625 77.558594 48.566406 77.757812 48.714844 77.960938 C 48.464844 77.976562 48.210938 77.957031 47.964844 77.894531 C 45.328125 76.75 42.707031 75.570312 40.078125 74.410156 C 36.347656 72.863281 32.785156 70.941406 29.441406 68.675781 C 29.21875 68.511719 29 68.332031 28.773438 68.160156 Z M 28.84375 68.015625 "/>
<path style=" stroke:none;fill-rule:nonzero;fill:rgb(0%,0%,0%);fill-opacity:1;" d="M 160.140625 91.273438 C 159.402344 91.773438 158.632812 92.226562 157.839844 92.628906 C 153.289062 94.625 148.722656 96.574219 144.148438 98.511719 C 143.730469 98.671875 143.292969 98.769531 142.847656 98.796875 C 142.667969 98.796875 142.464844 98.648438 142.269531 98.566406 C 142.417969 98.386719 142.53125 98.117188 142.726562 98.042969 C 144.28125 97.417969 145.859375 96.855469 147.414062 96.226562 C 151.382812 94.625 155.332031 92.988281 159.289062 91.363281 L 160.042969 91.070312 Z M 160.140625 91.273438 "/>
<path style=" stroke:none;fill-rule:nonzero;fill:rgb(0%,0%,0%);fill-opacity:1;" d="M 93.234375 113.535156 C 91.929688 113.726562 91.839844 114.589844 91.914062 115.601562 C 91.925781 116.210938 91.902344 116.824219 91.839844 117.429688 L 91.492188 117.429688 L 90.808594 112.746094 L 81.644531 114.785156 L 81.554688 114.574219 C 81.707031 114.46875 81.832031 114.3125 81.992188 114.269531 C 84.78125 113.457031 87.574219 112.660156 90.367188 111.878906 C 91.015625 111.671875 91.722656 111.925781 92.085938 112.5 C 92.4375 112.878906 92.820312 113.226562 93.234375 113.535156 Z M 93.234375 113.535156 "/>
<path style=" stroke:none;fill-rule:nonzero;fill:rgb(0%,0%,0%);fill-opacity:1;" d="M 209.429688 125.433594 L 202.839844 124.484375 L 202.765625 124.8125 L 209.765625 126.550781 C 208.730469 127 198.898438 124.445312 197.386719 123.464844 C 198.890625 123.585938 200.242188 123.660156 201.585938 123.792969 C 203.96875 124.035156 206.355469 124.304688 208.738281 124.582031 C 209.144531 124.632812 209.714844 124.617188 209.429688 125.433594 Z M 209.429688 125.433594 "/>
<path style=" stroke:none;fill-rule:nonzero;fill:rgb(0%,0%,0%);fill-opacity:1;" d="M 124.835938 155.535156 C 125.445312 155.128906 125.664062 155.289062 125.8125 155.894531 C 127.066406 161.007812 128.359375 166.109375 129.628906 171.222656 C 129.648438 171.472656 129.628906 171.726562 129.566406 171.972656 L 129.230469 171.972656 Z M 124.835938 155.535156 "/>
<path style=" stroke:none;fill-rule:nonzero;fill:rgb(0%,0%,0%);fill-opacity:1;" d="M 103.1875 132.261719 C 102.226562 134.597656 101.261719 136.925781 100.289062 139.25 L 99.945312 139.195312 C 99.945312 138.445312 100.027344 137.695312 100.070312 136.84375 L 91.472656 137.675781 L 91.378906 137.398438 C 91.546875 137.269531 91.734375 137.171875 91.9375 137.105469 C 93.867188 136.851562 95.796875 136.582031 97.726562 136.355469 C 99.792969 136.136719 101.402344 135.367188 102.152344 133.273438 C 102.378906 132.832031 102.667969 132.425781 103.007812 132.0625 Z M 103.1875 132.261719 "/>
<path style=" stroke:none;fill-rule:nonzero;fill:rgb(0%,0%,0%);fill-opacity:1;" d="M 161.332031 93.140625 C 161.0625 92.253906 160.851562 91.574219 160.640625 90.890625 C 163.277344 89.113281 175.550781 84.894531 176.574219 85.53125 L 175.273438 85.980469 C 171.519531 87.242188 167.761719 88.546875 164.007812 89.730469 C 162.816406 90.039062 161.902344 90.988281 161.640625 92.1875 C 161.597656 92.414062 161.5 92.660156 161.332031 93.140625 Z M 161.332031 93.140625 "/>
<path style=" stroke:none;fill-rule:nonzero;fill:rgb(0%,0%,0%);fill-opacity:1;" d="M 197.695312 85.742188 C 197.460938 85.898438 197.253906 86.148438 196.996094 86.199219 C 193.046875 86.949219 189.09375 87.644531 185.144531 88.371094 L 181.785156 88.996094 C 181.507812 89.046875 181.214844 89.046875 180.929688 89.078125 L 180.839844 88.761719 C 181.105469 88.640625 181.378906 88.539062 181.660156 88.460938 C 185.925781 87.636719 190.195312 86.824219 194.464844 86.019531 L 197.53125 85.449219 Z M 197.695312 85.742188 "/>
<path style=" stroke:none;fill-rule:nonzero;fill:rgb(0%,0%,0%);fill-opacity:1;" d="M 209.480469 83.742188 L 209.480469 84.761719 L 199.402344 86.003906 L 199.296875 85.613281 C 200.023438 85.296875 200.777344 85.046875 201.546875 84.867188 C 204.148438 84.421875 206.761719 84.109375 209.480469 83.742188 Z M 209.480469 83.742188 "/>
<path style=" stroke:none;fill-rule:nonzero;fill:rgb(0%,0%,0%);fill-opacity:1;" d="M 56.296875 51.378906 C 57.992188 51.066406 59.550781 50.234375 60.75 48.996094 C 60.308594 50.050781 59.886719 51.121094 59.414062 52.171875 C 59.011719 52.902344 59.117188 53.804688 59.675781 54.421875 C 60.117188 55.042969 60.523438 55.691406 60.886719 56.363281 L 60.683594 56.511719 L 56.3125 51.371094 Z M 56.296875 51.378906 "/>
<path style=" stroke:none;fill-rule:nonzero;fill:rgb(0%,0%,0%);fill-opacity:1;" d="M 119.023438 83.441406 C 118.855469 82.765625 118.753906 82.078125 118.714844 81.386719 C 118.804688 78.703125 118.960938 76.015625 119.097656 73.332031 C 119.097656 72.886719 119.164062 72.4375 119.945312 72.753906 C 119.253906 76.253906 120.148438 79.882812 119.332031 83.410156 Z M 119.023438 83.441406 "/>
<path style=" stroke:none;fill-rule:nonzero;fill:rgb(0%,0%,0%);fill-opacity:1;" d="M 151.695312 191.445312 L 146.4375 180.375 L 147.105469 180.082031 C 148.796875 183.695312 150.480469 187.261719 152.140625 190.84375 C 152.214844 191.007812 152.042969 191.269531 151.988281 191.488281 Z M 151.695312 191.445312 "/>
<path style=" stroke:none;fill-rule:nonzero;fill:rgb(0%,0%,0%);fill-opacity:1;" d="M 136.359375 51.671875 L 140.347656 38.644531 C 141.023438 39.941406 138.28125 48.835938 136.359375 51.671875 Z M 136.359375 51.671875 "/>
<path style=" stroke:none;fill-rule:nonzero;fill:rgb(0%,0%,0%);fill-opacity:1;" d="M 81.421875 79.84375 C 80.3125 79.046875 79.273438 78.164062 78.3125 77.199219 C 77.867188 76.6875 77.949219 75.699219 77.777344 74.859375 C 80.105469 75.511719 81.832031 77.949219 81.421875 79.84375 Z M 81.421875 79.84375 "/>
<path style=" stroke:none;fill-rule:nonzero;fill:rgb(0%,0%,0%);fill-opacity:1;" d="M 196.464844 194.117188 L 195.441406 195.378906 L 190.46875 190.132812 L 190.574219 189.90625 C 190.785156 189.925781 190.992188 189.984375 191.183594 190.078125 C 192.886719 191.375 194.625 192.710938 196.464844 194.117188 Z M 196.464844 194.117188 "/>
<path style=" stroke:none;fill-rule:nonzero;fill:rgb(0%,0%,0%);fill-opacity:1;" d="M 119.308594 67.253906 C 119.429688 65.84375 119.511719 64.425781 119.667969 63.015625 C 119.824219 61.609375 120.058594 60.183594 120.292969 58.476562 C 120.515625 58.804688 120.78125 59.015625 120.757812 59.226562 C 120.507812 61.78125 120.230469 64.335938 119.9375 66.886719 C 119.894531 67.054688 119.820312 67.210938 119.722656 67.355469 Z M 119.308594 67.253906 "/>
<path style=" stroke:none;fill-rule:nonzero;fill:rgb(0%,0%,0%);fill-opacity:1;" d="M 119.636719 146.480469 L 114.867188 147.320312 C 115.824219 146.339844 116.800781 145.378906 118.171875 145.070312 C 119.074219 144.914062 119.359375 145.671875 119.636719 146.480469 Z M 119.636719 146.480469 "/>
<path style=" stroke:none;fill-rule:nonzero;fill:rgb(0%,0%,0%);fill-opacity:1;" d="M 203.109375 203.757812 C 201.203125 201.699219 199.304688 199.632812 197.410156 197.558594 C 197.28125 197.410156 197.28125 197.140625 197.222656 196.929688 L 197.484375 196.800781 C 197.988281 197.335938 198.492188 197.867188 198.988281 198.40625 C 200.363281 199.90625 201.738281 201.402344 203.089844 202.902344 C 203.242188 203.121094 203.367188 203.359375 203.457031 203.609375 Z M 203.109375 203.757812 "/>
<path style=" stroke:none;fill-rule:nonzero;fill:rgb(0%,0%,0%);fill-opacity:1;" d="M 58.367188 50.066406 C 58.367188 49.886719 58.367188 49.660156 58.464844 49.542969 C 60.34375 47.40625 62.230469 45.277344 64.128906 43.148438 C 64.203125 43.066406 64.371094 43.058594 64.609375 43.148438 C 62.726562 45.585938 60.722656 47.929688 58.601562 50.164062 Z M 58.367188 50.066406 "/>
<path style=" stroke:none;fill-rule:nonzero;fill:rgb(0%,0%,0%);fill-opacity:1;" d="M 157.441406 203.699219 C 157.253906 203.570312 156.992188 203.480469 156.910156 203.308594 C 156.03125 201.417969 155.175781 199.515625 154.339844 197.597656 C 154.273438 197.453125 154.40625 197.222656 154.445312 197.027344 C 154.601562 197.117188 154.859375 197.160156 154.910156 197.289062 C 155.835938 199.351562 156.730469 201.425781 157.628906 203.496094 Z M 157.441406 203.699219 "/>
<path style=" stroke:none;fill-rule:nonzero;fill:rgb(0%,0%,0%);fill-opacity:1;" d="M 121.148438 48.550781 C 121.257812 48.75 121.328125 48.964844 121.359375 49.1875 C 121.261719 51.308594 121.140625 53.429688 121.003906 55.785156 C 120.726562 55.507812 120.441406 55.351562 120.449219 55.214844 C 120.5625 53.011719 120.710938 50.808594 120.855469 48.605469 Z M 121.148438 48.550781 "/>
<path style=" stroke:none;fill-rule:nonzero;fill:rgb(0%,0%,0%);fill-opacity:1;" d="M 94.789062 31.367188 C 94.964844 31.570312 95.234375 31.757812 95.292969 31.988281 C 95.714844 33.578125 96.097656 35.171875 96.546875 37.011719 C 96.21875 36.84375 95.878906 36.792969 95.84375 36.648438 C 95.371094 34.957031 94.949219 33.253906 94.503906 31.554688 Z M 94.789062 31.367188 "/>
<path style=" stroke:none;fill-rule:nonzero;fill:rgb(0%,0%,0%);fill-opacity:1;" d="M 97 112.363281 C 96.007812 112.320312 95.566406 111.9375 95.730469 110.867188 C 95.789062 110.445312 95.445312 109.964844 95.292969 109.539062 C 96.667969 109.425781 97.417969 110.496094 97 112.363281 Z M 97 112.363281 "/>
<path style=" stroke:none;fill-rule:nonzero;fill:rgb(0%,0%,0%);fill-opacity:1;" d="M 203.367188 199.898438 L 207.835938 203.359375 L 207.835938 203.652344 C 207.617188 203.652344 207.332031 203.742188 207.191406 203.652344 C 205.882812 202.65625 204.582031 201.628906 203.304688 200.585938 C 203.179688 200.480469 203.179688 200.210938 203.117188 200.023438 Z M 203.367188 199.898438 "/>
<path style=" stroke:none;fill-rule:nonzero;fill:rgb(0%,0%,0%);fill-opacity:1;" d="M 56.3125 51.347656 L 52.035156 47.519531 L 52.035156 47.253906 C 52.261719 47.253906 52.5625 47.195312 52.707031 47.316406 C 53.757812 48.207031 54.808594 49.105469 55.777344 50.082031 C 56.070312 50.382812 56.109375 50.9375 56.265625 51.371094 Z M 56.3125 51.347656 "/>
<path style=" stroke:none;fill-rule:nonzero;fill:rgb(0%,0%,0%);fill-opacity:1;" d="M 20.1875 164.085938 C 20.292969 163.929688 20.371094 163.710938 20.519531 163.628906 C 21.554688 163.097656 22.609375 162.585938 23.660156 162.128906 C 23.800781 162.0625 24.011719 162.128906 24.191406 162.128906 C 24.117188 162.296875 24.09375 162.550781 23.972656 162.609375 C 22.796875 163.1875 21.601562 163.726562 20.414062 164.28125 Z M 20.1875 164.085938 "/>
<path style=" stroke:none;fill-rule:nonzero;fill:rgb(0%,0%,0%);fill-opacity:1;" d="M 100.664062 168.996094 C 100.3125 170.683594 99.957031 172.359375 99.582031 174.039062 C 99.582031 174.109375 99.296875 174.113281 98.980469 174.183594 C 99.457031 172.339844 99.882812 170.628906 100.320312 168.9375 Z M 100.664062 168.996094 "/>
<path style=" stroke:none;fill-rule:nonzero;fill:rgb(0%,0%,0%);fill-opacity:1;" d="M 136.660156 104.457031 L 137.84375 102.957031 C 137.84375 104.335938 137.84375 104.40625 139.707031 105.109375 C 139.296875 105.679688 138.429688 105.5 136.660156 104.457031 Z M 136.660156 104.457031 "/>
<path style=" stroke:none;fill-rule:nonzero;fill:rgb(0%,0%,0%);fill-opacity:1;" d="M 84.125 82.085938 C 83.546875 81.648438 82.960938 81.238281 82.417969 80.765625 C 82.351562 80.714844 82.53125 80.203125 82.601562 80.203125 C 83.019531 80.203125 83.589844 80.144531 83.816406 80.375 C 84.097656 80.816406 84.300781 81.300781 84.417969 81.808594 Z M 84.125 82.085938 "/>
<path style=" stroke:none;fill-rule:nonzero;fill:rgb(0%,0%,0%);fill-opacity:1;" d="M 94.46875 203.90625 C 94.210938 203.578125 93.988281 203.414062 94.015625 203.308594 C 94.371094 201.914062 94.769531 200.535156 95.128906 199.148438 L 95.511719 199.238281 C 95.179688 200.707031 94.851562 202.183594 94.46875 203.90625 Z M 94.46875 203.90625 "/>
<path style=" stroke:none;fill-rule:nonzero;fill:rgb(0%,0%,0%);fill-opacity:1;" d="M 142.496094 31.5625 C 142.277344 32.453125 142.066406 33.34375 141.828125 34.230469 C 141.789062 34.355469 141.554688 34.4375 141.421875 34.542969 C 141.347656 34.394531 141.203125 34.238281 141.226562 34.117188 C 141.390625 33.300781 141.578125 32.492188 141.804688 31.6875 C 141.847656 31.546875 142.132812 31.480469 142.316406 31.382812 Z M 142.496094 31.5625 "/>
<path style=" stroke:none;fill-rule:nonzero;fill:rgb(0%,0%,0%);fill-opacity:1;" d="M 189.269531 188.871094 L 186.164062 185.539062 C 187.417969 186.429688 188.5625 187.457031 189.582031 188.601562 Z M 189.269531 188.871094 "/>
<path style=" stroke:none;fill-rule:nonzero;fill:rgb(0%,0%,0%);fill-opacity:1;" d="M 36.136719 31.578125 C 37.027344 31.433594 37.140625 31.523438 38.953125 34.066406 Z M 36.136719 31.578125 "/>
</g>
</svg>
