<?xml version="1.0" encoding="UTF-8"?>
<svg xmlns="http://www.w3.org/2000/svg" xmlns:xlink="http://www.w3.org/1999/xlink" width="px" height="px" viewBox="0 0 230 267" version="1.1">
<g id="surface1">
<path style=" stroke:none;fill-rule:nonzero;fill:rgb(100%,0%,0.784314%);fill-opacity:1;" d="M 147.527344 142.671875 C 148.398438 143.136719 149.253906 143.339844 149.742188 143.886719 C 152.703125 147.179688 155.585938 150.550781 158.492188 153.894531 C 159.671875 155.257812 160.882812 156.59375 162.03125 157.984375 C 162.265625 158.378906 162.4375 158.808594 162.542969 159.253906 L 162.09375 159.484375 C 160.589844 157.8125 159.125 156.148438 157.667969 154.464844 C 156.644531 153.277344 155.753906 151.976562 154.664062 150.867188 C 153.109375 149.292969 151.367188 147.914062 149.820312 146.367188 C 145.367188 141.828125 140.945312 137.253906 136.554688 132.652344 C 134.699219 130.71875 132.917969 128.726562 131.167969 126.820312 C 128.464844 127.023438 127.230469 128.882812 126.382812 131.09375 C 126.261719 131.554688 126.292969 132.039062 126.464844 132.480469 C 126.734375 133.277344 127.046875 134.054688 127.398438 134.820312 C 127.519531 135.082031 127.6875 135.324219 127.894531 135.53125 C 128.644531 136.324219 129.441406 137.089844 130.214844 137.871094 L 129.777344 138.28125 L 128.589844 137.21875 L 139.28125 162.859375 L 138.820312 163.121094 C 138.300781 162.4375 137.84375 161.707031 137.453125 160.9375 C 135.253906 155.550781 133.128906 150.132812 130.925781 144.742188 C 130.214844 142.792969 129.320312 140.910156 128.261719 139.121094 C 127.21875 137.515625 126.871094 137.621094 125.152344 138.902344 L 126.886719 143.746094 C 125.257812 143.25 123.257812 138.304688 123.820312 136.421875 L 124.730469 137.585938 C 125.453125 137.324219 126.144531 136.984375 126.789062 136.574219 C 127.007812 136.40625 126.902344 135.644531 126.742188 135.222656 C 126.226562 133.835938 125.617188 132.480469 125.078125 131.207031 L 123.445312 131.207031 C 122.972656 131.574219 122.449219 131.992188 121.945312 132.382812 C 120.910156 132.964844 120.394531 134.167969 120.691406 135.3125 C 121.953125 140.148438 123.25 144.980469 124.519531 149.816406 C 124.867188 151.136719 125.167969 152.460938 125.488281 153.789062 L 124.964844 153.960938 C 124.46875 152.722656 124.0625 151.449219 123.753906 150.152344 C 123.429688 148.296875 122.957031 146.765625 120.710938 146.585938 C 120.515625 146.585938 120.359375 146.046875 120.1875 145.753906 L 120.605469 145.605469 L 119.519531 145.253906 C 119.894531 145.050781 120.042969 144.898438 120.203125 144.890625 C 121.574219 144.808594 122.207031 144.367188 121.703125 142.800781 C 120.871094 140.359375 120.203125 137.847656 119.527344 135.359375 C 119.398438 134.902344 119.527344 134.371094 119.335938 133.933594 C 118.8125 132.519531 118.203125 131.132812 117.640625 129.730469 C 117.414062 129.175781 117.175781 128.621094 117 128.042969 C 116.414062 126.035156 116.421875 126.035156 114.085938 126.542969 C 113.578125 130.703125 113.058594 134.953125 112.546875 139.195312 L 112.269531 139.261719 C 112.035156 136.46875 111.640625 133.671875 111.652344 130.882812 C 111.652344 129.746094 112.628906 128.636719 113.011719 127.472656 C 113.238281 126.675781 113.339844 125.84375 113.3125 125.015625 C 113.3125 124.828125 112.789062 124.632812 112.808594 124.648438 C 112.691406 122.796875 112.585938 121.089844 112.441406 118.960938 C 111.835938 119.835938 111.445312 120.363281 111.097656 120.910156 C 108.535156 124.984375 105.921875 128.996094 105.140625 133.925781 C 104.871094 135.6875 103.789062 137.328125 103.066406 139.023438 L 102.691406 138.890625 C 103.390625 136.175781 104.082031 133.460938 104.734375 130.914062 L 104.164062 131.304688 L 103.960938 131.152344 L 112.066406 118.023438 L 110.566406 115.96875 L 108.3125 120.894531 L 108.3125 119.214844 L 100.558594 126.320312 L 100.386719 126.140625 C 101.84375 124.492188 103.195312 122.746094 104.796875 121.246094 C 105.996094 120.113281 106.757812 119.066406 105.742188 117.070312 C 103.863281 118.765625 102.144531 120.691406 100.054688 122.0625 C 98.628906 123 98.109375 124.386719 97.125 125.496094 C 95.167969 127.699219 92.621094 129.421875 90.660156 131.605469 C 88.550781 133.917969 86.769531 136.535156 84.703125 139.203125 C 87 140.246094 88.855469 141.101562 90.710938 141.917969 C 91.042969 141.996094 91.382812 142.011719 91.71875 141.960938 C 91.90625 141.960938 92.273438 141.917969 92.273438 141.917969 C 92.46875 143.753906 95.277344 142.375 95.382812 144.390625 C 95.382812 144.628906 96.640625 145.140625 96.757812 144.976562 C 97.894531 143.722656 98.914062 144.863281 100.003906 144.976562 L 102 140.027344 L 102.519531 140.222656 C 101.917969 141.984375 101.316406 143.753906 100.628906 145.769531 C 102.933594 146.0625 104.625 148.765625 107.34375 146.992188 L 106.441406 147.066406 L 106.328125 146.683594 L 113.675781 144.03125 L 113.878906 144.496094 L 109.550781 146.503906 L 109.601562 146.714844 L 112.644531 146.167969 L 112.765625 146.632812 L 107.160156 147.972656 L 107.214844 148.167969 L 113.898438 147.011719 L 114.011719 147.539062 C 112.878906 147.824219 111.757812 148.128906 110.601562 148.363281 C 109.445312 148.59375 108.234375 148.886719 107.597656 150.132812 C 107.488281 150.359375 107.300781 150.546875 107.070312 150.65625 C 104.332031 151.621094 104.367188 154.207031 103.722656 156.375 C 103.292969 157.796875 102.96875 159.269531 102.65625 160.714844 L 102.265625 160.632812 C 102.722656 158.382812 103.179688 156.132812 103.652344 153.945312 C 103.828125 153.121094 104.441406 152.125 104.15625 151.53125 C 103.570312 150.425781 102.757812 149.457031 101.769531 148.683594 C 100.742188 147.875 99.628906 147.179688 98.449219 146.609375 C 94.761719 144.675781 91.058594 142.765625 87.308594 140.941406 C 86.378906 140.648438 85.414062 140.476562 84.441406 140.425781 C 81.089844 151.503906 77.746094 162.542969 74.414062 173.546875 L 74.203125 173.5 C 74.609375 171.746094 74.953125 169.976562 75.441406 168.253906 C 77.050781 162.257812 78.671875 156.335938 80.363281 150.394531 C 80.710938 149.40625 81.171875 148.464844 81.734375 147.582031 C 82.929688 145.402344 82.570312 142.980469 82.886719 140.664062 C 82.890625 140.433594 82.777344 140.214844 82.585938 140.082031 C 82.3125 139.996094 82.011719 140.035156 81.773438 140.191406 C 80.136719 142.085938 78.515625 144.003906 76.914062 145.949219 C 75.695312 147.449219 74.519531 148.945312 73.324219 150.445312 L 72.804688 150.101562 L 75.507812 144.757812 C 72.890625 142.746094 69.777344 141.480469 66.496094 141.09375 C 66.195312 139.816406 67.007812 139.382812 68 138.785156 C 71.6875 136.632812 75.253906 134.285156 78.910156 132.082031 C 80.203125 131.332031 81.617188 130.742188 82.960938 130.066406 C 83.78125 129.65625 84.464844 129.191406 83.199219 128.195312 C 84.457031 129.226562 85.265625 128.5 86.207031 127.953125 C 90.710938 125.375 93.71875 121.328125 96.902344 117.136719 L 94.589844 117.5 L 104.554688 112.851562 C 103.96875 110.960938 102.511719 111.300781 101.265625 111.097656 L 103.316406 108.773438 C 102.625 108.394531 101.90625 108.0625 101.167969 107.785156 C 100.570312 107.59375 99.929688 107.554688 99.3125 107.671875 C 97.132812 108.210938 94.980469 108.863281 92.816406 109.457031 C 92.570312 109.511719 92.316406 109.53125 92.0625 109.523438 C 92.0625 109.824219 92.167969 110.273438 92.0625 110.355469 C 91.164062 110.902344 90.292969 110.789062 89.105469 109.832031 C 90.019531 109.480469 90.605469 109.164062 91.28125 108.992188 C 94.492188 108.152344 97.710938 107.351562 100.921875 106.527344 C 101.597656 106.351562 102.265625 106.152344 103.015625 105.933594 C 101.8125 104.261719 99.914062 104.695312 98.148438 104.765625 L 98.261719 104.292969 L 99.566406 103.484375 C 98.179688 102.679688 96.992188 101.921875 95.753906 101.277344 C 92.613281 99.660156 89.441406 98.09375 86.296875 96.496094 C 84.90625 95.746094 84.597656 95.996094 84.457031 97.554688 C 84.3125 99.113281 84.027344 100.671875 83.808594 102.230469 L 83.320312 102.230469 C 83.199219 101.640625 82.804688 100.898438 83.019531 100.476562 C 84.042969 98.507812 82.808594 96.730469 82.636719 94.902344 C 82.636719 94.59375 81.886719 94.292969 81.457031 94.089844 C 79.8125 93.34375 78.152344 92.644531 76.378906 91.84375 L 77.433594 90.472656 L 79.777344 91.175781 L 79.152344 92.105469 C 79.226562 92.203125 79.324219 92.34375 79.332031 92.34375 C 80.910156 91.355469 82.5625 92.34375 84.171875 92.15625 C 84.449219 92.15625 84.761719 92.457031 85.0625 92.609375 L 92.957031 96.550781 C 94.226562 96.21875 93.867188 93.949219 95.960938 94.175781 L 94.789062 96.242188 L 97.433594 97.425781 L 97.335938 97.765625 L 94.105469 96.683594 L 93.988281 97.042969 L 102.386719 100.253906 L 102.601562 99.855469 L 101.363281 99.195312 C 100.105469 97.003906 98.324219 95.15625 96.179688 93.8125 L 96.300781 93.230469 C 95.640625 92.875 95.011719 92.457031 94.429688 91.984375 C 92.0625 89.617188 89.714844 87.234375 87.429688 84.78125 C 86.847656 84.082031 86.449219 83.246094 86.273438 82.355469 C 88.105469 83.667969 90.457031 83.800781 91.90625 85.839844 C 93.222656 87.691406 95.277344 89.023438 97.035156 90.5625 C 97.242188 90.753906 97.507812 90.867188 97.789062 90.875 C 98.929688 90.792969 100.042969 90.636719 101.542969 90.464844 L 85.019531 62.125 L 74.871094 71.5625 C 75.351562 72.632812 77.507812 73.121094 75.929688 75.195312 C 74.578125 73.609375 73.257812 72.050781 71.84375 70.398438 L 68.597656 77.894531 L 68.871094 78.050781 L 69.710938 77.027344 L 70.042969 77.21875 C 69.253906 78.695312 68.5 80.121094 67.75 81.574219 L 67.082031 81.335938 C 67.414062 80.097656 67.78125 78.875 68.074219 77.632812 C 68.703125 74.925781 69.371094 72.222656 69.875 69.492188 C 69.875 68.8125 69.605469 68.164062 69.125 67.679688 C 68.101562 66.5625 66.871094 65.664062 65.863281 64.523438 C 64.992188 63.410156 64.183594 62.246094 63.445312 61.039062 L 63.84375 60.710938 L 72.859375 69.792969 C 73.429688 69.046875 74.058594 68.339844 74.734375 67.6875 C 75.382812 67.132812 75.890625 66.113281 77.070312 66.570312 C 77.160156 66.570312 77.453125 66.390625 77.515625 66.234375 C 78.671875 63.324219 81.503906 62.148438 83.667969 60.238281 C 83.804688 60.054688 83.933594 59.863281 84.050781 59.667969 L 72.03125 38.425781 L 69.777344 40.351562 L 71.722656 34.988281 L 71.152344 35.152344 L 69.597656 33.757812 L 69.890625 33.40625 L 70.890625 34.273438 L 67.804688 27.160156 L 68.140625 27.003906 C 68.683594 28.152344 69.191406 29.3125 69.769531 30.445312 C 72.136719 35.113281 74.511719 39.722656 76.929688 44.363281 C 77.554688 45.449219 78.277344 46.480469 79.09375 47.433594 C 80.933594 49.746094 82.285156 52.40625 83.074219 55.253906 C 83.5625 57.035156 84.882812 58.582031 85.816406 60.246094 C 87.484375 63.242188 89.136719 66.179688 90.847656 69.238281 L 96.511719 66.988281 C 96.828125 66.871094 97.171875 66.824219 97.496094 66.734375 C 98.359375 66.496094 99.222656 66.253906 100.078125 65.984375 C 100.214844 65.921875 100.34375 65.84375 100.460938 65.753906 C 102.714844 64.546875 102.714844 64.554688 102.097656 62.066406 C 100.914062 57.257812 99.738281 52.449219 98.578125 47.636719 C 98.535156 47.269531 98.535156 46.898438 98.578125 46.527344 L 99.066406 46.4375 C 101.378906 56.34375 103.6875 66.246094 105.996094 76.148438 L 105.382812 76.296875 C 105.019531 74.730469 104.628906 73.164062 104.316406 71.597656 C 104.03125 70.28125 103.796875 68.945312 103.511719 67.632812 C 103.324219 66.757812 102.976562 66.136719 101.867188 66.554688 C 100.523438 67.101562 99.140625 67.558594 97.796875 68.121094 C 95.851562 68.921875 93.933594 69.785156 91.875 70.675781 C 93.535156 73.75 95.152344 76.777344 96.796875 79.785156 C 98.6875 83.246094 100.632812 86.679688 102.496094 90.15625 C 102.648438 90.441406 102.386719 90.964844 102.289062 91.371094 C 102.191406 91.777344 102.0625 92.269531 101.941406 92.710938 L 102.292969 92.847656 L 103.464844 91.878906 C 104.675781 94.300781 105.871094 96.632812 106.996094 99 C 107.46875 100.003906 108.046875 100.671875 109.332031 100.433594 C 108.242188 96.820312 106.472656 93.402344 107.140625 89.023438 C 107.523438 90.890625 107.816406 92.332031 108.117188 93.777344 L 108.339844 93.777344 L 107.558594 87.242188 L 107.921875 87.171875 C 108.382812 88.550781 108.746094 89.957031 109.007812 91.386719 C 109.242188 93.3125 109.085938 95.289062 109.324219 97.21875 C 109.421875 97.964844 110.136719 98.714844 110.753906 99.707031 L 112.203125 97.996094 C 111.976562 99.007812 112.035156 99.929688 111.609375 100.363281 C 111.019531 100.808594 110.277344 101.011719 109.542969 100.925781 C 108.191406 100.828125 107.230469 101.675781 106.472656 104.195312 L 109.347656 103.65625 C 108.136719 106.546875 108.882812 109.1875 109.691406 111.972656 C 111.195312 112.296875 112.863281 112.941406 114.507812 112.917969 C 116.152344 112.894531 117.683594 112.167969 119.429688 111.75 C 119.488281 111 119.429688 109.890625 120.929688 110.046875 C 120.179688 106.878906 119.480469 103.894531 118.75 100.761719 C 118.296875 101.082031 117.789062 101.324219 117.25 101.472656 C 116.027344 101.539062 114.800781 101.539062 113.578125 101.472656 C 113.488281 101.472656 113.390625 101.265625 113.3125 101.136719 C 113.269531 101.042969 113.238281 100.945312 113.222656 100.84375 C 112.832031 99.203125 112.832031 97.605469 111.863281 95.929688 C 110.894531 94.25 111.609375 91.707031 111.59375 89.535156 C 111.59375 86.722656 111.59375 83.914062 111.535156 81.109375 C 111.472656 79.25 111.121094 77.40625 111.082031 75.550781 C 111.007812 71.800781 111.082031 68.105469 110.949219 64.367188 C 111.039062 66.316406 111.097656 68.277344 111.226562 70.226562 C 111.625 76.410156 111.976562 82.59375 112.515625 88.769531 C 112.84375 91.164062 113.292969 93.542969 113.871094 95.890625 C 114.09375 97.015625 114.539062 97.945312 115.914062 97.953125 C 115.5 95.621094 117.535156 92.351562 118.648438 91.035156 L 118.648438 94.4375 L 117.46875 96.347656 L 120.171875 96.484375 C 120.246094 96.242188 120.441406 95.566406 120.652344 94.902344 C 120.789062 94.488281 120.824219 93.898438 121.117188 93.703125 C 122.769531 92.613281 121.988281 91.796875 120.871094 90.898438 L 119.53125 92.546875 C 118.464844 89.902344 119.449219 87.660156 119.824219 85.382812 L 120.382812 85.425781 C 120.195312 86.664062 120.007812 87.910156 119.78125 89.429688 L 121.238281 87.457031 L 120.488281 85.960938 L 122.371094 86.328125 L 121.875 88.101562 L 123.523438 90.269531 C 124.0625 90.007812 124.738281 89.632812 125.453125 89.347656 C 128.667969 88.035156 129.523438 84.671875 131.550781 82.332031 C 133.578125 79.992188 135.472656 77.234375 137.425781 74.679688 C 138.175781 73.726562 138.925781 72.796875 139.859375 71.613281 L 135.5625 70.804688 L 135.5625 70.476562 C 136.394531 70.476562 137.230469 70.476562 138.054688 70.476562 C 139.992188 70.574219 141 70.527344 142.03125 68.445312 C 144.035156 64.390625 146.265625 60.453125 148.390625 56.453125 C 148.585938 55.996094 148.867188 55.582031 149.21875 55.230469 C 149.253906 55.671875 149.480469 56.210938 149.308594 56.527344 C 146.867188 60.980469 144.53125 65.519531 141.796875 69.800781 C 139.65625 73.1875 136.988281 76.246094 134.636719 79.542969 C 131.941406 83.292969 129.328125 87.097656 126.691406 90.882812 C 126.40625 91.398438 126.15625 91.925781 125.941406 92.472656 C 127.953125 91.222656 129.597656 90.222656 131.199219 89.210938 C 135.027344 86.675781 138.621094 83.808594 141.9375 80.636719 C 145.152344 77.640625 148.789062 75.128906 152.28125 72.453125 C 154.640625 70.648438 157.066406 68.929688 159.484375 67.15625 C 159.191406 65.65625 156.742188 64.652344 158.433594 62.65625 L 160.6875 66.269531 L 178.550781 54.160156 C 178.617188 55.3125 178.011719 56.40625 176.996094 56.960938 C 170.371094 61.457031 163.820312 66.054688 157.230469 70.585938 C 156.203125 71.292969 154.980469 71.71875 154.015625 72.492188 C 151.765625 74.289062 149.691406 76.238281 147.496094 78.089844 C 145.304688 79.941406 142.992188 81.703125 140.84375 83.574219 C 137.597656 86.371094 134.367188 89.199219 131.214844 92.089844 C 130.152344 93.066406 129.394531 94.339844 128.402344 95.402344 C 127.832031 96.011719 127.042969 96.414062 126.414062 96.976562 C 126.234375 97.140625 126.285156 97.5625 126.226562 97.863281 C 126.546875 97.863281 126.976562 98.003906 127.1875 97.863281 C 130.730469 95.792969 134.253906 93.679688 137.792969 91.601562 C 138.382812 91.226562 139.066406 91.019531 139.769531 91.011719 C 137.371094 92.414062 134.96875 93.808594 132.582031 95.222656 C 131.5 95.867188 130.417969 96.511719 129.394531 97.238281 C 128.996094 97.609375 128.644531 98.03125 128.351562 98.492188 L 128.675781 98.941406 L 133.820312 96.851562 L 134.023438 97.195312 C 133.617188 97.433594 133.210938 97.695312 132.789062 97.945312 C 131.609375 98.488281 130.460938 99.101562 129.351562 99.773438 C 128.914062 100.074219 128.816406 100.867188 128.597656 101.4375 C 129.140625 101.5625 129.734375 101.910156 130.207031 101.789062 C 133.210938 101.039062 136.117188 100.15625 139.09375 99.382812 C 139.609375 99.328125 140.132812 99.355469 140.640625 99.464844 L 138.386719 102.027344 C 138.207031 101.015625 137.726562 100.703125 136.734375 101.738281 C 136.328125 102.015625 135.875 102.214844 135.398438 102.328125 C 135.496094 102.53125 135.789062 102.859375 135.71875 103.003906 C 135.125 104.148438 134.464844 105.25 133.757812 106.519531 C 133.488281 105.445312 133.300781 104.578125 133.054688 103.722656 C 132.542969 102.007812 131.453125 102.929688 130.417969 103.214844 L 130.84375 104.066406 L 127.621094 105.191406 L 127.621094 105.769531 C 128.589844 106.117188 129.578125 106.398438 130.582031 106.609375 C 131.761719 106.683594 132.941406 106.683594 134.121094 106.609375 L 131.378906 108.421875 C 131.507812 109.171875 131.679688 109.464844 131.597656 109.703125 C 131.070312 111.203125 131.597656 111.996094 133.097656 112.09375 C 137.183594 112.371094 141.285156 112.589844 145.207031 114.246094 C 146.152344 112.925781 146.609375 111.75 145.46875 110.289062 C 145.0625 109.769531 145.246094 108.835938 145.019531 108.128906 C 144.90625 107.761719 144.492188 107.484375 144.214844 107.171875 L 143.839844 107.394531 L 143.839844 106.160156 L 142.035156 106.160156 L 141.992188 105.84375 C 142.992188 105.425781 143.980469 104.960938 144.996094 104.636719 C 145.183594 104.578125 145.746094 105.078125 145.808594 105.386719 C 146.085938 107.558594 146.023438 109.777344 147.078125 111.816406 C 147.226562 112.101562 146.875 112.625 146.804688 113.054688 C 146.683594 113.503906 146.667969 113.976562 146.753906 114.433594 C 146.800781 114.582031 147.503906 114.539062 147.878906 114.589844 C 150.214844 114.875 152.574219 115.054688 154.894531 115.476562 C 160.90625 116.554688 166.839844 117.777344 172.816406 118.878906 C 177.414062 119.722656 182.035156 120.453125 186.632812 121.289062 C 189.417969 121.800781 192.183594 122.4375 194.953125 123.023438 L 194.878906 123.417969 L 187.292969 122.085938 C 181.011719 120.992188 174.75 119.835938 168.445312 118.832031 C 164.269531 118.171875 160.050781 117.796875 155.859375 117.222656 C 154.898438 116.996094 153.921875 117.503906 153.550781 118.414062 C 153.109375 119.253906 152.582031 120.046875 152.050781 120.953125 C 162.136719 124.632812 171.953125 128.90625 181.132812 134.550781 C 177.070312 132.570312 173.050781 130.488281 168.925781 128.628906 C 164.804688 126.769531 160.558594 125.121094 156.367188 123.382812 L 156.1875 123.773438 L 185.578125 141.152344 L 185.308594 141.609375 C 173.15625 134.699219 161.429688 127.054688 148.96875 120.496094 L 151.328125 120.832031 C 152.078125 119.664062 152.832031 118.441406 153.730469 117.085938 L 149.140625 116.238281 L 149.21875 116.066406 C 148.265625 116.121094 147.308594 116.214844 146.347656 116.230469 C 144.542969 116.207031 142.742188 116.292969 140.949219 116.488281 L 142.59375 117.3125 L 142.53125 117.601562 L 135.773438 116.5625 L 135.726562 116.808594 L 147.941406 120.144531 L 147.835938 120.5625 C 146.207031 120.175781 144.574219 119.753906 142.9375 119.394531 C 139.550781 118.644531 136.179688 117.894531 132.761719 117.199219 C 132.074219 117.132812 131.378906 117.273438 130.777344 117.609375 L 143.261719 123.253906 L 143.074219 123.6875 L 128.050781 117.242188 L 127.789062 117.542969 C 128.082031 117.945312 128.394531 118.328125 128.726562 118.699219 C 133.511719 123.542969 137.722656 128.921875 141.285156 134.722656 C 141.527344 135.105469 141.804688 135.464844 142.121094 135.792969 C 143.703125 137.480469 145.363281 139.105469 146.867188 140.867188 C 147.203125 141.421875 147.425781 142.035156 147.527344 142.671875 Z M 70.433594 139.179688 C 71.804688 140.496094 73.261719 141.722656 74.789062 142.855469 C 75.410156 143.265625 76.449219 144.179688 77.433594 142.957031 C 79.378906 140.53125 81.421875 138.183594 83.382812 135.761719 C 83.621094 135.4375 83.699219 135.019531 83.589844 134.632812 C 83.074219 133.5 80.667969 132.847656 79.601562 133.507812 C 76.570312 135.375 73.542969 137.253906 70.433594 139.179688 Z M 125.585938 123.945312 C 124.414062 123.195312 123.917969 121.386719 122.191406 122.371094 C 123.304688 124.511719 122.941406 127.382812 125.40625 128.929688 C 125.824219 128.390625 126.289062 127.886719 126.796875 127.429688 C 129.15625 125.707031 129.050781 122.992188 126.414062 121.492188 C 125.628906 121.054688 124.785156 120.726562 123.914062 120.519531 C 123.28125 120.449219 122.644531 120.449219 122.011719 120.519531 L 121.914062 120.023438 L 121.164062 121.253906 L 124.308594 121.253906 Z M 120.5625 131.910156 C 121.269531 131.550781 122.199219 131.355469 122.621094 130.785156 C 123.304688 129.890625 123.339844 128.65625 122.710938 127.722656 C 122.347656 127.015625 122.109375 126.257812 121.996094 125.472656 C 121.824219 124.558594 121.792969 123.621094 121.679688 122.476562 C 120.097656 123.097656 119.21875 123.667969 119.429688 125.128906 C 119.585938 126.355469 119.652344 127.601562 119.773438 128.875 C 119.8125 129.027344 119.867188 129.175781 119.929688 129.316406 L 120.398438 128.5 C 121.375 129.296875 121.394531 130.660156 120.5625 131.910156 Z M 115.941406 117.671875 C 114.929688 119.980469 115.542969 123.546875 117.324219 125.839844 C 117.519531 124.289062 117.699219 122.796875 117.886719 121.34375 L 116.679688 121.425781 C 118.414062 119.621094 118.414062 119.621094 115.941406 117.671875 Z M 127.675781 108.796875 L 126.171875 111.046875 L 128.382812 112.003906 L 129.132812 110.894531 Z M 101.09375 116.921875 C 99.433594 118.1875 97.628906 119.167969 96.855469 121.101562 C 98.101562 120.351562 99.308594 119.53125 100.46875 118.652344 C 101.03125 118.203125 101.902344 117.859375 101.09375 116.921875 Z M 128.011719 101.183594 C 127.613281 100.808594 127.261719 100.507812 126.945312 100.183594 C 126.632812 99.863281 126.144531 99.433594 126.195312 99.332031 C 126.742188 98.429688 125.78125 98.222656 125.550781 98.339844 C 125.136719 98.625 124.863281 99.066406 124.796875 99.5625 C 124.832031 99.988281 125.078125 100.367188 125.453125 100.574219 C 126.289062 100.816406 127.148438 100.996094 128.011719 101.105469 Z M 126.78125 107.179688 L 126.082031 105.679688 L 123.558594 107.671875 L 123.898438 108.046875 Z M 114.011719 125.601562 C 116.0625 124.796875 116.0625 124.789062 114.539062 122.390625 Z M 105.691406 98.933594 L 106.066406 98.664062 C 105.3125 97.515625 104.496094 96.363281 103.667969 95.238281 C 103.542969 95.066406 103.203125 95.011719 102.917969 94.984375 C 102.789062 95.109375 102.71875 95.28125 102.722656 95.464844 C 102.8125 95.65625 103.054688 95.769531 103.226562 95.921875 C 103.585938 96.21875 103.925781 96.546875 104.238281 96.894531 C 104.773438 97.523438 105.214844 98.230469 105.691406 98.933594 Z M 89.300781 129.289062 L 85.996094 130.855469 C 86.648438 131.515625 86.648438 131.515625 89.300781 129.289062 Z M 89.300781 129.289062 "/>
<path style=" stroke:none;fill-rule:nonzero;fill:rgb(100%,0%,0.784314%);fill-opacity:1;" d="M 48.339844 152.304688 L 58.445312 145.820312 L 58.269531 145.550781 L 25.824219 161.703125 L 25.640625 161.351562 L 65.234375 140.082031 L 65.390625 141.796875 L 48.8125 152.996094 Z M 48.339844 152.304688 "/>
<path style=" stroke:none;fill-rule:nonzero;fill:rgb(100%,0%,0.784314%);fill-opacity:1;" d="M 211.289062 126.125 C 211.582031 126.386719 211.847656 126.808594 212.183594 126.875 C 214.679688 127.4375 217.195312 127.921875 219.695312 128.457031 C 224.246094 129.429688 228.792969 130.425781 233.683594 131.453125 C 231.113281 131.984375 198.882812 124.859375 197.253906 123.425781 C 200.21875 123.675781 202.96875 123.839844 205.695312 124.175781 C 209.683594 124.632812 213.640625 125.480469 217.636719 125.675781 C 223.527344 125.929688 229.4375 125.757812 235.34375 125.71875 C 236.476562 125.71875 237.59375 125.511719 238.746094 125.398438 L 238.886719 125.871094 C 238.558594 126.089844 238.191406 126.246094 237.804688 126.335938 C 231.796875 126.460938 225.789062 126.65625 219.777344 126.605469 C 217.070312 126.460938 214.371094 126.175781 211.6875 125.757812 Z M 202.78125 124.417969 L 202.707031 124.84375 C 204.847656 125.351562 206.996094 125.878906 209.144531 126.34375 C 210.214844 126.597656 210.285156 126.539062 210.328125 125.511719 Z M 202.78125 124.417969 "/>
<path style=" stroke:none;fill-rule:nonzero;fill:rgb(100%,0%,0.784314%);fill-opacity:1;" d="M 82.691406 127.730469 C 81.40625 125.261719 80.152344 122.773438 78.835938 120.324219 C 77.335938 117.511719 75.832031 114.71875 74.21875 111.953125 C 73.933594 111.539062 73.484375 111.265625 72.984375 111.203125 C 71.289062 111.121094 69.589844 111.203125 67.886719 111.203125 L 67.808594 110.722656 C 68.460938 110.570312 69.121094 110.449219 69.785156 110.371094 C 72.789062 110.183594 75.914062 110.886719 78.835938 109.5 C 79.136719 109.359375 79.769531 109.253906 79.835938 109.375 C 80.371094 110.28125 81.171875 109.621094 81.820312 109.792969 C 82.808594 110.054688 83.074219 109.539062 83 108.683594 C 82.871094 107.183594 82.683594 105.6875 82.636719 104.1875 C 82.636719 103.789062 83.035156 103.386719 83.390625 102.6875 C 83.847656 105.273438 84.246094 107.484375 84.652344 109.761719 L 88.625 109.449219 L 88.683594 109.945312 L 75.570312 111.140625 C 76.492188 113.277344 76.953125 115.511719 78.265625 116.996094 C 79.160156 118.117188 79.917969 119.34375 80.519531 120.644531 C 81.089844 121.910156 81.59375 123.207031 82.023438 124.527344 C 82.195312 124.941406 82.554688 125.277344 82.683594 125.699219 C 82.84375 126.347656 82.964844 127.003906 83.050781 127.667969 Z M 82.691406 127.730469 "/>
<path style=" stroke:none;fill-rule:nonzero;fill:rgb(100%,0%,0.784314%);fill-opacity:1;" d="M 212.246094 30.640625 C 212.070312 31.070312 211.832031 31.476562 211.539062 31.839844 C 208.0625 35.121094 204.671875 38.480469 200.625 41.125 C 194.75 44.976562 189.027344 49.070312 183.289062 53.019531 L 181.921875 51.960938 C 186.121094 49.300781 190.289062 46.714844 194.433594 44.019531 C 196.003906 43.011719 197.441406 41.8125 199.085938 40.929688 C 203.695312 38.402344 206.980469 34.28125 211.101562 31.1875 C 211.46875 30.96875 211.855469 30.796875 212.257812 30.667969 Z M 212.246094 30.640625 "/>
<path style=" stroke:none;fill-rule:nonzero;fill:rgb(100%,0%,0.784314%);fill-opacity:1;" d="M 158.082031 61.734375 L 156.652344 62.394531 C 156.332031 61.523438 155.945312 60.675781 155.496094 59.863281 C 153.996094 57.484375 152.238281 55.230469 150.839844 52.785156 C 150.359375 51.949219 149.757812 50.921875 150.433594 49.609375 C 151.359375 47.558594 152.179688 45.464844 152.890625 43.335938 C 153.046875 42.949219 153.34375 42.636719 153.722656 42.457031 C 153.027344 44.855469 152.335938 47.261719 151.515625 50.074219 C 154.882812 43.328125 158.058594 37.011719 161.226562 30.675781 L 161.820312 30.953125 C 161.296875 32.003906 160.777344 33.046875 160.257812 34.09375 C 157.707031 39.257812 155.1875 44.445312 152.566406 49.570312 C 151.917969 50.660156 151.972656 52.027344 152.710938 53.058594 C 154.304688 55.578125 155.898438 58.109375 157.496094 60.640625 C 157.707031 60.972656 157.886719 61.332031 158.082031 61.734375 Z M 158.082031 61.734375 "/>
<path style=" stroke:none;fill-rule:nonzero;fill:rgb(100%,0%,0.784314%);fill-opacity:1;" d="M 184.695312 184.144531 L 178.105469 177.097656 L 177.761719 177.351562 L 177.683594 178.238281 L 163.578125 161.457031 L 163.8125 160.960938 C 164.261719 161.148438 164.847656 161.207031 165.132812 161.53125 C 167.222656 163.914062 169.242188 166.367188 171.308594 168.777344 C 172.058594 169.691406 172.90625 170.578125 173.734375 171.460938 L 184.324219 182.765625 C 184.609375 183.070312 184.84375 183.425781 185.078125 183.761719 Z M 184.695312 184.144531 "/>
<path style=" stroke:none;fill-rule:nonzero;fill:rgb(100%,0%,0.784314%);fill-opacity:1;" d="M 199.324219 85.675781 C 199.90625 85.355469 200.519531 85.101562 201.15625 84.925781 C 203.480469 84.550781 205.835938 84.378906 208.152344 83.945312 C 211.441406 83.320312 214.746094 82.675781 217.976562 81.785156 C 223.730469 80.179688 229.421875 78.382812 235.148438 76.671875 C 236.242188 76.351562 237.347656 76.050781 238.453125 75.742188 L 238.78125 76.195312 C 238.421875 76.507812 238.105469 77.011719 237.691406 77.117188 C 234.769531 77.863281 231.804688 78.425781 228.90625 79.242188 C 224.796875 80.390625 220.726562 81.671875 216.660156 82.992188 C 211.605469 84.601562 206.378906 85.238281 201.128906 85.78125 C 200.566406 85.839844 200 85.9375 199.429688 86.011719 Z M 199.324219 85.675781 "/>
<path style=" stroke:none;fill-rule:nonzero;fill:rgb(100%,0%,0.784314%);fill-opacity:1;" d="M 95.542969 203.554688 C 96.699219 194.113281 97.859375 184.671875 99.019531 175.230469 L 99.644531 175.308594 L 96.242188 203.636719 Z M 95.542969 203.554688 "/>
<path style=" stroke:none;fill-rule:nonzero;fill:rgb(100%,0%,0.784314%);fill-opacity:1;" d="M 146.617188 179.316406 C 145.070312 179.273438 144.800781 178.011719 144.367188 177.066406 C 143.382812 174.925781 142.578125 172.707031 141.570312 170.578125 C 141.027344 169.660156 140.429688 168.773438 139.785156 167.925781 C 139.3125 167.179688 138.910156 166.390625 138.582031 165.570312 C 138.507812 165.390625 138.859375 164.941406 139.121094 164.769531 C 139.257812 164.679688 139.746094 164.867188 139.875 165.054688 C 140.777344 166.496094 141.609375 167.984375 142.359375 169.511719 C 143.816406 172.691406 145.160156 175.921875 146.617188 179.316406 Z M 146.617188 179.316406 "/>
<path style=" stroke:none;fill-rule:nonzero;fill:rgb(100%,0%,0.784314%);fill-opacity:1;" d="M -15.683594 176.132812 L 17.65625 165.1875 L 17.777344 165.40625 C 17.394531 165.671875 16.988281 165.902344 16.5625 166.089844 C 5.878906 169.617188 -4.808594 173.136719 -15.503906 176.65625 Z M -15.683594 176.132812 "/>
<path style=" stroke:none;fill-rule:nonzero;fill:rgb(100%,0%,0.784314%);fill-opacity:1;" d="M 48.589844 78.140625 C 41.730469 74.835938 34.378906 72.519531 28.242188 67.753906 L 48.84375 77.675781 Z M 48.589844 78.140625 "/>
<path style=" stroke:none;fill-rule:nonzero;fill:rgb(100%,0%,0.784314%);fill-opacity:1;" d="M 160.632812 90.785156 C 159.84375 91.429688 158.996094 92.003906 158.101562 92.496094 C 153.332031 94.601562 148.542969 96.640625 143.734375 98.671875 C 143.269531 98.785156 142.792969 98.832031 142.316406 98.804688 L 142.226562 98.242188 C 144.792969 97.253906 147.386719 96.300781 149.9375 95.246094 C 153.523438 93.792969 157.082031 92.246094 160.648438 90.792969 Z M 160.632812 90.785156 "/>
<path style=" stroke:none;fill-rule:nonzero;fill:rgb(100%,0%,0.784314%);fill-opacity:1;" d="M 81.5625 114.449219 C 82.53125 114.101562 83.492188 113.699219 84.484375 113.4375 C 86.167969 112.957031 87.871094 112.558594 89.5625 112.09375 C 90.570312 111.816406 91.539062 111.457031 92.167969 112.746094 C 92.296875 113 92.734375 113.105469 93.25 113.414062 L 91.882812 114.109375 L 91.882812 117.363281 L 91.5 117.445312 L 90.847656 112.695312 L 81.660156 114.769531 Z M 81.5625 114.449219 "/>
<path style=" stroke:none;fill-rule:nonzero;fill:rgb(100%,0%,0.784314%);fill-opacity:1;" d="M 100.238281 136.78125 L 91.457031 137.675781 L 91.386719 137.203125 C 92.890625 136.976562 94.4375 136.746094 95.960938 136.527344 C 96.320312 136.464844 96.679688 136.425781 97.042969 136.40625 C 99.386719 136.371094 101.355469 135.757812 102.203125 133.238281 C 102.445312 132.738281 102.816406 132.3125 103.277344 132.007812 L 100.273438 139.285156 C 99.792969 138.957031 99.792969 138.957031 100.238281 136.78125 Z M 100.238281 136.78125 "/>
<path style=" stroke:none;fill-rule:nonzero;fill:rgb(100%,0%,0.784314%);fill-opacity:1;" d="M 125.585938 155.28125 L 129.710938 171.820312 L 129.214844 171.949219 C 127.742188 166.453125 126.273438 160.957031 124.804688 155.460938 Z M 125.585938 155.28125 "/>
<path style=" stroke:none;fill-rule:nonzero;fill:rgb(100%,0%,0.784314%);fill-opacity:1;" d="M 160.648438 90.816406 C 162.796875 89.878906 164.886719 88.808594 167.09375 88.035156 C 170.144531 86.964844 173.269531 86.117188 176.363281 85.179688 L 176.5 85.578125 C 174.742188 86.140625 172.984375 86.6875 171.242188 87.269531 C 168.484375 88.1875 165.726562 89.109375 162.976562 90.097656 C 162.539062 90.351562 162.195312 90.746094 162 91.214844 C 161.730469 91.828125 161.507812 92.460938 161.332031 93.109375 C 161.019531 92.058594 160.824219 91.421875 160.628906 90.785156 Z M 160.648438 90.816406 "/>
<path style=" stroke:none;fill-rule:nonzero;fill:rgb(100%,0%,0.784314%);fill-opacity:1;" d="M 197.695312 86.066406 L 180.96875 89.113281 L 180.878906 88.628906 L 197.605469 85.441406 Z M 197.695312 86.066406 "/>
<path style=" stroke:none;fill-rule:nonzero;fill:rgb(100%,0%,0.784314%);fill-opacity:1;" d="M 56.257812 51.339844 C 58.511719 51.199219 59.96875 49.699219 61.425781 48.171875 C 61.113281 48.523438 60.835938 48.90625 60.597656 49.316406 C 60.019531 50.554688 59.515625 51.824219 59.097656 53.125 C 58.992188 53.46875 59.441406 54.023438 59.714844 54.4375 C 60.246094 55.105469 60.652344 55.867188 60.90625 56.683594 L 56.316406 51.308594 Z M 56.257812 51.339844 "/>
<path style=" stroke:none;fill-rule:nonzero;fill:rgb(100%,0%,0.784314%);fill-opacity:1;" d="M 136.207031 52.246094 L 140.324219 38.757812 L 140.691406 38.867188 C 139.917969 43.535156 138.402344 48.050781 136.207031 52.246094 Z M 136.207031 52.246094 "/>
<path style=" stroke:none;fill-rule:nonzero;fill:rgb(100%,0%,0.784314%);fill-opacity:1;" d="M 119.886719 72.640625 C 119.804688 73.847656 119.667969 75.054688 119.636719 76.261719 C 119.609375 77.46875 119.707031 78.734375 119.691406 80.007812 C 119.6875 81.242188 119.542969 82.472656 119.253906 83.671875 C 118.339844 82.003906 118.894531 80.179688 118.855469 78.425781 C 118.804688 76.492188 119.058594 74.558594 119.1875 72.625 Z M 119.886719 72.640625 "/>
<path style=" stroke:none;fill-rule:nonzero;fill:rgb(100%,0%,0.784314%);fill-opacity:1;" d="M 78.019531 74.800781 C 80.535156 76.148438 82.074219 78.316406 81.398438 79.886719 C 80.605469 79.058594 79.734375 78.308594 78.800781 77.640625 C 77.515625 76.875 77.980469 75.820312 78.019531 74.800781 Z M 78.019531 74.800781 "/>
<path style=" stroke:none;fill-rule:nonzero;fill:rgb(100%,0%,0.784314%);fill-opacity:1;" d="M 147.105469 180.089844 L 152.363281 191.242188 L 151.785156 191.503906 L 146.527344 180.375 Z M 147.105469 180.089844 "/>
<path style=" stroke:none;fill-rule:nonzero;fill:rgb(100%,0%,0.784314%);fill-opacity:1;" d="M 95.894531 36.996094 C 94.828125 32.816406 93.757812 28.644531 92.6875 24.472656 L 93.199219 24.328125 C 94.65625 28.40625 95.265625 32.707031 96.488281 36.835938 Z M 95.894531 36.996094 "/>
<path style=" stroke:none;fill-rule:nonzero;fill:rgb(100%,0%,0.784314%);fill-opacity:1;" d="M 190.753906 189.792969 L 196.433594 194.132812 L 195.398438 195.332031 L 190.441406 190.085938 Z M 190.753906 189.792969 "/>
<path style=" stroke:none;fill-rule:nonzero;fill:rgb(100%,0%,0.784314%);fill-opacity:1;" d="M 39.359375 34.191406 C 37.007812 32.925781 34.851562 29.769531 32.289062 27.058594 L 32.582031 26.75 Z M 39.359375 34.191406 "/>
<path style=" stroke:none;fill-rule:nonzero;fill:rgb(100%,0%,0.784314%);fill-opacity:1;" d="M 144.183594 24.515625 L 141.730469 34.597656 L 141.144531 34.453125 C 141.964844 31.089844 142.78125 27.722656 143.589844 24.351562 Z M 144.183594 24.515625 "/>
<path style=" stroke:none;fill-rule:nonzero;fill:rgb(100%,0%,0.784314%);fill-opacity:1;" d="M 119.464844 67.304688 C 119.074219 64.375 120.277344 61.5625 120.140625 58.65625 L 120.808594 58.707031 C 120.488281 61.539062 120.175781 64.398438 119.871094 67.273438 Z M 119.464844 67.304688 "/>
<path style=" stroke:none;fill-rule:nonzero;fill:rgb(100%,0%,0.784314%);fill-opacity:1;" d="M 114.605469 147.335938 C 117.976562 144.59375 118.984375 144.449219 119.625 146.472656 Z M 114.605469 147.335938 "/>
<path style=" stroke:none;fill-rule:nonzero;fill:rgb(100%,0%,0.784314%);fill-opacity:1;" d="M 212.273438 30.660156 C 214.226562 28.070312 216.839844 26.253906 219.246094 24.1875 L 219.652344 24.664062 L 212.246094 30.660156 Z M 212.273438 30.660156 "/>
<path style=" stroke:none;fill-rule:nonzero;fill:rgb(100%,0%,0.784314%);fill-opacity:1;" d="M 58.21875 49.847656 L 64.339844 42.9375 L 64.707031 43.253906 C 63.703125 44.40625 62.695312 45.570312 61.703125 46.707031 C 60.710938 47.847656 59.644531 48.996094 58.609375 50.140625 Z M 58.21875 49.847656 "/>
<path style=" stroke:none;fill-rule:nonzero;fill:rgb(100%,0%,0.784314%);fill-opacity:1;" d="M 154.753906 196.953125 L 157.613281 203.523438 L 157.121094 203.742188 L 154.128906 197.15625 Z M 154.753906 196.953125 "/>
<path style=" stroke:none;fill-rule:nonzero;fill:rgb(100%,0%,0.784314%);fill-opacity:1;" d="M 203.171875 203.78125 L 197.09375 197.175781 L 197.484375 196.816406 L 203.546875 203.433594 Z M 203.171875 203.78125 "/>
<path style=" stroke:none;fill-rule:nonzero;fill:rgb(100%,0%,0.784314%);fill-opacity:1;" d="M 121.367188 48.648438 L 121.003906 55.582031 L 120.417969 55.582031 L 120.871094 48.589844 Z M 121.367188 48.648438 "/>
<path style=" stroke:none;fill-rule:nonzero;fill:rgb(100%,0%,0.784314%);fill-opacity:1;" d="M 56.296875 51.304688 L 52.015625 47.449219 L 52.390625 47.03125 C 53.597656 48.09375 54.832031 49.144531 55.996094 50.261719 C 56.21875 50.476562 56.175781 51.011719 56.257812 51.339844 Z M 56.296875 51.304688 "/>
<path style=" stroke:none;fill-rule:nonzero;fill:rgb(100%,0%,0.784314%);fill-opacity:1;" d="M 97.042969 112.425781 L 95.851562 112.070312 C 95.4375 111.210938 96.496094 109.882812 94.789062 109.613281 C 96.457031 109.1875 97.457031 110.460938 97.042969 112.425781 Z M 97.042969 112.425781 "/>
<path style=" stroke:none;fill-rule:nonzero;fill:rgb(100%,0%,0.784314%);fill-opacity:1;" d="M 207.527344 203.863281 L 202.953125 200.308594 L 203.285156 199.882812 L 207.875 203.441406 Z M 207.527344 203.863281 "/>
<path style=" stroke:none;fill-rule:nonzero;fill:rgb(100%,0%,0.784314%);fill-opacity:1;" d="M 8.410156 57.089844 L 12.917969 59.464844 L 12.753906 59.800781 L 8.140625 57.621094 Z M 8.410156 57.089844 "/>
<path style=" stroke:none;fill-rule:nonzero;fill:rgb(100%,0%,0.784314%);fill-opacity:1;" d="M 100.640625 168.957031 L 99.582031 174.203125 L 99.042969 174.085938 L 100.335938 168.921875 Z M 100.640625 168.957031 "/>
<path style=" stroke:none;fill-rule:nonzero;fill:rgb(100%,0%,0.784314%);fill-opacity:1;" d="M 189.296875 188.871094 C 188.230469 187.71875 187.160156 186.566406 186.082031 185.417969 L 186.195312 185.328125 L 189.613281 188.574219 Z M 189.296875 188.871094 "/>
<path style=" stroke:none;fill-rule:nonzero;fill:rgb(100%,0%,0.784314%);fill-opacity:1;" d="M 138.027344 102.753906 C 137.328125 104.382812 138.429688 104.816406 139.867188 105.070312 L 139.371094 105.589844 L 136.636719 104.53125 Z M 138.027344 102.753906 "/>
<path style=" stroke:none;fill-rule:nonzero;fill:rgb(100%,0%,0.784314%);fill-opacity:1;" d="M 95.542969 199.238281 C 95.207031 200.738281 94.863281 202.214844 94.511719 203.675781 L 93.972656 203.539062 L 95.1875 199.132812 Z M 95.542969 199.238281 "/>
<path style=" stroke:none;fill-rule:nonzero;fill:rgb(100%,0%,0.784314%);fill-opacity:1;" d="M 24.304688 162.421875 L 20.371094 164.273438 L 20.152344 163.832031 L 24.058594 161.914062 Z M 24.304688 162.421875 "/>
<path style=" stroke:none;fill-rule:nonzero;fill:rgb(100%,0%,0.784314%);fill-opacity:1;" d="M 82.457031 80.195312 C 82.902344 80.195312 83.546875 80.015625 83.726562 80.195312 C 84.035156 80.6875 84.261719 81.226562 84.386719 81.792969 L 84.050781 81.980469 L 82.335938 80.71875 Z M 82.457031 80.195312 "/>
</g>
</svg>
