<?xml version="1.0" encoding="UTF-8"?>
<svg xmlns="http://www.w3.org/2000/svg" xmlns:xlink="http://www.w3.org/1999/xlink" width="px" height="px" viewBox="0 0 230 267" version="1.1">
<g id="surface1">
<path style=" stroke:none;fill-rule:nonzero;fill:rgb(100%,0%,0.784314%);fill-opacity:1;" d="M 114.847656 44.640625 C 146.011719 44.65625 174.070312 63.484375 185.835938 92.28125 C 197.601562 121.078125 190.738281 154.117188 168.464844 175.871094 C 146.195312 197.625 112.945312 203.773438 84.34375 191.421875 C 55.742188 179.070312 37.472656 150.679688 38.117188 119.589844 C 38.921875 78.871094 72.257812 44.65625 114.847656 44.640625 Z M 147.894531 164.703125 L 71.28125 88.253906 C 57.289062 105.152344 54.101562 136.109375 74.511719 158.226562 C 95.226562 180.695312 127.839844 180.492188 147.886719 164.703125 Z M 87.949219 73.539062 L 162.527344 147.957031 C 173.425781 129.640625 172.617188 102.507812 154.648438 83.613281 C 135.675781 63.648438 107.289062 62.207031 87.949219 73.539062 Z M 87.949219 73.539062 "/>
</g>
</svg>
