<?xml version="1.0" encoding="UTF-8"?>
<svg xmlns="http://www.w3.org/2000/svg" xmlns:xlink="http://www.w3.org/1999/xlink" width="px" height="px" viewBox="0 0 230 267" version="1.1">
<g id="surface1">
<path style=" stroke:none;fill-rule:nonzero;fill:rgb(100%,0%,0.784314%);fill-opacity:1;" d="M 124.25 99.449219 C 124.378906 99.632812 124.515625 99.808594 124.664062 99.976562 L 136.996094 112.25 C 137.207031 112.453125 137.425781 112.648438 137.65625 112.859375 L 150.921875 99.628906 L 158.132812 106.886719 L 144.929688 120.015625 L 158.394531 133.410156 L 151.027344 140.644531 L 137.839844 127.511719 L 124.414062 140.90625 L 117.054688 133.574219 L 130.265625 120.4375 L 116.804688 107.042969 L 116.625 106.5625 C 117.046875 106.359375 117.445312 106.105469 117.8125 105.8125 C 119.714844 103.960938 121.570312 102.066406 123.453125 100.207031 C 123.667969 99.96875 123.863281 99.71875 124.046875 99.457031 Z M 124.25 99.449219 "/>
<path style=" stroke:none;fill-rule:nonzero;fill:rgb(100%,0%,0.784314%);fill-opacity:1;" d="M 71.207031 133.582031 L 81.527344 123.398438 L 84.726562 120.226562 L 71.421875 107.035156 L 78.679688 99.796875 L 91.90625 112.972656 L 105.308594 99.636719 L 112.644531 106.9375 L 99.296875 120.175781 L 112.71875 133.492188 L 105.480469 140.695312 L 92.140625 127.414062 L 78.550781 140.90625 C 76.34375 138.703125 74.195312 136.550781 72.03125 134.414062 C 71.769531 134.179688 71.492188 133.957031 71.207031 133.753906 Z M 71.207031 133.582031 "/>
</g>
</svg>
