<?xml version="1.0" encoding="UTF-8"?>
<svg xmlns="http://www.w3.org/2000/svg" xmlns:xlink="http://www.w3.org/1999/xlink" width="px" height="px" viewBox="0 0 230 267" version="1.1">
<g id="surface1">
<path style=" stroke:none;fill-rule:nonzero;fill:rgb(100%,0%,0.784314%);fill-opacity:1;" d="M 118.261719 35.578125 C 118.699219 36.199219 119.089844 36.847656 119.441406 37.519531 C 127.246094 54.839844 136.484375 71.441406 145.070312 88.371094 C 145.460938 89.46875 146.570312 90.140625 147.722656 89.984375 C 153.515625 89.8125 159.320312 89.820312 165.113281 89.707031 C 167.238281 89.707031 169.363281 89.476562 171.488281 89.363281 C 171.644531 89.375 171.796875 89.417969 171.9375 89.488281 L 171.9375 89.738281 C 171.558594 90.21875 171.128906 90.652344 170.65625 91.042969 C 169.75 91.632812 168.8125 92.171875 167.84375 92.660156 C 167.257812 92.960938 166.644531 93.265625 166.261719 92.335938 C 166.097656 92.128906 165.84375 92.011719 165.578125 92.023438 C 163.375 92.1875 161.175781 92.34375 158.980469 92.585938 C 155.273438 93.003906 151.574219 93.597656 147.851562 93.902344 C 141.886719 94.390625 135.898438 94.765625 129.921875 95.074219 C 126.269531 95.261719 122.605469 95.230469 118.941406 95.289062 C 117.625 95.289062 116.304688 95.289062 114.988281 95.289062 L 74.511719 95.875 C 69.890625 96.074219 65.316406 96.832031 60.878906 98.125 C 60.074219 98.332031 59.234375 98.394531 58.152344 98.566406 C 59.53125 96.496094 59.496094 96.316406 57.65625 95.882812 C 58.835938 94.769531 60.285156 93.984375 61.863281 93.597656 C 67.882812 92.546875 73.972656 91.960938 80.082031 91.84375 C 80.503906 91.800781 80.882812 91.582031 81.136719 91.242188 C 88.488281 78.457031 97.210938 66.554688 105.171875 54.171875 C 107.9375 49.878906 110.429688 45.390625 112.894531 40.921875 C 114.148438 38.675781 115.5 36.605469 118.007812 35.601562 Z M 83.375 91.789062 L 141.847656 90.238281 L 116.136719 39.722656 C 115.941406 40.066406 115.6875 40.511719 115.425781 40.945312 C 111.667969 47.097656 108.117188 53.371094 104.15625 59.367188 C 97.398438 69.597656 90.359375 79.679688 84.199219 90.3125 C 83.96875 90.6875 83.765625 91.046875 83.375 91.761719 Z M 83.375 91.789062 "/>
</g>
</svg>
