<?xml version="1.0" encoding="UTF-8"?>
<svg xmlns="http://www.w3.org/2000/svg" xmlns:xlink="http://www.w3.org/1999/xlink" width="px" height="px" viewBox="0 0 230 267" version="1.1">
<g id="surface1">
<path style=" stroke:none;fill-rule:nonzero;fill:rgb(100%,0%,0.784314%);fill-opacity:1;" d="M 114.695312 162.21875 C 114.410156 162.746094 114.082031 163.25 113.710938 163.71875 C 100.191406 177.210938 86.6875 190.703125 73.195312 204.191406 C 68.238281 209.132812 61.003906 209.484375 55.792969 205.085938 C 50.539062 200.550781 49.949219 192.628906 54.476562 187.375 C 54.921875 186.863281 55.402344 186.382812 55.875 185.914062 C 69.214844 172.601562 82.554688 159.289062 95.894531 145.980469 C 96.375 145.582031 96.875 145.214844 97.398438 144.878906 C 96.871094 144.574219 96.367188 144.230469 95.894531 143.851562 C 80.515625 128.496094 65.144531 113.132812 49.777344 97.765625 C 49.066406 97.085938 48.519531 96.253906 48.175781 95.335938 C 47.683594 93.78125 48.175781 92.082031 49.421875 91.027344 C 53.222656 87.277344 56.996094 83.480469 60.78125 79.707031 C 62.816406 77.691406 65.234375 77.683594 67.277344 79.707031 C 72.671875 85.070312 78.050781 90.4375 83.417969 95.816406 C 93.503906 105.886719 103.589844 115.960938 113.683594 126.027344 C 114.019531 126.363281 114.296875 126.777344 114.652344 127.175781 C 115.109375 126.746094 115.402344 126.425781 115.726562 126.164062 L 161.882812 80.105469 C 164.503906 77.484375 166.546875 77.492188 169.199219 80.105469 L 179.960938 90.847656 C 182.214844 93.09375 182.214844 95.34375 179.960938 97.589844 L 133.550781 143.902344 C 133.121094 144.277344 132.671875 144.632812 132.203125 144.960938 C 132.707031 145.253906 133.183594 145.582031 133.632812 145.949219 C 147.152344 159.441406 160.660156 172.917969 174.15625 186.382812 C 179.300781 191.527344 179.414062 199.378906 174.464844 204.371094 C 169.820312 209.0625 162.328125 209.363281 157.324219 205.0625 C 156.839844 204.648438 156.390625 204.207031 155.941406 203.757812 C 142.570312 190.425781 129.203125 177.085938 115.84375 163.734375 C 115.433594 163.25 115.050781 162.746094 114.695312 162.21875 Z M 165.691406 205.992188 C 168.695312 205.992188 171.546875 204.664062 173.472656 202.363281 C 177.226562 197.933594 176.820312 192.058594 172.503906 187.742188 L 66.144531 81.558594 C 65.925781 81.328125 65.699219 81.109375 65.460938 80.902344 C 65.078125 80.507812 64.554688 80.289062 64.007812 80.289062 C 63.464844 80.289062 62.941406 80.507812 62.558594 80.902344 C 58.585938 84.816406 54.628906 88.761719 50.699219 92.726562 C 49.789062 93.648438 49.851562 94.683594 50.699219 95.726562 C 50.984375 96.054688 51.300781 96.363281 51.609375 96.667969 L 157.210938 202.046875 C 157.621094 202.46875 158.058594 202.878906 158.492188 203.277344 C 160.453125 205.070312 163.03125 206.042969 165.691406 205.992188 Z M 131.039062 143.394531 C 131.371094 143.09375 131.605469 142.890625 131.792969 142.644531 L 178.4375 96.09375 C 179.824219 94.707031 179.824219 93.738281 178.4375 92.34375 L 167.507812 81.441406 C 165.886719 79.820312 165.035156 79.8125 163.429688 81.441406 L 117.175781 127.675781 C 116.882812 127.96875 116.597656 128.285156 116.371094 128.53125 L 117.753906 130.105469 L 136.964844 110.925781 C 140.941406 114.898438 144.824219 118.773438 148.886719 122.820312 L 129.832031 141.8125 Z M 98.488281 146.390625 L 97.878906 146.953125 L 57.015625 187.734375 C 56.707031 188.039062 56.410156 188.355469 56.121094 188.683594 C 54.246094 190.847656 53.335938 193.683594 53.605469 196.53125 C 53.875 199.378906 55.296875 201.996094 57.542969 203.773438 C 61.914062 207.167969 67.699219 206.679688 71.8125 202.542969 C 85.378906 189.015625 98.945312 175.480469 112.511719 161.9375 C 112.734375 161.710938 112.945312 161.480469 113.097656 161.3125 L 111.667969 159.640625 C 111.351562 160.003906 111.113281 160.308594 110.828125 160.59375 L 78.527344 192.824219 C 75.675781 195.679688 72.828125 198.542969 69.949219 201.375 C 67.199219 204.152344 62.882812 204.640625 59.578125 202.550781 C 54.9375 199.613281 54.371094 193.390625 58.40625 189.359375 C 71.925781 175.867188 85.460938 162.359375 99.011719 148.835938 C 99.3125 148.535156 99.589844 148.21875 99.890625 147.914062 Z M 98.488281 146.390625 "/>
<path style=" stroke:none;fill-rule:nonzero;fill:rgb(100%,0%,0.784314%);fill-opacity:1;" d="M 92.539062 110.96875 C 92.679688 111.097656 92.882812 111.277344 93.078125 111.472656 L 171.195312 189.417969 C 175.019531 193.234375 174.636719 199.164062 170.398438 202.265625 C 167.375 204.441406 163.269531 204.355469 160.34375 202.046875 C 159.914062 201.699219 159.503906 201.324219 159.117188 200.925781 L 81.601562 123.578125 C 81.300781 123.316406 80.980469 123.082031 80.640625 122.878906 Z M 92.539062 110.96875 "/>
</g>
</svg>
