<?xml version="1.0" encoding="UTF-8"?>
<svg xmlns="http://www.w3.org/2000/svg" xmlns:xlink="http://www.w3.org/1999/xlink" width="129px" height="150px" viewBox="0 0 230 267" version="1.1">
<g id="surface2">
<path style=" stroke:none;fill-rule:nonzero;fill:rgb(0%,0%,0%);fill-opacity:1;" d="M 221.371094 157.394531 L 223.765625 159.164062 C 224.234375 159.507812 224.519531 159.417969 224.617188 158.796875 C 224.628906 158.589844 224.628906 158.378906 224.617188 158.171875 C 224.617188 148.488281 224.617188 138.804688 224.617188 129.121094 C 224.632812 128.277344 224.226562 127.476562 223.535156 126.988281 L 221.28125 125.15625 L 221.28125 113.757812 L 227.921875 34.527344 L 211.589844 13.167969 L 147.308594 13.167969 L 147.308594 11.046875 C 147.308594 9.210938 146.121094 8.101562 144.492188 8.355469 C 140.25 9.023438 136.027344 9.789062 131.769531 10.359375 C 129.441406 10.671875 127.128906 11.667969 124.6875 10.703125 C 124.105469 10.503906 123.613281 10.109375 123.289062 9.59375 C 122.402344 8.070312 121.351562 6.652344 120.15625 5.359375 C 118.585938 4.027344 116.929688 2.796875 115.199219 1.679688 L 114.449219 1.679688 C 112.511719 2.582031 110.773438 3.855469 109.324219 5.425781 C 108.214844 6.789062 107.257812 8.273438 106.171875 9.660156 C 105.835938 10.085938 105.402344 10.421875 104.910156 10.644531 C 102.527344 11.699219 100.183594 10.644531 97.847656 10.351562 C 93.597656 9.757812 89.367188 9.015625 85.132812 8.34375 C 83.992188 8.039062 82.820312 8.707031 82.503906 9.839844 C 82.292969 10.464844 82.183594 11.117188 82.179688 11.773438 L 82.179688 13.136719 L 18.214844 13.136719 L 1.882812 34.527344 L 8.3125 113.554688 L 8.3125 125.300781 C 7.5625 125.863281 6.847656 126.433594 6.121094 127 C 5.453125 127.429688 5.042969 128.160156 5.023438 128.949219 C 5.023438 139.171875 5.023438 149.394531 5.023438 159.613281 L 5.40625 159.613281 C 5.632812 159.417969 5.84375 159.214844 6.082031 159.027344 L 8.238281 157.347656 L 1.402344 221.386719 L 10.535156 257.617188 C 10.933594 259.53125 12.597656 260.925781 14.554688 260.980469 L 215.292969 260.980469 C 217.25 260.925781 218.914062 259.53125 219.304688 257.617188 L 228.191406 221.101562 Z M 221.371094 157.394531 "/>
</g>
</svg>
