<?xml version="1.0" encoding="UTF-8"?>
<svg xmlns="http://www.w3.org/2000/svg" xmlns:xlink="http://www.w3.org/1999/xlink" width="px" height="px" viewBox="0 0 230 267" version="1.1">
<g id="surface1">
<path style=" stroke:none;fill-rule:nonzero;fill:rgb(100%,0%,0.784314%);fill-opacity:1;" d="M 200.097656 187.71875 C 199.898438 187.472656 199.671875 187.246094 199.429688 187.042969 C 192.691406 182.105469 186.707031 176.21875 181.660156 169.566406 C 180.027344 167.480469 178.363281 165.414062 176.835938 163.253906 C 172.554688 157.199219 173.082031 150.769531 175.445312 143.769531 C 175.890625 144.613281 176.128906 145.15625 176.445312 145.648438 C 177.230469 147.042969 178.125 148.375 179.121094 149.628906 C 181.921875 152.753906 186.414062 152.328125 188.71875 148.828125 C 190.445312 146.195312 190.484375 143.28125 189.996094 140.34375 C 189.304688 136.214844 187.457031 132.546875 185.234375 129.054688 C 184.972656 128.695312 184.570312 128.464844 184.128906 128.417969 C 176.152344 128.417969 168.183594 128.417969 160.054688 128.417969 L 160.054688 186.625 C 157.238281 186.300781 154.5 185.476562 151.972656 184.1875 C 151.644531 183.894531 151.464844 183.46875 151.476562 183.027344 C 151.433594 180.566406 151.476562 178.109375 151.476562 175.652344 L 151.476562 128.5 L 138.402344 128.5 L 138.402344 185.925781 C 135.554688 185.175781 132.917969 184.519531 130.320312 183.730469 C 130.035156 183.648438 129.839844 182.816406 129.839844 182.328125 C 129.839844 174.625 129.839844 166.921875 129.839844 159.214844 L 129.839844 157.394531 L 128.15625 157.394531 C 121.464844 157.394531 114.769531 157.339844 108.078125 157.429688 C 106.078125 157.574219 104.085938 157.835938 102.113281 158.21875 C 107.914062 167.871094 115.679688 174.960938 124.054688 181.585938 C 123.851562 181.578125 123.652344 181.546875 123.453125 181.496094 C 112.292969 177.269531 102.421875 171.175781 94.496094 162.078125 C 89.992188 156.90625 91.050781 148.386719 93.28125 143.878906 C 93.941406 145.164062 94.527344 146.382812 95.1875 147.554688 C 95.851562 148.722656 96.691406 149.875 98.195312 150.207031 C 100.664062 150.753906 102.503906 149.777344 103.367188 147.386719 C 104.308594 144.578125 104.351562 141.550781 103.496094 138.714844 C 102.625 135.5 101.316406 132.398438 100.132812 129.273438 C 99.921875 128.835938 99.511719 128.53125 99.035156 128.449219 C 92.0625 128.449219 85.085938 128.449219 78.109375 128.449219 C 77.972656 128.480469 77.839844 128.535156 77.71875 128.605469 L 77.71875 185.566406 L 69.148438 183.625 L 69.148438 157.394531 L 67.511719 157.394531 C 60.75 157.394531 53.929688 157.332031 47.148438 157.429688 C 45.207031 157.582031 43.28125 157.855469 41.378906 158.25 C 47.175781 167.847656 54.898438 174.953125 63.714844 181.484375 C 63.359375 181.492188 63.003906 181.46875 62.648438 181.414062 C 52.449219 177.707031 43.210938 172.457031 35.675781 164.527344 C 30.78125 159.410156 29.441406 150.648438 32.605469 144.058594 C 33.296875 145.371094 33.90625 146.625 34.609375 147.808594 C 35.316406 148.992188 36.203125 150.054688 37.734375 150.242188 C 40.257812 150.566406 41.859375 149.636719 42.65625 147.246094 C 43.714844 144.023438 43.40625 140.746094 42.488281 137.601562 C 41.695312 134.796875 40.46875 132.121094 39.484375 129.355469 C 39.183594 128.539062 38.628906 128.386719 37.832031 128.386719 C 31.996094 128.386719 26.160156 128.386719 20.324219 128.386719 C 20.277344 128.386719 20.226562 128.386719 19.984375 128.3125 C 23.433594 124.417969 26.890625 120.722656 32.566406 120.511719 C 32.988281 120.511719 33.417969 120.511719 33.84375 120.511719 L 209.609375 120.511719 C 205.445312 125.046875 201.730469 129.78125 194.359375 128.1875 C 194.742188 128.980469 194.9375 129.378906 195.113281 129.773438 C 197.546875 134.835938 199.085938 140.117188 198.613281 145.785156 C 198.117188 151.683594 195.5625 156.390625 189.929688 158.929688 C 188.382812 159.507812 186.796875 159.972656 185.179688 160.324219 C 185.460938 161.074219 185.738281 161.824219 186.039062 162.574219 C 189.410156 171.371094 193.789062 179.601562 199.910156 186.835938 C 200.085938 187.101562 200.230469 187.386719 200.332031 187.6875 Z M 48.125 128.507812 C 51.023438 135.292969 52.945312 142.121094 50.917969 149.496094 L 69.003906 149.496094 L 69.003906 128.507812 Z M 129.71875 149.496094 L 129.71875 128.507812 L 108.820312 128.507812 C 111.789062 135.253906 113.605469 142.121094 111.652344 149.496094 Z M 129.71875 149.496094 "/>
<path style=" stroke:none;fill-rule:nonzero;fill:rgb(100%,0%,0.784314%);fill-opacity:1;" d="M 67.035156 109.285156 C 67.035156 105.394531 69.671875 102.628906 73.40625 102.628906 C 77.140625 102.628906 80.015625 105.519531 80.039062 109.441406 C 80.0625 113.359375 77.394531 116.082031 73.652344 116.082031 C 69.914062 116.082031 67.050781 113.242188 67.035156 109.285156 Z M 67.035156 109.285156 "/>
</g>
</svg>
