<?xml version="1.0" encoding="UTF-8"?>
<svg xmlns="http://www.w3.org/2000/svg" xmlns:xlink="http://www.w3.org/1999/xlink" width="px" height="px" viewBox="0 0 230 267" version="1.1">
<g id="surface1">
<path style=" stroke:none;fill-rule:nonzero;fill:rgb(100%,0%,0.784314%);fill-opacity:1;" d="M 256.824219 250.585938 C 256.582031 251.132812 256.34375 251.671875 256.074219 252.25 L 255.320312 252.101562 C 254.910156 251.96875 254.472656 252.183594 254.324219 252.585938 C 254.019531 253.203125 253.769531 253.84375 253.570312 254.5 C 253.535156 254.835938 253.625 255.179688 253.820312 255.457031 C 254.035156 255.71875 254.289062 255.945312 254.570312 256.132812 C 250.664062 265.804688 246.757812 275.46875 242.851562 285.121094 C 242.308594 285.023438 241.75 285.011719 241.199219 285.085938 C 240.914062 285.167969 240.710938 285.691406 240.554688 286.050781 C 239.804688 287.789062 239.804688 287.789062 241.199219 289.050781 C 241.082031 289.386719 240.960938 289.800781 240.816406 290.128906 C 240.675781 290.460938 240.515625 290.773438 240.34375 291.148438 C 240.097656 291.074219 239.902344 291.035156 239.722656 290.96875 C 225.292969 285.160156 211.375 278.152344 198.117188 270.027344 C 189.605469 264.789062 181.464844 258.976562 173.75 252.632812 C 165.300781 245.699219 157.492188 238.023438 150.410156 229.707031 C 141.222656 218.855469 133.476562 206.863281 127.375 194.027344 C 123.355469 185.605469 119.863281 176.96875 116.234375 168.375 C 115.542969 166.738281 114.847656 165.105469 114.066406 163.285156 C 113.726562 163.785156 113.488281 164.132812 113.269531 164.492188 C 108.289062 172.429688 103.503906 180.484375 98.3125 188.289062 C 73.523438 225.867188 39.929688 256.851562 0.441406 278.566406 C 0.0976562 278.757812 -0.21875 279.007812 -0.558594 279.222656 L -0.796875 279.222656 L -1.902344 277.148438 L -1.519531 276.824219 C -0.65625 276.121094 -0.617188 275.964844 -1.105469 274.996094 C -1.195312 274.816406 -1.292969 274.644531 -1.390625 274.464844 C -2.140625 273.125 -2.140625 273.125 -3.644531 273.453125 C -3.710938 273.453125 -3.792969 273.453125 -3.96875 273.386719 C -8.925781 264.28125 -13.917969 255.121094 -18.890625 246 C -17.75 244.964844 -17.742188 244.925781 -18.425781 243.667969 C -18.597656 243.347656 -18.785156 243.039062 -18.96875 242.714844 C -19.160156 242.296875 -19.617188 242.066406 -20.070312 242.160156 C -20.34375 242.207031 -20.621094 242.230469 -20.824219 242.25 L -22.234375 240.347656 L -22.234375 240.109375 C -21.855469 239.996094 -21.484375 239.855469 -21.125 239.6875 C -6.019531 231.382812 8.113281 221.429688 21.015625 210.007812 C 32.984375 199.441406 43.839844 187.679688 53.410156 174.910156 C 59.179688 167.203125 64.347656 159.101562 69.417969 150.925781 C 75.613281 140.925781 81.871094 130.964844 88.097656 120.992188 C 88.203125 120.820312 88.292969 120.644531 88.40625 120.453125 C 88.261719 120.234375 88.144531 120.023438 88 119.835938 C 81.722656 111.808594 75.367188 103.851562 68.652344 96.183594 C 61.300781 87.765625 52.738281 80.484375 43.25 74.574219 C 36.878906 70.601562 30.480469 66.652344 24.140625 62.644531 C 16.554688 57.988281 9.40625 52.664062 2.769531 46.738281 C 0.148438 44.296875 -2.375 41.671875 -4.9375 39.125 C -5.160156 38.898438 -5.347656 38.636719 -5.6875 38.269531 L -3.695312 36.824219 C -3.277344 37.0625 -2.699219 37.65625 -2.128906 37.640625 C -1.554688 37.625 -1.039062 37.03125 -0.570312 36.605469 C 0.351562 35.757812 0.328125 35.660156 -0.773438 33.960938 L 22.929688 13.230469 C 24.085938 13.976562 24.183594 13.976562 25.183594 13.0625 L 25.710938 12.5625 C 26.605469 11.699219 26.605469 11.699219 26.078125 10.53125 L 27.835938 9.152344 C 27.929688 9.199219 28.019531 9.257812 28.097656 9.332031 C 32.785156 14.347656 38.09375 18.75 43.894531 22.433594 C 50.1875 26.523438 56.597656 30.445312 62.957031 34.425781 C 69.636719 38.523438 76.082031 42.988281 82.269531 47.796875 C 88.320312 52.664062 93.988281 57.980469 99.230469 63.707031 C 104.554688 69.457031 109.542969 75.496094 114.464844 81.589844 C 114.816406 82.023438 115.175781 82.453125 115.605469 82.960938 C 115.972656 82.527344 116.265625 82.210938 116.535156 81.867188 C 127.066406 68.769531 138.46875 56.394531 150.667969 44.828125 C 165.730469 30.472656 182.332031 17.8125 200.175781 7.082031 C 204.679688 4.382812 209.34375 1.875 214.070312 -0.800781 L 215.257812 1.378906 C 215.210938 1.515625 215.210938 1.625 215.160156 1.65625 C 213.996094 2.40625 213.753906 2.5625 214.601562 4.113281 C 214.625 4.152344 214.640625 4.1875 214.65625 4.226562 C 215.40625 5.644531 215.472656 5.671875 217.164062 5.113281 C 221.957031 14.40625 226.75 23.722656 231.667969 33.269531 C 231.480469 33.339844 231.300781 33.414062 231.121094 33.503906 C 230.875 33.613281 230.6875 33.824219 230.613281 34.082031 C 230.539062 34.339844 230.582031 34.621094 230.730469 34.84375 C 230.902344 35.210938 231.089844 35.59375 231.285156 35.921875 C 231.917969 37.109375 231.960938 37.121094 233.402344 36.71875 L 234.484375 38.742188 C 234.09375 38.972656 233.800781 39.167969 233.488281 39.332031 C 217.160156 47.957031 201.945312 58.527344 188.171875 70.8125 C 171.367188 85.59375 156.625 102.246094 143.140625 120.0625 L 142.636719 120.765625 C 142.6875 120.921875 142.75 121.074219 142.824219 121.222656 C 148.269531 130.515625 152.671875 140.3125 156.863281 150.214844 C 160.28125 158.277344 163.714844 166.328125 167.289062 174.316406 C 170.554688 181.492188 174.585938 188.292969 179.308594 194.605469 C 182.523438 198.945312 186.011719 203.074219 189.757812 206.964844 C 198.972656 216.421875 209.3125 224.714844 220.550781 231.660156 C 231.726562 238.605469 243.476562 244.585938 255.675781 249.527344 C 256.089844 249.703125 256.480469 249.917969 256.875 250.113281 Z M 68.261719 46.085938 L 51.277344 71.007812 C 51.742188 71.335938 52.074219 71.578125 52.40625 71.800781 C 57.734375 75.449219 62.734375 79.558594 67.34375 84.078125 C 72.859375 89.644531 78.070312 95.503906 82.953125 101.632812 C 84.457031 103.421875 85.867188 105.222656 87.40625 107.125 L 110.863281 88.386719 C 110.632812 88.066406 110.480469 87.832031 110.308594 87.636719 C 106.5 83.035156 102.796875 78.390625 98.878906 73.863281 C 92.613281 66.390625 85.628906 59.550781 78.027344 53.445312 C 74.871094 50.964844 71.609375 48.597656 68.261719 46.085938 Z M 207.273438 231.210938 L 189.75 255.628906 C 205.914062 267 223.347656 276.464844 241.695312 283.824219 L 253.089844 256.035156 C 236.914062 249.546875 221.539062 241.222656 207.273438 231.21875 Z M 205.160156 229.710938 C 191.5 219.578125 179.5625 207.976562 170.136719 193.804688 L 145.054688 210.375 C 156.480469 227.554688 170.8125 241.675781 187.285156 253.847656 Z M 65.683594 44.527344 C 64.234375 43.597656 62.949219 42.742188 61.652344 41.925781 C 55.011719 37.765625 48.324219 33.683594 41.738281 29.441406 C 35.152344 25.199219 29.058594 20.648438 23.742188 14.988281 C 23.636719 14.878906 23.5 14.789062 23.304688 14.621094 L 1.058594 34.917969 C 1.285156 35.054688 1.5 35.207031 1.703125 35.375 C 4.886719 38.792969 8.3125 41.984375 11.949219 44.917969 C 17.554688 49.414062 23.429688 53.558594 29.546875 57.328125 C 35.90625 61.324219 42.273438 65.308594 48.648438 69.277344 C 48.777344 69.359375 48.917969 69.417969 49.136719 69.53125 Z M 168.753906 191.714844 C 167.734375 190.011719 166.792969 188.496094 165.90625 186.953125 C 162.195312 180.300781 158.890625 173.433594 156 166.386719 C 152.90625 159.117188 149.820312 151.84375 146.746094 144.5625 C 146.566406 144.128906 146.339844 143.714844 146.117188 143.265625 L 118.828125 155.519531 C 118.917969 155.8125 118.953125 155.96875 119.015625 156.113281 C 122.558594 164.46875 126.066406 172.839844 129.664062 181.175781 C 133.320312 189.976562 137.671875 198.472656 142.683594 206.582031 C 142.914062 206.949219 143.164062 207.332031 143.433594 207.722656 Z M 44.171875 239.5625 L 24.359375 216.84375 C 11.519531 228.015625 -2.476562 237.789062 -17.390625 246 L -2.855469 272.375 C 13.949219 263.140625 29.714844 252.140625 44.171875 239.5625 Z M 84.914062 195.386719 L 60.5625 177.628906 C 50.46875 191.328125 38.972656 203.9375 26.25 215.246094 L 46.296875 237.730469 C 60.625 225.007812 73.566406 210.8125 84.914062 195.386719 Z M 186.144531 63.289062 C 179.53125 55.621094 173.035156 48.066406 166.480469 40.449219 C 152.195312 52.808594 138.945312 66.3125 126.855469 80.816406 L 150.015625 100.132812 C 161.046875 86.90625 173.128906 74.582031 186.144531 63.289062 Z M 148.242188 101.984375 C 140.578125 95.683594 132.867188 89.339844 125.105469 82.953125 C 113.285156 97.359375 102.308594 112.433594 92.230469 128.105469 C 100.730469 133.566406 109.113281 139 117.4375 144.324219 C 122.492188 137.058594 127.320312 129.851562 132.421875 122.84375 C 137.523438 115.835938 142.863281 109.015625 148.242188 101.984375 Z M 90.660156 130.597656 C 80.96875 145.589844 72.421875 161.132812 62.035156 175.605469 L 86.527344 193.105469 C 97.316406 178.191406 106.140625 162.214844 116.046875 146.789062 Z M 188.011719 61.644531 C 200.992188 50.730469 215.089844 41.214844 230.078125 33.261719 C 225.410156 24.34375 220.792969 15.523438 216.113281 6.589844 C 199.171875 15.554688 183.234375 26.296875 168.574219 38.636719 Z M 121.914062 150.601562 L 122.125 150.789062 L 144.695312 140.296875 C 143.839844 137.832031 138.957031 128.375 137.875 127.09375 C 132.328125 134.800781 127.019531 142.640625 121.953125 150.601562 Z M 92.734375 113.878906 L 104.433594 97.34375 L 104.308594 97.210938 L 89.097656 109.261719 Z M 3.808594 43.90625 C 4.558594 43.90625 6.164062 42.585938 6.203125 41.800781 C 6.199219 41.484375 6.085938 41.175781 5.878906 40.9375 C 5.488281 40.480469 5.054688 40.058594 4.589844 39.679688 C 3.835938 39.046875 3.671875 39.070312 2.859375 39.746094 C 2.558594 39.945312 2.265625 40.160156 1.988281 40.390625 C 1.761719 40.589844 1.589844 40.851562 1.5 41.140625 C 1.320312 42.179688 2.769531 43.851562 3.808594 43.90625 Z M 139.761719 204.183594 C 139.519531 203.148438 138.976562 202.207031 138.199219 201.480469 C 137.980469 201.398438 137.742188 201.398438 137.523438 201.480469 C 136.996094 201.667969 136.484375 201.929688 135.976562 202.152344 C 135.464844 202.378906 135.113281 202.738281 135.285156 203.277344 C 135.53125 204.042969 135.855469 204.777344 136.253906 205.472656 C 136.378906 205.714844 136.601562 205.886719 136.863281 205.957031 C 137.125 206.027344 137.40625 205.984375 137.636719 205.839844 C 138.207031 205.542969 138.761719 205.203125 139.289062 204.828125 C 139.492188 204.648438 139.664062 204.429688 139.789062 204.183594 Z M 10.535156 49.683594 C 11.371094 49.742188 12.789062 48.453125 12.859375 47.546875 C 12.925781 46.640625 11.402344 45.300781 10.355469 45.253906 C 9.703125 45.21875 8.359375 46.851562 8.328125 47.726562 C 8.296875 48.453125 9.605469 49.609375 10.535156 49.683594 Z M 87.828125 60.632812 C 88.960938 60.46875 89.867188 59.605469 90.082031 58.484375 C 89.902344 57.375 89.035156 56.503906 87.925781 56.316406 C 87.175781 56.316406 85.628906 57.703125 85.589844 58.386719 C 85.722656 59.5625 86.648438 60.496094 87.828125 60.632812 Z M 81.820312 55.058594 C 82.570312 55.058594 84.003906 53.6875 83.996094 52.9375 C 84.007812 52.777344 83.964844 52.613281 83.878906 52.480469 C 83.214844 51.664062 82.515625 50.703125 81.421875 50.679688 C 80.472656 50.679688 80.070312 51.714844 79.558594 52.417969 C 79.535156 52.453125 79.515625 52.492188 79.503906 52.53125 C 79.472656 52.761719 79.472656 52.992188 79.503906 53.222656 C 79.855469 54.222656 80.75 54.9375 81.804688 55.058594 Z M 93.835938 61.914062 C 93.453125 62.140625 93.082031 62.390625 92.734375 62.664062 C 91.148438 64.089844 91.148438 64.523438 92.671875 65.941406 C 93.621094 66.808594 93.957031 66.800781 94.925781 65.894531 C 96.472656 64.398438 96.480469 64.082031 94.886719 62.648438 C 94.539062 62.382812 94.175781 62.140625 93.800781 61.914062 Z M 168.25 244.222656 C 168.609375 243.996094 168.949219 243.746094 169.273438 243.472656 C 170.871094 241.78125 170.851562 241.507812 169.109375 240.046875 C 168.234375 239.296875 168.101562 239.335938 167.222656 240.175781 C 166.960938 240.421875 166.644531 240.617188 166.375 240.859375 C 166.117188 241.003906 165.941406 241.261719 165.902344 241.554688 C 165.859375 241.847656 165.957031 242.144531 166.164062 242.355469 C 166.539062 242.890625 166.960938 243.394531 167.425781 243.855469 C 167.683594 244.011719 167.960938 244.136719 168.25 244.222656 Z M 162.496094 233.78125 C 162.210938 233.863281 161.933594 233.984375 161.679688 234.132812 C 161.203125 234.507812 160.746094 234.910156 160.320312 235.339844 C 160.117188 235.519531 160 235.773438 160 236.042969 C 160 236.3125 160.117188 236.566406 160.320312 236.742188 C 160.714844 237.203125 161.136719 237.640625 161.582031 238.054688 C 162.183594 238.578125 162.421875 238.542969 163.023438 238.007812 C 163.269531 237.800781 163.519531 237.597656 163.773438 237.402344 C 164.714844 236.652344 164.796875 236.285156 164.148438 235.25 C 163.917969 234.878906 163.636719 234.535156 163.316406 234.230469 C 163.066406 234.046875 162.789062 233.894531 162.496094 233.78125 Z M 151.285156 226.289062 C 151.542969 226.195312 151.792969 226.082031 152.035156 225.949219 C 152.367188 225.71875 152.6875 225.46875 152.988281 225.199219 C 153.578125 224.859375 153.804688 224.128906 153.515625 223.515625 C 153.152344 222.703125 152.761719 221.867188 151.71875 221.746094 C 151.519531 221.738281 151.316406 221.777344 151.132812 221.859375 C 149.066406 222.644531 148.765625 223.835938 150.214844 225.464844 C 150.371094 225.652344 150.539062 225.824219 150.726562 225.980469 C 150.902344 226.09375 151.089844 226.191406 151.285156 226.265625 Z M 144.066406 135.53125 C 145.183594 135.636719 146.550781 134.59375 146.609375 133.597656 C 146.609375 132.847656 145.558594 131.347656 144.90625 131.265625 C 144.253906 131.183594 142.324219 132.457031 142.253906 133.101562 C 142.230469 134.230469 142.976562 135.230469 144.066406 135.53125 Z M 145.867188 219.316406 C 146.558594 219.355469 146.617188 219.316406 147.746094 218.441406 C 148.667969 217.691406 148.75 217.390625 148.121094 216.417969 C 146.6875 214.167969 146.402344 214.679688 144.734375 215.878906 C 144.398438 216.050781 144.160156 216.367188 144.089844 216.734375 C 144.015625 217.105469 144.117188 217.488281 144.367188 217.773438 C 144.605469 218.195312 144.898438 218.585938 145.238281 218.933594 C 145.421875 219.097656 145.636719 219.226562 145.867188 219.316406 Z M 182.785156 252.109375 C 182.785156 252.039062 182.785156 251.824219 182.679688 251.742188 C 182.039062 251.09375 181.300781 250.542969 180.496094 250.113281 C 179.742188 249.8125 179.414062 250.773438 178.992188 251.246094 C 178.800781 251.453125 178.632812 251.683594 178.488281 251.925781 C 178.375 252.09375 178.296875 252.28125 178.265625 252.480469 C 178.226562 253.171875 180.328125 254.730469 180.984375 254.542969 C 181.804688 253.921875 182.429688 253.074219 182.777344 252.109375 Z M 127.839844 188.761719 C 128.125 189.457031 128.367188 190.191406 128.710938 190.859375 C 128.925781 191.285156 129.441406 191.464844 129.875 191.269531 C 130.515625 191.015625 131.152344 190.753906 131.761719 190.445312 C 131.972656 190.363281 132.144531 190.199219 132.234375 189.988281 C 132.324219 189.777344 132.324219 189.539062 132.234375 189.328125 C 131.972656 188.695312 131.667969 188.078125 131.332031 187.480469 C 131.25 187.285156 131.089844 187.140625 130.890625 187.070312 C 130.691406 187.003906 130.472656 187.019531 130.289062 187.117188 L 128.703125 187.710938 C 128.242188 187.875 127.910156 188.277344 127.839844 188.761719 Z M 193.144531 263.613281 C 193.34375 263.59375 193.535156 263.535156 193.714844 263.441406 C 194.53125 262.941406 195.097656 262.128906 195.285156 261.191406 C 195.425781 260.292969 194.53125 260.058594 193.949219 259.640625 C 193.695312 259.433594 193.402344 259.292969 193.082031 259.226562 C 192.777344 259.203125 192.476562 259.292969 192.234375 259.484375 C 191.824219 259.871094 191.457031 260.308594 191.144531 260.777344 C 190.96875 261.042969 190.875 261.355469 190.882812 261.671875 C 190.933594 262.488281 192.210938 263.582031 193.121094 263.613281 Z M 174.28125 249.371094 C 175.390625 249.222656 176.273438 248.378906 176.46875 247.28125 C 176.398438 246.148438 175.511719 245.234375 174.378906 245.121094 C 173.6875 245.121094 172.128906 246.5625 172.128906 247.25 C 172.269531 248.359375 173.148438 249.226562 174.261719 249.355469 Z M 154.234375 229.960938 C 154.886719 230.710938 155.371094 231.390625 155.933594 231.945312 C 156.183594 232.1875 156.535156 232.296875 156.878906 232.246094 C 158.710938 231.496094 159.574219 230.492188 158.125 228.730469 C 158.019531 228.601562 157.929688 228.476562 157.816406 228.363281 C 157.21875 227.765625 156.804688 227.679688 156.113281 228.214844 C 155.421875 228.746094 154.925781 229.269531 154.210938 229.945312 Z M 26.175781 57.042969 C 26.0625 56.699219 26.0625 56.4375 25.933594 56.347656 C 25.230469 55.835938 24.492188 55.351562 23.742188 54.90625 C 23.550781 54.84375 23.339844 54.882812 23.1875 55.011719 C 22.589844 55.609375 22.082031 56.285156 21.683594 57.027344 C 21.339844 57.867188 22.222656 58.273438 22.75 58.722656 C 23.277344 59.171875 23.847656 59.757812 24.441406 59.246094 C 25.09375 58.574219 25.675781 57.835938 26.175781 57.042969 Z M 104.292969 78.441406 C 104.675781 78.285156 105.042969 78.097656 105.398438 77.878906 C 107.0625 76.710938 107.101562 76.222656 105.703125 74.746094 C 104.953125 73.9375 104.722656 73.921875 103.78125 74.589844 C 103.585938 74.730469 103.367188 74.851562 103.164062 74.988281 C 102.347656 75.527344 102.191406 75.847656 102.363281 76.554688 C 102.546875 77.511719 103.296875 78.257812 104.253906 78.441406 Z M 197.859375 265.964844 C 197.996094 266.394531 198.171875 266.808594 198.386719 267.203125 C 198.886719 267.863281 199.738281 268.160156 200.542969 267.953125 C 201.179688 267.667969 202.308594 266.09375 202.238281 265.5625 C 202.089844 264.257812 200.097656 263.3125 199.128906 264.136719 C 198.621094 264.691406 198.179688 265.304688 197.824219 265.964844 Z M 206.355469 267.683594 C 206.121094 267.847656 205.898438 268.03125 205.695312 268.238281 C 205.433594 268.542969 205.222656 268.890625 204.988281 269.21875 C 204.679688 269.527344 204.535156 269.964844 204.605469 270.398438 C 204.671875 270.828125 204.945312 271.203125 205.335938 271.398438 C 205.632812 271.605469 205.957031 271.777344 206.296875 271.910156 C 207.046875 272.210938 207.609375 272.171875 207.925781 271.640625 C 208.367188 270.890625 209.074219 270.246094 208.894531 269.25 C 208.886719 269.207031 208.863281 269.171875 208.835938 269.144531 C 208.144531 268.4375 207.273438 267.929688 206.316406 267.683594 Z M 228.136719 278.925781 C 227.476562 278.777344 226.796875 279.082031 226.464844 279.675781 C 226.277344 280.027344 226.132812 280.421875 225.960938 280.777344 C 225.71875 281.277344 225.53125 281.832031 226.109375 282.175781 C 226.921875 282.664062 227.710938 283.316406 228.777344 283.023438 C 228.820312 283.019531 228.855469 282.996094 228.882812 282.964844 C 229.296875 282.238281 229.664062 281.488281 229.988281 280.714844 C 230 280.355469 229.847656 280.011719 229.566406 279.785156 C 229.101562 279.449219 228.609375 279.152344 228.09375 278.902344 Z M 215.941406 273.5 C 215.789062 273.191406 215.753906 272.9375 215.609375 272.855469 C 214.882812 272.417969 214.132812 272.03125 213.355469 271.691406 C 213.167969 271.617188 212.742188 271.847656 212.558594 272.058594 C 212.21875 272.507812 211.90625 272.980469 211.621094 273.46875 C 211.457031 273.652344 211.375 273.898438 211.394531 274.144531 C 211.414062 274.394531 211.535156 274.621094 211.726562 274.78125 C 212.292969 275.234375 212.902344 275.632812 213.542969 275.972656 C 213.769531 276.089844 214.296875 276.0625 214.414062 275.898438 C 214.972656 275.101562 215.414062 274.261719 215.894531 273.476562 Z M 74.382812 45.390625 C 74.03125 45.609375 73.699219 45.859375 73.390625 46.140625 C 72.152344 47.464844 72.226562 48.125 73.675781 49.136719 C 74.847656 49.976562 75.605469 49.886719 76.378906 48.621094 C 76.671875 48.148438 76.835938 47.605469 76.855469 47.054688 C 76.867188 46.648438 75.089844 45.425781 74.382812 45.390625 Z M 222.875 277.140625 C 222.753906 276.804688 222.738281 276.527344 222.609375 276.449219 C 221.871094 275.980469 221.078125 275.601562 220.246094 275.328125 C 219.492188 275.140625 219.492188 276.078125 219.101562 276.527344 L 219.035156 276.625 C 218.195312 277.890625 218.285156 278.210938 219.492188 279.042969 C 219.8125 279.289062 220.167969 279.476562 220.550781 279.597656 C 220.867188 279.675781 221.410156 279.644531 221.542969 279.449219 C 222.027344 278.703125 222.46875 277.933594 222.875 277.140625 Z M 185.820312 23.699219 C 185.742188 23.507812 185.648438 23.324219 185.550781 23.144531 C 185.347656 22.800781 185.097656 22.476562 184.902344 22.125 C 184.339844 21.113281 183.996094 20.984375 182.957031 21.464844 C 182.738281 21.570312 182.527344 21.6875 182.320312 21.816406 C 181.296875 22.46875 181.1875 22.988281 181.832031 24.066406 C 183.035156 26 183.972656 26.082031 185.429688 24.359375 C 185.574219 24.148438 185.703125 23.925781 185.820312 23.699219 Z M 171.40625 34.925781 C 171.636719 34.855469 171.863281 34.761719 172.074219 34.640625 C 172.496094 34.332031 172.898438 34 173.285156 33.644531 C 173.667969 33.277344 173.914062 32.78125 173.457031 32.378906 C 172.765625 31.761719 172.796875 30.210938 171.390625 30.5625 C 170.710938 30.8125 170.089844 31.191406 169.558594 31.679688 C 169.371094 31.816406 169.25 32.019531 169.21875 32.246094 C 169.1875 32.472656 169.25 32.699219 169.394531 32.878906 C 169.851562 33.488281 170.363281 34.066406 170.894531 34.625 C 171.046875 34.753906 171.21875 34.855469 171.40625 34.925781 Z M 207.496094 6.25 C 207.574219 6.609375 207.675781 6.957031 207.804688 7.300781 C 208.894531 9.503906 209.082031 9.511719 211.148438 8.238281 C 211.898438 7.789062 211.898438 7.585938 211.523438 6.738281 C 211.34375 6.332031 211.207031 5.90625 211.027344 5.5 C 210.855469 4.960938 210.300781 4.636719 209.742188 4.75 C 209.21875 4.828125 208.707031 5 208.242188 5.253906 C 207.941406 5.542969 207.691406 5.878906 207.496094 6.25 Z M 234.757812 282.066406 C 233.75 281.96875 232.992188 282.957031 232.863281 284.539062 C 232.804688 285.289062 233.929688 286.148438 235.160156 286.269531 C 235.875 286.335938 236.828125 285.0625 236.972656 283.855469 C 237.078125 282.933594 236.136719 282.175781 234.757812 282.035156 Z M 70.898438 219.257812 C 70.898438 219.191406 70.898438 218.988281 70.769531 218.898438 C 70.125 218.304688 69.460938 217.714844 68.78125 217.167969 C 68.601562 217.082031 68.394531 217.082031 68.214844 217.167969 C 67.410156 217.5625 66.796875 218.261719 66.511719 219.113281 C 66.285156 219.863281 68.214844 221.648438 68.996094 221.476562 C 69.882812 220.996094 70.558594 220.203125 70.898438 219.257812 Z M 140.4375 128.464844 C 141.332031 128.359375 142.152344 127.925781 142.742188 127.25 C 143.277344 126.582031 142.628906 125.886719 142.300781 125.253906 C 142.203125 125.078125 142.09375 124.90625 141.96875 124.746094 C 141.84375 124.484375 141.609375 124.289062 141.332031 124.210938 C 141.050781 124.128906 140.75 124.175781 140.503906 124.332031 C 139.882812 124.625 139.351562 125.074219 138.957031 125.636719 C 138.542969 126.105469 138.503906 126.789062 138.859375 127.300781 C 139.117188 127.960938 139.730469 128.410156 140.4375 128.464844 Z M 133.1875 198.675781 C 133.652344 198.527344 134.066406 198.375 134.496094 198.257812 C 135.207031 198.113281 135.710938 197.480469 135.699219 196.757812 C 135.683594 195.851562 135.25 195.003906 134.527344 194.464844 C 134.308594 194.359375 134.054688 194.359375 133.835938 194.464844 C 133.03125 194.898438 132.257812 195.386719 131.476562 195.859375 C 131.753906 196.5625 132.015625 197.265625 132.308594 197.964844 C 132.363281 198.121094 132.460938 198.257812 132.585938 198.359375 C 132.78125 198.480469 132.980469 198.585938 133.1875 198.675781 Z M 145.753906 139.960938 C 145.742188 140.929688 146.132812 141.859375 146.828125 142.53125 C 147.386719 143.117188 148.03125 142.488281 148.617188 142.285156 C 148.808594 142.21875 148.996094 142.132812 149.171875 142.035156 C 150.027344 141.585938 150.171875 141.289062 149.878906 140.386719 C 149.777344 140.078125 149.648438 139.78125 149.496094 139.496094 C 148.917969 138.402344 148.632812 138.304688 147.46875 138.820312 C 147.050781 138.984375 146.648438 139.179688 146.265625 139.40625 C 146.066406 139.5625 145.894531 139.75 145.753906 139.960938 Z M 57.933594 232.589844 C 58.128906 232.554688 58.285156 232.589844 58.355469 232.5 C 58.945312 231.917969 59.539062 231.332031 60.097656 230.71875 C 60.195312 230.542969 60.195312 230.328125 60.097656 230.15625 C 59.601562 229.53125 59.066406 228.933594 58.511719 228.355469 C 58.359375 228.222656 58.152344 228.167969 57.957031 228.207031 C 57.097656 228.304688 56.34375 228.828125 55.957031 229.601562 C 55.71875 230.265625 55.941406 231.007812 56.507812 231.4375 C 56.738281 231.703125 56.992188 231.953125 57.257812 232.1875 C 57.46875 232.34375 57.695312 232.480469 57.933594 232.589844 Z M 189.890625 21.234375 C 190.320312 20.964844 190.921875 20.632812 191.460938 20.230469 C 192.210938 19.660156 192.210938 19.425781 191.738281 18.640625 C 191.5 18.265625 191.332031 17.851562 191.085938 17.484375 C 190.949219 17.246094 190.746094 17.050781 190.5 16.921875 C 189.867188 16.652344 187.984375 17.636719 187.742188 18.308594 C 187.503906 18.984375 188.960938 21.195312 189.890625 21.226562 Z M 127.441406 179.921875 C 127.007812 180.097656 126.5625 180.296875 126.105469 180.441406 C 124.738281 180.859375 124.601562 181.136719 124.980469 182.523438 C 125.054688 182.796875 125.148438 183.066406 125.257812 183.328125 C 125.648438 184.171875 126.007812 184.339844 126.894531 184.015625 C 127.308594 183.859375 127.710938 183.671875 128.117188 183.492188 C 128.667969 183.25 129.199219 182.914062 128.976562 182.230469 C 128.6875 181.378906 128.539062 180.394531 127.578125 179.9375 C 127.53125 179.929688 127.488281 179.925781 127.441406 179.921875 Z M 1.726562 271.421875 C 1.839844 271.710938 1.929688 272.007812 1.996094 272.3125 C 2.160156 273.097656 2.832031 273.671875 3.632812 273.707031 C 4.558594 273.859375 5.195312 273.167969 5.714844 272.464844 C 6.234375 271.757812 5.609375 271.339844 5.347656 270.824219 C 5.226562 270.613281 5.085938 270.414062 4.925781 270.230469 C 4.265625 269.414062 4.054688 269.324219 3.296875 269.59375 C 2.425781 269.789062 1.789062 270.535156 1.726562 271.421875 Z M 54.800781 235.582031 C 54.5 235.199219 54.207031 234.773438 53.863281 234.390625 C 52.5625 232.972656 52.441406 232.980469 51.074219 234.261719 C 50.039062 235.242188 50.023438 235.484375 50.957031 236.5625 C 52.34375 238.152344 53.394531 238.0625 54.523438 236.242188 C 54.632812 236.027344 54.726562 235.808594 54.800781 235.582031 Z M 35.453125 252.339844 C 36.445312 252.261719 37.25 251.507812 37.398438 250.527344 C 37.398438 249.722656 36.1875 248.164062 35.511719 248.105469 C 34.417969 248.0625 33.457031 248.828125 33.257812 249.902344 C 33.425781 251.085938 34.292969 252.046875 35.453125 252.339844 Z M 111.445312 82.144531 C 111.144531 81.226562 110.511719 80.453125 109.671875 79.980469 C 109.476562 79.929688 109.273438 79.949219 109.09375 80.039062 C 108.339844 80.585938 107.265625 81.019531 107.0625 81.988281 C 106.890625 82.804688 107.816406 83.335938 108.296875 83.949219 C 108.371094 84.046875 108.464844 84.125 108.574219 84.175781 C 108.710938 84.253906 108.867188 84.300781 109.023438 84.3125 C 109.988281 83.910156 110.820312 83.242188 111.414062 82.382812 C 111.429688 82.304688 111.441406 82.226562 111.445312 82.144531 Z M 12.316406 268.363281 C 12.398438 267.613281 11.144531 265.832031 10.535156 265.679688 C 10.457031 265.671875 10.375 265.671875 10.296875 265.679688 C 9.511719 265.71875 8.792969 266.121094 8.351562 266.769531 C 8.054688 267.320312 8.121094 267.992188 8.515625 268.476562 C 9.523438 270.296875 10.492188 270.425781 11.957031 268.917969 C 12.097656 268.746094 12.21875 268.5625 12.316406 268.363281 Z M 142.203125 208.40625 C 141.261719 208.800781 140.25 209.152344 139.722656 210.039062 C 139.199219 210.921875 140.054688 211.449219 140.421875 212.078125 C 140.667969 212.503906 141.082031 212.984375 141.585938 212.707031 C 142.433594 212.347656 143.183594 211.796875 143.78125 211.09375 C 144.261719 210.34375 143.402344 209.632812 143.027344 208.960938 C 142.9375 208.824219 142.820312 208.707031 142.683594 208.621094 C 142.53125 208.519531 142.371094 208.429688 142.203125 208.359375 Z M 154.4375 49.511719 C 155.300781 49.441406 156.070312 48.9375 156.472656 48.171875 C 156.835938 47.53125 156.472656 47.007812 156.082031 46.527344 C 155.828125 46.21875 155.550781 45.925781 155.25 45.660156 C 154.601562 45.082031 154.242188 45.074219 153.550781 45.660156 C 153.332031 45.835938 153.128906 46.03125 152.9375 46.238281 C 152.085938 47.128906 152.085938 47.421875 152.9375 48.363281 C 153.132812 48.617188 153.355469 48.855469 153.597656 49.070312 C 153.867188 49.238281 154.148438 49.386719 154.4375 49.511719 Z M 145.941406 57.945312 C 145.757812 57.585938 145.546875 57.246094 145.304688 56.925781 C 143.871094 55.261719 143.433594 55.273438 142.007812 56.96875 C 141.390625 57.71875 141.398438 57.882812 142.050781 58.582031 C 142.269531 58.820312 142.472656 59.074219 142.667969 59.328125 C 143.035156 59.792969 143.417969 60.199219 144.09375 59.980469 C 145.039062 59.691406 145.746094 58.910156 145.941406 57.945312 Z M 96.976562 70.289062 C 97.976562 72.648438 99.230469 72.964844 100.859375 71.398438 C 101.144531 71.195312 101.335938 70.886719 101.390625 70.539062 C 101.445312 70.195312 101.359375 69.84375 101.152344 69.5625 C 100.929688 69.21875 100.679688 68.894531 100.402344 68.59375 C 99.757812 67.898438 99.367188 67.84375 98.644531 68.480469 C 98.066406 69.019531 97.5625 69.65625 96.976562 70.289062 Z M 154.453125 152.730469 C 153.558594 152.835938 152.726562 153.253906 152.109375 153.910156 C 151.90625 154.25 151.847656 154.65625 151.945312 155.039062 C 152.046875 155.429688 152.230469 155.792969 152.476562 156.113281 C 152.957031 156.824219 153.152344 156.863281 153.980469 156.515625 C 154.234375 156.394531 154.5 156.300781 154.777344 156.238281 C 156.007812 156.074219 156.277344 155.25 155.933594 154.074219 C 155.820312 153.335938 155.199219 152.78125 154.453125 152.746094 Z M 73.828125 215.628906 C 74.621094 215.632812 75.335938 215.148438 75.621094 214.40625 C 76.230469 213.296875 75.359375 212.773438 74.789062 212.160156 C 74.089844 211.410156 73.707031 211.28125 72.992188 211.582031 L 72.878906 211.636719 C 72.035156 212.015625 71.554688 212.917969 71.707031 213.832031 C 72.09375 214.726562 72.878906 215.390625 73.828125 215.628906 Z M 30.433594 59.03125 C 30.105469 59.128906 29.894531 59.128906 29.8125 59.234375 C 29.300781 59.890625 28.804688 60.566406 28.308594 61.265625 C 28.242188 61.410156 28.242188 61.582031 28.308594 61.726562 C 28.660156 62.558594 29.367188 63.191406 30.230469 63.453125 C 31.074219 63.714844 31.449219 63.015625 31.832031 62.457031 C 32.089844 62.09375 32.3125 61.707031 32.492188 61.300781 C 32.582031 61.070312 32.605469 60.632812 32.492188 60.550781 C 31.808594 59.960938 31.074219 59.488281 30.433594 59.03125 Z M 64.128906 38.6875 C 64.0625 38.53125 64.046875 38.328125 63.941406 38.253906 C 63.28125 37.789062 62.613281 37.347656 61.9375 36.914062 C 61.824219 36.871094 61.699219 36.871094 61.582031 36.914062 C 60.695312 37.480469 60.039062 38.347656 59.734375 39.355469 C 59.734375 40.105469 61.945312 41.542969 62.550781 41.085938 C 63.292969 40.453125 63.839844 39.621094 64.128906 38.6875 Z M 19.617188 52.507812 C 19.5 52.261719 19.355469 52.023438 19.191406 51.804688 C 18.894531 51.535156 18.585938 51.285156 18.257812 51.054688 C 17.109375 50.214844 16.671875 50.214844 15.75 51.355469 C 15.539062 51.585938 15.351562 51.839844 15.1875 52.105469 C 15.03125 52.320312 14.972656 52.59375 15.027344 52.851562 C 15.082031 53.113281 15.242188 53.339844 15.472656 53.476562 C 16.003906 53.84375 16.507812 54.226562 17.058594 54.578125 C 17.273438 54.707031 17.726562 54.8125 17.808594 54.707031 C 18.453125 54.03125 19.023438 53.265625 19.617188 52.507812 Z M 76.582031 207.746094 C 76.582031 208.496094 78.046875 209.992188 78.800781 209.992188 C 79.035156 209.96875 79.261719 209.875 79.445312 209.722656 C 81.171875 208.425781 81.15625 207.394531 79.445312 206.164062 C 79.308594 206.074219 79.183594 205.929688 79.039062 205.910156 C 78.707031 205.808594 78.355469 205.785156 78.011719 205.839844 C 77.191406 206.125 76.625 206.878906 76.582031 207.746094 Z M 94.183594 183.386719 C 94.1875 183.570312 94.226562 183.753906 94.296875 183.925781 C 94.796875 184.714844 95.578125 185.285156 96.480469 185.53125 C 96.644531 185.566406 96.8125 185.546875 96.960938 185.476562 C 97.746094 185.109375 98.285156 184.367188 98.390625 183.507812 C 98.570312 182.757812 97.945312 182.441406 97.433594 182.132812 C 97.019531 181.882812 96.582031 181.667969 96.128906 181.496094 C 95.90625 181.40625 95.660156 181.40625 95.4375 181.496094 C 94.738281 181.886719 94.269531 182.589844 94.183594 183.386719 Z M 43.714844 245.445312 C 43.324219 244.914062 42.964844 244.335938 42.503906 243.832031 C 42.316406 243.535156 42.015625 243.324219 41.667969 243.25 C 41.324219 243.171875 40.960938 243.238281 40.664062 243.429688 C 39.898438 243.746094 39.367188 244.457031 39.28125 245.28125 C 39.292969 245.4375 39.335938 245.59375 39.410156 245.738281 C 40.433594 247.777344 41.882812 247.949219 43.292969 246.1875 C 43.449219 245.949219 43.589844 245.699219 43.714844 245.445312 Z M 25.140625 259.863281 C 25.03125 258.863281 24.546875 257.941406 23.785156 257.277344 C 23.535156 257.160156 23.25 257.132812 22.984375 257.203125 C 21.128906 258 20.414062 258.703125 21.773438 260.496094 C 21.867188 260.628906 21.964844 260.753906 22.074219 260.875 C 22.496094 261.339844 23.160156 261.496094 23.742188 261.265625 C 24.414062 261.0625 24.9375 260.535156 25.140625 259.863281 Z M 83.101562 133.597656 C 83.09375 133.726562 83.09375 133.851562 83.101562 133.980469 C 83.222656 134.632812 85.027344 135.996094 85.695312 135.941406 C 85.808594 135.941406 85.972656 135.941406 86.023438 135.832031 C 86.542969 135.175781 86.988281 134.472656 87.355469 133.726562 C 87.609375 133.082031 86.800781 132.976562 86.445312 132.617188 C 86.332031 132.503906 86.199219 132.398438 86.078125 132.292969 C 85.613281 131.867188 85.09375 131.542969 84.449219 131.875 C 83.746094 132.195312 83.246094 132.839844 83.101562 133.597656 Z M 63.183594 222.683594 C 61.027344 223.6875 60.800781 224.929688 62.371094 226.429688 L 62.453125 226.519531 C 62.6875 226.808594 63.03125 226.984375 63.402344 227 C 63.773438 227.019531 64.136719 226.875 64.394531 226.609375 C 64.660156 226.421875 64.914062 226.210938 65.144531 225.980469 C 65.789062 225.304688 65.820312 224.878906 65.144531 224.21875 C 64.46875 223.558594 63.792969 223.160156 63.183594 222.683594 Z M 140.765625 63.324219 C 140.746094 63.191406 140.691406 63.066406 140.609375 62.957031 C 140.136719 62.417969 139.640625 61.886719 139.109375 61.375 C 138.957031 61.242188 138.765625 61.160156 138.566406 61.144531 C 137.921875 61.082031 136.378906 62.433594 136.3125 63.101562 C 136.246094 63.765625 138.125 65.640625 138.84375 65.5 C 139.738281 65.042969 140.421875 64.265625 140.765625 63.324219 Z M 130.746094 74.5 C 130.746094 74.425781 130.746094 74.214844 130.640625 74.132812 C 129.890625 73.503906 129.253906 72.632812 128.390625 72.355469 C 127.523438 72.078125 127.222656 73.164062 126.714844 73.707031 C 126.589844 73.8125 126.5 73.953125 126.457031 74.109375 C 126.414062 74.363281 126.339844 74.746094 126.457031 74.859375 C 127.058594 75.453125 127.691406 76.007812 128.359375 76.523438 C 128.535156 76.617188 128.742188 76.644531 128.9375 76.597656 C 129.792969 76.164062 130.445312 75.410156 130.746094 74.5 Z M 14.707031 263.425781 C 14.90625 264.257812 15.359375 265.003906 16.003906 265.570312 C 16.199219 265.710938 16.445312 265.75 16.671875 265.679688 C 17.277344 265.445312 17.847656 265.136719 18.378906 264.765625 C 18.660156 264.585938 18.84375 264.289062 18.882812 263.960938 C 18.921875 263.628906 18.8125 263.296875 18.582031 263.058594 C 18.351562 262.730469 18.097656 262.417969 17.832031 262.121094 C 17.476562 261.53125 16.730469 261.316406 16.117188 261.625 C 15.3125 261.867188 14.746094 262.585938 14.707031 263.425781 Z M 202.601562 12.953125 C 203.527344 12.820312 204.339844 12.265625 204.800781 11.453125 C 204.859375 11.308594 204.875 11.148438 204.839844 10.996094 C 204.554688 10.097656 203.996094 9.308594 203.238281 8.746094 C 203.109375 8.65625 202.953125 8.609375 202.796875 8.613281 C 201.804688 8.707031 200.984375 9.417969 200.746094 10.378906 C 200.675781 11.175781 201.683594 12.734375 202.359375 12.890625 C 202.4375 12.917969 202.519531 12.9375 202.601562 12.953125 Z M 29.148438 257.078125 C 29.648438 256.835938 30.132812 256.570312 30.597656 256.273438 C 31.636719 255.523438 31.695312 255.089844 30.953125 254.101562 C 30.765625 253.789062 30.542969 253.503906 30.285156 253.246094 C 29.992188 252.988281 29.628906 252.824219 29.238281 252.78125 C 28.421875 252.863281 27.703125 253.351562 27.324219 254.078125 C 26.902344 254.777344 27.324219 255.300781 27.738281 255.808594 C 27.867188 256.015625 28.011719 256.210938 28.164062 256.394531 C 28.480469 256.640625 28.808594 256.871094 29.148438 257.078125 Z M 106.011719 105.617188 C 106.277344 105.496094 106.53125 105.34375 106.765625 105.167969 C 107.011719 104.902344 107.238281 104.613281 107.433594 104.308594 C 108.144531 103.273438 108.125 103.144531 107.148438 102.367188 C 106.929688 102.1875 106.742188 101.976562 106.53125 101.789062 C 105.703125 101.039062 105.398438 101.039062 104.578125 101.789062 C 103.074219 103.128906 103.128906 103.648438 104.773438 104.832031 C 105.164062 105.109375 105.578125 105.347656 106.011719 105.617188 Z M 101.625 111.613281 C 101.78125 111.597656 101.933594 111.570312 102.085938 111.53125 C 102.804688 110.992188 103.332031 110.234375 103.585938 109.375 C 103.585938 108.667969 101.421875 107.058594 100.882812 107.453125 C 100.273438 107.96875 99.734375 108.5625 99.273438 109.214844 C 99.160156 109.425781 99.160156 109.679688 99.273438 109.890625 C 99.914062 110.632812 100.71875 111.214844 101.625 111.59375 Z M 150.449219 149.613281 C 151.523438 149.613281 152.980469 148.675781 152.988281 147.933594 C 152.988281 146.984375 152.070312 145.613281 151.417969 145.621094 C 150.050781 145.621094 148.863281 146.414062 148.835938 147.328125 C 148.804688 148.242188 149.789062 149.578125 150.480469 149.589844 Z M 53.480469 35.414062 C 53.675781 36.171875 54.238281 36.78125 54.980469 37.03125 C 55.632812 37.367188 56.4375 37.113281 56.777344 36.464844 C 57.289062 35.714844 58.097656 35.03125 57.429688 33.972656 C 57.371094 33.867188 57.285156 33.773438 57.183594 33.703125 C 56.699219 33.417969 56.199219 33.167969 55.679688 32.957031 C 55.410156 32.898438 55.132812 32.972656 54.929688 33.15625 C 54.359375 33.898438 53.921875 34.671875 53.480469 35.414062 Z M 131.394531 68.699219 C 131.316406 69.5625 131.933594 70.011719 132.496094 70.46875 C 132.824219 70.816406 133.292969 70.996094 133.769531 70.960938 C 134.246094 70.925781 134.679688 70.679688 134.953125 70.289062 C 135.703125 69.417969 135.703125 68.863281 134.902344 67.980469 C 134.765625 67.828125 134.636719 67.671875 134.496094 67.523438 C 133.8125 66.773438 133.414062 66.652344 132.699219 66.953125 C 131.949219 67.210938 131.429688 67.90625 131.394531 68.699219 Z M 94.234375 189.523438 C 94.207031 189.402344 94.167969 189.285156 94.113281 189.171875 C 93.644531 188.355469 92.859375 187.765625 91.945312 187.539062 C 90.945312 187.34375 90.75 188.429688 90.269531 189.039062 C 89.921875 189.472656 89.734375 190.019531 90.222656 190.445312 C 90.785156 190.90625 91.382812 191.316406 92.011719 191.675781 C 92.230469 191.773438 92.472656 191.789062 92.703125 191.726562 C 93.457031 191.195312 93.996094 190.414062 94.234375 189.523438 Z M 177.609375 25.59375 C 176.859375 26.097656 176.339844 26.433594 175.84375 26.832031 C 175.152344 27.386719 175.09375 27.582031 175.515625 28.375 C 175.703125 28.777344 175.941406 29.152344 176.21875 29.492188 C 176.671875 30.042969 177.457031 30.179688 178.070312 29.816406 C 178.359375 29.671875 178.636719 29.503906 178.894531 29.3125 C 179.578125 28.804688 179.714844 28.375 179.253906 27.671875 C 178.796875 26.96875 178.210938 26.367188 177.59375 25.59375 Z M 162.429688 42.285156 C 162.371094 42.089844 162.289062 41.898438 162.183594 41.722656 C 161.953125 41.394531 161.703125 41.082031 161.429688 40.789062 C 160.550781 39.835938 160.019531 39.796875 159.058594 40.621094 C 158.800781 40.828125 158.578125 41.066406 158.390625 41.335938 C 158.078125 41.738281 158.078125 42.296875 158.390625 42.699219 C 158.800781 43.199219 159.246094 43.671875 159.71875 44.117188 C 159.871094 44.246094 160.066406 44.320312 160.265625 44.324219 C 160.890625 44.355469 162.390625 43.011719 162.429688 42.285156 Z M 106.304688 171.078125 C 106.183594 170.699219 106.179688 170.332031 106.003906 170.179688 C 105.515625 169.699219 104.976562 169.273438 104.398438 168.90625 C 103.820312 168.546875 103.355469 168.800781 102.609375 169.730469 C 101.867188 170.660156 101.859375 171.042969 102.242188 171.566406 C 102.289062 171.636719 102.347656 171.695312 102.414062 171.738281 C 103.023438 172.132812 103.664062 172.480469 104.332031 172.773438 C 104.707031 172.878906 105.109375 172.800781 105.417969 172.5625 C 105.773438 172.105469 106.070312 171.609375 106.304688 171.078125 Z M 112.359375 97.628906 C 112.261719 97.308594 112.261719 97.105469 112.164062 97.015625 C 111.5625 96.484375 110.957031 95.949219 110.300781 95.46875 C 110.074219 95.386719 109.824219 95.386719 109.59375 95.46875 C 108.625 95.839844 107.992188 96.78125 108.027344 97.816406 C 108.199219 98.519531 109.925781 99.75 110.570312 99.628906 C 110.65625 99.628906 110.753906 99.628906 110.796875 99.554688 C 111.316406 98.84375 111.863281 98.183594 112.359375 97.597656 Z M 88.945312 125.707031 C 88.761719 125.726562 88.582031 125.761719 88.40625 125.816406 C 87.648438 126.226562 87.117188 126.960938 86.972656 127.8125 C 86.746094 128.5625 87.496094 128.800781 87.976562 129.136719 C 88.292969 129.390625 88.640625 129.59375 89.015625 129.746094 C 89.324219 129.84375 89.832031 129.863281 90 129.683594 C 90.464844 129.132812 90.871094 128.535156 91.214844 127.902344 C 91.292969 127.71875 91.265625 127.507812 91.148438 127.347656 C 90.40625 126.722656 89.625 126.171875 88.945312 125.675781 Z M 97.210938 117.753906 C 97.378906 117.730469 97.546875 117.695312 97.710938 117.648438 C 98.617188 117.246094 99.179688 116.328125 99.125 115.339844 C 98.96875 114.695312 97.164062 113.414062 96.578125 113.535156 C 96.503906 113.535156 96.398438 113.570312 96.359375 113.632812 C 95.8125 114.261719 95.339844 114.957031 94.957031 115.699219 C 94.679688 116.375 95.542969 116.53125 95.933594 116.890625 C 96.136719 117.089844 96.351562 117.273438 96.578125 117.445312 C 96.78125 117.550781 96.992188 117.644531 97.210938 117.722656 Z M 148.871094 54.570312 C 149.859375 54.460938 150.730469 53.882812 151.214844 53.019531 C 151.277344 52.789062 151.246094 52.542969 151.125 52.335938 C 150.578125 51.695312 149.988281 51.085938 149.367188 50.515625 C 149.132812 50.394531 148.851562 50.394531 148.617188 50.515625 C 148.117188 50.929688 147.648438 51.371094 147.203125 51.84375 C 146.949219 52.125 146.949219 52.554688 147.203125 52.839844 C 147.550781 53.332031 147.925781 53.800781 148.332031 54.25 C 148.488281 54.390625 148.671875 54.5 148.871094 54.570312 Z M 83.734375 104.246094 C 83.546875 103.917969 83.339844 103.597656 83.117188 103.289062 C 82.230469 102.148438 81.878906 102.105469 80.765625 102.996094 C 80.382812 103.292969 80.019531 103.617188 79.679688 103.960938 C 79.519531 104.136719 79.425781 104.359375 79.40625 104.59375 C 79.746094 105.410156 80.332031 106.101562 81.082031 106.570312 C 81.742188 106.742188 83.742188 105.140625 83.726562 104.246094 Z M 83.320312 199.433594 C 83.171875 199.433594 82.953125 199.433594 82.871094 199.539062 C 82.359375 200.144531 81.863281 200.773438 81.367188 201.410156 C 81.300781 201.507812 81.367188 201.734375 81.421875 201.867188 C 81.8125 202.78125 82.640625 203.433594 83.621094 203.601562 C 84.484375 203.734375 84.777344 202.851562 85.222656 202.332031 C 85.351562 202.183594 85.449219 202.003906 85.5 201.808594 C 85.5625 201.621094 85.5625 201.414062 85.5 201.222656 C 85.03125 200.371094 84.246094 199.734375 83.3125 199.449219 Z M 198.363281 15.183594 C 198.003906 14.503906 197.679688 13.777344 197.246094 13.117188 C 197.121094 12.878906 196.890625 12.710938 196.625 12.667969 C 196.359375 12.621094 196.089844 12.703125 195.894531 12.882812 C 195.464844 13.183594 195.007812 13.445312 194.5625 13.722656 C 194.324219 13.804688 194.144531 14 194.082031 14.242188 C 194.019531 14.484375 194.082031 14.742188 194.246094 14.929688 C 194.601562 15.46875 194.945312 16.007812 195.308594 16.542969 C 195.53125 16.878906 195.824219 17.082031 196.222656 16.863281 C 196.792969 16.550781 197.351562 16.234375 197.882812 15.875 C 198.0625 15.738281 198.152344 15.507812 198.363281 15.183594 Z M 184.84375 256.964844 C 184.730469 258.269531 186.234375 259.476562 187.195312 259.0625 C 187.78125 258.816406 188.96875 257.1875 188.871094 256.664062 C 188.695312 255.773438 187.902344 255.441406 187.230469 255.007812 C 187.167969 254.957031 187.089844 254.925781 187.007812 254.917969 C 186.820312 254.917969 186.570312 254.878906 186.4375 254.976562 C 185.742188 255.488281 185.195312 256.175781 184.851562 256.964844 Z M 120.960938 170.234375 C 121.597656 169.960938 122.21875 169.65625 122.824219 169.316406 C 123.058594 169.097656 123.1875 168.792969 123.183594 168.472656 C 123.269531 167.800781 122.964844 167.140625 122.398438 166.773438 C 121.832031 166.40625 121.101562 166.394531 120.523438 166.746094 C 120.234375 166.890625 119.953125 167.054688 119.683594 167.234375 C 118.933594 167.757812 118.84375 168.035156 119.105469 168.867188 C 119.3125 169.710938 120.09375 170.285156 120.960938 170.234375 Z M 107.628906 162.59375 C 107.289062 162.761719 106.988281 162.804688 106.875 162.96875 C 106.394531 163.554688 106.035156 164.230469 105.816406 164.957031 C 105.710938 165.667969 106.605469 165.871094 107.132812 166.207031 C 108.558594 167.136719 108.941406 167.03125 109.746094 165.554688 C 109.875 165.351562 109.972656 165.128906 110.03125 164.894531 C 110.070312 164.671875 110.070312 164.328125 109.941406 164.222656 C 109.199219 163.644531 108.394531 163.121094 107.628906 162.59375 Z M 157.277344 159.371094 C 156.527344 159.726562 155.707031 160.0625 154.941406 160.503906 C 154.753906 160.609375 154.664062 161.074219 154.707031 161.335938 C 155.070312 163.351562 155.691406 163.683594 157.570312 162.917969 C 157.878906 162.816406 158.171875 162.675781 158.441406 162.496094 C 158.636719 162.339844 158.898438 161.996094 158.847656 161.832031 C 158.585938 161.078125 158.277344 160.347656 157.921875 159.636719 C 157.886719 159.507812 157.570312 159.484375 157.277344 159.371094 Z M 45.035156 68.480469 C 44.914062 68.246094 44.761719 68.027344 44.585938 67.828125 C 44.320312 67.589844 44.027344 67.386719 43.714844 67.214844 C 42.738281 66.660156 42.585938 66.699219 41.949219 67.582031 C 41.738281 67.882812 41.492188 68.152344 41.273438 68.4375 C 40.703125 69.1875 40.710938 69.546875 41.363281 70.21875 C 41.589844 70.460938 41.839844 70.671875 42.113281 70.855469 C 42.910156 71.410156 43.398438 71.328125 43.945312 70.542969 C 44.246094 70.113281 44.519531 69.664062 44.78125 69.207031 C 44.882812 68.972656 44.96875 68.730469 45.035156 68.480469 Z M 76.183594 152.222656 C 76.003906 151.953125 75.796875 151.703125 75.570312 151.472656 C 75.292969 151.242188 74.945312 151.097656 74.660156 150.875 C 73.542969 150.027344 73.226562 150.050781 72.363281 151.105469 C 72.179688 151.324219 72.015625 151.554688 71.875 151.800781 C 71.703125 152.011719 71.632812 152.289062 71.691406 152.554688 C 71.75 152.820312 71.921875 153.046875 72.167969 153.167969 C 72.722656 153.574219 73.316406 153.929688 73.941406 154.222656 C 74.1875 154.34375 74.691406 154.351562 74.824219 154.222656 C 75.316406 153.582031 75.769531 152.914062 76.183594 152.222656 Z M 116.175781 161.214844 C 116.128906 162.65625 116.851562 163.585938 117.789062 163.398438 C 118.535156 163.226562 119.253906 162.953125 119.921875 162.585938 C 120.507812 162.289062 120.449219 161.703125 120.195312 161.207031 C 119.878906 160.59375 119.839844 159.589844 118.925781 159.640625 C 118.128906 159.757812 117.363281 160.023438 116.671875 160.429688 C 116.378906 160.585938 116.265625 161.074219 116.175781 161.222656 Z M 70.355469 42.886719 C 70.261719 42.109375 69.746094 41.449219 69.011719 41.167969 C 68.351562 40.890625 67.585938 41.15625 67.238281 41.785156 C 65.878906 43.507812 66.058594 44.371094 67.992188 45.148438 C 68.246094 45.253906 68.527344 45.277344 68.792969 45.21875 C 69.253906 45.097656 70.363281 43.410156 70.371094 42.894531 Z M 81.542969 142.210938 C 81.785156 142.195312 82.023438 142.136719 82.246094 142.035156 C 82.878906 141.582031 83.277344 140.871094 83.328125 140.09375 C 83.417969 139.347656 82.816406 139.152344 82.34375 138.859375 C 82.03125 138.675781 81.703125 138.527344 81.359375 138.410156 C 80.527344 138.09375 80.285156 138.15625 79.761719 138.753906 C 79.179688 139.246094 79.027344 140.074219 79.394531 140.738281 C 79.921875 141.464844 80.6875 141.984375 81.554688 142.214844 Z M 99.664062 174.828125 C 99.175781 175.578125 98.773438 176.109375 98.433594 176.699219 C 98.296875 176.925781 98.257812 177.195312 98.328125 177.449219 C 98.722656 178.265625 99.480469 178.84375 100.371094 179.015625 C 101.347656 179.167969 101.875 178.46875 102.273438 177.765625 C 102.492188 177.535156 102.585938 177.21875 102.53125 176.90625 C 102.472656 176.59375 102.273438 176.328125 101.988281 176.191406 C 101.324219 175.734375 100.558594 175.382812 99.679688 174.835938 Z M 69.929688 156.164062 C 69.230469 156.339844 68.640625 156.808594 68.304688 157.445312 C 68.09375 157.652344 67.988281 157.941406 68.019531 158.238281 C 68.050781 158.53125 68.21875 158.792969 68.472656 158.945312 C 68.960938 159.367188 69.496094 159.734375 70.0625 160.046875 C 70.753906 160.445312 71.039062 160.355469 71.511719 159.738281 C 71.679688 159.5 71.832031 159.25 71.964844 158.992188 C 72.542969 157.976562 72.496094 157.851562 71.492188 157.167969 C 71.191406 156.964844 70.925781 156.703125 70.628906 156.503906 C 70.402344 156.375 70.167969 156.261719 69.929688 156.164062 Z M 37.277344 67.453125 C 37.769531 66.921875 38.226562 66.363281 38.652344 65.777344 C 38.851562 65.492188 38.929688 65.136719 38.867188 64.796875 C 38.804688 64.453125 38.609375 64.152344 38.320312 63.953125 C 38.042969 63.71875 37.75 63.507812 37.441406 63.316406 C 37.03125 63.015625 36.457031 63.085938 36.136719 63.480469 C 34.355469 65.125 34.542969 66.332031 36.75 67.304688 C 36.921875 67.363281 37.097656 67.414062 37.277344 67.453125 Z M 160.042969 166.125 C 159.964844 166.117188 159.886719 166.117188 159.808594 166.125 L 158.523438 166.484375 C 157.609375 166.777344 157.40625 167.0625 157.5625 167.984375 C 157.625 168.421875 157.753906 168.847656 157.945312 169.242188 C 158.027344 169.523438 158.234375 169.75 158.507812 169.855469 C 158.78125 169.960938 159.085938 169.933594 159.335938 169.78125 C 159.898438 169.582031 160.445312 169.332031 160.964844 169.035156 C 161.65625 168.621094 161.785156 168.285156 161.582031 167.648438 C 161.304688 166.738281 160.6875 166.140625 160.042969 166.125 Z M 250.867188 251.644531 C 250.867188 250.269531 250.523438 249.769531 249.441406 249.523438 C 248.359375 249.273438 248.109375 249.523438 247.652344 250.632812 C 247.480469 251.078125 247.335938 251.535156 247.226562 252.003906 C 247.105469 252.40625 247.273438 252.839844 247.636719 253.050781 C 248.132812 253.550781 248.886719 253.691406 249.53125 253.402344 C 250.199219 253.023438 250.683594 252.386719 250.867188 251.644531 Z M 46.996094 238.570312 L 46.71875 238.570312 C 45.886719 238.632812 44.910156 239.605469 44.96875 240.304688 C 45.027344 241 46.574219 242.785156 47.160156 242.65625 C 47.945312 242.445312 48.601562 241.914062 48.972656 241.195312 C 49.339844 240.574219 48.746094 240.167969 48.410156 239.742188 C 48.226562 239.46875 48.011719 239.214844 47.769531 238.992188 C 47.527344 238.828125 47.265625 238.6875 46.996094 238.570312 Z M 124.476562 173.132812 C 123.722656 173.425781 122.972656 173.679688 122.265625 174.023438 C 121.875 174.21875 121.792969 174.585938 121.9375 175.066406 C 122.628906 177.316406 122.988281 177.511719 125.136719 176.476562 C 125.285156 176.402344 125.488281 176.371094 125.566406 176.257812 C 125.730469 176.011719 125.984375 175.6875 125.933594 175.464844 C 125.769531 174.839844 125.535156 174.234375 125.234375 173.664062 C 125.128906 173.441406 124.835938 173.335938 124.476562 173.132812 Z M 87.316406 193.667969 C 87.128906 193.753906 86.953125 193.863281 86.800781 194 C 86.496094 194.324219 86.226562 194.675781 85.988281 195.046875 C 85.566406 195.746094 85.628906 196.054688 86.28125 196.609375 C 86.617188 196.890625 86.980469 197.15625 87.339844 197.417969 C 87.785156 197.804688 88.445312 197.828125 88.917969 197.46875 C 89.535156 197.128906 89.914062 196.480469 89.910156 195.777344 C 89.855469 195.144531 88.082031 193.660156 87.316406 193.667969 Z M 162.054688 92.800781 C 162.019531 92.652344 161.957031 92.507812 161.875 92.375 C 161.421875 91.851562 160.945312 91.347656 160.441406 90.875 C 159.90625 90.402344 159.199219 90.53125 158.472656 91.136719 C 158.167969 91.316406 157.953125 91.613281 157.882812 91.960938 C 157.8125 92.304688 157.894531 92.664062 158.101562 92.945312 C 158.441406 93.394531 158.832031 93.804688 159.269531 94.167969 C 159.652344 94.496094 160.070312 94.960938 160.640625 94.5625 C 161.308594 94.164062 161.8125 93.539062 162.054688 92.800781 Z M 122.929688 143.070312 C 123.324219 143.152344 123.734375 143.070312 124.070312 142.84375 C 124.40625 142.621094 124.636719 142.269531 124.707031 141.871094 C 125.007812 141.023438 124.910156 140.703125 124.09375 140.148438 C 123.726562 139.890625 123.339844 139.667969 122.9375 139.480469 C 122.183594 139.121094 121.867188 139.179688 121.328125 139.765625 C 120.78125 140.230469 120.617188 141 120.921875 141.648438 C 121.410156 142.402344 121.964844 143.109375 122.929688 143.070312 Z M 220.816406 235.417969 C 220.773438 234.753906 220.355469 234.171875 219.742188 233.917969 C 219.195312 233.597656 218.5 233.703125 218.074219 234.171875 C 217.75 234.535156 217.449219 234.914062 217.171875 235.3125 C 216.910156 235.605469 216.789062 235.996094 216.839844 236.382812 C 216.890625 236.773438 217.109375 237.117188 217.433594 237.335938 C 217.996094 237.921875 218.917969 237.957031 219.523438 237.417969 C 220.003906 236.785156 220.4375 236.117188 220.816406 235.417969 Z M 140.683594 113.113281 C 140.808594 113.46875 140.988281 113.804688 141.210938 114.109375 C 141.542969 114.460938 141.933594 114.753906 142.367188 114.972656 C 142.679688 115.207031 143.074219 115.300781 143.460938 115.230469 C 143.84375 115.160156 144.183594 114.929688 144.386719 114.597656 C 144.664062 114.296875 144.796875 113.890625 144.75 113.484375 C 144.703125 113.074219 144.484375 112.710938 144.148438 112.476562 L 143.457031 111.800781 C 143.101562 111.347656 142.488281 111.183594 141.953125 111.40625 C 141.242188 111.6875 140.75 112.351562 140.683594 113.113281 Z M 121.253906 147.132812 C 121.082031 146.773438 121.035156 146.488281 120.871094 146.382812 C 120.230469 145.898438 119.554688 145.457031 118.847656 145.070312 C 118.601562 144.964844 118.316406 144.96875 118.070312 145.085938 C 117.824219 145.203125 117.640625 145.417969 117.566406 145.679688 C 117.308594 146.25 116.582031 146.757812 117.085938 147.53125 C 117.128906 147.601562 117.1875 147.660156 117.257812 147.710938 C 117.859375 148.109375 118.453125 148.527344 119.089844 148.871094 C 119.300781 148.992188 119.75 149.023438 119.839844 148.871094 C 120.382812 148.324219 120.808594 147.703125 121.253906 147.132812 Z M 79.136719 98.695312 C 79.0625 98.101562 78.691406 97.585938 78.152344 97.320312 C 77.667969 96.984375 77.007812 97.054688 76.605469 97.488281 C 76.359375 97.695312 76.074219 97.855469 75.808594 98.042969 C 75.28125 98.304688 74.976562 98.875 75.058594 99.457031 C 75.132812 100.117188 75.570312 100.675781 76.191406 100.90625 C 77.328125 101.324219 79.105469 100.078125 79.136719 98.695312 Z M 155.128906 95.335938 C 154.535156 95.988281 154.039062 96.503906 153.582031 97.050781 C 153.4375 97.203125 153.367188 97.40625 153.378906 97.617188 C 153.394531 97.824219 153.496094 98.015625 153.65625 98.144531 C 154.175781 98.65625 154.734375 99.128906 155.324219 99.554688 C 155.589844 99.722656 155.921875 99.75 156.210938 99.621094 C 156.722656 99.171875 157.167969 98.652344 157.53125 98.078125 C 157.609375 97.777344 157.535156 97.457031 157.328125 97.222656 C 156.667969 96.585938 155.941406 96.023438 155.128906 95.335938 Z M 147.023438 105.828125 C 146.246094 105.832031 145.542969 106.289062 145.222656 106.996094 C 144.890625 107.589844 145.082031 108.339844 145.65625 108.699219 C 145.964844 108.953125 146.28125 109.203125 146.609375 109.449219 C 147.363281 110.003906 147.714844 109.972656 148.367188 109.261719 C 148.621094 109 148.835938 108.707031 149.015625 108.390625 C 149.144531 108.164062 149.183594 107.898438 149.128906 107.640625 C 148.621094 106.855469 147.886719 106.234375 147.023438 105.867188 Z M 62.597656 167.570312 C 61.867188 167.710938 61.234375 168.171875 60.878906 168.824219 C 60.648438 169.019531 60.53125 169.316406 60.566406 169.617188 C 60.597656 169.917969 60.777344 170.179688 61.042969 170.324219 C 61.617188 170.765625 62.214844 171.171875 62.839844 171.542969 C 63.195312 171.777344 63.675781 171.6875 63.925781 171.34375 C 64.082031 171.15625 64.226562 170.964844 64.363281 170.765625 C 65.113281 169.625 65.113281 169.492188 64.03125 168.652344 C 63.777344 168.457031 63.558594 168.214844 63.28125 168.023438 C 63.0625 167.859375 62.832031 167.710938 62.597656 167.570312 Z M 165.765625 35.226562 C 165.667969 35.214844 165.570312 35.214844 165.472656 35.226562 C 164.699219 35.496094 164.0625 36.058594 163.699219 36.792969 C 163.4375 37.371094 163.992188 37.738281 164.300781 38.140625 C 164.472656 38.367188 164.660156 38.582031 164.855469 38.785156 C 165.605469 39.609375 165.90625 39.632812 166.800781 38.945312 C 166.996094 38.796875 167.179688 38.636719 167.351562 38.464844 C 167.875 37.910156 167.929688 37.578125 167.484375 36.964844 C 167.125 36.476562 166.730469 36.011719 166.3125 35.570312 C 166.144531 35.4375 165.960938 35.320312 165.765625 35.226562 Z M 117.167969 84.910156 L 119.421875 87.773438 C 120.390625 87.578125 120.75 86.851562 121.191406 86.273438 C 121.636719 85.695312 121.621094 85.359375 120.976562 84.773438 C 120.742188 84.550781 120.523438 84.316406 120.292969 84.085938 C 119.488281 83.285156 119 83.230469 118.089844 83.9375 C 117.757812 84.246094 117.449219 84.578125 117.167969 84.933594 Z M 169.371094 84.730469 C 169.980469 84.789062 171.253906 83.644531 171.359375 83.035156 C 171.496094 82.285156 169.378906 80.269531 168.730469 80.675781 C 168.101562 81.089844 167.585938 81.652344 167.230469 82.316406 C 166.945312 82.847656 167.597656 83.222656 167.980469 83.582031 C 168.363281 83.945312 168.550781 84.144531 168.867188 84.40625 C 169.023438 84.539062 169.191406 84.652344 169.371094 84.753906 Z M 241.035156 248.871094 C 240.886719 249.632812 241.332031 250.386719 242.070312 250.632812 C 242.652344 251.003906 243.421875 250.839844 243.800781 250.265625 C 244.203125 249.660156 244.519531 249.003906 244.738281 248.316406 C 244.785156 247.972656 244.660156 247.625 244.402344 247.394531 C 243.9375 247.089844 243.429688 246.863281 242.898438 246.71875 C 242.632812 246.65625 242.351562 246.730469 242.148438 246.914062 C 241.667969 247.625 241.296875 248.382812 241.035156 248.871094 Z M 124.511719 135.570312 C 124.511719 136.234375 125.210938 136.601562 125.84375 137.066406 C 127.105469 137.929688 127.433594 137.863281 128.238281 136.589844 C 128.890625 135.554688 128.863281 135.328125 127.878906 134.59375 C 127.585938 134.375 127.285156 134.171875 126.96875 133.988281 C 125.863281 133.34375 124.582031 134.054688 124.511719 135.570312 Z M 47.148438 31.914062 C 47.816406 32.355469 48.394531 32.78125 49.015625 33.128906 C 49.253906 33.246094 49.53125 33.246094 49.769531 33.128906 C 50.308594 32.65625 50.769531 32.097656 51.128906 31.480469 C 51.527344 30.660156 50.960938 29.738281 49.957031 29.230469 C 49.203125 28.878906 48.792969 29.050781 48.191406 29.980469 C 47.824219 30.570312 47.53125 31.1875 47.132812 31.914062 Z M 20.722656 218.425781 C 20.671875 218.246094 20.597656 218.070312 20.503906 217.90625 C 20.1875 217.4375 19.867188 216.972656 19.511719 216.535156 C 18.941406 215.839844 18.234375 215.785156 17.351562 216.386719 C 17.019531 216.554688 16.777344 216.863281 16.691406 217.222656 C 16.605469 217.585938 16.679688 217.96875 16.898438 218.269531 C 17.15625 218.679688 17.445312 219.070312 17.761719 219.4375 C 18.101562 219.855469 18.515625 220.300781 19.085938 220.023438 C 19.824219 219.734375 20.417969 219.15625 20.722656 218.425781 Z M 43.519531 29.605469 C 43.792969 29.484375 44.046875 29.324219 44.269531 29.125 C 44.558594 28.742188 44.8125 28.328125 45.019531 27.894531 C 45.695312 26.652344 45.195312 25.648438 43.78125 25.484375 C 42.992188 25.378906 41.3125 27.070312 41.414062 27.867188 C 41.796875 28.75 42.578125 29.394531 43.519531 29.605469 Z M 44.40625 195.738281 C 44.351562 195.566406 44.351562 195.273438 44.210938 195.125 C 43.625 194.511719 43.003906 193.9375 42.347656 193.398438 C 42.195312 193.273438 41.792969 193.339844 41.597656 193.453125 C 41.328125 193.632812 41.089844 193.855469 40.890625 194.113281 C 40.035156 195.0625 40.042969 195.175781 40.890625 196.074219 C 41.117188 196.300781 41.3125 196.5625 41.519531 196.824219 C 41.882812 197.257812 42.273438 197.574219 42.894531 197.3125 C 43.636719 197.082031 44.207031 196.488281 44.40625 195.738281 Z M 172.097656 77.535156 C 172.097656 78.425781 172.847656 78.960938 173.441406 79.5 C 173.714844 79.777344 174.101562 79.925781 174.492188 79.902344 C 174.882812 79.878906 175.246094 79.683594 175.484375 79.371094 C 175.789062 79.125 175.972656 78.765625 175.992188 78.375 C 176.011719 77.988281 175.867188 77.609375 175.589844 77.332031 L 174.90625 76.484375 C 174.570312 75.953125 173.90625 75.730469 173.3125 75.945312 C 172.609375 76.167969 172.113281 76.800781 172.066406 77.535156 Z M 199.550781 219.878906 C 199.550781 219.804688 199.550781 219.601562 199.429688 219.511719 C 198.964844 219.015625 198.4375 218.585938 197.859375 218.230469 C 197.246094 217.921875 197.003906 218.65625 196.628906 218.980469 C 196.347656 219.214844 196.078125 219.464844 195.824219 219.730469 C 195.402344 220.148438 195.363281 220.816406 195.734375 221.28125 C 196.082031 221.84375 196.484375 222.367188 197.238281 222.308594 C 197.851562 222.234375 199.445312 220.613281 199.519531 219.878906 Z M 39.914062 200.390625 C 39.890625 200.265625 39.839844 200.148438 39.769531 200.039062 C 39.289062 199.507812 38.800781 198.976562 38.269531 198.457031 C 37.988281 198.132812 37.507812 198.082031 37.164062 198.339844 C 36.71875 198.605469 36.3125 198.929688 35.957031 199.304688 C 35.765625 199.53125 35.648438 200.101562 35.789062 200.265625 C 36.402344 200.953125 37.054688 201.605469 37.742188 202.214844 C 37.882812 202.292969 38.046875 202.316406 38.199219 202.28125 C 38.992188 201.890625 39.59375 201.207031 39.882812 200.378906 Z M 126.015625 80.25 C 125.910156 80.003906 125.78125 79.769531 125.625 79.550781 C 125.34375 79.261719 125.042969 78.992188 124.722656 78.742188 C 123.753906 77.917969 122.996094 77.992188 122.230469 78.890625 C 121.5625 79.695312 121.671875 80.308594 122.648438 81.140625 C 122.808594 81.273438 122.957031 81.402344 123.125 81.523438 C 123.542969 81.824219 123.925781 82.316406 124.519531 82.007812 C 125.203125 81.609375 125.722656 80.980469 125.984375 80.234375 Z M 128.570312 129.527344 C 128.523438 130.390625 130.148438 131.957031 131.019531 131.859375 C 131.210938 131.820312 131.390625 131.726562 131.535156 131.589844 C 131.8125 131.339844 132.0625 131.066406 132.289062 130.773438 C 132.910156 129.886719 132.789062 129.332031 131.875 128.761719 C 131.566406 128.566406 131.25 128.386719 130.925781 128.214844 C 130.453125 127.910156 129.84375 127.886719 129.347656 128.15625 C 128.847656 128.425781 128.539062 128.945312 128.539062 129.511719 Z M 204.5625 224.167969 C 204.523438 223.296875 203.898438 222.980469 203.390625 222.613281 C 202.71875 222.136719 202.441406 222.148438 201.886719 222.71875 C 201.457031 223.199219 201.054688 223.699219 200.675781 224.21875 C 200.527344 224.359375 200.441406 224.558594 200.441406 224.765625 C 200.441406 224.972656 200.527344 225.171875 200.675781 225.3125 C 201.136719 225.710938 201.621094 226.074219 202.128906 226.40625 C 202.304688 226.496094 202.511719 226.496094 202.691406 226.40625 C 203.480469 225.8125 204.117188 225.046875 204.5625 224.167969 Z M 234.800781 245.902344 C 234.652344 246.570312 235.007812 247.253906 235.640625 247.511719 C 236.199219 247.910156 236.96875 247.816406 237.414062 247.296875 C 237.855469 246.675781 238.222656 246.007812 238.503906 245.300781 C 238.566406 245.070312 238.507812 244.828125 238.347656 244.648438 C 237.839844 244.257812 237.277344 243.941406 236.679688 243.714844 C 236.292969 243.65625 235.898438 243.792969 235.636719 244.082031 C 235.308594 244.671875 235.03125 245.289062 234.800781 245.925781 Z M 230.488281 240.445312 C 230.175781 240.601562 229.878906 240.789062 229.601562 241.007812 C 229.335938 241.3125 229.105469 241.644531 228.914062 241.996094 C 228.265625 242.980469 228.425781 243.59375 229.453125 244.15625 C 230.480469 244.71875 231.082031 244.628906 231.75 243.5625 C 231.917969 243.285156 232.058594 242.996094 232.179688 242.695312 C 232.617188 241.613281 231.933594 240.585938 230.488281 240.46875 Z M 92.230469 114.800781 C 92.0625 114.554688 91.960938 114.378906 91.839844 114.222656 C 91.722656 114.058594 91.597656 113.898438 91.464844 113.75 C 90.824219 113.0625 90.621094 113.046875 89.839844 113.585938 C 89.605469 113.757812 89.351562 113.910156 89.089844 114.035156 C 88.089844 114.53125 87.722656 115.160156 88.535156 116.546875 C 88.75 116.996094 89.191406 117.296875 89.691406 117.324219 C 90.191406 117.351562 90.667969 117.105469 90.929688 116.679688 C 91.402344 116.113281 91.785156 115.480469 92.230469 114.800781 Z M 213.09375 233.96875 C 213.386719 233.839844 213.660156 233.671875 213.914062 233.476562 C 214.148438 233.199219 214.351562 232.894531 214.511719 232.566406 C 215.265625 231.40625 215.195312 231.070312 214.039062 230.320312 C 212.882812 229.570312 212.726562 229.683594 211.945312 230.695312 C 211.773438 230.917969 211.605469 231.144531 211.457031 231.382812 C 210.726562 232.605469 211.472656 233.941406 213.09375 233.984375 Z M 210.089844 50.472656 C 210.601562 50.410156 211.0625 50.121094 211.339844 49.6875 C 211.621094 49.25 211.691406 48.714844 211.53125 48.222656 C 211.375 47.894531 211.199219 47.578125 211.042969 47.25 C 210.800781 46.761719 210.523438 46.328125 209.871094 46.378906 C 209.0625 46.480469 208.335938 46.929688 207.878906 47.609375 C 207.640625 48.328125 209.292969 50.5 210.074219 50.484375 Z M 8.1875 224.355469 C 6.847656 224.355469 5.789062 225.566406 6.246094 226.4375 C 6.609375 227.066406 7.050781 227.652344 7.554688 228.175781 C 8.019531 228.6875 8.53125 228.402344 8.96875 228.070312 C 9.402344 227.742188 10.152344 227.441406 10.085938 226.632812 C 10.074219 226.550781 10.039062 226.472656 9.988281 226.40625 C 9.683594 225.886719 9.34375 225.386719 8.972656 224.910156 C 8.738281 224.675781 8.46875 224.480469 8.171875 224.332031 Z M -0.804688 234.5 C -0.871094 234.304688 -0.949219 234.113281 -1.039062 233.925781 C -1.269531 233.503906 -1.527344 233.09375 -1.789062 232.679688 C -2.269531 231.839844 -2.539062 231.734375 -3.472656 232.097656 C -3.777344 232.207031 -4.066406 232.347656 -4.34375 232.515625 C -4.578125 232.632812 -4.75 232.84375 -4.820312 233.097656 C -4.890625 233.351562 -4.851562 233.621094 -4.710938 233.84375 C -4.402344 234.410156 -4.050781 234.953125 -3.660156 235.46875 C -3.203125 236.082031 -2.910156 236.136719 -2.203125 235.761719 C -1.847656 235.566406 -1.511719 235.335938 -1.203125 235.070312 C -1.042969 234.902344 -0.910156 234.710938 -0.804688 234.5 Z M 176.941406 72.933594 C 176.941406 73.683594 178.285156 75.292969 178.945312 75.363281 C 179.144531 75.375 179.34375 75.339844 179.527344 75.257812 C 181.027344 74.574219 181.207031 73.546875 180.132812 72.347656 L 179.628906 71.832031 C 179.28125 71.371094 178.65625 71.214844 178.128906 71.457031 C 177.484375 71.683594 177.023438 72.253906 176.941406 72.933594 Z M 135.007812 126.148438 C 135.5625 126.121094 136.0625 125.8125 136.335938 125.332031 C 136.65625 124.9375 136.632812 124.363281 136.28125 123.996094 C 135.863281 123.472656 135.410156 122.96875 134.929688 122.496094 C 134.734375 122.3125 134.472656 122.214844 134.203125 122.226562 C 133.929688 122.242188 133.679688 122.367188 133.503906 122.574219 C 132.992188 123.074219 132.398438 123.605469 132.585938 124.421875 C 132.746094 125.066406 134.21875 126.09375 135.007812 126.125 Z M 74.707031 93.738281 C 74.707031 93.164062 73.457031 91.746094 72.902344 91.753906 C 72.707031 91.765625 72.519531 91.835938 72.363281 91.957031 C 71.890625 92.265625 71.449219 92.621094 71.046875 93.019531 C 70.800781 93.28125 70.5 93.769531 70.597656 94.023438 C 70.867188 94.648438 71.242188 95.222656 71.707031 95.71875 C 71.96875 95.890625 72.300781 95.917969 72.585938 95.792969 C 73.28125 95.242188 73.949219 94.65625 74.585938 94.039062 C 74.667969 93.964844 74.675781 93.8125 74.707031 93.738281 Z M 33.484375 206.914062 C 34.109375 206.859375 34.644531 206.449219 34.867188 205.863281 C 35.128906 205.386719 35.019531 204.789062 34.609375 204.433594 C 34.332031 204.140625 34.085938 203.816406 33.820312 203.519531 C 33.457031 203.003906 32.773438 202.820312 32.199219 203.089844 C 31.550781 203.304688 31.117188 203.910156 31.125 204.589844 C 31.3125 205.800781 32.269531 206.753906 33.484375 206.933594 Z M 226.464844 239.140625 C 226.535156 238.246094 225.941406 237.429688 225.066406 237.214844 C 224.390625 236.976562 223.992188 237.125 223.5625 237.808594 C 223.324219 238.183594 223.089844 238.558594 222.886719 238.953125 C 222.710938 239.230469 222.65625 239.570312 222.726562 239.890625 C 222.800781 240.210938 223 240.488281 223.277344 240.664062 C 223.984375 241.230469 224.921875 241.414062 225.367188 240.894531 C 225.78125 240.363281 226.148438 239.796875 226.464844 239.203125 Z M 30.417969 209.835938 C 30.328125 209.585938 30.210938 209.347656 30.066406 209.125 C 29.734375 208.714844 29.378906 208.328125 29 207.960938 C 28.195312 207.175781 28 207.175781 27.175781 207.878906 C 27.023438 208.015625 26.875 208.15625 26.738281 208.300781 C 26.09375 208.988281 26.070312 209.25 26.648438 209.957031 C 26.902344 210.269531 27.183594 210.570312 27.460938 210.863281 C 27.738281 211.15625 28.210938 211.746094 28.78125 211.46875 C 29.496094 211.160156 30.074219 210.601562 30.402344 209.894531 Z M 215.308594 46.828125 C 216.070312 46.6875 216.753906 46.269531 217.226562 45.660156 C 217.328125 45.40625 217.328125 45.125 217.226562 44.871094 C 216.875 44.234375 216.484375 43.621094 216.058594 43.027344 C 215.914062 42.835938 215.707031 42.699219 215.472656 42.640625 C 214.648438 42.832031 213.917969 43.308594 213.402344 43.980469 C 213.183594 44.574219 214.707031 46.804688 215.308594 46.828125 Z M -8.738281 239.570312 C -7.460938 239.671875 -6.347656 238.464844 -6.785156 237.492188 C -7.089844 236.878906 -7.46875 236.304688 -7.910156 235.785156 C -8.285156 235.289062 -8.78125 235.429688 -9.203125 235.730469 C -9.734375 236.105469 -10.703125 236.285156 -10.488281 237.117188 C -10.199219 237.90625 -9.789062 238.644531 -9.269531 239.304688 C -9.15625 239.480469 -8.863281 239.515625 -8.738281 239.570312 Z M 220.703125 43.359375 C 222.0625 43.476562 223.054688 42.570312 222.699219 41.582031 C 222.394531 40.84375 221.972656 40.160156 221.453125 39.550781 C 221.3125 39.367188 221.105469 39.25 220.875 39.226562 C 220.644531 39.199219 220.414062 39.269531 220.238281 39.414062 C 219.859375 39.648438 219.515625 39.925781 219.214844 40.246094 C 219.046875 40.460938 218.980469 40.734375 219.035156 40.996094 C 219.359375 41.691406 219.730469 42.359375 220.152344 43 C 220.289062 43.222656 220.613281 43.304688 220.703125 43.359375 Z M 67.75 91.019531 C 67.925781 90.933594 68.09375 90.835938 68.253906 90.726562 C 68.539062 90.507812 68.792969 90.246094 69.078125 90.03125 C 70.273438 89.128906 70.355469 88.410156 69.371094 87.355469 C 69.203125 87.09375 68.925781 86.921875 68.621094 86.878906 C 68.3125 86.835938 68 86.925781 67.765625 87.128906 C 67.304688 87.457031 66.878906 87.828125 66.488281 88.238281 C 66.15625 88.574219 65.738281 88.941406 66.046875 89.480469 C 66.421875 90.171875 67.023438 90.714844 67.75 91.019531 Z M 4.746094 230.679688 C 4.65625 230.476562 4.589844 230.289062 4.492188 230.117188 C 4.25 229.707031 3.996094 229.292969 3.738281 228.886719 C 3.25 228.09375 2.929688 227.988281 2.035156 228.363281 C 1.703125 228.503906 1.386719 228.675781 1.085938 228.875 C 0.875 228.988281 0.722656 229.183594 0.664062 229.417969 C 0.609375 229.652344 0.65625 229.898438 0.792969 230.09375 C 1.109375 230.605469 1.441406 231.113281 1.808594 231.59375 C 2.417969 232.402344 2.65625 232.441406 3.507812 231.910156 C 3.816406 231.722656 4.109375 231.507812 4.378906 231.265625 C 4.527344 231.085938 4.652344 230.890625 4.746094 230.679688 Z M 189.769531 211.125 C 189.839844 210.375 188.597656 209.117188 187.9375 209.207031 C 187.898438 209.203125 187.859375 209.203125 187.816406 209.207031 C 186.917969 209.707031 186.175781 210.453125 185.675781 211.359375 C 185.648438 211.433594 185.648438 211.515625 185.675781 211.589844 C 185.933594 212.320312 186.476562 212.917969 187.179688 213.246094 C 187.734375 213.523438 188.074219 213.050781 188.417969 212.714844 C 188.765625 212.375 189.109375 212.03125 189.425781 211.664062 C 189.5625 211.5 189.679688 211.320312 189.769531 211.125 Z M 51.292969 187.320312 C 51.960938 187.25 52.546875 186.839844 52.839844 186.234375 C 53.144531 185.734375 53.019531 185.085938 52.546875 184.734375 C 52.128906 184.339844 51.6875 183.96875 51.226562 183.625 C 51.054688 183.449219 50.820312 183.347656 50.570312 183.347656 C 50.324219 183.347656 50.089844 183.449219 49.917969 183.625 C 49.421875 184.136719 48.785156 184.609375 48.917969 185.449219 C 49.007812 185.925781 50.683594 187.261719 51.292969 187.320312 Z M 167.402344 180.402344 C 167.449219 179.835938 167.195312 179.285156 166.738281 178.949219 C 166.28125 178.609375 165.679688 178.53125 165.148438 178.738281 C 164.746094 178.925781 164.359375 179.144531 163.992188 179.390625 C 163.535156 179.667969 163.261719 180.164062 163.269531 180.695312 C 163.277344 181.226562 163.566406 181.714844 164.03125 181.976562 C 164.953125 182.578125 167.296875 181.46875 167.402344 180.402344 Z M -12.175781 241.269531 C -12.394531 240.824219 -12.648438 240.390625 -12.929688 239.980469 C -13.972656 238.558594 -13.988281 238.535156 -15.640625 239.574219 C -15.882812 239.695312 -16.054688 239.917969 -16.117188 240.179688 C -16.175781 240.445312 -16.113281 240.71875 -15.949219 240.933594 C -15.675781 241.390625 -15.445312 241.863281 -15.195312 242.304688 C -14.929688 242.832031 -14.324219 243.097656 -13.753906 242.933594 C -12.964844 242.707031 -12.359375 242.070312 -12.175781 241.269531 Z M 160.199219 173.679688 C 160.386719 174.210938 160.492188 174.601562 160.648438 174.960938 C 161.136719 176.140625 161.535156 176.3125 162.714844 175.898438 C 163.019531 175.796875 163.316406 175.664062 163.59375 175.5 C 164.398438 174.992188 164.554688 174.128906 164.066406 173.140625 C 163.683594 172.390625 163.234375 172.210938 162.25 172.632812 C 161.582031 172.914062 160.957031 173.289062 160.199219 173.679688 Z M 195.765625 60.859375 C 195.550781 59.964844 195.074219 59.15625 194.398438 58.535156 C 194.257812 58.328125 194.035156 58.195312 193.785156 58.171875 C 193.539062 58.148438 193.292969 58.234375 193.113281 58.40625 C 192.925781 58.550781 192.730469 58.691406 192.542969 58.851562 C 191.535156 59.667969 191.511719 59.890625 192.300781 60.917969 C 193.746094 62.800781 194.269531 62.792969 195.765625 60.859375 Z M 164.179688 85.441406 C 163.285156 85.847656 162.679688 86.304688 162.625 87.179688 C 162.566406 87.929688 163.535156 89.121094 164.382812 89.429688 C 165.230469 89.738281 165.675781 89.210938 166.164062 88.746094 C 166.824219 88.109375 166.847656 87.675781 166.164062 87.007812 C 165.480469 86.339844 164.847656 86.003906 164.179688 85.441406 Z M 77.183594 144.269531 C 76.914062 144.386719 76.660156 144.542969 76.433594 144.734375 C 76.175781 145.046875 75.957031 145.386719 75.78125 145.746094 C 75.269531 146.683594 75.292969 146.773438 76.207031 147.375 L 76.621094 147.636719 C 78.214844 148.609375 78.769531 148.421875 79.46875 146.660156 C 79.46875 146.585938 79.558594 146.511719 79.550781 146.4375 C 79.566406 146.242188 79.53125 146.050781 79.453125 145.875 C 78.890625 145.109375 78.09375 144.542969 77.183594 144.269531 Z M 53.195312 179.878906 C 53.242188 180.152344 53.359375 180.410156 53.53125 180.628906 C 54.070312 181.117188 54.652344 181.558594 55.273438 181.941406 C 55.53125 182.042969 55.824219 182.027344 56.070312 181.894531 C 57.460938 181.144531 57.574219 179.921875 56.355469 178.964844 C 56.167969 178.8125 55.980469 178.664062 55.777344 178.53125 C 55.277344 178.175781 54.617188 178.128906 54.070312 178.414062 C 53.527344 178.699219 53.1875 179.265625 53.195312 179.878906 Z M 198.867188 54.144531 C 197.6875 54.144531 196.742188 55.34375 197.167969 56.234375 C 197.476562 56.851562 197.886719 57.410156 198.378906 57.890625 C 198.933594 58.445312 199.640625 58.316406 200.332031 57.6875 C 201.023438 57.058594 201.144531 56.578125 200.667969 55.898438 C 200.3125 55.40625 199.914062 54.945312 199.484375 54.519531 C 199.296875 54.363281 199.089844 54.238281 198.867188 54.144531 Z M 228.710938 38.800781 C 228.429688 37.757812 228.332031 36.792969 227.453125 36.246094 C 227.199219 36.0625 226.882812 35.980469 226.570312 36.019531 C 225.015625 36.574219 224.496094 37.144531 225.308594 38.554688 C 225.382812 38.6875 225.457031 38.832031 225.546875 38.964844 C 226.296875 40.15625 226.863281 40.269531 228.019531 39.460938 C 228.265625 39.261719 228.496094 39.039062 228.710938 38.800781 Z M 65.773438 161.890625 C 65.332031 162.503906 65.023438 162.957031 64.679688 163.390625 C 64.503906 163.59375 64.425781 163.859375 64.460938 164.125 C 64.496094 164.390625 64.644531 164.628906 64.867188 164.777344 C 65.082031 164.964844 65.277344 165.167969 65.503906 165.339844 C 66.714844 166.246094 67.488281 166.089844 68.296875 164.835938 C 68.734375 164.15625 68.71875 163.78125 68.050781 163.277344 C 67.382812 162.773438 66.632812 162.429688 65.773438 161.890625 Z M 12.957031 220.351562 C 12.441406 220.304688 11.941406 220.542969 11.652344 220.96875 C 11.367188 221.398438 11.335938 221.949219 11.574219 222.40625 C 11.8125 222.867188 12.089844 223.3125 12.398438 223.730469 C 12.703125 224.292969 13.394531 224.519531 13.96875 224.242188 C 14.65625 224.054688 15.148438 223.453125 15.195312 222.742188 C 14.964844 221.597656 14.09375 220.6875 12.957031 220.410156 Z M 84.078125 109.929688 C 84.023438 110.824219 84.617188 111.628906 85.492188 111.839844 C 86.121094 111.839844 87.886719 110.589844 88.03125 109.988281 C 88.03125 109.914062 88.082031 109.808594 88.03125 109.757812 C 87.691406 109.140625 87.277344 108.566406 86.800781 108.046875 C 86.316406 107.628906 85.828125 108.121094 85.417969 108.429688 C 85.105469 108.617188 84.820312 108.839844 84.5625 109.097656 C 84.367188 109.375 84.207031 109.671875 84.078125 109.988281 Z M 191.949219 217.707031 C 192.78125 217.757812 193.210938 217.203125 193.707031 216.730469 C 194.96875 215.53125 194.351562 214.820312 193.535156 214.003906 C 193.386719 213.804688 193.15625 213.6875 192.910156 213.679688 C 192.660156 213.671875 192.425781 213.777344 192.265625 213.964844 C 191.785156 214.453125 191.335938 214.964844 190.914062 215.503906 C 190.648438 215.832031 190.273438 216.152344 190.605469 216.664062 C 190.851562 217.222656 191.351562 217.632812 191.949219 217.765625 Z M 37.78125 25.949219 C 38.089844 25.796875 38.320312 25.753906 38.425781 25.609375 C 38.945312 24.941406 39.441406 24.261719 39.929688 23.554688 C 40.003906 23.375 40.003906 23.167969 39.929688 22.988281 C 39.527344 22.332031 38.878906 21.863281 38.132812 21.683594 C 37.382812 21.683594 35.699219 23.929688 36.097656 24.484375 C 36.597656 25.039062 37.160156 25.53125 37.78125 25.949219 Z M 185.949219 69.089844 C 185.929688 68.953125 185.902344 68.816406 185.863281 68.683594 C 185.535156 67.855469 184.941406 67.160156 184.175781 66.703125 C 183.960938 66.609375 183.71875 66.609375 183.507812 66.703125 C 181.832031 67.695312 181.578125 68.25 182.753906 69.703125 C 182.976562 69.945312 183.230469 70.15625 183.507812 70.332031 C 183.820312 70.566406 184.144531 70.851562 184.589844 70.550781 C 185.199219 70.234375 185.679688 69.71875 185.949219 69.089844 Z M 178.78125 203.449219 C 179.578125 203.546875 179.953125 202.859375 180.464844 202.453125 C 181.402344 201.703125 181.417969 201.390625 180.710938 200.453125 C 180.007812 199.515625 179.644531 199.359375 178.550781 200.152344 C 178.257812 200.363281 177.984375 200.601562 177.699219 200.835938 C 177.234375 201.179688 177.070312 201.800781 177.300781 202.332031 C 177.511719 202.976562 178.101562 203.425781 178.78125 203.449219 Z M 204.457031 49.910156 C 203.890625 50.265625 203.347656 50.652344 202.824219 51.070312 C 202.605469 51.277344 202.496094 51.574219 202.523438 51.871094 C 202.773438 52.546875 203.128906 53.175781 203.585938 53.730469 C 204.171875 54.382812 205.035156 54.261719 205.835938 53.589844 C 206.4375 53.085938 206.492188 52.636719 205.929688 51.796875 C 205.542969 51.175781 205.042969 50.605469 204.457031 49.910156 Z M 46.441406 188.242188 C 46.125 188.476562 45.921875 188.59375 45.75 188.753906 C 44.449219 189.980469 44.496094 190.320312 45.703125 191.601562 C 46.636719 192.589844 47.574219 192.484375 48.453125 191.421875 C 48.941406 190.828125 48.996094 190.460938 48.453125 189.921875 C 47.914062 189.382812 47.125 188.804688 46.441406 188.242188 Z M 183.011719 208.359375 C 183.859375 208.285156 184.4375 207.609375 184.980469 206.859375 C 185.363281 206.277344 185.277344 205.503906 184.773438 205.015625 C 184.269531 204.53125 183.492188 204.472656 182.921875 204.875 C 182.550781 205.105469 182.191406 205.355469 181.847656 205.625 C 181.304688 205.960938 181.109375 206.65625 181.394531 207.226562 C 181.621094 207.921875 182.28125 208.382812 183.011719 208.359375 Z M 51.925781 76.449219 C 51.828125 77.199219 52.132812 77.671875 52.914062 78.082031 C 53.40625 78.414062 54.070312 78.296875 54.417969 77.820312 C 54.789062 77.398438 55.128906 76.945312 55.433594 76.472656 C 55.652344 76.265625 55.757812 75.96875 55.71875 75.667969 C 55.675781 75.371094 55.496094 75.113281 55.230469 74.972656 C 54.929688 74.707031 54.59375 74.492188 54.230469 74.328125 C 53.980469 74.210938 53.691406 74.210938 53.441406 74.328125 C 52.761719 74.894531 52.242188 75.625 51.925781 76.449219 Z M 151.582031 104.734375 C 151.667969 104.734375 151.777344 104.734375 151.816406 104.734375 C 152.320312 104.285156 152.769531 103.785156 153.160156 103.234375 C 153.484375 102.710938 152.929688 102.375 152.582031 102.058594 C 152.238281 101.71875 151.863281 101.410156 151.472656 101.128906 C 151.019531 100.78125 150.378906 100.816406 149.96875 101.210938 C 149.527344 101.570312 149.097656 101.960938 149.21875 102.613281 C 149.335938 103.265625 151.011719 104.667969 151.582031 104.71875 Z M 167.90625 188.046875 C 168.65625 187.523438 169.492188 187 170.265625 186.4375 C 170.375 186.363281 170.390625 186.0625 170.355469 185.890625 C 170.082031 184.390625 169.128906 183.910156 167.742188 184.621094 C 167.53125 184.734375 167.320312 184.863281 167.109375 184.992188 C 166.140625 185.582031 166.074219 185.816406 166.628906 186.828125 C 166.777344 187.113281 166.960938 187.378906 167.175781 187.621094 C 167.402344 187.792969 167.644531 187.9375 167.90625 188.046875 Z M 58.367188 82.316406 C 58.675781 82.234375 58.886719 82.242188 58.976562 82.136719 C 59.59375 81.511719 60.15625 80.835938 60.667969 80.121094 C 60.96875 79.65625 60.539062 78.914062 59.917969 78.488281 C 59.492188 78.128906 58.863281 78.15625 58.472656 78.554688 C 58.0625 78.9375 57.6875 79.359375 57.355469 79.8125 C 57.0625 80.179688 56.605469 80.617188 57 81.09375 C 57.417969 81.542969 57.878906 81.953125 58.367188 82.316406 Z M 63.242188 86.320312 C 63.46875 86.191406 63.761719 86.058594 63.996094 85.878906 C 64.285156 85.648438 64.558594 85.398438 64.8125 85.128906 C 65.230469 84.699219 65.390625 84.085938 65.238281 83.507812 C 65.082031 82.933594 64.636719 82.480469 64.0625 82.316406 C 63.90625 82.28125 63.746094 82.28125 63.589844 82.316406 C 63.0625 82.46875 61.441406 84.175781 61.515625 84.601562 C 61.660156 85.417969 62.34375 85.847656 63.019531 86.25 C 63.089844 86.285156 63.164062 86.308594 63.242188 86.320312 Z M 32.859375 21.976562 C 32.941406 21.976562 33.183594 21.929688 33.304688 21.796875 C 33.847656 21.25 34.347656 20.664062 34.804688 20.042969 C 35.097656 19.421875 34.890625 18.683594 34.316406 18.308594 C 33.914062 17.863281 33.230469 17.824219 32.777344 18.21875 C 32.308594 18.601562 31.894531 19.054688 31.554688 19.554688 C 30.757812 20.65625 31.378906 21.871094 32.859375 21.976562 Z M 50.472656 72.234375 C 50.472656 71.425781 49.84375 71.179688 49.355469 70.84375 C 49.160156 70.65625 48.890625 70.570312 48.621094 70.605469 C 48.355469 70.640625 48.117188 70.796875 47.980469 71.03125 C 47.582031 71.585938 47.230469 72.152344 46.847656 72.746094 C 46.714844 72.929688 46.664062 73.160156 46.707031 73.382812 C 46.746094 73.605469 46.878906 73.800781 47.070312 73.921875 C 47.582031 74.289062 48.117188 74.964844 48.761719 74.582031 C 49.539062 73.972656 50.132812 73.160156 50.472656 72.234375 Z M 174.335938 198.257812 C 175.28125 198.089844 176.132812 197.589844 176.738281 196.847656 C 177.097656 196.5 177.136719 195.941406 176.835938 195.542969 C 176.167969 194.335938 175.710938 194.1875 174.515625 194.898438 C 174.207031 195.085938 173.914062 195.304688 173.644531 195.542969 C 172.976562 196.144531 172.894531 196.449219 173.417969 197.207031 C 173.699219 197.578125 174.003906 197.929688 174.335938 198.257812 Z M 23.578125 215.855469 C 24.207031 215.898438 25.425781 214.910156 25.4375 214.402344 C 25.445312 214.238281 25.394531 214.082031 25.304688 213.949219 C 24.878906 213.367188 24.40625 212.816406 23.890625 212.308594 C 23.628906 212.078125 23.285156 211.960938 22.933594 211.988281 C 22.585938 212.015625 22.261719 212.183594 22.035156 212.453125 C 21.765625 212.640625 21.59375 212.941406 21.5625 213.269531 C 21.527344 213.597656 21.640625 213.921875 21.871094 214.160156 C 22.257812 214.671875 22.683594 215.15625 23.140625 215.605469 C 23.273438 215.710938 23.417969 215.796875 23.578125 215.855469 Z M 209.636719 227.957031 C 209.539062 227.242188 209.023438 226.652344 208.324219 226.460938 C 207.992188 226.371094 207.636719 226.429688 207.355469 226.625 C 206.871094 227.105469 206.445312 227.644531 206.09375 228.230469 C 205.804688 228.726562 205.921875 229.359375 206.363281 229.726562 C 206.785156 230.15625 207.289062 230.53125 207.867188 230.199219 C 208.660156 229.640625 209.277344 228.863281 209.636719 227.957031 Z M 190.785156 65.207031 C 190.667969 64.851562 190.523438 64.503906 190.347656 64.171875 C 190.097656 63.804688 189.820312 63.460938 189.515625 63.136719 C 188.703125 62.207031 188.441406 62.191406 187.53125 62.988281 C 187.382812 63.121094 187.238281 63.265625 187.097656 63.40625 C 186.933594 63.535156 186.828125 63.726562 186.808594 63.933594 C 186.789062 64.140625 186.859375 64.347656 187 64.5 C 187.410156 65.050781 187.855469 65.574219 188.335938 66.066406 C 188.6875 66.445312 189.261719 66.511719 189.6875 66.226562 C 190.082031 65.917969 190.449219 65.578125 190.785156 65.207031 Z M 59.433594 176.878906 C 60.1875 176.878906 60.457031 176.320312 60.765625 175.863281 C 61.191406 175.21875 61.164062 174.886719 60.570312 174.363281 C 60.070312 173.953125 59.542969 173.578125 58.992188 173.238281 C 58.816406 173.097656 58.585938 173.03125 58.363281 173.0625 C 58.136719 173.09375 57.933594 173.210938 57.796875 173.394531 C 57.40625 173.890625 56.730469 174.40625 57.113281 175.066406 C 57.699219 175.863281 58.507812 176.472656 59.433594 176.820312 Z M 170.859375 193.210938 C 171.910156 192.933594 172.835938 192.304688 173.480469 191.429688 C 173.648438 190.871094 173.484375 190.265625 173.050781 189.878906 C 172.691406 189.515625 172.121094 189.472656 171.707031 189.773438 C 171.136719 190.085938 170.585938 190.425781 170.054688 190.800781 C 169.867188 190.890625 169.726562 191.054688 169.667969 191.25 C 169.605469 191.449219 169.628906 191.660156 169.730469 191.839844 C 170.023438 192.351562 170.234375 192.996094 170.859375 193.152344 Z M 28.835938 13.957031 C 27.945312 14.320312 27.191406 14.957031 26.6875 15.777344 C 26.421875 16.195312 26.480469 16.742188 26.828125 17.097656 C 27.578125 17.996094 28.203125 18.039062 29.082031 17.214844 C 29.359375 16.96875 29.609375 16.695312 29.832031 16.398438 C 30.488281 15.5 30.425781 15.078125 29.546875 14.367188 C 29.320312 14.210938 29.082031 14.074219 28.835938 13.957031 Z M 111.113281 156.800781 C 110.21875 157.105469 109.585938 157.902344 109.492188 158.839844 C 109.492188 158.992188 109.492188 159.222656 109.59375 159.289062 C 110.34375 159.832031 111.121094 160.332031 111.925781 160.789062 C 112.113281 160.886719 112.480469 160.640625 112.832031 160.519531 C 112.34375 159.433594 111.925781 158.464844 111.488281 157.519531 C 111.390625 157.265625 111.253906 157.0625 111.113281 156.800781 Z M 93.417969 119.851562 C 93.125 120.25 92.875 120.671875 92.664062 121.117188 C 92.515625 121.949219 93.019531 122.757812 93.828125 122.992188 C 94.445312 123.171875 94.867188 122.796875 95.136719 121.890625 C 95.3125 121.464844 95.160156 120.972656 94.777344 120.722656 C 94.40625 120.445312 93.988281 120.203125 93.417969 119.851562 Z M 137.3125 117.324219 C 136.101562 118.628906 136.304688 119.265625 138.363281 120.445312 C 138.492188 120.160156 138.777344 119.828125 138.703125 119.625 C 138.523438 118.722656 138.03125 117.90625 137.3125 117.324219 Z M 112.710938 90.6875 C 112.441406 91.828125 112.464844 91.949219 112.945312 92.480469 C 113.90625 93.542969 114.175781 93.695312 115.019531 93.574219 Z M 116.820312 153.832031 C 115.949219 153.398438 115.695312 153.464844 114.847656 154.246094 C 116.03125 154.832031 116.09375 154.824219 116.820312 153.804688 Z M 116.820312 153.832031 "/>
</g>
</svg>
