<?xml version="1.0" encoding="UTF-8"?>
<svg xmlns="http://www.w3.org/2000/svg" xmlns:xlink="http://www.w3.org/1999/xlink" width="px" height="px" viewBox="0 0 230 267" version="1.1">
<g id="surface2">
<path style=" stroke:none;fill-rule:nonzero;fill:rgb(0%,0%,0%);fill-opacity:1;" d="M 32.253906 249.710938 L 44.351562 239.792969 L 24.546875 217.082031 L 20.371094 220.597656 C 20.324219 220.351562 20.25 220.214844 20.285156 220.148438 C 21.144531 218.769531 20.195312 217.40625 20.285156 216.035156 C 20.375 214.664062 20.285156 213.148438 20.285156 211.71875 C 20.296875 211.289062 20.464844 210.882812 20.761719 210.570312 C 39.847656 193.855469 55.476562 174.316406 68.613281 152.703125 C 74.945312 142.277344 81.488281 131.984375 87.96875 121.65625 C 88.472656 121.058594 88.425781 120.171875 87.867188 119.625 C 81.179688 111.53125 74.660156 103.304688 67.824219 95.34375 C 60.777344 87.296875 52.546875 80.363281 43.414062 74.785156 C 35.960938 70.121094 28.515625 65.457031 21.074219 60.785156 C 20.519531 60.5 20.195312 59.90625 20.265625 59.285156 C 20.265625 56.683594 20.265625 54.074219 20.265625 51.46875 L 49.25 69.742188 C 54.800781 61.359375 60.292969 53.078125 65.851562 44.675781 L 45.113281 31.695312 L 47.363281 31.695312 C 47.613281 32.648438 48.542969 32.957031 49.332031 33.269531 C 49.617188 33.382812 50.332031 32.902344 50.578125 32.519531 C 51 31.828125 51.808594 31.464844 52.609375 31.605469 C 54.164062 31.671875 55.730469 31.605469 57.289062 31.652344 C 57.960938 31.667969 58.621094 31.851562 59.210938 32.183594 C 67.335938 37.175781 75.382812 42.316406 82.839844 48.289062 C 90.914062 54.875 98.347656 62.207031 105.035156 70.191406 C 108.484375 74.230469 111.796875 78.351562 115.222656 82.4375 C 115.371094 82.625 115.53125 82.804688 115.746094 83.058594 C 116.054688 82.707031 116.355469 82.390625 116.625 82.054688 C 125.542969 70.980469 135.074219 60.410156 145.167969 50.394531 C 151.644531 44.011719 158.351562 37.878906 165.367188 32.085938 C 165.710938 31.824219 166.121094 31.671875 166.554688 31.644531 C 167.605469 31.582031 168.65625 31.644531 169.648438 31.644531 C 169.589844 32.09375 169.332031 32.640625 169.511719 32.910156 C 170.074219 33.652344 170.707031 34.335938 171.40625 34.949219 C 171.511719 35.0625 171.925781 34.949219 172.15625 34.835938 C 172.46875 34.65625 172.757812 34.4375 173.019531 34.191406 C 174.019531 33.359375 174.027344 33.277344 173.335938 32.167969 C 173.261719 32.046875 173.214844 31.90625 173.109375 31.6875 L 177.617188 31.6875 L 168.792969 38.800781 C 175.28125 46.492188 181.71875 54.105469 188.199219 61.773438 C 195.023438 56.082031 202.136719 50.75 209.519531 45.800781 L 209.789062 46.003906 C 209.59375 46.28125 209.464844 46.65625 209.203125 46.8125 C 207.875 47.609375 207.625 48.15625 208.714844 49.257812 C 210.113281 50.664062 209.59375 52.300781 209.652344 53.875 C 209.652344 54.121094 209.277344 54.441406 209.007812 54.625 C 201.890625 59.6875 195.042969 65.117188 188.488281 70.886719 C 177.59375 80.460938 167.433594 90.839844 158.097656 101.929688 C 153.039062 107.925781 148.242188 114.164062 143.3125 120.285156 C 142.925781 120.632812 142.863281 121.214844 143.171875 121.636719 C 148.585938 130.882812 152.9375 140.65625 157.140625 150.476562 C 161.21875 159.925781 165.179688 169.445312 169.617188 178.730469 C 174.652344 189.269531 181.703125 198.496094 189.769531 206.933594 C 195.699219 213.105469 202.144531 218.75 209.046875 223.8125 C 209.503906 224.101562 209.757812 224.625 209.691406 225.164062 C 209.652344 225.867188 209.691406 226.578125 209.691406 227.351562 C 208.113281 226.296875 207.777344 226.347656 206.753906 227.726562 C 205.941406 228.820312 205.957031 229.429688 206.820312 230.117188 C 207.683594 230.808594 207.867188 230.632812 209.636719 228.707031 C 209.664062 228.863281 209.683594 229.023438 209.691406 229.179688 L 209.691406 232.929688 L 207.4375 231.429688 L 206.851562 232.179688 C 202.8125 237.804688 198.773438 243.433594 194.742188 249.066406 C 194.488281 249.507812 193.996094 249.757812 193.488281 249.710938 C 192.59375 249.664062 191.695312 249.710938 190.558594 249.710938 L 205.273438 229.808594 C 191.695312 219.730469 179.734375 208.074219 170.285156 193.9375 L 145.257812 210.429688 C 155.300781 225.597656 167.648438 238.40625 181.644531 249.777344 L 180.960938 249.777344 C 177.625 249.777344 174.289062 249.777344 170.957031 249.777344 C 170.519531 249.765625 170.101562 249.609375 169.761719 249.34375 C 153.90625 235.527344 140.765625 219.542969 130.898438 200.941406 C 126.316406 192.3125 122.550781 183.304688 118.765625 174.308594 C 117.394531 171.058594 116.023438 167.808594 114.660156 164.566406 C 114.546875 164.296875 114.410156 164.042969 114.222656 163.636719 C 113.878906 164.167969 113.597656 164.582031 113.335938 165 C 108.078125 173.335938 102.964844 181.773438 97.523438 189.996094 C 88.050781 204.265625 77.234375 217.601562 65.226562 229.824219 C 58.53125 236.664062 51.480469 243.144531 44.097656 249.238281 C 43.664062 249.566406 43.140625 249.761719 42.59375 249.792969 C 41.09375 249.867188 39.589844 249.792969 38.089844 249.792969 C 37.582031 249.835938 37.09375 249.597656 36.8125 249.175781 C 35.949219 248.046875 34.738281 248.03125 33.917969 249.175781 C 33.421875 249.820312 32.964844 249.835938 32.253906 249.710938 Z M 110.96875 88.566406 C 98.546875 72.746094 85.535156 57.507812 68.328125 46.46875 L 51.503906 71.203125 L 52.585938 71.953125 C 58.292969 75.84375 63.621094 80.265625 68.5 85.148438 C 74.15625 90.988281 79.511719 97.109375 84.554688 103.484375 C 85.566406 104.734375 86.589844 105.980469 87.632812 107.230469 Z M 146.339844 143.429688 L 145.535156 143.789062 L 120 155.242188 C 118.941406 155.714844 118.941406 155.714844 119.398438 156.785156 C 122.828125 164.882812 126.269531 172.976562 129.71875 181.078125 C 133.339844 189.851562 137.660156 198.324219 142.636719 206.410156 C 142.9375 206.882812 143.261719 207.332031 143.589844 207.828125 L 168.875 191.871094 C 168.679688 191.535156 168.523438 191.277344 168.378906 191.023438 C 166.019531 186.683594 163.40625 182.464844 161.347656 177.988281 C 157.316406 169.207031 153.589844 160.285156 149.75 151.421875 C 148.609375 148.8125 147.496094 146.152344 146.339844 143.445312 Z M 46.476562 237.867188 C 60.777344 225.15625 73.699219 210.980469 85.027344 195.574219 L 60.75 177.816406 C 50.660156 191.496094 39.171875 204.089844 26.476562 215.398438 Z M 127.089844 80.992188 L 150.195312 100.265625 C 161.210938 87.0625 173.265625 74.753906 186.25 63.46875 C 179.667969 55.824219 173.195312 48.265625 166.652344 40.675781 C 152.394531 53.027344 139.167969 66.511719 127.089844 80.992188 Z M 125.292969 83.195312 C 113.488281 97.582031 102.527344 112.640625 92.460938 128.289062 L 117.65625 144.515625 C 127.328125 129.96875 137.59375 115.867188 148.453125 102.214844 Z M 86.714844 193.242188 C 97.472656 178.355469 106.3125 162.378906 116.199219 146.976562 L 90.847656 130.824219 C 81.179688 145.746094 72.640625 161.3125 62.257812 175.792969 Z M 144.921875 140.460938 C 142.910156 135.894531 140.609375 131.457031 138.035156 127.183594 L 122.070312 150.648438 L 122.335938 150.917969 Z M 104.464844 97.742188 L 104.324219 97.597656 L 89.367188 109.457031 L 92.949219 114.003906 Z M 81.929688 55.179688 C 82.742188 55.179688 84.132812 53.875 84.140625 53.101562 C 84.148438 52.328125 82.5625 50.914062 81.691406 50.851562 C 80.820312 50.792969 79.679688 52.179688 79.671875 53.101562 C 79.664062 54.023438 80.910156 55.183594 81.917969 55.191406 Z M 140.082031 204.066406 C 139.535156 203.261719 139.023438 202.46875 138.4375 201.734375 C 138.328125 201.589844 137.867188 201.628906 137.613281 201.734375 C 135.277344 202.484375 135.125 202.894531 136.230469 205.089844 C 136.320312 205.277344 136.378906 205.554688 136.53125 205.632812 C 136.921875 205.804688 137.425781 206.082031 137.761719 205.96875 C 138.394531 205.703125 138.980469 205.351562 139.511719 204.917969 C 139.714844 204.753906 139.859375 204.445312 140.070312 204.078125 Z M 90.285156 58.625 C 90.097656 57.570312 89.273438 56.742188 88.21875 56.550781 C 87.355469 56.550781 85.851562 57.945312 85.882812 58.738281 C 86.085938 59.804688 86.953125 60.625 88.03125 60.777344 C 89.175781 60.632812 90.089844 59.757812 90.285156 58.625 Z M 96.195312 64.457031 C 96.195312 63.886719 94.429688 62.207031 93.941406 62.207031 C 93.453125 62.207031 91.6875 63.976562 91.6875 64.53125 C 91.6875 65.234375 93.289062 66.78125 93.941406 66.710938 C 94.59375 66.644531 96.210938 65.0625 96.195312 64.457031 Z M 162.519531 233.96875 C 162.03125 234.335938 161.4375 234.71875 160.925781 235.191406 C 159.953125 236.089844 159.964844 236.316406 160.875 237.296875 C 162.378906 238.910156 162.378906 238.910156 163.984375 237.53125 C 164.421875 237.164062 164.929688 236.78125 164.644531 236.121094 C 164.300781 235.117188 163.519531 234.320312 162.519531 233.953125 Z M 153.738281 224.285156 C 153.738281 223.257812 152.742188 221.984375 151.855469 221.957031 C 150.96875 221.925781 149.53125 222.980469 149.503906 223.828125 C 149.472656 224.675781 150.796875 226.390625 151.484375 226.390625 C 152.175781 226.390625 153.71875 224.902344 153.738281 224.269531 Z M 168.453125 239.539062 L 166.953125 240.773438 C 165.960938 241.578125 165.921875 241.921875 166.726562 242.910156 C 168.191406 244.726562 168.671875 244.746094 170.089844 242.910156 C 170.371094 242.542969 170.632812 241.78125 170.453125 241.515625 C 169.851562 240.792969 169.179688 240.125 168.453125 239.523438 Z M 146.753906 133.71875 C 146.753906 132.886719 145.621094 131.46875 144.953125 131.46875 C 144.085938 131.46875 142.457031 132.804688 142.457031 133.515625 C 142.527344 134.628906 143.382812 135.535156 144.492188 135.671875 C 145.566406 135.660156 146.753906 134.625 146.753906 133.71875 Z M 146.332031 219.46875 C 147.085938 219.46875 148.691406 218.09375 148.652344 217.488281 C 148.609375 216.738281 147.195312 215.050781 146.605469 215.082031 C 145.851562 215.128906 144.351562 216.5 144.351562 217.113281 C 144.304688 218.027344 145.550781 219.480469 146.332031 219.46875 Z M 176.605469 247.332031 C 176.457031 246.296875 175.648438 245.476562 174.613281 245.308594 C 173.863281 245.308594 172.359375 246.695312 172.308594 247.460938 C 172.480469 248.558594 173.390625 249.390625 174.5 249.46875 C 175.601562 249.308594 176.464844 248.4375 176.605469 247.332031 Z M 130.785156 187.246094 C 129.898438 187.203125 128.125 188.25 128.082031 188.84375 C 128.011719 189.644531 129.058594 191.4375 129.582031 191.480469 C 130.335938 191.539062 132.355469 190.371094 132.386719 189.855469 C 132.46875 189.15625 131.289062 187.277344 130.792969 187.253906 Z M 140.609375 128.589844 C 141.652344 128.589844 143.066406 127.59375 143.074219 126.84375 C 143.082031 126.09375 141.820312 124.417969 141.226562 124.410156 C 140.316406 124.410156 138.835938 125.800781 138.828125 126.65625 C 138.859375 127.652344 139.617188 128.476562 140.609375 128.589844 Z M 154.402344 230.09375 C 154.972656 230.769531 155.421875 231.375 155.957031 231.894531 C 156.222656 232.164062 156.582031 232.320312 156.960938 232.335938 C 157.738281 232.34375 158.445312 231.882812 158.757812 231.171875 C 159.066406 230.457031 158.917969 229.628906 158.382812 229.066406 C 158.195312 228.832031 157.996094 228.609375 157.78125 228.402344 C 157.621094 228.195312 157.382812 228.066406 157.121094 228.050781 C 156.859375 228.03125 156.605469 228.128906 156.421875 228.3125 C 155.761719 228.875 155.121094 229.464844 154.402344 230.09375 Z M 23.953125 59.628906 C 24.273438 59.546875 24.394531 59.554688 24.441406 59.496094 C 25.054688 58.746094 25.679688 57.996094 26.234375 57.1875 C 26.316406 57.058594 26.085938 56.640625 25.914062 56.4375 C 25.6875 56.230469 25.433594 56.058594 25.160156 55.917969 C 23.507812 54.824219 23.480469 54.804688 22.390625 56.429688 C 22.105469 56.855469 21.804688 57.667969 22.007812 57.929688 C 22.589844 58.566406 23.242188 59.136719 23.953125 59.628906 Z M 76.980469 47.480469 C 76.980469 46.910156 75.480469 45.675781 74.726562 45.644531 C 73.976562 45.613281 72.738281 47.089844 72.722656 47.832031 C 72.707031 48.574219 74.226562 49.902344 75.164062 49.863281 C 76.101562 49.828125 76.996094 48.515625 76.980469 47.480469 Z M 150.140625 141.167969 C 150.140625 140.230469 149.210938 138.785156 148.601562 138.761719 C 147.574219 138.761719 145.941406 139.839844 145.964844 140.546875 C 145.964844 141.511719 146.949219 142.929688 147.574219 142.9375 C 148.4375 142.9375 150.140625 141.757812 150.140625 141.152344 Z M 125.023438 181.855469 C 125.023438 183.125 125.773438 184.367188 126.527344 184.332031 C 127.515625 184.285156 129.199219 183.242188 129.199219 182.683594 C 129.199219 181.648438 128.277344 180.179688 127.613281 180.195312 C 126.496094 180.207031 125.015625 181.167969 125.023438 181.84375 Z M 52.984375 237.84375 C 53.863281 237.730469 54.289062 237.011719 54.742188 236.292969 C 55.191406 235.574219 54.597656 235.363281 54.328125 234.980469 C 54.097656 234.699219 53.847656 234.433594 53.578125 234.1875 C 53.199219 233.804688 52.765625 233.25 52.222656 233.707031 C 51.523438 234.230469 50.945312 234.90625 50.535156 235.679688 C 50.300781 236.25 52.164062 237.828125 52.984375 237.828125 Z M 102.488281 76.402344 C 102.488281 77.355469 103.496094 78.5625 104.308594 78.578125 C 105.117188 78.59375 106.808594 77.199219 106.808594 76.507812 C 106.808594 75.820312 105.425781 74.34375 104.855469 74.355469 C 104.136719 74.363281 102.484375 75.773438 102.488281 76.386719 Z M 111.5625 82.445312 C 111.339844 81.472656 110.695312 80.648438 109.804688 80.195312 C 109.695312 80.15625 109.574219 80.15625 109.460938 80.195312 C 108.753906 80.683594 108.082031 81.21875 107.449219 81.792969 C 107.273438 82.09375 107.253906 82.460938 107.386719 82.78125 C 108.136719 84.503906 109.203125 84.753906 110.617188 83.570312 C 110.855469 83.386719 111.074219 83.183594 111.269531 82.960938 C 111.386719 82.800781 111.484375 82.628906 111.5625 82.445312 Z M 99.214844 72.476562 C 100.167969 72.476562 101.589844 71.269531 101.566406 70.46875 C 101.542969 69.664062 100.117188 68.007812 99.734375 68.277344 C 98.789062 68.902344 97.976562 69.699219 97.335938 70.632812 C 97.042969 71.203125 98.488281 72.5 99.214844 72.5 Z M 30.703125 63.648438 C 31.320312 63.648438 32.957031 61.757812 32.648438 61.179688 C 32.183594 60.433594 31.222656 59.914062 30.472656 59.300781 C 29.746094 60.039062 29.09375 60.851562 28.535156 61.722656 C 28.242188 62.28125 29.871094 63.632812 30.703125 63.648438 Z M 76.253906 213.898438 C 75.746094 213.234375 75.1875 212.613281 74.578125 212.039062 C 74.050781 211.691406 73.375 211.660156 72.8125 211.953125 C 72.253906 212.25 71.898438 212.824219 71.890625 213.457031 C 71.792969 214.429688 72.488281 214.957031 73.1875 215.441406 C 73.644531 215.871094 74.34375 215.921875 74.855469 215.5625 C 75.367188 215.046875 75.835938 214.492188 76.253906 213.898438 Z M 144.078125 60.355469 C 144.644531 59.949219 145.1875 59.511719 145.703125 59.046875 C 145.914062 58.871094 146.042969 58.613281 146.058594 58.339844 C 146.078125 58.066406 145.980469 57.800781 145.792969 57.597656 C 145.222656 56.894531 144.785156 56.015625 143.726562 55.917969 C 143.605469 55.914062 143.488281 55.960938 143.402344 56.046875 C 142.816406 56.570312 142.3125 57.175781 141.902344 57.847656 C 141.773438 58.117188 142.398438 58.753906 142.652344 59.210938 C 142.789062 59.441406 142.960938 59.648438 143.164062 59.824219 C 143.457031 60.023438 143.761719 60.203125 144.078125 60.355469 Z M 41.625 247.542969 C 42.421875 247.542969 43.820312 246.320312 43.8125 245.660156 C 43.804688 245.003906 42.175781 243.414062 41.558594 243.449219 C 40.515625 243.574219 39.683594 244.371094 39.523438 245.40625 C 39.695312 246.492188 40.539062 247.351562 41.625 247.542969 Z M 140.902344 63.566406 C 140.902344 63.109375 139.289062 61.398438 138.800781 61.359375 C 138.160156 61.324219 136.652344 62.636719 136.589844 63.289062 C 136.53125 63.9375 138.09375 65.535156 138.84375 65.632812 C 139.4375 65.6875 140.863281 64.238281 140.902344 63.566406 Z M 139.8125 210.734375 C 139.8125 211.351562 141.023438 212.902344 141.488281 212.910156 C 142.238281 212.910156 144.042969 211.410156 144.050781 210.773438 C 144.058594 210.136719 142.855469 208.636719 142.351562 208.636719 C 141.421875 208.636719 139.789062 209.984375 139.8125 210.734375 Z M 68.96875 221.582031 C 69.554688 221.582031 71.21875 220 70.941406 219.558594 C 70.34375 218.667969 69.578125 217.90625 68.6875 217.308594 C 68.238281 217 66.75 218.628906 66.730469 219.355469 C 66.707031 220.082031 68.195312 221.550781 68.96875 221.582031 Z M 153.167969 147.964844 C 153.167969 146.976562 152.191406 145.808594 151.375 145.820312 C 150.210938 145.820312 149.066406 146.699219 149.058594 147.554688 C 149.050781 148.40625 150.082031 149.800781 150.847656 149.757812 C 151.875 149.734375 153.160156 148.738281 153.167969 147.964844 Z M 55.988281 230.550781 C 56.371094 231.105469 56.789062 231.636719 57.234375 232.140625 C 57.984375 232.890625 58.308594 232.890625 59.066406 232.140625 C 60.667969 230.46875 60.757812 230.964844 59.15625 229.097656 C 58.699219 228.566406 58.257812 228.28125 57.535156 228.601562 C 56.6875 228.90625 56.089844 229.660156 55.988281 230.550781 Z M 154.8125 49.617188 C 155.789062 49.480469 156.570312 48.75 156.773438 47.789062 C 156.773438 47.039062 155.203125 45.40625 154.519531 45.449219 C 153.835938 45.496094 152.484375 46.894531 152.507812 47.449219 C 152.539062 48.132812 154.128906 49.640625 154.8125 49.617188 Z M 156.226562 155.21875 C 156.226562 153.863281 155.472656 152.851562 154.589844 153.023438 C 153.835938 153.175781 153.128906 153.5 152.53125 153.976562 C 152.214844 154.382812 152.113281 154.914062 152.253906 155.40625 C 152.433594 155.949219 153.003906 156.808594 153.320312 156.78125 C 154.242188 156.621094 155.132812 156.316406 155.960938 155.878906 C 156.152344 155.789062 156.179688 155.355469 156.226562 155.21875 Z M 131.695312 196.023438 C 131.972656 196.734375 132.195312 197.347656 132.445312 197.949219 C 132.515625 198.265625 132.730469 198.527344 133.027344 198.664062 C 133.320312 198.796875 133.660156 198.789062 133.945312 198.636719 C 134.285156 198.511719 134.644531 198.445312 134.960938 198.285156 C 135.589844 198.078125 135.96875 197.4375 135.847656 196.789062 C 135.683594 195.894531 135.464844 195.011719 134.503906 194.621094 C 134.273438 194.582031 134.035156 194.632812 133.84375 194.765625 C 133.097656 195.152344 132.445312 195.617188 131.695312 196.023438 Z M 78.972656 210.082031 C 79.941406 209.828125 80.679688 209.046875 80.878906 208.066406 C 80.878906 207.199219 79.453125 205.945312 78.5 205.96875 C 77.558594 206.132812 76.851562 206.914062 76.777344 207.863281 C 76.765625 208.683594 78.199219 210.105469 78.972656 210.082031 Z M 98.546875 183.5 C 98.546875 182.875 96.917969 181.675781 96.023438 181.648438 C 95.316406 181.648438 94.371094 182.773438 94.394531 183.625 C 94.414062 184.480469 95.84375 185.640625 96.757812 185.664062 C 97.675781 185.6875 98.546875 184.53125 98.546875 183.5 Z M 105.9375 101.453125 C 105.222656 101.453125 103.773438 102.671875 103.796875 103.273438 C 103.835938 103.753906 104.066406 104.203125 104.433594 104.515625 C 105.035156 104.980469 105.9375 105.695312 106.417969 105.515625 C 107.101562 105.25 107.621094 104.328125 107.988281 103.585938 C 108.09375 103.386719 107.46875 102.761719 107.109375 102.402344 C 106.738281 102.0625 106.351562 101.746094 105.945312 101.453125 Z M 133.480469 67.027344 C 132.464844 67.125 131.667969 67.9375 131.597656 68.953125 C 131.597656 69.832031 132.933594 71.132812 133.847656 71.132812 C 134.742188 70.96875 135.457031 70.292969 135.667969 69.410156 C 135.703125 68.644531 134.234375 67.050781 133.488281 67.027344 Z M 62.125 36.957031 C 61.375 37.121094 59.992188 38.808594 59.992188 39.507812 C 59.992188 40.203125 61.492188 41.320312 62.335938 41.320312 C 62.9375 41.320312 64.519531 39.582031 64.199219 38.964844 C 63.753906 38.15625 62.816406 37.609375 62.101562 36.957031 Z M 63.949219 227.132812 C 64.40625 226.839844 64.84375 226.515625 65.257812 226.160156 C 66.007812 225.476562 65.96875 225.035156 65.257812 224.367188 C 64.777344 223.953125 64.273438 223.5625 63.753906 223.199219 C 63.597656 223.074219 63.398438 223.011719 63.199219 223.011719 C 62.308594 223.25 61.664062 224.023438 61.589844 224.9375 C 61.660156 225.835938 62.921875 227.164062 63.925781 227.132812 Z M 158.375 42.160156 C 158.375 42.789062 159.832031 44.40625 160.433594 44.453125 C 161.03125 44.496094 162.574219 43.109375 162.558594 42.472656 C 162.542969 41.835938 161.011719 40.277344 160.386719 40.226562 C 159.394531 40.425781 158.609375 41.179688 158.375 42.160156 Z M 91.988281 187.742188 C 91.457031 187.742188 90.171875 189.238281 90.132812 189.945312 C 90.132812 190.445312 91.839844 191.847656 92.53125 191.886719 C 93.222656 191.921875 94.347656 190.507812 94.371094 189.78125 C 94.394531 189.050781 92.90625 187.769531 91.988281 187.742188 Z M 57.804688 34.910156 C 57.804688 34.160156 56.582031 33.21875 55.65625 33.203125 C 55.230469 33.203125 53.695312 35.105469 53.6875 35.675781 C 53.683594 36.246094 55.035156 37.378906 55.816406 37.332031 C 56.597656 37.289062 57.820312 35.714844 57.804688 34.910156 Z M 83.34375 133.882812 C 83.34375 134.632812 85.222656 136.386719 85.785156 136.027344 C 86.535156 135.53125 86.996094 134.527344 87.582031 133.777344 C 86.851562 133.101562 86.039062 132.523438 85.160156 132.054688 C 84.433594 131.746094 83.3125 133.050781 83.320312 133.882812 Z M 126.382812 74.671875 C 126.960938 75.226562 127.375 75.667969 127.824219 76.058594 C 128.988281 77.078125 129.328125 77.027344 130.335938 75.789062 C 131.085938 74.816406 131.085938 74.605469 130.152344 73.726562 C 129.980469 73.570312 129.839844 73.339844 129.636719 73.242188 C 129.117188 73.015625 128.375 72.535156 128.089844 72.722656 C 127.417969 73.285156 126.832031 73.9375 126.339844 74.65625 Z M 103.707031 109.546875 C 103.707031 108.925781 101.828125 107.296875 101.347656 107.640625 C 100.570312 108.195312 99.9375 108.921875 99.492188 109.761719 C 99.246094 110.234375 101.332031 111.773438 102.023438 111.710938 C 102.558594 111.675781 103.707031 110.175781 103.683594 109.53125 Z M 110.429688 95.582031 C 109.003906 95.628906 107.792969 97.398438 108.417969 98.152344 C 108.996094 98.824219 109.730469 99.335938 110.558594 99.652344 C 110.8125 99.757812 111.414062 99.007812 111.839844 98.632812 C 112.019531 98.472656 112.167969 98.28125 112.285156 98.070312 C 112.382812 97.90625 112.503906 97.589844 112.433594 97.515625 C 111.699219 96.765625 110.957031 96.085938 110.40625 95.566406 Z M 45.214844 68.953125 C 45.132812 68.675781 45.132812 68.554688 45.074219 68.511719 C 44.488281 67.984375 43.84375 67.53125 43.152344 67.15625 C 42.941406 67.058594 42.398438 67.613281 42.039062 67.902344 C 41.710938 68.171875 41.453125 68.511719 41.289062 68.902344 C 41.144531 69.289062 41.164062 69.714844 41.347656 70.085938 C 41.699219 70.539062 42.136719 70.921875 42.640625 71.203125 C 42.851562 71.328125 43.347656 71.375 43.457031 71.246094 C 44.105469 70.488281 44.683594 69.703125 45.214844 68.953125 Z M 104.878906 172.96875 C 105.507812 172.96875 106.433594 171.835938 106.378906 171.117188 C 106.328125 170.398438 104.757812 168.972656 104.074219 168.980469 C 103.390625 168.988281 102.136719 170.480469 102.175781 171.15625 C 102.210938 171.828125 104.074219 172.984375 104.878906 172.96875 Z M 117.804688 163.59375 C 118.941406 163.554688 120.5625 162.585938 120.53125 161.957031 C 120.472656 160.902344 119.675781 159.769531 118.976562 159.890625 C 117.511719 160.136719 116.273438 160.707031 116.386719 161.824219 C 116.484375 162.828125 117.0625 163.613281 117.804688 163.59375 Z M 70.484375 43.007812 C 70.34375 42.089844 69.597656 41.382812 68.675781 41.289062 C 67.855469 41.289062 66.617188 42.714844 66.59375 43.703125 C 66.59375 44.453125 67.699219 45.40625 68.613281 45.425781 C 69.253906 45.441406 70.507812 43.839844 70.5 43.007812 Z M 83.90625 203.765625 C 84.484375 203.765625 85.6875 202.429688 85.710938 201.765625 C 85.730469 201.097656 84.101562 199.417969 83.457031 199.742188 C 82.640625 200.230469 81.996094 200.960938 81.609375 201.832031 C 81.359375 202.476562 82.984375 203.75 83.921875 203.765625 Z M 83.90625 104.390625 C 83.472656 103.785156 82.96875 103.234375 82.40625 102.75 C 82.15625 102.574219 81.511719 102.9375 81.066406 103.109375 C 80.859375 103.226562 80.667969 103.375 80.503906 103.550781 C 79.339844 104.53125 79.308594 104.792969 80.324219 105.933594 C 80.707031 106.375 81.074219 106.96875 81.828125 106.601562 C 82.796875 106.167969 83.554688 105.375 83.945312 104.390625 Z M 99.296875 115.820312 C 99.296875 115.128906 97.601562 113.449219 97 113.796875 C 96.25 114.253906 95.746094 115.257812 95.136719 116.042969 C 95.871094 116.722656 96.6875 117.308594 97.5625 117.789062 C 98.222656 118.046875 99.296875 116.71875 99.296875 115.820312 Z M 83.523438 140.089844 C 83.464844 139.96875 83.382812 139.617188 83.171875 139.488281 C 82.507812 139.09375 81.804688 138.761719 81.074219 138.507812 C 80.730469 138.476562 80.386719 138.601562 80.144531 138.851562 C 79.496094 139.296875 79.28125 140.152344 79.632812 140.851562 C 80.070312 141.667969 81.457031 142.457031 82.148438 142.292969 C 83.019531 141.910156 83.5625 141.035156 83.523438 140.089844 Z M 89.683594 129.949219 C 90.171875 129.949219 91.667969 128.230469 91.375 127.894531 C 90.707031 127.089844 89.882812 126.433594 88.945312 125.96875 C 88.355469 125.683594 87.195312 127.242188 87.203125 128.15625 C 87.175781 128.71875 88.878906 129.949219 89.644531 129.949219 Z M 76.351562 152.433594 C 76.210938 152.21875 76.058594 152.011719 75.890625 151.816406 C 74.292969 150.125 72.820312 150.257812 72.0625 152.175781 C 71.980469 152.378906 71.910156 152.769531 72 152.828125 C 72.777344 153.445312 73.617188 153.972656 74.511719 154.394531 C 74.734375 154.484375 75.335938 153.722656 75.726562 153.316406 C 75.953125 153.03125 76.148438 152.726562 76.3125 152.402344 Z M 99.898438 175.089844 C 99.476562 175.734375 99.066406 176.320312 98.71875 176.933594 C 98.601562 177.164062 98.566406 177.429688 98.628906 177.683594 C 99.042969 178.570312 99.90625 179.160156 100.882812 179.226562 C 101.753906 179.066406 102.457031 178.421875 102.691406 177.570312 C 102.910156 176.820312 102.300781 176.507812 101.8125 176.191406 C 101.324219 175.875 100.542969 175.457031 99.859375 175.058594 Z M 157.652344 167.886719 C 157.816406 168.457031 158.019531 169.015625 158.253906 169.558594 C 158.382812 169.796875 158.839844 170.105469 159.003906 170.039062 C 159.898438 169.660156 160.769531 169.226562 161.609375 168.742188 C 161.769531 168.566406 161.835938 168.328125 161.792969 168.097656 C 161.632812 167.308594 161.265625 166.402344 160.445312 166.417969 C 159.535156 166.5625 158.652344 166.859375 157.839844 167.292969 C 157.734375 167.347656 157.734375 167.625 157.652344 167.886719 Z M 108.378906 166.941406 C 108.65625 166.941406 108.835938 166.941406 108.882812 166.882812 C 109.378906 166.3125 109.808594 165.691406 110.160156 165.023438 C 110.257812 164.800781 109.777344 164.273438 109.460938 163.960938 C 109.105469 163.59375 108.679688 163.304688 108.207031 163.113281 C 107.851562 162.972656 107.457031 163 107.125 163.1875 C 106.710938 163.703125 106.375 164.277344 106.132812 164.890625 C 106.046875 165.164062 106.097656 165.460938 106.269531 165.691406 C 106.972656 166.179688 107.742188 166.574219 108.378906 166.957031 Z M 39.050781 65.207031 C 38.757812 64.289062 38.019531 63.582031 37.089844 63.324219 C 36.40625 63.324219 35.097656 64.824219 35.128906 65.648438 C 35.160156 66.472656 36.546875 67.597656 37.292969 67.550781 C 37.707031 67.53125 39.066406 65.746094 39.050781 65.207031 Z M 70.597656 160.503906 C 70.964844 160.414062 71.128906 160.421875 71.183594 160.355469 C 71.625 159.671875 72.070312 158.992188 72.460938 158.277344 C 72.511719 158.179688 72.316406 157.886719 72.167969 157.769531 C 71.65625 157.363281 71.121094 157.019531 70.582031 156.613281 C 70.363281 156.445312 70.082031 156.382812 69.808594 156.4375 C 69.539062 156.496094 69.304688 156.664062 69.171875 156.90625 C 68.792969 157.417969 68.214844 158.359375 68.417969 158.601562 C 69.066406 159.3125 69.792969 159.953125 70.582031 160.503906 Z M 156.351562 163.457031 C 157.421875 163.457031 158.980469 162.585938 158.96875 161.957031 C 158.96875 161.117188 158 159.613281 157.464844 159.621094 C 156.609375 159.621094 154.917969 160.796875 154.902344 161.367188 C 154.882812 162.503906 155.542969 163.449219 156.339844 163.457031 Z M 149.195312 54.714844 C 150.035156 54.714844 151.628906 53.484375 151.328125 53.011719 C 150.6875 52.164062 149.960938 51.378906 149.164062 50.671875 C 148.453125 51.246094 147.8125 51.902344 147.257812 52.628906 C 146.980469 53.058594 148.632812 54.714844 149.195312 54.714844 Z M 166.148438 39.78125 C 166.75 39.316406 167.292969 38.777344 167.761719 38.179688 C 167.921875 37.925781 167.566406 37.28125 167.328125 36.875 C 167.070312 36.46875 166.753906 36.105469 166.386719 35.796875 C 166.207031 35.632812 165.808594 35.429688 165.699219 35.511719 C 165.054688 35.914062 164.46875 36.40625 163.960938 36.972656 C 163.511719 37.535156 164.15625 37.933594 164.472656 38.328125 C 164.699219 38.640625 164.949219 38.933594 165.222656 39.207031 C 165.515625 39.421875 165.824219 39.613281 166.148438 39.78125 Z M 121.367188 166.710938 C 120.875 166.917969 120.398438 167.15625 119.9375 167.421875 C 119.097656 167.953125 118.992188 168.492188 119.457031 169.402344 C 119.808594 170.167969 120.699219 170.523438 121.484375 170.21875 C 121.816406 170.082031 122.132812 169.894531 122.460938 169.769531 C 122.808594 169.65625 123.09375 169.402344 123.246094 169.070312 C 123.394531 168.738281 123.402344 168.359375 123.257812 168.023438 C 123.039062 167.179688 122.234375 166.621094 121.367188 166.710938 Z M 123.230469 143.226562 C 123.714844 143.234375 124.179688 143.042969 124.515625 142.695312 C 124.851562 142.347656 125.03125 141.875 125.007812 141.390625 C 125.007812 140.761719 123.242188 139.472656 122.410156 139.472656 C 121.800781 139.472656 120.953125 140.476562 120.90625 141.199219 C 120.929688 142.113281 122.183594 143.222656 123.230469 143.226562 Z M 160.140625 90.816406 C 158.898438 90.816406 157.726562 92.074219 158.164062 92.75 C 158.730469 93.5 159.382812 94.183594 160.109375 94.78125 C 160.222656 94.886719 160.574219 94.839844 160.761719 94.78125 C 162.265625 94.03125 162.453125 92.96875 161.304688 91.78125 C 160.933594 91.441406 160.542969 91.117188 160.140625 90.816406 Z M 46.785156 238.625 C 46.257812 238.949219 45.789062 239.359375 45.398438 239.839844 C 45.246094 240.316406 45.300781 240.839844 45.546875 241.277344 C 45.835938 241.761719 46.21875 242.1875 46.671875 242.523438 C 46.933594 242.699219 47.257812 242.765625 47.566406 242.707031 C 48.355469 242.527344 49.273438 241.441406 49.203125 240.886719 C 49.113281 240.207031 47.613281 238.828125 46.785156 238.625 Z M 144.898438 113.457031 C 144.613281 113.121094 144.199219 112.566406 143.710938 112.070312 C 142.902344 111.261719 142.210938 111.277344 141.457031 112.070312 C 141.140625 112.363281 140.96875 112.78125 140.980469 113.210938 C 140.992188 113.640625 141.1875 114.042969 141.519531 114.320312 C 141.882812 114.667969 142.296875 114.960938 142.75 115.183594 C 143.765625 115.691406 144.890625 114.941406 144.898438 113.488281 Z M 123.605469 177.164062 C 124.59375 177.164062 126.082031 176.234375 126.082031 175.597656 C 126.082031 174.730469 125.175781 173.351562 124.582031 173.351562 C 123.738281 173.351562 122.085938 174.371094 122.085938 174.910156 C 122.109375 176.003906 122.898438 177.1875 123.605469 177.195312 Z M 88.355469 197.867188 C 89.230469 197.730469 89.921875 197.046875 90.066406 196.171875 C 90.066406 195.492188 88.355469 193.925781 87.617188 193.925781 C 87.105469 193.925781 85.90625 195.421875 85.933594 195.96875 C 85.964844 196.515625 87.671875 197.867188 88.355469 197.867188 Z M 62.386719 167.660156 C 61.800781 168.191406 61.292969 168.808594 60.886719 169.484375 C 60.523438 170.308594 61.441406 170.628906 61.980469 170.980469 C 62.523438 171.335938 63.085938 172.175781 63.933594 171.589844 C 65.167969 170.742188 65.195312 169.707031 64.078125 168.757812 C 63.777344 168.507812 63.484375 168.261719 63.167969 168.007812 C 62.914062 167.875 62.65625 167.761719 62.386719 167.660156 Z M 75.308594 99.15625 C 75.230469 100.460938 76.269531 101.40625 77.28125 101.03125 C 77.960938 100.730469 78.558594 100.265625 79.015625 99.683594 C 79.242188 99.425781 79.339844 99.082031 79.28125 98.746094 C 79.222656 98.410156 79.015625 98.117188 78.714844 97.953125 C 78.296875 97.667969 77.582031 97.34375 77.214844 97.515625 C 76.457031 97.875 75.488281 98.265625 75.308594 99.15625 Z M 146.964844 106.089844 C 146.039062 106.238281 145.339844 106.996094 145.265625 107.925781 C 145.304688 108.535156 147.015625 110.0625 147.640625 110.039062 C 148.265625 110.019531 149.34375 108.691406 149.324219 108.101562 C 149.300781 107.507812 147.691406 106.070312 146.964844 106.089844 Z M 124.722656 135.539062 C 124.648438 136.234375 125.609375 137.1875 126.8125 137.652344 C 127.5625 137.960938 127.90625 137.414062 128.253906 136.902344 C 129.09375 135.695312 129.050781 135.472656 127.824219 134.601562 C 127.636719 134.457031 127.4375 134.320312 127.230469 134.195312 C 126.734375 133.882812 126.105469 133.863281 125.585938 134.140625 C 125.066406 134.417969 124.738281 134.953125 124.722656 135.539062 Z M 117.40625 85.136719 L 119.066406 87.226562 C 119.15625 87.347656 119.234375 87.519531 119.351562 87.5625 C 119.617188 87.660156 119.960938 87.816406 120.164062 87.722656 C 121.667969 86.972656 121.875 85.675781 120.726562 84.535156 L 120.601562 84.40625 C 119.546875 83.375 118.984375 83.382812 117.972656 84.40625 C 117.789062 84.640625 117.632812 84.859375 117.40625 85.136719 Z M 169.664062 84.871094 C 170.53125 84.632812 171.226562 83.980469 171.511719 83.125 C 171.511719 82.46875 169.957031 80.9375 169.257812 80.878906 C 168.695312 80.839844 167.417969 82.121094 167.402344 82.738281 C 167.386719 83.195312 169.152344 84.867188 169.664062 84.871094 Z M 128.765625 129.664062 C 128.765625 130.488281 130.117188 131.910156 130.972656 131.992188 C 131.558594 132.039062 132.722656 130.800781 132.769531 130.089844 C 132.8125 129.378906 131.265625 128.246094 130.289062 128.230469 C 129.476562 128.21875 128.800781 128.851562 128.765625 129.664062 Z M 67.816406 91.324219 C 68.492188 90.792969 69.011719 90.410156 69.5 89.992188 C 70.417969 89.242188 70.460938 88.597656 69.695312 87.742188 C 68.929688 86.890625 68.5 86.867188 67.578125 87.691406 C 67.265625 87.902344 66.984375 88.152344 66.742188 88.441406 C 66.519531 88.769531 66.179688 89.324219 66.308594 89.535156 C 66.753906 90.179688 67.257812 90.777344 67.816406 91.324219 Z M 174.929688 80.023438 C 175.175781 79.785156 175.769531 79.4375 175.980469 78.9375 C 176.429688 77.863281 175.453125 77.265625 174.90625 76.5625 C 174.566406 76.082031 173.925781 75.929688 173.402344 76.199219 C 173.324219 76.238281 173.246094 76.28125 173.171875 76.328125 C 172.5 76.667969 172.167969 77.4375 172.382812 78.15625 C 172.832031 79.191406 173.804688 79.90625 174.929688 80.023438 Z M 28.804688 211.933594 C 29.367188 211.480469 29.871094 210.960938 30.304688 210.382812 C 30.457031 210.128906 30.097656 209.515625 29.902344 209.101562 C 29.738281 208.851562 29.539062 208.628906 29.308594 208.441406 C 28.308594 207.4375 28.0625 207.4375 27.054688 208.441406 C 26.234375 209.257812 26.226562 209.507812 26.980469 210.382812 C 27.28125 210.726562 27.601562 211.050781 27.941406 211.359375 C 28.210938 211.566406 28.5 211.753906 28.804688 211.914062 Z M 118.59375 144.871094 C 118.089844 145.464844 117.648438 146.105469 117.273438 146.789062 C 117.191406 147.21875 117.339844 147.65625 117.664062 147.949219 C 118.414062 148.371094 118.976562 149.449219 120.132812 148.925781 C 120.179688 148.890625 120.222656 148.847656 120.253906 148.796875 C 120.566406 148.433594 120.859375 148.054688 121.125 147.65625 C 121.246094 147.46875 121.3125 147.042969 121.207031 146.945312 C 120.433594 146.257812 119.578125 145.640625 118.59375 144.847656 Z M 123.625 78.382812 C 122.789062 78.535156 122.132812 79.191406 121.988281 80.03125 C 121.988281 80.707031 123.65625 82.28125 124.339844 82.28125 C 125.164062 81.988281 125.808594 81.335938 126.089844 80.511719 C 126.128906 79.828125 124.40625 78.359375 123.625 78.359375 Z M 205.078125 224.179688 C 204.476562 223.613281 203.824219 223.097656 203.132812 222.636719 C 202.910156 222.515625 202.34375 222.800781 202.050781 223.050781 C 201.660156 223.375 201.339844 223.773438 201.105469 224.226562 C 200.925781 224.570312 200.746094 225.222656 200.902344 225.375 C 201.492188 225.839844 202.121094 226.253906 202.78125 226.609375 C 203.480469 225.867188 204.175781 225.125 205.078125 224.179688 Z M 90.15625 117.484375 C 90.472656 117.332031 90.765625 117.144531 91.035156 116.921875 C 91.394531 116.53125 91.636719 116.035156 91.980469 115.625 C 92.152344 115.460938 92.25 115.230469 92.25 114.996094 C 92.25 114.757812 92.152344 114.53125 91.980469 114.367188 C 91.140625 113.308594 90.96875 113.261719 89.796875 114 C 89.546875 114.15625 89.269531 114.28125 89.042969 114.449219 C 88.480469 114.710938 88.226562 115.375 88.464844 115.945312 C 88.707031 116.679688 89.03125 117.378906 90.15625 117.484375 Z M 53.15625 186.097656 C 53.15625 185.09375 51.382812 183.542969 50.667969 183.597656 C 50.519531 183.613281 50.378906 183.664062 50.25 183.738281 C 48.882812 184.570312 48.808594 185.636719 50.0625 186.640625 C 50.289062 186.875 50.5625 187.0625 50.863281 187.1875 C 51.289062 187.339844 51.753906 187.339844 52.179688 187.1875 C 52.566406 186.886719 52.898438 186.515625 53.15625 186.097656 Z M 199.039062 54.367188 C 198.488281 54.355469 197.972656 54.621094 197.667969 55.078125 C 197.363281 55.535156 197.3125 56.117188 197.539062 56.617188 C 197.738281 56.980469 197.976562 57.324219 198.242188 57.644531 C 198.996094 58.566406 199.550781 58.625 200.4375 57.921875 C 201.324219 57.214844 201.351562 56.714844 200.570312 55.734375 C 200.289062 55.371094 199.980469 55.03125 199.648438 54.714844 C 199.460938 54.574219 199.253906 54.460938 199.039062 54.367188 Z M 195.503906 220.832031 C 195.921875 221.332031 196.253906 221.960938 196.757812 222.238281 C 197.25 222.363281 197.773438 222.257812 198.175781 221.949219 C 198.695312 221.546875 199.132812 221.054688 199.476562 220.492188 C 199.597656 220.214844 199.585938 219.898438 199.4375 219.632812 C 198.410156 218.269531 197.832031 218.222656 196.597656 219.347656 C 196.414062 219.496094 196.242188 219.664062 196.089844 219.847656 C 195.875 220.164062 195.679688 220.492188 195.503906 220.832031 Z M 78.167969 148.355469 C 78.808594 148.355469 79.671875 147.3125 79.671875 146.511719 C 79.671875 145.84375 78.222656 144.578125 77.417969 144.546875 C 76.824219 144.546875 75.621094 145.980469 75.628906 146.699219 C 75.667969 147.164062 77.433594 148.332031 78.167969 148.355469 Z M 44.847656 195.960938 C 44.21875 195.28125 43.796875 194.765625 43.347656 194.3125 C 42.226562 193.273438 41.980469 193.316406 40.980469 194.425781 C 40.445312 195.019531 40.339844 195.527344 40.980469 196.097656 C 41.25 196.367188 41.503906 196.660156 41.730469 196.96875 C 42.105469 197.417969 42.578125 197.714844 43.128906 197.402344 C 43.734375 196.960938 44.308594 196.480469 44.847656 195.960938 Z M 33.582031 207.078125 C 34.386719 207 35.027344 206.378906 35.128906 205.578125 C 35.175781 204.828125 33.703125 203.226562 32.964844 203.1875 C 32.09375 203.199219 31.371094 203.871094 31.296875 204.738281 C 31.492188 205.929688 32.417969 206.863281 33.605469 207.078125 Z M 155.265625 95.515625 C 155.15625 95.683594 155.042969 95.847656 154.917969 96.003906 C 153.175781 97.824219 153.207031 98.117188 155.308594 99.554688 C 155.503906 99.746094 155.773438 99.847656 156.046875 99.824219 C 156.316406 99.804688 156.566406 99.664062 156.730469 99.441406 C 156.984375 99.152344 157.34375 98.886719 157.480469 98.542969 C 157.617188 98.15625 157.589844 97.730469 157.40625 97.367188 C 156.730469 96.707031 156.011719 96.085938 155.257812 95.515625 Z M 178.78125 71.53125 C 177.921875 71.628906 177.246094 72.3125 177.160156 73.171875 C 177.210938 73.984375 178.617188 75.503906 179.300781 75.480469 C 180.148438 75.371094 180.824219 74.714844 180.953125 73.871094 C 180.929688 73.007812 179.546875 71.53125 178.773438 71.554688 Z M 163.363281 172.445312 C 162.609375 172.804688 162.015625 173.042969 161.460938 173.328125 C 160.34375 173.890625 160.335938 173.90625 160.828125 175.058594 C 161.078125 175.636719 161.296875 176.371094 162.097656 176.207031 C 162.796875 176.070312 163.457031 175.789062 164.039062 175.382812 C 164.601562 174.917969 164.707031 174.101562 164.285156 173.507812 C 164.019531 173.121094 163.707031 172.761719 163.363281 172.445312 Z M 135.515625 126.261719 C 135.742188 126.058594 136.269531 125.78125 136.515625 125.339844 C 136.617188 124.902344 136.546875 124.445312 136.3125 124.0625 C 136.058594 123.660156 135.75 123.292969 135.398438 122.96875 C 134.96875 122.484375 134.503906 122.160156 133.84375 122.617188 C 133.109375 123.011719 132.707031 123.828125 132.835938 124.648438 C 133.421875 125.582031 134.417969 126.179688 135.515625 126.261719 Z M 165.1875 89.910156 C 165.746094 89.472656 166.25 88.96875 166.6875 88.410156 C 166.824219 88.179688 166.441406 87.519531 166.148438 87.179688 C 165.75 86.734375 165.28125 86.351562 164.757812 86.058594 C 164.46875 85.90625 164.128906 85.894531 163.828125 86.019531 C 163.082031 86.296875 162.683594 87.105469 162.917969 87.863281 C 163.324219 88.859375 164.15625 89.621094 165.1875 89.9375 Z M 190.183594 211.199219 C 189.746094 210.621094 189.242188 210.097656 188.683594 209.632812 C 188.402344 209.460938 187.78125 209.632812 187.421875 209.859375 C 187.011719 210.160156 186.644531 210.511719 186.332031 210.90625 C 186.066406 211.09375 185.910156 211.398438 185.910156 211.722656 C 185.910156 212.042969 186.066406 212.347656 186.332031 212.535156 C 186.78125 212.910156 187.59375 213.5 187.832031 213.34375 C 188.6875 212.710938 189.476562 211.992188 190.183594 211.199219 Z M 73.066406 92.03125 C 72.4375 92.03125 70.589844 93.582031 70.816406 94.078125 C 71.238281 94.789062 71.742188 95.449219 72.316406 96.046875 C 73.191406 95.390625 74.011719 94.664062 74.765625 93.875 C 75.074219 93.492188 73.667969 92.023438 73.089844 91.992188 Z M 196.058594 60.894531 C 195.59375 60.199219 195.261719 59.601562 194.832031 59.074219 C 194.082031 58.191406 193.871094 58.183594 192.992188 58.859375 C 191.695312 59.855469 191.671875 60.042969 192.714844 61.339844 C 192.910156 61.636719 193.167969 61.894531 193.464844 62.089844 C 193.828125 62.253906 194.382812 62.417969 194.660156 62.253906 C 195.179688 61.859375 195.648438 61.402344 196.058594 60.894531 Z M 65.96875 162.125 C 65.574219 162.621094 65.210938 163.140625 64.882812 163.683594 C 64.746094 163.953125 64.6875 164.5 64.84375 164.640625 C 65.410156 165.199219 66.054688 165.675781 66.757812 166.050781 C 67.375 166.351562 68.148438 165.714844 68.597656 164.804688 C 68.9375 164.101562 68.539062 163.734375 68.035156 163.40625 C 67.382812 162.984375 66.714844 162.585938 65.96875 162.125 Z M 165.976562 178.476562 C 165.167969 179 164.414062 179.601562 163.722656 180.269531 C 163.496094 180.523438 163.640625 181.339844 163.894531 181.707031 C 164.210938 182.078125 164.6875 182.273438 165.171875 182.230469 C 165.832031 182.074219 166.457031 181.792969 167.011719 181.398438 C 167.285156 181.273438 167.488281 181.035156 167.570312 180.75 C 167.652344 180.460938 167.605469 180.152344 167.441406 179.902344 C 167 179.378906 166.507812 178.902344 165.976562 178.476562 Z M 37.914062 198.367188 C 37.164062 198.367188 35.765625 199.65625 36.015625 200.019531 C 36.699219 200.875 37.453125 201.671875 38.269531 202.402344 C 38.3125 202.445312 38.5 202.402344 38.605469 202.324219 C 39.195312 202.171875 39.652344 201.703125 39.789062 201.109375 C 39.925781 200.515625 39.71875 199.894531 39.253906 199.5 C 38.996094 199.207031 38.726562 198.929688 38.441406 198.667969 C 38.28125 198.546875 38.101562 198.445312 37.914062 198.367188 Z M 185.429688 206.269531 C 185.429688 205.464844 184.40625 204.550781 183.722656 204.882812 C 182.96875 205.28125 182.277344 205.785156 181.667969 206.382812 C 181.492188 206.539062 181.5 207.003906 181.570312 207.296875 C 181.753906 208.089844 182.519531 208.605469 183.328125 208.480469 C 184.175781 208.359375 185.4375 207.019531 185.429688 206.269531 Z M 46.613281 188.4375 C 46.25 188.683594 45.921875 188.972656 45.628906 189.300781 C 45.359375 189.691406 44.953125 190.347656 45.105469 190.582031 C 45.542969 191.277344 46.121094 191.875 46.800781 192.335938 C 47.363281 192.710938 48.304688 192.132812 48.792969 191.339844 C 49.21875 190.664062 48.792969 190.28125 48.355469 189.898438 C 47.921875 189.515625 47.257812 188.976562 46.613281 188.4375 Z M 54.980469 178.378906 C 54.140625 178.417969 53.46875 179.085938 53.425781 179.921875 C 53.425781 180.582031 55.085938 182.121094 55.792969 182.113281 C 56.59375 181.960938 57.203125 181.304688 57.292969 180.492188 C 57.332031 179.640625 55.941406 178.378906 54.980469 178.378906 Z M 186.058594 69.179688 C 186.058594 68.429688 184.664062 66.832031 183.949219 66.855469 C 183.234375 66.878906 182.214844 67.898438 182.230469 68.457031 C 182.230469 69.207031 183.730469 70.789062 184.394531 70.765625 C 185.167969 70.527344 185.785156 69.941406 186.058594 69.179688 Z M 191.933594 217.929688 C 193.015625 217.929688 194.683594 216.527344 194.527344 215.816406 C 194.300781 215.136719 193.882812 214.535156 193.324219 214.085938 C 193.195312 213.964844 192.476562 214.363281 192.113281 214.640625 C 191.742188 214.9375 191.425781 215.300781 191.191406 215.710938 C 190.988281 216.058594 190.71875 216.605469 190.851562 216.84375 C 191.152344 217.261719 191.519531 217.625 191.933594 217.929688 Z M 179 203.898438 C 179.707031 203.332031 180.222656 202.902344 180.757812 202.507812 C 181.054688 202.34375 181.257812 202.054688 181.304688 201.71875 C 181.351562 201.386719 181.238281 201.050781 180.996094 200.8125 C 180.15625 199.636719 179.832031 199.554688 178.691406 200.398438 C 178.472656 200.566406 178.277344 200.753906 178.0625 200.910156 C 177.773438 201.054688 177.554688 201.308594 177.460938 201.617188 C 177.367188 201.925781 177.40625 202.257812 177.566406 202.535156 C 177.980469 203.050781 178.464844 203.507812 179 203.898438 Z M 204.671875 50.125 C 204.191406 50.410156 203.734375 50.734375 203.3125 51.101562 C 203.058594 51.363281 202.75 51.851562 202.839844 52.128906 C 203.074219 52.769531 203.414062 53.367188 203.855469 53.886719 C 204.371094 54.511719 205.132812 54.429688 205.933594 53.828125 C 206.230469 53.667969 206.433594 53.378906 206.484375 53.046875 C 206.539062 52.714844 206.429688 52.378906 206.199219 52.136719 C 205.710938 51.460938 205.207031 50.808594 204.671875 50.125 Z M 84.273438 110.679688 C 84.5 111.113281 84.804688 111.503906 85.175781 111.824219 C 85.601562 111.964844 86.066406 111.929688 86.46875 111.726562 C 86.933594 111.515625 87.347656 111.207031 87.683594 110.828125 C 87.902344 110.582031 88.152344 110.078125 88.039062 109.867188 C 87.679688 109.210938 87.164062 108.648438 86.535156 108.234375 C 86.003906 107.925781 84.3125 109.6875 84.273438 110.679688 Z M 52.132812 76.90625 C 52.246094 77.726562 52.925781 78.355469 53.757812 78.40625 C 54.386719 78.40625 55.882812 76.597656 55.84375 75.921875 C 55.84375 75.429688 54.664062 74.476562 54.074219 74.425781 C 53.480469 74.371094 52.125 76.058594 52.132812 76.90625 Z M 170.496094 186.332031 C 170.582031 185.472656 170 184.6875 169.152344 184.519531 C 168.289062 184.449219 166.570312 185.453125 166.507812 186.0625 C 166.496094 186.179688 166.511719 186.296875 166.5625 186.40625 C 166.804688 186.886719 167.085938 187.34375 167.410156 187.769531 C 167.535156 187.960938 167.742188 188.082031 167.972656 188.101562 C 168.199219 188.121094 168.425781 188.035156 168.582031 187.867188 C 169.070312 187.480469 169.617188 187.179688 170.082031 186.796875 C 170.242188 186.664062 170.382812 186.507812 170.496094 186.332031 Z M 65.609375 83.980469 C 65.226562 83.53125 64.917969 82.945312 64.4375 82.699219 C 64.136719 82.542969 63.515625 82.820312 63.144531 83.066406 C 62.695312 83.359375 62.320312 83.757812 62.058594 84.226562 C 61.871094 84.597656 61.871094 85.035156 62.058594 85.40625 C 62.386719 85.882812 62.878906 86.230469 63.4375 86.386719 C 64.183594 86.476562 65.421875 84.933594 65.609375 83.980469 Z M 151.988281 104.964844 C 152.449219 104.316406 152.914062 103.664062 153.347656 102.996094 C 153.394531 102.929688 153.273438 102.703125 153.175781 102.613281 C 152.667969 102.105469 152.105469 101.65625 151.5 101.273438 C 151.109375 101.097656 150.660156 101.132812 150.300781 101.363281 C 149.882812 101.738281 149.617188 102.253906 149.546875 102.808594 C 149.511719 103.429688 151.296875 104.875 151.988281 104.980469 Z M 48.625 74.816406 C 48.714844 74.769531 49.003906 74.730469 49.128906 74.566406 C 49.625 73.90625 50.097656 73.226562 50.535156 72.511719 C 50.625 72.363281 50.535156 72.042969 50.421875 71.855469 C 49.746094 70.640625 48.632812 70.574219 47.851562 71.6875 C 47.652344 71.984375 47.457031 72.285156 47.265625 72.589844 C 47.003906 73.058594 47.015625 73.636719 47.296875 74.097656 C 47.578125 74.558594 48.085938 74.832031 48.625 74.816406 Z M 58.632812 82.542969 C 58.875 82.410156 59.101562 82.253906 59.316406 82.078125 C 59.707031 81.664062 60.066406 81.246094 60.441406 80.804688 C 61.085938 79.984375 61.027344 79.46875 60.238281 78.816406 C 59.570312 78.253906 59.074219 78.316406 58.382812 79.058594 C 58.058594 79.367188 57.773438 79.71875 57.535156 80.097656 C 57.347656 80.421875 57.09375 80.96875 57.226562 81.171875 C 57.644531 81.675781 58.113281 82.136719 58.632812 82.542969 Z M 61.207031 175.308594 C 61.207031 174.65625 58.953125 173.058594 58.382812 173.296875 L 58.226562 173.378906 C 57.03125 174.128906 56.941406 175.082031 58.007812 175.988281 C 58.3125 176.234375 58.640625 176.449219 58.984375 176.632812 C 59.453125 176.859375 60.003906 176.832031 60.453125 176.566406 C 60.898438 176.296875 61.183594 175.824219 61.207031 175.308594 Z M 175.785156 194.359375 C 174.875 195.109375 174.117188 195.671875 173.402344 196.308594 C 173.292969 196.40625 173.34375 196.773438 173.402344 196.980469 C 173.90625 198.367188 174.71875 198.644531 175.933594 197.820312 C 176.324219 197.601562 176.65625 197.292969 176.898438 196.914062 C 177.058594 196.527344 177.058594 196.089844 176.898438 195.699219 C 176.582031 195.207031 176.210938 194.757812 175.785156 194.359375 Z M 191.144531 65.101562 C 190.464844 64.246094 189.710938 63.449219 188.890625 62.71875 C 188.710938 62.582031 187.855469 63.175781 187.425781 63.558594 C 187.191406 63.824219 187.109375 64.199219 187.21875 64.539062 C 187.609375 65.171875 188.097656 65.738281 188.660156 66.226562 C 188.992188 66.441406 189.40625 66.488281 189.777344 66.34375 C 190.285156 65.988281 190.742188 65.570312 191.144531 65.101562 Z M 23.15625 212.105469 C 22.691406 212.386719 22.277344 212.742188 21.929688 213.15625 C 21.816406 213.566406 21.878906 214.011719 22.113281 214.371094 C 22.4375 214.832031 22.804688 215.265625 23.207031 215.660156 C 23.351562 215.855469 23.570312 215.984375 23.8125 216.019531 C 24.054688 216.050781 24.300781 215.984375 24.492188 215.832031 C 25.71875 215.140625 25.824219 214.617188 24.921875 213.523438 C 24.664062 213.191406 24.382812 212.882812 24.070312 212.601562 C 23.785156 212.40625 23.476562 212.242188 23.15625 212.105469 Z M 173.765625 191.269531 C 173.742188 191.097656 173.703125 190.925781 173.644531 190.761719 C 173.382812 190.148438 173.035156 189.628906 172.246094 189.808594 C 171.179688 190.058594 169.785156 191.308594 169.894531 191.832031 C 170.167969 193.21875 171.007812 193.601562 172.203125 192.851562 C 172.535156 192.65625 172.84375 192.425781 173.125 192.164062 C 173.363281 191.871094 173.578125 191.5625 173.765625 191.234375 Z M 113.097656 160.925781 L 111.292969 157.011719 C 110.949219 157.25 110.683594 157.394531 110.46875 157.582031 C 109.429688 158.511719 109.476562 159.289062 110.617188 160.039062 C 110.949219 160.292969 111.308594 160.511719 111.683594 160.691406 C 112.148438 160.800781 112.621094 160.863281 113.097656 160.886719 Z M 93.566406 120.097656 C 93.316406 120.5 93.09375 120.917969 92.90625 121.351562 C 92.746094 122.113281 93.175781 122.875 93.910156 123.132812 C 94.136719 123.234375 94.390625 123.234375 94.613281 123.136719 C 94.839844 123.042969 95.011719 122.855469 95.089844 122.625 C 95.324219 122.34375 95.414062 121.96875 95.335938 121.609375 C 95.253906 121.25 95.011719 120.949219 94.679688 120.796875 C 94.378906 120.542969 94.039062 120.347656 93.589844 120.0625 Z M 137.515625 117.640625 C 136.3125 118.863281 136.5625 119.589844 138.4375 120.519531 C 139.046875 119.738281 138.703125 118.636719 137.539062 117.601562 Z M 115.109375 93.6875 L 112.976562 91.035156 C 112.808594 91.683594 112.953125 92.371094 113.375 92.894531 C 113.796875 93.417969 114.4375 93.710938 115.109375 93.6875 Z M 116.851562 154.082031 L 116.761719 153.75 L 114.988281 154.238281 C 115.925781 154.964844 116.476562 154.875 116.851562 154.058594 Z M 116.851562 154.082031 "/>
</g>
</svg>
