<?xml version="1.0" encoding="UTF-8"?>
<svg xmlns="http://www.w3.org/2000/svg" xmlns:xlink="http://www.w3.org/1999/xlink" width="px" height="px" viewBox="0 0 230 267" version="1.1">
<g id="surface1">
<path style=" stroke:none;fill-rule:nonzero;fill:rgb(100%,0%,0.784314%);fill-opacity:1;" d="M 79.558594 212.015625 C 76.441406 211.175781 74.804688 208.980469 73.960938 206.019531 C 73.757812 205.363281 73.757812 204.613281 72.789062 204.253906 C 72.488281 204.148438 72.453125 203.300781 72.292969 202.796875 L 72.542969 202.699219 L 73.097656 203.449219 L 73.359375 203.40625 C 73.171875 201.675781 72.984375 199.933594 72.789062 198.203125 C 72.707031 197.453125 72.585938 196.703125 72.527344 195.957031 C 72.375 194.945312 72.617188 193.917969 73.210938 193.085938 C 73.5625 192.46875 73.75 191.769531 73.757812 191.0625 C 73.84375 190.148438 73.757812 189.21875 73.757812 188.128906 L 74.511719 189.898438 L 74.804688 189.824219 L 74.804688 187.515625 L 75.554688 187.882812 C 75.683594 185.058594 74.804688 182.140625 76.9375 179.714844 C 78.039062 180.726562 76.394531 181.503906 76.769531 182.417969 C 77.566406 181.804688 78.273438 181.167969 78.273438 180.058594 C 78.273438 179.738281 78.320312 179.273438 78.136719 179.113281 C 77.507812 178.574219 77.882812 178.148438 78.136719 177.617188 C 78.632812 176.492188 79.09375 175.367188 79.542969 174.210938 C 79.722656 173.777344 79.753906 173.1875 80.46875 173.652344 L 81.128906 172.152344 L 81.316406 172.152344 L 81.449219 173.449219 C 81.972656 173.003906 82.195312 172.296875 82.023438 171.632812 C 81.796875 170.421875 82.496094 169.226562 83.667969 168.824219 C 83.886719 168.691406 84.042969 168.480469 84.101562 168.230469 C 84.3125 167.550781 84.46875 166.84375 84.65625 166.09375 C 83.980469 165.9375 84.074219 165.527344 84.515625 165.179688 C 85.152344 164.703125 85.84375 164.289062 86.519531 163.871094 C 86.820312 163.691406 87.152344 163.5625 87.503906 163.398438 C 86.753906 162.691406 85.921875 162.960938 85.0625 164.191406 C 84.574219 163.667969 84.109375 163.148438 83.628906 162.65625 C 83.503906 162.53125 83.347656 162.433594 83.179688 162.378906 C 81.917969 161.914062 80.648438 161.464844 79.421875 161.007812 C 79.285156 160.945312 79.136719 160.898438 78.988281 160.871094 C 78.320312 160.917969 77.660156 160.726562 77.117188 160.339844 C 76.765625 160.039062 76.164062 160.039062 75.683594 159.867188 C 75.359375 159.746094 75.058594 159.566406 74.59375 159.34375 L 75.203125 159.101562 C 73.925781 158.578125 72.601562 158.054688 71.296875 157.507812 C 69.355469 156.726562 67.738281 155.320312 66.699219 153.511719 C 65.894531 152.164062 64.632812 151.144531 63.144531 150.632812 C 62.828125 150.527344 62.503906 150.445312 62.175781 150.386719 L 62.070312 150.597656 C 62.410156 150.867188 62.746094 151.136719 63.09375 151.398438 C 63.539062 151.699219 63.964844 152.03125 64.363281 152.394531 C 64.535156 152.582031 64.503906 152.957031 64.574219 153.242188 C 64.265625 153.183594 63.820312 153.242188 63.671875 153.03125 C 62.972656 152.113281 62.050781 151.386719 60.988281 150.925781 C 59.699219 150.210938 58.445312 149.429688 57.234375 148.585938 C 56.753906 148.175781 56.316406 147.71875 55.925781 147.222656 C 56.769531 146.832031 56.867188 146.21875 56.257812 145.722656 C 55.996094 145.523438 55.710938 145.359375 55.402344 145.238281 C 54.710938 144.980469 53.996094 144.839844 53.628906 144.023438 C 53.5 143.746094 52.921875 143.582031 52.523438 143.519531 C 51.078125 143.230469 49.746094 142.535156 48.6875 141.511719 C 48.859375 140.683594 48.574219 139.824219 47.9375 139.261719 C 46.863281 138.222656 45.683594 137.277344 44.699219 136.167969 C 43.847656 135.214844 43.195312 134.0625 42.445312 133.035156 C 42.015625 132.363281 41.394531 131.839844 40.65625 131.535156 C 40.054688 131.320312 39.636719 130.570312 39.15625 130.039062 C 36.691406 126.957031 35.070312 123.539062 35.121094 119.542969 C 35.222656 117.472656 35.792969 115.453125 36.78125 113.632812 C 37.511719 112.035156 38.644531 110.660156 40.070312 109.636719 C 41.179688 108.785156 42.515625 108.285156 43.910156 108.203125 L 42.675781 108.953125 C 43.4375 109.292969 44.320312 109.207031 45 108.730469 C 45.207031 108.585938 45.457031 108.382812 45.683594 108.398438 C 46.230469 108.398438 46.75 108.601562 46.839844 107.761719 C 46.839844 107.636719 47.453125 107.433594 47.710938 107.507812 C 50.160156 108.257812 52.667969 107.882812 55.144531 107.949219 C 55.746094 107.949219 56.347656 107.703125 56.949219 107.710938 C 57.519531 107.789062 58.101562 107.816406 58.675781 107.785156 C 59.113281 107.65625 59.566406 107.585938 60.019531 107.574219 C 64.167969 107.996094 68.3125 108.433594 72.453125 108.894531 C 73.136719 108.96875 73.8125 109.203125 74.496094 109.214844 C 75.351562 109.214844 76.207031 109.089844 77.0625 109.082031 C 77.757812 109.078125 78.449219 109.128906 79.136719 109.230469 C 80.527344 109.417969 81.902344 109.660156 83.292969 109.867188 C 84.230469 110.019531 85.183594 110.125 86.117188 110.304688 C 86.484375 110.386719 86.828125 110.558594 87.113281 110.804688 C 87.433594 111.152344 87.726562 111.527344 87.984375 111.921875 L 88.382812 111.734375 C 88.449219 110.847656 88.449219 109.960938 88.382812 109.074219 C 88.179688 107.710938 87.820312 106.375 87.535156 105.027344 C 87.46875 104.671875 87.429688 104.316406 87.421875 103.953125 C 87.421875 102.628906 87.421875 102.628906 86.394531 101.707031 L 86.84375 101.09375 C 86.613281 100.65625 86.445312 100.1875 86.347656 99.707031 C 86.347656 98.207031 86.402344 96.746094 86.429688 95.269531 C 86.429688 95.121094 86.402344 94.972656 86.347656 94.832031 C 85.980469 93.785156 86.386719 92.621094 87.324219 92.023438 C 85.957031 89.820312 86.257812 87.421875 86.65625 84.976562 L 85.4375 85.082031 C 85.597656 84.519531 85.574219 83.914062 85.867188 83.636719 C 86.421875 83.105469 86.265625 82.804688 85.808594 82.40625 C 85.585938 82.21875 85.457031 81.945312 85.445312 81.65625 L 86.386719 82.0625 C 85.363281 80.636719 85.867188 79.273438 86.117188 77.941406 C 86.402344 76.441406 86.707031 74.941406 87.085938 73.441406 C 87.269531 72.914062 87.519531 72.410156 87.835938 71.945312 C 88.316406 71.113281 87.902344 70.511719 87.300781 70.011719 C 86.421875 69.261719 86.363281 68.984375 86.804688 67.949219 C 87.160156 67.101562 87.398438 66.210938 87.722656 65.347656 C 88.128906 64.277344 88.570312 63.226562 89.097656 61.910156 C 88.710938 61.207031 88.800781 60.339844 89.316406 59.726562 C 89.398438 59.570312 89.421875 59.386719 89.382812 59.210938 C 89.101562 58.128906 89.515625 56.988281 90.425781 56.339844 C 90.621094 56.175781 90.621094 55.738281 90.652344 55.433594 C 90.71875 54.804688 90.441406 54.082031 91.261719 53.703125 C 91.351562 53.65625 91.359375 53.3125 91.304688 53.132812 C 90.921875 51.820312 90.921875 50.636719 92.140625 49.675781 C 92.734375 49.203125 92.238281 48.859375 91.875 48.695312 C 92.019531 47.734375 92.15625 46.859375 92.273438 45.972656 C 92.3125 45.742188 92.273438 45.496094 92.335938 45.222656 C 92.523438 44.265625 92.980469 44.121094 93.835938 44.675781 L 93.738281 43.179688 L 94.492188 43.179688 C 95.011719 43.753906 95.722656 44.121094 96.496094 44.21875 C 97.246094 44.128906 98.058594 44.085938 98.839844 44.019531 L 98.929688 44.296875 L 99.148438 43.46875 C 100.4375 43.605469 100.542969 43.65625 102.511719 44.871094 C 102.816406 44.84375 103.121094 44.878906 103.414062 44.96875 C 104.25 45.417969 105.058594 45.917969 105.832031 46.46875 C 106.375 46.867188 107.027344 47.21875 106.945312 48.132812 C 106.945312 48.34375 107.246094 48.582031 107.433594 48.882812 C 108.265625 48.515625 109.015625 47.765625 109.796875 48.476562 C 109.882812 48.863281 109.996094 49.242188 110.136719 49.609375 C 110.398438 50.164062 111.054688 50.570312 110.730469 51.332031 C 110.683594 51.511719 110.726562 51.699219 110.84375 51.84375 C 112.1875 52.929688 112.472656 54.707031 113.546875 55.964844 C 113.695312 56.121094 113.785156 56.320312 113.800781 56.535156 C 113.800781 58.167969 114.972656 58.78125 116.273438 59.351562 L 115.167969 60.207031 L 116.460938 60.46875 C 116.078125 61.324219 116.460938 61.773438 117.273438 62.042969 C 118.292969 62.386719 118.519531 63.300781 118.714844 64.292969 L 120.636719 63.722656 C 120.566406 63.996094 120.476562 64.265625 120.375 64.53125 C 119.722656 65.753906 119.796875 66.53125 120.824219 67.476562 C 121.632812 68.035156 121.976562 69.0625 121.660156 69.996094 C 121.449219 70.699219 121.304688 71.703125 122.628906 71.710938 C 122.6875 71.722656 122.742188 71.757812 122.777344 71.808594 C 123.597656 72.910156 125.03125 73.539062 125.308594 75.03125 C 125.40625 75.878906 125.421875 76.730469 125.355469 77.582031 C 125.355469 77.976562 125.160156 78.375 125.1875 78.765625 C 125.269531 79.109375 125.398438 79.441406 125.578125 79.746094 C 125.714844 80.070312 126.054688 80.496094 125.960938 80.707031 C 125.398438 82.128906 126.128906 83.320312 126.714844 84.40625 C 127.300781 85.496094 127.675781 86.378906 127.300781 87.539062 C 126.960938 87.5625 126.648438 87.746094 126.46875 88.035156 C 126.285156 88.320312 126.253906 88.679688 126.382812 88.996094 C 126.492188 89.261719 126.695312 89.480469 126.953125 89.609375 C 127.050781 89.660156 127.441406 89.429688 127.480469 89.28125 C 127.5 89.019531 127.445312 88.761719 127.320312 88.53125 C 127.277344 88.433594 127.066406 88.402344 126.933594 88.34375 L 127.121094 88.027344 C 127.351562 88.09375 127.773438 88.164062 127.773438 88.238281 C 127.773438 89.078125 128.441406 89.804688 128.050781 90.742188 C 127.835938 91.277344 127.863281 91.882812 128.132812 92.398438 C 128.554688 92.996094 128.367188 93.214844 127.914062 93.535156 C 127.578125 93.128906 127.207031 92.746094 126.8125 92.390625 C 126.554688 92.238281 126.25 92.195312 125.960938 92.269531 C 125.347656 92.433594 125.097656 92.269531 125.210938 91.648438 C 125.265625 91.355469 125.355469 91.078125 125.453125 90.726562 L 126.007812 91.363281 C 126.007812 91.035156 126.121094 90.832031 126.058594 90.6875 C 125.664062 89.878906 124.71875 89.496094 123.867188 89.796875 C 123.648438 89.855469 123.117188 89.570312 123.117188 89.390625 C 122.957031 88.277344 122.890625 87.144531 122.816406 86.011719 C 122.816406 85.796875 122.839844 85.585938 122.875 85.375 L 123.816406 85.765625 C 123.816406 85.765625 123.816406 85.765625 123.816406 85.847656 C 123.816406 86.207031 123.816406 86.597656 123.816406 86.933594 C 124.304688 86.925781 124.789062 86.84375 125.257812 86.695312 C 125.761719 86.445312 125.761719 85.945312 125.257812 85.621094 C 124.957031 85.417969 124.589844 85.316406 124.316406 85.089844 C 123.90625 84.753906 123.429688 84.402344 123.957031 83.757812 C 124.050781 83.5625 124.035156 83.335938 123.917969 83.15625 C 123.253906 82.457031 122.289062 82.125 121.335938 82.273438 C 121.425781 82.414062 121.496094 82.574219 121.539062 82.738281 C 121.554688 82.988281 121.554688 83.238281 121.539062 83.484375 C 121.28125 83.453125 121.027344 83.382812 120.789062 83.285156 C 120.472656 83.058594 120.175781 82.808594 119.902344 82.535156 C 120.707031 82.171875 121.164062 81.3125 121.011719 80.441406 C 120.902344 79.882812 120.886719 79.308594 120.96875 78.742188 C 121.246094 77.65625 120.5625 77.585938 119.894531 77.714844 C 118.632812 77.941406 118.4375 76.6875 117.640625 76.261719 C 117.503906 76.1875 117.414062 76.027344 117.234375 75.828125 C 117.46875 75.292969 118.082031 75.347656 118.675781 75.324219 C 119.429688 75.324219 120.125 75.324219 120.515625 74.355469 L 119.433594 74.5 L 119.375 74.386719 L 121.164062 73.449219 L 120.992188 73.097656 C 119.25 73.507812 117.582031 74.175781 116.039062 75.085938 C 116.09375 74.777344 116.039062 74.574219 116.152344 74.460938 C 116.640625 73.832031 116.679688 73.34375 115.816406 73.03125 C 115.710938 72.984375 115.558594 72.769531 115.589844 72.6875 C 115.964844 71.667969 115.109375 71.554688 114.539062 71.320312 C 113.507812 70.910156 113.492188 70.941406 113.402344 69.824219 C 113.621094 69.753906 113.980469 69.734375 114.027344 69.597656 C 114.28125 68.847656 114.777344 68.910156 115.402344 68.992188 C 116.738281 69.148438 118.082031 69.230469 119.464844 69.34375 C 119.578125 68.667969 119.34375 68.277344 118.660156 68.277344 C 117.46875 68.277344 116.273438 68.347656 115.085938 68.332031 C 114.832031 68.332031 114.589844 68.097656 114.335938 67.972656 L 115.933594 67.050781 L 115.933594 66.855469 C 115.242188 66.773438 114.5625 66.683594 113.871094 66.621094 C 113.382812 66.578125 112.832031 66.621094 112.789062 65.957031 C 112.8125 65.507812 112.886719 65.0625 113.003906 64.628906 L 112.316406 64.457031 L 113.15625 63.8125 L 113.117188 63.707031 L 112.035156 64.089844 L 112.398438 62.589844 C 111.472656 63.527344 111.015625 63.21875 110.746094 62.261719 C 110.683594 62.058594 110.445312 61.914062 110.179688 61.625 L 112.230469 61.007812 L 112.425781 61.242188 L 111.300781 61.832031 L 111.632812 62.246094 L 113.976562 60.902344 L 113.882812 60.6875 L 110.203125 61.078125 L 110.765625 60.460938 C 110.726562 60.382812 110.675781 60.308594 110.625 60.238281 C 110.144531 59.75 109.648438 59.277344 109.183594 58.738281 C 109.046875 58.59375 108.867188 58.355469 108.90625 58.199219 C 109.183594 57.066406 108.507812 56.855469 107.621094 56.789062 C 107.46875 56.789062 107.335938 56.59375 107.257812 56.332031 L 108.011719 56.378906 L 108.070312 56.046875 L 106.378906 55.726562 C 106.417969 55.425781 106.320312 55.121094 106.113281 54.902344 C 105.90625 54.679688 105.609375 54.566406 105.308594 54.585938 C 105.53125 53.527344 106.125 54.03125 106.441406 54.257812 C 107.257812 54.832031 107.71875 54.480469 108.320312 53.574219 C 107.246094 53.5 106.34375 53.402344 105.433594 53.386719 C 104.179688 53.386719 104.023438 53.199219 103.707031 51.886719 C 103.601562 51.316406 103.320312 50.792969 102.902344 50.386719 C 102.609375 50.164062 101.964844 50.386719 101.402344 50.433594 L 101.109375 48.761719 L 100.941406 48.761719 L 100.378906 49.976562 C 100.101562 49.976562 99.757812 49.878906 99.628906 49.976562 C 99.5 50.074219 99.53125 50.449219 99.566406 50.726562 C 99.660156 51.28125 99.792969 51.820312 99.914062 52.390625 L 97.886719 51.773438 L 97.253906 54.171875 C 97.082031 54.195312 96.917969 54.25 96.765625 54.332031 C 96.710938 54.488281 96.734375 54.664062 96.828125 54.804688 C 97.894531 55.417969 97.351562 56.488281 97.578125 57.335938 C 97.71875 57.914062 97.808594 58.5 97.9375 59.195312 C 97.277344 59.359375 96.984375 57.695312 96.03125 58.640625 L 96.578125 59.808594 L 95.496094 60.199219 L 96.5625 60.949219 C 96.171875 61.839844 95.730469 62.726562 95.421875 63.648438 C 95.363281 63.84375 95.796875 64.210938 96.046875 64.539062 L 95.292969 64.621094 C 95.40625 64.988281 95.472656 65.304688 95.59375 65.597656 C 95.804688 66.113281 95.859375 66.511719 95.273438 66.898438 C 95.023438 67.066406 95.007812 67.589844 94.867188 68.015625 L 94.257812 67.738281 L 93.972656 67.84375 C 94.09375 68.285156 94.242188 68.722656 94.324219 69.164062 C 94.386719 69.496094 94.386719 69.839844 94.324219 70.175781 C 94.324219 70.296875 93.925781 70.488281 93.851562 70.4375 C 93.601562 70.238281 93.378906 70.007812 93.183594 69.753906 L 92.523438 70.078125 L 93.695312 70.910156 C 93.503906 71.867188 93.253906 72.808594 92.941406 73.734375 C 92.71875 74.28125 93.035156 74.410156 93.289062 74.671875 C 93.542969 74.933594 93.851562 75.136719 93.8125 75.300781 C 93.6875 75.894531 94.015625 76.679688 93.144531 77.003906 C 92.757812 77.179688 92.382812 77.382812 92.019531 77.609375 L 92.101562 77.917969 L 93.507812 77.917969 C 93.347656 78.457031 93.089844 78.964844 92.753906 79.417969 C 92.195312 79.878906 92.082031 80.691406 92.492188 81.289062 C 92.550781 81.394531 92.578125 81.511719 92.566406 81.628906 C 92.5 82.371094 92.332031 83.097656 92.0625 83.792969 C 91.632812 84.382812 91.128906 84.914062 90.5625 85.375 C 90.367188 85.570312 90.117188 85.816406 90.105469 86.058594 C 90.089844 86.296875 90.390625 86.46875 90.585938 86.714844 C 91.042969 86.25 91.066406 85.335938 91.710938 85.660156 C 91.730469 86.246094 91.789062 86.828125 91.890625 87.40625 C 92.101562 88.238281 91.890625 88.613281 91.035156 88.734375 C 90.824219 88.789062 90.621094 88.855469 90.417969 88.933594 L 92.28125 91.183594 L 91.53125 91.753906 C 91.53125 92.628906 91.53125 93.320312 91.53125 94 C 91.53125 94.234375 91.53125 94.554688 91.671875 94.667969 C 92.628906 95.417969 92.628906 96.542969 92.761719 97.605469 C 92.875 98.453125 92.851562 99.324219 93.515625 100.042969 C 93.746094 100.304688 93.738281 100.792969 93.851562 101.210938 L 92.589844 101.398438 C 93.429688 101.953125 93.4375 102.425781 93.027344 103.128906 C 92.800781 103.609375 92.824219 104.167969 93.085938 104.628906 C 93.941406 105.507812 93.722656 106.464844 93.625 107.46875 C 93.4375 108.636719 93.578125 109.835938 94.039062 110.925781 C 94.175781 111.4375 94.175781 111.976562 94.039062 112.492188 C 93.953125 112.949219 93.84375 113.402344 93.710938 113.847656 L 92.410156 114.671875 L 92.972656 115.023438 C 92.574219 115.398438 92.296875 115.886719 91.621094 115.46875 C 91.34375 115.363281 91.03125 115.394531 90.78125 115.558594 C 90.230469 115.96875 90.117188 115.558594 89.824219 115.234375 C 89.558594 114.882812 89.171875 114.640625 88.738281 114.554688 C 87.574219 114.554688 86.414062 114.71875 85.257812 114.785156 C 84.902344 114.796875 84.542969 114.753906 84.199219 114.65625 C 83.292969 114.441406 82.40625 114.171875 81.496094 113.960938 C 81.207031 113.929688 80.917969 113.929688 80.632812 113.960938 L 80.632812 114.335938 L 81.910156 114.582031 L 81.910156 114.703125 C 81.621094 114.660156 81.332031 114.660156 81.046875 114.703125 C 80.59375 114.835938 79.894531 114.253906 79.664062 115.121094 C 79.492188 115.125 79.324219 115.105469 79.160156 115.0625 C 75.566406 114.191406 71.894531 113.691406 68.199219 113.5625 L 56.933594 113.210938 C 55.078125 113.152344 53.179688 113.054688 51.359375 113.054688 C 50.191406 113.039062 49.019531 113.109375 47.859375 113.261719 C 46.769531 113.394531 45.796875 114.011719 45.214844 114.941406 C 44.960938 115.203125 44.621094 115.371094 44.253906 115.414062 C 43.703125 115.511719 43.148438 115.578125 42.585938 115.617188 L 42.84375 115.835938 C 42.71875 116.429688 42.542969 117.011719 42.324219 117.582031 C 40.988281 120.332031 41.769531 122.828125 43.1875 125.25 C 43.519531 125.738281 43.878906 126.210938 44.261719 126.664062 C 44.40625 126.851562 44.660156 127.085938 44.628906 127.257812 C 44.429688 128.410156 45.5 128.679688 46.027344 129.304688 C 46.554688 129.925781 47.257812 130.480469 47.882812 131.070312 C 48.007812 131.167969 48.117188 131.28125 48.214844 131.410156 C 48.867188 132.511719 49.492188 133.65625 50.167969 134.714844 C 50.578125 135.382812 51.054688 135.980469 50.789062 136.863281 C 50.730469 137.074219 51.058594 137.480469 51.308594 137.613281 C 51.40625 137.691406 51.765625 137.390625 52.058594 137.226562 C 52.96875 138.050781 53.898438 139.023438 54.957031 139.839844 C 59.105469 143.003906 63.273438 146.132812 67.464844 149.222656 C 68.148438 149.625 68.871094 149.953125 69.621094 150.207031 L 69.34375 149.035156 C 69.605469 149.128906 69.855469 149.246094 70.09375 149.390625 C 71.273438 150.25 72.722656 150.648438 73.652344 151.988281 C 74.332031 152.949219 75.652344 153.226562 76.9375 153.105469 C 77.539062 153.109375 78.136719 153.171875 78.722656 153.292969 L 78.722656 153.625 L 77.289062 153.730469 C 78.386719 154.9375 80.21875 153.796875 81.351562 155.160156 L 80.121094 154.996094 L 79.992188 155.304688 L 82.246094 156.34375 C 82.246094 155.902344 82.203125 155.59375 82.1875 155.355469 L 98.621094 160.167969 C 98.277344 160.550781 98.011719 160.863281 97.726562 161.148438 C 94.6875 164.207031 91.507812 167.144531 88.941406 170.636719 C 87.648438 172.390625 86.296875 174.09375 84.964844 175.816406 C 84.90625 175.921875 84.824219 176.015625 84.726562 176.085938 C 84.476562 176.222656 84.214844 176.324219 83.976562 176.445312 L 83.792969 175.695312 C 82.613281 176.445312 82.480469 176.910156 83.125 178.539062 L 84.132812 177.292969 C 84.132812 177.511719 84.117188 177.734375 84.085938 177.953125 C 83.710938 179.117188 83.621094 180.355469 83.824219 181.566406 C 84.148438 182.996094 83.367188 184.292969 82.914062 185.628906 C 82.105469 187.6875 81.433594 189.796875 80.894531 191.945312 C 80.460938 194.097656 80.496094 196.34375 80.257812 198.546875 C 80.097656 199.988281 79.785156 201.417969 79.625 202.859375 C 79.667969 203.214844 79.890625 203.523438 80.21875 203.667969 C 81.128906 203.832031 82.046875 203.9375 82.96875 203.984375 C 83.28125 204.03125 83.597656 203.949219 83.847656 203.757812 L 89.140625 197.761719 C 89.226562 197.671875 89.324219 197.535156 89.414062 197.535156 C 91.15625 197.535156 91.5 195.949219 92.3125 194.914062 C 93.125 193.878906 93.8125 192.753906 94.6875 191.757812 C 95.1875 191.300781 95.746094 190.90625 96.347656 190.582031 C 96.570312 190.453125 96.773438 190.285156 96.9375 190.085938 C 97.691406 188.871094 98.441406 187.636719 99.191406 186.40625 L 99.289062 186.257812 C 100.402344 183.894531 102.347656 182.300781 104.34375 180.742188 C 104.949219 180.195312 105.515625 179.613281 106.042969 178.996094 L 105.050781 178.6875 C 107.101562 177.121094 108.011719 174.855469 109.25 172.824219 C 109.410156 172.539062 109.601562 172.269531 109.820312 172.023438 C 110.40625 171.425781 111.054688 171.019531 112.125 171.902344 C 112.125 171.222656 112.261719 170.75 112.125 170.40625 C 111.894531 169.933594 111.902344 169.566406 112.316406 169.324219 C 112.726562 169.085938 112.789062 168.179688 113.464844 168.929688 C 113.507812 168.972656 113.6875 168.929688 113.800781 168.875 L 116.6875 167.855469 C 117.160156 167.722656 117.53125 167.355469 117.671875 166.882812 C 118.03125 166.226562 118.546875 165.667969 119.171875 165.257812 C 119.976562 164.582031 120.886719 164.035156 121.695312 163.375 C 122.507812 162.714844 122.539062 162.585938 121.757812 161.769531 C 121.835938 161.652344 121.925781 161.539062 122.019531 161.433594 C 122.9375 160.453125 123.828125 159.453125 124.785156 158.511719 C 126.1875 157.117188 127.609375 155.738281 129.09375 154.433594 C 129.34375 154.214844 129.945312 154.433594 130.425781 154.433594 L 130.425781 154.011719 C 130.550781 154.074219 130.648438 154.097656 130.6875 154.148438 C 131.835938 155.722656 132.941406 157.320312 134.128906 158.878906 C 134.679688 159.804688 135.367188 160.644531 136.171875 161.367188 C 138.019531 162.691406 139.070312 164.613281 140.371094 166.359375 C 140.542969 166.613281 140.699219 166.882812 140.835938 167.160156 L 139.941406 166.695312 L 139.789062 166.835938 C 139.941406 167.03125 140.046875 167.324219 140.25 167.414062 C 141.09375 167.757812 141.761719 168.429688 142.105469 169.273438 C 142.285156 169.707031 142.546875 169.8125 143.027344 169.699219 C 144.488281 169.324219 146.015625 170 146.714844 171.335938 L 145.867188 171.335938 C 147.585938 173.320312 149.203125 175.171875 150.636719 176.820312 C 150.683594 177.285156 150.636719 177.609375 150.757812 177.78125 C 151.179688 178.347656 151.636719 178.890625 152.117188 179.40625 C 152.371094 179.691406 152.417969 180.367188 153.085938 179.96875 C 153.136719 179.96875 153.339844 180.105469 153.429688 180.207031 C 157 184.617188 161.785156 187.5625 166.199219 190.964844 C 167.285156 191.824219 168.496094 192.511719 169.789062 193.003906 C 170.433594 193.359375 171.117188 193.632812 171.828125 193.820312 C 172.644531 193.910156 173.464844 193.910156 174.328125 193.953125 C 174.328125 193.992188 174.214844 194.203125 174.273438 194.320312 C 174.414062 194.617188 174.625 194.875 174.882812 195.070312 C 174.980469 195.132812 175.386719 194.859375 175.53125 194.660156 C 175.84375 194.203125 175.753906 193.324219 176.722656 193.640625 C 176.933594 192.980469 177.390625 192.28125 177.308594 191.667969 C 177.097656 190.167969 176.625 188.769531 176.273438 187.3125 C 176.25 187.136719 176.25 186.957031 176.273438 186.78125 C 176.273438 186.03125 176.332031 185.28125 176.371094 184.578125 C 176.371094 184.519531 176.332031 184.457031 176.371094 184.40625 C 176.902344 182.613281 175.6875 182.226562 174.222656 181.96875 C 174.5 181.097656 174.71875 180.210938 174.875 179.308594 C 175.136719 176.621094 174.679688 173.914062 173.554688 171.460938 C 172.734375 169.511719 172 167.519531 171.367188 165.464844 C 170.835938 163.734375 170.542969 161.921875 170.054688 160.175781 C 169.84375 159.425781 169.648438 158.5625 168.550781 158.5625 C 168.371094 158.5625 168.167969 158.210938 168.019531 157.992188 C 167.222656 156.792969 166.464844 155.574219 165.644531 154.386719 C 165.472656 154.125 165.125 153.992188 164.894531 153.789062 C 164.648438 153.640625 164.425781 153.460938 164.234375 153.25 C 163.082031 151.675781 161.980469 150.085938 160.835938 148.488281 C 160.488281 148.078125 160.199219 147.617188 159.972656 147.125 C 159.222656 144.878906 157.570312 143.167969 156.21875 141.308594 C 156.097656 141.179688 156.003906 141.027344 155.941406 140.859375 C 155.570312 139.089844 154.316406 138.160156 152.792969 137.457031 C 152.433594 137.300781 152.117188 137.070312 151.855469 136.78125 C 150.847656 135.5625 149.894531 134.300781 148.847656 133.082031 C 148.546875 132.75 148.203125 132.460938 147.828125 132.21875 C 146.324219 131.132812 144.824219 130.042969 143.277344 128.996094 C 142.660156 128.574219 142.523438 128.246094 142.984375 127.554688 C 144.441406 125.308594 145.835938 123.058594 147.21875 120.8125 C 148.074219 119.410156 148.765625 117.902344 149.691406 116.546875 C 150.507812 115.347656 151.546875 114.296875 152.53125 113.113281 L 152.417969 114.035156 C 153.3125 113.722656 154.09375 113.472656 154.257812 112.445312 C 154.257812 112.289062 154.625 112.183594 154.8125 112.050781 C 155 111.914062 155.078125 111.929688 155.121094 111.832031 C 155.691406 110.640625 156.242188 109.441406 156.789062 108.242188 C 156.839844 108.121094 156.789062 107.972656 156.644531 107.71875 L 154.679688 109.824219 L 154.484375 109.695312 C 154.621094 109.433594 154.773438 109.183594 154.949219 108.945312 C 155.734375 108.164062 156.292969 107.183594 156.554688 106.105469 C 156.554688 105.972656 156.804688 105.859375 156.933594 105.738281 C 157.816406 104.882812 158.726562 104.050781 159.566406 103.152344 C 159.769531 102.832031 159.910156 102.476562 159.988281 102.105469 C 160.671875 101.152344 161.492188 100.335938 161.730469 99.054688 C 161.828125 98.5 162.714844 98.085938 163.355469 97.75 L 161.175781 103.03125 L 161.410156 103.152344 L 162.390625 102.621094 C 162.574219 103.375 162.292969 104.167969 161.679688 104.644531 C 160.925781 105.453125 160.175781 106.25 159.3125 107.179688 L 160.257812 105.296875 C 158.929688 105.820312 157.449219 109.296875 157.433594 112.042969 L 158.351562 110.949219 C 158.648438 111.652344 158.53125 112.464844 158.050781 113.0625 C 155.585938 116.5 153.101562 119.910156 150.605469 123.328125 C 150.375 123.621094 150.125 123.890625 149.855469 124.144531 L 149.683594 124.011719 L 150.871094 122.183594 L 149.960938 122.664062 L 149.824219 122.527344 C 150.523438 121.734375 151.230469 120.945312 151.914062 120.144531 C 152.183594 119.828125 152.417969 119.46875 152.664062 119.15625 C 153.183594 118.5625 152.839844 118.058594 152.441406 117.65625 C 152.042969 117.25 151.507812 117.5 151.117188 117.871094 C 150.148438 118.859375 149.460938 120.085938 149.128906 121.425781 C 148.644531 122.992188 148.027344 124.515625 147.28125 125.976562 C 146.886719 126.550781 146.375 127.035156 145.777344 127.398438 C 145.3125 127.773438 145.027344 128.148438 145.71875 128.472656 C 147.699219 129.527344 149.675781 130.59375 151.726562 131.550781 C 152.398438 131.761719 153.109375 131.8125 153.808594 131.703125 C 152.785156 130.570312 151.101562 130.308594 150.410156 128.898438 L 150.5625 128.628906 C 150.882812 128.699219 151.195312 128.792969 151.5 128.914062 C 152.402344 129.324219 153.289062 129.753906 154.167969 130.203125 C 154.304688 130.277344 154.363281 130.503906 154.460938 130.652344 C 154.28125 130.695312 154.078125 130.816406 153.917969 130.773438 C 153.65625 130.664062 153.40625 130.53125 153.167969 130.375 L 153.054688 130.5625 L 154.867188 131.589844 C 154.828125 132.53125 155.472656 133.207031 156.097656 133.949219 C 157.886719 136.085938 159.613281 138.273438 161.355469 140.449219 C 161.476562 140.582031 161.554688 140.75 161.574219 140.925781 C 161.574219 141.488281 161.574219 142.042969 162.203125 142.285156 C 163.242188 142.710938 164.292969 143.078125 165.34375 143.484375 C 165.660156 143.609375 166.09375 143.691406 166.238281 143.933594 C 166.71875 144.613281 167.09375 145.371094 167.53125 146.136719 L 167.769531 145.859375 C 168.351562 146.363281 168.902344 146.902344 169.421875 147.46875 C 169.621094 147.8125 169.761719 148.1875 169.828125 148.578125 L 170.144531 149.523438 L 170.46875 149.449219 L 170.625 148.765625 L 170.835938 148.765625 C 170.835938 149.179688 170.976562 149.6875 170.789062 149.957031 C 170.484375 150.210938 170.082031 150.3125 169.691406 150.234375 C 167.816406 149.90625 167.761719 149.945312 168.136719 151.800781 C 168.214844 152.167969 168.320312 152.550781 168.4375 153.039062 C 168.75 152.847656 169.070312 152.679688 169.402344 152.53125 C 169.582031 152.507812 169.769531 152.519531 169.949219 152.566406 C 169.851562 152.746094 169.789062 152.988281 169.632812 153.089844 C 169.316406 153.316406 168.640625 153.488281 168.648438 153.644531 C 168.691406 154.332031 168.863281 155.003906 169.160156 155.625 C 169.25 155.804688 169.910156 155.851562 170.277344 155.746094 C 171.515625 155.324219 172.5625 154.484375 173.238281 153.367188 C 173.359375 153.175781 173.492188 152.980469 173.792969 152.523438 C 174.148438 154.195312 174.238281 155.691406 174.792969 157.019531 C 175.347656 158.347656 176.386719 159.492188 177.347656 160.929688 L 176.445312 160.8125 L 177.851562 163.441406 C 177.234375 163.316406 176.84375 163.203125 176.4375 163.15625 C 176.03125 163.113281 175.6875 163.261719 175.835938 163.757812 C 176.550781 165.976562 177.941406 167.921875 179.8125 169.316406 L 180.058594 169.175781 L 177.558594 164.230469 L 177.769531 164.019531 C 178.054688 164.246094 178.320312 164.496094 178.5625 164.769531 C 179.269531 165.644531 179.953125 166.550781 180.628906 167.453125 C 180.734375 167.597656 180.808594 167.765625 180.847656 167.9375 C 181.183594 169.4375 181.515625 170.9375 181.847656 172.4375 L 181.644531 172.511719 L 180.894531 171.101562 L 180.757812 171.140625 L 180.757812 173.71875 L 174.109375 166.972656 C 174.234375 167.890625 174.417969 168.804688 174.660156 169.699219 C 174.851562 170.269531 175.179688 170.785156 175.613281 171.199219 C 177.007812 172.519531 178.453125 173.769531 179.902344 175.03125 C 180.425781 175.480469 181.253906 175.726562 180.976562 176.671875 C 180.699219 177.617188 179.976562 177.765625 178.796875 177.570312 C 179.285156 178.542969 179.625 179.347656 180.058594 180.097656 C 180.59375 181.160156 181.234375 182.164062 181.972656 183.09375 C 183.230469 184.511719 182.441406 186.152344 182.726562 187.664062 C 182.769531 187.90625 182.410156 188.339844 182.132812 188.492188 C 181.464844 188.851562 181.5625 189.238281 181.808594 189.808594 C 182.140625 190.558594 182.351562 191.367188 182.558594 192.003906 C 181.921875 192.058594 181.1875 191.914062 180.90625 192.199219 C 180.480469 192.648438 181.328125 193.953125 182.175781 194.261719 C 181.1875 196.058594 179.921875 197.46875 177.671875 197.8125 L 177.671875 198.128906 L 179.234375 198.722656 C 178.476562 199.597656 177.375 200.105469 176.214844 200.113281 C 175.109375 200.082031 174.011719 199.957031 172.929688 199.742188 C 171.878906 199.566406 170.84375 199.304688 169.582031 199.042969 C 170.648438 198.578125 171.554688 198.167969 172.480469 197.8125 C 172.585938 197.777344 172.863281 198.015625 172.976562 198.1875 C 173.179688 198.480469 173.292969 198.832031 173.488281 199.132812 C 173.664062 199.453125 173.972656 199.679688 174.332031 199.75 C 174.691406 199.820312 175.0625 199.730469 175.347656 199.5 C 175.625 199.363281 175.824219 199.113281 175.894531 198.816406 C 175.96875 198.519531 175.90625 198.203125 175.726562 197.957031 C 175.425781 197.378906 175.167969 196.78125 174.972656 196.367188 C 173.570312 196.742188 172.292969 197.117188 171 197.417969 C 170.015625 197.625 168.996094 197.679688 167.734375 197.835938 L 168.65625 196.808594 C 168.046875 196.660156 167.53125 196.5625 167.027344 196.398438 C 163.996094 195.339844 161.164062 193.792969 158.636719 191.816406 C 157.984375 191.339844 157.628906 190.476562 157.007812 189.945312 C 155.941406 189.039062 154.875 188.125 153.332031 187.949219 C 152.363281 187.839844 152.027344 187.351562 151.597656 186.371094 L 153.640625 187.589844 L 153.792969 187.359375 C 152.597656 186.480469 151.425781 185.574219 150.195312 184.742188 C 149.953125 184.578125 149.503906 184.742188 148.878906 184.742188 C 148.625 184.300781 148.269531 183.664062 147.886719 183.035156 C 147.738281 182.753906 147.542969 182.5 147.308594 182.285156 C 146.925781 181.953125 146.484375 181.683594 146.070312 181.386719 C 145.230469 180.785156 144.125 180.375 144.3125 178.964844 L 149.179688 182.898438 L 150.164062 181.753906 C 148.953125 180.941406 147.796875 180.105469 146.574219 179.382812 C 145.335938 178.648438 144.058594 177.980469 142.75 177.375 C 141.429688 176.789062 140.355469 175.769531 139.699219 174.480469 C 139.222656 173.675781 138.703125 172.890625 138.144531 172.136719 C 138.230469 171.214844 137.644531 170.363281 136.75 170.113281 C 137.296875 169.09375 138.25 169.632812 139.078125 169.484375 C 138.316406 168.972656 137.527344 168.503906 136.710938 168.089844 C 136.554688 168.015625 136.207031 168.023438 136.140625 168.089844 C 136.035156 168.285156 136.019531 168.515625 136.089844 168.726562 C 136.277344 169.191406 136.492188 169.648438 136.726562 170.089844 C 136.546875 169.96875 136.277344 169.886719 136.191406 169.714844 C 135.796875 168.875 135.488281 167.992188 135.050781 167.175781 C 134.792969 166.710938 134.441406 166.300781 134.023438 165.976562 C 132.984375 165.167969 131.882812 164.4375 130.851562 163.613281 C 130.648438 163.457031 130.679688 163.015625 130.558594 162.535156 L 129.199219 159.800781 L 128.890625 159.800781 L 127.839844 163.390625 C 127.539062 163.523438 127.203125 163.570312 127.089844 163.75 C 125.941406 165.789062 124.507812 167.652344 122.832031 169.289062 C 122.644531 169.519531 122.484375 169.769531 122.355469 170.039062 L 123.527344 170.136719 C 123.519531 170.398438 123.410156 170.644531 123.21875 170.824219 C 123.023438 171.003906 122.769531 171.097656 122.507812 171.085938 C 120.808594 171.175781 120.15625 171.761719 119.820312 173.375 C 119.707031 173.914062 119.496094 174.4375 119.292969 175.082031 C 118.445312 174.460938 118 174.84375 117.617188 175.472656 C 117.511719 175.691406 117.339844 175.871094 117.121094 175.980469 C 115.808594 176.417969 115.507812 177.863281 114.476562 178.582031 C 114.320312 178.695312 114.296875 178.980469 114.359375 179.398438 C 114.875 179.21875 115.394531 179.0625 115.898438 178.867188 C 116.414062 178.632812 116.949219 178.4375 117.496094 178.289062 C 115.996094 179.390625 114.953125 181.09375 112.824219 181.550781 L 113.089844 180.75 L 112.886719 180.628906 C 112.417969 181.332031 111.984375 182.058594 111.496094 182.75 C 111.242188 183.214844 110.882812 183.613281 110.445312 183.910156 C 109.890625 184.027344 109.320312 184.042969 108.761719 183.957031 C 108.761719 183.886719 108.679688 184.007812 108.65625 184.144531 C 108.417969 186.054688 106.847656 187.140625 105.816406 188.519531 C 105.066406 189.546875 104.203125 190.5 103.429688 191.4375 L 103.585938 190.828125 C 103.480469 190.828125 103.390625 190.828125 103.332031 190.828125 C 102.085938 191.550781 101.285156 192.847656 101.199219 194.285156 C 101.234375 195.214844 100.601562 196.035156 99.695312 196.246094 C 99.53125 196.292969 99.28125 196.480469 99.273438 196.613281 C 99.125 198.453125 97.707031 199.515625 96.738281 200.855469 C 96.03125 201.832031 95.015625 202.640625 95.078125 204.042969 C 95.078125 204.230469 94.601562 204.445312 94.324219 204.640625 L 94.039062 204.402344 L 95.152344 202.101562 C 93.730469 202.324219 92.566406 203.339844 92.148438 204.710938 C 92.011719 205.167969 91.816406 205.609375 91.5625 206.011719 C 91.402344 206.238281 90.945312 206.492188 90.757812 206.417969 C 90.339844 206.21875 89.839844 206.347656 89.5625 206.71875 C 88.601562 207.648438 87.625 208.554688 86.5 209.617188 L 87.867188 209.902344 C 87.691406 210.5625 87.117188 211.035156 86.4375 211.082031 L 82.382812 211.761719 C 82.207031 211.8125 82.039062 211.878906 81.878906 211.964844 Z M 76.554688 159.484375 C 78.101562 159.90625 79.429688 160.722656 80.957031 160.8125 L 81.039062 160.578125 L 78.265625 159.507812 L 78.328125 159.351562 L 80.136719 159.492188 L 80.210938 159.148438 L 75.703125 157.902344 C 75.96875 158.617188 77.417969 158.269531 76.554688 159.484375 Z M 114.734375 70.296875 C 115.769531 71.351562 116.605469 71.921875 117.265625 70.953125 C 116.617188 70.207031 115.753906 70.234375 114.734375 70.324219 Z M 140.863281 169.976562 L 139.363281 168.164062 C 139.332031 169.386719 139.859375 169.910156 140.863281 170.023438 Z M 90.480469 80.871094 L 90.238281 80.992188 L 90.621094 81.914062 L 91.792969 81.515625 L 91.5625 80.527344 L 91.09375 81.273438 Z M 139.984375 170.058594 C 139.65625 170.90625 139.941406 171.222656 140.519531 171.238281 C 140.65625 171.238281 140.804688 171.027344 140.949219 170.90625 Z M 175.289062 179.464844 L 175.011719 179.542969 L 175.320312 181.109375 L 175.671875 181.03125 Z M 175.289062 179.464844 "/>
<path style=" stroke:none;fill-rule:nonzero;fill:rgb(100%,0%,0.784314%);fill-opacity:1;" d="M 208.960938 133.769531 C 208.550781 134.421875 208.160156 134.375 207.738281 133.769531 C 207.492188 133.433594 207.230469 133.113281 206.949219 132.804688 L 206.664062 133.050781 C 207.144531 133.484375 207.558594 133.992188 207.886719 134.550781 C 208.113281 135.074219 208.585938 135.777344 207.753906 136.460938 L 207.511719 135.253906 L 207.25 135.253906 C 207.25 135.53125 207.191406 135.808594 207.167969 136.085938 C 207.171875 136.492188 206.992188 136.878906 206.683594 137.144531 C 206.371094 137.40625 205.960938 137.519531 205.558594 137.449219 C 204.6875 137.449219 203.800781 137.5625 202.9375 137.488281 C 202.429688 137.425781 201.953125 137.21875 201.5625 136.886719 C 200.144531 135.734375 198.746094 134.542969 197.410156 133.289062 C 196.980469 132.765625 196.589844 132.207031 196.253906 131.617188 C 196.089844 131.394531 195.742188 131.289062 195.601562 131.058594 C 195.3125 130.578125 195.125 130.039062 194.886719 129.558594 C 194.519531 128.769531 194.136719 127.992188 193.757812 127.167969 L 192.488281 129.273438 L 191.46875 129.65625 L 191.507812 129.871094 L 192.023438 130.03125 C 189.019531 130.863281 187.765625 133.71875 185.390625 135.441406 C 185.390625 135.246094 185.390625 135.15625 185.429688 135.058594 C 185.46875 134.960938 185.429688 134.902344 185.503906 134.601562 C 185.128906 134.917969 184.894531 135.132812 184.648438 135.351562 C 184.472656 135.503906 184.265625 135.613281 184.039062 135.667969 C 183.289062 135.734375 183.289062 135.710938 182.964844 136.339844 C 181.757812 136.46875 180.585938 135.882812 179.960938 134.839844 C 179.535156 133.976562 179.394531 133 179.5625 132.054688 C 179.824219 130.957031 180.230469 129.902344 180.773438 128.914062 C 181.101562 128.347656 181.46875 127.804688 181.867188 127.285156 C 182.394531 126.46875 182.890625 125.644531 183.425781 124.835938 C 183.589844 124.585938 183.800781 124.371094 184.046875 124.199219 C 184.582031 123.824219 185.136719 123.488281 185.761719 123.089844 L 184.378906 121.074219 C 183.53125 120.953125 182.78125 120.472656 182.320312 119.753906 C 182.238281 119.558594 182.085938 119.253906 181.945312 119.238281 C 180.148438 119.066406 179.277344 117.445312 177.886719 116.636719 C 176.386719 115.746094 176.214844 113.167969 177.378906 111.808594 C 177.808594 111.347656 178.421875 111.09375 179.050781 111.121094 C 180.015625 111.046875 180.929688 111.324219 181.847656 111.21875 C 183.242188 111.050781 184.4375 111.621094 185.667969 112.050781 C 186.644531 112.378906 187.578125 112.835938 188.675781 113.285156 C 189.214844 112.746094 188.742188 111.96875 188.839844 111.285156 C 188.980469 110.289062 189.148438 109.292969 189.296875 108.285156 C 189.453125 107.804688 189.523438 107.296875 189.5 106.789062 C 189.171875 105.445312 190.109375 104.605469 190.589844 103.582031 C 190.691406 103.300781 190.765625 103.011719 190.808594 102.71875 C 190.84375 102.546875 190.808594 102.34375 190.914062 102.214844 C 191.574219 101.300781 192.289062 100.417969 192.933594 99.496094 C 193.578125 98.574219 194.050781 97.757812 194.609375 96.886719 C 194.757812 96.640625 194.894531 96.386719 195.015625 96.175781 L 196.125 96.511719 C 196.800781 97.121094 197.492188 97.683594 198.09375 98.328125 C 198.304688 98.558594 198.28125 99 198.371094 99.34375 C 198.640625 100.433594 198.875 101.535156 199.21875 102.597656 C 199.324219 102.9375 199.730469 103.183594 200.105469 103.582031 C 200.105469 104.328125 199.835938 105.257812 200.773438 105.933594 C 200.925781 106.082031 200.996094 106.292969 200.960938 106.503906 C 200.527344 107.761719 201.066406 108.976562 201.097656 110.214844 C 201.097656 110.648438 201.316406 111.261719 200.65625 111.300781 L 201.59375 112.703125 C 200.84375 114.027344 200.460938 114.199219 199.445312 113.554688 C 200.609375 113.398438 200.722656 112.769531 200.195312 111.898438 C 199.363281 112.125 199.257812 111.636719 199.296875 110.851562 C 199.265625 110.21875 199.171875 109.59375 199.015625 108.984375 L 199.640625 108.757812 L 199.640625 108.558594 L 198.355469 108.667969 L 198.925781 107.230469 L 198.679688 107.335938 C 198.132812 106.585938 197.582031 105.835938 197.050781 105.085938 C 197.003906 105.019531 197.050781 104.871094 197.050781 104.757812 C 197.050781 103.167969 196.945312 101.632812 195.710938 100.335938 C 195.417969 101.085938 195.410156 101.960938 194.457031 102.148438 C 194.308594 103.304688 192.957031 103.714844 192.835938 105.003906 C 192.730469 105.972656 191.910156 106.839844 191.492188 107.792969 C 191.242188 108.25 191.144531 108.773438 191.214844 109.292969 C 191.617188 110.753906 190.921875 112.085938 190.882812 113.496094 C 190.882812 113.78125 190.335938 114.140625 189.964844 114.320312 C 189.214844 114.6875 188.394531 114.957031 187.539062 115.289062 C 186.285156 114.429688 184.875 113.828125 183.386719 113.511719 C 182.523438 113.382812 181.644531 113.390625 180.789062 113.261719 C 180.507812 113.191406 180.207031 113.234375 179.960938 113.386719 C 179.710938 113.539062 179.539062 113.789062 179.480469 114.074219 C 179.421875 114.546875 179.585938 115.023438 179.921875 115.363281 C 181.539062 116.847656 183.300781 118.164062 185.179688 119.296875 C 186.152344 119.808594 186.730469 120.742188 187.796875 121.089844 C 188.492188 121.3125 188.710938 123.382812 188.171875 124.085938 C 187.757812 124.59375 187.296875 125.066406 186.796875 125.488281 C 185.957031 126.238281 185.070312 126.988281 184.25 127.738281 C 183.957031 127.984375 183.773438 128.335938 183.738281 128.71875 C 183.824219 129.5 183.582031 130.285156 183.070312 130.882812 C 182.972656 130.996094 182.902344 131.132812 182.867188 131.28125 C 182.800781 131.753906 182.753906 132.234375 182.703125 132.707031 L 183.996094 132.324219 C 185.300781 131.917969 186.128906 130.898438 187.105469 130.03125 C 187.96875 129.277344 188.726562 128.410156 189.359375 127.453125 C 189.636719 127.070312 190.054688 126.816406 190.523438 126.746094 C 191.359375 126.625 192.105469 126.15625 192.582031 125.457031 C 193.570312 124.328125 194.480469 124.28125 195.203125 125.585938 C 195.710938 126.53125 196.15625 127.511719 196.636719 128.476562 C 196.710938 128.636719 196.800781 128.90625 196.90625 128.914062 C 198.011719 128.980469 198.003906 130.042969 198.507812 130.652344 C 199.601562 131.972656 200.609375 133.378906 201.828125 134.585938 C 202.488281 135.074219 203.265625 135.382812 204.078125 135.480469 C 204.34375 135.558594 204.632812 135.507812 204.851562 135.335938 C 205.074219 135.167969 205.195312 134.902344 205.183594 134.625 C 205.183594 134.519531 205.320312 134.421875 205.363281 134.316406 C 205.546875 133.910156 205.695312 133.488281 205.800781 133.058594 C 205.859375 132.71875 205.621094 132.308594 205.746094 132.007812 C 206.257812 130.863281 205.597656 130.015625 205.175781 129.085938 C 204.902344 128.523438 204.710938 127.925781 204.605469 127.308594 C 204.34375 125.785156 203.796875 124.324219 202.992188 123.007812 C 202.878906 122.835938 202.804688 122.640625 202.78125 122.4375 C 202.691406 121.253906 202.300781 120.839844 201.15625 120.78125 C 200.835938 120.78125 200.523438 120.683594 200.257812 120.503906 C 200.738281 120.429688 201.339844 120.503906 201.675781 120.234375 C 202.015625 119.964844 201.871094 119.410156 201.945312 119.003906 L 204.199219 118.144531 L 204.5625 119.777344 C 203.480469 119.199219 203.34375 120.144531 202.714844 120.527344 L 204.078125 121.164062 C 203.988281 121.328125 203.71875 121.644531 203.785156 121.746094 C 203.945312 122.039062 204.21875 122.246094 204.539062 122.324219 C 205.394531 122.386719 205.53125 122.789062 205.703125 123.605469 C 205.929688 124.671875 205.703125 126.035156 207.097656 126.6875 C 207.476562 126.867188 207.664062 127.503906 207.851562 127.960938 C 207.894531 128.058594 207.671875 128.359375 207.511719 128.425781 C 207.289062 128.46875 207.058594 128.46875 206.835938 128.425781 L 206.582031 129.496094 L 208.082031 129.234375 C 208.375 130.375 208.667969 131.484375 208.953125 132.601562 Z M 208.960938 133.769531 "/>
<path style=" stroke:none;fill-rule:nonzero;fill:rgb(100%,0%,0.784314%);fill-opacity:1;" d="M 20.609375 168.304688 C 21.074219 166.867188 22.414062 166.53125 23.53125 165.839844 C 24.6875 165.113281 25.882812 164.449219 27.113281 163.855469 C 27.949219 163.363281 28.972656 163.316406 29.847656 163.726562 C 29.554688 162.976562 29.359375 162.445312 29.148438 161.921875 C 28.992188 161.515625 28.8125 161.113281 28.648438 160.707031 C 28.273438 159.898438 27.941406 159.070312 27.65625 158.226562 C 27.523438 157.554688 27.425781 156.875 27.363281 156.195312 C 27.292969 155.878906 27.03125 155.617188 26.933594 155.308594 C 26.792969 154.851562 26.714844 154.375 26.605469 153.902344 L 25.386719 148.558594 C 25.300781 148.253906 25.242188 147.941406 25.214844 147.628906 C 25.964844 148.167969 26.714844 148.429688 27.46875 147.785156 C 28.847656 148.578125 29.578125 150.371094 31.53125 150.476562 C 32.050781 151.226562 32.328125 152.441406 33.6875 152.605469 C 33.855469 152.664062 33.988281 152.800781 34.039062 152.972656 C 34.191406 154.402344 35.601562 154.949219 36.234375 156.042969 C 36.421875 156.375 36.984375 156.507812 37.21875 156.660156 C 37.804688 156.015625 38.382812 155.40625 38.921875 154.777344 C 39.335938 154.296875 39.671875 153.789062 40.09375 153.277344 C 40.230469 153.113281 40.328125 152.90625 40.5 152.808594 C 42.753906 151.480469 44.855469 149.597656 47.746094 149.667969 C 48.316406 149.707031 48.871094 149.847656 49.386719 150.085938 C 49.613281 150.265625 49.722656 150.550781 49.679688 150.835938 C 49.40625 152.003906 49.65625 153.234375 50.363281 154.207031 C 50.453125 154.433594 50.453125 154.6875 50.363281 154.914062 C 49.933594 156.140625 49.609375 157.355469 50.363281 158.570312 C 50.414062 158.652344 50.300781 158.832031 50.300781 158.960938 C 50.300781 159.589844 50.300781 160.21875 50.355469 160.847656 C 50.382812 161.097656 50.382812 161.347656 50.355469 161.597656 C 50.097656 162.503906 49.8125 163.398438 49.550781 164.304688 C 49.496094 164.476562 49.492188 164.65625 49.453125 164.835938 C 49.28125 165.707031 48.542969 166.582031 49.6875 167.453125 L 49.476562 167.632812 L 47.671875 167.78125 L 47.628906 167.78125 L 47.0625 167.324219 L 48.035156 165.878906 C 47.371094 165.960938 47.222656 165.609375 47.386719 165.039062 C 47.613281 164.289062 47.851562 163.539062 48.136719 162.671875 L 47.449219 162.582031 C 47.449219 162.496094 47.394531 162.402344 47.449219 162.386719 C 48.296875 161.847656 48.152344 161.320312 47.644531 160.550781 C 47.257812 160.011719 47.207031 159.304688 47.515625 158.71875 C 47.882812 157.898438 48.0625 157.003906 48.046875 156.105469 C 48 155.078125 47.878906 154.054688 47.6875 153.046875 C 46.183594 153.046875 44.742188 153.183594 43.535156 154.269531 C 43.035156 154.566406 42.503906 154.820312 41.957031 155.019531 C 41.171875 155.519531 40.554688 156.238281 40.175781 157.085938 C 39.613281 158.050781 38.972656 158.96875 38.269531 159.835938 C 38.132812 159.996094 37.929688 160.082031 37.71875 160.070312 C 37.113281 159.988281 36.519531 159.828125 35.859375 159.6875 L 36.511719 158.414062 L 36.066406 158.128906 L 36.820312 157.242188 C 36.066406 157.191406 35.273438 157.339844 34.777344 157.042969 C 34.257812 156.589844 33.828125 156.042969 33.507812 155.4375 L 32.929688 155.878906 L 32.453125 154.582031 C 32.394531 154.582031 32.167969 154.582031 31.953125 154.582031 C 31.261719 154.546875 30.585938 154.539062 30.367188 153.632812 C 30.292969 153.324219 29.929688 153.078125 29.699219 152.800781 L 29.390625 153.03125 L 30.398438 154.785156 L 29.644531 155.046875 L 29.984375 155.234375 C 30.058594 155.863281 30.105469 156.503906 30.222656 157.132812 C 30.289062 157.953125 30.496094 158.757812 30.832031 159.507812 C 31.3125 160.523438 31.601562 161.613281 31.695312 162.730469 C 31.742188 163.019531 31.65625 163.3125 31.464844 163.53125 C 30.433594 164.449219 29.273438 165.207031 28.015625 165.78125 C 27.019531 166.300781 26.070312 166.914062 25.183594 167.609375 C 24.859375 167.828125 24.574219 168.089844 24.273438 168.359375 C 25.085938 169.160156 26.101562 169.109375 27.28125 168.855469 C 28.996094 168.546875 30.734375 168.390625 32.476562 168.390625 C 33.136719 168.390625 33.535156 168.945312 33.613281 169.6875 C 33.664062 170.269531 33.964844 170.824219 33.988281 171.402344 C 34.023438 172.375 33.910156 173.359375 33.890625 174.332031 C 33.847656 174.855469 33.878906 175.382812 33.980469 175.898438 C 34.183594 176.800781 34.507812 177.671875 34.949219 178.484375 C 35.265625 179.015625 35.96875 179.308594 36.449219 179.757812 C 36.816406 180.132812 37.15625 180.53125 37.472656 180.949219 C 37.652344 180.597656 37.757812 180.214844 37.789062 179.820312 C 37.601562 178.730469 38.652344 177.667969 37.832031 176.582031 C 37.78125 176.511719 37.894531 176.296875 37.96875 176.175781 C 39.152344 174.082031 39.964844 171.800781 40.371094 169.429688 C 41.296875 170.039062 42.25 170.699219 43.242188 171.296875 C 43.445312 171.417969 43.78125 171.296875 44.074219 171.296875 C 45.214844 172.367188 46.472656 173.238281 48.265625 172.855469 C 48.710938 172.789062 49.164062 172.851562 49.574219 173.027344 C 50.800781 173.632812 52.253906 173.574219 53.425781 172.871094 C 54.175781 172.429688 54.273438 172.0625 53.742188 171.371094 C 53.453125 171.046875 53.144531 170.746094 52.808594 170.464844 L 52.96875 170.238281 L 54.582031 170.988281 L 55.011719 170.292969 L 56.070312 171.523438 L 54.785156 171.6875 C 55.054688 171.992188 55.535156 172.285156 55.535156 172.554688 C 55.582031 173.132812 55.410156 173.707031 55.054688 174.167969 C 54.589844 174.535156 53.90625 175.292969 53.140625 174.429688 C 53.140625 174.429688 52.390625 174.03125 52.390625 174.765625 C 52.390625 174.851562 52.074219 174.933594 51.976562 174.976562 C 52.023438 175.179688 52.132812 175.496094 52.074219 175.523438 C 51.886719 175.648438 51.664062 175.699219 51.441406 175.667969 C 51.136719 175.585938 50.871094 175.359375 50.566406 175.253906 C 50.023438 174.96875 49.359375 175.039062 48.890625 175.433594 C 48.605469 175.6875 48.085938 175.667969 47.703125 175.765625 L 47.46875 174.183594 L 47.28125 174.183594 L 46.929688 175.515625 C 46.070312 175.476562 45.210938 175.371094 44.367188 175.203125 C 43.984375 175.105469 43.699219 174.609375 43.277344 174.203125 C 43.015625 174.066406 42.765625 173.910156 42.527344 173.734375 C 41.941406 173.246094 41.332031 173.449219 41.152344 174.265625 C 40.972656 175.082031 40.816406 176.035156 40.628906 176.910156 C 40.542969 177.285156 40.371094 177.660156 40.28125 178.003906 C 40.191406 178.351562 40.109375 178.890625 40.035156 179.339844 C 40.035156 179.390625 40.035156 179.480469 40.035156 179.511719 C 39.027344 180.53125 39.726562 181.976562 39.125 183.109375 C 38.976562 183.488281 38.878906 183.886719 38.839844 184.292969 C 38.277344 184.289062 37.714844 184.242188 37.15625 184.152344 C 36.671875 184.078125 36.21875 183.867188 35.851562 183.542969 C 34.347656 181.941406 32.9375 180.269531 31.433594 178.566406 L 31.855469 178.410156 C 31.515625 176.96875 31.101562 175.554688 30.886719 174.113281 C 30.871094 173.449219 30.949219 172.78125 31.125 172.136719 C 31.253906 171.167969 30.488281 171.167969 29.910156 171.109375 C 29.070312 171.042969 28.226562 171.03125 27.382812 171.070312 C 27.097656 171.070312 26.800781 171.257812 26.527344 171.222656 C 25.933594 171.132812 25.363281 170.953125 24.777344 170.808594 C 24.699219 170.773438 24.609375 170.757812 24.523438 170.765625 C 22.929688 171.335938 21.886719 170.121094 20.640625 169.589844 Z M 20.609375 168.304688 "/>
<path style=" stroke:none;fill-rule:nonzero;fill:rgb(100%,0%,0.784314%);fill-opacity:1;" d="M 164.527344 90.035156 C 164.234375 88.832031 162.949219 89.0625 162.0625 88.574219 C 160.988281 87.992188 160.109375 88.367188 159.140625 88.328125 C 161.0625 87.097656 162.730469 88.132812 164.503906 88.949219 L 164.796875 88.011719 C 165.269531 88.085938 165.734375 88.207031 166.1875 88.371094 C 166.382812 88.457031 166.433594 88.84375 166.546875 89.121094 L 165.5625 89.519531 C 165.710938 90.515625 165.878906 91.558594 166.042969 92.613281 C 166.625 92.363281 167.230469 92.160156 167.84375 92.007812 C 168.265625 91.917969 168.703125 92.011719 169.046875 92.261719 C 169.234375 92.644531 169.265625 93.085938 169.136719 93.492188 C 168.933594 94.628906 168.644531 95.746094 168.28125 96.84375 C 167.953125 97.539062 167.558594 98.199219 167.101562 98.820312 L 166.816406 98.820312 C 166.765625 98.363281 166.679688 97.914062 166.660156 97.457031 C 166.617188 96.84375 166.617188 96.226562 166.660156 95.613281 C 166.691406 95.328125 166.824219 95.0625 167.035156 94.863281 C 167.617188 94.332031 167.859375 93.527344 167.671875 92.765625 L 166.285156 94.585938 C 165.863281 93.863281 165.488281 93.109375 165.164062 92.335938 C 165.058594 92.054688 165.359375 91.640625 165.410156 91.273438 C 165.472656 90.96875 165.449219 90.652344 165.34375 90.359375 C 165.238281 90.210938 164.871094 90.179688 164.527344 90.035156 Z M 164.527344 90.035156 "/>
<path style=" stroke:none;fill-rule:nonzero;fill:rgb(100%,0%,0.784314%);fill-opacity:1;" d="M 128.253906 97.5 C 128.253906 96.902344 128.199219 96.386719 128.179688 95.835938 L 124.941406 96.476562 L 125 96.207031 C 124.777344 95.832031 124.527344 95.457031 124.339844 95.089844 C 124.222656 94.894531 124.183594 94.664062 124.234375 94.445312 C 124.390625 94.285156 124.617188 94.21875 124.835938 94.265625 C 125.375 94.414062 125.894531 94.644531 126.464844 94.863281 L 126.242188 95.523438 L 129.304688 94.773438 C 129.09375 95.257812 128.921875 95.757812 128.792969 96.273438 C 128.777344 96.683594 128.882812 97.089844 129.09375 97.441406 L 129.09375 100.320312 C 128.867188 100.269531 128.667969 100.125 128.554688 99.921875 C 128.4375 99.71875 128.414062 99.476562 128.488281 99.253906 C 128.589844 98.617188 128.742188 98.003906 127.675781 98.25 C 127.464844 98.304688 127.148438 97.890625 126.886719 97.6875 C 127.164062 97.554688 127.445312 97.4375 127.734375 97.335938 C 127.839844 97.351562 128.011719 97.433594 128.253906 97.5 Z M 128.253906 97.5 "/>
<path style=" stroke:none;fill-rule:nonzero;fill:rgb(100%,0%,0.784314%);fill-opacity:1;" d="M 133.398438 98.714844 L 129.554688 103.046875 L 130.304688 103.117188 L 130.417969 103.308594 C 130.175781 103.429688 129.855469 103.714844 129.703125 103.648438 C 128.90625 103.25 128.613281 103.648438 128.492188 104.398438 L 127.515625 104.21875 C 128.402344 103.714844 128.269531 102.921875 128.15625 102.074219 L 128.90625 102.382812 L 129.171875 101.527344 L 129.28125 101.667969 C 129.859375 101.210938 130.453125 100.769531 131.023438 100.296875 C 131.597656 99.824219 132 99.421875 132.527344 99.03125 C 132.800781 98.882812 133.09375 98.777344 133.398438 98.714844 Z M 133.398438 98.714844 "/>
<path style=" stroke:none;fill-rule:nonzero;fill:rgb(100%,0%,0.784314%);fill-opacity:1;" d="M 206.136719 115.03125 L 207.195312 114.371094 L 206.625 116.859375 L 205.65625 117.273438 C 206.566406 118.242188 206.507812 118.570312 205.410156 119.257812 C 205.257812 118.660156 205.09375 118.082031 204.957031 117.5 C 204.945312 117.410156 204.984375 117.320312 205.054688 117.265625 C 206.101562 116.855469 205.84375 115.847656 206.09375 115.070312 Z M 206.136719 115.03125 "/>
<path style=" stroke:none;fill-rule:nonzero;fill:rgb(100%,0%,0.784314%);fill-opacity:1;" d="M 181.101562 177.898438 L 181.675781 178.28125 L 181.898438 177.105469 C 182.351562 178.148438 182.746094 178.964844 183.035156 179.8125 C 183.101562 180.027344 182.777344 180.375 182.636719 180.660156 C 182.410156 180.472656 182.085938 180.328125 181.972656 180.082031 C 181.667969 179.453125 181.441406 178.769531 181.101562 177.898438 Z M 181.101562 177.898438 "/>
<path style=" stroke:none;fill-rule:nonzero;fill:rgb(100%,0%,0.784314%);fill-opacity:1;" d="M 199.875 115.105469 C 200.503906 115.757812 200.496094 116.605469 200.714844 117.4375 L 200.503906 117.625 L 198.0625 116.007812 L 199.769531 115.414062 Z M 199.875 115.105469 "/>
<path style=" stroke:none;fill-rule:nonzero;fill:rgb(100%,0%,0.784314%);fill-opacity:1;" d="M 153.132812 87.625 L 148.960938 87.804688 L 149.433594 87.128906 C 149.871094 87.113281 150.300781 87.042969 150.71875 86.925781 C 151.589844 86.648438 152.542969 86.925781 153.132812 87.625 Z M 153.132812 87.625 "/>
<path style=" stroke:none;fill-rule:nonzero;fill:rgb(100%,0%,0.784314%);fill-opacity:1;" d="M 164.238281 99.570312 C 163.886719 100.433594 163.601562 101.195312 162.664062 101.5625 C 162.625 100.289062 163.265625 99.441406 164.238281 99.570312 Z M 164.238281 99.570312 "/>
<path style=" stroke:none;fill-rule:nonzero;fill:rgb(100%,0%,0.784314%);fill-opacity:1;" d="M 163.578125 89.9375 C 162.78125 90.113281 162.078125 90.300781 161.410156 90.402344 C 160.738281 90.507812 160.65625 89.96875 160.558594 89.371094 Z M 163.578125 89.9375 "/>
<path style=" stroke:none;fill-rule:nonzero;fill:rgb(100%,0%,0.784314%);fill-opacity:1;" d="M 142.066406 95.5625 C 142.3125 95.210938 142.613281 94.902344 142.953125 94.644531 C 143.222656 94.496094 143.636719 94.644531 143.980469 94.601562 C 143.792969 94.886719 143.667969 95.269531 143.402344 95.441406 C 143.03125 95.605469 142.636719 95.71875 142.230469 95.777344 Z M 142.066406 95.5625 "/>
<path style=" stroke:none;fill-rule:nonzero;fill:rgb(100%,0%,0.784314%);fill-opacity:1;" d="M 140.445312 94.878906 L 140.347656 95.351562 L 141.097656 95.191406 L 141.203125 95.402344 L 139.109375 96.617188 C 139.109375 95.492188 139.8125 95.238281 140.445312 94.878906 Z M 140.445312 94.878906 "/>
<path style=" stroke:none;fill-rule:nonzero;fill:rgb(100%,0%,0.784314%);fill-opacity:1;" d="M 159.296875 86.4375 C 159.875 85.449219 160.921875 85.375 162.039062 86.207031 Z M 159.296875 86.4375 "/>
<path style=" stroke:none;fill-rule:nonzero;fill:rgb(100%,0%,0.784314%);fill-opacity:1;" d="M 90.847656 209.035156 C 90.351562 207.976562 91.085938 207.84375 91.457031 207.535156 C 91.859375 207.152344 92.335938 206.847656 92.851562 206.644531 Z M 90.847656 209.035156 "/>
<path style=" stroke:none;fill-rule:nonzero;fill:rgb(100%,0%,0.784314%);fill-opacity:1;" d="M 147.175781 128.335938 C 148.210938 128.238281 149.191406 128.816406 149.609375 129.765625 C 148.6875 129.507812 147.847656 129.015625 147.175781 128.335938 Z M 147.175781 128.335938 "/>
<path style=" stroke:none;fill-rule:nonzero;fill:rgb(100%,0%,0.784314%);fill-opacity:1;" d="M 151.589844 91.085938 L 150.027344 91.085938 L 149.910156 90.921875 L 151.769531 89.421875 L 151.988281 89.632812 C 151.765625 90.089844 150.824219 90.285156 151.589844 91.085938 Z M 151.589844 91.085938 "/>
<path style=" stroke:none;fill-rule:nonzero;fill:rgb(100%,0%,0.784314%);fill-opacity:1;" d="M 158.695312 109.5 L 160.808594 106.277344 L 161.023438 106.414062 C 160.378906 107.53125 159.726562 108.644531 159.074219 109.75 Z M 158.695312 109.5 "/>
<path style=" stroke:none;fill-rule:nonzero;fill:rgb(100%,0%,0.784314%);fill-opacity:1;" d="M 128.960938 111.898438 C 128.074219 111.792969 127.707031 110.476562 128.207031 109.570312 C 128.488281 110.378906 128.703125 111.082031 128.960938 111.898438 Z M 128.960938 111.898438 "/>
<path style=" stroke:none;fill-rule:nonzero;fill:rgb(100%,0%,0.784314%);fill-opacity:1;" d="M 153.867188 110.402344 C 154.332031 111.414062 153.964844 111.898438 153.234375 112.558594 C 153.019531 111.777344 153.265625 110.945312 153.867188 110.402344 Z M 153.867188 110.402344 "/>
<path style=" stroke:none;fill-rule:nonzero;fill:rgb(100%,0%,0.784314%);fill-opacity:1;" d="M 148.054688 90.472656 C 148.066406 90.101562 148.109375 89.730469 148.1875 89.371094 C 148.261719 89.140625 148.425781 88.949219 148.640625 88.835938 C 148.8125 88.777344 149.066406 88.933594 149.285156 88.996094 C 149.238281 89.238281 149.152344 89.476562 149.03125 89.691406 C 148.726562 89.976562 148.398438 90.238281 148.054688 90.472656 Z M 148.054688 90.472656 "/>
<path style=" stroke:none;fill-rule:nonzero;fill:rgb(100%,0%,0.784314%);fill-opacity:1;" d="M 141.5625 93.777344 L 143.6875 91.4375 L 144.011719 91.761719 L 141.757812 93.925781 Z M 141.5625 93.777344 "/>
<path style=" stroke:none;fill-rule:nonzero;fill:rgb(100%,0%,0.784314%);fill-opacity:1;" d="M 154.402344 88.214844 L 152.289062 89.273438 C 151.988281 88.582031 152.523438 88.289062 154.402344 88.214844 Z M 154.402344 88.214844 "/>
<path style=" stroke:none;fill-rule:nonzero;fill:rgb(100%,0%,0.784314%);fill-opacity:1;" d="M 114.320312 67.941406 C 113.984375 68.054688 113.632812 68.117188 113.277344 68.136719 C 113.058594 68.136719 112.847656 67.875 112.636719 67.722656 C 112.902344 67.582031 113.195312 67.28125 113.390625 67.328125 C 113.730469 67.464844 114.046875 67.664062 114.3125 67.917969 Z M 114.320312 67.941406 "/>
<path style=" stroke:none;fill-rule:nonzero;fill:rgb(100%,0%,0.784314%);fill-opacity:1;" d="M 149.75 126.898438 L 151.800781 127.910156 C 150.675781 128.164062 150.019531 127.8125 149.75 126.898438 Z M 149.75 126.898438 "/>
<path style=" stroke:none;fill-rule:nonzero;fill:rgb(100%,0%,0.784314%);fill-opacity:1;" d="M 129.890625 98.011719 L 131.023438 99.292969 L 130.339844 99.757812 L 129.785156 98.152344 Z M 129.890625 98.011719 "/>
<path style=" stroke:none;fill-rule:nonzero;fill:rgb(100%,0%,0.784314%);fill-opacity:1;" d="M 127.578125 102.613281 C 127.007812 102.882812 127.128906 103.984375 126.152344 103.84375 C 126.21875 102.929688 126.78125 102.636719 127.578125 102.613281 Z M 127.578125 102.613281 "/>
<path style=" stroke:none;fill-rule:nonzero;fill:rgb(100%,0%,0.784314%);fill-opacity:1;" d="M 89.171875 116.589844 L 89.34375 116.140625 L 88.40625 115.910156 L 88.40625 115.617188 C 88.703125 115.59375 89.003906 115.621094 89.292969 115.699219 C 89.554688 115.820312 89.734375 116.113281 89.953125 116.328125 L 89.332031 116.742188 Z M 89.171875 116.589844 "/>
<path style=" stroke:none;fill-rule:nonzero;fill:rgb(100%,0%,0.784314%);fill-opacity:1;" d="M 131.65625 98.566406 L 133.160156 97.449219 L 133.40625 97.792969 L 131.898438 98.933594 Z M 131.65625 98.566406 "/>
<path style=" stroke:none;fill-rule:nonzero;fill:rgb(100%,0%,0.784314%);fill-opacity:1;" d="M 125.277344 111.757812 L 128.402344 112.800781 L 128.304688 113.078125 L 125.226562 111.972656 Z M 125.277344 111.757812 "/>
<path style=" stroke:none;fill-rule:nonzero;fill:rgb(100%,0%,0.784314%);fill-opacity:1;" d="M 142.113281 94.480469 L 143.742188 93.125 L 144.011719 93.460938 L 142.335938 94.734375 Z M 142.113281 94.480469 "/>
<path style=" stroke:none;fill-rule:nonzero;fill:rgb(100%,0%,0.784314%);fill-opacity:1;" d="M 154.820312 88.84375 L 156.644531 88.371094 C 156.128906 88.980469 155.835938 89.84375 154.820312 88.84375 Z M 154.820312 88.84375 "/>
<path style=" stroke:none;fill-rule:nonzero;fill:rgb(100%,0%,0.784314%);fill-opacity:1;" d="M 126.128906 93.6875 L 126.074219 92.621094 C 126.226562 92.609375 126.382812 92.609375 126.535156 92.621094 C 126.535156 92.96875 126.535156 93.320312 126.535156 93.664062 Z M 126.128906 93.6875 "/>
<path style=" stroke:none;fill-rule:nonzero;fill:rgb(100%,0%,0.784314%);fill-opacity:1;" d="M 168.917969 89.070312 L 169.308594 90.320312 L 168.917969 90.449219 L 168.46875 89.226562 Z M 168.917969 89.070312 "/>
<path style=" stroke:none;fill-rule:nonzero;fill:rgb(100%,0%,0.784314%);fill-opacity:1;" d="M 159.953125 102.117188 L 158.9375 102.980469 L 158.792969 102.90625 L 159.5 101.40625 L 159.964844 102.15625 Z M 159.953125 102.117188 "/>
<path style=" stroke:none;fill-rule:nonzero;fill:rgb(100%,0%,0.784314%);fill-opacity:1;" d="M 138.515625 97.644531 L 139.648438 96.722656 L 139.859375 96.925781 L 138.875 97.980469 Z M 138.515625 97.644531 "/>
<path style=" stroke:none;fill-rule:nonzero;fill:rgb(100%,0%,0.784314%);fill-opacity:1;" d="M 206.09375 115.070312 L 204.996094 114.726562 L 206.378906 113.824219 C 206.273438 114.367188 206.207031 114.703125 206.136719 115.03125 Z M 206.09375 115.070312 "/>
<path style=" stroke:none;fill-rule:nonzero;fill:rgb(100%,0%,0.784314%);fill-opacity:1;" d="M 118.828125 176.417969 L 117.671875 177.0625 L 117.488281 176.753906 L 118.617188 176.054688 Z M 118.828125 176.417969 "/>
<path style=" stroke:none;fill-rule:nonzero;fill:rgb(100%,0%,0.784314%);fill-opacity:1;" d="M 47.6875 167.78125 L 48.332031 168.390625 L 48.273438 168.636719 L 45.007812 167.773438 L 45.050781 167.519531 C 45.277344 167.578125 45.507812 167.625 45.726562 167.691406 C 45.96875 167.800781 46.21875 167.878906 46.476562 167.925781 C 46.863281 167.898438 47.246094 167.84375 47.621094 167.757812 Z M 47.6875 167.78125 "/>
</g>
</svg>
