<?xml version="1.0" encoding="UTF-8"?>
<svg xmlns="http://www.w3.org/2000/svg" xmlns:xlink="http://www.w3.org/1999/xlink" width="px" height="px" viewBox="0 0 230 267" version="1.1">
<g id="surface1">
<path style=" stroke:none;fill-rule:nonzero;fill:rgb(100%,0%,0.784314%);fill-opacity:1;" d="M 179.585938 115.324219 C 179.132812 115.742188 178.726562 116.207031 178.367188 116.710938 C 176.503906 120.324219 174.121094 123.648438 171.292969 126.574219 C 170.984375 127 170.511719 127.277344 169.988281 127.339844 C 169.46875 127.40625 168.941406 127.253906 168.535156 126.917969 C 163.511719 123.996094 157.976562 122.519531 152.265625 121.605469 C 151.089844 121.417969 149.917969 121.207031 148.625 121 C 148.429688 121.746094 148.25 122.496094 148.082031 123.210938 C 145.941406 133.285156 139.535156 141.941406 130.515625 146.953125 C 130.046875 147.179688 129.523438 147.257812 129.011719 147.171875 C 127.222656 146.886719 126.640625 147.171875 125.796875 148.871094 C 125.578125 149.1875 125.25 149.414062 124.875 149.507812 C 123.160156 150.027344 121.449219 150.550781 119.699219 150.933594 C 118.902344 151.113281 118.648438 151.414062 118.683594 152.199219 C 118.789062 154.066406 118.863281 155.949219 118.863281 157.804688 C 118.800781 158.460938 118.671875 159.109375 118.472656 159.738281 C 118.679688 160.066406 118.828125 160.425781 118.910156 160.804688 C 119.140625 166.171875 119.351562 171.535156 119.511719 176.910156 C 119.523438 177.476562 119.292969 178.023438 118.878906 178.410156 C 117.121094 179.460938 117.03125 181.257812 116.519531 182.953125 C 117.339844 183.355469 118.074219 183.3125 118.535156 182.570312 C 118.910156 181.960938 119.074219 181.226562 119.496094 180.5625 C 119.871094 199.171875 123.25 217.25 128.507812 235.003906 C 125.863281 236.007812 100.242188 236.03125 97.15625 235.003906 C 102.664062 216.328125 106.214844 197.328125 106.367188 177.644531 C 106.605469 177.953125 106.964844 178.222656 107.0625 178.566406 C 107.113281 178.910156 107.328125 179.210938 107.640625 179.367188 C 107.949219 179.523438 108.320312 179.519531 108.625 179.355469 C 109 179.019531 109.183594 178.523438 109.113281 178.027344 C 108.917969 177.417969 108.523438 176.890625 107.996094 176.527344 C 107 176.050781 106.402344 175.011719 106.492188 173.914062 C 106.613281 169.625 106.660156 165.332031 106.742188 161.035156 C 106.742188 160.765625 106.742188 160.355469 106.855469 160.234375 C 108.039062 159.328125 107.671875 158.082031 107.335938 157.078125 C 106.875 155.597656 106.746094 154.03125 106.964844 152.492188 C 107.0625 151.578125 106.898438 151.121094 105.808594 150.886719 C 96.984375 149.175781 89.132812 144.207031 83.816406 136.96875 C 83.5625 136.625 83.335938 136.21875 83.066406 135.875 L 84.34375 135.394531 C 81.597656 133.832031 79.675781 131.144531 79.085938 128.042969 C 79.324219 128.125 79.492188 128.171875 79.640625 128.238281 C 79.886719 128.375 80.167969 128.425781 80.445312 128.386719 C 80.324219 127.953125 80.339844 127.375 80.0625 127.121094 C 79.785156 126.867188 79.257812 127.121094 78.558594 127.160156 L 76.914062 120.992188 L 69.71875 122.199219 L 71.492188 119.535156 C 66.136719 121.785156 61.109375 121.851562 56.265625 117.828125 C 58.445312 117.226562 57.894531 115.453125 58.464844 113.984375 C 56.8125 114.164062 56.152344 113.089844 55.378906 112.117188 C 55.023438 111.664062 54.546875 111.324219 54.003906 111.136719 C 53.171875 110.886719 52.652344 111.246094 52.667969 112.246094 C 52.683594 113.242188 52.894531 114.269531 51.625 115.191406 L 49.925781 112.710938 C 51.863281 111.34375 51.863281 111.34375 50.585938 109.777344 L 54.582031 105.507812 C 54.5 106.734375 54.6875 107.5 55.769531 107.671875 C 55.855469 108.011719 55.855469 108.367188 55.769531 108.707031 C 55.660156 109.023438 55.507812 109.328125 55.320312 109.605469 L 55.605469 109.90625 C 56.117188 109.683594 56.621094 109.433594 57.105469 109.15625 C 58.414062 108.28125 58.480469 108.292969 59.203125 109.628906 C 59.40625 109.960938 59.632812 110.277344 59.878906 110.582031 C 60.554688 109.734375 60.402344 109.082031 59.277344 107.761719 C 58.585938 106.953125 57.835938 106.203125 56.933594 105.242188 C 57.453125 105.378906 57.804688 105.460938 58.144531 105.566406 C 59.644531 106.03125 61.148438 106.457031 62.574219 106.992188 C 63.1875 107.289062 63.773438 107.632812 64.332031 108.015625 C 64.589844 108.152344 64.875 108.222656 65.167969 108.21875 C 65.792969 108.113281 66.425781 108.058594 67.058594 108.0625 C 69.132812 108.390625 71.199219 108.8125 73.347656 109.222656 C 72.59375 111.382812 71.429688 113.007812 69.058594 113.601562 C 68.351562 113.0625 68.433594 112.257812 68.667969 111.425781 C 68.800781 110.917969 69.222656 110.316406 68.375 110.0625 C 68.050781 109.925781 67.6875 109.933594 67.375 110.089844 C 67.058594 110.242188 66.828125 110.527344 66.742188 110.867188 C 66.640625 111.59375 66.726562 112.339844 67 113.023438 C 67.382812 113.949219 67.828125 114.851562 68.328125 115.722656 C 69.761719 115.722656 70.996094 115.683594 72.226562 115.722656 C 73.097656 115.722656 73.398438 115.390625 73.234375 114.574219 C 73.105469 113.921875 72.984375 113.269531 72.917969 112.925781 C 74.015625 112.355469 74.917969 111.871094 75.832031 111.425781 C 76.203125 111.199219 76.609375 111.035156 77.035156 110.933594 C 77.589844 110.851562 78.085938 111.007812 77.988281 111.765625 C 77.765625 112.980469 78.410156 114.191406 79.542969 114.6875 C 79.984375 114.851562 80.332031 115.203125 80.488281 115.644531 C 80.644531 116.085938 80.601562 116.574219 80.363281 116.980469 C 80.257812 117.324219 80.222656 117.6875 80.265625 118.046875 C 80.265625 119.542969 80.265625 121.042969 80.265625 122.542969 C 81.4375 122.625 82.097656 122.011719 82.066406 120.511719 C 82.015625 119.679688 81.921875 118.851562 81.78125 118.03125 C 81.730469 117.609375 81.667969 117.183594 81.625 116.792969 C 82.417969 116.859375 83.125 116.882812 83.800781 116.996094 C 84.265625 117.007812 84.714844 117.167969 85.078125 117.453125 C 85.449219 118.003906 85.746094 118.597656 85.972656 119.222656 L 84.273438 119.972656 C 84.199219 121.050781 85.378906 122.488281 83.382812 123.261719 L 83.585938 123.597656 L 84.980469 123.726562 L 87.59375 130.007812 L 86.296875 129.878906 C 86.46875 130.105469 86.527344 130.269531 86.632812 130.316406 C 88.40625 130.988281 89.503906 132.40625 90.480469 133.914062 C 90.683594 134.382812 90.753906 134.902344 90.683594 135.410156 C 90.640625 135.847656 90.558594 136.277344 90.441406 136.699219 L 90.765625 136.78125 L 91.703125 135.285156 C 92.453125 137.488281 92.71875 139.734375 95.179688 140.597656 L 95.699219 138.859375 C 99.105469 141.363281 103.03125 143.070312 107.183594 143.859375 L 107.183594 118.832031 L 86.714844 119.402344 L 87.867188 115.25 L 86.0625 114.238281 C 85.929688 114.832031 85.734375 115.410156 85.476562 115.960938 C 85.234375 116.246094 84.875 116.40625 84.5 116.390625 C 84.304688 116.390625 83.953125 115.847656 84.003906 115.640625 C 84.167969 114.863281 84.421875 114.109375 84.753906 113.390625 C 85.097656 112.789062 85.492188 112.214844 85.925781 111.675781 C 83.320312 111.140625 82.808594 110.460938 82.425781 107.328125 C 82.34375 106.921875 82.230469 106.523438 82.089844 106.136719 C 81.625 106.296875 81.167969 106.484375 80.722656 106.691406 C 80.453125 106.832031 80.265625 107.222656 79.972656 107.28125 C 79.417969 107.441406 78.835938 107.480469 78.265625 107.394531 C 78.117188 107.359375 77.941406 106.496094 78.085938 106.128906 C 79.0625 103.488281 79.84375 100.730469 81.195312 98.289062 C 85.808594 89.628906 93.851562 83.296875 103.367188 80.839844 C 104.472656 80.539062 104.722656 80.089844 104.699219 78.980469 C 104.601562 73.195312 104.21875 67.445312 102.683594 61.832031 C 102.09375 59.691406 101.496094 57.546875 100.890625 55.402344 C 100.601562 54.558594 100.910156 53.625 101.640625 53.117188 C 105.105469 50.117188 108.507812 47.046875 111.871094 43.933594 C 112.621094 43.1875 113.050781 43.253906 113.808594 43.933594 C 117.113281 46.992188 120.480469 49.984375 123.835938 52.980469 C 125.070312 54.074219 125.097656 55.171875 123.835938 56.308594 C 123.636719 56.539062 123.464844 56.792969 123.320312 57.058594 L 124.40625 57.292969 C 123.90625 58.414062 123.425781 59.539062 122.941406 60.589844 C 122.839844 60.75 122.765625 60.929688 122.71875 61.113281 C 122.273438 64.113281 121.726562 67.066406 121.441406 70.0625 C 121.140625 73.261719 121.101562 76.492188 120.90625 79.707031 C 120.863281 80.457031 121.351562 80.503906 121.863281 80.636719 C 135.230469 84.125 145.433594 94.910156 148.152344 108.429688 C 148.355469 109.390625 148.75 109.605469 149.59375 109.472656 C 150.929688 109.261719 152.273438 109.105469 153.605469 108.847656 C 154.28125 108.722656 154.625 108.847656 154.835938 109.546875 C 154.988281 110.035156 155.246094 110.484375 155.585938 110.867188 C 156.285156 111.613281 156.632812 111.523438 157.007812 110.582031 L 155.292969 108.976562 L 155.453125 108.5625 C 156.21875 108.308594 157.023438 108.179688 157.832031 108.175781 C 158.296875 108.234375 158.742188 108.925781 159.085938 109.417969 C 159.636719 110.167969 160.101562 110.917969 159.261719 111.929688 C 158.507812 112.804688 158.90625 115.566406 159.695312 116.578125 C 159.898438 115.421875 160.042969 114.394531 160.273438 113.382812 C 160.640625 111.757812 161.09375 111.359375 162.105469 111.464844 C 162.105469 113.203125 162.105469 114.921875 162.105469 116.636719 C 162.101562 117.035156 162.203125 117.425781 162.40625 117.769531 C 162.695312 118.082031 163.03125 118.351562 163.398438 118.570312 C 163.625 118.175781 163.777344 117.746094 163.847656 117.296875 C 163.78125 116.238281 163.421875 115.191406 163.4375 114.140625 C 163.472656 112.042969 164.539062 111.097656 166.679688 111.140625 C 166.621094 110.226562 167.253906 109.164062 166.050781 108.527344 C 165.617188 108.339844 165.171875 108.1875 164.714844 108.078125 L 164.480469 109.449219 L 161.054688 109.613281 C 160.898438 107.710938 161.101562 107.453125 163.0625 106.855469 C 165.019531 106.257812 166.988281 105.542969 168.972656 104.960938 C 169.4375 104.804688 169.945312 104.855469 170.371094 105.101562 C 173.179688 107.851562 175.941406 110.664062 178.691406 113.488281 C 179.011719 113.894531 179.285156 114.339844 179.503906 114.808594 Z M 116.695312 145.460938 C 118.097656 144.621094 119.566406 143.890625 121.085938 143.28125 C 131.820312 140.0625 139.738281 130.972656 141.445312 119.917969 C 133.804688 118.539062 126.144531 119.648438 118.480469 118.628906 C 118.480469 119.320312 118.40625 119.785156 118.414062 120.25 C 118.457031 127.285156 118.503906 134.324219 118.59375 141.363281 C 118.59375 142.449219 118.519531 143.214844 117.273438 143.609375 C 116.023438 144.007812 116.003906 144.789062 116.695312 145.460938 Z M 105.53125 87.625 C 102.8125 88.328125 100.207031 89.417969 97.796875 90.855469 C 92.589844 94.066406 88.496094 98.789062 86.0625 104.390625 L 85.566406 101.308594 L 85.242188 101.308594 C 85.175781 102.015625 85.046875 102.710938 85.042969 103.40625 C 85.042969 105.460938 85.289062 107.539062 84.507812 109.523438 C 84.222656 110.273438 84.65625 110.4375 85.257812 110.476562 C 86.492188 110.550781 87.722656 110.664062 88.953125 110.714844 C 89.707031 110.714844 89.878906 110.984375 89.789062 111.75 C 89.722656 112.816406 89.722656 113.882812 89.789062 114.949219 C 89.640625 113.578125 90.492188 112.292969 91.816406 111.890625 C 91.96875 111.84375 92.105469 111.761719 92.214844 111.644531 C 92.839844 110.949219 93.425781 110.566406 94.085938 111.644531 C 94.191406 111.816406 94.574219 111.847656 94.835938 111.878906 C 95.585938 111.960938 96.339844 112.011719 97.140625 112.085938 C 97.285156 111.074219 98.097656 111.128906 98.980469 111.15625 C 101.011719 111.234375 103.039062 111.238281 105.074219 111.253906 C 106.90625 111.253906 107.058594 111.066406 106.960938 109.1875 C 106.792969 106.1875 106.695312 103.234375 106.539062 100.261719 C 106.394531 97.53125 106.230469 94.796875 106.027344 92.066406 C 105.929688 90.628906 105.710938 89.191406 105.53125 87.625 Z M 120.214844 87.570312 C 120.066406 88.125 119.953125 88.6875 119.878906 89.257812 C 119.683594 92.066406 119.53125 94.878906 119.351562 97.683594 C 119.210938 99.808594 119.023438 101.9375 118.917969 104.066406 C 118.820312 106.054688 118.8125 108.03125 118.746094 110.019531 C 118.746094 111 119.136719 111.316406 120.105469 111.285156 C 124.316406 111.140625 128.539062 111.089844 132.761719 110.949219 C 135.222656 110.859375 137.679688 110.632812 140.144531 110.511719 C 141 110.46875 141.445312 110.28125 141.089844 109.296875 C 140.84375 108.640625 140.746094 107.917969 140.527344 107.238281 C 137.28125 97.171875 130.484375 90.757812 120.214844 87.570312 Z M 61.839844 113.171875 L 61.695312 113.511719 C 63.453125 114.484375 62.816406 116.035156 62.792969 117.460938 C 62.75 118.117188 62.839844 118.773438 63.054688 119.394531 C 63.191406 119.703125 63.808594 119.875 64.242188 119.957031 C 64.550781 119.957031 64.832031 119.796875 64.992188 119.535156 C 65.746094 117.871094 64.625 114.289062 63.085938 113.375 C 62.6875 113.234375 62.261719 113.164062 61.839844 113.171875 Z M 111.933594 47.21875 L 111.179688 47.21875 C 110.933594 48.515625 110.65625 49.804688 110.472656 51.109375 C 110.4375 51.347656 110.804688 51.648438 110.992188 51.917969 C 111.195312 51.707031 111.488281 51.527344 111.578125 51.28125 C 111.863281 50.585938 112.0625 49.859375 112.171875 49.113281 C 112.164062 48.476562 112.082031 47.839844 111.933594 47.21875 Z M 114.847656 202.363281 L 115.371094 202.257812 C 115.363281 201.371094 115.292969 200.488281 115.152344 199.613281 C 114.980469 198.96875 114.667969 198.371094 114.238281 197.859375 C 114.078125 197.664062 113.546875 197.769531 113.179688 197.730469 C 113.179688 198.007812 113.027344 198.332031 113.125 198.546875 C 113.488281 199.386719 113.929688 200.199219 114.320312 201.023438 C 114.523438 201.425781 114.671875 201.882812 114.847656 202.363281 Z M 116.738281 210.976562 C 116.910156 209.054688 116.898438 207.226562 115.5 205.730469 C 115.148438 207.5625 115.597656 209.464844 116.738281 210.945312 Z M 120.75 219.414062 C 120.507812 219.839844 120.40625 220.292969 120.125 220.5 C 119.203125 221.183594 119.78125 222.082031 119.691406 222.882812 C 120.113281 222.882812 120.703125 223.140625 120.921875 222.945312 C 121.660156 222.261719 121.53125 220.351562 120.75 219.382812 Z M 115.957031 59.324219 L 119.023438 60.820312 C 118.714844 59.90625 118.457031 59.050781 118.128906 58.226562 C 118.015625 57.949219 117.699219 57.546875 117.519531 57.570312 C 117.128906 57.621094 116.773438 57.816406 116.519531 58.117188 C 116.28125 58.492188 116.089844 58.898438 115.957031 59.324219 Z M 110.292969 56.105469 L 110.804688 56.046875 C 111.054688 55.679688 111.445312 55.296875 111.511719 54.929688 C 111.632812 54.179688 110.625 53.148438 109.949219 53.320312 C 109.511719 53.492188 109.140625 53.800781 108.890625 54.195312 C 109.3125 54.867188 109.78125 55.503906 110.292969 56.105469 Z M 112.203125 139.546875 C 111.324219 140.34375 110.851562 141.046875 111.570312 141.746094 C 112.023438 142.03125 112.589844 142.070312 113.074219 141.84375 C 114.148438 140.613281 112.328125 140.582031 112.203125 139.546875 Z M 124.453125 228.394531 L 124.8125 227.957031 L 122.558594 226.070312 C 123.378906 226.675781 123.257812 228.222656 124.453125 228.394531 Z M 120.007812 146.542969 L 120.113281 147.027344 C 120.824219 147.027344 121.613281 147.34375 122.011719 146.152344 Z M 115.070312 169.386719 C 114.148438 167.96875 113.613281 167.730469 112.675781 168.390625 Z M 115.070312 169.386719 "/>
<path style=" stroke:none;fill-rule:nonzero;fill:rgb(100%,0%,0.784314%);fill-opacity:1;" d="M 52.816406 124.925781 L 50.84375 122.398438 C 53.980469 121.269531 55.957031 121.746094 57.046875 124.027344 C 56.328125 123.960938 55.609375 123.960938 54.890625 124.027344 C 54.175781 124.265625 53.480469 124.566406 52.816406 124.925781 Z M 52.816406 124.925781 "/>
<path style=" stroke:none;fill-rule:nonzero;fill:rgb(100%,0%,0.784314%);fill-opacity:1;" d="M 56.828125 126.355469 C 57.261719 125.582031 57.761719 124.84375 58.332031 124.160156 C 58.535156 123.945312 59.234375 124.160156 59.707031 124.222656 C 59.554688 124.730469 59.546875 125.414062 59.210938 125.71875 C 58.597656 126.140625 57.933594 126.480469 57.234375 126.722656 Z M 56.828125 126.355469 "/>
</g>
</svg>
