<?xml version="1.0" encoding="UTF-8"?>
<svg xmlns="http://www.w3.org/2000/svg" xmlns:xlink="http://www.w3.org/1999/xlink" width="px" height="px" viewBox="0 0 230 267" version="1.1">
<g id="surface1">
<path style=" stroke:none;fill-rule:nonzero;fill:rgb(100%,0%,0.784314%);fill-opacity:1;" d="M 23.320312 217.351562 C 24.296875 215.71875 25.25 215.328125 27.078125 216.019531 C 27.613281 216.273438 28.253906 216.09375 28.578125 215.601562 C 30.605469 213.351562 32.671875 211.101562 34.746094 208.855469 C 33.566406 207.355469 32.371094 205.902344 31.253906 204.355469 C 30.675781 203.636719 30.214844 202.828125 29.886719 201.964844 C 29.703125 201.335938 29.816406 200.65625 30.195312 200.113281 C 30.722656 199.722656 31.410156 199.605469 32.042969 199.800781 C 33.039062 200.246094 33.984375 200.800781 34.859375 201.457031 C 35.746094 202.09375 36.597656 202.777344 37.414062 203.503906 C 37.589844 203.089844 37.8125 202.699219 38.082031 202.339844 C 62.425781 178.03125 86.773438 153.734375 111.121094 129.445312 C 113.179688 127.390625 114.800781 127.195312 117.324219 128.792969 C 119.625 126.90625 121.960938 125.046875 124.265625 123.089844 C 125.691406 121.882812 127.148438 120.839844 129.183594 121.386719 C 129.386719 121.441406 129.726562 121.171875 129.9375 120.976562 C 141.082031 110.4375 152.226562 99.894531 163.363281 89.347656 C 163.449219 89.25 163.582031 89.214844 163.707031 89.25 C 162.761719 90.261719 161.8125 91.28125 160.859375 92.292969 C 151.269531 102.449219 141.683594 112.609375 132.097656 122.765625 C 131.824219 123.078125 131.6875 123.484375 131.722656 123.898438 C 132.050781 125.433594 131.621094 127.03125 130.566406 128.195312 C 128.515625 130.667969 126.472656 133.15625 124.4375 135.621094 C 126.03125 138.230469 125.835938 139.773438 123.6875 141.933594 L 50.664062 214.738281 C 50.328125 215.042969 49.976562 215.332031 49.609375 215.601562 C 50.566406 216.890625 51.449219 218.003906 52.246094 219.183594 C 52.671875 219.800781 53 220.480469 53.222656 221.199219 C 53.417969 221.691406 53.320312 222.25 52.972656 222.652344 C 52.621094 223.050781 52.078125 223.222656 51.5625 223.09375 C 50.957031 223.007812 50.378906 222.78125 49.875 222.433594 C 48.257812 221.28125 46.695312 220.050781 45.117188 218.851562 L 44.042969 218.042969 C 41.625 220.238281 39.261719 222.367188 36.925781 224.527344 C 36.757812 224.753906 36.6875 225.035156 36.734375 225.3125 C 36.796875 225.746094 37.015625 226.160156 37.097656 226.59375 C 37.398438 227.773438 36.789062 228.992188 35.667969 229.464844 L 33.820312 229.464844 C 29.066406 227.390625 25.300781 223.566406 23.304688 218.785156 Z M 96.449219 165.535156 L 91.863281 161.035156 L 92.550781 159.996094 L 97.15625 164.640625 L 99.695312 162.316406 L 93.109375 155.789062 L 93.933594 155.039062 L 100.339844 161.457031 L 102.769531 159.117188 L 98.179688 154.582031 L 98.863281 153.78125 L 103.457031 158.4375 L 105.984375 156.039062 C 104.414062 154.484375 102.878906 152.988281 101.316406 151.449219 L 102.128906 150.699219 L 106.636719 155.378906 L 109.0625 152.898438 L 104.449219 148.398438 L 105.203125 147.507812 L 109.707031 152.132812 L 112.253906 149.667969 L 107.746094 145.265625 L 108.363281 144.34375 L 113.019531 149.050781 L 115.027344 147.007812 L 106.132812 138.160156 L 39.28125 204.867188 L 47.882812 213.769531 L 52.292969 209.363281 L 45.53125 202.617188 L 46.238281 202.042969 L 53 208.832031 C 53.800781 208.039062 54.574219 207.273438 55.5 206.375 L 50.820312 201.792969 L 51.722656 200.984375 L 56.144531 205.609375 L 58.660156 203.113281 L 53.953125 198.617188 L 54.785156 197.867188 C 56.332031 199.441406 57.835938 200.972656 59.292969 202.460938 L 61.742188 200.03125 L 57.160156 195.484375 L 57.910156 194.808594 L 62.417969 199.449219 L 64.925781 197.019531 C 63.355469 195.519531 61.808594 194.023438 60.164062 192.460938 L 61.082031 191.414062 L 65.585938 196.03125 L 68.164062 193.691406 L 61.132812 186.722656 L 61.882812 185.90625 L 68.726562 193.101562 L 71.214844 190.753906 L 66.546875 186.152344 L 67.300781 185.328125 L 71.804688 189.878906 L 74.316406 187.441406 L 69.75 182.875 L 70.445312 182.128906 L 75.089844 186.8125 L 77.574219 184.351562 C 75.988281 182.855469 74.433594 181.355469 72.8125 179.855469 L 73.632812 178.925781 C 75.261719 180.628906 76.765625 182.128906 78.265625 183.699219 L 80.722656 181.257812 L 75.996094 176.597656 L 76.867188 175.847656 L 81.375 180.410156 L 83.839844 178.027344 L 76.988281 171.222656 L 77.84375 170.425781 L 84.664062 177.253906 L 87.105469 174.917969 L 82.449219 170.335938 L 83.285156 169.589844 L 87.789062 174.203125 L 90.269531 171.800781 L 85.582031 167.21875 L 86.257812 166.433594 L 90.914062 171.207031 L 93.445312 168.621094 L 88.738281 164.0625 L 89.667969 163.246094 L 94.175781 167.945312 Z M 116.957031 132.261719 C 116.484375 131.714844 116.070312 131.160156 115.582031 130.6875 C 115.296875 130.386719 114.902344 130.214844 114.484375 130.214844 C 114.070312 130.214844 113.671875 130.386719 113.390625 130.6875 C 112.699219 131.304688 112.035156 131.941406 111.535156 132.40625 L 120.605469 141.460938 C 121.164062 140.914062 121.855469 140.296875 122.476562 139.617188 C 122.800781 139.332031 122.984375 138.921875 122.984375 138.492188 C 122.984375 138.0625 122.800781 137.652344 122.476562 137.367188 C 121.992188 136.890625 121.476562 136.441406 120.9375 136.027344 C 123.527344 132.878906 125.957031 129.953125 128.351562 127.03125 C 128.761719 126.578125 129.074219 126.046875 129.269531 125.464844 C 129.402344 124.980469 129.300781 124.464844 128.996094 124.0625 C 128.53125 123.832031 127.992188 123.785156 127.496094 123.9375 C 127.015625 124.117188 126.578125 124.394531 126.210938 124.753906 C 123.144531 127.160156 120.132812 129.664062 116.957031 132.253906 Z M 34.941406 222.953125 L 42.25 216.3125 L 36.488281 210.609375 L 29.96875 217.742188 Z M 26.046875 218.140625 L 25.816406 218.425781 C 27.601562 222.191406 30.644531 225.222656 34.421875 227 L 34.789062 226.730469 C 33.109375 223.851562 31.433594 220.964844 29.609375 217.824219 L 28.480469 219.324219 Z M 34.550781 204.328125 C 35.917969 206.742188 46.621094 217.351562 48.402344 218.101562 C 43.871094 213.515625 39.785156 208.515625 34.550781 204.328125 Z M 34.550781 204.328125 "/>
<path style=" stroke:none;fill-rule:nonzero;fill:rgb(100%,0%,0.784314%);fill-opacity:1;" d="M 166.507812 85.773438 C 172.617188 80.277344 175.636719 73.171875 178.105469 65.753906 C 179.171875 62.546875 180.066406 59.253906 181.417969 56.175781 C 182.445312 54.058594 183.726562 52.074219 185.234375 50.269531 C 186.339844 48.835938 187.953125 47.878906 189.742188 47.59375 C 192.175781 47.179688 194.015625 48.867188 193.570312 51.289062 C 193.265625 52.863281 192.792969 54.398438 192.160156 55.875 C 189.742188 61.644531 187.246094 67.378906 184.777344 73.113281 C 184.574219 73.578125 184.355469 74.035156 184.085938 74.613281 C 186.164062 74.289062 188.109375 73.863281 190.09375 73.691406 C 194.21875 73.253906 198.355469 72.859375 202.472656 72.582031 C 203.703125 72.546875 204.933594 72.699219 206.117188 73.039062 C 207.203125 73.316406 207.484375 74.066406 206.722656 74.882812 C 205.753906 75.96875 204.613281 76.894531 203.351562 77.625 C 200.128906 79.363281 196.589844 80.210938 193.007812 80.886719 C 184.175781 82.585938 175.335938 84.160156 166.507812 85.773438 Z M 166.507812 85.773438 "/>
</g>
</svg>
