<?xml version="1.0" encoding="UTF-8"?>
<svg xmlns="http://www.w3.org/2000/svg" xmlns:xlink="http://www.w3.org/1999/xlink" width="px" height="px" viewBox="0 0 230 267" version="1.1">
<g id="surface1">
<path style=" stroke:none;fill-rule:nonzero;fill:rgb(100%,0%,0.784314%);fill-opacity:1;" d="M 94.386719 147.949219 C 94.386719 148.902344 94.851562 149.171875 95.667969 149.058594 C 96.488281 148.945312 96.421875 148.4375 96.351562 147.808594 C 96.179688 146.511719 96.503906 146.308594 97.734375 146.75 C 98.089844 146.9375 98.472656 147.0625 98.871094 147.117188 C 99.441406 147.117188 100.320312 147.117188 100.523438 146.820312 C 100.945312 146.148438 101.136719 145.359375 101.0625 144.570312 C 100.949219 143.820312 100.3125 144.203125 100.019531 144.570312 C 99.589844 145.125 99.269531 145.738281 98.824219 146.414062 C 98.019531 144.539062 98.652344 142.667969 100.515625 142.546875 C 100.746094 142.546875 101.011719 142.222656 101.167969 141.984375 C 101.660156 141.136719 102.203125 140.324219 102.789062 139.539062 C 103.945312 138.257812 105.222656 137.082031 106.441406 135.851562 C 106.832031 135.464844 107.191406 135.105469 107.769531 135.613281 C 108.027344 135.75 108.332031 135.75 108.589844 135.613281 C 108.722656 135.359375 108.589844 134.984375 108.632812 134.660156 C 108.679688 134.339844 108.566406 133.851562 108.753906 133.636719 C 109.632812 132.601562 110.59375 131.632812 111.804688 130.34375 C 112.195312 131.242188 112.691406 131.84375 112.609375 132.316406 C 112.40625 133.558594 113.117188 133.816406 114.171875 134.113281 C 114.050781 133.085938 112.667969 132.152344 114.109375 131.242188 C 114.992188 130.675781 116.152344 130.796875 116.902344 131.527344 L 117.273438 131.425781 C 117.183594 130.675781 117.273438 129.859375 116.925781 129.296875 C 116.730469 128.972656 115.777344 128.949219 115.207031 129.054688 C 113.652344 129.332031 113.703125 129.386719 113.703125 127.894531 C 113.671875 127.460938 113.597656 127.03125 113.488281 126.613281 C 114.019531 126.835938 114.574219 127.277344 114.988281 127.1875 C 115.402344 127.097656 115.835938 126.5 116.234375 126.101562 L 148.789062 93.625 C 149.285156 93.132812 149.726562 92.382812 150.628906 93.296875 C 151.832031 89.855469 154.609375 87.847656 156.96875 85.523438 C 158.167969 84.4375 158.960938 82.976562 159.222656 81.378906 C 159.855469 76.882812 162.105469 73.253906 164.871094 69.839844 C 166.734375 67.53125 168.515625 65.136719 170.488281 62.921875 C 171.992188 61.242188 173.703125 59.773438 175.320312 58.207031 C 175.808594 57.734375 176.296875 57.246094 176.753906 56.746094 C 177.738281 55.664062 178.257812 55.734375 179.5625 56.242188 C 182.84375 57.5 184.695312 60.394531 187.140625 62.605469 C 187.472656 63.007812 187.683594 63.492188 187.75 64.007812 C 188.070312 65.414062 188.351562 66.828125 188.589844 68.25 C 188.660156 68.617188 188.6875 69.15625 188.480469 69.375 C 187.398438 70.488281 186.226562 71.523438 185.054688 72.625 C 183.539062 71.015625 182.800781 68.828125 183.039062 66.628906 C 181.726562 66.78125 180.292969 68.128906 180.269531 69.207031 C 180.335938 69.550781 180.574219 69.835938 180.898438 69.957031 C 182.882812 70.234375 183.429688 71.898438 184.152344 73.332031 C 184.28125 73.585938 183.851562 74.296875 183.507812 74.582031 C 180.886719 76.769531 178.25 78.898438 175.566406 81.050781 C 172.203125 83.777344 168.535156 85.855469 164.15625 86.476562 C 162.644531 86.734375 161.265625 87.492188 160.238281 88.628906 C 146.605469 102.296875 132.945312 115.945312 119.253906 129.566406 C 118.007812 130.808594 118.007812 130.808594 119.253906 132.074219 C 129.769531 142.570312 140.3125 153.078125 150.878906 163.601562 C 151.824219 164.535156 152.199219 165.257812 151.296875 166.425781 C 150.769531 167.246094 150.3125 168.109375 149.9375 169.011719 C 149.429688 168.578125 149 168.261719 148.617188 167.863281 L 115.980469 135.304688 C 114.734375 134.054688 114.726562 134.054688 113.464844 135.304688 C 102.363281 146.382812 91.207031 157.417969 80.175781 168.570312 C 76.191406 172.59375 72.527344 176.925781 68.675781 181.078125 C 66.757812 183.140625 64.753906 185.117188 62.785156 187.132812 C 60.253906 189.71875 57.722656 192.3125 55.175781 194.882812 C 54.875 195.113281 54.542969 195.300781 54.191406 195.445312 C 53.957031 195.132812 53.777344 194.785156 53.660156 194.410156 C 53.589844 193.816406 53.589844 193.214844 53.660156 192.621094 C 53.734375 191.914062 53.882812 191.21875 54.003906 190.515625 L 53.621094 190.378906 C 53.324219 190.972656 53.105469 191.597656 52.96875 192.246094 C 52.847656 193.003906 52.929688 193.777344 53.207031 194.492188 C 53.960938 196.066406 53.207031 197.066406 52.195312 198.082031 C 49.882812 200.488281 47.621094 202.941406 45.246094 205.285156 C 44.542969 205.929688 43.707031 206.414062 42.796875 206.703125 C 41.421875 207.183594 40.761719 206.507812 41.011719 204.882812 L 40.070312 205.5625 C 37.9375 203.832031 37.992188 202.132812 39.914062 200.242188 C 48.019531 192.3125 56.21875 184.503906 64.429688 176.671875 C 67.894531 173.375 71.460938 170.179688 74.945312 166.925781 C 76.507812 165.480469 78.078125 164.042969 79.589844 162.542969 C 84.222656 157.964844 88.820312 153.347656 93.4375 148.746094 C 93.800781 148.488281 94.09375 148.21875 94.386719 147.949219 Z M 178.382812 59.128906 C 178.300781 61.375 179.464844 62.832031 180.59375 64.621094 C 180.734375 62.304688 180.335938 60.535156 178.382812 59.128906 Z M 184.394531 64.238281 L 183.867188 61.722656 L 183.328125 61.722656 C 183.191406 62.277344 182.769531 63.011719 182.980469 63.355469 C 183.558594 64.167969 184.21875 64.921875 184.949219 65.601562 C 185.105469 64.855469 185.292969 64.03125 185.519531 63.003906 Z M 184.394531 64.238281 "/>
<path style=" stroke:none;fill-rule:nonzero;fill:rgb(100%,0%,0.784314%);fill-opacity:1;" d="M 100.402344 119.710938 L 99.777344 119.117188 C 89.636719 109 79.496094 98.878906 69.394531 88.738281 C 68.132812 87.507812 66.539062 86.664062 64.804688 86.320312 C 62.386719 85.742188 59.894531 85.277344 57.828125 83.777344 C 54.742188 81.53125 51.601562 79.335938 48.710938 76.851562 C 45.703125 74.253906 42.886719 71.351562 40.003906 68.554688 C 39.253906 67.808594 39.679688 67.058594 39.964844 66.234375 C 41.019531 63.234375 43.667969 61.570312 45.585938 59.292969 C 46.90625 57.710938 48.648438 56.878906 50.40625 56.03125 C 50.765625 55.78125 51.21875 55.691406 51.644531 55.789062 C 52.074219 55.886719 52.441406 56.160156 52.660156 56.542969 C 53.144531 57.183594 53.707031 57.765625 54.335938 58.273438 C 59.335938 62.644531 63.402344 67.820312 67.164062 73.261719 C 68.710938 75.480469 69.738281 78.015625 70.167969 80.683594 C 70.433594 82.554688 71.308594 84.285156 72.664062 85.605469 C 83.109375 95.929688 93.476562 106.324219 103.871094 116.695312 C 104.121094 116.902344 104.347656 117.132812 104.546875 117.386719 C 104.757812 117.691406 105.117188 118.203125 105.015625 118.359375 C 104.757812 118.707031 104.375 118.941406 103.945312 119.011719 C 103.195312 119.117188 102.445312 119.011719 101.695312 119.085938 C 101.234375 119.226562 100.796875 119.4375 100.402344 119.710938 Z M 100.402344 119.710938 "/>
<path style=" stroke:none;fill-rule:nonzero;fill:rgb(100%,0%,0.784314%);fill-opacity:1;" d="M 191.078125 202.820312 C 190.730469 204.492188 189.617188 205.902344 188.074219 206.628906 C 186.796875 207.296875 185.496094 206.554688 184.582031 205.652344 C 182.085938 203.203125 179.714844 200.640625 177.292969 198.113281 C 174.402344 195.117188 171.527344 192.066406 168.621094 189.050781 C 165.488281 185.816406 162.308594 182.628906 159.207031 179.367188 C 156.480469 176.5 153.851562 173.546875 151.140625 170.660156 C 150.390625 169.859375 150.523438 169.332031 151.375 168.734375 C 151.933594 168.34375 152.421875 167.855469 152.816406 167.292969 C 153.445312 166.367188 153.996094 166.449219 154.753906 167.136719 C 156.652344 168.867188 158.660156 170.488281 160.515625 172.269531 C 165.097656 176.664062 169.601562 181.144531 174.175781 185.550781 C 179.246094 190.425781 184.394531 195.222656 189.441406 200.128906 C 190.101562 200.953125 190.652344 201.855469 191.078125 202.820312 Z M 191.078125 202.820312 "/>
<path style=" stroke:none;fill-rule:nonzero;fill:rgb(100%,0%,0.784314%);fill-opacity:1;" d="M 110 123.097656 C 111.578125 124.070312 111.855469 124.933594 110.851562 125.800781 C 110.558594 126.058594 109.992188 125.996094 109.558594 126.078125 C 109.53125 125.726562 109.53125 125.371094 109.558594 125.015625 C 109.664062 124.417969 109.8125 123.800781 110 123.097656 Z M 110 123.097656 "/>
<path style=" stroke:none;fill-rule:nonzero;fill:rgb(100%,0%,0.784314%);fill-opacity:1;" d="M 111.316406 130.449219 C 111.027344 130.160156 110.761719 129.851562 110.511719 129.527344 C 110.921875 129.035156 111.402344 128.601562 111.9375 128.246094 C 112.027344 128.195312 112.554688 128.867188 112.871094 129.207031 Z M 111.316406 130.449219 "/>
<path style=" stroke:none;fill-rule:nonzero;fill:rgb(100%,0%,0.784314%);fill-opacity:1;" d="M 103.519531 122.65625 L 101.6875 120.667969 C 104.039062 121.199219 104.285156 121.417969 103.519531 122.65625 Z M 103.519531 122.65625 "/>
<path style=" stroke:none;fill-rule:nonzero;fill:rgb(100%,0%,0.784314%);fill-opacity:1;" d="M 106.058594 123.441406 C 105.96875 121.996094 106.335938 121.777344 107.808594 122.339844 Z M 106.058594 123.441406 "/>
</g>
</svg>
