<?xml version="1.0" encoding="UTF-8"?>
<svg xmlns="http://www.w3.org/2000/svg" xmlns:xlink="http://www.w3.org/1999/xlink" width="px" height="px" viewBox="0 0 230 267" version="1.1">
<g id="surface1">
<path style=" stroke:none;fill-rule:nonzero;fill:rgb(100%,0%,0.784314%);fill-opacity:1;" d="M 56.84375 172.863281 L 56.84375 168.261719 C 57.753906 165 60.007812 163.511719 63.304688 163.335938 C 64.835938 163.285156 66.363281 163.144531 67.878906 162.925781 C 68.789062 162.804688 69.65625 162.472656 70.417969 161.957031 C 81.535156 153.320312 92.628906 144.648438 103.699219 135.941406 C 103.8125 135.859375 103.835938 135.667969 103.917969 135.492188 C 101.753906 134.191406 99.582031 132.992188 97.53125 131.609375 C 93.738281 129.078125 89.953125 126.53125 86.265625 123.800781 C 85.121094 122.964844 84.269531 121.792969 83.832031 120.453125 C 82.964844 117.101562 82.359375 113.691406 82.023438 110.25 C 81.894531 108.871094 82.773438 107.34375 83.375 105.984375 C 83.75 105.417969 84.367188 105.058594 85.046875 105.019531 C 87.519531 105.085938 90.066406 105.019531 92.425781 105.597656 C 100.613281 107.621094 107.550781 112.070312 113.96875 117.355469 C 115.761719 118.871094 117.789062 120.085938 119.976562 120.953125 C 120.753906 121.382812 121.722656 121.238281 122.34375 120.601562 C 130.3125 113.59375 138.332031 106.636719 146.289062 99.617188 C 146.867188 99.105469 147.039062 98.167969 147.550781 97.210938 C 146.519531 97.074219 146.011719 96.953125 145.492188 96.941406 C 134.519531 96.722656 123.535156 96.191406 112.570312 96.386719 C 98.476562 96.671875 84.386719 95.578125 70.507812 93.125 C 68.878906 92.824219 67.628906 92.144531 67.082031 90.734375 C 65.925781 87.796875 64.941406 84.796875 64.015625 81.785156 C 63.558594 80.285156 63.371094 78.71875 62.964844 76.71875 C 65.21875 76.972656 67.261719 76.832031 68.976562 77.46875 C 72.03125 78.492188 75.230469 79.050781 78.453125 79.117188 C 88.128906 79.679688 97.804688 80.082031 107.46875 79.371094 C 122.0625 78.292969 136.644531 77.027344 151.230469 75.828125 C 153.085938 75.675781 154.941406 75.4375 156.796875 75.242188 L 161.410156 75.242188 C 163.128906 77.207031 165.164062 78.988281 166.507812 81.183594 C 168.523438 84.421875 170.054688 87.929688 171.804688 91.347656 C 172.820312 93.070312 172.300781 95.289062 170.625 96.386719 C 160.859375 103.484375 150.996094 110.503906 141.261719 117.679688 C 137.867188 120.179688 134.734375 123.035156 131.324219 125.863281 L 132.78125 126.542969 C 139.070312 129.445312 145.890625 130.398438 152.582031 131.792969 C 157.488281 132.789062 162.191406 135.164062 167.476562 134.144531 C 168.175781 134.007812 169.371094 135.171875 169.910156 136.003906 C 170.226562 136.492188 169.859375 137.605469 169.503906 138.289062 C 168.972656 139.324219 168.136719 140.207031 167.515625 141.203125 C 165.457031 144.488281 163.757812 148.039062 159.898438 149.867188 C 161.605469 151.742188 163.179688 153.472656 164.75 155.210938 C 168.574219 159.304688 170.757812 164.65625 170.886719 170.246094 C 170.863281 171.203125 170.484375 172.113281 169.820312 172.804688 C 166.191406 176.347656 161.722656 177.53125 156.699219 177.375 C 153.226562 177.292969 149.75 177.425781 146.296875 177.773438 C 143.613281 178.019531 140.957031 179.203125 138.320312 179.089844 C 117.902344 178.246094 97.488281 177.683594 77.058594 177.847656 C 73.351562 177.914062 69.6875 178.652344 66.25 180.027344 C 64.695312 180.550781 63.09375 180.925781 61.472656 181.152344 C 61.007812 181.265625 60.515625 181.1875 60.109375 180.933594 C 59.703125 180.679688 59.421875 180.269531 59.324219 179.804688 C 58.519531 177.472656 57.671875 175.171875 56.84375 172.863281 Z M 87.527344 159.777344 L 89.847656 159.777344 C 109.558594 159.71875 129.269531 159.621094 148.976562 159.636719 C 152.734375 159.636719 156.488281 159.851562 160.117188 158.539062 C 161.617188 158.015625 162.113281 157.242188 161.355469 155.933594 C 159.320312 152.417969 156.5625 150.011719 152.28125 149.425781 C 148.980469 148.929688 145.714844 148.195312 142.515625 147.230469 C 138.394531 146.046875 134.382812 144.480469 130.257812 143.296875 C 127.320312 142.457031 124.128906 142.335938 121.3125 141.234375 C 117 139.546875 113.3125 139.847656 109.917969 143.046875 C 109.449219 143.390625 108.945312 143.683594 108.417969 143.917969 C 100.914062 148.25 93.710938 152.898438 87.527344 159.777344 Z M 111.242188 118.652344 C 106.648438 113.679688 100.605469 110.269531 93.964844 108.910156 C 93.324219 108.886719 92.6875 108.96875 92.070312 109.148438 C 92.261719 109.773438 92.546875 110.367188 92.914062 110.910156 C 97.921875 116.171875 104.628906 117.28125 111.242188 118.652344 Z M 111.242188 118.652344 "/>
</g>
</svg>
