<?xml version="1.0" encoding="UTF-8"?>
<svg xmlns="http://www.w3.org/2000/svg" xmlns:xlink="http://www.w3.org/1999/xlink" width="px" height="px" viewBox="0 0 230 267" version="1.1">
<g id="surface1">
<path style=" stroke:none;fill-rule:nonzero;fill:rgb(100%,0%,0.784314%);fill-opacity:1;" d="M 199.429688 61.023438 C 199.144531 62.394531 198.875 63.773438 198.582031 65.144531 C 196.261719 76.066406 186.644531 85.082031 175.597656 86.582031 C 171.371094 87.273438 167.035156 86.441406 163.367188 84.234375 C 161.28125 86.207031 159.183594 88.074219 157.21875 90.066406 C 152.027344 95.3125 146.882812 100.558594 141.730469 105.882812 C 141.585938 106.105469 141.351562 106.257812 141.085938 106.289062 C 140.820312 106.320312 140.554688 106.230469 140.363281 106.046875 C 138.597656 104.890625 136.765625 103.851562 134.855469 102.703125 L 158.585938 79.535156 C 157.097656 77.164062 156.199219 74.46875 155.960938 71.683594 C 155.535156 66.074219 157.113281 60.496094 160.425781 55.941406 C 164.464844 50.097656 169.851562 46.027344 176.859375 44.347656 C 178.699219 43.90625 180.613281 43.703125 182.476562 43.410156 C 183.320312 43.285156 183.703125 43.695312 183.566406 44.566406 C 183.320312 46.144531 183.039062 47.71875 182.753906 49.460938 L 187.433594 48.710938 C 188.710938 48.515625 188.988281 48.820312 188.773438 50.117188 C 188.53125 51.617188 188.304688 53.058594 188.019531 54.699219 C 189.582031 54.449219 191.023438 54.210938 192.527344 54.007812 C 194.03125 53.804688 194.277344 54.007812 194.03125 55.550781 C 193.796875 56.953125 193.59375 58.363281 193.347656 59.960938 C 194.683594 59.757812 195.953125 59.503906 197.230469 59.382812 C 197.96875 59.359375 198.707031 59.394531 199.4375 59.488281 Z M 199.429688 61.023438 "/>
<path style=" stroke:none;fill-rule:nonzero;fill:rgb(100%,0%,0.784314%);fill-opacity:1;" d="M 34.347656 211.972656 C 33.25 210.976562 32.09375 210.007812 31.066406 208.972656 C 30.382812 208.316406 30.585938 207.609375 30.921875 206.777344 C 32.621094 202.574219 35.570312 199.367188 38.816406 196.285156 C 44.074219 191.300781 49.257812 186.167969 54.457031 181.09375 L 85.109375 151.15625 C 87.046875 149.277344 88.992188 147.410156 91.117188 145.355469 C 91.117188 148.917969 91.027344 152.304688 93.296875 155.257812 C 92.191406 156.398438 91.125 157.507812 90.027344 158.636719 C 81.597656 167.246094 73.15625 175.855469 64.707031 184.457031 C 57.273438 192.050781 49.867188 199.671875 42.398438 207.234375 C 41.441406 208.144531 40.367188 208.929688 39.207031 209.566406 C 37.707031 210.441406 36.113281 211.175781 34.558594 211.972656 Z M 34.347656 211.972656 "/>
<path style=" stroke:none;fill-rule:nonzero;fill:rgb(100%,0%,0.784314%);fill-opacity:1;" d="M 122.003906 149.570312 C 121.71875 150.320312 121.441406 151.066406 121.148438 151.816406 C 120.894531 152.648438 120.089844 153.179688 119.226562 153.085938 C 116.445312 153.015625 113.660156 153 110.878906 153.085938 C 109.902344 153.207031 108.984375 152.585938 108.746094 151.628906 C 108.5 150.957031 108.234375 150.28125 107.996094 149.605469 L 107.671875 149.515625 C 107.304688 150.332031 106.875 151.136719 106.582031 151.984375 C 106.484375 152.53125 105.984375 152.914062 105.425781 152.867188 C 103.308594 152.867188 101.191406 152.957031 99.078125 152.867188 C 97.269531 152.785156 96.464844 152.117188 96.324219 150.242188 C 96.101562 148.109375 96.136719 145.953125 96.429688 143.828125 C 96.824219 142.148438 96.246094 140.390625 94.925781 139.277344 C 91.003906 135.335938 87.773438 130.871094 86.332031 125.375 C 84.761719 119.378906 86.5 114.523438 91.425781 110.789062 C 95.691406 107.558594 100.605469 105.695312 105.699219 104.246094 C 108.085938 103.574219 110.511719 103.039062 112.9375 102.492188 C 114.976562 102.042969 117.097656 102.183594 119.058594 102.890625 C 122.304688 103.992188 125.675781 104.710938 128.929688 105.792969 C 132.273438 106.875 135.417969 108.492188 138.242188 110.582031 C 143.757812 114.695312 145.425781 119.980469 143.292969 126.523438 C 141.789062 131.132812 139.003906 134.945312 135.824219 138.515625 C 135.609375 138.808594 135.359375 139.078125 135.074219 139.308594 C 133.257812 140.476562 133.25 142.089844 133.570312 144.023438 C 133.839844 145.863281 133.898438 147.722656 133.75 149.578125 C 133.640625 151.9375 132.878906 152.746094 130.574219 152.898438 C 128.460938 152.984375 126.34375 152.957031 124.234375 152.816406 C 123.964844 152.816406 123.621094 152.402344 123.484375 152.066406 C 123.0625 151.242188 122.734375 150.371094 122.355469 149.515625 Z M 134.773438 123.597656 C 134.582031 122.566406 134.332031 121.546875 134.023438 120.542969 C 133.1875 118.179688 131.804688 117.699219 129.824219 119.140625 C 127.050781 121.148438 124.308594 123.203125 121.652344 125.359375 C 120.148438 126.550781 120.148438 127.375 121.117188 128.980469 C 122.433594 131.058594 124.238281 132.78125 126.375 134.003906 C 127.054688 134.476562 127.96875 134.414062 128.578125 133.851562 C 130.417969 132.414062 131.964844 130.632812 133.128906 128.605469 C 134.074219 127.09375 134.648438 125.375 134.804688 123.597656 Z M 95.015625 123.441406 L 95.234375 123.523438 C 95.234375 123.703125 95.234375 123.882812 95.285156 124.0625 C 95.835938 128.464844 98.367188 131.605469 101.804688 134.105469 C 102.316406 134.339844 102.910156 134.300781 103.390625 134.007812 C 105.0625 132.800781 106.621094 131.441406 108.046875 129.949219 C 110.039062 127.699219 109.917969 126.632812 107.589844 124.769531 C 105.007812 122.699219 102.289062 120.78125 99.597656 118.839844 C 98.328125 117.925781 97.132812 118.089844 96.414062 119.484375 C 95.859375 120.769531 95.402344 122.089844 95.046875 123.441406 Z M 95.015625 123.441406 "/>
<path style=" stroke:none;fill-rule:nonzero;fill:rgb(100%,0%,0.784314%);fill-opacity:1;" d="M 94.789062 102.851562 L 87.714844 107.246094 C 85.921875 105.828125 85.921875 105.828125 84.175781 107.566406 L 80.046875 111.675781 C 78.964844 112.753906 78.710938 112.761719 77.664062 111.675781 C 71.609375 105.335938 65.550781 98.988281 59.488281 92.636719 C 55.589844 88.539062 51.585938 84.527344 47.839844 80.300781 C 39.273438 70.601562 34.699219 59.097656 32.851562 46.394531 C 32.824219 46.25 32.824219 46.101562 32.851562 45.960938 C 32.972656 45.464844 33.117188 44.976562 33.25 44.460938 C 33.742188 44.578125 34.207031 44.777344 34.632812 45.050781 C 39.800781 50.015625 44.953125 54.976562 50.121094 59.960938 C 59.511719 68.953125 68.898438 77.949219 78.289062 86.941406 C 83.617188 92.046875 88.929688 97.167969 94.226562 102.296875 C 94.425781 102.472656 94.613281 102.660156 94.789062 102.851562 Z M 94.789062 102.851562 "/>
<path style=" stroke:none;fill-rule:nonzero;fill:rgb(100%,0%,0.784314%);fill-opacity:1;" d="M 135.894531 156.097656 C 138.730469 153.363281 138.898438 149.90625 138.898438 146.203125 C 139.566406 146.832031 140.128906 147.320312 140.65625 147.84375 L 168.304688 175.042969 C 176.355469 182.960938 184.414062 190.863281 192.476562 198.75 C 194.726562 200.945312 195.710938 203.832031 197.109375 206.492188 C 197.203125 206.835938 197.148438 207.203125 196.953125 207.496094 C 196.601562 208.09375 196.1875 208.648438 195.710938 209.152344 C 193.984375 210.976562 193.59375 210.863281 191.28125 209.972656 C 187.082031 208.34375 184.234375 205.113281 181.214844 202.054688 C 175.882812 196.675781 170.566406 191.28125 165.269531 185.875 C 155.644531 176.125 146.023438 166.382812 136.410156 156.644531 C 136.253906 156.503906 136.101562 156.335938 135.894531 156.097656 Z M 135.894531 156.097656 "/>
</g>
</svg>
