<?xml version="1.0" encoding="UTF-8"?>
<svg xmlns="http://www.w3.org/2000/svg" xmlns:xlink="http://www.w3.org/1999/xlink" width="px" height="px" viewBox="0 0 230 267" version="1.1">
<g id="surface1">
<path style=" stroke:none;fill-rule:nonzero;fill:rgb(100%,0%,0.784314%);fill-opacity:1;" d="M 24.449219 68.910156 C 24.859375 68.910156 25.4375 68.796875 25.679688 69.019531 C 32.824219 75.765625 40.019531 82.390625 47.035156 89.257812 C 56.410156 98.410156 65.8125 107.46875 76.15625 115.570312 C 77.027344 116.253906 77.972656 116.847656 78.867188 117.5 C 79.214844 117.820312 79.679688 117.988281 80.152344 117.964844 C 80.625 117.941406 81.070312 117.726562 81.382812 117.371094 C 81.78125 117.066406 82.035156 116.617188 82.097656 116.121094 C 82.15625 115.625 82.011719 115.128906 81.699219 114.738281 C 80.195312 112.703125 78.8125 110.574219 77.140625 108.691406 C 70.566406 101.339844 63.996094 94.007812 57.234375 86.828125 C 49.394531 78.449219 41.363281 70.226562 33.417969 61.9375 C 33.277344 61.824219 33.164062 61.683594 33.078125 61.527344 C 32.972656 61.226562 32.882812 60.921875 32.808594 60.613281 C 33.128906 60.65625 33.558594 60.613281 33.761719 60.746094 C 36.015625 62.246094 38.375 63.746094 40.566406 65.410156 C 49.039062 71.816406 56.835938 79.011719 64.46875 86.394531 C 72.519531 94.152344 80.390625 102.132812 88.457031 109.847656 C 95.023438 116.148438 99.011719 123.890625 101.707031 132.414062 C 102.109375 133.71875 102.839844 134.898438 103.835938 135.839844 C 106.574219 138.492188 109.25 141.210938 111.863281 143.828125 L 134.53125 121.199219 C 133.78125 120.382812 132.851562 119.46875 132.046875 118.433594 C 130.5 116.613281 129.09375 114.679688 127.839844 112.648438 C 125.398438 108.285156 125.917969 103.835938 128.589844 99.808594 C 130.386719 97.105469 132.804688 94.820312 134.847656 92.261719 C 136.105469 90.667969 137.261719 89 138.3125 87.261719 C 138.644531 86.464844 138.867188 85.625 138.972656 84.769531 C 141.144531 84.871094 142.464844 83.53125 143.351562 81.566406 C 144.304688 79.46875 145.386719 77.429688 146.25 75.300781 C 147.113281 73.171875 147.054688 73.054688 145.027344 71.554688 C 147.28125 66.441406 149.707031 61.332031 150.457031 55.664062 L 150.894531 55.703125 C 151.035156 56.960938 151.105469 58.226562 151.101562 59.496094 C 150.441406 70.789062 147.503906 81.402344 141.339844 90.972656 C 139.707031 93.5 137.671875 95.761719 135.996094 98.265625 C 135.011719 99.78125 134.183594 101.394531 133.535156 103.078125 C 132.613281 105.15625 133.234375 107.59375 135.035156 108.984375 C 137.167969 110.835938 139.460938 112.507812 141.871094 114.402344 L 172.984375 85.441406 C 172.230469 84.617188 171.667969 84.054688 171 83.351562 L 201.847656 58.769531 L 202.074219 58.984375 L 177.414062 89.773438 L 175.507812 87.984375 C 165.3125 97.777344 156.269531 108.601562 146.296875 118.757812 C 148.421875 121.484375 149.921875 124.421875 152.550781 126.5 C 153.898438 127.679688 155.804688 127.972656 157.441406 127.25 C 159.816406 126.285156 162.054688 125.027344 164.113281 123.5 C 172.480469 116.6875 182.515625 112.226562 193.1875 110.574219 C 196.945312 109.949219 200.699219 109.246094 204.574219 109.824219 C 204.785156 109.855469 204.976562 109.949219 205.132812 110.09375 C 199.519531 111.074219 194.375 113.332031 189.320312 115.667969 C 189.171875 115.578125 189.074219 115.550781 189.027344 115.488281 C 187.765625 113.660156 187.699219 113.535156 185.617188 114.441406 C 182.882812 115.578125 180.234375 116.90625 177.691406 118.421875 C 176.703125 119.035156 176.296875 120.585938 175.53125 121.851562 C 172.628906 122.191406 170.273438 124.199219 168.019531 126.296875 C 166.15625 128.132812 164.179688 129.84375 162.097656 131.425781 C 156.242188 135.515625 150.878906 135.351562 145.167969 131.035156 C 143.164062 129.535156 141.332031 127.757812 139.535156 126.214844 L 116.917969 148.773438 C 117.03125 148.894531 117.300781 149.21875 117.601562 149.523438 C 132.519531 164.414062 147.449219 179.3125 162.390625 194.214844 C 163.035156 194.882812 163.914062 195.273438 164.839844 195.296875 C 168.820312 195.601562 172.808594 195.886719 176.777344 196.324219 C 179.921875 196.667969 181.898438 198.644531 182.929688 201.5 C 184.0625 204.207031 183.449219 207.328125 181.375 209.410156 C 180.226562 210.429688 178.921875 211.257812 177.511719 211.859375 C 176.933594 212.160156 176.542969 212.316406 176.347656 213.035156 C 175.320312 216.894531 171.605469 219.40625 167.636719 218.929688 C 163.664062 218.453125 160.652344 215.128906 160.574219 211.140625 C 160.328125 207.289062 159.964844 203.449219 159.605469 199.613281 C 159.546875 199.144531 159.339844 198.703125 159.011719 198.359375 C 143.789062 183.136719 128.550781 167.925781 113.296875 152.730469 C 113.175781 152.625 113.039062 152.53125 112.902344 152.445312 C 112.5625 152.769531 112.203125 153.085938 111.871094 153.421875 C 93.453125 171.792969 75.046875 190.175781 56.648438 208.5625 C 56.023438 209.28125 55.539062 210.113281 55.230469 211.011719 C 54.839844 211.953125 54.585938 212.945312 54.476562 213.957031 C 54.214844 216.566406 52.757812 217.839844 50.332031 218.703125 C 46.449219 220.074219 42.714844 221.859375 38.898438 223.410156 C 38.289062 223.554688 37.660156 223.605469 37.035156 223.566406 C 36.960938 222.953125 36.988281 222.328125 37.121094 221.722656 C 39.007812 217.136719 40.941406 212.570312 42.917969 208.03125 C 43.199219 207.425781 43.730469 206.96875 44.375 206.785156 C 49.234375 206.105469 52.710938 203.390625 56.09375 199.964844 C 73 182.847656 90.097656 165.921875 107.132812 148.933594 C 107.566406 148.558594 108.027344 148.207031 108.507812 147.890625 C 105.703125 145.101562 103.082031 142.582031 100.582031 139.953125 C 99.402344 138.699219 97.914062 137.773438 96.261719 137.277344 C 88.113281 134.722656 80.675781 130.921875 74.617188 124.738281 C 68.960938 118.976562 63.160156 113.339844 57.578125 107.5 C 50.710938 100.328125 43.925781 93.070312 37.222656 85.726562 C 32.492188 80.589844 28.21875 75.054688 24.449219 69.179688 Z M 165.132812 200.738281 C 165.457031 204.484375 165.703125 208.082031 166.089844 211.636719 C 166.222656 212.871094 167.671875 213.71875 168.90625 213.53125 C 170.246094 213.367188 171.238281 212.210938 171.195312 210.863281 C 171.148438 210.464844 171.074219 210.074219 170.976562 209.6875 C 170.8125 208.820312 171.082031 207.933594 171.699219 207.304688 C 172.316406 206.675781 173.203125 206.390625 174.074219 206.539062 C 174.46875 206.597656 174.824219 206.742188 175.246094 206.761719 C 176.640625 206.835938 177.847656 205.800781 177.976562 204.410156 C 178.132812 203.0625 177.1875 201.839844 175.84375 201.644531 C 172.367188 201.292969 168.875 201.042969 165.132812 200.738281 Z M 165.132812 200.738281 "/>
</g>
</svg>
